<svg xmlns="http://www.w3.org/2000/svg" width="150" height="65" viewBox="0 0 150 65">
    <defs>
        <linearGradient id="prefix__a" x1="287.997%" x2="-.668%" y1="59.599%" y2="47.915%">
            <stop offset="0%" stop-color="#8B733D"/>
            <stop offset="36.22%" stop-color="#DCB96B"/>
            <stop offset="57.31%" stop-color="#EAC572"/>
            <stop offset="100%" stop-color="#BD9244"/>
        </linearGradient>
        <linearGradient id="prefix__b" x1="471.492%" x2="-21.289%" y1="84.891%" y2="44.552%">
            <stop offset="0%" stop-color="#8B733D"/>
            <stop offset="36.22%" stop-color="#DCB96B"/>
            <stop offset="57.31%" stop-color="#EAC572"/>
            <stop offset="100%" stop-color="#BD9244"/>
        </linearGradient>
        <linearGradient id="prefix__c" x1="751.959%" x2="-208.537%" y1="136.849%" y2="18.98%">
            <stop offset="0%" stop-color="#8B733D"/>
            <stop offset="36.22%" stop-color="#DCB96B"/>
            <stop offset="57.31%" stop-color="#EAC572"/>
            <stop offset="100%" stop-color="#BD9244"/>
        </linearGradient>
        <linearGradient id="prefix__d" x1="459.494%" x2="-52.401%" y1="79.456%" y2="42.737%">
            <stop offset="0%" stop-color="#8B733D"/>
            <stop offset="36.22%" stop-color="#DCB96B"/>
            <stop offset="57.31%" stop-color="#EAC572"/>
            <stop offset="100%" stop-color="#BD9244"/>
        </linearGradient>
        <linearGradient id="prefix__e" x1="705.145%" x2="-255.351%" y1="125.384%" y2="14.809%">
            <stop offset="0%" stop-color="#8B733D"/>
            <stop offset="36.22%" stop-color="#DCB96B"/>
            <stop offset="57.31%" stop-color="#EAC572"/>
            <stop offset="100%" stop-color="#BD9244"/>
        </linearGradient>
        <linearGradient id="prefix__f" x1="502.563%" x2="-96.39%" y1="92.824%" y2="34.829%">
            <stop offset="0%" stop-color="#8B733D"/>
            <stop offset="36.22%" stop-color="#DCB96B"/>
            <stop offset="57.31%" stop-color="#EAC572"/>
            <stop offset="100%" stop-color="#BD9244"/>
        </linearGradient>
        <linearGradient id="prefix__g" x1="615.12%" x2="-283.385%" y1="109.08%" y2="15.102%">
            <stop offset="0%" stop-color="#8B733D"/>
            <stop offset="36.22%" stop-color="#DCB96B"/>
            <stop offset="57.31%" stop-color="#EAC572"/>
            <stop offset="100%" stop-color="#BD9244"/>
        </linearGradient>
        <linearGradient id="prefix__h" x1="679.931%" x2="-298.298%" y1="220.872%" y2="-53.834%">
            <stop offset="0%" stop-color="#8B733D"/>
            <stop offset="36.22%" stop-color="#DCB96B"/>
            <stop offset="57.31%" stop-color="#EAC572"/>
            <stop offset="100%" stop-color="#BD9244"/>
        </linearGradient>
        <linearGradient id="prefix__i" x1="506.663%" x2="-299.945%" y1="268.08%" y2="-111.167%">
            <stop offset="0%" stop-color="#8B733D"/>
            <stop offset="36.22%" stop-color="#DCB96B"/>
            <stop offset="57.31%" stop-color="#EAC572"/>
            <stop offset="100%" stop-color="#BD9244"/>
        </linearGradient>
        <linearGradient id="prefix__j" x1="1185.207%" x2="-702.083%" y1="367.943%" y2="-167.425%">
            <stop offset="0%" stop-color="#8B733D"/>
            <stop offset="36.22%" stop-color="#DCB96B"/>
            <stop offset="57.31%" stop-color="#EAC572"/>
            <stop offset="100%" stop-color="#BD9244"/>
        </linearGradient>
        <linearGradient id="prefix__k" x1="878.099%" x2="-397.959%" y1="181.408%" y2="-24.715%">
            <stop offset="0%" stop-color="#8B733D"/>
            <stop offset="36.22%" stop-color="#DCB96B"/>
            <stop offset="57.31%" stop-color="#EAC572"/>
            <stop offset="100%" stop-color="#BD9244"/>
        </linearGradient>
        <linearGradient id="prefix__l" x1="575.25%" x2="-158.371%" y1="108.653%" y2="24.68%">
            <stop offset="0%" stop-color="#8B733D"/>
            <stop offset="36.22%" stop-color="#DCB96B"/>
            <stop offset="57.31%" stop-color="#EAC572"/>
            <stop offset="100%" stop-color="#BD9244"/>
        </linearGradient>
        <linearGradient id="prefix__m" x1="112.429%" x2="-176.235%" y1="52.527%" y2="40.843%">
            <stop offset="0%" stop-color="#8B733D"/>
            <stop offset="36.22%" stop-color="#DCB96B"/>
            <stop offset="57.31%" stop-color="#EAC572"/>
            <stop offset="100%" stop-color="#BD9244"/>
        </linearGradient>
        <linearGradient id="prefix__n" x1="131.693%" x2="-361.088%" y1="56.688%" y2="16.349%">
            <stop offset="0%" stop-color="#8B733D"/>
            <stop offset="36.22%" stop-color="#DCB96B"/>
            <stop offset="57.31%" stop-color="#EAC572"/>
            <stop offset="100%" stop-color="#BD9244"/>
        </linearGradient>
        <linearGradient id="prefix__o" x1="324.736%" x2="-635.759%" y1="83.712%" y2="-34.157%">
            <stop offset="0%" stop-color="#8B733D"/>
            <stop offset="36.22%" stop-color="#DCB96B"/>
            <stop offset="57.31%" stop-color="#EAC572"/>
            <stop offset="100%" stop-color="#BD9244"/>
        </linearGradient>
        <linearGradient id="prefix__p" x1="147.843%" x2="-364.052%" y1="57.019%" y2="20.3%">
            <stop offset="0%" stop-color="#8B733D"/>
            <stop offset="36.22%" stop-color="#DCB96B"/>
            <stop offset="57.31%" stop-color="#EAC572"/>
            <stop offset="100%" stop-color="#BD9244"/>
        </linearGradient>
        <linearGradient id="prefix__q" x1="346.206%" x2="-614.29%" y1="84.103%" y2="-26.471%">
            <stop offset="0%" stop-color="#8B733D"/>
            <stop offset="36.22%" stop-color="#DCB96B"/>
            <stop offset="57.31%" stop-color="#EAC572"/>
            <stop offset="100%" stop-color="#BD9244"/>
        </linearGradient>
        <linearGradient id="prefix__r" x1="175.514%" x2="-423.439%" y1="58.654%" y2=".659%">
            <stop offset="0%" stop-color="#8B733D"/>
            <stop offset="36.22%" stop-color="#DCB96B"/>
            <stop offset="57.31%" stop-color="#EAC572"/>
            <stop offset="100%" stop-color="#BD9244"/>
        </linearGradient>
        <linearGradient id="prefix__s" x1="351.197%" x2="-547.081%" y1="80.978%" y2="-12.952%">
            <stop offset="0%" stop-color="#8B733D"/>
            <stop offset="36.22%" stop-color="#DCB96B"/>
            <stop offset="57.31%" stop-color="#EAC572"/>
            <stop offset="100%" stop-color="#BD9244"/>
        </linearGradient>
        <linearGradient id="prefix__t" x1="398.658%" x2="-579.571%" y1="147.911%" y2="-126.794%">
            <stop offset="0%" stop-color="#8B733D"/>
            <stop offset="36.22%" stop-color="#DCB96B"/>
            <stop offset="57.31%" stop-color="#EAC572"/>
            <stop offset="100%" stop-color="#BD9244"/>
        </linearGradient>
        <linearGradient id="prefix__u" x1="354.574%" x2="-451.579%" y1="189.906%" y2="-189.342%">
            <stop offset="0%" stop-color="#8B733D"/>
            <stop offset="36.22%" stop-color="#DCB96B"/>
            <stop offset="57.31%" stop-color="#EAC572"/>
            <stop offset="100%" stop-color="#BD9244"/>
        </linearGradient>
        <linearGradient id="prefix__v" x1="681.715%" x2="-1204.573%" y1="231.73%" y2="-303.068%">
            <stop offset="0%" stop-color="#8B733D"/>
            <stop offset="36.22%" stop-color="#DCB96B"/>
            <stop offset="57.31%" stop-color="#EAC572"/>
            <stop offset="100%" stop-color="#BD9244"/>
        </linearGradient>
        <linearGradient id="prefix__w" x1="419.032%" x2="-857.025%" y1="112.455%" y2="-93.668%">
            <stop offset="0%" stop-color="#8B733D"/>
            <stop offset="36.22%" stop-color="#DCB96B"/>
            <stop offset="57.31%" stop-color="#EAC572"/>
            <stop offset="100%" stop-color="#BD9244"/>
        </linearGradient>
        <linearGradient id="prefix__x" x1="217.851%" x2="-515.922%" y1="72.254%" y2="-11.753%">
            <stop offset="0%" stop-color="#8B733D"/>
            <stop offset="36.22%" stop-color="#DCB96B"/>
            <stop offset="57.31%" stop-color="#EAC572"/>
            <stop offset="100%" stop-color="#BD9244"/>
        </linearGradient>
        <linearGradient id="prefix__y" x1="209.375%" x2="-105.117%" y1="90.068%" y2="16.303%">
            <stop offset="0%" stop-color="#8B733D"/>
            <stop offset="36.22%" stop-color="#DCB96B"/>
            <stop offset="57.31%" stop-color="#EAC572"/>
            <stop offset="100%" stop-color="#BD9244"/>
        </linearGradient>
        <linearGradient id="prefix__z" x1="52.597%" x2="35.985%" y1="49.19%" y2="54.372%">
            <stop offset="0%" stop-color="#FFF" stop-opacity=".1"/>
            <stop offset="100%" stop-color="#FFF" stop-opacity=".2"/>
        </linearGradient>
        <linearGradient id="prefix__A" x1="57.021%" x2="28.663%" y1="45.563%" y2="63.473%">
            <stop offset="0%" stop-color="#FFF" stop-opacity=".1"/>
            <stop offset="100%" stop-color="#FFF" stop-opacity=".2"/>
        </linearGradient>
        <linearGradient id="prefix__B" x1="86.957%" x2="31.683%" y1="15.028%" y2="67.336%">
            <stop offset="0%" stop-color="#FFF" stop-opacity=".1"/>
            <stop offset="100%" stop-color="#FFF" stop-opacity=".2"/>
        </linearGradient>
        <linearGradient id="prefix__C" x1="71.12%" x2="41.051%" y1="37.733%" y2="54.721%">
            <stop offset="0%" stop-color="#FFF" stop-opacity=".1"/>
            <stop offset="100%" stop-color="#FFF" stop-opacity=".2"/>
        </linearGradient>
        <linearGradient id="prefix__D" x1="121.23%" x2="44.4%" y1="-28.461%" y2="47.054%">
            <stop offset="0%" stop-color="#FFF" stop-opacity=".1"/>
            <stop offset="100%" stop-color="#FFF" stop-opacity=".2"/>
        </linearGradient>
        <linearGradient id="prefix__E" x1="94.699%" x2="48.025%" y1="-4.542%" y2="42.429%">
            <stop offset="0%" stop-color="#FFF" stop-opacity=".1"/>
            <stop offset="100%" stop-color="#FFF" stop-opacity=".2"/>
        </linearGradient>
        <linearGradient id="prefix__F" x1="124.206%" x2="36.377%" y1="-66.091%" y2="61.286%">
            <stop offset="0%" stop-color="#FFF" stop-opacity=".1"/>
            <stop offset="100%" stop-color="#FFF" stop-opacity=".2"/>
        </linearGradient>
        <linearGradient id="prefix__G" x1="108.953%" x2="36.842%" y1="-38.765%" y2="58.178%">
            <stop offset="0%" stop-color="#FFF" stop-opacity=".1"/>
            <stop offset="100%" stop-color="#FFF" stop-opacity=".2"/>
        </linearGradient>
        <linearGradient id="prefix__H" x1="107.332%" x2="51.188%" y1="-52.774%" y2="80.75%">
            <stop offset="0%" stop-color="#FFF" stop-opacity=".1"/>
            <stop offset="100%" stop-color="#FFF" stop-opacity=".2"/>
        </linearGradient>
    </defs>
    <g fill="none">
        <path fill="url(#prefix__a)" d="M50.014 13.542L0.201 9.723 2.925 12.953 51.585 16.688z"/>
        <path fill="url(#prefix__b)" d="M29.515 16.128L4.191 14.106 10.253 21.572 34.291 22.358z"/>
        <path fill="url(#prefix__c)" d="M31.312 16.295L35.916 22.358 46.755 22.642 42.43 17.194z"/>
        <path fill="url(#prefix__d)" d="M35.298 23.482L11.323 23.035 17.16 29.996 40.299 29.996z"/>
        <path fill="url(#prefix__e)" d="M52.542 29.716L47.933 23.762 37.099 23.762 41.816 29.716z"/>
        <path fill="url(#prefix__f)" d="M41.252 31.287L18.23 31.287 25.078 39.318 42.994 33.702z"/>
        <path fill="url(#prefix__g)" d="M57.873 36.848L59.503 33.196 53.946 31.065 42.994 31.065 46.755 36.288z"/>
        <path fill="url(#prefix__h)" d="M52.542 17.925L44.34 17.419 54.167 29.716 59.503 31.68z"/>
        <path fill="url(#prefix__i)" d="M55.964 45.159L63.38 38.645 60.74 33.481z"/>
        <path fill="url(#prefix__j)" d="M53.72 37.692L49.621 44.206 54.844 45.159 57.481 37.972z"/>
        <path fill="url(#prefix__k)" d="M48.159 37.692L40.299 42.631 48.159 43.981 51.923 38.026z"/>
        <path fill="url(#prefix__l)" d="M44.34 34.826L25.893 40.5 38.39 42.577 46.111 37.354z"/>
        <path fill="url(#prefix__m)" d="M99.994 13.542L98.419 16.688 147.079 12.953 149.804 9.723z"/>
        <path fill="url(#prefix__n)" d="M115.717 22.358L139.751 21.572 145.818 14.106 120.489 16.128z"/>
        <path fill="url(#prefix__o)" d="M118.692 16.295L107.574 17.194 103.249 22.642 114.088 22.358z"/>
        <path fill="url(#prefix__p)" d="M109.709 29.996L132.844 29.996 138.685 23.035 114.706 23.482z"/>
        <path fill="url(#prefix__q)" d="M112.909 23.762L102.071 23.762 97.467 29.716 108.192 29.716z"/>
        <path fill="url(#prefix__r)" d="M107.014 33.702L124.926 39.318 131.779 31.287 108.752 31.287z"/>
        <path fill="url(#prefix__s)" d="M90.501 33.196L92.131 36.848 103.249 36.288 107.014 31.065 96.063 31.065z"/>
        <path fill="url(#prefix__t)" d="M90.501 31.68L95.837 29.716 105.664 17.419 97.467 17.925z"/>
        <path fill="url(#prefix__u)" d="M86.628 38.645L94.04 45.159 89.265 33.481z"/>
        <path fill="url(#prefix__v)" d="M92.524 37.972L95.164 45.159 100.387 44.206 96.284 37.692z"/>
        <path fill="url(#prefix__w)" d="M98.085 38.026L101.845 43.981 109.709 42.631 101.845 37.692z"/>
        <path fill="url(#prefix__x)" d="M103.897 37.354L111.618 42.577 124.111 40.5 105.664 34.826z"/>
        <path fill="url(#prefix__y)" d="M98.59 13.467l-14 3.593-4.304 11.979-2.695-3.986 5.84-10.166L75.009.343l-8.423 14.544 5.841 10.166-2.695 3.986-4.303-11.98-14.002-3.592L64.228 37.39H85.797L98.59 13.467zM62.16 27.844l-5.615-10.425 6.175 1.555-.56 8.87zM77.173 8.937l3.48 6.251-3.48 6.213V8.937zm-7.822 6.255l3.48-6.25v12.467l-3.48-6.217zM93.46 17.42l-5.616 10.425-.56-8.875 6.176-1.55z"/>
        <g>
            <path fill="url(#prefix__z)" d="M29.478 16.688L78.138 12.953 80.862 9.727 31.053 13.546z" transform="translate(68.942)"/>
            <path fill="url(#prefix__A)" d="M46.776 22.362L70.809 21.577 76.876 14.106 51.547 16.128z" transform="translate(68.942)"/>
            <path fill="url(#prefix__B)" d="M38.632 17.194L34.308 22.642 45.146 22.362 49.751 16.295z" transform="translate(68.942)"/>
            <path fill="url(#prefix__C)" d="M69.744 23.035l-23.98.451-4.407 5.745c.4.255.802.51 1.203.769h21.343l5.84-6.965z" transform="translate(68.942)"/>
            <path fill="url(#prefix__D)" d="M33.13 23.766l-.272.351c2.369 1.345 4.822 2.808 7.354 4.391l3.756-4.742H33.13z" transform="translate(68.942)"/>
            <path fill="url(#prefix__E)" d="M44.549 31.291c3.664 2.407 7.487 5.064 11.47 7.993l6.818-7.993H44.549z" transform="translate(68.942)"/>
            <path fill="url(#prefix__F)" d="M28.525 17.925l-1.52 3.004c1.57.819 3.179 1.688 4.83 2.611l4.888-6.12-8.198.505z" transform="translate(68.942)"/>
            <path fill="url(#prefix__G)" d="M17.804 16.508c1.195.523 2.419 1.083 3.672 1.676l3.038-.765-.953 1.768c.782.384 1.575.781 2.382 1.195l3.698-6.911-11.837 3.037z" transform="translate(68.942)"/>
            <path fill="url(#prefix__H)" d="M3.89 8.942v2.452c1.387.405 2.833.86 4.341 1.375V8.942l2.658 4.771c1.132.418 2.298.87 3.497 1.354l.1-.176L6.063.347.234 10.408c.802.196 1.625.414 2.478.648L3.89 8.942z" transform="translate(68.942)"/>
        </g>
        <g fill="#000">
            <g>
                <path d="M1.604.42L1.598.338 1.533.284h-.077C1.255.294 1.07.3.89.3L.611.295H.376L.251.289H.213l-.05.044-.005.07-.01.104-.012.098-.01.088.032.032.038-.049.011-.032C.23.562.251.507.262.485L.344.431C.398.409.502.398.654.398c.066 0 .099.027.099.087V1.55c0 .066-.017.12-.05.158l-.136.066-.043.01-.011.033.032.028.055-.006.25-.016.12-.006h.045l.141.011.088.006h.027l.033-.028-.044-.038c-.093-.005-.158-.038-.196-.087-.039-.055-.055-.142-.055-.273V.551c0-.071.016-.115.044-.131.027-.016.098-.027.218-.027.087 0 .153.016.196.049.044.033.077.082.093.153l.038.043L1.631.6 1.625.502 1.604.42zM3.644 1.784c-.082-.011-.148-.039-.18-.088-.039-.049-.055-.125-.055-.234v-.05L3.382.71V.633c0-.098.016-.175.043-.213.028-.044.077-.065.148-.07l.032-.028-.038-.033-.054.006L3.398.3l-.07-.005-.05-.006-.07.033c-.017.022-.05.076-.088.163l-.43.911-.045.05-.049-.066L2.133.36l-.11-.07-.098.01-.103.005h-.05L1.708.3H1.68l-.05.033.045.032c.076 0 .136.028.18.077.043.054.065.125.065.213L1.915.73l-.033.747c0 .087-.011.158-.038.207l-.126.104-.027.033.033.033.054-.006c.038-.005.093-.01.164-.01l.087.005.082.01.07.006.039-.027-.05-.038c-.097-.028-.157-.093-.18-.208l-.01-.109v-.043l.016-.573V.824l.017-.05.016.006.006.016.365.813.06.12c.038.082.065.126.082.126l.054-.071.017-.033.43-.906.05-.06.016.033.033.753v.054l-.027.12-.093.06-.033.033.027.027.104-.01c.055-.006.12-.011.202-.011.038 0 .103.005.196.016l.071.005.076-.032-.021-.05z" transform="translate(10 53) translate(129.273 .545)"/>
            </g>
            <path d="M5.63 10.975c-.394 0-.71-.11-.955-.317-.246-.218-.399-.529-.464-.938l-.066-.79V2.235c0-.452.055-.752.164-.9.11-.147.355-.256.726-.316.109 0 .174-.027.201-.055l.039-.19c0-.126-.093-.191-.262-.191-.29 0-.698.016-1.244.065l-.573.044c-.436.027-.801.043-1.09.043-.448 0-.764-.016-.955-.065C.96.633.824.616.725.605.6.595.535.671.535.824l.12.201c.07.039.245.082.518.126.447.07.752.202.916.409.164.207.256.545.256 1.025v6.257l-.01.698c0 .453-.066.78-.18.982-.126.202-.371.365-.753.502l-.23.18.017.065c.027.11.11.175.218.175.12 0 .3-.028.562-.071.3-.055.72-.082 1.244-.082.425 0 .982.038 1.663.12.273.027.48.044.628.044.343 0 .507-.082.507-.235.005-.164-.131-.245-.382-.245zM16.675 1.527c-.011-.054-.017-.245-.044-.572-.016-.273-.093-.41-.207-.41-.126 0-.339.011-.611.039-.737.065-1.462.092-2.171.092l-2.073.011-1.364.011c-.354 0-.681-.01-.998-.038C8.99.644 8.853.633 8.798.633c-.18 0-.262.082-.262.234 0 .12.066.18.208.191.501.027.889.153 1.145.382.23.202.344.627.344 1.287v6.47c0 .627-.055 1.074-.164 1.325-.109.256-.327.436-.638.545-.147.044-.218.126-.218.23 0 .136.092.207.262.207.125 0 .392-.028.774-.082.284-.038.616-.055 1.02-.055h.873c.573 0 .954.011 1.145.028.202.027.355.038.453.038.12 0 .175-.071.175-.218 0-.126-.082-.202-.257-.219-.6-.043-.998-.201-1.2-.463-.273-.355-.409-.928-.409-1.718v-.928l-.01-.627c0-.655.065-1.036.18-1.135.114-.098.572-.147 1.363-.147.616 0 1.047.093 1.287.284.24.19.42.562.53 1.107.026.147.092.218.19.207.147-.01.207-.07.207-.18 0-.07-.01-.18-.016-.338l-.12-1.478c-.027-.41-.044-.764-.044-1.075l.011-.245c.011-.098.017-.164.017-.207 0-.137-.082-.202-.235-.202-.065 0-.125.065-.174.18-.191.49-.393.818-.59.982-.201.163-.49.256-.883.256l-.857.011-.3.01c-.218 0-.37-.054-.447-.146-.07-.099-.12-.3-.12-.59V2.04c0-.284.055-.48.175-.59.12-.108.327-.174.627-.174l.327-.01 1.026.01c1.172 0 1.86.344 2.078 1.037.027.082.038.174.038.272v.262c0 .148.055.218.164.218.202 0 .3-.218.3-.643 0-.082-.011-.191-.028-.311l-.07-.584zM26.067 8.635c-.054 0-.202.163-.425.48-.747 1.047-2.007 1.57-3.78 1.57-.382 0-.638-.038-.775-.098-.234-.12-.354-.67-.354-1.652V2.11c0-.693.262-1.053.802-1.091.229-.01.338-.082.338-.207 0-.148-.153-.23-.475-.23-.425 0-.845.017-1.254.066-.557.066-.955.093-1.206.093-.153 0-.398-.017-.72-.044L17.88.671c-.125-.016-.235-.027-.31-.027-.1-.017-.175-.028-.23-.028-.153 0-.235.082-.235.235 0 .125.099.207.3.234l.475.082c.698.11 1.047.584 1.047 1.418v6.568c0 .61-.065 1.052-.19 1.325-.126.273-.366.453-.699.546-.136.038-.207.098-.207.201 0 .137.07.208.229.208.07 0 .218-.011.436-.038.699-.082 1.364-.12 1.97-.12.365 0 .698.01.981.027l.857.038c.534.027.856.044.943.055.366.027.611.038.748.038.665 0 1.183-.23 1.56-.693.436-.53.654-1.118.654-1.79 0-.217-.054-.315-.142-.315zM35.04.595c-.245 0-.453.01-.627.016l-.666.038c-.207.016-.398.027-.572.027-.317 0-.584-.01-.791-.038l-.519-.07C31.745.55 31.61.54 31.467.54c-.136 0-.207.082-.207.245 0 .11.082.175.256.191.328.028.628.148.884.339.256.19.382.398.382.616 0 .262-.29.91-.862 1.953-.284.501-.453.829-.53.954-.272.535-.49.802-.654.802-.163 0-.343-.18-.518-.556-.054-.126-.207-.426-.463-.911l-.617-1.19c-.382-.747-.573-1.227-.573-1.445 0-.273.202-.447.611-.529.18-.038.262-.109.262-.229 0-.136-.109-.202-.327-.202-.11 0-.327.017-.655.044-.436.043-.872.07-1.298.07-.463 0-.97-.027-1.533-.092-.283-.027-.48-.044-.61-.044-.148 0-.219.082-.219.246 0 .136.099.207.29.229.638.065 1.2.545 1.68 1.445l1.2 2.242c.327.627.638 1.173.91 1.615.23.382.344.747.344 1.09v1.5c0 .699-.098 1.2-.31 1.479-.208.283-.612.474-1.19.562-.147.016-.218.081-.218.174 0 .175.065.262.18.262.098 0 .256-.016.474-.055.328-.054.982-.092 1.953-.092.41 0 .72.01.916.038l1.119.098c.147.016.283.027.409.027.234 0 .354-.081.354-.234 0-.137-.082-.207-.256-.23-.966-.054-1.478-.37-1.571-.965l-.038-.534V7.135c0-.257.01-.437.038-.535.027-.098.093-.23.202-.393.556-.872 1.173-1.952 1.833-3.245.37-.72.681-1.206.927-1.462.245-.256.562-.436.954-.53.191-.043.284-.12.284-.234-.033-.081-.104-.141-.24-.141zM45.616 1.527c-.01-.054-.016-.245-.043-.572-.017-.273-.093-.41-.208-.41-.125 0-.338.011-.61.039-.737.065-1.462.092-2.171.092L40.51.687l-1.353.028c-.354 0-.682-.011-.998-.039-.218-.016-.355-.027-.41-.027-.18 0-.26.082-.26.235 0 .12.065.18.206.19.502.028.89.153 1.146.382.229.202.343.628.343 1.288v6.469c0 .627-.054 1.074-.163 1.325-.11.257-.327.437-.638.546-.148.043-.219.125-.219.229 0 .136.093.207.262.207.126 0 .393-.027.775-.082.283-.038.616-.054 1.02-.054h.873c.572 0 .954.01 1.145.027.202.027.355.038.453.038.12 0 .174-.07.174-.218 0-.126-.082-.202-.256-.218-.6-.044-.998-.202-1.2-.464-.273-.354-.41-.927-.41-1.718v-.927l-.01-.628c0-.654.065-1.036.18-1.134.12-.098.573-.147 1.364-.147.616 0 1.047.092 1.287.283.24.191.42.562.529 1.107.027.148.093.219.19.208.148-.011.208-.071.208-.18 0-.071-.01-.18-.016-.338l-.12-1.479c-.028-.409-.044-.763-.044-1.074l.011-.246c.01-.098.016-.163.016-.207 0-.136-.081-.202-.234-.202-.066 0-.126.066-.175.18-.19.491-.392.818-.589.982-.202.164-.49.256-.883.256l-.857.011-.3.011c-.218 0-.37-.054-.447-.147-.071-.098-.12-.3-.12-.59V2.057c0-.283.054-.48.174-.589.12-.109.328-.174.628-.174l.327-.011 1.025.01c1.173 0 1.86.344 2.079 1.037.027.082.038.175.038.273v.262c0 .147.054.218.163.218.202 0 .3-.218.3-.644 0-.082-.01-.19-.027-.31l-.082-.6zM51.153 10.975c-.393 0-.71-.11-.955-.317-.245-.218-.398-.529-.463-.927l-.066-.791V2.247c0-.452.055-.752.164-.9.109-.147.354-.256.725-.316.11-.016.175-.038.202-.071l.038-.19c0-.126-.093-.192-.262-.192-.289 0-.698.017-1.243.066l-.573.043c-.436.038-.802.055-1.09.055-.448 0-.765-.017-.955-.066-.191-.038-.328-.054-.426-.065-.125-.011-.19.065-.19.218l.12.202c.07.038.245.082.517.125.448.071.753.202.917.41.163.207.256.545.256 1.025v6.256l-.01.698c0 .453-.066.78-.18.982-.126.202-.372.366-.754.502l-.229.18.017.066c.027.109.109.174.218.174.12 0 .3-.027.562-.07.3-.055.72-.083 1.243-.083.426 0 .982.039 1.664.12.273.028.48.044.627.044.344 0 .508-.082.508-.235 0-.169-.126-.25-.382-.25zM57.84 5.618c-.23.038-.802.055-1.735.055-.327 0-.534-.044-.616-.137-.093-.092-.125-.3-.125-.638V2.171c0-.398.065-.671.201-.83.137-.146.382-.228.737-.228.802 0 1.45.256 1.969.774.518.518.78 1.173.78 1.964 0 .61-.191 1.09-.573 1.434-.213.197-.42.295-.638.333zm4.98 4.811l-.175.027c-.109.017-.218.028-.338.028-.289 0-.556-.093-.763-.284-.219-.19-.464-.53-.748-1.02l-.807-1.435-.698-1.243c-.093-.175-.164-.3-.207-.371l-.082-.191c-.011-.065.043-.12.147-.153.507-.218.911-.545 1.2-.97.29-.426.436-.9.436-1.419 0-.829-.327-1.505-.981-2.05-.655-.546-1.479-.819-2.482-.819-.338 0-.944.038-1.833.098-.753.055-1.396.093-1.925.093-.48 0-.928-.016-1.326-.065-.125-.017-.229-.028-.283-.028-.148 0-.219.071-.219.23 0 .147.11.234.328.272.583.071.998.284 1.26.638.152.218.234.638.234 1.26v5.69l-.01.31v.748c0 .381-.072.665-.208.856-.136.18-.382.338-.736.447-.11.038-.153.11-.153.23 0 .147.093.217.284.217.054 0 .163-.01.31-.016l.53-.044.665-.065c.273-.016.584-.027.938-.027.42 0 .857.016 1.31.054.152.017.261.028.327.028.18 0 .261-.071.261-.23 0-.152-.109-.234-.327-.256-.545-.054-.9-.256-1.09-.61-.18-.355-.274-1.026-.274-2.024V6.736c0-.207.039-.338.12-.381l.355-.066h.49c.42 0 .72.082.9.235.18.152.42.529.7 1.107.725 1.473 1.314 2.482 1.772 3.005.453.53.954.802 1.489.802.338 0 .709-.098 1.145-.289.426-.19.644-.365.644-.518-.038-.136-.093-.202-.18-.202zM66.878 4.57c-1.047-.425-1.669-.735-1.87-.915-.312-.29-.464-.639-.464-1.048 0-.436.174-.807.529-1.129.354-.316.763-.48 1.232-.48.693 0 1.342.262 1.953.802.617.535.998 1.162 1.151 1.898.044.202.11.3.207.3.126 0 .202-.109.202-.338l-.016-.153-.082-.72-.098-.774c-.011-.093-.011-.18-.011-.284l.016-.638c0-.175-.054-.262-.163-.262l-.126.027-.3.148-.229.054c-.098 0-.262-.043-.502-.147l-.529-.218c-.474-.191-.954-.284-1.445-.284-.835 0-1.544.29-2.106.873-.562.583-.845 1.309-.845 2.17 0 .748.202 1.343.61 1.79.41.447 1.173.927 2.297 1.423l1.2.535c.535.235.911.49 1.13.753.217.262.326.61.326 1.02 0 .529-.207.992-.627 1.39-.42.41-.889.612-1.423.612-.682 0-1.342-.311-1.98-.917-.639-.61-1.08-1.369-1.342-2.269-.028-.125-.082-.19-.153-.19-.164 0-.245.125-.245.381 0 .202.098.655.3 1.37.125.463.207.828.234 1.074.027.229.066.365.098.409.038.043.18.092.42.136.175.038.448.12.808.235.79.245 1.363.37 1.723.37.89 0 1.664-.338 2.324-1.02.665-.681.993-1.472.993-2.389 0-.829-.235-1.532-.72-2.127-.404-.458-1.233-.954-2.477-1.467zM81.05 1.538l-.04-.562c-.015-.245-.163-.365-.452-.365-.082 0-.256.01-.529.016-1.38.071-2.689.098-3.916.098L74.198.698 72.59.682c-.382 0-.67-.011-.873-.027-.125-.011-.218-.017-.261-.017-.202 0-.311.098-.328.311l-.054.48-.093.698-.082.682c-.043.262-.07.464-.082.616-.01.164.071.246.246.246.12 0 .207-.11.262-.327l.065-.219c.153-.572.284-.938.371-1.08.087-.141.273-.272.556-.392.382-.153 1.102-.23 2.155-.23.447 0 .67.208.67.617v6.987l.012.371c0 .464-.11.835-.338 1.107-.23.273-.535.42-.944.448-.153.01-.262.038-.311.065-.044.038-.07.11-.082.23-.01.136.071.207.235.207.07 0 .19-.011.382-.028l1.734-.098c.246-.016.518-.027.818-.027.126 0 .235 0 .317.01l.981.066.59.027.201.011c.164 0 .246-.065.246-.18 0-.174-.093-.261-.284-.283-.654-.044-1.107-.246-1.363-.617-.257-.37-.382-.998-.382-1.881V2.53c0-.491.098-.791.289-.916.202-.126.693-.18 1.489-.18.589 0 1.047.109 1.353.327.31.218.529.573.638 1.063.043.202.125.3.256.3.147 0 .207-.081.207-.261 0-.164-.016-.393-.054-.671l-.082-.655zM92.733 8.553l-.208.136-.507.556c-.343.371-.807.693-1.396.944-.59.256-1.151.382-1.691.382-.9 0-1.724-.382-2.487-1.135-1.02-1.009-1.517-2.361-1.517-4.058 0-1.298.311-2.35.928-3.169.616-.818 1.423-1.216 2.416-1.216 1.118 0 2.133.49 3.054 1.478.23.245.464.562.71.982.245.409.398.72.436.916.027.126.082.191.164.191.147 0 .218-.098.218-.3 0-.136-.017-.29-.044-.464l-.07-.354-.066-.6v-.72l-.011-.573c0-.344-.082-.507-.246-.507l-.147.065-.164.246c-.054.082-.125.125-.234.125-.082 0-.18-.027-.284-.093l-.518-.3c-.725-.42-1.582-.627-2.564-.627-1.325 0-2.481.426-3.469 1.271-.6.518-1.09 1.19-1.445 2.024-.366.829-.546 1.68-.546 2.542 0 1.581.48 2.863 1.446 3.85.965.988 2.214 1.479 3.758 1.479 1.598 0 2.935-.617 4.026-1.844.42-.475.616-.818.616-1.025-.006-.148-.06-.213-.158-.202zM102.376 8.635c-.054 0-.201.163-.425.48-.747 1.047-2.007 1.57-3.78 1.57-.382 0-.638-.038-.775-.098-.234-.12-.354-.67-.354-1.652V2.11c0-.693.262-1.053.802-1.091.229-.01.338-.082.338-.207 0-.148-.153-.23-.475-.23-.425 0-.845.017-1.254.066-.557.066-.955.093-1.206.093-.152 0-.398-.017-.72-.044L94.19.671c-.125-.016-.234-.027-.31-.027-.099-.017-.175-.028-.23-.028-.153 0-.234.082-.234.235 0 .125.098.207.3.234l.474.082c.698.11 1.047.584 1.047 1.418v6.568c0 .61-.065 1.052-.19 1.325-.126.273-.366.453-.699.546-.136.038-.207.098-.207.201 0 .137.07.208.23.208.07 0 .217-.011.435-.038.699-.082 1.364-.12 1.97-.12.365 0 .698.01.981.027l.857.038c.534.027.856.044.943.055.366.027.611.038.748.038.665 0 1.183-.23 1.56-.693.436-.53.654-1.118.654-1.79.006-.217-.038-.315-.142-.315zM108.518 6.807h-2.323c-.371 0-.562-.092-.562-.262l.054-.201.093-.202.916-2.1.148-.327c.163-.371.283-.557.343-.557.098 0 .284.29.53.862l1.025 2.4.038.093.038.136c0 .104-.098.158-.3.158zm5.073 4.25c-.382-.072-.698-.208-.938-.41-.246-.207-.453-.518-.628-.927l-3.578-8.22-.19-.42c-.208-.436-.344-.665-.437-.665-.055 0-.175.201-.338.6V.987l-.382.737-.736 1.5c-.071.147-.191.42-.366.807l-2.143 4.953c-.339.763-.59 1.26-.764 1.505-.175.235-.398.398-.682.491-.147.055-.218.136-.218.235 0 .125.07.19.218.19.098 0 .355-.016.764-.065.556-.055.954-.082 1.2-.082.272 0 .583.038.927.098.175.028.31.044.398.044.18 0 .273-.07.284-.207.01-.126-.093-.208-.29-.235-.927-.109-1.38-.49-1.38-1.145 0-.18.039-.355.11-.53l.245-.61c.246-.6.464-.944.666-1.037l.709-.125h1.063c1.037 0 1.637.016 1.806.065.174.044.327.219.464.53.452.998.681 1.641.681 1.936 0 .207-.081.409-.245.6-.164.19-.371.316-.627.393-.12.038-.175.092-.175.174 0 .153.071.23.218.23l.208-.039c.327-.082.943-.125 1.843-.125s1.555.043 1.953.136c.125.027.229.044.3.044.12.01.18-.066.18-.208.022-.098-.022-.169-.12-.19zM117.65 4.57c-1.048-.425-1.67-.735-1.872-.915-.31-.29-.463-.639-.463-1.048 0-.436.174-.807.529-1.129.354-.316.763-.48 1.232-.48.693 0 1.342.262 1.953.802.616.535.998 1.162 1.151 1.898.044.202.11.3.207.3.126 0 .202-.109.202-.338l-.016-.153-.082-.72-.098-.774c-.011-.093-.017-.18-.017-.284l.017-.638c0-.175-.055-.262-.164-.262l-.125.027-.3.148-.23.065c-.098 0-.261-.044-.501-.147l-.53-.218c-.474-.191-.954-.284-1.445-.284-.834 0-1.543.29-2.105.873s-.846 1.309-.846 2.17c0 .748.202 1.342.611 1.79.41.447 1.173.927 2.297 1.423l1.2.535c.534.234.91.49 1.129.753.218.261.327.61.327 1.02 0 .529-.207.992-.627 1.39-.42.41-.89.611-1.424.611-.682 0-1.342-.31-1.98-.916-.638-.61-1.08-1.369-1.342-2.269-.027-.125-.082-.19-.153-.19-.163 0-.245.125-.245.38 0 .203.098.655.3 1.37.125.464.207.83.235 1.075.027.229.065.365.098.409.038.043.18.092.42.136.174.038.447.12.807.235.79.245 1.364.37 1.724.37.889 0 1.663-.338 2.323-1.02.66-.681.993-1.472.993-2.389 0-.829-.235-1.532-.72-2.127-.398-.469-1.227-.965-2.47-1.478zM125.564 4.57c-1.048-.425-1.67-.735-1.871-.915-.311-.29-.464-.639-.464-1.048 0-.436.175-.807.53-1.129.354-.322.763-.48 1.232-.48.693 0 1.342.262 1.953.802.616.535.998 1.162 1.156 1.898.044.202.11.3.207.3.126 0 .202-.109.202-.338l-.016-.153-.082-.72-.098-.774c-.011-.093-.017-.18-.017-.284l.017-.638c0-.175-.055-.262-.164-.262l-.125.027-.3.148-.23.054c-.098 0-.261-.043-.501-.147l-.53-.218c-.474-.191-.954-.284-1.445-.284-.834 0-1.543.29-2.105.873s-.846 1.309-.846 2.17c0 .748.202 1.343.611 1.79.41.447 1.173.927 2.297 1.423l1.2.535c.534.235.91.49 1.129.753.218.262.327.61.327 1.02 0 .529-.207.992-.627 1.39-.42.41-.89.612-1.424.612-.682 0-1.342-.311-1.98-.917-.638-.61-1.08-1.369-1.342-2.269-.027-.125-.082-.19-.153-.19-.163 0-.245.125-.245.381 0 .202.098.655.3 1.37.125.463.207.828.235 1.074.027.229.065.365.098.409.032.043.18.092.42.136.174.038.447.12.807.235.79.245 1.364.37 1.724.37.889 0 1.663-.338 2.323-1.02.666-.681.993-1.472.993-2.389 0-.829-.235-1.532-.72-2.127-.41-.458-1.233-.954-2.476-1.467z" transform="translate(10 53)"/>
        </g>
    </g>
</svg>
