<?xml version="1.0" standalone="no"?>
<!DOCTYPE svg PUBLIC "-//W3C//DTD SVG 1.1//EN" "http://www.w3.org/Graphics/SVG/1.1/DTD/svg11.dtd">
<svg xmlns="http://www.w3.org/2000/svg">
<metadata>Copyright (C) 2024 by original authors @ fontello.com</metadata>
<defs>
<font id="iflyfirstclass-icons" horiz-adv-x="1000" >
<font-face font-family="iflyfirstclass-icons" font-weight="400" font-stretch="normal" units-per-em="1000" ascent="850" descent="-150" />
<missing-glyph horiz-adv-x="1000" />
<glyph glyph-name="airplane" unicode="&#xe800;" d="M341-125v58l97 73v284l-413-122v77l413 244v274c0 18 6 32 18 44 12 12 27 18 44 18 17 0 32-6 44-18 12-12 18-26 18-44v-274l413-244v-77l-413 122v-283l97-74v-58l-159 46-159-46z" horiz-adv-x="1000" />

<glyph glyph-name="airplan-fly" unicode="&#xe801;" d="M99-114c-12 0-22 4-30 12-8 8-12 18-12 30 0 11 4 21 12 29 8 8 18 12 30 12h889c12 0 22-4 30-12 8-8 12-18 12-29 0-12-4-22-12-30-8-8-18-12-30-12h-889z m90 290c-11-3-21-3-32 1-10 5-18 12-24 22l-98 168c-7 12-8 23-3 33 4 10 13 17 27 20 5 1 11 1 17-1 6-2 11-5 15-9l85-73 283 77-196 332c-8 13-9 26-4 39 5 13 15 22 30 27 8 3 17 3 27 0 10-2 18-6 24-12l359-321 284 77c25 6 48 1 69-16 20-16 30-37 30-64 0-17-5-33-15-46-11-14-24-23-41-27l-837-227z m-90-290c-12 0-22 4-30 12-8 8-12 18-12 30 0 11 4 21 12 29 8 8 18 12 30 12h889c12 0 22-4 30-12 8-8 12-18 12-29 0-12-4-22-12-30-8-8-18-12-30-12h-889z m90 290c-11-3-21-3-32 1-10 5-18 12-24 22l-98 168c-7 12-8 23-3 33 4 10 13 17 27 20 5 1 11 1 17-1 6-2 11-5 15-9l85-73 283 77-196 332c-8 13-9 26-4 39 5 13 15 22 30 27 8 3 17 3 27 0 10-2 18-6 24-12l359-321 284 77c25 6 48 1 69-16 20-16 30-37 30-64 0-17-5-33-15-46-11-14-24-23-41-27l-837-227z" horiz-adv-x="1111" />

<glyph glyph-name="airplan-land" unicode="&#xe802;" d="M59-235c-13 0-23 4-32 12-8 9-12 19-12 32 0 12 4 23 12 31 9 9 19 13 32 13h941c13 0 23-4 31-13 9-8 13-19 13-31 0-13-4-23-13-32-8-8-18-12-31-12h-941z m877 300l-883 245c-11 3-20 10-28 19-7 9-10 19-10 31v202c0 14 5 24 14 31 10 7 22 8 35 3 6-1 11-5 16-10 4-4 8-9 9-15l35-105 303-85v405c0 18 5 31 17 40 12 9 26 11 44 7 8-2 16-6 24-14 7-7 13-14 16-23l152-485 302-84c19-5 34-15 45-31 12-15 17-32 17-52 0-27-11-49-34-66-23-16-47-21-74-13z" horiz-adv-x="1059" />

<glyph glyph-name="arrow-left" unicode="&#xe803;" d="M642 733l-117 117-500-500 500-500 117 117-382 383 382 383z" horiz-adv-x="667" />

<glyph glyph-name="arrows" unicode="&#xe804;" d="M187 86l130-129c8-8 12-18 12-29 0-11-5-21-13-30-9-8-19-12-30-12-11 0-20 4-29 12l-194 195c-5 5-9 10-11 16-2 6-3 12-3 19 0 7 1 13 3 19 2 5 6 11 11 16l194 194c8 8 17 12 29 12 11 0 21-4 30-12 8-9 13-18 13-30 0-11-5-21-13-29l-129-129h799c12 0 22-3 30-11 8-8 12-18 12-30 0-12-4-22-12-30-8-8-18-12-30-12h-799z m737 445h-799c-12 0-22 4-30 12-8 8-12 17-12 29 0 12 4 22 12 30 8 8 18 12 30 12h799l-129 129c-9 8-13 18-13 29 1 11 5 21 14 30 8 8 18 12 29 12 11 0 20-4 29-12l194-195c5-5 9-10 11-16 2-6 3-12 3-19 0-6-1-13-3-18-2-6-6-12-11-17l-194-194c-8-8-17-12-28-12-12 0-22 4-30 12-9 9-13 19-13 30 0 11 4 21 13 29l128 129z" horiz-adv-x="1111" />

<glyph glyph-name="business" unicode="&#xe805;" d="M567 361c-29 0-53 10-73 30-20 20-30 45-30 73v265c0 29 10 53 30 73 20 20 44 30 73 30h87c29 0 53-10 73-30 20-20 30-44 30-73v-265c0-28-10-53-30-73-20-20-44-30-73-30h-87z m0 89h87c4 0 8 1 11 4 2 3 4 6 4 10v265c0 4-2 8-4 10-3 3-7 5-11 5h-87c-5 0-8-2-11-5-3-2-4-6-4-10v-265c0-4 1-7 4-10 3-3 6-4 11-4z m-277-383c-20 0-39 6-55 18-17 12-28 28-35 48l-144 476c-2 5-4 10-4 15-1 6-1 11-1 16v148c0 12 4 23 13 31 8 9 19 13 31 13 13 0 23-4 32-13 8-8 12-19 12-31v-162c0-1 1-2 1-3l143-455c1-4 3-7 6-9 3-2 7-4 11-4h428c13 0 23-4 32-12 8-9 12-19 12-32 0-12-4-23-12-31-9-9-19-13-32-13h-438z m-33-176c-12 0-23 4-31 12-9 9-13 19-13 32 0 12 4 23 13 31 8 9 19 13 31 13h471c12 0 23-4 31-13 9-8 13-19 13-31 0-13-4-23-13-32-8-8-19-12-31-12h-471z m310 853h102-117 15z" horiz-adv-x="824" />

<glyph glyph-name="check" unicode="&#xe806;" d="M464 52l-298 298-101-101 399-399 857 857-100 101-757-756z" horiz-adv-x="1357" />

<glyph glyph-name="chevron" unicode="&#xe807;" d="M478 58l-372 373c-48 47-59 102-33 163 26 62 73 93 141 93h739c68 0 115-31 140-93 26-61 16-116-32-163l-372-373c-16-15-32-27-50-34-17-7-36-11-56-11-20 0-38 4-56 11-17 7-33 19-49 34z" horiz-adv-x="1167" />

<glyph glyph-name="mail" unicode="&#xe808;" d="M144-119c-31 0-58 11-80 33-22 22-33 49-33 80v712c0 31 11 58 33 80 22 22 49 33 80 33h962c31 0 58-11 80-33 22-22 33-49 33-80v-712c0-31-11-58-33-80-22-22-49-33-80-33h-962z m981 754l-470-301c-4-2-9-5-14-6-6-2-11-2-16-2-5 0-10 0-15 2-6 1-11 4-15 6l-470 301v-641c0-5 2-10 5-14 4-3 9-5 14-5h962c5 0 10 2 14 5 3 4 5 9 5 14v641z m-500-222l490 312h-980l490-312z m-500 207v72-2 2-72z" horiz-adv-x="1250" />

<glyph glyph-name="person" unicode="&#xe809;" d="M500 369c-60 0-112 22-154 65-43 42-65 94-65 154 0 60 22 112 65 155 42 42 94 64 154 64 60 0 112-22 155-64 42-43 64-95 64-155 0-60-22-112-64-154-43-43-95-65-155-65z m374-476h-748c-26 0-49 9-67 28-18 18-28 41-28 67v44c0 31 9 59 25 85 17 26 39 46 67 60 62 31 124 53 187 69 63 15 126 22 190 22 64 0 127-7 190-22 63-16 125-38 187-69 28-14 50-34 67-60 16-26 25-54 25-85v-44c0-26-9-49-28-67-18-19-41-28-67-28z m-749 94h750v45c0 13-4 25-11 35-7 11-17 20-30 27-54 26-109 46-165 60-55 14-112 21-169 21-57 0-113-7-169-21-56-14-111-34-165-60-13-7-23-16-30-27-7-10-11-22-11-35v-45z m375 476c34 0 64 12 88 37 25 24 37 54 37 88 0 34-12 64-37 88-24 25-54 37-88 37-34 0-64-12-88-37-25-24-37-54-37-88 0-34 12-64 37-88 24-25 54-37 88-37z" horiz-adv-x="1000" />

<glyph glyph-name="person-card" unicode="&#xe80a;" d="M400 262c24 0 45 8 62 25 17 17 26 38 26 62 0 24-9 45-26 62-17 17-38 26-62 26-24 0-45-9-62-26-17-17-25-38-25-62 0-24 8-45 25-62 17-17 38-25 62-25z m-187-185h375v18c0 18-5 34-15 47-9 14-22 25-39 32-21 9-42 16-64 21-23 5-46 7-70 7-24 0-47-2-69-7-23-5-44-12-65-21-16-7-30-18-39-32-10-13-14-29-14-47v-18z m472-202h-570c-25 0-46 9-64 26-17 18-26 39-26 64v770c0 25 9 46 26 64 18 17 39 26 64 26h337c12 0 24-2 35-7 11-5 21-11 29-19l233-233c8-8 14-18 19-29 5-11 7-23 7-35v-537c0-25-9-46-26-64-18-17-39-26-64-26z m0 75c4 0 7 2 10 5 3 3 5 6 5 10v543l-242 242h-343c-3 0-7-2-10-5-3-3-5-6-5-10v-770c0-4 2-7 5-10 3-3 7-5 10-5h570z" horiz-adv-x="800" />

<glyph glyph-name="phone" unicode="&#xe80b;" d="M913-122c-104 0-209 24-315 73-106 48-203 117-291 206-89 89-157 186-206 291-49 106-73 211-73 315 0 17 5 31 16 42 12 12 25 17 42 17h181c14 0 27-4 37-13 11-10 18-21 21-34l32-164c2-15 2-28-2-39-3-11-8-20-16-27l-129-125c21-38 44-74 71-108 27-33 55-66 86-96 31-31 63-59 97-85 35-26 72-51 112-73l124 126c9 9 19 15 32 19 12 3 25 4 38 2l155-31c14-4 25-11 34-22 9-10 13-22 13-36v-180c0-17-5-30-17-42-11-11-25-16-42-16z m-742 621l99 94c2 2 3 4 3 6 1 3 1 5 0 7l-24 124c-1 3-2 5-4 7-2 1-4 2-7 2h-119c-2 0-3-1-5-2-1-2-2-3-2-6 3-38 9-76 19-115 9-39 23-78 40-117z m483-481c37-17 75-30 115-39 40-9 78-15 112-16 3 0 4 0 6 2 1 1 2 3 2 5v117c0 3-1 5-2 7-2 2-4 3-7 4l-116 24c-2 0-4 0-6 0-1-1-3-2-5-4l-99-100z" horiz-adv-x="1000" />

<glyph glyph-name="phone-ring" unicode="&#xe80c;" d="M944 350c-14 0-28 5-39 16-12 11-18 24-20 40-12 86-49 159-109 220-61 60-134 97-220 109-16 2-29 8-40 19-11 11-16 25-16 40 0 16 6 29 17 40 11 11 24 15 39 13 116-13 216-60 298-143 83-82 130-182 143-298 2-15-2-28-13-39-11-11-24-17-40-17z m-231 0c-12 0-23 4-32 13-10 8-17 19-21 33-8 27-22 51-43 71-20 21-44 35-71 43-14 4-25 11-33 21-9 9-13 20-13 33 0 18 7 34 19 45 13 12 28 16 44 12 51-12 96-37 134-74 37-38 62-83 74-134 4-16-1-31-13-44-12-12-27-19-45-19z m229-500c-116 0-230 25-343 76-113 50-216 122-309 214-92 93-164 196-214 309-51 113-76 227-76 343 0 16 6 30 17 41 11 11 25 17 41 17h225c13 0 25-4 35-13 10-9 16-19 18-31l36-195c2-15 2-27-1-37-3-11-8-19-15-27l-135-136c18-34 40-67 66-99 25-32 53-63 84-93 29-28 59-55 90-79 32-25 65-47 100-68l131 131c8 8 19 14 32 19 14 4 27 5 40 3l192-39c13-4 23-10 32-20 8-10 12-21 12-33v-225c0-16-6-30-17-41-11-11-25-17-41-17z" horiz-adv-x="1000" />

<glyph glyph-name="calendar" unicode="&#xe80d;" d="M250 250c-12 0-23 4-31 13-9 9-13 19-13 31 0 13 4 23 13 32 8 8 19 13 31 13 12 0 23-5 31-13 9-9 13-19 13-32 0-12-4-22-13-31-8-9-19-13-31-13z m200 0c-12 0-23 4-31 13-9 9-13 19-13 31 0 13 4 23 13 32 8 8 19 13 31 13 12 0 23-5 31-13 9-9 13-19 13-32 0-12-4-22-13-31-8-9-19-13-31-13z m200 0c-12 0-23 4-31 13-9 9-13 19-13 31 0 13 4 23 13 32 8 8 19 13 31 13 12 0 23-5 31-13 9-9 13-19 13-32 0-12-4-22-13-31-8-9-19-13-31-13z m-535-378c-25 0-46 9-64 26-17 18-26 39-26 64v670c0 25 9 46 26 64 18 17 39 26 64 26h70v67c0 11 3 21 11 28 7 7 16 11 27 11 11 0 20-4 28-11 7-7 11-17 11-28v-67h378v68c0 11 4 20 11 27 7 7 16 11 27 11 11 0 19-4 27-11 7-7 10-16 10-27v-68h70c25 0 46-9 64-26 17-18 26-39 26-64v-670c0-25-9-46-26-64-18-17-39-26-64-26h-670z m0 75h670c4 0 7 2 10 5 3 3 5 7 5 10v470h-700v-470c0-3 2-7 5-10 3-3 7-5 10-5z m-15 560h700v125c0 4-2 7-5 10-3 4-6 5-10 5h-670c-3 0-7-1-10-5-3-3-5-6-5-10v-125z" horiz-adv-x="900" />

<glyph glyph-name="arrow-right" unicode="&#xe80e;" d="M142-150l-117 117 383 383-383 383 117 117 500-500-500-500z" horiz-adv-x="667" />

<glyph glyph-name="person-fill" unicode="&#xe80f;" d="M500 350c-69 0-128 24-177 73-49 49-73 108-73 177 0 69 24 129 73 177 49 49 108 73 177 73 69 0 129-24 177-73 49-48 73-108 73-177 0-69-24-128-73-177-48-49-108-73-177-73z m-500-375v42c0 26 7 52 22 75 14 24 34 44 60 60 63 37 131 66 202 85 71 20 143 30 216 30 73 0 145-10 216-30 71-19 139-48 202-85 26-15 46-35 60-59 15-24 22-50 22-76v-42c0-35-12-64-36-89-25-24-54-36-89-36h-750c-35 0-64 12-88 36-25 25-37 54-37 89z" horiz-adv-x="1000" />

<glyph glyph-name="location-fill" unicode="&#xe810;" d="M438-135c-12 0-22 2-32 6-10 4-20 10-30 17-34 31-72 66-112 107-41 41-78 85-113 132-35 47-63 95-86 146-22 51-34 102-34 152 0 116 39 214 116 292 77 79 174 118 291 118 115 0 212-39 289-118 78-78 117-176 117-292 0-50-12-101-35-152-23-52-51-101-86-148-34-46-71-90-112-131-40-40-78-75-112-106-10-7-20-13-30-17-10-4-20-6-31-6z m0 470c26 0 48 9 66 27 18 19 27 41 27 67 0 26-9 48-27 66-18 18-40 28-66 28-26 0-49-10-67-28-18-18-27-40-27-66 0-26 9-48 27-67 18-18 41-27 67-27z" horiz-adv-x="875" />

<glyph glyph-name="mail-fill" unicode="&#xe811;" d="M125-150c-34 0-64 12-88 37-25 24-37 54-37 88v751c0 34 12 63 37 88 24 24 54 36 88 36h1083c35 0 64-12 89-37 24-24 36-54 36-88v-751c0-34-12-63-36-88-25-24-54-36-89-36h-1083z m542 425c5 0 10 1 16 3 6 2 11 4 17 8l479 274c9 6 16 14 22 23 5 10 7 21 7 33 0 24-10 43-31 55-22 12-43 11-66-2l-444-255-443 254c-22 12-44 13-66 1-22-11-33-29-33-53 0-12 3-23 9-32 6-10 13-18 22-24l479-274c5-4 10-6 15-8 5-2 11-3 17-3z" horiz-adv-x="1333" />

<glyph glyph-name="phone-fill" unicode="&#xe812;" d="M921-150c-120 9-233 39-341 89-108 50-204 118-290 203-85 85-152 182-202 289-50 108-79 222-88 342-2 21 4 39 19 54 14 16 32 23 53 23h202c17 0 32-5 44-15 12-11 21-24 25-40l35-159c2-13 1-25-2-37-3-12-9-22-17-30l-144-146c19-38 42-74 68-108 26-35 55-68 86-99 30-29 62-57 96-82 33-26 69-48 107-68l147 143c8 8 18 13 30 17 12 3 24 4 37 2l159-34c17-5 30-14 40-26 10-12 15-27 15-44v-202c0-21-8-39-24-53-15-15-34-21-55-19z" horiz-adv-x="1000" />

<glyph glyph-name="download" unicode="&#xe813;" d="M104 350c0-95 30-180 89-253 60-73 135-120 227-140 9-2 17-7 23-15 6-9 9-18 9-28 0-10-4-18-11-25-7-6-15-9-24-7-113 21-205 75-278 162-73 88-110 190-110 306 0 117 37 219 110 306 74 87 167 141 279 162 9 2 17-1 24-7 8-7 11-15 11-25 0-10-3-19-9-28-6-8-13-13-23-15-92-20-168-67-227-140-60-73-90-157-90-253z m435-88l115 114c7 8 16 12 27 12 10 0 19-4 27-12 8-7 12-16 11-27 0-10-4-19-12-27l-173-174c-10-9-20-13-32-13-12 0-23 4-32 13l-175 177c-8 7-11 16-11 26 0 10 4 19 12 27 7 8 16 12 26 12 10 0 19-4 27-12l115-116v283c0 10 4 19 11 26 7 7 16 11 27 11 11 0 19-4 27-11 7-7 10-16 10-26v-283z m176-251c9 6 19 9 31 8 11 0 20-4 28-13 8-7 11-16 10-27-1-10-6-18-15-24-27-17-56-32-86-44-30-12-61-22-93-28-10-2-19 0-26 6-8 6-12 15-12 25 0 11 3 20 10 28 7 8 15 14 26 17 23 5 45 12 66 21 21 9 41 19 61 31z m-125 730c-10 3-19 9-26 17-7 8-11 17-11 28 0 10 4 19 11 25 7 6 16 9 26 7 33-7 64-16 94-29 30-12 59-27 86-45 9-6 14-14 15-24 1-10-2-19-9-27-8-8-17-12-28-13-12 0-22 2-31 8-20 12-40 23-61 32-21 8-43 15-66 21z m302-478c3 11 9 19 17 26 9 8 18 11 29 11 10 0 19-4 25-12 7-8 9-17 7-27-7-33-16-64-29-93-13-30-28-59-46-86-6-8-14-13-24-13-10 0-18 3-25 10-8 7-12 17-13 28-1 10 2 20 8 30 12 19 22 39 31 60 8 21 15 43 20 66z m-51 301c-6 9-8 20-8 30 1 11 5 20 13 28 7 7 16 10 26 9 10 0 18-5 24-13 18-28 33-56 45-86 13-30 22-61 29-93 2-11 0-20-7-27-6-8-15-12-25-12-11 0-20 4-29 11-8 7-14 16-17 27-5 23-11 44-20 65-9 21-19 41-31 61z" horiz-adv-x="1000" />

<glyph glyph-name="x" unicode="&#xe814;" d="M500 250l-350-350c-13-13-30-20-50-20-20 0-37 7-50 20-13 13-20 30-20 50 0 20 7 37 20 50l350 350-350 350c-13 13-20 30-20 50 0 20 7 37 20 50 13 13 30 20 50 20 20 0 37-7 50-20l350-350 350 350c13 13 30 20 50 20 20 0 37-7 50-20 13-13 20-30 20-50 0-20-7-37-20-50l-350-350 350-350c13-13 20-30 20-50 0-20-7-37-20-50-13-13-30-20-50-20-20 0-37 7-50 20l-350 350z" horiz-adv-x="1000" />
</font>
</defs>
</svg>
