<svg width="104" height="29" viewBox="0 0 104 29" fill="none" xmlns="http://www.w3.org/2000/svg">
<path d="M6.228 10.8435C5.636 11.3715 4.872 11.6355 3.936 11.6355C3 11.6355 2.236 11.3715 1.644 10.8435C1.052 10.3075 0.756 9.59149 0.756 8.69549V3.07949H2.136V8.61149C2.136 9.12349 2.284 9.53149 2.58 9.83549C2.884 10.1395 3.336 10.2915 3.936 10.2915C4.536 10.2915 4.984 10.1395 5.28 9.83549C5.584 9.53149 5.736 9.12349 5.736 8.61149V3.07949H7.116V8.69549C7.116 9.59149 6.82 10.3075 6.228 10.8435ZM11.4993 11.6355C10.6913 11.6355 10.0033 11.4515 9.43528 11.0835C8.87528 10.7155 8.48328 10.2115 8.25928 9.57149L9.44728 8.87549C9.78328 9.81949 10.4793 10.2915 11.5353 10.2915C12.0553 10.2915 12.4433 10.1915 12.6993 9.99149C12.9633 9.78349 13.0953 9.51549 13.0953 9.18749C13.0953 8.84349 12.9553 8.58349 12.6753 8.40749C12.3953 8.22349 11.8993 8.02349 11.1873 7.80749C10.7873 7.68749 10.4633 7.57549 10.2153 7.47149C9.96728 7.36749 9.70328 7.22349 9.42328 7.03949C9.15128 6.84749 8.94728 6.61149 8.81128 6.33149C8.67528 6.05149 8.60728 5.72349 8.60728 5.34749C8.60728 4.60349 8.87128 4.01549 9.39928 3.58349C9.92728 3.14349 10.5633 2.92349 11.3073 2.92349C11.9793 2.92349 12.5673 3.08749 13.0713 3.41549C13.5753 3.74349 13.9633 4.19549 14.2353 4.77149L13.0713 5.44349C12.7193 4.65949 12.1313 4.26749 11.3073 4.26749C10.9073 4.26749 10.5873 4.36349 10.3473 4.55549C10.1073 4.73949 9.98728 4.99149 9.98728 5.31149C9.98728 5.62349 10.1073 5.87149 10.3473 6.05549C10.5953 6.23149 11.0393 6.41949 11.6793 6.61949C11.9993 6.72349 12.2313 6.80349 12.3753 6.85949C12.5273 6.90749 12.7353 6.98749 12.9993 7.09949C13.2713 7.21149 13.4753 7.32349 13.6113 7.43549C13.7473 7.54749 13.8913 7.68749 14.0433 7.85549C14.2033 8.02349 14.3153 8.21549 14.3793 8.43149C14.4433 8.64749 14.4753 8.89149 14.4753 9.16349C14.4753 9.92349 14.1993 10.5275 13.6473 10.9755C13.1033 11.4155 12.3873 11.6355 11.4993 11.6355ZM23.6199 7.12349C23.9879 7.31549 24.2759 7.57949 24.4839 7.91549C24.6919 8.25149 24.7959 8.63949 24.7959 9.07949C24.7959 9.76749 24.5519 10.3395 24.0639 10.7955C23.5759 11.2515 22.9799 11.4795 22.2759 11.4795H18.6759V3.07949H22.0119C22.6999 3.07949 23.2799 3.30349 23.7519 3.75149C24.2319 4.19149 24.4719 4.74349 24.4719 5.40749C24.4719 6.13549 24.1879 6.70749 23.6199 7.12349ZM22.0119 4.37549H20.0559V6.58349H22.0119C22.3159 6.58349 22.5719 6.47949 22.7799 6.27149C22.9879 6.05549 23.0919 5.79149 23.0919 5.47949C23.0919 5.16749 22.9879 4.90749 22.7799 4.69949C22.5719 4.48349 22.3159 4.37549 22.0119 4.37549ZM22.2759 10.1835C22.5959 10.1835 22.8639 10.0715 23.0799 9.84749C23.3039 9.61549 23.4159 9.33549 23.4159 9.00749C23.4159 8.67949 23.3039 8.40349 23.0799 8.17949C22.8639 7.94749 22.5959 7.83149 22.2759 7.83149H20.0559V10.1835H22.2759ZM30.7268 5.47949H32.0228V11.4795H30.7268V10.6155C30.2388 11.2955 29.5388 11.6355 28.6268 11.6355C27.8028 11.6355 27.0988 11.3315 26.5148 10.7235C25.9308 10.1075 25.6388 9.35949 25.6388 8.47949C25.6388 7.59149 25.9308 6.84349 26.5148 6.23549C27.0988 5.62749 27.8028 5.32349 28.6268 5.32349C29.5388 5.32349 30.2388 5.65949 30.7268 6.33149V5.47949ZM27.4748 9.85949C27.8348 10.2195 28.2868 10.3995 28.8308 10.3995C29.3748 10.3995 29.8268 10.2195 30.1868 9.85949C30.5468 9.49149 30.7268 9.03149 30.7268 8.47949C30.7268 7.92749 30.5468 7.47149 30.1868 7.11149C29.8268 6.74349 29.3748 6.55949 28.8308 6.55949C28.2868 6.55949 27.8348 6.74349 27.4748 7.11149C27.1148 7.47149 26.9348 7.92749 26.9348 8.47949C26.9348 9.03149 27.1148 9.49149 27.4748 9.85949ZM34.6622 7.13549C34.6622 7.33549 34.7702 7.49549 34.9862 7.61549C35.2102 7.72749 35.4782 7.82749 35.7902 7.91549C36.1102 7.99549 36.4302 8.09149 36.7502 8.20349C37.0702 8.31549 37.3382 8.50749 37.5542 8.77949C37.7782 9.04349 37.8902 9.37949 37.8902 9.78749C37.8902 10.3635 37.6662 10.8155 37.2182 11.1435C36.7782 11.4715 36.2222 11.6355 35.5502 11.6355C34.9582 11.6355 34.4502 11.5115 34.0262 11.2635C33.6022 11.0155 33.2942 10.6715 33.1022 10.2315L34.2182 9.58349C34.4262 10.1595 34.8702 10.4475 35.5502 10.4475C36.2302 10.4475 36.5702 10.2235 36.5702 9.77549C36.5702 9.58349 36.4582 9.42749 36.2342 9.30749C36.0182 9.18749 35.7502 9.08749 35.4302 9.00749C35.1182 8.91949 34.8022 8.81949 34.4822 8.70749C34.1622 8.59549 33.8902 8.41149 33.6662 8.15549C33.4502 7.89149 33.3422 7.55949 33.3422 7.15949C33.3422 6.60749 33.5502 6.16349 33.9662 5.82749C34.3902 5.49149 34.9142 5.32349 35.5382 5.32349C36.0342 5.32349 36.4742 5.43549 36.8582 5.65949C37.2502 5.87549 37.5502 6.17949 37.7582 6.57149L36.6662 7.18349C36.4582 6.72749 36.0822 6.49949 35.5382 6.49949C35.2902 6.49949 35.0822 6.55549 34.9142 6.66749C34.7462 6.77149 34.6622 6.92749 34.6622 7.13549ZM39.8971 9.03149C39.9931 9.48749 40.2131 9.83949 40.5571 10.0875C40.9011 10.3275 41.3211 10.4475 41.8171 10.4475C42.5051 10.4475 43.0211 10.1995 43.3651 9.70349L44.4331 10.3275C43.8411 11.1995 42.9651 11.6355 41.8051 11.6355C40.8291 11.6355 40.0411 11.3395 39.4411 10.7475C38.8411 10.1475 38.5411 9.39149 38.5411 8.47949C38.5411 7.58349 38.8371 6.83549 39.4291 6.23549C40.0211 5.62749 40.7811 5.32349 41.7091 5.32349C42.5891 5.32349 43.3091 5.63149 43.8691 6.24749C44.4371 6.86349 44.7211 7.61149 44.7211 8.49149C44.7211 8.62749 44.7051 8.80749 44.6731 9.03149H39.8971ZM39.8851 7.97549H43.4131C43.3251 7.48749 43.1211 7.11949 42.8011 6.87149C42.4891 6.62349 42.1211 6.49949 41.6971 6.49949C41.2171 6.49949 40.8171 6.63149 40.4971 6.89549C40.1771 7.15949 39.9731 7.51949 39.8851 7.97549ZM50.5783 3.07949H51.8743V11.4795H50.5783V10.6155C50.0903 11.2955 49.3903 11.6355 48.4783 11.6355C47.6543 11.6355 46.9503 11.3315 46.3663 10.7235C45.7823 10.1075 45.4903 9.35949 45.4903 8.47949C45.4903 7.59149 45.7823 6.84349 46.3663 6.23549C46.9503 5.62749 47.6543 5.32349 48.4783 5.32349C49.3903 5.32349 50.0903 5.65949 50.5783 6.33149V3.07949ZM47.3263 9.85949C47.6863 10.2195 48.1383 10.3995 48.6823 10.3995C49.2263 10.3995 49.6783 10.2195 50.0383 9.85949C50.3983 9.49149 50.5783 9.03149 50.5783 8.47949C50.5783 7.92749 50.3983 7.47149 50.0383 7.11149C49.6783 6.74349 49.2263 6.55949 48.6823 6.55949C48.1383 6.55949 47.6863 6.74349 47.3263 7.11149C46.9663 7.47149 46.7863 7.92749 46.7863 8.47949C46.7863 9.03149 46.9663 9.49149 47.3263 9.85949ZM4.812 25.6355C3.548 25.6355 2.5 25.2195 1.668 24.3875C0.836 23.5475 0.42 22.5115 0.42 21.2795C0.42 20.0475 0.836 19.0155 1.668 18.1835C2.5 17.3435 3.548 16.9235 4.812 16.9235C5.572 16.9235 6.272 17.1035 6.912 17.4635C7.56 17.8235 8.064 18.3115 8.424 18.9275L7.224 19.6235C7 19.2075 6.672 18.8795 6.24 18.6395C5.816 18.3915 5.34 18.2675 4.812 18.2675C3.916 18.2675 3.188 18.5515 2.628 19.1195C2.076 19.6875 1.8 20.4075 1.8 21.2795C1.8 22.1515 2.076 22.8715 2.628 23.4395C3.188 24.0075 3.916 24.2915 4.812 24.2915C5.34 24.2915 5.82 24.1715 6.252 23.9315C6.684 23.6835 7.008 23.3515 7.224 22.9355L8.424 23.6195C8.072 24.2355 7.572 24.7275 6.924 25.0955C6.284 25.4555 5.58 25.6355 4.812 25.6355ZM12.3068 25.6355C11.4268 25.6355 10.6788 25.3315 10.0628 24.7235C9.44675 24.1155 9.13875 23.3675 9.13875 22.4795C9.13875 21.5915 9.44675 20.8435 10.0628 20.2355C10.6788 19.6275 11.4268 19.3235 12.3068 19.3235C13.1948 19.3235 13.9428 19.6275 14.5508 20.2355C15.1668 20.8435 15.4748 21.5915 15.4748 22.4795C15.4748 23.3675 15.1668 24.1155 14.5508 24.7235C13.9428 25.3315 13.1948 25.6355 12.3068 25.6355ZM10.9748 23.8355C11.3348 24.1955 11.7788 24.3755 12.3068 24.3755C12.8348 24.3755 13.2788 24.1955 13.6388 23.8355C13.9988 23.4755 14.1788 23.0235 14.1788 22.4795C14.1788 21.9355 13.9988 21.4835 13.6388 21.1235C13.2788 20.7635 12.8348 20.5835 12.3068 20.5835C11.7788 20.5835 11.3348 20.7635 10.9748 21.1235C10.6148 21.4835 10.4348 21.9355 10.4348 22.4795C10.4348 23.0235 10.6148 23.4755 10.9748 23.8355ZM23.1986 19.3235C23.8786 19.3235 24.4266 19.5435 24.8426 19.9835C25.2586 20.4235 25.4666 21.0155 25.4666 21.7595V25.4795H24.1706V21.8435C24.1706 21.4275 24.0666 21.1075 23.8586 20.8835C23.6506 20.6515 23.3666 20.5355 23.0066 20.5355C22.6066 20.5355 22.2866 20.6675 22.0466 20.9315C21.8146 21.1955 21.6986 21.5915 21.6986 22.1195V25.4795H20.4026V21.8435C20.4026 21.4275 20.3026 21.1075 20.1026 20.8835C19.9106 20.6515 19.6346 20.5355 19.2746 20.5355C18.8826 20.5355 18.5626 20.6715 18.3146 20.9435C18.0666 21.2075 17.9426 21.5995 17.9426 22.1195V25.4795H16.6466V19.4795H17.9426V20.1995C18.3266 19.6155 18.8986 19.3235 19.6586 19.3235C20.4266 19.3235 20.9946 19.6395 21.3626 20.2715C21.7626 19.6395 22.3746 19.3235 23.1986 19.3235ZM30.2497 19.3235C31.0737 19.3235 31.7777 19.6315 32.3617 20.2475C32.9457 20.8555 33.2377 21.5995 33.2377 22.4795C33.2377 23.3675 32.9457 24.1155 32.3617 24.7235C31.7777 25.3315 31.0737 25.6355 30.2497 25.6355C29.3377 25.6355 28.6377 25.2995 28.1497 24.6275V27.8795H26.8537V19.4795H28.1497V20.3435C28.6377 19.6635 29.3377 19.3235 30.2497 19.3235ZM28.6897 23.8595C29.0497 24.2195 29.5017 24.3995 30.0457 24.3995C30.5897 24.3995 31.0417 24.2195 31.4017 23.8595C31.7617 23.4915 31.9417 23.0315 31.9417 22.4795C31.9417 21.9275 31.7617 21.4715 31.4017 21.1115C31.0417 20.7435 30.5897 20.5595 30.0457 20.5595C29.5017 20.5595 29.0497 20.7435 28.6897 21.1115C28.3297 21.4715 28.1497 21.9275 28.1497 22.4795C28.1497 23.0315 28.3297 23.4915 28.6897 23.8595ZM39.1643 19.4795H40.4603V25.4795H39.1643V24.6155C38.6763 25.2955 37.9763 25.6355 37.0643 25.6355C36.2403 25.6355 35.5363 25.3315 34.9523 24.7235C34.3683 24.1075 34.0763 23.3595 34.0763 22.4795C34.0763 21.5915 34.3683 20.8435 34.9523 20.2355C35.5363 19.6275 36.2403 19.3235 37.0643 19.3235C37.9763 19.3235 38.6763 19.6595 39.1643 20.3315V19.4795ZM35.9123 23.8595C36.2723 24.2195 36.7243 24.3995 37.2683 24.3995C37.8123 24.3995 38.2643 24.2195 38.6243 23.8595C38.9843 23.4915 39.1643 23.0315 39.1643 22.4795C39.1643 21.9275 38.9843 21.4715 38.6243 21.1115C38.2643 20.7435 37.8123 20.5595 37.2683 20.5595C36.7243 20.5595 36.2723 20.7435 35.9123 21.1115C35.5523 21.4715 35.3723 21.9275 35.3723 22.4795C35.3723 23.0315 35.5523 23.4915 35.9123 23.8595ZM45.1268 19.3235C45.8148 19.3235 46.3708 19.5435 46.7948 19.9835C47.2188 20.4235 47.4308 21.0275 47.4308 21.7955V25.4795H46.1348V21.9275C46.1348 21.4795 46.0148 21.1355 45.7748 20.8955C45.5348 20.6555 45.2068 20.5355 44.7908 20.5355C44.3348 20.5355 43.9668 20.6795 43.6868 20.9675C43.4068 21.2475 43.2668 21.6795 43.2668 22.2635V25.4795H41.9708V19.4795H43.2668V20.2475C43.6588 19.6315 44.2788 19.3235 45.1268 19.3235ZM52.7531 19.4795H54.1331L51.8291 25.6715C51.2531 27.2235 50.2771 27.9595 48.9011 27.8795V26.6675C49.3091 26.6915 49.6371 26.6035 49.8851 26.4035C50.1331 26.2115 50.3371 25.9075 50.4971 25.4915L50.5571 25.3715L48.0131 19.4795H49.4291L51.2171 23.8355L52.7531 19.4795Z" fill="#212121"/>
<path d="M81.9625 23.3574V26.9645C81.9813 26.3801 82.2005 25.8756 84.1997 25.8717C86.5502 25.8667 86.439 24.7469 86.4358 24.7188C85.3859 23.7887 83.7914 23.4075 81.9625 23.3574Z" fill="#D9E6EE"/>
<path d="M80.4199 11.3174C80.3854 10.8129 80.3449 10.254 80.2991 9.66071C80.2504 9.0308 80.1953 8.36288 80.1339 7.68181C80.0834 7.12012 80.0287 6.54919 79.9701 5.98358C79.9001 5.30856 79.8244 4.64135 79.7434 4.00504C79.6649 3.39077 79.5814 2.80598 79.4929 2.27164C79.3469 1.38949 79.1871 0.644827 79.0147 0.135359C73.9311 -0.230222 68.878 0.0589742 64 2.07375C64.1219 2.75056 64.2444 3.42772 64.3663 4.10452C64.4146 4.37311 64.4633 4.6417 64.5116 4.91065C65.1152 8.25665 65.7199 11.6023 66.3228 14.9483H66.3264C66.4134 14.9288 66.5001 14.9089 66.5868 14.8893C71.2004 13.8423 75.7604 12.7893 80.5257 12.9797C80.5005 12.5541 80.4646 11.9835 80.4192 11.3177L80.4199 11.3174ZM78.8257 6.4053C78.6669 6.32181 78.5877 6.2806 78.4296 6.19959C78.29 6.29232 78.2207 6.33922 78.0829 6.43408C78.091 6.24755 78.0949 6.15483 78.1031 5.97115C77.9688 5.84787 77.9017 5.78676 77.7677 5.66597C77.9294 5.63044 78.0107 5.61338 78.1738 5.57963C78.2296 5.41336 78.258 5.33058 78.3141 5.16787C78.4079 5.3249 78.4545 5.40448 78.5479 5.56507C78.7184 5.58567 78.8041 5.59633 78.9764 5.61907C78.8677 5.7491 78.8137 5.81483 78.706 5.94734C78.7543 6.12889 78.7785 6.2202 78.8261 6.40494L78.8257 6.4053ZM78.4047 3.48811C78.4559 3.64373 78.4811 3.72331 78.5319 3.88389C78.3692 3.81071 78.2886 3.77447 78.1265 3.70341C77.9855 3.78299 77.9155 3.8235 77.7766 3.90628C77.783 3.74249 77.7862 3.66149 77.7926 3.50304C77.6551 3.39574 77.5858 3.34352 77.4487 3.23871C77.6121 3.21029 77.6945 3.19643 77.8597 3.16979C77.9144 3.02945 77.9422 2.96017 77.9972 2.82623C78.0942 2.9584 78.1425 3.02554 78.2395 3.16197C78.4133 3.18151 78.5007 3.19146 78.6765 3.21242C78.5667 3.32042 78.5127 3.37478 78.4047 3.48776V3.48811ZM77.4981 7.89924C77.3442 7.81859 77.2668 7.77845 77.1129 7.69957C76.9779 7.80083 76.9108 7.85163 76.7765 7.95431C76.7843 7.76068 76.7875 7.66476 76.795 7.47291C76.6642 7.34856 76.5985 7.2871 76.4674 7.16488C76.6251 7.12225 76.7047 7.10093 76.8632 7.06007C76.9168 6.88315 76.9431 6.79539 76.9964 6.6206C77.0881 6.78367 77.1335 6.86609 77.2245 7.03165C77.3897 7.04693 77.4721 7.0551 77.638 7.07251C77.5339 7.21355 77.4831 7.28426 77.3794 7.42708C77.427 7.61466 77.4508 7.70952 77.4977 7.89924H77.4981ZM77.2007 5.22684C77.044 5.15366 76.9655 5.11635 76.8095 5.04494C76.6745 5.13873 76.6074 5.18741 76.4727 5.28333C76.4784 5.10392 76.4809 5.01474 76.4862 4.83888C76.353 4.7259 76.2862 4.66977 76.153 4.55892C76.3114 4.51948 76.3903 4.50065 76.5498 4.46335C76.6017 4.30312 76.6276 4.22425 76.6802 4.06864C76.774 4.2143 76.8209 4.28749 76.9147 4.43671C77.0817 4.45021 77.1655 4.45767 77.3336 4.4733C77.2298 4.60013 77.1783 4.66408 77.0756 4.79447C77.1257 4.96536 77.1513 5.0524 77.2007 5.22684ZM77.5165 1.24489C77.5705 1.14506 77.5975 1.0971 77.6519 1.0065C77.7517 1.10456 77.8011 1.15501 77.9006 1.25804C78.0772 1.28077 78.166 1.29285 78.3458 1.31701C78.2353 1.38842 78.1802 1.42573 78.0718 1.50424C78.1251 1.62184 78.1532 1.68224 78.2065 1.80694C78.0402 1.74512 77.9571 1.71457 77.7922 1.65417C77.6501 1.70888 77.5794 1.73766 77.4398 1.79735C77.4444 1.67016 77.4465 1.6087 77.4512 1.48968C77.3108 1.40263 77.2408 1.36 77.1012 1.27544C77.2661 1.26194 77.3496 1.2559 77.5165 1.24454V1.24489ZM76.2088 2.2084C76.2596 2.07766 76.2848 2.01336 76.3356 1.88972C76.4315 2.0098 76.4788 2.07127 76.5747 2.19561C76.7431 2.21125 76.8277 2.21835 76.9975 2.2354C76.8941 2.33595 76.8433 2.38817 76.741 2.49405C76.7932 2.63687 76.8191 2.7097 76.871 2.85821C76.7122 2.7939 76.6326 2.76157 76.4745 2.69869C76.3391 2.77543 76.2724 2.81486 76.1384 2.89516C76.142 2.74203 76.1437 2.66671 76.1473 2.51927C76.0119 2.42193 75.9444 2.37361 75.8094 2.27804C75.9682 2.24891 76.0485 2.23505 76.2084 2.20805L76.2088 2.2084ZM75.6311 3.34458C75.5195 3.4668 75.4648 3.52897 75.3547 3.65509C75.4097 3.81497 75.4371 3.89597 75.4915 4.05976C75.3231 3.99545 75.2389 3.96348 75.0705 3.90095C74.9262 3.99438 74.8541 4.04235 74.7113 4.13898C74.7152 3.96774 74.7166 3.88318 74.7201 3.7162C74.5755 3.61353 74.5034 3.56272 74.3588 3.46182C74.5287 3.41919 74.6146 3.39894 74.7859 3.35844C74.8406 3.20531 74.8679 3.12964 74.9237 2.98149C75.0264 3.11578 75.0772 3.184 75.1792 3.32184C75.3593 3.32966 75.4495 3.33428 75.6311 3.34423V3.34458ZM74.4004 1.2559C74.4558 1.13475 74.4839 1.07578 74.54 0.96209C74.6459 1.07187 74.6985 1.12765 74.804 1.24134C74.9894 1.25413 75.0822 1.26159 75.2691 1.27616C75.155 1.36817 75.0985 1.41578 74.9859 1.51455C75.0431 1.64564 75.0715 1.71244 75.1284 1.84886C74.9546 1.79166 74.8676 1.76289 74.6942 1.70711C74.5464 1.78029 74.4732 1.8176 74.3272 1.8954C74.3301 1.75223 74.3311 1.68224 74.3343 1.5451C74.1858 1.45664 74.1112 1.41258 73.9627 1.32554C74.1364 1.29641 74.2245 1.2822 74.4004 1.25555V1.2559ZM74.1396 5.54375C73.9762 5.48122 73.8945 5.45067 73.7311 5.38991C73.5936 5.4965 73.5253 5.5505 73.3893 5.65921C73.3903 5.47589 73.3903 5.3853 73.3911 5.20446C73.2497 5.09894 73.18 5.04707 73.0386 4.94369C73.2017 4.89039 73.2834 4.86446 73.4479 4.81294C73.498 4.64348 73.5236 4.55928 73.5744 4.39301C73.6756 4.53689 73.7257 4.60972 73.8266 4.75645C74 4.75752 74.0874 4.75859 74.2618 4.76107C74.157 4.90034 74.1052 4.96998 74.0014 5.11173C74.0572 5.28298 74.0849 5.36966 74.14 5.54411L74.1396 5.54375ZM73.0372 2.44999C73.0876 2.3022 73.1132 2.22972 73.1644 2.08761C73.2681 2.21373 73.3204 2.27733 73.4237 2.40594C73.6014 2.40914 73.6909 2.41127 73.8696 2.41624C73.7627 2.5349 73.7094 2.5953 73.6042 2.71894C73.6618 2.86993 73.6906 2.94632 73.7478 3.10122C73.5801 3.04473 73.4969 3.01702 73.3296 2.96159C73.1893 3.05539 73.1193 3.10299 72.9807 3.19998C72.9807 3.03549 72.9807 2.95484 72.9811 2.79497C72.8365 2.70046 72.7643 2.65392 72.6197 2.56119C72.786 2.51572 72.8692 2.49334 73.0368 2.45035L73.0372 2.44999ZM72.7942 7.0519C72.6347 6.99186 72.5554 6.96237 72.3963 6.90446C72.2638 7.01957 72.1977 7.07713 72.0666 7.1933C72.0655 7.00394 72.0644 6.90979 72.0634 6.72221C71.9252 6.6174 71.8559 6.56553 71.7177 6.46214C71.8754 6.40139 71.9543 6.37155 72.1135 6.31222C72.16 6.13316 72.1835 6.04398 72.2304 5.86705C72.3302 6.0152 72.3799 6.08981 72.4794 6.24045C72.6475 6.23548 72.7324 6.23405 72.9015 6.23086C72.802 6.38043 72.7523 6.45539 72.6539 6.60674C72.71 6.78402 72.7384 6.8732 72.7942 7.05226V7.0519ZM72.4847 3.71798C72.3842 3.85512 72.3337 3.92475 72.2343 4.06508C72.2925 4.22851 72.3217 4.31094 72.3792 4.47721C72.2165 4.42285 72.1355 4.39585 71.9731 4.34327C71.8388 4.45163 71.7721 4.50669 71.6395 4.61719C71.6374 4.43955 71.636 4.35073 71.6339 4.17593C71.4928 4.0793 71.4228 4.03204 71.2821 3.93683C71.442 3.87963 71.5226 3.85085 71.6839 3.79543C71.7305 3.62987 71.7536 3.54887 71.8005 3.38721C71.9024 3.52293 71.9532 3.59079 72.0552 3.72864C72.2265 3.72331 72.3128 3.72118 72.4851 3.71798H72.4847ZM71.2381 1.53018C71.2846 1.38736 71.3084 1.31772 71.3557 1.18059C71.4598 1.29996 71.5116 1.35965 71.6154 1.48151C71.7895 1.48151 71.8765 1.48257 72.052 1.48435C71.95 1.5991 71.8992 1.65808 71.7983 1.77816C71.858 1.92169 71.8879 1.99417 71.9472 2.14126C71.7816 2.09116 71.6989 2.06629 71.534 2.01691C71.3983 2.10999 71.3308 2.1576 71.1969 2.25459C71.194 2.09578 71.1922 2.01726 71.1898 1.86307C71.0466 1.77497 70.9755 1.73127 70.8327 1.64422C70.9944 1.59733 71.0754 1.57388 71.2384 1.53018H71.2381ZM71.2306 5.29079C71.1343 5.44107 71.0867 5.51639 70.9912 5.66845C71.0494 5.83934 71.0782 5.92496 71.1361 6.09763C70.9777 6.04576 70.8988 6.02018 70.7403 5.97008C70.611 6.08804 70.5471 6.14737 70.4188 6.26709C70.4149 6.082 70.4131 5.98998 70.4096 5.8063C70.2717 5.70931 70.2031 5.66064 70.0653 5.56542C70.2206 5.49934 70.2984 5.46737 70.4543 5.40306C70.4977 5.22613 70.5193 5.13767 70.5634 4.96287C70.6639 5.10392 70.714 5.17462 70.8142 5.31744C70.9801 5.30571 71.0633 5.30074 71.2303 5.29044L71.2306 5.29079ZM69.9999 2.95839C70.0433 2.79497 70.0653 2.71467 70.109 2.55515C70.211 2.68483 70.2618 2.7502 70.3637 2.88165C70.5318 2.87171 70.6156 2.86744 70.7844 2.85927C70.6877 2.9957 70.6398 3.06462 70.5439 3.2046C70.6032 3.36199 70.6327 3.44157 70.6917 3.60145C70.5311 3.55384 70.4508 3.53075 70.2905 3.48456C70.1605 3.5947 70.0959 3.64977 69.9669 3.76274C69.9626 3.58901 69.9612 3.50304 69.9569 3.33215C69.8177 3.24191 69.7473 3.1975 69.6084 3.10868C69.7644 3.04721 69.8425 3.01737 69.9999 2.95804V2.95839ZM69.9633 6.87675C69.871 7.03343 69.8241 7.11159 69.7328 7.26933C69.7907 7.44235 69.8198 7.5294 69.8774 7.70313C69.7221 7.65445 69.6447 7.6303 69.4901 7.5834C69.3647 7.70632 69.3025 7.76779 69.1778 7.89142C69.1732 7.70419 69.1707 7.61076 69.1657 7.42388C69.0307 7.32902 68.9636 7.28177 68.8286 7.18833C68.9796 7.11727 69.0552 7.08175 69.2069 7.01211C69.2485 6.82985 69.2691 6.7389 69.3107 6.55771C69.4095 6.69982 69.4585 6.77088 69.5573 6.91477C69.7189 6.89842 69.8006 6.89132 69.9633 6.87675ZM69.5093 4.34327C69.4166 4.4939 69.3697 4.56887 69.278 4.72164C69.337 4.88649 69.3672 4.96998 69.4258 5.13625C69.2695 5.09219 69.191 5.07052 69.0353 5.02789C68.9096 5.14904 68.8474 5.20979 68.7227 5.33272C68.7177 5.15117 68.7142 5.06022 68.7088 4.88009C68.5731 4.79056 68.5053 4.74651 68.3699 4.6584C68.5213 4.58699 68.5966 4.55182 68.749 4.48254C68.7902 4.30738 68.8115 4.21999 68.8527 4.04661C68.9526 4.18126 69.002 4.24876 69.1014 4.38483C69.2638 4.36707 69.3455 4.3589 69.5093 4.34291V4.34327ZM68.7167 9.44079C68.5643 9.39389 68.4879 9.37044 68.3362 9.32568C68.2136 9.44932 68.1528 9.51185 68.0306 9.63548C68.0257 9.45003 68.0225 9.3573 68.0175 9.17185C67.8846 9.07876 67.8175 9.03293 67.6849 8.94198C67.8331 8.8695 67.9077 8.83327 68.0566 8.76114C68.0967 8.57889 68.1162 8.48758 68.1564 8.30497C68.2537 8.44601 68.3028 8.51707 68.3998 8.65953C68.5582 8.64035 68.6374 8.63111 68.797 8.6137C68.7071 8.77287 68.6623 8.85138 68.5731 9.01019C68.6307 9.18215 68.6595 9.26848 68.7167 9.44114V9.44079ZM68.2637 6.86396C68.1106 6.8231 68.0342 6.8025 67.8821 6.76342C67.7595 6.8899 67.6988 6.95385 67.5769 7.08139C67.5713 6.89736 67.5684 6.80534 67.5627 6.62202C67.4299 6.53426 67.3634 6.49127 67.2312 6.4053C67.3787 6.32856 67.4522 6.28983 67.6014 6.21416C67.6412 6.03297 67.6608 5.94273 67.7006 5.76189C67.7983 5.89796 67.8466 5.96546 67.9446 6.10296C68.1031 6.07951 68.183 6.06849 68.3429 6.04682C68.253 6.20528 68.2083 6.28415 68.1191 6.44367C68.177 6.61136 68.2065 6.69592 68.2644 6.86432L68.2637 6.86396ZM68.2836 2.0869C68.3241 1.92418 68.3447 1.84389 68.3859 1.68508C68.4861 1.81191 68.5362 1.87551 68.6364 2.00341C68.7994 1.99026 68.8812 1.98422 69.0457 1.97285C68.9529 2.10893 68.9064 2.17749 68.8147 2.31783C68.8741 2.47166 68.9043 2.54876 68.9636 2.70473C68.8066 2.66245 68.7284 2.64184 68.5721 2.60063C68.4463 2.71254 68.3834 2.76903 68.2587 2.8845C68.253 2.7129 68.2498 2.62799 68.2441 2.45887C68.1077 2.3729 68.0399 2.33026 67.9045 2.245C68.0555 2.18069 68.1312 2.14907 68.2836 2.08725V2.0869ZM67.1403 3.72757C67.1794 3.55171 67.1982 3.46395 67.2376 3.28987C67.3353 3.42132 67.3847 3.48705 67.4828 3.61921C67.6412 3.59647 67.7205 3.58546 67.8803 3.5645C67.7912 3.71656 67.7468 3.79294 67.6579 3.94749C67.7162 4.10878 67.7457 4.19014 67.8043 4.3525C67.6508 4.31449 67.5744 4.29602 67.4224 4.25978C67.3002 4.38448 67.2394 4.44701 67.1179 4.57349C67.1122 4.39336 67.1097 4.30419 67.1041 4.12513C66.9712 4.04093 66.9044 3.999 66.7722 3.91587C66.9193 3.83984 66.9929 3.80182 67.141 3.72757H67.1403ZM65.4787 3.3293C65.3497 3.24795 65.2854 3.20744 65.1575 3.12644C65.2993 3.04508 65.3707 3.00458 65.5138 2.92571C65.5511 2.74594 65.57 2.65712 65.6073 2.47948C65.7021 2.61093 65.7494 2.67595 65.8446 2.80705C65.9977 2.77969 66.0752 2.76726 66.2297 2.74168C66.1437 2.89729 66.1 2.9758 66.0144 3.13426C66.0716 3.2952 66.1008 3.37585 66.158 3.53679C66.0091 3.5041 65.9356 3.4874 65.7878 3.45543C65.6694 3.58475 65.6108 3.64977 65.4932 3.78122C65.4872 3.60003 65.4843 3.51014 65.4783 3.3293H65.4787ZM65.9295 5.81163C65.7995 5.73098 65.7352 5.69083 65.6059 5.61125C65.7494 5.52741 65.8208 5.4862 65.9654 5.40413C66.0034 5.22222 66.0233 5.13092 66.0613 4.94937C66.1569 5.08082 66.2041 5.14655 66.3001 5.27836C66.4546 5.24816 66.5324 5.2343 66.688 5.20588C66.601 5.36682 66.5576 5.44747 66.471 5.60948C66.5282 5.77255 66.5569 5.85462 66.6145 6.0184C66.4649 5.98536 66.3903 5.96902 66.2411 5.9374C66.1217 6.06885 66.0627 6.13493 65.9441 6.26709C65.9384 6.08484 65.9356 5.99389 65.9295 5.81198V5.81163ZM66.3807 8.30461C66.2503 8.22041 66.1842 8.17849 66.0539 8.09606C66.1992 8.01648 66.2713 7.9774 66.4173 7.89853C66.456 7.71698 66.4756 7.62603 66.5147 7.44448C66.6106 7.57807 66.6582 7.64557 66.7545 7.78022C66.9101 7.75322 66.9879 7.74043 67.1442 7.71521C67.0568 7.87579 67.0128 7.95608 66.9257 8.11631C66.9829 8.28223 67.0113 8.36537 67.0689 8.53163C66.9183 8.49362 66.8436 8.47479 66.6941 8.43891C66.574 8.56681 66.5139 8.63076 66.3942 8.75866C66.3889 8.57711 66.3864 8.48651 66.3811 8.30461H66.3807ZM66.8298 10.8036C66.6983 10.7134 66.6333 10.6693 66.5026 10.5812C66.6482 10.5095 66.7207 10.4736 66.8671 10.4025C66.9062 10.2238 66.9264 10.135 66.9655 9.95523C67.0614 10.0927 67.109 10.1613 67.2053 10.3002C67.3613 10.2807 67.4398 10.2714 67.5965 10.253C67.5084 10.41 67.4643 10.4874 67.3766 10.6434C67.4338 10.8111 67.4618 10.8957 67.5187 11.0641C67.368 11.0189 67.2938 10.9969 67.1439 10.9536C67.0234 11.0747 66.963 11.1351 66.8429 11.2555C66.8376 11.0754 66.8344 10.9845 66.8294 10.8036H66.8298ZM67.967 13.6007C67.8171 13.5485 67.7421 13.5222 67.5926 13.4711C67.4718 13.5844 67.4121 13.6405 67.292 13.7528C67.287 13.5741 67.2842 13.4849 67.2789 13.3059C67.1478 13.2092 67.0817 13.1609 66.9506 13.0657C67.0966 13.0039 67.1698 12.9726 67.3165 12.9101C67.3556 12.7356 67.3751 12.6482 67.4146 12.4727C67.5105 12.6141 67.5588 12.6852 67.6547 12.828C67.8107 12.8166 67.8885 12.812 68.0448 12.8014C67.9571 12.9524 67.913 13.0273 67.8256 13.1769C67.8825 13.3464 67.9105 13.4313 67.967 13.6007ZM69.1622 12.0464C69.0108 11.9931 68.9352 11.9672 68.7842 11.9157C68.662 12.0336 68.6005 12.0922 68.4786 12.2095C68.4737 12.0247 68.4708 11.9327 68.4662 11.7476C68.3337 11.6485 68.268 11.5995 68.1354 11.5021C68.2836 11.4367 68.3575 11.4037 68.506 11.3383C68.5465 11.1582 68.5667 11.0683 68.6072 10.8871C68.7039 11.0324 68.7525 11.1056 68.8492 11.252C69.0069 11.2399 69.0862 11.2342 69.2443 11.2229C69.1547 11.3781 69.1096 11.4559 69.0201 11.6105C69.0769 11.7846 69.1053 11.8716 69.1622 12.046V12.0464ZM69.6127 10.0394C69.4787 9.93818 69.4119 9.88808 69.2784 9.78861C69.4286 9.72181 69.504 9.68842 69.655 9.62234C69.6965 9.43901 69.7175 9.34735 69.7591 9.16332C69.8568 9.31147 69.9054 9.38608 70.0031 9.53601C70.1634 9.52428 70.2433 9.51824 70.4042 9.50794C70.3126 9.66533 70.2664 9.7442 70.1751 9.90123C70.2316 10.0789 70.26 10.168 70.3168 10.346C70.1634 10.2913 70.0866 10.2643 69.9335 10.211C69.8088 10.3315 69.7466 10.3915 69.623 10.512C69.6191 10.3229 69.6169 10.2284 69.6127 10.0394ZM70.7439 13.0067C70.5929 12.9477 70.5169 12.9182 70.3659 12.8607C70.2426 12.9754 70.1811 13.0326 70.0582 13.147C70.0546 12.9598 70.0529 12.8664 70.0493 12.6784C69.9171 12.5729 69.8511 12.5203 69.7185 12.4166C69.8678 12.3558 69.9424 12.326 70.0919 12.2656C70.1335 12.0844 70.1541 11.9935 70.196 11.8112C70.292 11.9629 70.3399 12.0389 70.4359 12.1913C70.5943 12.1853 70.6739 12.1825 70.8327 12.1775C70.7417 12.3313 70.6956 12.4088 70.605 12.5619C70.6604 12.7403 70.6885 12.8291 70.7435 13.0074L70.7439 13.0067ZM70.8501 8.41901C70.7144 8.31527 70.6462 8.26411 70.5105 8.16215C70.6639 8.09713 70.741 8.06551 70.8956 8.00121C70.9396 7.81788 70.9613 7.72586 71.005 7.5429C71.1038 7.69282 71.1539 7.76814 71.2519 7.91914C71.4161 7.91025 71.4974 7.90599 71.6619 7.89853C71.5667 8.05414 71.5191 8.13266 71.4246 8.28898C71.4811 8.46804 71.5099 8.55793 71.566 8.73805C71.41 8.68085 71.3322 8.65207 71.1763 8.5963C71.0484 8.71567 70.9848 8.77607 70.8576 8.89579C70.8547 8.70465 70.853 8.60909 70.8501 8.41866V8.41901ZM71.9785 11.4424C71.8253 11.3806 71.7486 11.3501 71.5958 11.2897C71.4697 11.4058 71.4072 11.4641 71.2814 11.5803C71.2789 11.3888 71.2775 11.2925 71.2754 11.1006C71.1418 10.9923 71.0754 10.9386 70.9418 10.8313C71.0935 10.7706 71.1699 10.74 71.3223 10.6796C71.366 10.4953 71.3876 10.4025 71.4313 10.2181C71.528 10.373 71.5763 10.4516 71.6726 10.6075C71.8339 10.6033 71.9142 10.6018 72.0755 10.5986C71.9813 10.7539 71.9341 10.8313 71.8406 10.9862C71.8953 11.1685 71.9234 11.2598 71.9781 11.4421L71.9785 11.4424ZM72.4744 9.40526C72.3391 9.29406 72.2712 9.23828 72.1359 9.1285C72.2915 9.06917 72.3696 9.04004 72.5256 8.98213C72.5718 8.79738 72.5952 8.70501 72.6418 8.52098C72.7391 8.67801 72.7874 8.75688 72.8841 8.91533C73.0489 8.91356 73.1313 8.91285 73.2965 8.91285C73.1988 9.06704 73.1502 9.14413 73.0532 9.29868C73.1075 9.48307 73.1345 9.5758 73.1885 9.76089C73.0329 9.69588 72.9555 9.66355 72.7995 9.60031C72.6698 9.71577 72.6048 9.77369 72.4759 9.88986C72.4755 9.69588 72.4748 9.59924 72.4744 9.40562V9.40526ZM73.5595 12.5001C73.4085 12.4329 73.3328 12.3995 73.1814 12.3335C73.0542 12.4454 72.9907 12.5015 72.8642 12.6134C72.8649 12.4216 72.8649 12.3253 72.8652 12.1324C72.7338 12.0187 72.6677 11.9615 72.5359 11.8482C72.688 11.7927 72.7643 11.7657 72.9171 11.7114C72.9633 11.5277 72.9864 11.436 73.0329 11.2516C73.1271 11.4119 73.1736 11.4918 73.2674 11.6524C73.428 11.6542 73.5083 11.6552 73.6692 11.6584C73.573 11.8105 73.5257 11.8869 73.4308 12.0389C73.4827 12.2237 73.5083 12.3157 73.5595 12.4997V12.5001ZM73.4376 7.55746C73.5975 7.5024 73.6774 7.47575 73.8383 7.42246C73.8881 7.24091 73.9137 7.15067 73.9638 6.9709C74.0618 7.12758 74.1108 7.20645 74.2078 7.36526C74.3769 7.3681 74.4612 7.36952 74.631 7.37414C74.5279 7.52336 74.4771 7.59903 74.3755 7.74931C74.4288 7.93335 74.4551 8.02536 74.5077 8.21082C74.3492 8.14225 74.27 8.1085 74.1112 8.04171C73.9766 8.15326 73.9098 8.2094 73.7762 8.32202C73.778 8.12875 73.779 8.03211 73.7808 7.83991C73.6437 7.72622 73.5751 7.66902 73.4376 7.55711V7.55746ZM74.8495 10.9767C74.6963 10.9045 74.6192 10.869 74.4658 10.7983C74.3343 10.9088 74.2693 10.9642 74.1389 11.0754C74.1418 10.8804 74.1432 10.7827 74.146 10.5873C74.0131 10.4686 73.9467 10.4096 73.8135 10.2924C73.9694 10.2398 74.0483 10.2139 74.2046 10.1624C74.254 9.97761 74.2785 9.88453 74.3283 9.70014C74.4228 9.86393 74.4697 9.94635 74.5635 10.1108C74.7276 10.1165 74.8093 10.1194 74.9738 10.1268C74.8736 10.2782 74.8235 10.3539 74.7241 10.5056C74.7745 10.6939 74.7997 10.7884 74.8495 10.9767ZM74.7333 5.94663C74.8989 5.89796 74.9813 5.87451 75.1483 5.82797C75.2023 5.6546 75.23 5.56897 75.2847 5.3988C75.3835 5.55192 75.4328 5.62866 75.5309 5.78427C75.7057 5.79244 75.7934 5.79635 75.9693 5.8063C75.8606 5.94628 75.8062 6.01769 75.6989 6.1598C75.7508 6.33922 75.7767 6.42946 75.8279 6.61171C75.6655 6.53995 75.5845 6.50478 75.4215 6.43514C75.2808 6.53924 75.2104 6.59182 75.0712 6.69805C75.0758 6.50975 75.0783 6.41596 75.0829 6.22979C74.9433 6.11539 74.8733 6.05855 74.7333 5.94628V5.94663ZM75.4847 8.52488C75.5384 8.34192 75.5657 8.25061 75.6197 8.06906C75.7142 8.23391 75.7615 8.31634 75.8553 8.48296C76.0244 8.49291 76.1086 8.49895 76.278 8.51138C76.1722 8.65882 76.1196 8.73308 76.0151 8.88158C76.0638 9.0713 76.0883 9.16616 76.1363 9.35694C75.98 9.2802 75.9022 9.24219 75.7451 9.16723C75.6087 9.27417 75.5405 9.32852 75.4048 9.43688C75.4105 9.24077 75.4133 9.14271 75.419 8.94731C75.2847 8.82545 75.2172 8.76505 75.0818 8.64461C75.2428 8.59558 75.3231 8.57214 75.4847 8.52488ZM76.4098 12.1452C76.2603 12.0677 76.186 12.029 76.0357 11.953C75.9036 12.0574 75.8375 12.1096 75.7064 12.2148C75.7131 12.0212 75.7163 11.9245 75.7231 11.7298C75.5945 11.6066 75.5302 11.5444 75.4005 11.4218C75.5561 11.3753 75.635 11.3529 75.791 11.3078C75.8439 11.1252 75.8702 11.0339 75.9238 10.8509C76.0137 11.0189 76.0585 11.1035 76.1473 11.2719C76.3097 11.2843 76.3907 11.2914 76.553 11.3056C76.45 11.4524 76.3995 11.5259 76.2976 11.6726C76.3431 11.8624 76.3651 11.9572 76.4098 12.1459V12.1452ZM77.7588 10.7049C77.6082 10.6207 77.5329 10.5784 77.3819 10.4956C77.2472 10.5969 77.1801 10.6484 77.0461 10.7507C77.0561 10.5546 77.0607 10.4558 77.0703 10.259C76.9424 10.13 76.8777 10.0664 76.7495 9.93853C76.9062 9.89661 76.985 9.87636 77.1424 9.83586C77.1975 9.6536 77.2241 9.56229 77.2796 9.38039C77.368 9.55235 77.4121 9.63797 77.5002 9.81063C77.6633 9.82875 77.7446 9.83906 77.9077 9.85895C77.8036 10.0032 77.7524 10.0753 77.6487 10.2203C77.6935 10.4139 77.7148 10.5112 77.7588 10.7045V10.7049ZM78.4523 8.28898C78.5092 8.10992 78.538 8.02075 78.5952 7.84275C78.6854 8.01506 78.7298 8.10175 78.8193 8.27584C78.9863 8.29964 79.0705 8.31207 79.2382 8.33801C79.1306 8.47763 79.0762 8.54762 78.9696 8.68867C79.0147 8.883 79.0371 8.98106 79.0812 9.17646C78.9273 9.08658 78.8502 9.04146 78.6964 8.95406C78.5582 9.0507 78.4896 9.10008 78.3529 9.19849C78.3632 9.00202 78.3685 8.90361 78.3784 8.70785C78.2481 8.57498 78.1827 8.50925 78.0519 8.37815C78.2118 8.34156 78.2921 8.3238 78.4527 8.28898H78.4523ZM79.2922 12.0052C79.1437 11.9146 79.0695 11.8695 78.9202 11.7803C78.7842 11.8741 78.7167 11.9206 78.5813 12.0158C78.5941 11.8222 78.6005 11.7252 78.6129 11.5302C78.4872 11.3959 78.4236 11.3287 78.2971 11.1955C78.4541 11.161 78.533 11.1443 78.6911 11.112C78.749 10.9326 78.7785 10.8427 78.8367 10.6629C78.9227 10.8395 78.965 10.928 79.0499 11.1049C79.2123 11.1312 79.2936 11.1447 79.4564 11.1735C79.3494 11.312 79.2968 11.382 79.191 11.5209C79.2322 11.7153 79.2521 11.8123 79.2922 12.0055V12.0052Z" fill="#24315C"/>
<path d="M87.24 2.47831C87.2321 2.69983 87.2242 2.92133 87.2163 3.14279H87.216C84.5876 2.74381 82.0303 2.42406 79.5065 2.27165C79.3604 1.38949 79.2006 0.644831 79.0282 0.135363C81.7816 0.329344 84.5422 0.717663 87.2877 1.12907C87.272 1.57873 87.256 2.02855 87.24 2.47831Z" fill="#C64138"/>
<path d="M87.1481 4.79056L87.1826 3.82527L87.1815 3.82492C92.9928 4.08782 98.5973 3.71976 104 0.886772C103.962 1.55881 103.925 2.23086 103.888 2.90292C98.5504 5.7843 92.9091 6.17116 87.1186 5.8834C87.1087 6.16407 87.0987 6.44438 87.0888 6.72469C84.6232 6.33424 82.2776 6.08164 79.9836 5.98358C79.914 5.30856 79.8383 4.64135 79.7569 4.00504C82.1451 4.12015 84.5841 4.39478 87.1439 4.79021L87.2025 3.14278H87.2032C87.1918 3.46851 87.1829 3.71388 87.1742 3.95832L87.174 3.96291L87.174 3.96424L87.1737 3.9706L87.1737 3.97172L87.1736 3.97275C87.1648 4.21779 87.156 4.46348 87.1446 4.78985C87.1456 4.79021 87.1481 4.79056 87.1481 4.79056Z" fill="#C64138"/>
<path d="M103.795 4.55393C103.826 4.00359 103.857 3.45325 103.888 2.90292L103.888 2.90262C103.87 3.21914 103.857 3.45985 103.844 3.69738L103.842 3.72986C103.828 3.977 103.815 4.22426 103.796 4.55359L103.795 4.55393Z" fill="#C64138"/>
<path d="M103.688 6.48797C98.4364 9.44721 92.7567 9.88985 86.9882 9.55164C86.9794 9.80353 86.9705 10.0551 86.9616 10.307C84.6317 9.93889 82.4425 9.72715 80.3122 9.66035C80.2632 9.0308 80.2081 8.36288 80.147 7.68146C82.3639 7.77525 84.631 8.01151 87.0163 8.37247C87.0167 8.3726 87.0172 8.37269 87.0178 8.37274C87.0187 8.37283 87.0195 8.37283 87.0195 8.37283L87.0483 7.57025C92.8316 7.88146 98.497 7.47401 103.795 4.55393L103.688 6.48797Z" fill="#C64138"/>
<path d="M103.596 8.13824C103.625 7.60327 103.655 7.0683 103.685 6.53334L103.688 6.48797L103.688 6.48772C103.67 6.82106 103.656 7.07014 103.642 7.31998L103.642 7.32021L103.641 7.32298C103.628 7.56716 103.614 7.81238 103.596 8.13799L103.596 8.13824Z" fill="#C64138"/>
<path d="M103.596 8.13824C103.56 8.7831 103.524 9.42797 103.488 10.0728C98.3085 13.0973 92.607 13.6359 86.8568 13.2387C86.8529 13.3471 86.8491 13.4555 86.8452 13.564C86.8414 13.6724 86.8376 13.7809 86.8337 13.8892C84.6505 13.314 82.5693 13.039 80.5392 12.9769C80.514 12.5516 80.4781 11.9817 80.4327 11.317C82.5036 11.3767 84.6299 11.582 86.8888 11.9544C86.9083 11.4055 86.9278 10.8562 86.9474 10.307H86.9477L86.9284 10.8503C86.9158 11.2054 86.9052 11.5026 86.8891 11.9544C86.8894 11.9545 86.89 11.9546 86.8905 11.9547C86.8911 11.9547 86.8916 11.9547 86.8916 11.9547L86.9168 11.246C92.6803 11.6115 98.376 11.1327 103.596 8.13824Z" fill="#C64138"/>
<path d="M81.9902 26.6554C82.2439 25.9633 83.239 25.9019 83.4713 25.8969C89.413 28.0147 97.8153 25.6542 102.797 22.4805C102.778 22.8165 102.76 23.1524 102.741 23.4883C102.722 23.8242 102.703 24.1601 102.685 24.496C97.7471 27.6747 87.2035 31.0651 81.9628 27.3045C81.9675 27.1963 81.972 27.0881 81.9765 26.98L81.9831 26.8219C81.9846 26.7882 81.986 26.7544 81.9874 26.7206L81.9902 26.6554Z" fill="#C64138"/>
<path d="M86.7854 14.9451L86.7644 15.5366C79.8344 13.8327 73.4962 15.127 66.6408 16.6114C66.6799 16.828 66.7189 17.0446 66.758 17.2612L66.7581 17.2621C66.8361 17.695 66.9142 18.1279 66.9925 18.5608C67.1845 18.52 67.3761 18.4793 67.5673 18.4387L67.5768 18.4366C74.0803 17.054 80.1342 15.767 86.7079 17.4722L86.7264 16.9553C92.4563 17.4235 98.1912 16.7258 103.289 13.6586L103.289 13.6573C103.325 13.0129 103.361 12.3686 103.397 11.7242C98.2502 14.7746 92.5316 15.375 86.7861 14.9448L86.7854 14.9451Z" fill="#C64138"/>
<path d="M86.6362 19.1182L86.6454 18.8571V18.8567C92.3341 19.4284 98.3983 18.2318 103.196 15.3096C103.214 15.0015 103.227 14.7653 103.24 14.534L103.24 14.5338C103.246 14.4297 103.251 14.3265 103.257 14.2182L103.089 17.2438C98.3806 20.1531 92.2492 21.5039 86.5854 20.8953L86.5797 21.0545C81.323 19.1364 75.6664 20.3992 70.3301 21.5905L70.3298 21.5906L70.3285 21.5909C69.4234 21.793 68.5276 21.9929 67.6444 22.175C67.5268 21.5252 67.4092 20.8747 67.292 20.2249C67.7975 20.1192 68.3006 20.0123 68.8018 19.9058C74.8175 18.6273 80.5509 17.4089 86.6362 19.1182Z" fill="#C64138"/>
<path d="M103.041 18.0986L103.089 17.2438C103.07 17.587 103.055 17.841 103.041 18.0986Z" fill="#C64138"/>
<path d="M86.51 22.6536L86.5083 22.6983C86.375 22.6347 86.2404 22.5751 86.1047 22.5175C85.0989 22.0905 84.0323 21.8265 82.9281 21.6879C79.0896 21.2066 74.7991 22.2335 71.0526 23.1302C69.9625 23.3911 68.9185 23.641 67.945 23.8395L67.9503 23.8685C68.0711 24.5367 68.1919 25.2049 68.3127 25.8735C68.9084 25.7531 69.7481 25.5312 70.7474 25.2671C73.8029 24.4598 78.3506 23.2581 81.9763 23.3577C83.7979 23.4078 85.3867 23.7862 86.4365 24.7081V24.7195L86.4429 24.7483C92.0414 25.4286 98.4559 23.6292 102.889 20.8296C102.925 20.1847 102.961 19.5399 102.997 18.8951C98.3859 21.7725 92.1522 23.3009 86.5104 22.6539L86.51 22.6536Z" fill="#C64138"/>
</svg>
