<svg width="28" height="42" viewBox="0 0 28 42" fill="none" xmlns="http://www.w3.org/2000/svg">
<path fill-rule="evenodd" clip-rule="evenodd" d="M8.24888 20.664L12.1297 23.4696C12.7933 23.9484 12.8521 24.4272 12.5329 24.9312L13.0957 25.3512L15.0613 22.6296C16.2709 20.9496 16.1701 18.6564 14.3725 17.346L10.4581 14.4984C9.98767 14.154 9.93728 13.6836 10.1977 13.146L9.63488 12.7428L7.54328 15.624C6.49328 17.0688 6.82088 19.6308 8.24888 20.664Z" fill="#3D4043"/>
<path fill-rule="evenodd" clip-rule="evenodd" d="M10.8445 11.76L16.2037 15.6912C17.2873 16.4892 17.4301 18.522 16.6405 19.5552L17.0941 19.8996L20.7901 14.7C22.4533 12.3648 22.3525 8.9124 19.7485 7.0224L14.0197 2.8644C13.2217 2.2848 12.8185 1.2936 13.4821 0.3444L12.9865 0L9.72728 4.5024C8.19848 6.6192 8.75288 10.2228 10.8445 11.76Z" fill="#3D4043"/>
<path fill-rule="evenodd" clip-rule="evenodd" d="M21.0757 26.334H4.97288L4.40168 28.2576H8.71928L9.49208 30.8784H16.5481L17.3209 28.2576H21.6385L21.0757 26.334Z" fill="#3D4043"/>
<path fill-rule="evenodd" clip-rule="evenodd" d="M6.42608 37.0188C7.18208 36.5736 7.65248 35.9184 7.65248 35.028C7.65248 33.2388 6.19088 32.508 4.58648 32.508H0.117676V42H4.54448C6.43448 42 8.43368 41.1768 8.11448 39.0012C7.92968 37.758 7.42568 37.4556 6.42608 37.0188ZM2.14208 34.3224H4.46048C5.90528 34.3224 5.96408 36.3468 4.55288 36.3468H2.14208V34.3224ZM4.72928 40.2108H2.14208V38.0436H4.72928C6.62768 38.0436 6.51848 40.2108 4.72928 40.2108Z" fill="#3D4043"/>
<path fill-rule="evenodd" clip-rule="evenodd" d="M15.2881 37.0188C16.0441 36.5736 16.5145 35.9184 16.5145 35.028C16.5145 33.2388 15.0529 32.508 13.4485 32.508H8.97968V42H13.4065C15.2965 42 17.3041 41.1768 16.9765 39.0012C16.7917 37.758 16.2877 37.4556 15.2881 37.0188ZM11.0041 34.3224H13.3225C14.7757 34.3224 14.8261 36.3468 13.4149 36.3468H11.0041V34.3224ZM13.5913 40.2108H11.0041V38.0436H13.5913C15.4981 38.0436 15.3805 40.2108 13.5913 40.2108Z" fill="#3D4043"/>
<path fill-rule="evenodd" clip-rule="evenodd" d="M24.1585 37.0188C24.9145 36.5736 25.3849 35.9184 25.3849 35.028C25.3849 33.2388 23.9233 32.508 22.3189 32.508H17.8501V42H22.2769C24.1669 42 26.1661 41.1768 25.8469 39.0012C25.6621 37.758 25.1581 37.4556 24.1585 37.0188ZM19.8745 34.3224H22.1929C23.6377 34.3224 23.6881 36.3468 22.2853 36.3468H19.8745V34.3224ZM22.4533 40.2108H19.8661V38.0436H22.4533C24.3601 38.0436 24.2425 40.2108 22.4533 40.2108Z" fill="#3D4043"/>
<path fill-rule="evenodd" clip-rule="evenodd" d="M26.6365 41.496C26.6113 41.4708 26.5777 41.4456 26.5357 41.4288C26.4937 41.4036 26.4433 41.3868 26.3845 41.3616C26.3257 41.3448 26.2837 41.328 26.2501 41.3112C26.2165 41.2944 26.1913 41.2776 26.1745 41.2608C26.1577 41.244 26.1409 41.2272 26.1409 41.2104C26.1325 41.1936 26.1325 41.1684 26.1325 41.1516C26.1325 41.1264 26.1325 41.1096 26.1409 41.0928C26.1493 41.076 26.1577 41.0592 26.1829 41.0424C26.1997 41.0256 26.2249 41.0172 26.2501 41.0088C26.2753 41.0004 26.3089 40.992 26.3509 40.992C26.4097 40.992 26.4517 41.0004 26.4937 41.0172C26.5357 41.034 26.5777 41.0592 26.6113 41.0928L26.6869 41.0004C26.6449 40.9668 26.5945 40.9332 26.5357 40.9164C26.4853 40.8996 26.4181 40.8828 26.3509 40.8828C26.3005 40.8828 26.2501 40.8912 26.2081 40.8996C26.1661 40.908 26.1325 40.9332 26.0989 40.95C26.0653 40.9752 26.0485 41.0004 26.0317 41.034C26.0149 41.0676 26.0065 41.1096 26.0065 41.1516C26.0065 41.1936 26.0149 41.2272 26.0233 41.2524C26.0317 41.286 26.0485 41.3112 26.0737 41.3364C26.0989 41.3616 26.1325 41.3868 26.1745 41.4036C26.2165 41.4204 26.2669 41.4456 26.3257 41.4624C26.3761 41.4792 26.4181 41.496 26.4517 41.5128C26.4853 41.5296 26.5105 41.5464 26.5357 41.5632C26.5525 41.58 26.5693 41.5968 26.5777 41.622C26.5861 41.6388 26.5861 41.664 26.5861 41.6892C26.5861 41.748 26.5609 41.79 26.5189 41.8236C26.4769 41.8572 26.4181 41.874 26.3425 41.874C26.2837 41.874 26.2333 41.8656 26.1829 41.8404C26.1325 41.8152 26.0905 41.79 26.0485 41.748L25.9645 41.8404C26.0065 41.8824 26.0653 41.916 26.1241 41.9496C26.1913 41.9748 26.2585 41.9916 26.3341 41.9916C26.3929 41.9916 26.4433 41.9832 26.4853 41.9664C26.5273 41.9496 26.5693 41.9328 26.6029 41.9076C26.6365 41.8824 26.6617 41.8488 26.6785 41.8152C26.6953 41.7732 26.7037 41.7312 26.7037 41.6892C26.7037 41.6472 26.6953 41.6136 26.6869 41.58C26.6785 41.5464 26.6617 41.5212 26.6365 41.496Z" fill="#3D4043"/>
<path fill-rule="evenodd" clip-rule="evenodd" d="M27.7117 40.8996L27.4513 41.538C27.4429 41.5548 27.4345 41.5716 27.4261 41.5884C27.4177 41.6052 27.4093 41.6304 27.4009 41.6472C27.3925 41.664 27.3841 41.6892 27.3841 41.706C27.3757 41.7228 27.3757 41.7396 27.3673 41.748C27.3673 41.7396 27.3589 41.7228 27.3505 41.706C27.3421 41.6892 27.3337 41.6724 27.3337 41.6556C27.3253 41.6388 27.3169 41.6136 27.3085 41.5968C27.3001 41.58 27.2917 41.5632 27.2833 41.5464L27.0229 40.908H26.8969V41.9748H27.0145V41.1348C27.0145 41.1432 27.0229 41.16 27.0229 41.1684C27.0313 41.1852 27.0313 41.202 27.0397 41.2104C27.0481 41.2272 27.0481 41.244 27.0565 41.2608C27.0649 41.2776 27.0733 41.2944 27.0733 41.3028L27.3589 41.9916L27.6529 41.3028C27.6613 41.286 27.6613 41.2692 27.6697 41.2608C27.6781 41.244 27.6865 41.2272 27.6865 41.2104C27.6949 41.1936 27.6949 41.1768 27.7033 41.1684C27.7117 41.1516 27.7117 41.1432 27.7117 41.1348V41.9748H27.8461V40.8996H27.7117Z" fill="#3D4043"/>
</svg>
