<svg width="235" height="36" viewBox="0 0 235 36" fill="none" xmlns="http://www.w3.org/2000/svg">
<g id="British logo">
<g id="Vector">
<path fill-rule="evenodd" clip-rule="evenodd" d="M37.1716 19.8398L36.0737 22.1744C36.7802 21.7617 37.7406 21.6642 38.5446 21.6642H42.0558V34.2948C42.0558 34.8438 41.8007 35.4715 41.2705 35.7066H46.1147C45.6058 35.4715 45.3307 34.8438 45.3307 34.2948V21.6242C46.6449 21.6242 48.1742 21.683 49.097 21.703C49.861 21.703 51.1752 20.8202 51.6266 19.6248C50.7051 19.8198 49.7435 19.8398 48.8019 19.8398H37.1716Z" fill="#736757"/>
<path fill-rule="evenodd" clip-rule="evenodd" d="M37.1716 19.8398L36.0737 22.1744C36.7802 21.7617 37.7406 21.6642 38.5446 21.6642H42.0558V34.2948C42.0558 34.8438 41.8007 35.4715 41.2705 35.7066H46.1147C45.6058 35.4715 45.3307 34.8438 45.3307 34.2948V21.6242C46.6449 21.6242 48.1742 21.683 49.097 21.703C49.861 21.703 51.1752 20.8202 51.6266 19.6248C50.7051 19.8198 49.7435 19.8398 48.8019 19.8398H37.1716Z" fill="#3D4043"/>
<path fill-rule="evenodd" clip-rule="evenodd" d="M57.079 19.8394H52.1948C52.5874 20.0358 52.9988 20.5447 52.9988 21.2712V34.2945C52.9988 35.001 52.5874 35.5299 52.1948 35.7062H57.079C56.6664 35.5299 56.275 35.001 56.275 34.2945V21.2712C56.275 20.5447 56.6664 20.0358 57.079 19.8394Z" fill="#736757"/>
<path fill-rule="evenodd" clip-rule="evenodd" d="M57.079 19.8394H52.1948C52.5874 20.0358 52.9988 20.5447 52.9988 21.2712V34.2945C52.9988 35.001 52.5874 35.5299 52.1948 35.7062H57.079C56.6664 35.5299 56.275 35.001 56.275 34.2945V21.2712C56.275 20.5447 56.6664 20.0358 57.079 19.8394Z" fill="#3D4043"/>
<path fill-rule="evenodd" clip-rule="evenodd" d="M35.563 19.8394H30.6788C31.0715 20.0358 31.4829 20.5447 31.4829 21.2712V34.2945C31.4829 35.001 31.0715 35.5299 30.6788 35.7062H35.563C35.1504 35.5299 34.759 35.001 34.759 34.2945V21.2712C34.759 20.5447 35.1504 20.0358 35.563 19.8394Z" fill="#736757"/>
<path fill-rule="evenodd" clip-rule="evenodd" d="M35.563 19.8394H30.6788C31.0715 20.0358 31.4829 20.5447 31.4829 21.2712V34.2945C31.4829 35.001 31.0715 35.5299 30.6788 35.7062H35.563C35.1504 35.5299 34.759 35.001 34.759 34.2945V21.2712C34.759 20.5447 35.1504 20.0358 35.563 19.8394Z" fill="#3D4043"/>
<path fill-rule="evenodd" clip-rule="evenodd" d="M6.32055 34.3341C5.63406 34.3341 4.88881 34.2953 4.20232 34.1565V28.2933C4.75126 28.2545 5.1639 28.2545 5.61531 28.2545C7.61475 28.2545 9.53667 28.8034 9.53667 31.1955C9.53667 33.6289 7.90985 34.3341 6.32055 34.3341ZM4.20232 21.2728C4.73125 21.214 4.92757 21.214 5.22267 21.214C7.10458 21.214 8.57634 21.8405 8.57634 24.0375C8.57634 26.2345 6.73195 26.8235 4.83004 26.8235H4.20232V21.2728ZM8.84994 27.3907C10.4192 27.0968 11.871 25.7826 11.871 24.1158C11.871 20.9772 9.1638 19.8406 6.39784 19.8406H0.200684C0.710861 20.1144 0.927186 20.7221 0.927186 21.2723V34.2956C0.927186 34.8245 0.710861 35.4522 0.200684 35.7073H6.92802C9.55643 35.7073 13.2827 34.8045 13.2827 31.2358C13.2827 28.7449 11.1057 27.3719 8.84994 27.3907Z" fill="#736757"/>
<path fill-rule="evenodd" clip-rule="evenodd" d="M6.32055 34.3341C5.63406 34.3341 4.88881 34.2953 4.20232 34.1565V28.2933C4.75126 28.2545 5.1639 28.2545 5.61531 28.2545C7.61475 28.2545 9.53667 28.8034 9.53667 31.1955C9.53667 33.6289 7.90985 34.3341 6.32055 34.3341ZM4.20232 21.2728C4.73125 21.214 4.92757 21.214 5.22267 21.214C7.10458 21.214 8.57634 21.8405 8.57634 24.0375C8.57634 26.2345 6.73195 26.8235 4.83004 26.8235H4.20232V21.2728ZM8.84994 27.3907C10.4192 27.0968 11.871 25.7826 11.871 24.1158C11.871 20.9772 9.1638 19.8406 6.39784 19.8406H0.200684C0.710861 20.1144 0.927186 20.7221 0.927186 21.2723V34.2956C0.927186 34.8245 0.710861 35.4522 0.200684 35.7073H6.92802C9.55643 35.7073 13.2827 34.8045 13.2827 31.2358C13.2827 28.7449 11.1057 27.3719 8.84994 27.3907Z" fill="#3D4043"/>
<path fill-rule="evenodd" clip-rule="evenodd" d="M19.3631 26.8222C19.108 26.8222 18.8729 26.8022 18.6179 26.7822V21.2916C18.893 21.2515 19.1468 21.2128 19.4219 21.2128C21.1675 21.2128 22.4617 21.9193 22.4617 23.9C22.4617 25.8419 21.1475 26.8222 19.3631 26.8222ZM21.5589 27.6059C23.8735 27.6059 25.9529 26.3117 25.9529 23.8008C25.9529 20.801 22.8344 19.8394 20.3435 19.8394H14.5965C15.1067 20.1145 15.343 20.7223 15.343 21.2712V34.2945C15.343 34.8434 15.1067 35.4511 14.5965 35.7062H19.3631C18.853 35.4711 18.6179 34.8234 18.6179 34.2945V28.2336C20.6774 28.2536 21.4814 30.3906 22.403 31.9411C22.9907 32.9015 24.4824 35.3336 25.5603 35.6474C26.1493 35.8237 26.8157 35.805 27.4234 35.805C28.4438 35.805 29.4642 35.6862 30.4445 35.3923C26.7957 35.3723 24.8551 27.6259 21.5589 27.6059Z" fill="#736757"/>
<path fill-rule="evenodd" clip-rule="evenodd" d="M19.3631 26.8222C19.108 26.8222 18.8729 26.8022 18.6179 26.7822V21.2916C18.893 21.2515 19.1468 21.2128 19.4219 21.2128C21.1675 21.2128 22.4617 21.9193 22.4617 23.9C22.4617 25.8419 21.1475 26.8222 19.3631 26.8222ZM21.5589 27.6059C23.8735 27.6059 25.9529 26.3117 25.9529 23.8008C25.9529 20.801 22.8344 19.8394 20.3435 19.8394H14.5965C15.1067 20.1145 15.343 20.7223 15.343 21.2712V34.2945C15.343 34.8434 15.1067 35.4511 14.5965 35.7062H19.3631C18.853 35.4711 18.6179 34.8234 18.6179 34.2945V28.2336C20.6774 28.2536 21.4814 30.3906 22.403 31.9411C22.9907 32.9015 24.4824 35.3336 25.5603 35.6474C26.1493 35.8237 26.8157 35.805 27.4234 35.805C28.4438 35.805 29.4642 35.6862 30.4445 35.3923C26.7957 35.3723 24.8551 27.6259 21.5589 27.6059Z" fill="#3D4043"/>
<path fill-rule="evenodd" clip-rule="evenodd" d="M62.7273 22.8409C62.7273 21.5267 63.924 20.9577 65.0806 20.9577C66.5324 20.9577 68.1017 21.8993 68.7294 23.2135L68.5531 20.2512C67.5327 19.7811 65.9247 19.6248 64.8068 19.6248C62.3146 19.6248 59.4712 20.6051 59.4712 23.5861C59.4712 28.4116 66.5911 29.0968 66.5911 32.1178C66.5911 33.8434 65.4145 34.5299 63.8252 34.5299C61.747 34.5299 60.0789 33.0982 59.2761 31.255C59.1773 31.9028 59.1185 32.5492 59.1185 33.197C59.1185 33.7459 59.1586 34.2949 59.2361 34.8238C60.5303 35.7078 62.6097 36.0004 64.139 36.0004C67.0613 36.0004 69.9648 34.6287 69.9648 31.3138C69.9648 26.7447 62.7273 25.9782 62.7273 22.8409Z" fill="#736757"/>
<path fill-rule="evenodd" clip-rule="evenodd" d="M62.7273 22.8409C62.7273 21.5267 63.924 20.9577 65.0806 20.9577C66.5324 20.9577 68.1017 21.8993 68.7294 23.2135L68.5531 20.2512C67.5327 19.7811 65.9247 19.6248 64.8068 19.6248C62.3146 19.6248 59.4712 20.6051 59.4712 23.5861C59.4712 28.4116 66.5911 29.0968 66.5911 32.1178C66.5911 33.8434 65.4145 34.5299 63.8252 34.5299C61.747 34.5299 60.0789 33.0982 59.2761 31.255C59.1773 31.9028 59.1185 32.5492 59.1185 33.197C59.1185 33.7459 59.1586 34.2949 59.2361 34.8238C60.5303 35.7078 62.6097 36.0004 64.139 36.0004C67.0613 36.0004 69.9648 34.6287 69.9648 31.3138C69.9648 26.7447 62.7273 25.9782 62.7273 22.8409Z" fill="#3D4043"/>
<path fill-rule="evenodd" clip-rule="evenodd" d="M86.5375 19.8394H81.8296C82.1835 20.0158 82.5561 20.5447 82.5561 21.2712V26.6055C81.6933 26.6843 80.5167 26.7431 79.1824 26.7431C77.8095 26.7431 76.6328 26.7043 75.77 26.6055V21.2712C75.77 20.5447 76.1226 20.0158 76.4765 19.8394H71.7686C72.1225 20.0158 72.4951 20.5447 72.4951 21.2712V34.2945C72.4951 35.001 72.1225 35.5486 71.7686 35.7062H76.4765C76.1226 35.5299 75.77 35.001 75.77 34.2945V28.3912C76.6328 28.2924 77.8295 28.2536 79.1824 28.2536C80.5167 28.2536 81.6933 28.2924 82.5561 28.3912V34.2945C82.5561 35.001 82.1835 35.5486 81.8296 35.7062H86.5375C86.1849 35.5299 85.831 35.001 85.831 34.2945V21.2712C85.831 20.5447 86.1849 20.0158 86.5375 19.8394Z" fill="#736757"/>
<path fill-rule="evenodd" clip-rule="evenodd" d="M86.5375 19.8394H81.8296C82.1835 20.0158 82.5561 20.5447 82.5561 21.2712V26.6055C81.6933 26.6843 80.5167 26.7431 79.1824 26.7431C77.8095 26.7431 76.6328 26.7043 75.77 26.6055V21.2712C75.77 20.5447 76.1226 20.0158 76.4765 19.8394H71.7686C72.1225 20.0158 72.4951 20.5447 72.4951 21.2712V34.2945C72.4951 35.001 72.1225 35.5486 71.7686 35.7062H76.4765C76.1226 35.5299 75.77 35.001 75.77 34.2945V28.3912C76.6328 28.2924 77.8295 28.2536 79.1824 28.2536C80.5167 28.2536 81.6933 28.2924 82.5561 28.3912V34.2945C82.5561 35.001 82.1835 35.5486 81.8296 35.7062H86.5375C86.1849 35.5299 85.831 35.001 85.831 34.2945V21.2712C85.831 20.5447 86.1849 20.0158 86.5375 19.8394Z" fill="#3D4043"/>
<path fill-rule="evenodd" clip-rule="evenodd" d="M172.251 19.8399C172.486 19.9962 172.585 20.1337 172.585 20.3701C172.585 20.5451 172.388 20.899 172.094 21.4092C172.094 21.4092 169.701 25.5669 169.446 26.0383L166.426 21.2516C165.483 19.7811 164.719 19.6436 163.189 19.6436C162.269 19.6436 160.894 19.8987 160.444 20.075C162.091 20.075 163.464 22.3508 163.758 22.8409L167.015 28.0777V34.2949C167.015 34.7851 166.799 35.4516 166.327 35.7066H170.995C170.505 35.4716 170.29 34.8051 170.29 34.2949V28.0978L174.055 21.5067C174.409 20.879 174.958 20.1537 175.624 19.8399H172.251Z" fill="#736757"/>
<path fill-rule="evenodd" clip-rule="evenodd" d="M172.251 19.8399C172.486 19.9962 172.585 20.1337 172.585 20.3701C172.585 20.5451 172.388 20.899 172.094 21.4092C172.094 21.4092 169.701 25.5669 169.446 26.0383L166.426 21.2516C165.483 19.7811 164.719 19.6436 163.189 19.6436C162.269 19.6436 160.894 19.8987 160.444 20.075C162.091 20.075 163.464 22.3508 163.758 22.8409L167.015 28.0777V34.2949C167.015 34.7851 166.799 35.4516 166.327 35.7066H170.995C170.505 35.4716 170.29 34.8051 170.29 34.2949V28.0978L174.055 21.5067C174.409 20.879 174.958 20.1537 175.624 19.8399H172.251Z" fill="#3D4043"/>
<path fill-rule="evenodd" clip-rule="evenodd" d="M155.364 29.1365C154.638 29.1365 153.893 29.1165 153.167 29.0377L155.58 22.8606L157.816 29.0377C157.01 29.1365 156.188 29.1365 155.364 29.1365ZM163.189 34.472L157.855 19.8394H153.736C154.069 20.017 154.325 20.3696 154.325 20.7423C154.325 20.821 154.305 20.8786 154.285 20.9386L149.029 34.4908C148.833 34.981 148.421 35.4711 147.95 35.7075H151.147C150.971 35.6287 150.775 35.5111 150.775 35.2748C150.775 35.1773 150.833 35.001 151.03 34.5295C151.03 34.5295 152.421 30.9996 152.559 30.6469C153.501 30.5482 154.462 30.5294 155.402 30.5294C156.404 30.5294 157.423 30.5294 158.404 30.6469C158.561 31.0583 159.855 34.6083 159.855 34.6083C159.953 34.9022 160.013 35.0597 160.013 35.1573C160.013 35.4324 159.874 35.5499 159.718 35.7075H164.268C163.877 35.4911 163.405 35.0597 163.189 34.472Z" fill="#736757"/>
<path fill-rule="evenodd" clip-rule="evenodd" d="M155.364 29.1365C154.638 29.1365 153.893 29.1165 153.167 29.0377L155.58 22.8606L157.816 29.0377C157.01 29.1365 156.188 29.1365 155.364 29.1365ZM163.189 34.472L157.855 19.8394H153.736C154.069 20.017 154.325 20.3696 154.325 20.7423C154.325 20.821 154.305 20.8786 154.285 20.9386L149.029 34.4908C148.833 34.981 148.421 35.4711 147.95 35.7075H151.147C150.971 35.6287 150.775 35.5111 150.775 35.2748C150.775 35.1773 150.833 35.001 151.03 34.5295C151.03 34.5295 152.421 30.9996 152.559 30.6469C153.501 30.5482 154.462 30.5294 155.402 30.5294C156.404 30.5294 157.423 30.5294 158.404 30.6469C158.561 31.0583 159.855 34.6083 159.855 34.6083C159.953 34.9022 160.013 35.0597 160.013 35.1573C160.013 35.4324 159.874 35.5499 159.718 35.7075H164.268C163.877 35.4911 163.405 35.0597 163.189 34.472Z" fill="#3D4043"/>
<path fill-rule="evenodd" clip-rule="evenodd" d="M178.978 22.8409C178.978 21.5267 180.174 20.9577 181.331 20.9577C182.783 20.9577 184.352 21.8993 184.98 23.2135L184.803 20.2512C183.783 19.7811 182.175 19.6248 181.057 19.6248C178.566 19.6248 175.722 20.6051 175.722 23.5861C175.722 28.4116 182.842 29.0968 182.842 32.1178C182.842 33.8434 181.665 34.5299 180.076 34.5299C177.997 34.5299 176.331 33.0982 175.525 31.255C175.428 31.9028 175.369 32.5492 175.369 33.197C175.369 33.7459 175.409 34.2949 175.487 34.8238C176.781 35.7078 178.86 36.0004 180.389 36.0004C183.332 36.0004 186.215 34.6287 186.215 31.3138C186.215 26.7447 178.978 25.9782 178.978 22.8409Z" fill="#736757"/>
<path fill-rule="evenodd" clip-rule="evenodd" d="M178.978 22.8409C178.978 21.5267 180.174 20.9577 181.331 20.9577C182.783 20.9577 184.352 21.8993 184.98 23.2135L184.803 20.2512C183.783 19.7811 182.175 19.6248 181.057 19.6248C178.566 19.6248 175.722 20.6051 175.722 23.5861C175.722 28.4116 182.842 29.0968 182.842 32.1178C182.842 33.8434 181.665 34.5299 180.076 34.5299C177.997 34.5299 176.331 33.0982 175.525 31.255C175.428 31.9028 175.369 32.5492 175.369 33.197C175.369 33.7459 175.409 34.2949 175.487 34.8238C176.781 35.7078 178.86 36.0004 180.389 36.0004C183.332 36.0004 186.215 34.6287 186.215 31.3138C186.215 26.7447 178.978 25.9782 178.978 22.8409Z" fill="#3D4043"/>
<path fill-rule="evenodd" clip-rule="evenodd" d="M114.196 19.8394H109.312C109.705 20.0358 110.117 20.5447 110.117 21.2712V34.2945C110.117 35.001 109.705 35.5299 109.312 35.7062H114.196C113.784 35.5299 113.392 35.001 113.392 34.2945V21.2712C113.392 20.5447 113.784 20.0358 114.196 19.8394Z" fill="#736757"/>
<path fill-rule="evenodd" clip-rule="evenodd" d="M114.196 19.8394H109.312C109.705 20.0358 110.117 20.5447 110.117 21.2712V34.2945C110.117 35.001 109.705 35.5299 109.312 35.7062H114.196C113.784 35.5299 113.392 35.001 113.392 34.2945V21.2712C113.392 20.5447 113.784 20.0358 114.196 19.8394Z" fill="#3D4043"/>
<path fill-rule="evenodd" clip-rule="evenodd" d="M150.99 19.8394H147.892C148.088 19.9957 148.165 20.1145 148.165 20.3096C148.165 20.4672 148.127 20.5659 148.048 20.8198L144.929 30.1555L140.81 19.8394L137.065 30.5482L133.554 21.0561C133.495 20.8786 133.416 20.6635 133.416 20.5059C133.416 20.1733 133.554 19.9957 133.75 19.8394H129.062C129.651 20.1533 130.043 20.7423 130.279 21.35L135.672 35.7062H137.163L140.301 26.8219L142.478 32.3338C142.752 33.039 143.497 34.9609 143.988 35.4124C144.204 35.5687 144.595 35.7062 144.989 35.7062L149.813 21.3887C150.01 20.801 150.421 20.1333 150.99 19.8394Z" fill="#736757"/>
<path fill-rule="evenodd" clip-rule="evenodd" d="M150.99 19.8394H147.892C148.088 19.9957 148.165 20.1145 148.165 20.3096C148.165 20.4672 148.127 20.5659 148.048 20.8198L144.929 30.1555L140.81 19.8394L137.065 30.5482L133.554 21.0561C133.495 20.8786 133.416 20.6635 133.416 20.5059C133.416 20.1733 133.554 19.9957 133.75 19.8394H129.062C129.651 20.1533 130.043 20.7423 130.279 21.35L135.672 35.7062H137.163L140.301 26.8219L142.478 32.3338C142.752 33.039 143.497 34.9609 143.988 35.4124C144.204 35.5687 144.595 35.7062 144.989 35.7062L149.813 21.3887C150.01 20.801 150.421 20.1333 150.99 19.8394Z" fill="#3D4043"/>
<path fill-rule="evenodd" clip-rule="evenodd" d="M99.6039 29.1365C98.8786 29.1365 98.1334 29.1165 97.4081 29.0377L99.8202 22.8606L102.056 29.0377C101.252 29.1365 100.428 29.1365 99.6039 29.1365ZM107.429 34.472L102.095 19.8394H97.9771C98.3097 20.017 98.5648 20.3696 98.5648 20.7423C98.5648 20.821 98.5448 20.8786 98.5261 20.9386L93.2692 34.4908C93.0729 34.981 92.6615 35.4711 92.1901 35.7075H95.3875C95.2112 35.6287 95.0148 35.5111 95.0148 35.2748C95.0148 35.1773 95.0736 35.001 95.2699 34.5295C95.2699 34.5295 96.6617 30.9996 96.7992 30.6469C97.7408 30.5482 98.7024 30.5294 99.644 30.5294C100.644 30.5294 101.663 30.5294 102.644 30.6469C102.801 31.0583 104.095 34.6083 104.095 34.6083C104.213 34.9022 104.252 35.0597 104.252 35.1573C104.252 35.4324 104.116 35.5499 103.958 35.7075H108.51C108.117 35.4911 107.645 35.0597 107.429 34.472Z" fill="#736757"/>
<path fill-rule="evenodd" clip-rule="evenodd" d="M99.6039 29.1365C98.8786 29.1365 98.1334 29.1165 97.4081 29.0377L99.8202 22.8606L102.056 29.0377C101.252 29.1365 100.428 29.1365 99.6039 29.1365ZM107.429 34.472L102.095 19.8394H97.9771C98.3097 20.017 98.5648 20.3696 98.5648 20.7423C98.5648 20.821 98.5448 20.8786 98.5261 20.9386L93.2692 34.4908C93.0729 34.981 92.6615 35.4711 92.1901 35.7075H95.3875C95.2112 35.6287 95.0148 35.5111 95.0148 35.2748C95.0148 35.1773 95.0736 35.001 95.2699 34.5295C95.2699 34.5295 96.6617 30.9996 96.7992 30.6469C97.7408 30.5482 98.7024 30.5294 99.644 30.5294C100.644 30.5294 101.663 30.5294 102.644 30.6469C102.801 31.0583 104.095 34.6083 104.095 34.6083C104.213 34.9022 104.252 35.0597 104.252 35.1573C104.252 35.4324 104.116 35.5499 103.958 35.7075H108.51C108.117 35.4911 107.645 35.0597 107.429 34.472Z" fill="#3D4043"/>
<path fill-rule="evenodd" clip-rule="evenodd" d="M121.571 26.8222C121.316 26.8222 121.079 26.8022 120.826 26.7822V21.2916C121.099 21.2515 121.355 21.2128 121.63 21.2128C123.375 21.2128 124.669 21.9193 124.669 23.9C124.669 25.8419 123.355 26.8222 121.571 26.8222ZM124.159 27.6059C125.886 27.6059 128.161 26.3117 128.161 23.8008C128.161 20.801 125.042 19.8394 122.551 19.8394H116.804C117.314 20.1145 117.551 20.7223 117.551 21.2712V34.2945C117.551 34.8434 117.314 35.4511 116.804 35.7062H121.571C121.061 35.4711 120.826 34.8234 120.826 34.2945V28.2336C122.885 28.2336 124.08 30.3906 125.003 31.9411C125.591 32.9015 127.081 35.3336 128.161 35.6474C128.748 35.8237 129.416 35.805 130.024 35.805C131.044 35.805 132.063 35.6862 133.045 35.3923C129.651 35.3923 127.592 27.8022 124.159 27.6059Z" fill="#736757"/>
<path fill-rule="evenodd" clip-rule="evenodd" d="M121.571 26.8222C121.316 26.8222 121.079 26.8022 120.826 26.7822V21.2916C121.099 21.2515 121.355 21.2128 121.63 21.2128C123.375 21.2128 124.669 21.9193 124.669 23.9C124.669 25.8419 123.355 26.8222 121.571 26.8222ZM124.159 27.6059C125.886 27.6059 128.161 26.3117 128.161 23.8008C128.161 20.801 125.042 19.8394 122.551 19.8394H116.804C117.314 20.1145 117.551 20.7223 117.551 21.2712V34.2945C117.551 34.8434 117.314 35.4511 116.804 35.7062H121.571C121.061 35.4711 120.826 34.8234 120.826 34.2945V28.2336C122.885 28.2336 124.08 30.3906 125.003 31.9411C125.591 32.9015 127.081 35.3336 128.161 35.6474C128.748 35.8237 129.416 35.805 130.024 35.805C131.044 35.805 132.063 35.6862 133.045 35.3923C129.651 35.3923 127.592 27.8022 124.159 27.6059Z" fill="#3D4043"/>
</g>
<path id="Fill 30" fill-rule="evenodd" clip-rule="evenodd" d="M234.14 12.7502C234.137 12.7452 234.128 12.7314 234.123 12.7252C233.385 9.88293 230.707 5.57144 228.395 3.57324C226.08 1.57255 223.03 1.25619 220.716 0.624721C218.402 -0.00674832 208.199 -0.111785 202.834 0.0982882C197.47 0.308361 151.924 2.09898 138.671 2.62542C144.877 4.62486 154.239 6.94191 164.757 7.99478C175.276 9.04765 191.894 8.83757 205.043 8.73254C217.078 8.635 222.384 8.36866 227.419 8.96637C225.572 10.6419 220.993 12.934 218.928 13.7855C216.419 14.8184 208.366 17.5844 201.046 19.9977C205.659 21.2044 211.224 22.6286 218.245 23.9916C222.978 22.201 231.956 18.3396 233.654 15.1548C234.363 13.8231 234.06 12.7502 234.14 12.7502Z" fill="#3D4043"/>
<g id="Fill 1">
<path fill-rule="evenodd" clip-rule="evenodd" d="M138.452 2.62542C151.705 2.09898 197.25 0.309612 202.614 0.0982882C207.98 -0.111785 218.182 -0.00674832 220.496 0.624721C222.81 1.25619 225.86 1.57255 228.174 3.57324C230.489 5.57394 233.17 9.89044 233.905 12.7327C232.443 10.7507 230.611 9.46029 228.595 9.15393C223.089 8.31489 217.972 8.62625 204.823 8.73254C191.675 8.83757 175.056 9.04765 164.537 7.99478C154.018 6.94316 144.658 4.62611 138.452 2.62542Z" fill="#EC7F00"/>
<path fill-rule="evenodd" clip-rule="evenodd" d="M138.452 2.62542C151.705 2.09898 197.25 0.309612 202.614 0.0982882C207.98 -0.111785 218.182 -0.00674832 220.496 0.624721C222.81 1.25619 225.86 1.57255 228.174 3.57324C230.489 5.57394 233.17 9.89044 233.905 12.7327C232.443 10.7507 230.611 9.46029 228.595 9.15393C223.089 8.31489 217.972 8.62625 204.823 8.73254C191.675 8.83757 175.056 9.04765 164.537 7.99478C154.018 6.94316 144.658 4.62611 138.452 2.62542Z" fill="#908271"/>
<path fill-rule="evenodd" clip-rule="evenodd" d="M138.452 2.62542C151.705 2.09898 197.25 0.309612 202.614 0.0982882C207.98 -0.111785 218.182 -0.00674832 220.496 0.624721C222.81 1.25619 225.86 1.57255 228.174 3.57324C230.489 5.57394 233.17 9.89044 233.905 12.7327C232.443 10.7507 230.611 9.46029 228.595 9.15393C223.089 8.31489 217.972 8.62625 204.823 8.73254C191.675 8.83757 175.056 9.04765 164.537 7.99478C154.018 6.94316 144.658 4.62611 138.452 2.62542Z" fill="url(#paint0_linear_185_3359)"/>
</g>
</g>
<defs>
<linearGradient id="paint0_linear_185_3359" x1="137.497" y1="12.7998" x2="141.495" y2="-13.9959" gradientUnits="userSpaceOnUse">
<stop offset="0.161458" stop-color="#AC883B"/>
<stop offset="0.609375" stop-color="#E2CD83"/>
<stop offset="0.817708" stop-color="#EFEDB5"/>
</linearGradient>
</defs>
</svg>
