<svg width="15" height="16" viewBox="0 0 15 16" fill="none" xmlns="http://www.w3.org/2000/svg">
<path d="M9.3377 13C8.77901 13 8.30523 12.8071 7.91634 12.4214C7.52745 12.0356 7.33301 11.5634 7.33301 11.0047C7.33301 10.446 7.52589 9.97222 7.91165 9.58333C8.2974 9.19444 8.76963 9 9.32832 9C9.887 9 10.3608 9.19288 10.7497 9.57865C11.1386 9.9644 11.333 10.4366 11.333 10.9953C11.333 11.554 11.1401 12.0278 10.7544 12.4167C10.3686 12.8056 9.89639 13 9.3377 13ZM1.83301 16C1.42051 16 1.06738 15.8507 0.773633 15.5521C0.479883 15.2535 0.333008 14.9028 0.333008 14.5V3.5C0.333008 3.09722 0.479883 2.74653 0.773633 2.44792C1.06738 2.14931 1.42051 2 1.83301 2H3.33301V0.75C3.33301 0.5375 3.40446 0.359375 3.54736 0.215624C3.69028 0.0718745 3.86736 0 4.07861 0C4.28988 0 4.46842 0.0718745 4.61426 0.215624C4.76009 0.359375 4.83301 0.5375 4.83301 0.75V2H9.83301V0.75C9.83301 0.5375 9.90446 0.359375 10.0474 0.215624C10.1903 0.0718745 10.3674 0 10.5786 0C10.7899 0 10.9684 0.0718745 11.1143 0.215624C11.2601 0.359375 11.333 0.5375 11.333 0.75V2H12.833C13.2455 2 13.5986 2.14931 13.8924 2.44792C14.1861 2.74653 14.333 3.09722 14.333 3.5V14.5C14.333 14.9028 14.1861 15.2535 13.8924 15.5521C13.5986 15.8507 13.2455 16 12.833 16H1.83301ZM1.83301 14.5H12.833V7H1.83301V14.5Z" fill="#31302F"/>
<path d="M9.3377 13C8.77901 13 8.30523 12.8071 7.91634 12.4214C7.52745 12.0356 7.33301 11.5634 7.33301 11.0047C7.33301 10.446 7.52589 9.97222 7.91165 9.58333C8.2974 9.19444 8.76963 9 9.32832 9C9.887 9 10.3608 9.19288 10.7497 9.57865C11.1386 9.9644 11.333 10.4366 11.333 10.9953C11.333 11.554 11.1401 12.0278 10.7544 12.4167C10.3686 12.8056 9.89639 13 9.3377 13ZM1.83301 16C1.42051 16 1.06738 15.8507 0.773633 15.5521C0.479883 15.2535 0.333008 14.9028 0.333008 14.5V3.5C0.333008 3.09722 0.479883 2.74653 0.773633 2.44792C1.06738 2.14931 1.42051 2 1.83301 2H3.33301V0.75C3.33301 0.5375 3.40446 0.359375 3.54736 0.215624C3.69028 0.0718745 3.86736 0 4.07861 0C4.28988 0 4.46842 0.0718745 4.61426 0.215624C4.76009 0.359375 4.83301 0.5375 4.83301 0.75V2H9.83301V0.75C9.83301 0.5375 9.90446 0.359375 10.0474 0.215624C10.1903 0.0718745 10.3674 0 10.5786 0C10.7899 0 10.9684 0.0718745 11.1143 0.215624C11.2601 0.359375 11.333 0.5375 11.333 0.75V2H12.833C13.2455 2 13.5986 2.14931 13.8924 2.44792C14.1861 2.74653 14.333 3.09722 14.333 3.5V14.5C14.333 14.9028 14.1861 15.2535 13.8924 15.5521C13.5986 15.8507 13.2455 16 12.833 16H1.83301ZM1.83301 14.5H12.833V7H1.83301V14.5Z" fill="#EC7F00"/>
</svg>
