<svg width="15" height="16" viewBox="0 0 15 16" fill="none" xmlns="http://www.w3.org/2000/svg">
<path d="M5.3377 12.5C4.77901 12.5 4.30523 12.3071 3.91634 11.9214C3.52745 11.5356 3.33301 11.0634 3.33301 10.5047C3.33301 9.94601 3.52589 9.47222 3.91165 9.08333C4.2974 8.69444 4.76963 8.5 5.32832 8.5C5.887 8.5 6.36079 8.69288 6.74967 9.07865C7.13856 9.4644 7.33301 9.93662 7.33301 10.4953C7.33301 11.054 7.14013 11.5278 6.75436 11.9167C6.36861 12.3056 5.89639 12.5 5.3377 12.5ZM1.83301 16C1.42051 16 1.06738 15.8507 0.773633 15.5521C0.479883 15.2535 0.333008 14.9028 0.333008 14.5V3.5C0.333008 3.09722 0.479883 2.74653 0.773633 2.44792C1.06738 2.14931 1.42051 2 1.83301 2H3.33301V0.75C3.33301 0.5375 3.40446 0.359375 3.54736 0.215624C3.69028 0.0718745 3.86736 0 4.07861 0C4.28988 0 4.46842 0.0718745 4.61426 0.215624C4.76009 0.359375 4.83301 0.5375 4.83301 0.75V2H9.83301V0.75C9.83301 0.5375 9.90446 0.359375 10.0474 0.215624C10.1903 0.0718745 10.3674 0 10.5786 0C10.7899 0 10.9684 0.0718745 11.1143 0.215624C11.2601 0.359375 11.333 0.5375 11.333 0.75V2H12.833C13.2455 2 13.5986 2.14931 13.8924 2.44792C14.1861 2.74653 14.333 3.09722 14.333 3.5V14.5C14.333 14.9028 14.1861 15.2535 13.8924 15.5521C13.5986 15.8507 13.2455 16 12.833 16H1.83301ZM1.83301 14.5H12.833V7H1.83301V14.5Z" fill="#31302F"/>
<path d="M5.3377 12.5C4.77901 12.5 4.30523 12.3071 3.91634 11.9214C3.52745 11.5356 3.33301 11.0634 3.33301 10.5047C3.33301 9.94601 3.52589 9.47222 3.91165 9.08333C4.2974 8.69444 4.76963 8.5 5.32832 8.5C5.887 8.5 6.36079 8.69288 6.74967 9.07865C7.13856 9.4644 7.33301 9.93662 7.33301 10.4953C7.33301 11.054 7.14013 11.5278 6.75436 11.9167C6.36861 12.3056 5.89639 12.5 5.3377 12.5ZM1.83301 16C1.42051 16 1.06738 15.8507 0.773633 15.5521C0.479883 15.2535 0.333008 14.9028 0.333008 14.5V3.5C0.333008 3.09722 0.479883 2.74653 0.773633 2.44792C1.06738 2.14931 1.42051 2 1.83301 2H3.33301V0.75C3.33301 0.5375 3.40446 0.359375 3.54736 0.215624C3.69028 0.0718745 3.86736 0 4.07861 0C4.28988 0 4.46842 0.0718745 4.61426 0.215624C4.76009 0.359375 4.83301 0.5375 4.83301 0.75V2H9.83301V0.75C9.83301 0.5375 9.90446 0.359375 10.0474 0.215624C10.1903 0.0718745 10.3674 0 10.5786 0C10.7899 0 10.9684 0.0718745 11.1143 0.215624C11.2601 0.359375 11.333 0.5375 11.333 0.75V2H12.833C13.2455 2 13.5986 2.14931 13.8924 2.44792C14.1861 2.74653 14.333 3.09722 14.333 3.5V14.5C14.333 14.9028 14.1861 15.2535 13.8924 15.5521C13.5986 15.8507 13.2455 16 12.833 16H1.83301ZM1.83301 14.5H12.833V7H1.83301V14.5Z" fill="#EC7F00"/>
</svg>
