<svg width="259" height="36" viewBox="0 0 259 36" fill="none" xmlns="http://www.w3.org/2000/svg">
<g id="Group 7">
<path id="Fill 1" fill-rule="evenodd" clip-rule="evenodd" d="M11.3624 17.3162C11.2465 17.3313 11.1155 17.1607 11.0579 17.0808C11.0428 17.0578 10.9773 16.921 10.9931 16.9008C11.0176 16.8814 11.1522 16.9267 11.1875 16.9555C11.2746 17.0254 11.3459 17.1211 11.3884 17.2882C11.3898 17.3076 11.3732 17.3162 11.3624 17.3162ZM8.52425 15.7416C8.44361 15.7711 8.24851 15.5465 8.19308 15.4659C8.09157 15.314 7.99006 15.1441 7.88279 14.995C7.78416 14.8626 7.67329 14.769 7.64953 14.5379C7.64593 14.5091 7.63082 14.4407 7.64665 14.4436C7.75536 14.4508 7.85903 14.6394 7.91447 14.7143C7.9519 14.769 7.99654 14.8208 8.03326 14.877C8.08653 14.9583 8.10813 15.0541 8.16428 15.1311C8.23124 15.2233 8.31331 15.3118 8.38674 15.4032C8.42562 15.4536 8.47745 15.4983 8.50193 15.5652C8.51345 15.5998 8.548 15.7301 8.52425 15.7416ZM7.71223 15.7107C7.65248 15.7056 7.62512 15.6675 7.58912 15.6394C7.48761 15.5652 7.40482 15.4472 7.40194 15.2737C7.4005 15.2571 7.4077 15.2535 7.4185 15.2535C7.53657 15.2513 7.65824 15.4342 7.70503 15.5199C7.71727 15.5444 7.74895 15.6135 7.74391 15.6624C7.74319 15.6955 7.72951 15.7092 7.71223 15.7107ZM5.01044 16.2569C5.0054 16.2698 4.99532 16.2864 4.97516 16.2878C4.84846 16.2835 4.80814 16.0906 4.75199 16.0042C4.70663 15.9307 4.66632 15.853 4.61952 15.7767C4.58568 15.7277 4.54033 15.673 4.51369 15.6147C4.47842 15.5405 4.4633 15.4621 4.42082 15.3965C4.39706 15.3613 4.36035 15.3296 4.33515 15.2972C4.26676 15.2043 4.2034 15.1035 4.15589 14.9855C4.14797 14.9416 4.13501 14.9012 4.12421 14.858C4.09901 14.7853 4.06734 14.7076 4.04214 14.6313C4.02846 14.5938 4.0227 14.5146 4.02846 14.488C4.0335 14.4779 4.03926 14.4693 4.04862 14.4729C4.14797 14.4858 4.24084 14.7241 4.29123 14.8141C4.34235 14.9077 4.42658 14.9833 4.4741 15.0783C4.51441 15.1662 4.52809 15.277 4.57417 15.3627C4.61088 15.4275 4.6728 15.4786 4.71239 15.542C4.76711 15.624 4.8031 15.7306 4.84486 15.8191C4.89093 15.9207 4.95789 15.9998 4.99892 16.0985C5.0162 16.1395 5.02052 16.2115 5.01044 16.2569ZM4.50784 12.5733C4.48408 12.5301 4.45672 12.4762 4.43872 12.4286C4.41856 12.3746 4.41712 12.3235 4.39265 12.2717C4.31705 12.1047 4.23282 11.9182 4.15507 11.7526C4.12411 11.6821 4.08092 11.5518 4.11044 11.4632C4.11548 11.451 4.14139 11.4589 4.15291 11.4711C4.17811 11.4949 4.19539 11.5093 4.21843 11.5352C4.23426 11.5597 4.23786 11.5856 4.25442 11.6072C4.29186 11.6655 4.34081 11.7238 4.37033 11.7879C4.43152 11.9254 4.44808 12.078 4.51216 12.2105C4.55319 12.2976 4.62086 12.3746 4.6655 12.4632C4.68782 12.5121 4.70006 12.5633 4.71733 12.6151C4.72597 12.6525 4.72525 12.7065 4.72597 12.736C4.72885 12.7814 4.72309 12.8095 4.7051 12.8124C4.58775 12.8052 4.55319 12.6597 4.50784 12.5733ZM30.1863 23.9485C30.0365 23.3985 28.4253 23.6346 27.0992 23.5144C25.8912 23.4049 24.3455 23.1882 22.4823 22.541C20.7415 21.9356 19.0569 21.2452 17.5904 20.4504C17.5904 20.4504 16.9958 20.1386 16.931 20.1026C16.81 20.0292 16.7143 19.9745 16.594 19.9003C16.5213 19.8571 16.4126 19.7923 16.332 19.7564C16.2283 19.716 16.1606 19.6599 16.0707 19.6044C15.9799 19.549 15.8568 19.4885 15.7647 19.4331C15.6301 19.3489 15.5458 19.2855 15.4184 19.1941C15.3392 19.1358 15.3003 19.1185 15.1945 19.0537C15.1319 19.017 15.0152 18.9536 14.9584 18.9162C14.8417 18.8392 14.7683 18.7737 14.6481 18.693C14.5754 18.6405 14.5228 18.6117 14.4364 18.557C14.3522 18.503 14.2708 18.4382 14.1967 18.3835C14.1535 18.3503 14.0916 18.3165 14.0556 18.2776C13.9692 18.1934 13.8828 18.12 13.7928 18.0458C13.7107 17.9846 13.6323 17.9083 13.5502 17.8471C13.4976 17.8082 13.4105 17.7355 13.3573 17.6966C13.2262 17.6009 13.1434 17.5296 13.011 17.4324C12.926 17.3712 12.8519 17.2877 12.7698 17.2244C12.6733 17.1531 12.5855 17.0717 12.4883 17.0019C12.4249 16.958 12.3537 16.9026 12.3054 16.8522C12.2406 16.7759 12.1816 16.724 12.1161 16.6491C12.0671 16.5959 11.9728 16.5361 11.9188 16.4821C11.8375 16.3777 11.7201 16.2669 11.6114 16.1855C11.551 16.1272 11.5294 16.0984 11.5034 16.0674C11.4847 16.0401 11.4631 16.0106 11.4084 15.9537C11.3566 15.899 11.3379 15.8846 11.3163 15.8623C11.2925 15.8421 11.2651 15.8155 11.1946 15.7471C11.1716 15.7233 11.1334 15.6708 11.0952 15.6204C11.065 15.5757 11.0333 15.5318 11.0117 15.5081C10.9477 15.439 10.903 15.3922 10.8569 15.3439C10.8253 15.3108 10.7914 15.2741 10.7482 15.2302C10.7238 15.2028 10.7029 15.1697 10.6813 15.138C10.6611 15.1085 10.6395 15.0775 10.6179 15.0509C10.5798 15.0084 10.5503 15.0221 10.5402 15.0293C10.5186 15.0466 10.5078 15.0898 10.5359 15.1452C10.5683 15.2093 10.6186 15.2806 10.6482 15.3216C10.6546 15.331 10.6611 15.3403 10.6647 15.3461C10.6784 15.3648 10.6878 15.3835 10.7 15.4066C10.7187 15.4361 10.7367 15.4692 10.7583 15.4987C10.8066 15.5635 10.8598 15.6204 10.9102 15.6729C10.9297 15.6902 10.9469 15.7075 10.9613 15.7262C10.9981 15.7615 11.024 15.8018 11.0506 15.8414C11.0794 15.8831 11.1111 15.9249 11.1492 15.9659C11.1672 15.9839 11.1809 16.0063 11.196 16.0257C11.2133 16.0473 11.2291 16.0718 11.2507 16.0905C11.2803 16.1207 11.3076 16.1488 11.3364 16.1798C11.3868 16.2302 11.4372 16.2827 11.4847 16.3223C11.5236 16.3547 11.5603 16.395 11.5992 16.4317C11.6978 16.5498 11.8072 16.6679 11.8936 16.7787C11.9455 16.8435 12.0369 16.8903 12.0931 16.9342C12.1564 16.981 12.2068 17.0638 12.2565 17.1272C12.2968 17.1733 12.381 17.2496 12.4199 17.2971C12.52 17.4223 12.5855 17.4907 12.7165 17.5872C12.7943 17.6448 12.8547 17.6981 12.9152 17.7744C12.9527 17.8197 13.0642 17.9292 13.1067 17.9825C13.214 18.1171 13.2615 18.2438 13.2464 18.2481C13.1729 18.2675 12.9973 18.1106 12.89 18.0429C12.8036 17.9846 12.7885 17.9616 12.7079 17.8997C12.6899 17.8831 12.5581 17.7924 12.5149 17.7355C12.4782 17.7017 12.381 17.5995 12.3501 17.5613C12.2018 17.372 12.1535 17.3619 11.9829 17.1949C11.8584 17.0739 11.7065 16.9666 11.5848 16.8572C11.5488 16.8205 11.5128 16.7809 11.4782 16.7406C11.4372 16.701 11.3883 16.6643 11.353 16.624C11.2947 16.5541 11.2198 16.4159 11.1521 16.3669C11.0801 16.3108 11.0312 16.2618 10.9577 16.2086C10.9347 16.1906 10.9102 16.1582 10.8857 16.1366C10.8497 16.1121 10.8087 16.084 10.7828 16.0502C10.7 15.9458 10.6194 15.8371 10.5359 15.7327C10.4977 15.6808 10.4423 15.6398 10.4048 15.588C10.3235 15.4735 10.2558 15.3583 10.1759 15.2511C10.0607 15.102 9.89512 14.9933 9.78497 14.845C9.67267 14.6902 9.60571 14.5081 9.49772 14.3461C9.45093 14.2756 9.37894 14.2259 9.32926 14.1589C9.2983 14.1215 9.28319 14.0761 9.25583 14.0337C9.20039 13.9465 9.13128 13.8594 9.07369 13.7788C8.99881 13.6687 8.9477 13.5463 8.87139 13.4289C8.85843 13.4145 8.83179 13.3353 8.78716 13.277C8.74108 13.2187 8.70076 13.1553 8.64965 13.0711C8.5971 12.989 8.57262 12.935 8.53374 12.8782C8.49775 12.8213 8.47327 12.7687 8.44663 12.7291C8.42215 12.6852 8.3696 12.614 8.34944 12.5844C8.28105 12.4779 8.26089 12.4282 8.1889 12.3296C8.14642 12.2684 8.09603 12.218 8.05571 12.2338C8.02547 12.2554 8.03771 12.2936 8.04275 12.3217C8.07659 12.4073 8.07659 12.3937 8.10899 12.4563C8.1673 12.5607 8.18818 12.6096 8.25153 12.704C8.27889 12.7515 8.32712 12.8559 8.36744 12.912C8.40775 12.9696 8.44663 13.0394 8.47543 13.0862C8.50278 13.1366 8.54814 13.2713 8.58918 13.3267C8.61941 13.3677 8.66477 13.4484 8.69285 13.5067C8.75404 13.6247 8.83035 13.7183 8.89083 13.809C8.93186 13.8875 8.9729 13.9667 9.01249 14.0423C9.096 14.1661 9.19319 14.2813 9.27311 14.408C9.32494 14.4966 9.37318 14.5844 9.42285 14.6737C9.47037 14.7471 9.53804 14.8076 9.58483 14.8825C9.64171 14.9717 9.67483 15.0682 9.7317 15.1546C9.77921 15.2237 9.83753 15.2899 9.88216 15.3583C9.96136 15.4735 10.0326 15.588 10.1147 15.701C10.1593 15.76 10.2191 15.8119 10.2652 15.8731C10.3285 15.9587 10.376 16.0574 10.4415 16.1279C10.5186 16.1992 10.5402 16.2431 10.6007 16.3129C10.6899 16.4238 10.9153 16.7384 10.8764 16.7406C10.7461 16.7593 10.4927 16.4728 10.3861 16.3684C10.3026 16.2863 10.2097 16.2273 10.1514 16.1488C10.0693 16.0358 10.0067 15.9069 9.9232 15.7975C9.89008 15.755 9.84473 15.7255 9.81521 15.6859C9.75762 15.6117 9.70074 15.5304 9.63379 15.4649C9.60715 15.4375 9.57691 15.4138 9.551 15.3835C9.44733 15.2518 9.36094 15.1099 9.25943 14.9717C9.21767 14.9163 9.16296 14.8659 9.12192 14.8105C9.08953 14.768 9.07009 14.719 9.04129 14.6686C9.00313 14.6082 8.94842 14.5484 8.9081 14.4858C8.87787 14.4411 8.85843 14.3943 8.82891 14.3461C8.77492 14.2648 8.70076 14.192 8.64749 14.1085C8.60357 14.0401 8.59134 13.9516 8.54814 13.8832C8.43511 13.7111 8.312 13.5347 8.20186 13.3634C8.17306 13.318 8.16154 13.2677 8.13418 13.2237C8.04275 13.0826 7.95996 12.93 7.86925 12.7903C7.83613 12.7378 7.82317 12.6773 7.78934 12.6262C7.74902 12.5636 7.68711 12.5153 7.64463 12.4541C7.61296 12.4059 7.6 12.3512 7.57624 12.2972C7.54096 12.223 7.49849 12.1525 7.45817 12.0819C7.43513 12.0409 7.4229 11.997 7.39698 11.9567C7.28827 11.7896 7.20188 11.6104 7.11333 11.4232C7.06797 11.3275 6.99958 11.2382 6.95494 11.1403C6.90239 11.0316 6.85343 10.9214 6.8052 10.8163C6.77712 10.745 6.75192 10.6738 6.72817 10.6025C6.67489 10.4895 6.59498 10.3959 6.54458 10.2771C6.50931 10.1979 6.48915 10.1259 6.45819 10.0589C6.43588 10.0193 6.39772 9.98551 6.36964 10.0035C6.34157 10.0208 6.33725 10.0568 6.35524 10.1173C6.39124 10.2375 6.45531 10.3721 6.48627 10.4383C6.54746 10.573 6.5777 10.7119 6.63818 10.848C6.67057 10.925 6.72169 10.997 6.7548 11.0668C6.81384 11.1979 6.87287 11.3282 6.93119 11.4506C6.96286 11.5218 6.99022 11.5917 7.02838 11.6601C7.04997 11.6946 7.07949 11.7349 7.09605 11.7745C7.13492 11.8624 7.14716 11.9523 7.18532 12.0359C7.2278 12.1215 7.29403 12.1928 7.33362 12.2763C7.53952 12.714 7.74614 13.1294 7.99164 13.5167C8.06147 13.6247 8.09603 13.7558 8.1673 13.863C8.23857 13.9746 8.33648 14.061 8.40775 14.1704C8.46679 14.2604 8.48047 14.3886 8.53374 14.4829C8.61437 14.629 8.7202 14.7514 8.80659 14.8875C8.83107 14.9271 8.83755 14.971 8.86275 15.0092C8.89659 15.0632 8.93906 15.1135 8.9729 15.1661C9.01681 15.2374 9.03985 15.3194 9.08953 15.3835C9.1428 15.457 9.21767 15.516 9.26951 15.5894C9.3343 15.678 9.37894 15.7831 9.44589 15.8731C9.4934 15.9364 9.56612 15.9803 9.61219 16.0423C9.68994 16.1409 9.9484 16.4828 10.0254 16.5793C10.1413 16.7255 10.3451 16.9407 10.4408 17.1351C10.4711 17.1949 10.574 17.3345 10.5517 17.364C10.497 17.4008 10.2385 17.1178 10.1968 17.0753C10.0873 16.9724 9.99447 16.8306 9.90088 16.7111C9.87712 16.6851 9.63091 16.4447 9.60931 16.4159C9.58483 16.3849 9.55892 16.3497 9.53804 16.3173C9.46893 16.215 9.42789 16.0905 9.35086 15.9933C9.32278 15.9537 9.27527 15.9213 9.24503 15.8831C9.18744 15.8076 9.15 15.7212 9.09241 15.6456C9.00529 15.5246 8.89227 15.4181 8.80155 15.2971C8.70724 15.1661 8.64029 15.0113 8.54094 14.8817C8.49271 14.8162 8.43007 14.7593 8.38472 14.6902C8.36528 14.6593 8.35736 14.629 8.33648 14.5966C8.30049 14.5426 8.25369 14.4822 8.22705 14.4239C8.20042 14.3684 8.18386 14.3166 8.15146 14.2676C8.04851 14.1078 7.94772 13.9393 7.84693 13.7795C7.80014 13.7075 7.77494 13.6319 7.72886 13.5614C7.65327 13.4433 7.5568 13.3368 7.48049 13.2173C7.39194 13.0776 7.34154 12.9084 7.25155 12.7687C7.19252 12.6744 7.12341 12.588 7.06581 12.4945C6.99958 12.3951 6.96718 12.2756 6.90815 12.1712C6.85775 12.0783 6.78792 11.9927 6.744 11.8998C6.69361 11.799 6.66121 11.6982 6.61298 11.5917C6.58562 11.5384 6.54458 11.4808 6.51867 11.4239C6.48843 11.3526 6.48123 11.2799 6.44811 11.2115C6.36028 11.0179 6.2271 10.8321 6.13567 10.6385C6.07159 10.5003 6.01184 10.3563 5.95857 10.2101C5.92977 10.1295 5.91609 10.0532 5.88153 9.97903C5.79874 9.80049 5.69939 9.61331 5.6202 9.43477C5.5878 9.33974 5.55469 9.24687 5.51797 9.15399C5.51221 9.1252 5.50933 9.1 5.49925 9.07048C5.4611 8.98913 5.4107 8.90418 5.37974 8.82283C5.34951 8.72564 5.32071 8.63061 5.28831 8.53486C5.16449 8.22097 5.05074 7.86533 4.93267 7.54064C4.91683 7.48161 4.91251 7.40673 4.89091 7.34338C4.83044 7.17636 4.76781 7.00645 4.70661 6.84015C4.67278 6.75592 4.59142 6.78472 4.61086 6.86967C4.63606 6.9863 4.64902 7.01437 4.67062 7.1058C4.67998 7.1526 4.68861 7.19795 4.69653 7.24475C4.70949 7.29946 4.74045 7.35778 4.75485 7.41105C4.78652 7.51256 4.7894 7.61047 4.82324 7.70622C4.87076 7.84157 4.92043 7.97188 4.96291 8.10938C4.97587 8.17993 4.9917 8.24761 5.00538 8.3196C5.02554 8.38295 5.05074 8.45063 5.07521 8.50894C5.14505 8.67812 5.21128 8.84227 5.27176 9.01073C5.29479 9.10864 5.32071 9.20583 5.34519 9.30158C5.37039 9.35413 5.40638 9.40885 5.43086 9.46212C5.45174 9.50892 5.45606 9.55211 5.47765 9.60179C5.51941 9.70906 5.55973 9.82065 5.60868 9.9308C5.65116 10.0208 5.69795 10.1122 5.73467 10.208C5.75123 10.2548 5.75123 10.2951 5.76778 10.3412C5.87073 10.627 5.98592 10.9272 6.10903 11.1979C6.13927 11.267 6.14791 11.3354 6.17886 11.4045C6.2055 11.4614 6.24078 11.5218 6.26453 11.5787L6.30485 11.6889C6.34157 11.7688 6.40636 11.835 6.44452 11.9149C6.5489 12.1359 6.64394 12.3483 6.77712 12.5384C6.90167 12.7148 6.95494 12.948 7.04565 13.1582C7.09101 13.2576 7.15004 13.3418 7.20692 13.4289C7.23283 13.475 7.25155 13.5254 7.27459 13.5751C7.3365 13.6845 7.36818 13.7788 7.44017 13.8753C7.49849 13.9559 7.49057 13.9725 7.53952 14.0848C7.55536 14.1186 7.61008 14.3267 7.59784 14.3267C7.5784 14.3389 7.47617 14.2756 7.44161 14.2381C7.39482 14.1856 7.32067 14.1157 7.26955 14.0013C7.24363 13.9458 7.19252 13.8486 7.16516 13.7932C7.10109 13.6543 6.99166 13.5362 6.91103 13.4095C6.86351 13.3353 6.83687 13.254 6.80016 13.1733C6.73033 13.0272 6.65329 12.8782 6.58274 12.7263C6.5525 12.6644 6.50787 12.6024 6.47331 12.547C6.43372 12.4909 6.41788 12.4282 6.37828 12.3677C6.29981 12.2396 6.20622 12.0963 6.14071 11.9588C6.09247 11.8552 6.06799 11.7522 6.0212 11.6514C6.00392 11.6197 5.978 11.5888 5.95857 11.5593C5.92473 11.506 5.91321 11.4484 5.88369 11.3901C5.8477 11.3138 5.7937 11.2389 5.75627 11.1597C5.68355 11.0013 5.64036 10.8365 5.56476 10.6788C5.53093 10.6068 5.47117 10.5442 5.43806 10.47C5.38478 10.3584 5.37974 10.2188 5.32791 10.1021C5.18896 9.79113 5.03058 9.4722 4.91251 9.14896C4.89451 9.09424 4.88947 9.03161 4.8722 8.97329C4.8218 8.83363 4.75197 8.7026 4.70229 8.56437C4.67998 8.50102 4.67278 8.44199 4.64902 8.37863C4.6159 8.28576 4.57127 8.18497 4.53743 8.0885C4.52807 8.05755 4.52519 8.02371 4.51079 7.99347C4.46976 7.90276 4.44384 7.79549 4.40208 7.70262C4.38049 7.65295 4.34737 7.60327 4.32721 7.55144C4.29553 7.46001 4.30489 7.34194 4.26962 7.25195C4.22354 7.12092 4.16595 6.9791 4.11915 6.84735C4.08892 6.77176 4.08604 6.69833 4.05868 6.62129C4.02844 6.5349 3.99389 6.43771 3.96293 6.35132C3.93053 6.25845 3.93269 6.16414 3.9003 6.06767C3.87942 5.99568 3.84918 5.92224 3.82614 5.85457C3.77791 5.72786 3.76135 5.59324 3.71455 5.47229C3.70591 5.45141 3.698 5.42838 3.68936 5.4075C3.6764 5.3751 3.65768 5.34198 3.62168 5.3535C3.58641 5.36214 3.58641 5.40894 3.58785 5.44133C3.59649 5.53636 3.6296 5.62132 3.65768 5.69835C3.68792 5.7761 3.70232 5.86393 3.72535 5.94024C3.73543 5.98848 3.73327 6.04247 3.74839 6.09503C3.76423 6.17134 3.79015 6.24333 3.81102 6.31604C3.82902 6.38804 3.81966 6.46075 3.83694 6.5169C3.88374 6.67745 3.93773 6.85599 3.99173 7.00645C4.01332 7.08493 4.01764 7.17636 4.0414 7.24475C4.06876 7.32466 4.10043 7.40673 4.12851 7.4888C4.15299 7.55576 4.16019 7.62055 4.18899 7.6839C4.2185 7.75158 4.2509 7.82141 4.2761 7.89772C4.30777 7.99635 4.30489 8.09282 4.33729 8.18713C4.39272 8.33688 4.46184 8.48014 4.51439 8.62413C4.53239 8.67668 4.53743 8.73356 4.55471 8.78755C4.60006 8.91426 4.63174 9.04961 4.67854 9.17199C4.74333 9.35269 4.82756 9.53052 4.89235 9.70618C4.95571 9.88184 4.96291 10.0921 5.03778 10.2548C5.07522 10.3354 5.15225 10.3851 5.18752 10.4621C5.21272 10.5132 5.20624 10.5715 5.22352 10.6298C5.24368 10.6975 5.27751 10.7652 5.29911 10.8278C5.31423 10.8847 5.32935 10.9394 5.34591 10.9941C5.36823 11.0611 5.41502 11.1273 5.44598 11.1921C5.49493 11.2965 5.51653 11.4059 5.577 11.4974C5.62092 11.5679 5.67851 11.6356 5.71739 11.7126C5.75843 11.7997 5.77282 11.8919 5.8117 11.984C5.87073 12.1165 5.94273 12.2432 5.9924 12.3814C6.04064 12.5081 6.05575 12.6428 6.11767 12.7536C6.1767 12.8623 6.25158 12.961 6.31133 13.0704C6.34877 13.1532 6.38692 13.2331 6.42292 13.313C6.45531 13.3785 6.51435 13.4361 6.5525 13.5067C6.59786 13.5895 6.6425 13.6759 6.67993 13.7586C6.71017 13.8242 6.72169 13.8832 6.75696 13.9393C6.81024 14.0257 6.85127 14.0934 6.90743 14.1791C6.95494 14.2554 7.0111 14.3511 7.04493 14.444C7.07085 14.511 7.09965 14.5822 7.13636 14.6391C7.17812 14.6974 7.23355 14.7493 7.27099 14.8141C7.30483 14.8774 7.35522 15.0811 7.33722 15.0912C7.29115 15.1071 7.16516 14.9876 7.13133 14.9429C7.03054 14.8256 6.98374 14.6629 6.89303 14.534C6.79728 14.3965 6.73465 14.318 6.65977 14.1582C6.61514 14.0675 6.54027 13.9041 6.48699 13.8213C6.43588 13.7471 6.36964 13.6759 6.32933 13.5895C6.29981 13.5196 6.28253 13.4332 6.25302 13.3656C6.2055 13.2626 6.10615 13.1964 6.05863 13.092C6.0032 12.9739 5.978 12.8551 5.91969 12.7457C5.89089 12.691 5.85418 12.6312 5.82826 12.5772C5.79442 12.5074 5.77714 12.4405 5.74403 12.3699C5.67851 12.2288 5.57772 12.1064 5.51221 11.9646C5.44382 11.8177 5.40566 11.6601 5.33511 11.5132C5.29695 11.434 5.23288 11.3678 5.194 11.2864C5.14505 11.1806 5.11985 11.0704 5.06946 10.9646C5.03922 10.8984 4.99314 10.8365 4.96291 10.7717C4.92043 10.6802 4.90459 10.5794 4.8614 10.4837C4.76349 10.267 4.6627 10.0417 4.56839 9.82497C4.53239 9.74145 4.52303 9.65506 4.48416 9.57083C4.44744 9.49668 4.41 9.42397 4.37257 9.35053C4.2905 9.15903 4.25954 8.93802 4.17387 8.74436C4.12995 8.64573 4.07596 8.55286 4.03492 8.45063C3.97589 8.28576 3.95069 8.11442 3.89022 7.94524C3.79951 7.68966 3.72535 7.42113 3.63392 7.16628C3.60729 7.08925 3.60297 7.01437 3.57417 6.93518C3.54681 6.86031 3.51801 6.78688 3.49066 6.71128C3.47194 6.65009 3.4597 6.5637 3.44458 6.48523C3.37547 6.26781 3.30492 6.05183 3.23652 5.83081C3.2214 5.78114 3.2178 5.68611 3.20197 5.61988C3.18829 5.58172 3.16813 5.53852 3.15661 5.50253C3.13717 5.45213 3.13717 5.40966 3.12349 5.35854C3.07238 5.19944 3.02702 5.01514 2.97807 4.85603C2.96367 4.80636 2.95863 4.73437 2.94351 4.67749C2.87152 4.45144 2.83696 4.17354 2.74625 3.96332C2.73113 3.92301 2.70306 3.87765 2.6649 3.89061C2.62243 3.89853 2.63106 3.94605 2.63754 3.98276C2.64762 4.08715 2.68578 4.17426 2.70306 4.26065C2.70954 4.30097 2.70954 4.35352 2.71386 4.3996C2.7189 4.43776 2.72394 4.48599 2.73617 4.52559C2.77721 4.66093 2.8276 4.81932 2.86504 4.9525C2.87944 5.01658 2.8672 5.11665 2.88448 5.18936C2.94351 5.40462 2.98527 5.65947 3.06518 5.85457C3.13501 6.03023 3.14797 6.24045 3.19837 6.43123C3.21565 6.51402 3.21996 6.59682 3.2322 6.68033C3.24444 6.76024 3.28908 6.81423 3.31283 6.88263C3.33155 6.93086 3.33011 6.97406 3.34739 7.02589C3.39059 7.16268 3.42154 7.29802 3.4705 7.43625C3.50578 7.53128 3.55761 7.62199 3.59001 7.71342C3.60585 7.75518 3.59865 7.79261 3.6116 7.83941C3.63392 7.93444 3.65048 8.03019 3.67712 8.12378C3.74479 8.31096 3.81102 8.51398 3.87798 8.70188C3.91541 8.80555 3.92621 8.90562 3.96293 9.00713C4.11051 9.41173 4.26242 9.81345 4.40856 10.2152C4.4316 10.303 4.4568 10.3944 4.47984 10.4808C4.51367 10.5715 4.56839 10.6478 4.60438 10.7299C4.6519 10.8343 4.66774 10.943 4.70805 11.0524C4.75485 11.1827 4.81388 11.2821 4.86428 11.4189C4.88803 11.4808 4.91035 11.5513 4.93987 11.6147C4.96291 11.6601 5.00394 11.7054 5.02554 11.7529C5.06658 11.8328 5.07234 11.9315 5.10977 12.0121C5.14865 12.092 5.21632 12.159 5.2624 12.2331C5.30415 12.3022 5.30919 12.3915 5.34519 12.47C5.40062 12.5924 5.47117 12.704 5.52517 12.8335C5.54749 12.8883 5.55757 12.9386 5.58204 12.9905C5.60868 13.0488 5.65476 13.1071 5.68211 13.1697C5.68355 13.1697 5.68355 13.1705 5.68715 13.1762C5.69075 13.1849 5.69363 13.1964 5.69579 13.2101C5.70227 13.2345 5.71235 13.2662 5.72027 13.2885C5.73179 13.3224 5.77066 13.3857 5.78578 13.4073C5.79514 13.421 5.8261 13.4527 5.8477 13.4822C5.85922 13.4916 5.86929 13.5067 5.87865 13.5211C5.93193 13.6053 5.93697 13.7219 5.98016 13.8148C6.02264 13.9048 6.09967 13.9761 6.14503 14.0704C6.17886 14.1402 6.1983 14.3166 6.15295 14.3238C5.97152 14.3231 5.95856 14.0689 5.89737 13.9357C5.84914 13.8321 5.77498 13.7471 5.72027 13.6456C5.70875 13.6255 5.69219 13.5866 5.67851 13.5448C5.66843 13.511 5.65332 13.4714 5.6382 13.4433C5.61588 13.3944 5.61588 13.4016 5.59932 13.3677C5.58276 13.3324 5.53165 13.2677 5.51509 13.2381C5.51437 13.2374 5.51437 13.2345 5.51221 13.2331C5.44598 13.1201 5.39774 12.961 5.34807 12.8847C5.32071 12.8422 5.28471 12.8004 5.25736 12.7572C5.21128 12.6845 5.18752 12.5996 5.15081 12.5204C5.11769 12.4491 5.06082 12.3771 5.02842 12.3001C4.9881 12.2101 4.98522 12.0963 4.94275 12.0071C4.92187 11.9588 4.88084 11.9092 4.85636 11.8624C4.80596 11.7572 4.77645 11.6464 4.72533 11.5427C4.70013 11.4945 4.65622 11.4484 4.6339 11.398C4.59286 11.3131 4.57127 11.2187 4.52807 11.1388C4.42944 10.9675 4.32721 10.776 4.24946 10.5946C4.20338 10.4887 4.18539 10.3793 4.14003 10.2771C4.10043 10.1871 4.04428 10.0971 4.00324 10.0107C3.97589 9.95455 3.96797 9.89624 3.94493 9.83145C3.90749 9.72994 3.86142 9.62555 3.82614 9.52692C3.80239 9.4542 3.78439 9.3023 3.76423 9.24327C3.73471 9.16695 3.69656 9.08344 3.66416 9.00857C3.61304 8.8977 3.59721 8.78251 3.54825 8.6702C3.51009 8.58381 3.46618 8.49238 3.43522 8.40455C3.40643 8.32968 3.39851 8.25985 3.36899 8.18929C3.34523 8.13674 3.31428 8.0777 3.29484 8.02299C3.27108 7.95604 3.2538 7.84877 3.23436 7.76166C3.20197 7.66591 3.16093 7.57592 3.13069 7.48089C3.11558 7.40889 3.11198 7.24691 3.09542 7.20299C2.99391 6.90926 2.9032 6.59394 2.80817 6.30165C2.76569 6.16558 2.74625 6.03023 2.70738 5.89849C2.69586 5.84377 2.69442 5.7761 2.67858 5.72355C2.65122 5.63931 2.61667 5.55148 2.58787 5.46437C2.57491 5.40462 2.56555 5.34486 2.55475 5.28511C2.54035 5.22392 2.50796 5.16272 2.48492 5.10153C2.42877 4.92371 2.39781 4.73653 2.34669 4.56446C2.32582 4.49103 2.32726 4.39816 2.30782 4.33337C2.24086 4.11811 2.22431 3.87045 2.16167 3.64656C2.14871 3.5796 2.13864 3.51553 2.12352 3.45578C2.01121 3.03534 1.96297 2.56595 1.83987 2.16207C1.81611 2.08576 1.84634 1.98425 1.82763 1.90362C1.80171 1.8093 1.77723 1.72579 1.74844 1.64228C1.73836 1.59981 1.73548 1.56669 1.72756 1.52709C1.70668 1.45942 1.675 1.40543 1.63901 1.41335C1.59365 1.42774 1.60373 1.46806 1.60517 1.52637C1.60949 1.61924 1.61885 1.69772 1.63757 1.77187C1.65412 1.83738 1.64333 1.89066 1.66204 1.94681C1.7002 2.07928 1.71172 2.26214 1.73404 2.38165C1.74052 2.42916 1.73548 2.49539 1.74556 2.55371C1.75707 2.61274 1.80459 2.69193 1.81539 2.75601C1.82979 2.84312 1.82763 2.95543 1.84131 3.05118C1.86074 3.12821 1.88306 3.2038 1.9025 3.27939C1.92122 3.34491 1.90754 3.40538 1.92698 3.46514C1.94569 3.52705 1.97881 3.58824 1.99177 3.65376C2.00113 3.72935 1.99105 3.83806 2.00473 3.90357C2.1012 4.27361 2.12712 4.70989 2.23583 5.06193C2.25022 5.11305 2.25094 5.16848 2.2639 5.22032C2.35245 5.5306 2.42229 5.86105 2.51516 6.16702C2.52812 6.21453 2.52596 6.26421 2.53747 6.31676C2.56915 6.42403 2.59579 6.54066 2.61955 6.65009C2.62962 6.70264 2.62962 6.74656 2.64258 6.79552C2.6757 6.90926 2.71386 7.01725 2.75057 7.131C2.76425 7.18644 2.77145 7.23971 2.78009 7.29298C2.78873 7.33402 2.81177 7.3837 2.824 7.42545C2.84416 7.4888 2.83768 7.55144 2.85856 7.61047C2.87296 7.64359 2.8996 7.68247 2.90968 7.71918C2.92192 7.78685 2.93199 7.85237 2.94999 7.91716C2.97663 7.99419 3.01911 8.07051 3.05006 8.14682C3.07382 8.21161 3.07382 8.2764 3.09758 8.33904C3.14077 8.44631 3.18829 8.57373 3.2322 8.69108C3.26748 8.78611 3.27108 8.8833 3.30492 8.97833C3.32867 9.04241 3.35819 9.10864 3.38051 9.17127C3.39419 9.21951 3.40139 9.26846 3.42154 9.32102C3.43522 9.36637 3.48634 9.43909 3.51801 9.50028C3.54681 9.56723 3.53385 9.65794 3.55617 9.72994C3.57633 9.80481 3.61808 9.86384 3.64328 9.93151C3.66776 10.0013 3.66776 10.0769 3.68432 10.1446C3.70448 10.1993 3.74335 10.2519 3.76423 10.303C3.78583 10.362 3.80958 10.4232 3.82902 10.4823C3.8463 10.519 3.87942 10.5593 3.8967 10.5974C3.93053 10.6658 3.95717 10.7407 3.98525 10.8113C4.02556 10.9113 4.02844 11.0352 4.0594 11.1511C4.06876 11.1849 4.06732 11.2648 4.04644 11.272C4.00037 11.2814 3.94709 11.2079 3.91685 11.1619C3.86142 11.0841 3.81102 10.9992 3.76999 10.907C3.75559 10.8717 3.74839 10.8379 3.73543 10.8033C3.70591 10.7285 3.68144 10.6385 3.64688 10.5607C3.626 10.5132 3.59649 10.4614 3.57777 10.411C3.55473 10.3368 3.56553 10.2504 3.53601 10.1871C3.51225 10.1324 3.46762 10.0885 3.44458 10.0352C3.42658 9.98551 3.41938 9.93511 3.39707 9.88616C3.36899 9.82497 3.33443 9.77313 3.3006 9.71554C3.27612 9.66154 3.279 9.60683 3.26244 9.54348C3.23868 9.46716 3.21708 9.39157 3.18325 9.32318C3.15229 9.25334 3.11054 9.18279 3.07958 9.11008C3.06518 9.06976 3.05654 9.02873 3.04574 8.98985C3.0263 8.93442 2.99967 8.8761 2.97663 8.82139C2.96583 8.78179 2.95431 8.7386 2.93703 8.69972C2.91256 8.64069 2.87944 8.57301 2.85712 8.50894C2.83696 8.45711 2.83336 8.39951 2.81465 8.34768C2.78225 8.25265 2.75057 8.1497 2.7189 8.05899C2.69802 7.98699 2.69298 7.91716 2.6721 7.84445C2.64546 7.76166 2.60947 7.67887 2.57779 7.59679C2.55475 7.53056 2.54827 7.45785 2.52956 7.38874C2.49788 7.29946 2.45252 7.21811 2.42229 7.12236C2.40357 7.04965 2.40213 6.97406 2.38413 6.90278C2.33302 6.73072 2.2783 6.53778 2.22215 6.35924C2.16095 6.16342 2.15591 5.93664 2.09832 5.73794C2.05656 5.59396 2.00473 5.45501 1.96153 5.31535C1.94569 5.24191 1.94353 5.1728 1.92626 5.10225C1.88594 4.94386 1.82763 4.73653 1.77435 4.57022C1.74844 4.48383 1.75563 4.39384 1.73044 4.30097C1.70524 4.20594 1.70308 4.09363 1.67212 3.99212C1.65484 3.93165 1.62965 3.88701 1.61669 3.80854C1.60013 3.72935 1.60157 3.6372 1.59077 3.57744C1.57853 3.51913 1.47702 3.16853 1.46478 3.10517C1.45255 3.03966 1.45255 2.92087 1.44751 2.87768C1.44031 2.84888 1.38631 2.69769 1.38055 2.66026C1.37407 2.62138 1.37407 2.57459 1.35679 2.49827C1.34312 2.4198 1.29632 2.24774 1.28984 2.19735C1.2812 2.14695 1.2812 2.04544 1.26968 1.99649C1.2596 1.94681 1.22793 1.8309 1.20417 1.74739C1.17753 1.64948 1.19913 1.54221 1.17177 1.44718C1.15162 1.37663 1.12642 1.30968 1.10122 1.24416C1.08538 1.18657 1.06522 1.10738 1.06091 1.07282C1.05731 1.01739 1.05371 0.907957 1.05155 0.868361C1.05083 0.810767 1.02419 0.717176 1.01987 0.634385C1.01123 0.523516 0.989632 0.404728 0.970914 0.334175C0.960835 0.29242 0.964435 0.244905 0.955076 0.206748C0.928439 0.0951599 0.900362 -0.00634974 0.844927 0.000849525C0.803891 0.00876872 0.788053 0.0404455 0.806771 0.113878C0.827649 0.199549 0.834128 0.266502 0.857886 0.352894C0.867245 0.396089 0.870125 0.508398 0.870125 0.546554C0.875164 0.607748 0.878044 0.621426 0.884523 0.68046C0.888843 0.702058 0.898922 0.756772 0.906121 0.78269C0.91332 0.820846 0.928439 0.877 0.925559 0.905077C0.924119 0.945393 0.922679 0.984989 0.922679 1.04186C0.922679 1.0721 0.925559 1.08074 0.935638 1.12897C0.949317 1.17793 0.954356 1.19017 0.957956 1.22904C0.959396 1.2636 0.955076 1.29888 0.957956 1.32983C0.959396 1.36799 0.964435 1.40543 0.974514 1.4407C0.996832 1.51485 1.04363 1.61348 1.02419 1.72291C1.00475 1.83882 1.03787 1.94681 1.06522 2.04544C1.07602 2.11095 1.06522 2.18223 1.07602 2.24414C1.09906 2.32909 1.12066 2.41836 1.1437 2.50979C1.16241 2.58107 1.14802 2.64586 1.16889 2.71641C1.19481 2.81288 1.26176 2.94463 1.26968 2.98782C1.27832 3.0303 1.27832 3.14837 1.29128 3.22324C1.30208 3.29811 1.3208 3.3845 1.32584 3.4313C1.3316 3.48097 1.32512 3.49969 1.32944 3.53641C1.33448 3.57096 1.38271 3.73943 1.38991 3.7819C1.39855 3.82654 1.39711 3.85102 1.40503 3.89493C1.41439 3.94173 1.45255 4.12171 1.45974 4.18146C1.46982 4.2405 1.46694 4.27505 1.47774 4.33337C1.49574 4.42336 1.53246 4.49823 1.54974 4.58462C1.56197 4.64941 1.55909 4.69117 1.56629 4.74157C1.58501 4.8222 1.61237 4.89491 1.62677 4.97194C1.63901 5.03242 1.63901 5.09145 1.65124 5.15264C1.67716 5.28151 1.69804 5.41398 1.7326 5.54428C1.75491 5.61988 1.79955 5.69043 1.82115 5.76242C1.83987 5.83081 1.84491 5.90497 1.86578 5.97264C1.88234 6.03023 1.92266 6.08351 1.9385 6.14398C1.94641 6.19798 1.94569 6.25197 1.95433 6.30668C1.96801 6.36716 1.99609 6.42979 2.00689 6.49243C2.01769 6.5385 2.01337 6.5853 2.02561 6.63497C2.04288 6.69041 2.0688 6.73792 2.08248 6.78976C2.09544 6.85959 2.09544 6.92438 2.11056 6.99422C2.13216 7.07053 2.16311 7.14612 2.18975 7.21883C2.21135 7.28435 2.19911 7.3585 2.21927 7.43265C2.2639 7.59103 2.3179 7.76382 2.36901 7.9114C2.39205 7.99347 2.38557 8.07339 2.41725 8.15978C2.4374 8.21665 2.46404 8.25553 2.48492 8.3052C2.50436 8.35704 2.48708 8.41247 2.50364 8.47078C2.52812 8.56725 2.54251 8.69468 2.57779 8.78899C2.61595 8.8941 2.67714 8.98121 2.71386 9.08344C2.75057 9.19287 2.75273 9.29942 2.78873 9.41245C2.82401 9.50892 2.87296 9.59675 2.90968 9.68458C2.93919 9.76161 2.92767 9.86384 2.95863 9.94519C2.99103 10.033 3.05294 10.1021 3.08678 10.1928C3.12781 10.2965 3.15229 10.4016 3.18325 10.5053C3.19333 10.5499 3.20341 10.5931 3.21205 10.6385C3.24948 10.7738 3.32291 10.8869 3.36899 11.0136C3.38915 11.074 3.39347 11.1244 3.40931 11.1806C3.44098 11.2727 3.48058 11.3692 3.52377 11.4578C3.56049 11.5384 3.6116 11.6154 3.64688 11.6968C3.67928 11.7695 3.68576 11.8429 3.71815 11.9214C3.74839 11.9948 3.78295 12.0769 3.81102 12.1525C3.82902 12.1993 3.83118 12.2418 3.85134 12.2857C3.94205 12.4909 4.05508 12.6982 4.15083 12.8976C4.2005 13.0092 4.22354 13.1273 4.2761 13.241C4.31785 13.3274 4.36825 13.4116 4.4064 13.5067C4.43088 13.5643 4.4388 13.6219 4.464 13.678C4.51583 13.7896 4.58782 13.9005 4.63678 14.0099C4.64902 14.0365 4.68933 14.1539 4.67278 14.1985C4.67062 14.205 4.67062 14.2122 4.66126 14.2165C4.62886 14.2259 4.55903 14.1668 4.52087 14.128C4.38913 14.0013 4.36825 13.7579 4.2761 13.5909C4.2509 13.5448 4.2185 13.4908 4.19762 13.4412C4.18323 13.4052 4.17747 13.372 4.15803 13.3368C4.10187 13.2302 4.03132 13.1316 3.98093 13.0178C3.94277 12.9372 3.93773 12.8422 3.90246 12.7651C3.75487 12.4419 3.58137 12.1323 3.4381 11.8084C3.37187 11.6615 3.35819 11.4952 3.3006 11.3354C3.26604 11.2411 3.20845 11.1633 3.16957 11.0755C3.13717 11.0049 3.12997 10.9337 3.0983 10.8617C3.05654 10.7709 2.99967 10.6846 2.96295 10.583C2.94063 10.519 2.93199 10.4549 2.90824 10.3915C2.878 10.3196 2.83048 10.2591 2.79881 10.1914C2.75345 10.0885 2.74769 9.98983 2.71386 9.87248C2.69586 9.80913 2.67066 9.74577 2.64906 9.6889C2.63466 9.63491 2.62531 9.57803 2.60947 9.52908C2.56483 9.40525 2.49212 9.2987 2.44532 9.17199C2.41509 9.08992 2.42229 8.98337 2.38413 8.90202C2.35605 8.83723 2.30206 8.78251 2.2747 8.71196C2.2459 8.63709 2.27254 8.54998 2.25022 8.46286C2.22647 8.38151 2.19479 8.3052 2.16599 8.22673C2.15159 8.17705 2.14799 8.12954 2.1336 8.08274C2.0976 7.98195 2.05944 7.88188 2.02345 7.78325C2.00473 7.7307 2.00473 7.6839 1.98385 7.63927C1.95577 7.5788 1.91402 7.52192 1.89098 7.45929C1.8665 7.36066 1.85858 7.25915 1.83411 7.16412C1.79595 7.03669 1.74844 6.93302 1.71172 6.81063C1.70308 6.77176 1.70308 6.73432 1.693 6.69113C1.66276 6.58098 1.64765 6.45931 1.61669 6.35132C1.60517 6.29733 1.60877 6.25197 1.59365 6.19942C1.56341 6.09647 1.52814 5.99208 1.4979 5.89489C1.48134 5.83009 1.47774 5.76386 1.4619 5.70411C1.41151 5.54212 1.36543 5.35134 1.3172 5.19656C1.30496 5.14904 1.30856 5.10801 1.2956 5.05761C1.25817 4.93379 1.20561 4.78548 1.17825 4.65805C1.16313 4.58246 1.16241 4.51407 1.14802 4.44424C1.12858 4.35784 1.09762 4.27577 1.08106 4.19082C1.07602 4.14907 1.08106 4.11883 1.07602 4.08715C1.07026 4.031 1.06522 3.97772 1.05587 3.92013C0.999711 3.69695 0.9126 3.42194 0.862206 3.19804C0.848527 3.11741 0.844927 3.03534 0.837728 2.95471C0.827649 2.89999 0.824049 2.83448 0.806771 2.77689C0.788773 2.71857 0.763576 2.6581 0.754216 2.5969C0.741258 2.50115 0.741258 2.40612 0.727579 2.31325C0.727579 2.30749 0.7247 2.30173 0.72326 2.2931C0.702382 2.17791 0.645508 1.94465 0.631829 1.8525C0.616711 1.74163 0.604472 1.6286 0.589353 1.51989C0.589353 1.44718 0.576395 1.37303 0.566316 1.29888C0.549037 1.18153 0.52384 1.08146 0.509442 0.959792C0.502242 0.882039 0.505122 0.810767 0.495043 0.743094C0.490003 0.702058 0.487844 0.629345 0.434569 0.629345C0.381295 0.629345 0.389214 0.689819 0.384894 0.739494C0.378415 0.859002 0.402172 1.01595 0.410812 1.09082C0.42809 1.22688 0.414411 1.36223 0.42881 1.5019C0.439609 1.58037 0.462646 1.6574 0.473445 1.73227C0.490723 1.86474 0.504402 1.99793 0.52168 2.12391V2.13111C0.52816 2.19159 0.533919 2.24918 0.544718 2.30461C0.544718 2.31181 0.546158 2.31685 0.546878 2.32189C0.546878 2.32621 0.548318 2.32909 0.549037 2.33125C0.549037 2.33413 0.549037 2.33629 0.550477 2.33917L0.551197 2.34133C0.555517 2.36725 0.562716 2.39245 0.570635 2.41836C0.584314 2.46876 0.579274 2.51051 0.591513 2.56163C0.633989 2.71425 0.62535 2.88056 0.667105 3.02814C0.727579 3.24988 0.759256 3.49753 0.82117 3.71423C0.839888 3.77974 0.82117 3.8431 0.841328 3.91293C0.859326 3.98276 0.878044 4.05044 0.894602 4.11883C0.91116 4.20162 0.898922 4.28945 0.92052 4.37224C0.940677 4.45144 0.964435 4.52991 0.984593 4.60406C1.00979 4.69621 1.01123 4.78836 1.03499 4.88843C1.06522 4.98418 1.09762 5.09289 1.11634 5.19368C1.13578 5.30743 1.14586 5.43701 1.16889 5.55724C1.18689 5.65659 1.24161 5.7761 1.2668 5.88697C1.27256 5.92224 1.26968 5.95896 1.27472 5.99568C1.29128 6.07487 1.3136 6.15046 1.33016 6.22677C1.3388 6.26061 1.3352 6.29157 1.34672 6.32972C1.38271 6.47299 1.42663 6.65369 1.4727 6.79696C1.4835 6.83727 1.48926 6.87759 1.4979 6.92006C1.52742 7.02085 1.55909 7.09573 1.56917 7.15044C1.57853 7.19795 1.58357 7.25483 1.59725 7.30738C1.61885 7.3837 1.64261 7.45209 1.65628 7.51976C1.66924 7.57376 1.67716 7.62199 1.69156 7.67455C1.70956 7.74006 1.73548 7.79765 1.76211 7.86029C1.80603 7.98987 1.80963 8.1281 1.85642 8.25265C1.8845 8.32752 1.91762 8.40095 1.94354 8.48014C1.96297 8.55214 1.96801 8.64069 1.99177 8.72132C2.03425 8.84659 2.08248 8.98985 2.12712 9.11296C2.18111 9.2627 2.21351 9.42469 2.2639 9.56507C2.2855 9.62123 2.28046 9.67666 2.30062 9.73785C2.34165 9.87608 2.38845 10.0352 2.43524 10.1784C2.45972 10.2519 2.45972 10.3246 2.48996 10.398C2.53603 10.5139 2.60587 10.6147 2.65122 10.7364C2.68938 10.8422 2.6973 10.9473 2.73689 11.0438C2.78873 11.1741 2.84992 11.3059 2.8996 11.4419C2.93415 11.5384 2.94567 11.6313 2.98455 11.7198C3.01911 11.7961 3.06374 11.8739 3.09758 11.9516C3.12061 12.0207 3.14293 12.0848 3.16597 12.1525C3.18397 12.205 3.24012 12.2936 3.27828 12.3613C3.32003 12.4563 3.32651 12.5556 3.36251 12.6557C3.41938 12.8091 3.49138 12.9638 3.55761 13.1071C3.58209 13.1611 3.58641 13.2137 3.60873 13.2749C3.64688 13.3756 3.71455 13.4527 3.75559 13.5463C3.79519 13.6377 3.80958 13.7313 3.8463 13.8177C3.90533 13.9458 3.94709 14.0113 3.94709 14.1928C3.94709 14.21 3.94205 14.2216 3.92405 14.2288C3.89022 14.241 3.85134 14.1834 3.82902 14.1632C3.73183 14.0704 3.71815 13.9775 3.65768 13.845C3.56337 13.6456 3.44746 13.4577 3.35531 13.2619C3.3078 13.1597 3.28764 13.0488 3.24012 12.943C3.21205 12.8796 3.16957 12.8155 3.14005 12.7522C3.09758 12.66 3.0767 12.5636 3.02918 12.4815C2.96295 12.3605 2.90824 12.2173 2.85424 12.0812C2.83192 12.0308 2.83048 11.9811 2.80673 11.9315C2.78297 11.8768 2.74625 11.8328 2.72178 11.7803C2.68794 11.6982 2.6649 11.596 2.63106 11.5096C2.55835 11.3476 2.47484 11.1784 2.41149 11.0049C2.35461 10.848 2.32582 10.699 2.26966 10.5391C2.2459 10.4722 2.21495 10.4023 2.19263 10.3354C2.17319 10.2771 2.17103 10.2231 2.15303 10.1698C2.1012 10.0265 2.03209 9.87248 1.97017 9.7357C1.94066 9.66658 1.93346 9.60107 1.90682 9.52908C1.8737 9.43909 1.83555 9.34334 1.80459 9.25622C1.76211 9.14176 1.75995 9.00713 1.71604 8.88762C1.62245 8.62629 1.50366 8.35704 1.42159 8.08346C1.40719 8.02155 1.41151 7.95604 1.39423 7.89268C1.35104 7.75734 1.30496 7.60543 1.26392 7.45929C1.21713 7.29802 1.22073 7.12668 1.17177 6.97046C1.10698 6.76384 1.03427 6.55146 0.970914 6.35132C0.952196 6.29085 0.960835 6.22461 0.940677 6.16054C0.898922 6.0036 0.844927 5.82074 0.791653 5.67531C0.764295 5.6026 0.764295 5.52341 0.738378 5.45501C0.705261 5.37438 0.62175 5.40174 0.630389 5.49605C0.637588 5.581 0.665666 5.68827 0.673585 5.7329C0.682224 5.79122 0.682224 5.84881 0.696622 5.91145C0.72182 6.02087 0.757096 6.11087 0.787333 6.2095C0.81901 6.3146 0.81901 6.41036 0.849247 6.5169C0.865085 6.56946 0.886683 6.62777 0.903961 6.67889C0.934918 6.78472 0.934918 6.89775 0.968035 6.99494C0.999711 7.06837 1.01915 7.16268 1.04219 7.24475C1.05731 7.29802 1.05587 7.34194 1.07242 7.39449C1.10122 7.49168 1.13146 7.58671 1.16169 7.6839C1.17753 7.7379 1.17177 7.78829 1.18401 7.83869C1.20417 7.91572 1.22217 7.99419 1.24449 8.06475C1.26392 8.13386 1.26176 8.22673 1.28768 8.3016C1.32872 8.43335 1.37623 8.57301 1.42159 8.69972C1.47054 8.83867 1.47774 8.98337 1.52814 9.12664C1.61885 9.37717 1.70308 9.66586 1.79163 9.91856C1.81539 9.98191 1.80819 10.0489 1.82907 10.1209C1.85858 10.2296 1.88234 10.3354 1.92122 10.4448C1.9385 10.4945 1.97233 10.5471 1.99393 10.5931C2.02273 10.6558 2.02921 10.7234 2.05728 10.7861C2.08104 10.8365 2.112 10.8883 2.1336 10.9409C2.16167 11.0208 2.15303 11.1201 2.18255 11.195C2.20703 11.2569 2.24086 11.3224 2.2639 11.385C2.28838 11.4549 2.28838 11.5305 2.3179 11.5938C2.34237 11.6514 2.38125 11.7054 2.40861 11.7608C2.43524 11.8134 2.43956 11.8703 2.46116 11.93C2.48204 11.9905 2.51876 12.0517 2.54107 12.1086C2.57059 12.1712 2.57203 12.2432 2.60083 12.3102C2.62603 12.3677 2.6649 12.4232 2.68938 12.4837C2.70954 12.5492 2.71242 12.6183 2.73617 12.6845C2.77289 12.7831 2.83552 12.871 2.878 12.9638C2.90968 13.033 2.91256 13.1107 2.94351 13.1827C2.97807 13.2662 3.02918 13.3461 3.06806 13.4268C3.11558 13.5347 3.15229 13.6471 3.19837 13.75C3.279 13.9314 3.3078 14.1316 3.39203 14.3101C3.4525 14.444 3.53601 14.5678 3.59289 14.6974C3.626 14.7709 3.63824 14.8465 3.67136 14.9177C3.70879 14.9955 3.77575 15.0632 3.81102 15.1438C3.8391 15.2215 3.86142 15.3043 3.89526 15.3806C3.94205 15.4814 4.00828 15.5714 4.05436 15.6693C4.081 15.7262 4.09252 15.7809 4.11843 15.8364C4.16883 15.9465 4.2509 16.0379 4.30129 16.1452C4.32721 16.215 4.35241 16.2863 4.37761 16.359C4.4316 16.4728 4.51871 16.5714 4.57487 16.688C4.61518 16.7744 4.64182 16.8644 4.69365 16.9422C4.77141 17.0645 4.82252 17.1473 4.89811 17.2704C4.94923 17.3504 5.01402 17.4684 5.05434 17.5563C5.09465 17.6412 5.16089 17.7146 5.2012 17.7996C5.2408 17.8831 5.29119 17.9738 5.33799 18.0523C5.38838 18.1408 5.43878 18.2071 5.49493 18.2906C5.58636 18.4302 5.64252 18.5742 5.73179 18.7139C5.79442 18.8118 5.86569 18.9112 5.93553 19.0033C6.11767 19.2546 6.3754 19.7002 6.48843 19.8514C6.58202 19.9709 6.65761 20.1185 6.744 20.243C6.80736 20.3431 6.89159 20.4424 6.96214 20.5332C7.02046 20.6087 7.06797 20.6901 7.12341 20.7714L7.1702 20.8305C9.5006 23.7951 11.898 25.7577 13.926 27.0413V27.0434C14.9944 27.7108 15.5689 27.9059 15.5689 27.9059C15.7064 27.9614 15.6128 28.0607 15.5458 28.1039L3.51513 35.7978C3.47698 35.8229 3.38411 35.8899 3.42154 35.9669C3.44962 36.0224 3.57129 35.9921 3.60585 35.9799C13.2586 32.5934 20.2635 29.8072 24.5463 27.7742C28.8882 25.7145 30.3454 24.5345 30.1863 23.9485Z" fill="url(#paint0_linear_185_3332)"/>
<g id="Fill 4">
<path fill-rule="evenodd" clip-rule="evenodd" d="M161.977 20.2672V19.5797H162.815C163.842 19.5797 164.903 19.5797 165.54 19.7892C167.225 20.2881 168.076 21.571 168.076 23.5889C168.076 25.2383 167.026 27.6911 164.125 27.6911C163.288 27.6911 162.412 27.3585 161.977 27.1569V20.2672ZM165.368 29.401C169.304 29.401 171.65 26.4198 171.65 23.5466C171.65 21.957 171.063 19.1226 167.085 18.1212C166.198 17.893 165.206 17.8807 163.911 17.8807L156.914 17.8728L157.03 17.9887C157.03 17.9887 158.226 18.1658 158.226 20.2666V33.3296C158.226 35.4289 157.03 35.6046 157.03 35.6046L156.914 35.7292H163.284L163.165 35.6046C163.165 35.6046 161.978 35.4289 161.978 33.3296V28.7768C162.533 29.0238 163.655 29.401 165.368 29.401ZM258.289 30.1832L256.884 34.9649C256.884 34.9649 253.847 36.0002 251.239 36.0002C244.315 36.0002 240.959 31.2422 240.959 26.9349C240.959 21.5786 245.028 17.5895 251.498 17.5895C255.076 17.5895 257.603 18.8242 257.603 18.8242V22.6815L257.501 22.598C257.501 22.598 255.989 19.326 251.785 19.326C247.732 19.326 245.158 22.3273 245.158 26.9111C245.158 31.4999 247.811 34.0132 251.64 34.0132C255.871 34.0132 258.132 30.284 258.132 30.284L258.289 30.1832ZM213.3 20.2666V33.3296C213.3 35.4289 214.498 35.6046 214.498 35.6046L214.619 35.7292H208.239L208.362 35.6046C208.362 35.6046 209.55 35.4289 209.55 33.3296V20.2666C209.55 18.1658 208.362 17.9887 208.362 17.9887L208.239 17.8728H214.619L214.498 17.9887C214.498 17.9887 213.3 18.1658 213.3 20.2666ZM228.205 17.8733C230.309 17.8733 230.612 17.6717 230.612 17.6717V20.8596L230.491 20.7631C230.491 20.7631 229.615 19.5565 227.512 19.5565H222.99V25.2627H226.75C228.851 25.2627 229.028 24.3447 229.028 24.3447L229.152 24.2209V28.0574L229.028 27.9336C229.028 27.9336 228.851 27.0099 226.75 27.0099H222.99V33.3251V33.3301C222.99 35.4295 224.177 35.6051 224.177 35.6051L224.301 35.7297H217.929L218.046 35.6051C218.046 35.6051 219.235 35.4295 219.235 33.3301V20.2728C219.235 18.1743 218.046 17.9972 218.046 17.9972L217.929 17.8733H228.205ZM205.783 30.2842L205.935 30.1834L204.535 34.9652C204.535 34.9652 201.496 36.0004 198.884 36.0004C191.966 36.0004 188.612 31.2424 188.612 26.9351C188.612 21.5789 192.673 17.5941 199.149 17.5941C202.728 17.5941 205.249 18.8244 205.249 18.8244V22.6818L205.148 22.5983C205.148 22.5983 203.634 19.3262 199.438 19.3262C195.381 19.3262 192.81 22.3276 192.81 26.9113C192.81 31.5002 195.458 34.0134 199.291 34.0134C203.51 34.0134 205.783 30.2842 205.783 30.2842ZM237.845 20.2666V33.3296C237.845 35.4289 239.036 35.6046 239.036 35.6046L239.156 35.7292H232.779L232.898 35.6046C232.898 35.6046 234.09 35.4289 234.09 33.3296V20.2666C234.09 18.1658 232.898 17.9887 232.898 17.9887L232.779 17.8728H239.156L239.036 17.9887C239.036 17.9887 237.845 18.1658 237.845 20.2666ZM175.518 28.9037L178.269 23.1133L180.783 28.9037H175.518ZM186.929 33.2976L179.087 16.9783L171.293 33.2976C170.126 35.5279 168.841 35.5754 168.841 35.5754L168.72 35.7007H174.047L173.935 35.5754C173.935 35.5754 172.437 35.281 173.386 33.2976L174.789 30.4164H181.466L182.823 33.2976C183.769 35.281 182.279 35.5754 182.279 35.5754L182.156 35.7007H189.504L189.38 35.5754C189.38 35.5754 188.03 35.5689 186.929 33.2976ZM112.343 33.3066C112.343 31.203 112.336 22.345 112.336 20.2428C112.336 18.1406 113.526 17.9887 113.526 17.9887L113.651 17.8728H107.271L107.389 17.9887C107.389 17.9887 108.583 18.1406 108.583 20.2428C108.583 22.345 108.594 25.3701 108.594 25.3701H99.8169V20.2428C99.8169 18.1406 101.015 17.9966 101.015 17.9966L101.131 17.875H94.7587L94.884 17.9966C94.884 17.9966 96.0711 18.1406 96.0711 20.2428V33.3066C96.0711 35.4117 94.884 35.5902 94.884 35.5902L94.7587 35.7112H101.131L101.015 35.5902C101.015 35.5902 99.8169 35.4117 99.8169 33.3066V27.121H108.594V33.3066C108.594 35.4117 107.403 35.5902 107.403 35.5902L107.278 35.7112H113.66L113.537 35.5902C113.537 35.5902 112.343 35.4117 112.343 33.3066ZM78.8683 17.8756C76.764 17.8756 76.4703 17.674 76.4703 17.674L76.4602 21.224L76.5855 21.1333C76.5855 21.1333 77.5437 19.5948 79.6394 19.5948H82.6336V33.3072C82.6336 35.4123 81.4493 35.5908 81.4493 35.5908L81.3254 35.7118H87.7011L87.5816 35.5908C87.5816 35.5908 86.3887 35.4123 86.3887 33.3072L86.4053 19.5948H89.3282C91.4296 19.5948 92.439 21.1333 92.439 21.1333L92.5635 21.224L92.57 17.674C92.57 17.674 92.2734 17.8756 90.1683 17.8756H78.8683ZM121.075 28.9037L123.829 23.1133L126.34 28.9037H121.075ZM132.492 33.2976L124.644 16.9783L116.85 33.2976C115.683 35.5279 114.398 35.5754 114.398 35.5754L114.276 35.7007H119.608L119.493 35.5754C119.493 35.5754 117.999 35.281 118.945 33.2976L120.343 30.4164H127.027L128.381 33.2976C129.332 35.281 127.839 35.5754 127.839 35.5754L127.718 35.7007H135.062L134.941 35.5754C134.941 35.5754 133.585 35.5689 132.492 33.2976ZM145.079 17.8751L145.204 17.9968C145.204 17.9968 146.778 18.4395 145.591 20.2876C145.007 21.1853 143.253 23.6993 141.653 26.1283C140.046 23.6993 138.317 21.1709 137.739 20.2725C136.552 18.4215 138.135 17.9968 138.135 17.9968L138.249 17.8751H130.905L131.024 17.9968C131.024 17.9968 132.088 18.1739 133.482 20.2725C134.067 21.1601 137.051 25.3278 138.655 27.7597V33.3067C138.655 35.4118 137.463 35.5903 137.463 35.5903L137.342 35.7113H143.719L143.597 35.5903C143.597 35.5903 142.409 35.4118 142.409 33.3067C142.409 32.4155 142.4 30.188 142.4 27.7597C144.006 25.3278 146.994 21.1781 147.583 20.2876C148.963 18.189 150.551 17.9968 150.551 17.9968L150.673 17.8751H145.079ZM51.3341 34.0134C47.4984 34.0134 44.8519 31.5002 44.8519 26.9113C44.8519 22.3276 47.4257 19.3262 51.4752 19.3262C55.6782 19.3262 57.1893 22.5983 57.1893 22.5983L57.2901 22.6818V18.8244C57.2901 18.8244 54.7725 17.5941 51.1858 17.5941C44.7151 17.5941 40.6526 21.5789 40.6526 26.9351C40.6526 31.2424 44.0067 36.0004 50.9245 36.0004C53.535 36.0004 56.5774 34.9652 56.5774 34.9652L57.9776 30.1834L57.8221 30.2842C57.8221 30.2842 55.5536 34.0134 51.3341 34.0134ZM64.8953 28.9037L67.6498 23.1133L70.1609 28.9037H64.8953ZM76.315 33.2976L68.4663 16.9783L60.6724 33.2976C59.5061 35.5279 58.216 35.5754 58.216 35.5754L58.1008 35.7007H63.4362L63.3095 35.5754C63.3095 35.5754 61.82 35.281 62.7674 33.2976L64.1662 30.4164H70.8471L72.2035 33.2976C73.1459 35.281 71.657 35.5754 71.657 35.5754L71.5404 35.7007H78.8887L78.7613 35.5754C78.7613 35.5754 77.4049 35.5689 76.315 33.2976Z" fill="#736757"/>
<path fill-rule="evenodd" clip-rule="evenodd" d="M161.977 20.2672V19.5797H162.815C163.842 19.5797 164.903 19.5797 165.54 19.7892C167.225 20.2881 168.076 21.571 168.076 23.5889C168.076 25.2383 167.026 27.6911 164.125 27.6911C163.288 27.6911 162.412 27.3585 161.977 27.1569V20.2672ZM165.368 29.401C169.304 29.401 171.65 26.4198 171.65 23.5466C171.65 21.957 171.063 19.1226 167.085 18.1212C166.198 17.893 165.206 17.8807 163.911 17.8807L156.914 17.8728L157.03 17.9887C157.03 17.9887 158.226 18.1658 158.226 20.2666V33.3296C158.226 35.4289 157.03 35.6046 157.03 35.6046L156.914 35.7292H163.284L163.165 35.6046C163.165 35.6046 161.978 35.4289 161.978 33.3296V28.7768C162.533 29.0238 163.655 29.401 165.368 29.401ZM258.289 30.1832L256.884 34.9649C256.884 34.9649 253.847 36.0002 251.239 36.0002C244.315 36.0002 240.959 31.2422 240.959 26.9349C240.959 21.5786 245.028 17.5895 251.498 17.5895C255.076 17.5895 257.603 18.8242 257.603 18.8242V22.6815L257.501 22.598C257.501 22.598 255.989 19.326 251.785 19.326C247.732 19.326 245.158 22.3273 245.158 26.9111C245.158 31.4999 247.811 34.0132 251.64 34.0132C255.871 34.0132 258.132 30.284 258.132 30.284L258.289 30.1832ZM213.3 20.2666V33.3296C213.3 35.4289 214.498 35.6046 214.498 35.6046L214.619 35.7292H208.239L208.362 35.6046C208.362 35.6046 209.55 35.4289 209.55 33.3296V20.2666C209.55 18.1658 208.362 17.9887 208.362 17.9887L208.239 17.8728H214.619L214.498 17.9887C214.498 17.9887 213.3 18.1658 213.3 20.2666ZM228.205 17.8733C230.309 17.8733 230.612 17.6717 230.612 17.6717V20.8596L230.491 20.7631C230.491 20.7631 229.615 19.5565 227.512 19.5565H222.99V25.2627H226.75C228.851 25.2627 229.028 24.3447 229.028 24.3447L229.152 24.2209V28.0574L229.028 27.9336C229.028 27.9336 228.851 27.0099 226.75 27.0099H222.99V33.3251V33.3301C222.99 35.4295 224.177 35.6051 224.177 35.6051L224.301 35.7297H217.929L218.046 35.6051C218.046 35.6051 219.235 35.4295 219.235 33.3301V20.2728C219.235 18.1743 218.046 17.9972 218.046 17.9972L217.929 17.8733H228.205ZM205.783 30.2842L205.935 30.1834L204.535 34.9652C204.535 34.9652 201.496 36.0004 198.884 36.0004C191.966 36.0004 188.612 31.2424 188.612 26.9351C188.612 21.5789 192.673 17.5941 199.149 17.5941C202.728 17.5941 205.249 18.8244 205.249 18.8244V22.6818L205.148 22.5983C205.148 22.5983 203.634 19.3262 199.438 19.3262C195.381 19.3262 192.81 22.3276 192.81 26.9113C192.81 31.5002 195.458 34.0134 199.291 34.0134C203.51 34.0134 205.783 30.2842 205.783 30.2842ZM237.845 20.2666V33.3296C237.845 35.4289 239.036 35.6046 239.036 35.6046L239.156 35.7292H232.779L232.898 35.6046C232.898 35.6046 234.09 35.4289 234.09 33.3296V20.2666C234.09 18.1658 232.898 17.9887 232.898 17.9887L232.779 17.8728H239.156L239.036 17.9887C239.036 17.9887 237.845 18.1658 237.845 20.2666ZM175.518 28.9037L178.269 23.1133L180.783 28.9037H175.518ZM186.929 33.2976L179.087 16.9783L171.293 33.2976C170.126 35.5279 168.841 35.5754 168.841 35.5754L168.72 35.7007H174.047L173.935 35.5754C173.935 35.5754 172.437 35.281 173.386 33.2976L174.789 30.4164H181.466L182.823 33.2976C183.769 35.281 182.279 35.5754 182.279 35.5754L182.156 35.7007H189.504L189.38 35.5754C189.38 35.5754 188.03 35.5689 186.929 33.2976ZM112.343 33.3066C112.343 31.203 112.336 22.345 112.336 20.2428C112.336 18.1406 113.526 17.9887 113.526 17.9887L113.651 17.8728H107.271L107.389 17.9887C107.389 17.9887 108.583 18.1406 108.583 20.2428C108.583 22.345 108.594 25.3701 108.594 25.3701H99.8169V20.2428C99.8169 18.1406 101.015 17.9966 101.015 17.9966L101.131 17.875H94.7587L94.884 17.9966C94.884 17.9966 96.0711 18.1406 96.0711 20.2428V33.3066C96.0711 35.4117 94.884 35.5902 94.884 35.5902L94.7587 35.7112H101.131L101.015 35.5902C101.015 35.5902 99.8169 35.4117 99.8169 33.3066V27.121H108.594V33.3066C108.594 35.4117 107.403 35.5902 107.403 35.5902L107.278 35.7112H113.66L113.537 35.5902C113.537 35.5902 112.343 35.4117 112.343 33.3066ZM78.8683 17.8756C76.764 17.8756 76.4703 17.674 76.4703 17.674L76.4602 21.224L76.5855 21.1333C76.5855 21.1333 77.5437 19.5948 79.6394 19.5948H82.6336V33.3072C82.6336 35.4123 81.4493 35.5908 81.4493 35.5908L81.3254 35.7118H87.7011L87.5816 35.5908C87.5816 35.5908 86.3887 35.4123 86.3887 33.3072L86.4053 19.5948H89.3282C91.4296 19.5948 92.439 21.1333 92.439 21.1333L92.5635 21.224L92.57 17.674C92.57 17.674 92.2734 17.8756 90.1683 17.8756H78.8683ZM121.075 28.9037L123.829 23.1133L126.34 28.9037H121.075ZM132.492 33.2976L124.644 16.9783L116.85 33.2976C115.683 35.5279 114.398 35.5754 114.398 35.5754L114.276 35.7007H119.608L119.493 35.5754C119.493 35.5754 117.999 35.281 118.945 33.2976L120.343 30.4164H127.027L128.381 33.2976C129.332 35.281 127.839 35.5754 127.839 35.5754L127.718 35.7007H135.062L134.941 35.5754C134.941 35.5754 133.585 35.5689 132.492 33.2976ZM145.079 17.8751L145.204 17.9968C145.204 17.9968 146.778 18.4395 145.591 20.2876C145.007 21.1853 143.253 23.6993 141.653 26.1283C140.046 23.6993 138.317 21.1709 137.739 20.2725C136.552 18.4215 138.135 17.9968 138.135 17.9968L138.249 17.8751H130.905L131.024 17.9968C131.024 17.9968 132.088 18.1739 133.482 20.2725C134.067 21.1601 137.051 25.3278 138.655 27.7597V33.3067C138.655 35.4118 137.463 35.5903 137.463 35.5903L137.342 35.7113H143.719L143.597 35.5903C143.597 35.5903 142.409 35.4118 142.409 33.3067C142.409 32.4155 142.4 30.188 142.4 27.7597C144.006 25.3278 146.994 21.1781 147.583 20.2876C148.963 18.189 150.551 17.9968 150.551 17.9968L150.673 17.8751H145.079ZM51.3341 34.0134C47.4984 34.0134 44.8519 31.5002 44.8519 26.9113C44.8519 22.3276 47.4257 19.3262 51.4752 19.3262C55.6782 19.3262 57.1893 22.5983 57.1893 22.5983L57.2901 22.6818V18.8244C57.2901 18.8244 54.7725 17.5941 51.1858 17.5941C44.7151 17.5941 40.6526 21.5789 40.6526 26.9351C40.6526 31.2424 44.0067 36.0004 50.9245 36.0004C53.535 36.0004 56.5774 34.9652 56.5774 34.9652L57.9776 30.1834L57.8221 30.2842C57.8221 30.2842 55.5536 34.0134 51.3341 34.0134ZM64.8953 28.9037L67.6498 23.1133L70.1609 28.9037H64.8953ZM76.315 33.2976L68.4663 16.9783L60.6724 33.2976C59.5061 35.5279 58.216 35.5754 58.216 35.5754L58.1008 35.7007H63.4362L63.3095 35.5754C63.3095 35.5754 61.82 35.281 62.7674 33.2976L64.1662 30.4164H70.8471L72.2035 33.2976C73.1459 35.281 71.657 35.5754 71.657 35.5754L71.5404 35.7007H78.8887L78.7613 35.5754C78.7613 35.5754 77.4049 35.5689 76.315 33.2976Z" fill="#3D4043"/>
</g>
</g>
<defs>
<linearGradient id="paint0_linear_185_3332" x1="0.085722" y1="36.1888" x2="37.124" y2="8.76174" gradientUnits="userSpaceOnUse">
<stop offset="0.161458" stop-color="#AC883B"/>
<stop offset="0.609375" stop-color="#E2CD83"/>
<stop offset="1" stop-color="#E7E5AA"/>
</linearGradient>
</defs>
</svg>
