<svg width="152" height="120" viewBox="0 0 152 120" fill="none" xmlns="http://www.w3.org/2000/svg">
<g filter="url(#filter0_d_1961_9293)">
<path d="M33.2287 61.5459H40.5274L50.8221 78.5613H50.8859V62.0422H48.0402V61.5459H54.2279V62.0422H51.3822V86.9987H50.5444L36.6298 64.0823H36.5707V86.4975H39.4119V86.9987H33.2287V86.4975H36.0743V62.0422H33.2287V61.5459Z" fill="url(#paint0_linear_1961_9293)" fill-opacity="0.57"/>
<path d="M53.7635 61.5459H72.2543V67.6608H71.8537C71.4211 66.0854 70.0915 62.0466 66.0072 62.0466H61.0897V73.0927H62.82C65.8477 73.0927 66.8996 70.9851 67.487 67.7658H67.8923V78.8846H67.487C66.9316 76.0981 66.0072 73.5938 63.1614 73.5938H61.0897V86.4975H66.1621C69.9639 86.4975 72.2861 83.3151 73.1194 79.167H73.52V86.9987H53.759V86.4975H56.6048V62.0422H53.7635V61.5459Z" fill="url(#paint1_linear_1961_9293)" fill-opacity="0.57"/>
<path d="M72.0994 61.5459H81.5928V62.0422H79.3345L84.8987 80.8833H84.962L88.2088 70.229L85.8001 62.0422H84.1291V61.5459H93.3721V62.0422H90.4988L96.0951 80.9198H96.1586L101.877 62.0422H99.2183V61.5459H104.91V62.0422H102.406L94.4557 88H93.5588L88.4863 71.0531H88.4227L83.2322 88H82.3349L74.663 62.0422H72.0994V61.5459Z" fill="url(#paint2_linear_1961_9293)" fill-opacity="0.57"/>
<path d="M59.2273 45.1134C59.2273 52.3804 53.4676 58.2858 46.1006 58.2858C38.7698 58.2858 32.9463 52.3757 32.9463 45.1134C32.9463 37.9101 38.7743 32 46.1006 32C53.4676 32 59.2273 37.9101 59.2273 45.1134ZM33.8751 45.1134C35.733 48.97 40.0858 52.7263 46.1006 52.7263C52.088 52.7263 56.4728 48.9655 58.3305 45.1134C56.4727 41.3206 52.088 37.5595 46.1006 37.5595C40.0858 37.5595 35.733 41.3206 33.8751 45.1134ZM52.7893 45.1088C52.7893 48.8013 49.8067 51.7427 46.1006 51.7427C42.3895 51.7427 39.3799 48.8013 39.3799 45.1088C39.3799 41.4753 42.3895 38.5066 46.1006 38.5066C49.8068 38.5066 52.7893 41.4753 52.7893 45.1088Z" fill="url(#paint3_linear_1961_9293)" fill-opacity="0.57"/>
<path d="M46.1051 58.2358C38.8791 58.2358 33.001 52.3484 33.001 45.1134C33.001 37.9101 38.879 32.05 46.1051 32.05C53.3129 32.05 59.182 37.9101 59.182 45.1134C59.1773 52.4713 53.4358 58.2358 46.1051 58.2358ZM46.1051 37.5095C39.7853 37.5095 35.5462 41.5936 33.8343 45.0906C35.5327 48.6605 39.767 52.7763 46.1051 52.7763C52.4478 52.7763 56.6823 48.6604 58.3806 45.1361C56.6686 41.5936 52.4249 37.5095 46.1051 37.5095ZM46.1006 51.6927C42.4217 51.6927 39.4299 48.7377 39.4299 45.1088C39.4299 41.4934 42.4216 38.5567 46.1006 38.5567C49.7614 38.5567 52.7437 41.498 52.7437 45.1088C52.739 48.7378 49.7614 51.6927 46.1006 51.6927Z" fill="url(#paint4_linear_1961_9293)" fill-opacity="0.57"/>
<path d="M71.5258 32.3416C69.4086 32.3416 66.7448 33.7487 64.7415 35.9295C62.9929 37.8373 60.9077 41.1748 60.9077 46.2471C60.9077 52.8084 66.2712 57.8943 70.8837 57.8943C72.7415 57.8943 73.8388 57.3978 74.8041 56.9563L74.8269 56.9472C75.5827 56.6057 76.2384 56.3098 77.1263 56.3098C77.8778 56.3098 78.5879 56.7332 79.0205 57.4391L79.2117 57.7532V47.7133H78.9338L78.9156 47.8042C78.3056 51.6654 75.7693 57.416 71.2846 57.416C66.8405 57.416 65.9298 53.0587 65.9298 46.5203C65.9298 40.1411 66.5992 32.8151 71.8081 32.8151C76.4477 32.8151 78.4327 39.6584 78.9338 41.753L78.9519 41.8303H79.225V32.6876L79.0383 32.9607C78.5878 33.6119 77.9502 33.744 77.0717 33.744C76.4841 33.744 75.8649 33.4981 75.1548 33.2157L75.1227 33.2021C74.1256 32.8016 73.0009 32.3416 71.5258 32.3416Z" fill="url(#paint5_linear_1961_9293)" fill-opacity="0.57"/>
<path d="M95.4757 44.2346C96.9737 43.8158 100.516 42.6363 100.516 38.8116C100.516 36.9359 99.5919 35.3559 97.8524 34.2448C96.2588 33.2204 94.0324 32.6604 91.5872 32.6604H80.2816V33.1521H84.211V57.0883H80.2816V57.5846H92.1333C97.711 57.5846 101.458 54.657 101.458 50.3041C101.458 47.3172 99.5007 45.3318 95.4757 44.2346ZM92.4702 43.984H89.2421V33.1519H90.2169C94.5833 33.1519 95.9449 33.9668 95.9449 38.3563C95.9449 43.0598 94.7746 43.9204 92.4748 43.9204M89.2421 44.4758H91.9242C94.3418 44.4758 96.7052 45.0085 96.7052 50.5136C96.7052 56.0456 95.1934 57.0839 91.801 57.0839H89.2421V44.4758Z" fill="url(#paint6_linear_1961_9293)" fill-opacity="0.57"/>
<path d="M105.556 56.4189C106.353 56.4189 107.041 56.683 107.837 56.988L107.906 57.0153C108.976 57.4298 110.178 57.8942 111.985 57.8942C115.373 57.8942 119.462 54.2061 119.462 49.6302C119.462 44.8263 115.874 43.6335 112.404 42.477C109.39 41.4708 106.549 40.5237 106.549 37.1997C106.549 35.8838 106.945 32.8196 110.592 32.8196C115.086 32.8196 117.217 39.918 117.217 41.6711V41.7758H117.508L117.518 32.4507L117.326 32.7011C116.789 33.4159 115.715 33.4706 115.396 33.4706C115.364 33.4706 115.337 33.4706 115.314 33.4706H115.282C114.877 33.4706 114.235 33.2521 113.72 33.0609C112.864 32.742 111.799 32.3461 110.592 32.3461C106.408 32.3461 103.817 36.5258 103.817 40.4007C103.817 45.1222 107.382 46.4063 110.833 47.6494C113.757 48.6966 116.52 49.6847 116.52 52.8035C116.52 55.9725 114.134 57.3933 111.767 57.3933C105.998 57.3933 103.89 48.5783 103.89 47.8359V47.7815H103.603V57.5072L103.785 57.2934C104.459 56.4827 104.965 56.4189 105.556 56.4189Z" fill="url(#paint7_linear_1961_9293)" fill-opacity="0.57"/>
<path d="M105.438 85.9377C106.244 85.9377 106.936 86.2107 107.737 86.5202L107.806 86.5478C108.885 86.9711 110.096 87.4539 111.922 87.4539C115.337 87.4539 119.462 83.6655 119.462 78.962C119.462 74.0264 115.842 72.797 112.341 71.6129C109.304 70.5796 106.435 69.6053 106.435 66.1904C106.435 64.8382 106.831 61.6874 110.51 61.6874C115.045 61.6874 117.195 68.9814 117.195 70.7796V70.889H117.486L117.495 61.3094L117.304 61.5642C116.762 62.2974 115.678 62.3561 115.354 62.3561C115.318 62.3561 115.291 62.3561 115.273 62.3561H115.236C114.827 62.3561 114.18 62.1333 113.661 61.9328C112.796 61.605 111.726 61.1999 110.506 61.1999C106.284 61.1999 103.671 65.4934 103.671 69.4731C103.671 74.3225 107.268 75.6426 110.747 76.9175C113.698 77.9922 116.479 79.0117 116.479 82.2128C116.479 85.4686 114.071 86.9301 111.69 86.9301C105.871 86.9301 103.744 77.8734 103.744 77.1131V77.0587H103.453V87.0483L103.635 86.8251C104.327 86.0057 104.841 85.9377 105.438 85.9377Z" fill="url(#paint8_linear_1961_9293)" fill-opacity="0.57"/>
</g>
<defs>
<filter id="filter0_d_1961_9293" x="0.946289" y="0" width="150.516" height="120" filterUnits="userSpaceOnUse" color-interpolation-filters="sRGB">
<feFlood flood-opacity="0" result="BackgroundImageFix"/>
<feColorMatrix in="SourceAlpha" type="matrix" values="0 0 0 0 0 0 0 0 0 0 0 0 0 0 0 0 0 0 127 0" result="hardAlpha"/>
<feOffset/>
<feGaussianBlur stdDeviation="16"/>
<feComposite in2="hardAlpha" operator="out"/>
<feColorMatrix type="matrix" values="0 0 0 0 0 0 0 0 0 0 0 0 0 0 0 0 0 0 0.03 0"/>
<feBlend mode="normal" in2="BackgroundImageFix" result="effect1_dropShadow_1961_9293"/>
<feBlend mode="normal" in="SourceGraphic" in2="effect1_dropShadow_1961_9293" result="shape"/>
</filter>
<linearGradient id="paint0_linear_1961_9293" x1="32.0807" y1="88.295" x2="89.3054" y2="9.24827" gradientUnits="userSpaceOnUse">
<stop offset="0.114812" stop-color="#B39257"/>
<stop offset="0.814205" stop-color="#DEC79F"/>
</linearGradient>
<linearGradient id="paint1_linear_1961_9293" x1="32.0807" y1="88.295" x2="89.3054" y2="9.24827" gradientUnits="userSpaceOnUse">
<stop offset="0.114812" stop-color="#B39257"/>
<stop offset="0.814205" stop-color="#DEC79F"/>
</linearGradient>
<linearGradient id="paint2_linear_1961_9293" x1="32.0807" y1="88.295" x2="89.3054" y2="9.24827" gradientUnits="userSpaceOnUse">
<stop offset="0.114812" stop-color="#B39257"/>
<stop offset="0.814205" stop-color="#DEC79F"/>
</linearGradient>
<linearGradient id="paint3_linear_1961_9293" x1="32.0807" y1="88.295" x2="89.3054" y2="9.24827" gradientUnits="userSpaceOnUse">
<stop offset="0.114812" stop-color="#B39257"/>
<stop offset="0.814205" stop-color="#DEC79F"/>
</linearGradient>
<linearGradient id="paint4_linear_1961_9293" x1="32.0807" y1="88.295" x2="89.3054" y2="9.24827" gradientUnits="userSpaceOnUse">
<stop offset="0.114812" stop-color="#B39257"/>
<stop offset="0.814205" stop-color="#DEC79F"/>
</linearGradient>
<linearGradient id="paint5_linear_1961_9293" x1="32.0807" y1="88.295" x2="89.3054" y2="9.24827" gradientUnits="userSpaceOnUse">
<stop offset="0.114812" stop-color="#B39257"/>
<stop offset="0.814205" stop-color="#DEC79F"/>
</linearGradient>
<linearGradient id="paint6_linear_1961_9293" x1="32.0807" y1="88.295" x2="89.3054" y2="9.24827" gradientUnits="userSpaceOnUse">
<stop offset="0.114812" stop-color="#B39257"/>
<stop offset="0.814205" stop-color="#DEC79F"/>
</linearGradient>
<linearGradient id="paint7_linear_1961_9293" x1="32.0807" y1="88.295" x2="89.3054" y2="9.24827" gradientUnits="userSpaceOnUse">
<stop offset="0.114812" stop-color="#B39257"/>
<stop offset="0.814205" stop-color="#DEC79F"/>
</linearGradient>
<linearGradient id="paint8_linear_1961_9293" x1="32.0807" y1="88.295" x2="89.3054" y2="9.24827" gradientUnits="userSpaceOnUse">
<stop offset="0.114812" stop-color="#B39257"/>
<stop offset="0.814205" stop-color="#DEC79F"/>
</linearGradient>
</defs>
</svg>
