<svg width="151" height="120" viewBox="0 0 151 120" fill="none" xmlns="http://www.w3.org/2000/svg">
<g filter="url(#filter0_d_1302_10470)">
<path d="M32.4386 61.5459H39.7374L50.0321 78.5613H50.0959V62.0422H47.2501V61.5459H53.4379V62.0422H50.5922V86.9987H49.7544L35.8397 64.0823H35.7806V86.4975H38.6219V86.9987H32.4386V86.4975H35.2843V62.0422H32.4386V61.5459Z" fill="url(#paint0_linear_1302_10470)" fill-opacity="0.75"/>
<path d="M32.4386 61.5459H39.7374L50.0321 78.5613H50.0959V62.0422H47.2501V61.5459H53.4379V62.0422H50.5922V86.9987H49.7544L35.8397 64.0823H35.7806V86.4975H38.6219V86.9987H32.4386V86.4975H35.2843V62.0422H32.4386V61.5459Z" fill="#3D4043" fill-opacity="0.5"/>
<path d="M52.9735 61.5459H71.4643V67.6608H71.0636C70.631 66.0854 69.3015 62.0466 65.2172 62.0466H60.2997V73.0927H62.0299C65.0577 73.0927 66.1096 70.9851 66.6969 67.7658H67.1022V78.8846H66.6969C66.1416 76.0981 65.2172 73.5938 62.3714 73.5938H60.2997V86.4975H65.3721C69.1739 86.4975 71.496 83.3151 72.3293 79.167H72.73V86.9987H52.969V86.4975H55.8147V62.0422H52.9735V61.5459Z" fill="url(#paint1_linear_1302_10470)" fill-opacity="0.75"/>
<path d="M52.9735 61.5459H71.4643V67.6608H71.0636C70.631 66.0854 69.3015 62.0466 65.2172 62.0466H60.2997V73.0927H62.0299C65.0577 73.0927 66.1096 70.9851 66.6969 67.7658H67.1022V78.8846H66.6969C66.1416 76.0981 65.2172 73.5938 62.3714 73.5938H60.2997V86.4975H65.3721C69.1739 86.4975 71.496 83.3151 72.3293 79.167H72.73V86.9987H52.969V86.4975H55.8147V62.0422H52.9735V61.5459Z" fill="#3D4043" fill-opacity="0.5"/>
<path d="M71.3093 61.5459H80.8028V62.0422H78.5445L84.1087 80.8833H84.172L87.4188 70.229L85.01 62.0422H83.3391V61.5459H92.582V62.0422H89.7088L95.305 80.9198H95.3685L101.087 62.0422H98.4283V61.5459H104.12V62.0422H101.616L93.6657 88H92.7687L87.6962 71.0531H87.6327L82.4422 88H81.5449L73.873 62.0422H71.3093V61.5459Z" fill="url(#paint2_linear_1302_10470)" fill-opacity="0.75"/>
<path d="M71.3093 61.5459H80.8028V62.0422H78.5445L84.1087 80.8833H84.172L87.4188 70.229L85.01 62.0422H83.3391V61.5459H92.582V62.0422H89.7088L95.305 80.9198H95.3685L101.087 62.0422H98.4283V61.5459H104.12V62.0422H101.616L93.6657 88H92.7687L87.6962 71.0531H87.6327L82.4422 88H81.5449L73.873 62.0422H71.3093V61.5459Z" fill="#3D4043" fill-opacity="0.5"/>
<path d="M58.4373 45.1134C58.4373 52.3804 52.6776 58.2858 45.3105 58.2858C37.9798 58.2858 32.1562 52.3757 32.1562 45.1134C32.1562 37.9101 37.9843 32 45.3106 32C52.6776 32 58.4373 37.9101 58.4373 45.1134ZM33.0851 45.1134C34.9429 48.97 39.2958 52.7263 45.3106 52.7263C51.298 52.7263 55.6828 48.9655 57.5405 45.1134C55.6827 41.3206 51.298 37.5595 45.3106 37.5595C39.2958 37.5595 34.9429 41.3206 33.0851 45.1134ZM51.9992 45.1088C51.9992 48.8013 49.0167 51.7427 45.3105 51.7427C41.5994 51.7427 38.5898 48.8013 38.5898 45.1088C38.5898 41.4753 41.5994 38.5066 45.3105 38.5066C49.0168 38.5066 51.9992 41.4753 51.9992 45.1088Z" fill="url(#paint3_linear_1302_10470)" fill-opacity="0.75"/>
<path d="M58.4373 45.1134C58.4373 52.3804 52.6776 58.2858 45.3105 58.2858C37.9798 58.2858 32.1562 52.3757 32.1562 45.1134C32.1562 37.9101 37.9843 32 45.3106 32C52.6776 32 58.4373 37.9101 58.4373 45.1134ZM33.0851 45.1134C34.9429 48.97 39.2958 52.7263 45.3106 52.7263C51.298 52.7263 55.6828 48.9655 57.5405 45.1134C55.6827 41.3206 51.298 37.5595 45.3106 37.5595C39.2958 37.5595 34.9429 41.3206 33.0851 45.1134ZM51.9992 45.1088C51.9992 48.8013 49.0167 51.7427 45.3105 51.7427C41.5994 51.7427 38.5898 48.8013 38.5898 45.1088C38.5898 41.4753 41.5994 38.5066 45.3105 38.5066C49.0168 38.5066 51.9992 41.4753 51.9992 45.1088Z" fill="#3D4043" fill-opacity="0.5"/>
<path d="M45.315 58.2358C38.0891 58.2358 32.2109 52.3484 32.2109 45.1134C32.2109 37.9101 38.089 32.05 45.315 32.05C52.5229 32.05 58.3919 37.9101 58.3919 45.1134C58.3873 52.4713 52.6457 58.2358 45.315 58.2358ZM45.315 37.5095C38.9952 37.5095 34.7561 41.5936 33.0442 45.0906C34.7426 48.6605 38.977 52.7763 45.315 52.7763C51.6577 52.7763 55.8922 48.6604 57.5905 45.1361C55.8786 41.5936 51.6349 37.5095 45.315 37.5095ZM45.3106 51.6927C41.6316 51.6927 38.6399 48.7377 38.6399 45.1088C38.6399 41.4934 41.6315 38.5567 45.3106 38.5567C48.9713 38.5567 51.9536 41.498 51.9536 45.1088C51.9489 48.7378 48.9713 51.6927 45.3106 51.6927Z" fill="url(#paint4_linear_1302_10470)" fill-opacity="0.75"/>
<path d="M45.315 58.2358C38.0891 58.2358 32.2109 52.3484 32.2109 45.1134C32.2109 37.9101 38.089 32.05 45.315 32.05C52.5229 32.05 58.3919 37.9101 58.3919 45.1134C58.3873 52.4713 52.6457 58.2358 45.315 58.2358ZM45.315 37.5095C38.9952 37.5095 34.7561 41.5936 33.0442 45.0906C34.7426 48.6605 38.977 52.7763 45.315 52.7763C51.6577 52.7763 55.8922 48.6604 57.5905 45.1361C55.8786 41.5936 51.6349 37.5095 45.315 37.5095ZM45.3106 51.6927C41.6316 51.6927 38.6399 48.7377 38.6399 45.1088C38.6399 41.4934 41.6315 38.5567 45.3106 38.5567C48.9713 38.5567 51.9536 41.498 51.9536 45.1088C51.9489 48.7378 48.9713 51.6927 45.3106 51.6927Z" fill="#3D4043" fill-opacity="0.5"/>
<path d="M70.7357 32.3416C68.6185 32.3416 65.9548 33.7487 63.9514 35.9295C62.2029 37.8373 60.1177 41.1748 60.1177 46.2471C60.1177 52.8084 65.4812 57.8943 70.0936 57.8943C71.9514 57.8943 73.0488 57.3978 74.0141 56.9563L74.0368 56.9472C74.7926 56.6057 75.4483 56.3098 76.3362 56.3098C77.0878 56.3098 77.7978 56.7332 78.2305 57.4391L78.4217 57.7532V47.7133H78.1438L78.1255 47.8042C77.5155 51.6654 74.9792 57.416 70.4945 57.416C66.0505 57.416 65.1397 53.0587 65.1397 46.5203C65.1397 40.1411 65.8092 32.8151 71.018 32.8151C75.6577 32.8151 77.6426 39.6584 78.1437 41.753L78.1619 41.8303H78.4349V32.6876L78.2482 32.9607C77.7977 33.6119 77.1601 33.744 76.2816 33.744C75.6941 33.744 75.0748 33.4981 74.3647 33.2157L74.3327 33.2021C73.3356 32.8016 72.2109 32.3416 70.7357 32.3416Z" fill="url(#paint5_linear_1302_10470)" fill-opacity="0.75"/>
<path d="M70.7357 32.3416C68.6185 32.3416 65.9548 33.7487 63.9514 35.9295C62.2029 37.8373 60.1177 41.1748 60.1177 46.2471C60.1177 52.8084 65.4812 57.8943 70.0936 57.8943C71.9514 57.8943 73.0488 57.3978 74.0141 56.9563L74.0368 56.9472C74.7926 56.6057 75.4483 56.3098 76.3362 56.3098C77.0878 56.3098 77.7978 56.7332 78.2305 57.4391L78.4217 57.7532V47.7133H78.1438L78.1255 47.8042C77.5155 51.6654 74.9792 57.416 70.4945 57.416C66.0505 57.416 65.1397 53.0587 65.1397 46.5203C65.1397 40.1411 65.8092 32.8151 71.018 32.8151C75.6577 32.8151 77.6426 39.6584 78.1437 41.753L78.1619 41.8303H78.4349V32.6876L78.2482 32.9607C77.7977 33.6119 77.1601 33.744 76.2816 33.744C75.6941 33.744 75.0748 33.4981 74.3647 33.2157L74.3327 33.2021C73.3356 32.8016 72.2109 32.3416 70.7357 32.3416Z" fill="#3D4043" fill-opacity="0.5"/>
<path d="M94.6857 44.2346C96.1837 43.8158 99.7258 42.6363 99.7258 38.8116C99.7258 36.9359 98.8018 35.3559 97.0623 34.2448C95.4687 33.2204 93.2423 32.6604 90.7971 32.6604H79.4915V33.1521H83.421V57.0883H79.4915V57.5846H91.3432C96.921 57.5846 100.668 54.657 100.668 50.3041C100.668 47.3172 98.7106 45.3318 94.6857 44.2346ZM91.6802 43.984H88.452V33.1519H89.4268C93.7933 33.1519 95.1549 33.9668 95.1549 38.3563C95.1549 43.0598 93.9846 43.9204 91.6848 43.9204M88.452 44.4758H91.1342C93.5518 44.4758 95.9151 45.0085 95.9151 50.5136C95.9151 56.0456 94.4034 57.0839 91.011 57.0839H88.452V44.4758Z" fill="url(#paint6_linear_1302_10470)" fill-opacity="0.75"/>
<path d="M94.6857 44.2346C96.1837 43.8158 99.7258 42.6363 99.7258 38.8116C99.7258 36.9359 98.8018 35.3559 97.0623 34.2448C95.4687 33.2204 93.2423 32.6604 90.7971 32.6604H79.4915V33.1521H83.421V57.0883H79.4915V57.5846H91.3432C96.921 57.5846 100.668 54.657 100.668 50.3041C100.668 47.3172 98.7106 45.3318 94.6857 44.2346ZM91.6802 43.984H88.452V33.1519H89.4268C93.7933 33.1519 95.1549 33.9668 95.1549 38.3563C95.1549 43.0598 93.9846 43.9204 91.6848 43.9204M88.452 44.4758H91.1342C93.5518 44.4758 95.9151 45.0085 95.9151 50.5136C95.9151 56.0456 94.4034 57.0839 91.011 57.0839H88.452V44.4758Z" fill="#3D4043" fill-opacity="0.5"/>
<path d="M104.766 56.4189C105.563 56.4189 106.251 56.683 107.047 56.988L107.116 57.0153C108.186 57.4298 109.388 57.8942 111.195 57.8942C114.583 57.8942 118.672 54.2061 118.672 49.6302C118.672 44.8263 115.084 43.6335 111.614 42.477C108.6 41.4708 105.759 40.5237 105.759 37.1997C105.759 35.8838 106.155 32.8196 109.802 32.8196C114.296 32.8196 116.427 39.918 116.427 41.6711V41.7758H116.718L116.728 32.4507L116.536 32.7011C115.999 33.4159 114.925 33.4706 114.606 33.4706C114.574 33.4706 114.547 33.4706 114.524 33.4706H114.492C114.087 33.4706 113.445 33.2521 112.93 33.0609C112.074 32.742 111.009 32.3461 109.802 32.3461C105.618 32.3461 103.027 36.5258 103.027 40.4007C103.027 45.1222 106.592 46.4063 110.043 47.6494C112.967 48.6966 115.73 49.6847 115.73 52.8035C115.73 55.9725 113.344 57.3933 110.977 57.3933C105.208 57.3933 103.1 48.5783 103.1 47.8359V47.7815H102.813V57.5072L102.995 57.2934C103.669 56.4827 104.175 56.4189 104.766 56.4189Z" fill="url(#paint7_linear_1302_10470)" fill-opacity="0.75"/>
<path d="M104.766 56.4189C105.563 56.4189 106.251 56.683 107.047 56.988L107.116 57.0153C108.186 57.4298 109.388 57.8942 111.195 57.8942C114.583 57.8942 118.672 54.2061 118.672 49.6302C118.672 44.8263 115.084 43.6335 111.614 42.477C108.6 41.4708 105.759 40.5237 105.759 37.1997C105.759 35.8838 106.155 32.8196 109.802 32.8196C114.296 32.8196 116.427 39.918 116.427 41.6711V41.7758H116.718L116.728 32.4507L116.536 32.7011C115.999 33.4159 114.925 33.4706 114.606 33.4706C114.574 33.4706 114.547 33.4706 114.524 33.4706H114.492C114.087 33.4706 113.445 33.2521 112.93 33.0609C112.074 32.742 111.009 32.3461 109.802 32.3461C105.618 32.3461 103.027 36.5258 103.027 40.4007C103.027 45.1222 106.592 46.4063 110.043 47.6494C112.967 48.6966 115.73 49.6847 115.73 52.8035C115.73 55.9725 113.344 57.3933 110.977 57.3933C105.208 57.3933 103.1 48.5783 103.1 47.8359V47.7815H102.813V57.5072L102.995 57.2934C103.669 56.4827 104.175 56.4189 104.766 56.4189Z" fill="#3D4043" fill-opacity="0.5"/>
<path d="M104.648 85.9377C105.454 85.9377 106.146 86.2107 106.947 86.5202L107.016 86.5478C108.095 86.9711 109.306 87.4539 111.132 87.4539C114.547 87.4539 118.672 83.6655 118.672 78.962C118.672 74.0264 115.052 72.797 111.551 71.6129C108.514 70.5796 105.645 69.6053 105.645 66.1904C105.645 64.8382 106.041 61.6874 109.72 61.6874C114.255 61.6874 116.404 68.9814 116.404 70.7796V70.889H116.696L116.705 61.3094L116.514 61.5642C115.972 62.2974 114.888 62.3561 114.564 62.3561C114.528 62.3561 114.501 62.3561 114.483 62.3561H114.446C114.037 62.3561 113.39 62.1333 112.871 61.9328C112.006 61.605 110.936 61.1999 109.716 61.1999C105.494 61.1999 102.881 65.4934 102.881 69.4731C102.881 74.3225 106.478 75.6426 109.957 76.9175C112.908 77.9922 115.689 79.0117 115.689 82.2128C115.689 85.4686 113.281 86.9301 110.9 86.9301C105.081 86.9301 102.954 77.8734 102.954 77.1131V77.0587H102.663V87.0483L102.845 86.8251C103.537 86.0057 104.051 85.9377 104.648 85.9377Z" fill="url(#paint8_linear_1302_10470)" fill-opacity="0.75"/>
<path d="M104.648 85.9377C105.454 85.9377 106.146 86.2107 106.947 86.5202L107.016 86.5478C108.095 86.9711 109.306 87.4539 111.132 87.4539C114.547 87.4539 118.672 83.6655 118.672 78.962C118.672 74.0264 115.052 72.797 111.551 71.6129C108.514 70.5796 105.645 69.6053 105.645 66.1904C105.645 64.8382 106.041 61.6874 109.72 61.6874C114.255 61.6874 116.404 68.9814 116.404 70.7796V70.889H116.696L116.705 61.3094L116.514 61.5642C115.972 62.2974 114.888 62.3561 114.564 62.3561C114.528 62.3561 114.501 62.3561 114.483 62.3561H114.446C114.037 62.3561 113.39 62.1333 112.871 61.9328C112.006 61.605 110.936 61.1999 109.716 61.1999C105.494 61.1999 102.881 65.4934 102.881 69.4731C102.881 74.3225 106.478 75.6426 109.957 76.9175C112.908 77.9922 115.689 79.0117 115.689 82.2128C115.689 85.4686 113.281 86.9301 110.9 86.9301C105.081 86.9301 102.954 77.8734 102.954 77.1131V77.0587H102.663V87.0483L102.845 86.8251C103.537 86.0057 104.051 85.9377 104.648 85.9377Z" fill="#3D4043" fill-opacity="0.5"/>
</g>
<defs>
<filter id="filter0_d_1302_10470" x="0.15625" y="0" width="150.516" height="120" filterUnits="userSpaceOnUse" color-interpolation-filters="sRGB">
<feFlood flood-opacity="0" result="BackgroundImageFix"/>
<feColorMatrix in="SourceAlpha" type="matrix" values="0 0 0 0 0 0 0 0 0 0 0 0 0 0 0 0 0 0 127 0" result="hardAlpha"/>
<feOffset/>
<feGaussianBlur stdDeviation="16"/>
<feComposite in2="hardAlpha" operator="out"/>
<feColorMatrix type="matrix" values="0 0 0 0 0 0 0 0 0 0 0 0 0 0 0 0 0 0 0.03 0"/>
<feBlend mode="normal" in2="BackgroundImageFix" result="effect1_dropShadow_1302_10470"/>
<feBlend mode="normal" in="SourceGraphic" in2="effect1_dropShadow_1302_10470" result="shape"/>
</filter>
<linearGradient id="paint0_linear_1302_10470" x1="31.2907" y1="88.295" x2="88.5154" y2="9.24827" gradientUnits="userSpaceOnUse">
<stop offset="0.114812" stop-color="#B39257"/>
<stop offset="0.814205" stop-color="#DEC79F"/>
</linearGradient>
<linearGradient id="paint1_linear_1302_10470" x1="31.2907" y1="88.295" x2="88.5154" y2="9.24827" gradientUnits="userSpaceOnUse">
<stop offset="0.114812" stop-color="#B39257"/>
<stop offset="0.814205" stop-color="#DEC79F"/>
</linearGradient>
<linearGradient id="paint2_linear_1302_10470" x1="31.2907" y1="88.295" x2="88.5154" y2="9.24827" gradientUnits="userSpaceOnUse">
<stop offset="0.114812" stop-color="#B39257"/>
<stop offset="0.814205" stop-color="#DEC79F"/>
</linearGradient>
<linearGradient id="paint3_linear_1302_10470" x1="31.2907" y1="88.295" x2="88.5154" y2="9.24827" gradientUnits="userSpaceOnUse">
<stop offset="0.114812" stop-color="#B39257"/>
<stop offset="0.814205" stop-color="#DEC79F"/>
</linearGradient>
<linearGradient id="paint4_linear_1302_10470" x1="31.2907" y1="88.295" x2="88.5154" y2="9.24827" gradientUnits="userSpaceOnUse">
<stop offset="0.114812" stop-color="#B39257"/>
<stop offset="0.814205" stop-color="#DEC79F"/>
</linearGradient>
<linearGradient id="paint5_linear_1302_10470" x1="31.2907" y1="88.295" x2="88.5154" y2="9.24827" gradientUnits="userSpaceOnUse">
<stop offset="0.114812" stop-color="#B39257"/>
<stop offset="0.814205" stop-color="#DEC79F"/>
</linearGradient>
<linearGradient id="paint6_linear_1302_10470" x1="31.2907" y1="88.295" x2="88.5154" y2="9.24827" gradientUnits="userSpaceOnUse">
<stop offset="0.114812" stop-color="#B39257"/>
<stop offset="0.814205" stop-color="#DEC79F"/>
</linearGradient>
<linearGradient id="paint7_linear_1302_10470" x1="31.2907" y1="88.295" x2="88.5154" y2="9.24827" gradientUnits="userSpaceOnUse">
<stop offset="0.114812" stop-color="#B39257"/>
<stop offset="0.814205" stop-color="#DEC79F"/>
</linearGradient>
<linearGradient id="paint8_linear_1302_10470" x1="31.2907" y1="88.295" x2="88.5154" y2="9.24827" gradientUnits="userSpaceOnUse">
<stop offset="0.114812" stop-color="#B39257"/>
<stop offset="0.814205" stop-color="#DEC79F"/>
</linearGradient>
</defs>
</svg>
