<svg width="168" height="112" viewBox="0 0 168 112" fill="none" xmlns="http://www.w3.org/2000/svg">
<g filter="url(#filter0_d_1961_9290)">
<path fill-rule="evenodd" clip-rule="evenodd" d="M64.9187 32.0249C64.9187 32.0038 55.9731 32.0249 55.9731 32.0249C42.7332 32.0249 32 42.7581 32 55.9981C32 69.2381 42.7332 79.9731 55.9751 79.9731L72.7941 79.9597C77.0194 79.9597 80.445 76.561 80.445 72.3357L80.4546 57.7128L92.0796 76.0489C93.6524 78.4292 96.351 79.9981 99.416 79.9981C104.269 79.9981 108.202 76.0643 108.202 71.2117V57.7147L119.824 76.0508C121.396 78.4311 124.095 80 127.16 80C132.012 80 135.946 76.0662 135.946 71.2136V32.0019H129.962V71.2098C129.962 72.7576 128.708 74.012 127.16 74.012C126.193 74.012 125.34 73.5229 124.835 72.7768L104.144 40.186C103.952 39.9079 103.632 39.7257 103.269 39.7257C102.684 39.7257 102.209 40.2014 102.209 40.7864L102.214 71.2098C102.214 72.7576 100.96 74.012 99.4121 74.012C98.4455 74.012 97.5919 73.5229 97.0875 72.7768L76.398 40.186C76.2062 39.9079 75.8859 39.7257 75.5234 39.7257C74.9384 39.7257 74.4627 40.2014 74.4627 40.7864L74.4589 72.3357C74.4589 73.2563 73.7128 74.0024 72.7921 74.0024L55.9731 73.989C46.0379 73.989 37.9823 65.9333 37.9823 55.9981C37.9823 46.0628 46.0398 38.0091 55.9751 38.0091L64.9206 38.0034V32.0249H64.9187Z" fill="url(#paint0_linear_1961_9290)" fill-opacity="0.57"/>
<path fill-rule="evenodd" clip-rule="evenodd" d="M65.8835 66.3054C66.3534 66.3054 66.7351 65.9238 66.7351 65.4538V40.7864C66.737 35.9338 70.6708 32 75.5234 32C78.5999 32 81.3062 33.5804 82.877 35.9741L94.4618 54.1472L94.4829 40.7864C94.4829 35.9338 98.4167 32 103.269 32C106.346 32 109.052 33.5804 110.623 35.9741L122.208 54.1472V32.0019H128.23L128.219 71.2098C128.219 71.7948 127.743 72.2704 127.158 72.2704C126.811 72.2704 126.504 72.1036 126.31 71.8466L105.594 39.2194C105.091 38.4733 104.238 37.9842 103.269 37.9842C101.721 37.9842 100.467 39.2386 100.467 40.7864L100.475 71.2098C100.475 71.7948 99.999 72.2704 99.414 72.2704C99.0669 72.2704 98.76 72.1036 98.5663 71.8466L77.848 39.2194C77.3436 38.4733 76.492 37.9842 75.5234 37.9842C73.9755 37.9842 72.7212 39.2386 72.7212 40.7864L72.7346 71.4515C72.7346 71.9214 72.3529 72.303 71.883 72.303L55.9751 72.2992C47.0007 72.2992 39.7276 64.9705 39.7276 55.9981C39.7276 47.0257 47.0007 39.697 55.9751 39.697C55.9751 39.697 64.9206 39.6624 64.9206 39.697V45.7406L55.9751 45.7329C50.3074 45.7329 45.7118 50.3285 45.7118 55.9962C45.7118 61.6639 50.3074 66.3131 55.9751 66.3131L65.8835 66.3016V66.3054Z" fill="url(#paint1_linear_1961_9290)" fill-opacity="0.57"/>
</g>
<defs>
<filter id="filter0_d_1961_9290" x="0" y="0" width="167.946" height="112" filterUnits="userSpaceOnUse" color-interpolation-filters="sRGB">
<feFlood flood-opacity="0" result="BackgroundImageFix"/>
<feColorMatrix in="SourceAlpha" type="matrix" values="0 0 0 0 0 0 0 0 0 0 0 0 0 0 0 0 0 0 127 0" result="hardAlpha"/>
<feOffset/>
<feGaussianBlur stdDeviation="16"/>
<feComposite in2="hardAlpha" operator="out"/>
<feColorMatrix type="matrix" values="0 0 0 0 0 0 0 0 0 0 0 0 0 0 0 0 0 0 0.03 0"/>
<feBlend mode="normal" in2="BackgroundImageFix" result="effect1_dropShadow_1961_9290"/>
<feBlend mode="normal" in="SourceGraphic" in2="effect1_dropShadow_1961_9290" result="shape"/>
</filter>
<linearGradient id="paint0_linear_1961_9290" x1="30.96" y1="80.2529" x2="73.0616" y2="-1.26646" gradientUnits="userSpaceOnUse">
<stop offset="0.114812" stop-color="#B39257"/>
<stop offset="0.814205" stop-color="#DEC79F"/>
</linearGradient>
<linearGradient id="paint1_linear_1961_9290" x1="30.96" y1="80.2529" x2="73.0616" y2="-1.26646" gradientUnits="userSpaceOnUse">
<stop offset="0.114812" stop-color="#B39257"/>
<stop offset="0.814205" stop-color="#DEC79F"/>
</linearGradient>
</defs>
</svg>
