<svg width="169" height="112" viewBox="0 0 169 112" fill="none" xmlns="http://www.w3.org/2000/svg">
<g filter="url(#filter0_d_1302_10467)">
<path fill-rule="evenodd" clip-rule="evenodd" d="M65.1287 32.0249C65.1287 32.0038 56.1831 32.0249 56.1831 32.0249C42.9431 32.0249 32.21 42.7581 32.21 55.9981C32.21 69.2381 42.9431 79.9731 56.185 79.9731L73.004 79.9597C77.2294 79.9597 80.6549 76.561 80.6549 72.3357L80.6645 57.7128L92.2896 76.0489C93.8623 78.4292 96.561 79.9981 99.6259 79.9981C104.478 79.9981 108.412 76.0643 108.412 71.2117V57.7147L120.034 76.0508C121.606 78.4311 124.305 80 127.37 80C132.222 80 136.156 76.0662 136.156 71.2136V32.0019H130.172V71.2098C130.172 72.7576 128.918 74.012 127.37 74.012C126.403 74.012 125.55 73.5229 125.045 72.7768L104.354 40.186C104.162 39.9079 103.842 39.7257 103.479 39.7257C102.894 39.7257 102.419 40.2014 102.419 40.7864L102.424 71.2098C102.424 72.7576 101.17 74.012 99.6221 74.012C98.6554 74.012 97.8019 73.5229 97.2975 72.7768L76.6079 40.186C76.4161 39.9079 76.0958 39.7257 75.7333 39.7257C75.1483 39.7257 74.6727 40.2014 74.6727 40.7864L74.6688 72.3357C74.6688 73.2563 73.9227 74.0024 73.0021 74.0024L56.1831 73.989C46.2478 73.989 38.1922 65.9333 38.1922 55.9981C38.1922 46.0628 46.2498 38.0091 56.185 38.0091L65.1306 38.0034V32.0249H65.1287Z" fill="url(#paint0_linear_1302_10467)" fill-opacity="0.75"/>
<path fill-rule="evenodd" clip-rule="evenodd" d="M65.1287 32.0249C65.1287 32.0038 56.1831 32.0249 56.1831 32.0249C42.9431 32.0249 32.21 42.7581 32.21 55.9981C32.21 69.2381 42.9431 79.9731 56.185 79.9731L73.004 79.9597C77.2294 79.9597 80.6549 76.561 80.6549 72.3357L80.6645 57.7128L92.2896 76.0489C93.8623 78.4292 96.561 79.9981 99.6259 79.9981C104.478 79.9981 108.412 76.0643 108.412 71.2117V57.7147L120.034 76.0508C121.606 78.4311 124.305 80 127.37 80C132.222 80 136.156 76.0662 136.156 71.2136V32.0019H130.172V71.2098C130.172 72.7576 128.918 74.012 127.37 74.012C126.403 74.012 125.55 73.5229 125.045 72.7768L104.354 40.186C104.162 39.9079 103.842 39.7257 103.479 39.7257C102.894 39.7257 102.419 40.2014 102.419 40.7864L102.424 71.2098C102.424 72.7576 101.17 74.012 99.6221 74.012C98.6554 74.012 97.8019 73.5229 97.2975 72.7768L76.6079 40.186C76.4161 39.9079 76.0958 39.7257 75.7333 39.7257C75.1483 39.7257 74.6727 40.2014 74.6727 40.7864L74.6688 72.3357C74.6688 73.2563 73.9227 74.0024 73.0021 74.0024L56.1831 73.989C46.2478 73.989 38.1922 65.9333 38.1922 55.9981C38.1922 46.0628 46.2498 38.0091 56.185 38.0091L65.1306 38.0034V32.0249H65.1287Z" fill="#3D4043" fill-opacity="0.5"/>
<path fill-rule="evenodd" clip-rule="evenodd" d="M66.0934 66.3054C66.5634 66.3054 66.945 65.9238 66.945 65.4538V40.7864C66.947 35.9338 70.8808 32 75.7333 32C78.8098 32 81.5161 33.5804 83.087 35.9741L94.6717 54.1472L94.6928 40.7864C94.6928 35.9338 98.6266 32 103.479 32C106.556 32 109.262 33.5804 110.833 35.9741L122.418 54.1472V32.0019H128.44L128.429 71.2098C128.429 71.7948 127.953 72.2704 127.368 72.2704C127.021 72.2704 126.714 72.1036 126.52 71.8466L105.804 39.2194C105.301 38.4733 104.448 37.9842 103.479 37.9842C101.931 37.9842 100.677 39.2386 100.677 40.7864L100.685 71.2098C100.685 71.7948 100.209 72.2704 99.624 72.2704C99.2768 72.2704 98.97 72.1036 98.7762 71.8466L78.058 39.2194C77.5535 38.4733 76.7019 37.9842 75.7333 37.9842C74.1855 37.9842 72.9311 39.2386 72.9311 40.7864L72.9446 71.4515C72.9446 71.9214 72.5629 72.303 72.093 72.303L56.185 72.2992C47.2107 72.2992 39.9376 64.9705 39.9376 55.9981C39.9376 47.0257 47.2107 39.697 56.185 39.697C56.185 39.697 65.1306 39.6624 65.1306 39.697V45.7406L56.185 45.7329C50.5173 45.7329 45.9218 50.3285 45.9218 55.9962C45.9218 61.6639 50.5173 66.3131 56.185 66.3131L66.0934 66.3016V66.3054Z" fill="url(#paint1_linear_1302_10467)" fill-opacity="0.75"/>
<path fill-rule="evenodd" clip-rule="evenodd" d="M66.0934 66.3054C66.5634 66.3054 66.945 65.9238 66.945 65.4538V40.7864C66.947 35.9338 70.8808 32 75.7333 32C78.8098 32 81.5161 33.5804 83.087 35.9741L94.6717 54.1472L94.6928 40.7864C94.6928 35.9338 98.6266 32 103.479 32C106.556 32 109.262 33.5804 110.833 35.9741L122.418 54.1472V32.0019H128.44L128.429 71.2098C128.429 71.7948 127.953 72.2704 127.368 72.2704C127.021 72.2704 126.714 72.1036 126.52 71.8466L105.804 39.2194C105.301 38.4733 104.448 37.9842 103.479 37.9842C101.931 37.9842 100.677 39.2386 100.677 40.7864L100.685 71.2098C100.685 71.7948 100.209 72.2704 99.624 72.2704C99.2768 72.2704 98.97 72.1036 98.7762 71.8466L78.058 39.2194C77.5535 38.4733 76.7019 37.9842 75.7333 37.9842C74.1855 37.9842 72.9311 39.2386 72.9311 40.7864L72.9446 71.4515C72.9446 71.9214 72.5629 72.303 72.093 72.303L56.185 72.2992C47.2107 72.2992 39.9376 64.9705 39.9376 55.9981C39.9376 47.0257 47.2107 39.697 56.185 39.697C56.185 39.697 65.1306 39.6624 65.1306 39.697V45.7406L56.185 45.7329C50.5173 45.7329 45.9218 50.3285 45.9218 55.9962C45.9218 61.6639 50.5173 66.3131 56.185 66.3131L66.0934 66.3016V66.3054Z" fill="#3D4043" fill-opacity="0.5"/>
</g>
<defs>
<filter id="filter0_d_1302_10467" x="0.209961" y="0" width="167.946" height="112" filterUnits="userSpaceOnUse" color-interpolation-filters="sRGB">
<feFlood flood-opacity="0" result="BackgroundImageFix"/>
<feColorMatrix in="SourceAlpha" type="matrix" values="0 0 0 0 0 0 0 0 0 0 0 0 0 0 0 0 0 0 127 0" result="hardAlpha"/>
<feOffset/>
<feGaussianBlur stdDeviation="16"/>
<feComposite in2="hardAlpha" operator="out"/>
<feColorMatrix type="matrix" values="0 0 0 0 0 0 0 0 0 0 0 0 0 0 0 0 0 0 0.03 0"/>
<feBlend mode="normal" in2="BackgroundImageFix" result="effect1_dropShadow_1302_10467"/>
<feBlend mode="normal" in="SourceGraphic" in2="effect1_dropShadow_1302_10467" result="shape"/>
</filter>
<linearGradient id="paint0_linear_1302_10467" x1="31.17" y1="80.2529" x2="73.2716" y2="-1.26646" gradientUnits="userSpaceOnUse">
<stop offset="0.114812" stop-color="#B39257"/>
<stop offset="0.814205" stop-color="#DEC79F"/>
</linearGradient>
<linearGradient id="paint1_linear_1302_10467" x1="31.17" y1="80.2529" x2="73.2716" y2="-1.26646" gradientUnits="userSpaceOnUse">
<stop offset="0.114812" stop-color="#B39257"/>
<stop offset="0.814205" stop-color="#DEC79F"/>
</linearGradient>
</defs>
</svg>
