<svg width="183" height="28" viewBox="0 0 183 28" fill="none" xmlns="http://www.w3.org/2000/svg">
<g id="Delta logo">
<g id="Combined Shape">
<path fill-rule="evenodd" clip-rule="evenodd" d="M0.198486 24.5397L16.4393 17.2442L32.6801 24.5397L16.4393 0L0.198486 24.5397ZM63.6099 17.7596C63.2555 18.7363 62.7622 19.5165 62.1431 20.0802C61.7213 20.463 61.1333 20.7693 60.393 20.989C59.6146 21.2209 58.4999 21.339 57.0792 21.339H52.9718V7.02835H57.0022C58.6972 7.02835 59.9234 7.15595 60.6463 7.40934C61.6138 7.75251 62.4233 8.42199 63.1188 9.45743C63.8112 10.4888 64.162 12.0269 64.162 14.028C64.162 15.4964 63.9766 16.7511 63.6099 17.7596ZM64.8996 5.01519C63.8947 4.23405 62.6703 3.68717 61.2619 3.39231C60.2711 3.18221 58.8964 3.08013 57.0602 3.08013H49.2245H48.4811V25.2869H57.4324C58.8581 25.2869 60.1418 25.1615 61.2477 24.9159C62.3842 24.663 63.3736 24.2829 64.189 23.7875C65.0103 23.2857 65.7723 22.5944 66.4556 21.7335C67.1375 20.8726 67.7014 19.7806 68.131 18.4895C68.5573 17.203 68.7737 15.7164 68.7737 14.0707C68.7737 12.1343 68.4544 10.382 67.8244 8.86116C67.1808 7.30755 66.1964 6.01462 64.8996 5.01519ZM85.9213 15.7747H96.357V11.8266H85.9213V7.02818H97.1218V3.08013H96.3789H81.7014V25.2864H97.6138V21.3384H85.9213V15.7747ZM115.611 3.08013H116.355V21.3384H126.518V25.2869H112.136V3.08013H115.611ZM134.09 3.08013V7.02818H140.92V25.2869H145.139V7.02818H151.969V3.08013H151.226H134.09ZM169.909 10.2168C169.909 10.2168 168.532 13.8718 168.004 15.2709H172.924C172.41 13.9055 171.151 10.5618 171.151 10.5618L170.428 8.42757C170.362 8.64776 170.304 8.87044 170.245 9.09287L170.245 9.09312L170.245 9.09339C170.146 9.47341 170.046 9.85272 169.908 10.2177L169.909 10.2168ZM171.95 3.08013H172.452L182.326 25.2869H177.598L175.238 19H165.736C165.437 19.8376 163.489 25.2869 163.489 25.2869H158.995L168.41 3.08013H171.95ZM16.4393 28.0003H0.254536L16.4393 20.4583L32.6241 28.0003H16.4393ZM35.3696 23.5383H34.9717V23.2017L35.3006 23.2037H35.3056C35.4376 23.2037 35.6259 23.2036 35.6259 23.3595C35.6259 23.5096 35.5188 23.5403 35.3696 23.5383ZM35.7644 23.1091C35.7536 23.101 35.742 23.0934 35.7295 23.0863C35.6288 23.0355 35.4778 23.0345 35.3637 23.0345H34.7113V24.2103L34.9717 24.2118V23.7169H35.2391L35.5399 24.2118L35.5504 24.2118C35.4256 24.2951 35.275 24.3436 35.1116 24.3436C34.6729 24.3436 34.3213 23.9922 34.3213 23.5547C34.3222 23.1145 34.6729 22.7645 35.1116 22.7645C35.3856 22.7645 35.6237 22.9005 35.7644 23.1091ZM35.8881 23.4196C35.8788 23.619 35.7508 23.7021 35.5188 23.7169L35.7347 24.0398C35.8381 23.906 35.8992 23.7376 35.8992 23.5538C35.8992 23.508 35.8954 23.4632 35.8881 23.4196ZM35.8405 24.1978C35.9913 24.0257 36.0827 23.8002 36.0827 23.5544C36.0827 23.0184 35.6468 22.5818 35.1115 22.5818C34.5736 22.5818 34.1376 23.0184 34.1376 23.5544C34.1376 24.0903 34.5736 24.5297 35.1115 24.5297C35.396 24.5297 35.6517 24.4062 35.8293 24.2104L35.8488 24.2103L35.8405 24.1978Z" fill="#736757"/>
<path fill-rule="evenodd" clip-rule="evenodd" d="M0.198486 24.5397L16.4393 17.2442L32.6801 24.5397L16.4393 0L0.198486 24.5397ZM63.6099 17.7596C63.2555 18.7363 62.7622 19.5165 62.1431 20.0802C61.7213 20.463 61.1333 20.7693 60.393 20.989C59.6146 21.2209 58.4999 21.339 57.0792 21.339H52.9718V7.02835H57.0022C58.6972 7.02835 59.9234 7.15595 60.6463 7.40934C61.6138 7.75251 62.4233 8.42199 63.1188 9.45743C63.8112 10.4888 64.162 12.0269 64.162 14.028C64.162 15.4964 63.9766 16.7511 63.6099 17.7596ZM64.8996 5.01519C63.8947 4.23405 62.6703 3.68717 61.2619 3.39231C60.2711 3.18221 58.8964 3.08013 57.0602 3.08013H49.2245H48.4811V25.2869H57.4324C58.8581 25.2869 60.1418 25.1615 61.2477 24.9159C62.3842 24.663 63.3736 24.2829 64.189 23.7875C65.0103 23.2857 65.7723 22.5944 66.4556 21.7335C67.1375 20.8726 67.7014 19.7806 68.131 18.4895C68.5573 17.203 68.7737 15.7164 68.7737 14.0707C68.7737 12.1343 68.4544 10.382 67.8244 8.86116C67.1808 7.30755 66.1964 6.01462 64.8996 5.01519ZM85.9213 15.7747H96.357V11.8266H85.9213V7.02818H97.1218V3.08013H96.3789H81.7014V25.2864H97.6138V21.3384H85.9213V15.7747ZM115.611 3.08013H116.355V21.3384H126.518V25.2869H112.136V3.08013H115.611ZM134.09 3.08013V7.02818H140.92V25.2869H145.139V7.02818H151.969V3.08013H151.226H134.09ZM169.909 10.2168C169.909 10.2168 168.532 13.8718 168.004 15.2709H172.924C172.41 13.9055 171.151 10.5618 171.151 10.5618L170.428 8.42757C170.362 8.64776 170.304 8.87044 170.245 9.09287L170.245 9.09312L170.245 9.09339C170.146 9.47341 170.046 9.85272 169.908 10.2177L169.909 10.2168ZM171.95 3.08013H172.452L182.326 25.2869H177.598L175.238 19H165.736C165.437 19.8376 163.489 25.2869 163.489 25.2869H158.995L168.41 3.08013H171.95ZM16.4393 28.0003H0.254536L16.4393 20.4583L32.6241 28.0003H16.4393ZM35.3696 23.5383H34.9717V23.2017L35.3006 23.2037H35.3056C35.4376 23.2037 35.6259 23.2036 35.6259 23.3595C35.6259 23.5096 35.5188 23.5403 35.3696 23.5383ZM35.7644 23.1091C35.7536 23.101 35.742 23.0934 35.7295 23.0863C35.6288 23.0355 35.4778 23.0345 35.3637 23.0345H34.7113V24.2103L34.9717 24.2118V23.7169H35.2391L35.5399 24.2118L35.5504 24.2118C35.4256 24.2951 35.275 24.3436 35.1116 24.3436C34.6729 24.3436 34.3213 23.9922 34.3213 23.5547C34.3222 23.1145 34.6729 22.7645 35.1116 22.7645C35.3856 22.7645 35.6237 22.9005 35.7644 23.1091ZM35.8881 23.4196C35.8788 23.619 35.7508 23.7021 35.5188 23.7169L35.7347 24.0398C35.8381 23.906 35.8992 23.7376 35.8992 23.5538C35.8992 23.508 35.8954 23.4632 35.8881 23.4196ZM35.8405 24.1978C35.9913 24.0257 36.0827 23.8002 36.0827 23.5544C36.0827 23.0184 35.6468 22.5818 35.1115 22.5818C34.5736 22.5818 34.1376 23.0184 34.1376 23.5544C34.1376 24.0903 34.5736 24.5297 35.1115 24.5297C35.396 24.5297 35.6517 24.4062 35.8293 24.2104L35.8488 24.2103L35.8405 24.1978Z" fill="#3D4043"/>
</g>
<g id="Group 3">
<g id="Combined Shape_2">
<path fill-rule="evenodd" clip-rule="evenodd" d="M16.4393 17.2438L0.198486 24.5392L16.4393 0V17.2438ZM16.439 27.9992H0.254248L16.439 20.4571V27.9992Z" fill="#EC7F00"/>
<path fill-rule="evenodd" clip-rule="evenodd" d="M16.4393 17.2438L0.198486 24.5392L16.4393 0V17.2438ZM16.439 27.9992H0.254248L16.439 20.4571V27.9992Z" fill="#908271"/>
<path fill-rule="evenodd" clip-rule="evenodd" d="M16.4393 17.2438L0.198486 24.5392L16.4393 0V17.2438ZM16.439 27.9992H0.254248L16.439 20.4571V27.9992Z" fill="url(#paint0_linear_185_3388)"/>
</g>
</g>
</g>
<defs>
<linearGradient id="paint0_linear_185_3388" x1="0.0361181" y1="28.1469" x2="24.6542" y2="15.3793" gradientUnits="userSpaceOnUse">
<stop offset="0.161458" stop-color="#AC883B"/>
<stop offset="0.609375" stop-color="#E2CD83"/>
<stop offset="0.817708" stop-color="#EFEDB5"/>
</linearGradient>
</defs>
</svg>
