<svg width="40" height="40" viewBox="0 0 40 40" fill="none" xmlns="http://www.w3.org/2000/svg">
<rect width="40" height="40" rx="20" fill="white"/>
<rect width="40" height="40" rx="20" fill="#EEEAE8"/>
<rect width="40" height="40" rx="20" fill="#F7F5F2"/>
<path d="M12.0869 20.0004C12.0869 21.9094 12.6795 23.5953 13.8648 25.0581C15.05 26.5209 16.56 27.453 18.3946 27.8543C18.5869 27.9017 18.742 28.0065 18.86 28.1687C18.9779 28.3308 19.0369 28.5132 19.0369 28.7158C19.0369 28.9183 18.9645 29.0847 18.8196 29.2148C18.6747 29.3449 18.5112 29.3914 18.3292 29.3542C16.0856 28.9388 14.2343 27.8587 12.7754 26.1138C11.3164 24.369 10.5869 22.3312 10.5869 20.0004C10.5869 17.6696 11.3206 15.6318 12.7879 13.887C14.2552 12.1421 16.1106 11.062 18.3542 10.6466C18.5362 10.6094 18.6997 10.6559 18.8446 10.786C18.9895 10.9161 19.0619 11.0825 19.0619 11.285C19.0619 11.4876 19.0029 11.67 18.885 11.8321C18.767 11.9943 18.6119 12.0991 18.4196 12.1466C16.5747 12.5478 15.058 13.4783 13.8696 14.9379C12.6811 16.3975 12.0869 18.085 12.0869 20.0004ZM20.7869 21.7658L23.0792 19.4735C23.2279 19.3248 23.4071 19.2488 23.6167 19.2456C23.8263 19.2424 24.0087 19.3184 24.1638 19.4735C24.3189 19.6286 24.3939 19.8094 24.3888 20.0158C24.3837 20.2222 24.3035 20.4029 24.1484 20.5581L20.6696 24.0369C20.4888 24.2177 20.2779 24.3081 20.0369 24.3081C19.7959 24.3081 19.585 24.2177 19.4042 24.0369L15.8946 20.5119C15.7459 20.3632 15.6725 20.1866 15.6744 19.9821C15.6763 19.7776 15.7548 19.5978 15.91 19.4427C16.0651 19.2876 16.2433 19.21 16.4446 19.21C16.6458 19.21 16.824 19.2876 16.9792 19.4427L19.2869 21.7658V16.1119C19.2869 15.8991 19.3587 15.7209 19.5023 15.5773C19.6459 15.4337 19.8241 15.362 20.0369 15.362C20.2497 15.362 20.4279 15.4337 20.5715 15.5773C20.7151 15.7209 20.7869 15.8991 20.7869 16.1119V21.7658ZM24.2984 26.7754C24.4843 26.6574 24.6878 26.6036 24.909 26.6139C25.1301 26.6241 25.3234 26.7119 25.4888 26.8773C25.6439 27.026 25.708 27.2042 25.6811 27.4119C25.6542 27.6196 25.5529 27.7792 25.3773 27.8908C24.8311 28.2433 24.2583 28.5404 23.659 28.7821C23.0596 29.0237 22.442 29.2112 21.8061 29.3446C21.6035 29.3882 21.4247 29.3475 21.2696 29.2225C21.1144 29.0975 21.0369 28.9286 21.0369 28.7158C21.0369 28.5029 21.1035 28.317 21.2369 28.1581C21.3702 27.9991 21.5465 27.8876 21.7657 27.8235C22.2157 27.7235 22.6526 27.5841 23.0763 27.4052C23.5 27.2264 23.9074 27.0164 24.2984 26.7754ZM21.8061 12.1869C21.5933 12.1228 21.416 12.0097 21.2744 11.8475C21.1327 11.6853 21.0619 11.4978 21.0619 11.285C21.0619 11.0722 21.1353 10.9033 21.2821 10.7783C21.4289 10.6533 21.6035 10.6094 21.8061 10.6466C22.4522 10.7799 23.0776 10.969 23.6821 11.2139C24.2865 11.4588 24.8619 11.7626 25.408 12.1254C25.5837 12.2434 25.6798 12.402 25.6965 12.6014C25.7132 12.8007 25.6523 12.978 25.5138 13.1331C25.3587 13.2985 25.1705 13.3863 24.9494 13.3966C24.7282 13.4068 24.5215 13.353 24.3292 13.235C23.9382 12.994 23.5324 12.7857 23.1119 12.61C22.6914 12.4344 22.2561 12.2933 21.8061 12.1869ZM27.8446 21.7446C27.9087 21.5318 28.0228 21.3545 28.1869 21.2129C28.351 21.0712 28.5394 21.0004 28.7522 21.0004C28.9651 21.0004 29.1365 21.0815 29.2667 21.2437C29.3968 21.4058 29.4381 21.5882 29.3907 21.7908C29.2638 22.4369 29.0737 23.0571 28.8205 23.6513C28.5673 24.2456 28.2593 24.8126 27.8965 25.3523C27.7785 25.5279 27.6199 25.619 27.4205 25.6254C27.2212 25.6318 27.0523 25.5658 26.9138 25.4273C26.7587 25.2722 26.6734 25.0866 26.658 24.8706C26.6426 24.6546 26.6939 24.4536 26.8119 24.2677C27.0529 23.8767 27.2603 23.4735 27.434 23.0581C27.6077 22.6427 27.7446 22.2049 27.8446 21.7446ZM26.8215 15.7273C26.7035 15.535 26.6523 15.3318 26.6676 15.1177C26.683 14.9036 26.7683 14.719 26.9234 14.5639C27.0683 14.419 27.2404 14.3555 27.4397 14.3735C27.6391 14.3914 27.7977 14.4831 27.9157 14.6485C28.2759 15.1946 28.5795 15.7668 28.8263 16.3648C29.0731 16.9629 29.2631 17.585 29.3965 18.2312C29.44 18.4337 29.3968 18.6126 29.2667 18.7677C29.1365 18.9228 28.9651 19.0004 28.7522 19.0004C28.5394 19.0004 28.351 18.927 28.1869 18.7802C28.0228 18.6334 27.9087 18.4536 27.8446 18.2408C27.7446 17.7908 27.6093 17.3571 27.4388 16.9398C27.2683 16.5225 27.0625 16.1183 26.8215 15.7273Z" fill="#3D4043"/>
</svg>
