<svg width="106" height="72" viewBox="0 0 106 72" fill="none" xmlns="http://www.w3.org/2000/svg">
<path fill-rule="evenodd" clip-rule="evenodd" d="M58.9981 4.20913C58.695 4.50969 57.6366 6.16309 57.6366 8.11705V20.142C57.6366 21.0437 57.1825 22.2466 56.7285 22.6978C56.4266 22.9977 54.611 24.6511 54.3085 24.8017H55.3669C55.821 24.5011 59.4515 21.3443 59.7546 20.8938C60.2087 20.2926 61.4187 18.9398 61.4187 16.8352V5.11081C61.4187 3.4574 62.1752 2.40512 62.6286 1.95396C63.0827 1.50344 64.4442 0.301196 64.7467 0.150598L63.6877 0C63.3845 0.301196 59.4515 3.90856 58.9981 4.20913Z" fill="url(#paint0_linear_208_4315)"/>
<path fill-rule="evenodd" clip-rule="evenodd" d="M50.0725 48.1001L54.4596 52.008H57.4851C60.5107 52.008 63.2337 50.6552 65.0487 48.8518C66.8643 47.0478 67.4699 44.6433 67.4699 42.3888V36.0751C67.4699 33.9705 66.2593 32.7683 65.8052 32.4677C65.6543 32.1672 64.2928 30.9643 64.2928 30.9643V35.7745C64.2928 35.7745 65.8052 37.278 65.9561 37.5779C67.3177 38.9307 67.3177 41.4865 63.2337 45.545C62.4772 46.1461 60.3591 48.1001 57.4851 48.1001H50.0725Z" fill="url(#paint1_linear_208_4315)"/>
<path fill-rule="evenodd" clip-rule="evenodd" d="M68.0745 26.0048C68.0745 26.0048 69.1329 27.357 69.587 27.6582C71.5535 29.1611 72.4609 27.5076 71.0994 25.8542C70.646 25.1032 68.6795 25.4037 68.0745 26.0048ZM62.3261 22.3976C61.8721 22.8481 61.4186 24.2009 61.4186 25.2532V27.6583H63.8386C64.7467 27.6583 65.956 26.7567 66.2591 26.3055V24.0503C66.2591 24.0503 66.8641 24.9527 67.6207 25.4038C67.7716 25.1033 70.0406 22.3976 71.8562 22.3976C75.0333 22.3976 74.2768 26.1549 73.0668 27.5077C72.6127 27.8083 70.7971 29.4617 70.1922 30.0635C68.8313 31.4157 66.2591 30.8146 66.2591 27.2072C66.2591 27.2072 63.5361 29.7629 63.2336 30.0635C62.7795 30.3634 61.4186 31.8668 61.4186 31.8668V38.0293C61.4186 41.0355 60.3596 42.0885 59.6031 42.9895C59.2999 43.2907 55.821 46.4475 55.3669 46.7481H54.3085C54.3085 46.7481 56.275 44.9441 56.7284 44.6435C57.1825 44.0424 57.6365 43.1401 57.6365 41.6373V31.7162H42.2056C36.7602 31.7162 35.7011 25.8543 35.5496 24.2009V18.339C35.5496 17.2868 34.9446 15.6334 34.0371 15.1822H35.5496C35.7011 15.1822 36.6086 15.6334 36.6086 19.2407V23.7498C36.6086 25.5538 37.9701 27.6583 40.2398 27.6583H57.6365C57.6365 27.2072 58.0906 25.4038 58.9981 24.5015C59.4515 23.9004 63.2336 20.5936 63.6876 20.1424H64.7467C64.5951 20.293 62.7795 21.9464 62.3261 22.3976Z" fill="url(#paint2_linear_208_4315)"/>
<path fill-rule="evenodd" clip-rule="evenodd" d="M49.3161 37.1275C49.3161 38.0291 46.593 40.2837 46.4421 40.4343C46.2905 39.5326 45.6855 38.4803 43.5675 36.5263L46.593 33.5201C48.5602 35.4741 49.3161 35.9246 49.3161 37.1275Z" fill="url(#paint3_linear_208_4315)"/>
<path fill-rule="evenodd" clip-rule="evenodd" d="M44.1729 19.8411C43.4163 20.7427 43.2654 20.8933 42.5089 21.3445H51.7371C54.1576 21.3445 53.7036 19.8411 53.2495 19.0893C52.3421 17.4359 49.4674 14.4297 49.4674 14.4297C49.4674 14.4297 44.3244 19.6911 44.1729 19.8411ZM54.4592 3.45677C55.0649 4.05853 56.4264 5.71193 55.5183 6.46302C54.9133 7.06477 53.8542 8.26702 53.8542 8.26702C53.8542 7.81649 52.7952 6.91418 52.7952 6.91418V10.071C52.7952 11.4239 52.3418 11.7244 52.3418 11.7244C52.3418 11.7244 54.7617 14.1295 54.7617 17.1352V20.1414C54.7617 20.7425 54.4592 21.3443 54.1574 21.7954C53.8542 21.9454 51.7368 24.1999 51.2828 24.5005C50.6778 25.1022 50.0728 25.1022 49.4672 25.1022H41.2986C40.088 25.1022 38.7265 24.1999 38.7265 23.1476V20.1414C39.1805 20.5926 39.6346 21.1937 40.5421 21.1937C41.4496 21.1937 42.2061 20.442 42.5086 20.292C42.6595 19.9914 48.7113 13.829 48.7113 13.829C48.7113 13.829 45.8366 11.2733 44.0217 10.071C43.1136 9.46926 41.9036 10.221 41.752 10.9727C41.2986 13.5278 41.752 17.1352 41.752 17.1352C41.752 17.1352 39.9371 15.3318 39.483 14.8806C38.5756 13.9789 38.5756 12.025 39.7855 10.8227C39.9371 10.6721 41.6011 8.86814 43.7192 8.86814H46.8957C49.1647 8.86814 51.5852 10.9727 51.5852 10.9727C51.5852 10.9727 51.8877 10.6721 51.8877 10.221V6.16245C50.2237 4.50905 49.9212 2.85565 50.8287 1.95396C52.1909 0.601122 52.7952 0 52.7952 0C52.7952 0 52.7952 1.80337 54.4592 3.45677Z" fill="url(#paint4_linear_208_4315)"/>
<path fill-rule="evenodd" clip-rule="evenodd" d="M33.7348 28.2589H32.0708C32.0708 28.2589 33.7348 29.1606 33.7348 31.4151V38.7811C33.7348 43.5907 37.6678 47.9498 42.509 47.9498H46.5929C49.0141 47.9498 49.7701 47.3487 51.2832 45.9958C51.7366 45.5447 52.4931 44.7936 52.7956 44.4924C53.5522 43.5907 54.4596 42.839 54.4596 40.4339V38.0288C54.4596 35.9248 53.2497 35.0231 52.6447 34.4214C52.3422 34.1215 51.2832 33.0692 51.2832 33.0692V38.0288C51.2832 38.0288 52.3422 39.081 52.7956 39.5322C54.9137 41.035 53.2497 43.8919 51.2832 43.8919H42.3574C39.1809 44.0419 34.7939 41.1862 34.7939 36.376V32.3175C34.7939 28.2589 33.7348 28.2589 33.7348 28.2589Z" fill="url(#paint5_linear_208_4315)"/>
<path fill-rule="evenodd" clip-rule="evenodd" d="M43.2652 37.1275C43.2652 38.0291 40.5428 40.2837 40.5428 40.4343C40.2403 39.5326 39.6347 38.4803 37.5172 36.5263L40.5428 33.5201C42.5087 35.4741 43.2652 35.9246 43.2652 37.1275Z" fill="url(#paint6_linear_208_4315)"/>
<path fill-rule="evenodd" clip-rule="evenodd" d="M12.4047 69.7459H7.71513C6.20203 69.7459 6.3536 68.5431 6.20203 67.4908V60.7272H8.47167C9.68164 60.7272 11.3457 60.5766 12.8581 61.4783C12.8581 61.4783 11.7997 58.6226 8.47167 58.6226H6.20203V56.5187C6.20203 56.5187 6.20203 54.7147 5.74861 54.113H8.92509C11.4972 54.113 13.6153 54.113 15.8837 55.4658C15.8837 55.4658 15.4303 52.009 10.1357 52.009H0C0 52.009 1.81495 53.5118 1.66402 56.5187L1.81495 68.8436C1.81495 71.8505 3.02555 72.0005 3.02555 72.0005H13.0097C15.2793 72.0005 16.1868 70.3471 16.1868 69.4448V68.2425C16.1868 68.2425 15.4303 69.7459 12.4047 69.7459Z" fill="#736757"/>
<path fill-rule="evenodd" clip-rule="evenodd" d="M12.4047 69.7459H7.71513C6.20203 69.7459 6.3536 68.5431 6.20203 67.4908V60.7272H8.47167C9.68164 60.7272 11.3457 60.5766 12.8581 61.4783C12.8581 61.4783 11.7997 58.6226 8.47167 58.6226H6.20203V56.5187C6.20203 56.5187 6.20203 54.7147 5.74861 54.113H8.92509C11.4972 54.113 13.6153 54.113 15.8837 55.4658C15.8837 55.4658 15.4303 52.009 10.1357 52.009H0C0 52.009 1.81495 53.5118 1.66402 56.5187L1.81495 68.8436C1.81495 71.8505 3.02555 72.0005 3.02555 72.0005H13.0097C15.2793 72.0005 16.1868 70.3471 16.1868 69.4448V68.2425C16.1868 68.2425 15.4303 69.7459 12.4047 69.7459Z" fill="#3D4043"/>
<path fill-rule="evenodd" clip-rule="evenodd" d="M39.1807 68.6925V60.1249C39.1807 56.8181 36.4576 55.9164 34.3402 55.9164C31.768 55.9164 30.8606 58.1703 30.5581 58.922C29.9531 56.8181 27.835 55.9164 26.171 55.9164C22.843 55.9164 22.0864 58.922 22.0864 58.922C22.0864 58.922 21.9355 56.0664 19.3633 56.0664H16.7919C16.7919 56.0664 18.3043 56.6675 18.3043 59.2232V68.6925C18.3043 71.8493 19.5149 71.9993 19.5149 71.9993H23.7504C23.5989 71.8493 22.0864 70.797 22.0864 68.6925V60.2748C22.238 59.8243 22.843 58.6214 24.6585 58.6214C25.7169 58.6214 26.776 59.6737 26.776 60.876V68.6925C26.776 71.8493 27.9859 71.8493 27.9859 71.8493H32.2221C32.2221 71.8493 30.709 70.797 30.709 68.6925V60.2748C30.8606 59.8243 31.314 58.6214 32.9787 58.6214C34.1886 58.6214 35.2477 59.6737 35.2477 60.876V68.6925C35.2477 71.9993 36.6092 71.8493 36.6092 71.8493H40.8453C40.8453 71.8493 39.1807 70.797 39.1807 68.6925Z" fill="#736757"/>
<path fill-rule="evenodd" clip-rule="evenodd" d="M39.1807 68.6925V60.1249C39.1807 56.8181 36.4576 55.9164 34.3402 55.9164C31.768 55.9164 30.8606 58.1703 30.5581 58.922C29.9531 56.8181 27.835 55.9164 26.171 55.9164C22.843 55.9164 22.0864 58.922 22.0864 58.922C22.0864 58.922 21.9355 56.0664 19.3633 56.0664H16.7919C16.7919 56.0664 18.3043 56.6675 18.3043 59.2232V68.6925C18.3043 71.8493 19.5149 71.9993 19.5149 71.9993H23.7504C23.5989 71.8493 22.0864 70.797 22.0864 68.6925V60.2748C22.238 59.8243 22.843 58.6214 24.6585 58.6214C25.7169 58.6214 26.776 59.6737 26.776 60.876V68.6925C26.776 71.8493 27.9859 71.8493 27.9859 71.8493H32.2221C32.2221 71.8493 30.709 70.797 30.709 68.6925V60.2748C30.8606 59.8243 31.314 58.6214 32.9787 58.6214C34.1886 58.6214 35.2477 59.6737 35.2477 60.876V68.6925C35.2477 71.9993 36.6092 71.8493 36.6092 71.8493H40.8453C40.8453 71.8493 39.1807 70.797 39.1807 68.6925Z" fill="#3D4043"/>
<path fill-rule="evenodd" clip-rule="evenodd" d="M46.5931 68.6932C46.5931 70.7977 48.2578 71.85 48.2578 71.85H44.0216C44.0216 71.85 42.6601 72 42.6601 68.6932V59.2239C42.6601 56.6682 41.2985 56.0671 41.2985 56.0671H43.87C44.7782 56.0671 46.5931 56.0671 46.5931 59.5238V68.6932Z" fill="#736757"/>
<path fill-rule="evenodd" clip-rule="evenodd" d="M46.5931 68.6932C46.5931 70.7977 48.2578 71.85 48.2578 71.85H44.0216C44.0216 71.85 42.6601 72 42.6601 68.6932V59.2239C42.6601 56.6682 41.2985 56.0671 41.2985 56.0671H43.87C44.7782 56.0671 46.5931 56.0671 46.5931 59.5238V68.6932Z" fill="#3D4043"/>
<path fill-rule="evenodd" clip-rule="evenodd" d="M59.6034 57.2692C59.6034 57.2692 59.3003 56.0664 57.4853 56.0664C54.7623 56.0664 54.1573 59.2232 54.1573 59.2232C54.0057 56.6681 53.2492 55.9164 51.4342 55.9164H48.8627C48.8627 55.9164 50.3752 56.5175 50.3752 59.2232V68.6931C50.3752 71.8493 51.5858 71.8493 51.5858 71.8493H55.8213C55.6704 71.8493 54.1573 70.797 54.1573 68.6931V60.8766C54.3088 60.1249 54.7623 59.6737 55.2163 59.2232C56.5779 58.3209 58.5444 58.6221 59.6034 59.8243V57.2692Z" fill="#736757"/>
<path fill-rule="evenodd" clip-rule="evenodd" d="M59.6034 57.2692C59.6034 57.2692 59.3003 56.0664 57.4853 56.0664C54.7623 56.0664 54.1573 59.2232 54.1573 59.2232C54.0057 56.6681 53.2492 55.9164 51.4342 55.9164H48.8627C48.8627 55.9164 50.3752 56.5175 50.3752 59.2232V68.6931C50.3752 71.8493 51.5858 71.8493 51.5858 71.8493H55.8213C55.6704 71.8493 54.1573 70.797 54.1573 68.6931V60.8766C54.3088 60.1249 54.7623 59.6737 55.2163 59.2232C56.5779 58.3209 58.5444 58.6221 59.6034 59.8243V57.2692Z" fill="#3D4043"/>
<path fill-rule="evenodd" clip-rule="evenodd" d="M79.421 57.7195C80.7819 57.7195 81.841 58.4719 81.841 58.4719V56.0661H78.362V52.3081C78.362 52.3081 77.4539 53.9622 75.488 55.465C74.2774 56.5173 71.7059 57.7195 71.7059 57.7195H74.4283V68.8428C74.4283 71.8491 75.7899 71.8491 75.7899 71.8491H80.0254C80.0254 71.8491 78.362 70.7968 78.362 68.8428V57.7195H79.421Z" fill="#736757"/>
<path fill-rule="evenodd" clip-rule="evenodd" d="M79.421 57.7195C80.7819 57.7195 81.841 58.4719 81.841 58.4719V56.0661H78.362V52.3081C78.362 52.3081 77.4539 53.9622 75.488 55.465C74.2774 56.5173 71.7059 57.7195 71.7059 57.7195H74.4283V68.8428C74.4283 71.8491 75.7899 71.8491 75.7899 71.8491H80.0254C80.0254 71.8491 78.362 70.7968 78.362 68.8428V57.7195H79.421Z" fill="#3D4043"/>
<path fill-rule="evenodd" clip-rule="evenodd" d="M89.7072 61.6282C90.3121 60.2754 90.9178 56.9692 88.4966 57.1192C85.7741 57.4197 86.2282 64.7851 86.2282 64.7851C87.1357 63.7334 88.6481 63.5822 89.7072 61.6282ZM92.2788 62.5303C89.8582 65.0854 88.0427 64.6342 86.5302 66.4382C86.5302 66.4382 86.6818 68.9939 88.6483 69.745C89.2533 70.0456 91.9763 71.0979 93.6403 68.0916V70.6467C93.6403 70.6467 92.5813 71.9995 89.1023 71.9995C84.8668 71.9995 81.9922 68.6927 81.9922 64.3343C81.9922 59.9746 84.4128 55.9167 88.7992 55.9167C93.0354 55.9167 95.3044 59.3734 92.2788 62.5303Z" fill="#736757"/>
<path fill-rule="evenodd" clip-rule="evenodd" d="M89.7072 61.6282C90.3121 60.2754 90.9178 56.9692 88.4966 57.1192C85.7741 57.4197 86.2282 64.7851 86.2282 64.7851C87.1357 63.7334 88.6481 63.5822 89.7072 61.6282ZM92.2788 62.5303C89.8582 65.0854 88.0427 64.6342 86.5302 66.4382C86.5302 66.4382 86.6818 68.9939 88.6483 69.745C89.2533 70.0456 91.9763 71.0979 93.6403 68.0916V70.6467C93.6403 70.6467 92.5813 71.9995 89.1023 71.9995C84.8668 71.9995 81.9922 68.6927 81.9922 64.3343C81.9922 59.9746 84.4128 55.9167 88.7992 55.9167C93.0354 55.9167 95.3044 59.3734 92.2788 62.5303Z" fill="#3D4043"/>
<path fill-rule="evenodd" clip-rule="evenodd" d="M44.6268 54.7138C45.6858 54.7138 46.5933 53.8122 46.5933 52.7599C46.5933 51.7076 45.6858 50.8059 44.6268 50.8059C43.5677 50.8059 42.6596 51.7076 42.6596 52.7599C42.6596 53.8122 43.5677 54.7138 44.6268 54.7138Z" fill="#736757"/>
<path fill-rule="evenodd" clip-rule="evenodd" d="M44.6268 54.7138C45.6858 54.7138 46.5933 53.8122 46.5933 52.7599C46.5933 51.7076 45.6858 50.8059 44.6268 50.8059C43.5677 50.8059 42.6596 51.7076 42.6596 52.7599C42.6596 53.8122 43.5677 54.7138 44.6268 54.7138Z" fill="#3D4043"/>
<path fill-rule="evenodd" clip-rule="evenodd" d="M66.5616 61.0275C65.5032 62.6809 57.939 62.9808 59.1489 68.9939C59.603 71.2485 61.1155 72.0002 63.0826 72.0002C65.0491 72.0002 66.1075 70.9479 66.5616 70.0456C66.8647 71.8496 67.7722 71.8496 67.7722 71.8496H72.0077C72.0077 71.8496 70.3437 70.7973 70.3437 68.6927V59.8246C70.3437 57.72 67.9231 55.9167 65.5032 55.9167C63.0826 55.9167 61.4186 57.1196 61.4186 57.1196V59.9752C61.4186 59.9752 62.3261 57.72 64.5951 57.72C66.7125 57.72 66.8647 58.7723 66.8647 59.3734C66.8647 59.3734 67.0156 59.9752 66.5616 61.0275ZM63.9903 70.0458C63.0829 70.0458 62.3263 69.1441 62.3263 68.0918C62.3263 64.1839 65.6544 63.5828 66.5618 62.5305V69.1441C66.1078 69.5947 65.8053 70.0458 63.9903 70.0458Z" fill="#736757"/>
<path fill-rule="evenodd" clip-rule="evenodd" d="M66.5616 61.0275C65.5032 62.6809 57.939 62.9808 59.1489 68.9939C59.603 71.2485 61.1155 72.0002 63.0826 72.0002C65.0491 72.0002 66.1075 70.9479 66.5616 70.0456C66.8647 71.8496 67.7722 71.8496 67.7722 71.8496H72.0077C72.0077 71.8496 70.3437 70.7973 70.3437 68.6927V59.8246C70.3437 57.72 67.9231 55.9167 65.5032 55.9167C63.0826 55.9167 61.4186 57.1196 61.4186 57.1196V59.9752C61.4186 59.9752 62.3261 57.72 64.5951 57.72C66.7125 57.72 66.8647 58.7723 66.8647 59.3734C66.8647 59.3734 67.0156 59.9752 66.5616 61.0275ZM63.9903 70.0458C63.0829 70.0458 62.3263 69.1441 62.3263 68.0918C62.3263 64.1839 65.6544 63.5828 66.5618 62.5305V69.1441C66.1078 69.5947 65.8053 70.0458 63.9903 70.0458Z" fill="#3D4043"/>
<path fill-rule="evenodd" clip-rule="evenodd" d="M101.658 67.6408C101.658 68.6925 100.599 70.1959 98.4812 70.1959C96.2122 70.1959 95.4557 67.9414 95.4557 67.9414V70.797C95.4557 70.797 96.9688 71.9993 99.3887 71.9993C102.263 71.9993 105.289 69.7454 105.137 66.7385C105.137 65.6862 104.835 64.7845 104.23 63.8829C103.171 62.68 101.355 61.7783 99.9937 60.876C99.2378 60.4261 98.7844 59.5238 98.7844 59.2232C98.7844 58.6221 99.0869 57.5692 101.204 57.5692C103.322 57.5692 104.23 59.8243 104.23 59.8243V57.1186C104.23 57.1186 102.566 55.9164 100.145 55.9164C97.5738 55.9164 95.3041 57.5692 95.3041 59.6737C95.4557 61.6277 96.2122 62.8306 97.7253 63.8829C98.3303 64.334 99.0869 64.7845 99.9937 65.2357C101.204 65.9868 101.658 66.7385 101.658 67.6408Z" fill="#736757"/>
<path fill-rule="evenodd" clip-rule="evenodd" d="M101.658 67.6408C101.658 68.6925 100.599 70.1959 98.4812 70.1959C96.2122 70.1959 95.4557 67.9414 95.4557 67.9414V70.797C95.4557 70.797 96.9688 71.9993 99.3887 71.9993C102.263 71.9993 105.289 69.7454 105.137 66.7385C105.137 65.6862 104.835 64.7845 104.23 63.8829C103.171 62.68 101.355 61.7783 99.9937 60.876C99.2378 60.4261 98.7844 59.5238 98.7844 59.2232C98.7844 58.6221 99.0869 57.5692 101.204 57.5692C103.322 57.5692 104.23 59.8243 104.23 59.8243V57.1186C104.23 57.1186 102.566 55.9164 100.145 55.9164C97.5738 55.9164 95.3041 57.5692 95.3041 59.6737C95.4557 61.6277 96.2122 62.8306 97.7253 63.8829C98.3303 64.334 99.0869 64.7845 99.9937 65.2357C101.204 65.9868 101.658 66.7385 101.658 67.6408Z" fill="#3D4043"/>
<defs>
<linearGradient id="paint0_linear_208_4315" x1="31.6505" y1="52.282" x2="84.7687" y2="13.8906" gradientUnits="userSpaceOnUse">
<stop offset="0.161458" stop-color="#AC883B"/>
<stop offset="0.609375" stop-color="#E2CD83"/>
<stop offset="1" stop-color="#E7E5AA"/>
</linearGradient>
<linearGradient id="paint1_linear_208_4315" x1="31.6505" y1="52.282" x2="84.7687" y2="13.8906" gradientUnits="userSpaceOnUse">
<stop offset="0.161458" stop-color="#AC883B"/>
<stop offset="0.609375" stop-color="#E2CD83"/>
<stop offset="1" stop-color="#E7E5AA"/>
</linearGradient>
<linearGradient id="paint2_linear_208_4315" x1="31.6505" y1="52.282" x2="84.7687" y2="13.8906" gradientUnits="userSpaceOnUse">
<stop offset="0.161458" stop-color="#AC883B"/>
<stop offset="0.609375" stop-color="#E2CD83"/>
<stop offset="1" stop-color="#E7E5AA"/>
</linearGradient>
<linearGradient id="paint3_linear_208_4315" x1="31.6505" y1="52.282" x2="84.7687" y2="13.8906" gradientUnits="userSpaceOnUse">
<stop offset="0.161458" stop-color="#AC883B"/>
<stop offset="0.609375" stop-color="#E2CD83"/>
<stop offset="1" stop-color="#E7E5AA"/>
</linearGradient>
<linearGradient id="paint4_linear_208_4315" x1="31.6505" y1="52.282" x2="84.7687" y2="13.8906" gradientUnits="userSpaceOnUse">
<stop offset="0.161458" stop-color="#AC883B"/>
<stop offset="0.609375" stop-color="#E2CD83"/>
<stop offset="1" stop-color="#E7E5AA"/>
</linearGradient>
<linearGradient id="paint5_linear_208_4315" x1="31.6505" y1="52.282" x2="84.7687" y2="13.8906" gradientUnits="userSpaceOnUse">
<stop offset="0.161458" stop-color="#AC883B"/>
<stop offset="0.609375" stop-color="#E2CD83"/>
<stop offset="1" stop-color="#E7E5AA"/>
</linearGradient>
<linearGradient id="paint6_linear_208_4315" x1="31.6505" y1="52.282" x2="84.7687" y2="13.8906" gradientUnits="userSpaceOnUse">
<stop offset="0.161458" stop-color="#AC883B"/>
<stop offset="0.609375" stop-color="#E2CD83"/>
<stop offset="1" stop-color="#E7E5AA"/>
</linearGradient>
</defs>
</svg>
