<svg width="102" height="32" viewBox="0 0 102 32" fill="none" xmlns="http://www.w3.org/2000/svg">
<rect width="102" height="32" rx="8" fill="#1778F2"/>
<path d="M17 7.05469C12.0295 7.05469 8 11.0841 8 16.0547C8 20.5469 11.2912 24.2702 15.5938 24.9453V18.6562H13.3086V16.0547H15.5938V14.0719C15.5938 11.8162 16.9375 10.5703 18.9932 10.5703C19.978 10.5703 21.0079 10.7461 21.0079 10.7461V12.9609H19.8729C18.7549 12.9609 18.4062 13.6547 18.4062 14.3664V16.0547H20.9024L20.5033 18.6562H18.4062V24.9453C22.7088 24.2701 26 20.5469 26 16.0547C26 11.0841 21.9705 7.05469 17 7.05469Z" fill="white"/>
<path d="M42.515 21.695C41.535 21.695 40.695 21.465 39.995 21.005C39.305 20.545 38.82 19.915 38.54 19.115L39.74 18.425C40.15 19.695 41.085 20.33 42.545 20.33C43.265 20.33 43.815 20.185 44.195 19.895C44.575 19.595 44.765 19.2 44.765 18.71C44.765 18.21 44.575 17.835 44.195 17.585C43.815 17.335 43.18 17.07 42.29 16.79C41.85 16.65 41.515 16.54 41.285 16.46C41.055 16.37 40.765 16.24 40.415 16.07C40.075 15.89 39.82 15.71 39.65 15.53C39.48 15.34 39.325 15.095 39.185 14.795C39.055 14.495 38.99 14.155 38.99 13.775C38.99 12.865 39.31 12.145 39.95 11.615C40.59 11.075 41.37 10.805 42.29 10.805C43.12 10.805 43.84 11.015 44.45 11.435C45.07 11.855 45.535 12.41 45.845 13.1L44.675 13.775C44.225 12.695 43.43 12.155 42.29 12.155C41.72 12.155 41.26 12.295 40.91 12.575C40.56 12.855 40.385 13.235 40.385 13.715C40.385 14.175 40.55 14.525 40.88 14.765C41.21 15.005 41.78 15.255 42.59 15.515C42.88 15.605 43.085 15.67 43.205 15.71C43.325 15.75 43.51 15.82 43.76 15.92C44.02 16.02 44.21 16.1 44.33 16.16C44.45 16.22 44.61 16.305 44.81 16.415C45.02 16.525 45.175 16.63 45.275 16.73C45.375 16.83 45.49 16.955 45.62 17.105C45.76 17.245 45.86 17.39 45.92 17.54C45.98 17.69 46.03 17.865 46.07 18.065C46.12 18.255 46.145 18.46 46.145 18.68C46.145 19.6 45.81 20.335 45.14 20.885C44.47 21.425 43.595 21.695 42.515 21.695ZM51.3969 13.805C52.2769 13.805 52.9819 14.085 53.5119 14.645C54.0419 15.195 54.3069 15.945 54.3069 16.895V21.5H53.0019V16.97C53.0019 16.36 52.8369 15.89 52.5069 15.56C52.1769 15.22 51.7219 15.05 51.1419 15.05C50.4919 15.05 49.9669 15.255 49.5669 15.665C49.1669 16.065 48.9669 16.685 48.9669 17.525V21.5H47.6619V11H48.9669V15.08C49.4969 14.23 50.3069 13.805 51.3969 13.805ZM62.3387 14H63.6437V21.5H62.3387V20.21C61.6887 21.2 60.7437 21.695 59.5037 21.695C58.4537 21.695 57.5587 21.315 56.8187 20.555C56.0787 19.785 55.7087 18.85 55.7087 17.75C55.7087 16.65 56.0787 15.72 56.8187 14.96C57.5587 14.19 58.4537 13.805 59.5037 13.805C60.7437 13.805 61.6887 14.3 62.3387 15.29V14ZM59.6687 20.435C60.4287 20.435 61.0637 20.18 61.5737 19.67C62.0837 19.15 62.3387 18.51 62.3387 17.75C62.3387 16.99 62.0837 16.355 61.5737 15.845C61.0637 15.325 60.4287 15.065 59.6687 15.065C58.9187 15.065 58.2887 15.325 57.7787 15.845C57.2687 16.355 57.0137 16.99 57.0137 17.75C57.0137 18.51 57.2687 19.15 57.7787 19.67C58.2887 20.18 58.9187 20.435 59.6687 20.435ZM66.9259 15.26C67.3559 14.33 68.1359 13.865 69.2659 13.865V15.23C68.6259 15.2 68.0759 15.37 67.6159 15.74C67.1559 16.11 66.9259 16.705 66.9259 17.525V21.5H65.6209V14H66.9259V15.26ZM71.0476 18.35C71.1776 19.02 71.4826 19.54 71.9626 19.91C72.4526 20.28 73.0526 20.465 73.7626 20.465C74.7526 20.465 75.4726 20.1 75.9226 19.37L77.0326 20C76.3026 21.13 75.2026 21.695 73.7326 21.695C72.5426 21.695 71.5726 21.325 70.8226 20.585C70.0826 19.835 69.7126 18.89 69.7126 17.75C69.7126 16.62 70.0776 15.68 70.8076 14.93C71.5376 14.18 72.4826 13.805 73.6426 13.805C74.7426 13.805 75.6376 14.195 76.3276 14.975C77.0276 15.745 77.3776 16.675 77.3776 17.765C77.3776 17.955 77.3626 18.15 77.3326 18.35H71.0476ZM73.6426 15.035C72.9426 15.035 72.3626 15.235 71.9026 15.635C71.4426 16.025 71.1576 16.55 71.0476 17.21H76.0576C75.9476 16.5 75.6676 15.96 75.2176 15.59C74.7676 15.22 74.2426 15.035 73.6426 15.035Z" fill="white"/>
</svg>
