<svg width="35" height="28" viewBox="0 0 35 28" fill="none" xmlns="http://www.w3.org/2000/svg">
<path d="M15.8128 15.361L12.6667 15L11.7639 15.361C11.7176 15.3239 11.5046 15.2869 11.125 15.2498L10.9445 15.3054C10.7315 15.3609 10.1324 14.1526 10.049 14.361C9.9657 14.5693 7.56489 14.8148 7.66675 15L9.66675 21C9.74083 21.1481 12.662 20.104 12.8195 20.1735C12.9768 20.2429 13.1343 20.2499 13.2917 20.1943L27.9167 16.222C28.3704 16.0924 28.706 15.8586 28.9236 15.5207C29.1412 15.1827 29.1852 14.7869 29.0555 14.3332C28.9259 13.8795 28.6783 13.5577 28.3125 13.3679C27.9468 13.1781 27.5463 13.1387 27.1111 13.2498L22.6667 12L16.4861 8.1943C16.3472 8.05541 16.1852 7.96049 16 7.90955C15.8148 7.85863 15.6343 7.86095 15.4583 7.9165L15.25 7.95817C14.8796 8.0415 14.301 6.65742 14.1667 7C14.0325 7.34261 11.4908 8.18519 11.6667 8.5L15.8128 15.361ZM4.27775 27.3332C3.50925 27.3332 2.85417 27.0623 2.3125 26.5207C1.77083 25.979 1.5 25.3239 1.5 24.5554V19.0138C1.5 18.7267 1.58333 18.4767 1.75 18.2638C1.91667 18.0508 2.13426 17.9073 2.40279 17.8332C3.19907 17.5554 3.83101 17.0554 4.29863 16.3332C4.76621 15.6109 5 14.8332 5 13.9998C5 13.185 4.76621 12.4119 4.29863 11.6804C3.83101 10.9489 3.19907 10.4443 2.40279 10.1665C2.13426 10.0924 1.91667 9.94889 1.75 9.73592C1.58333 9.52298 1.5 9.27298 1.5 8.98592V3.44425C1.5 2.67575 1.77083 2.02067 2.3125 1.479C2.85417 0.937337 3.50925 0.666504 4.27775 0.666504H32.0556C32.8241 0.666504 33.4792 0.937337 34.0208 1.479C34.5625 2.02067 34.8333 2.67575 34.8333 3.44425V24.5554C34.8333 25.3239 34.5625 25.979 34.0208 26.5207C33.4792 27.0623 32.8241 27.3332 32.0556 27.3332H4.27775Z" fill="#856A32"/>
<path d="M17.0278 15.6665L12.6111 16.861L10.7639 15.361C10.7176 15.3239 10.5046 15.2869 10.125 15.2498L9.94446 15.3054C9.73149 15.3609 9.58333 15.4929 9.5 15.7012C9.41667 15.9095 9.42593 16.1063 9.52779 16.2915L11.4722 19.8471C11.5463 19.9952 11.662 20.104 11.8195 20.1735C11.9768 20.2429 12.1343 20.2499 12.2917 20.1943L26.9167 16.222C27.3704 16.0924 27.706 15.8586 27.9236 15.5207C28.1412 15.1827 28.1852 14.7869 28.0555 14.3332C27.9259 13.8795 27.6783 13.5577 27.3125 13.3679C26.9468 13.1781 26.5463 13.1387 26.1111 13.2498L21.8889 14.361L15.4861 8.1943C15.3472 8.05541 15.1852 7.96049 15 7.90955C14.8148 7.85863 14.6343 7.86095 14.4583 7.9165L14.25 7.95817C13.8796 8.0415 13.6273 8.25446 13.493 8.59705C13.3588 8.93966 13.3796 9.26836 13.5555 9.58317L17.0278 15.6665ZM3.27775 27.3332C2.50925 27.3332 1.85417 27.0623 1.3125 26.5207C0.770833 25.979 0.5 25.3239 0.5 24.5554V19.0138C0.5 18.7267 0.583333 18.4767 0.75 18.2638C0.916667 18.0508 1.13426 17.9073 1.40279 17.8332C2.19907 17.5554 2.83101 17.0554 3.29863 16.3332C3.76621 15.6109 4 14.8332 4 13.9998C4 13.185 3.76621 12.4119 3.29863 11.6804C2.83101 10.9489 2.19907 10.4443 1.40279 10.1665C1.13426 10.0924 0.916667 9.94889 0.75 9.73592C0.583333 9.52298 0.5 9.27298 0.5 8.98592V3.44425C0.5 2.67575 0.770833 2.02067 1.3125 1.479C1.85417 0.937337 2.50925 0.666504 3.27775 0.666504H31.0556C31.8241 0.666504 32.4792 0.937337 33.0208 1.479C33.5625 2.02067 33.8333 2.67575 33.8333 3.44425V24.5554C33.8333 25.3239 33.5625 25.979 33.0208 26.5207C32.4792 27.0623 31.8241 27.3332 31.0556 27.3332H3.27775Z" fill="#EC7F00"/>
<path d="M17.0278 15.6665L12.6111 16.861L10.7639 15.361C10.7176 15.3239 10.5046 15.2869 10.125 15.2498L9.94446 15.3054C9.73149 15.3609 9.58333 15.4929 9.5 15.7012C9.41667 15.9095 9.42593 16.1063 9.52779 16.2915L11.4722 19.8471C11.5463 19.9952 11.662 20.104 11.8195 20.1735C11.9768 20.2429 12.1343 20.2499 12.2917 20.1943L26.9167 16.222C27.3704 16.0924 27.706 15.8586 27.9236 15.5207C28.1412 15.1827 28.1852 14.7869 28.0555 14.3332C27.9259 13.8795 27.6783 13.5577 27.3125 13.3679C26.9468 13.1781 26.5463 13.1387 26.1111 13.2498L21.8889 14.361L15.4861 8.1943C15.3472 8.05541 15.1852 7.96049 15 7.90955C14.8148 7.85863 14.6343 7.86095 14.4583 7.9165L14.25 7.95817C13.8796 8.0415 13.6273 8.25446 13.493 8.59705C13.3588 8.93966 13.3796 9.26836 13.5555 9.58317L17.0278 15.6665ZM3.27775 27.3332C2.50925 27.3332 1.85417 27.0623 1.3125 26.5207C0.770833 25.979 0.5 25.3239 0.5 24.5554V19.0138C0.5 18.7267 0.583333 18.4767 0.75 18.2638C0.916667 18.0508 1.13426 17.9073 1.40279 17.8332C2.19907 17.5554 2.83101 17.0554 3.29863 16.3332C3.76621 15.6109 4 14.8332 4 13.9998C4 13.185 3.76621 12.4119 3.29863 11.6804C2.83101 10.9489 2.19907 10.4443 1.40279 10.1665C1.13426 10.0924 0.916667 9.94889 0.75 9.73592C0.583333 9.52298 0.5 9.27298 0.5 8.98592V3.44425C0.5 2.67575 0.770833 2.02067 1.3125 1.479C1.85417 0.937337 2.50925 0.666504 3.27775 0.666504H31.0556C31.8241 0.666504 32.4792 0.937337 33.0208 1.479C33.5625 2.02067 33.8333 2.67575 33.8333 3.44425V24.5554C33.8333 25.3239 33.5625 25.979 33.0208 26.5207C32.4792 27.0623 31.8241 27.3332 31.0556 27.3332H3.27775Z" fill="#908271"/>
<path d="M17.0278 15.6665L12.6111 16.861L10.7639 15.361C10.7176 15.3239 10.5046 15.2869 10.125 15.2498L9.94446 15.3054C9.73149 15.3609 9.58333 15.4929 9.5 15.7012C9.41667 15.9095 9.42593 16.1063 9.52779 16.2915L11.4722 19.8471C11.5463 19.9952 11.662 20.104 11.8195 20.1735C11.9768 20.2429 12.1343 20.2499 12.2917 20.1943L26.9167 16.222C27.3704 16.0924 27.706 15.8586 27.9236 15.5207C28.1412 15.1827 28.1852 14.7869 28.0555 14.3332C27.9259 13.8795 27.6783 13.5577 27.3125 13.3679C26.9468 13.1781 26.5463 13.1387 26.1111 13.2498L21.8889 14.361L15.4861 8.1943C15.3472 8.05541 15.1852 7.96049 15 7.90955C14.8148 7.85863 14.6343 7.86095 14.4583 7.9165L14.25 7.95817C13.8796 8.0415 13.6273 8.25446 13.493 8.59705C13.3588 8.93966 13.3796 9.26836 13.5555 9.58317L17.0278 15.6665ZM3.27775 27.3332C2.50925 27.3332 1.85417 27.0623 1.3125 26.5207C0.770833 25.979 0.5 25.3239 0.5 24.5554V19.0138C0.5 18.7267 0.583333 18.4767 0.75 18.2638C0.916667 18.0508 1.13426 17.9073 1.40279 17.8332C2.19907 17.5554 2.83101 17.0554 3.29863 16.3332C3.76621 15.6109 4 14.8332 4 13.9998C4 13.185 3.76621 12.4119 3.29863 11.6804C2.83101 10.9489 2.19907 10.4443 1.40279 10.1665C1.13426 10.0924 0.916667 9.94889 0.75 9.73592C0.583333 9.52298 0.5 9.27298 0.5 8.98592V3.44425C0.5 2.67575 0.770833 2.02067 1.3125 1.479C1.85417 0.937337 2.50925 0.666504 3.27775 0.666504H31.0556C31.8241 0.666504 32.4792 0.937337 33.0208 1.479C33.5625 2.02067 33.8333 2.67575 33.8333 3.44425V24.5554C33.8333 25.3239 33.5625 25.979 33.0208 26.5207C32.4792 27.0623 31.8241 27.3332 31.0556 27.3332H3.27775Z" fill="url(#paint0_linear_226_5300)"/>
<defs>
<linearGradient id="paint0_linear_226_5300" x1="0.166749" y1="27.4737" x2="28.6744" y2="-4.38788" gradientUnits="userSpaceOnUse">
<stop offset="0.161458" stop-color="#AC883B"/>
<stop offset="0.609375" stop-color="#E2CD83"/>
<stop offset="0.817708" stop-color="#EFEDB5"/>
</linearGradient>
</defs>
</svg>
