<svg width="36" height="32" viewBox="0 0 36 32" fill="none" xmlns="http://www.w3.org/2000/svg">
<path d="M8.18071 31.8332C7.57887 31.8332 7.00721 31.6298 6.4657 31.2231C5.92423 30.8163 5.56534 30.3206 5.38904 29.736C4.69459 27.3656 4.12014 25.3174 3.66566 23.5913C3.21116 21.8652 2.849 20.3496 2.57916 19.0445C2.3093 17.7395 2.11755 16.5817 2.00391 15.5714C1.8903 14.561 1.8335 13.5927 1.8335 12.6665C1.8335 10.1109 2.72239 7.94428 4.50016 6.1665C6.27794 4.38873 8.44461 3.49984 11.0002 3.49984H19.3335C20.0835 2.49984 21.0349 1.69428 22.1877 1.08317C23.3404 0.472059 24.6113 0.166504 26.0002 0.166504C26.6946 0.166504 27.2849 0.409559 27.771 0.895671C28.2571 1.38178 28.5002 1.97206 28.5002 2.6665C28.5002 2.83317 28.4793 2.99984 28.4377 3.1665C28.396 3.33317 28.3474 3.48595 28.2918 3.62484C28.1807 3.93039 28.0766 4.23595 27.9793 4.5415C27.8821 4.84706 27.8057 5.18039 27.7502 5.5415L31.5418 9.33317H33.778C34.1715 9.33317 34.5013 9.46627 34.7675 9.73246C35.0337 9.99868 35.1668 10.3285 35.1668 10.722V19.9443C35.1668 20.2543 35.0812 20.5286 34.9099 20.7671C34.7386 21.0056 34.5002 21.1758 34.1946 21.2776L30.4605 22.5081L28.264 29.8471C28.0784 30.451 27.7419 30.933 27.2545 31.2931C26.7671 31.6531 26.2101 31.8332 25.5835 31.8332H21.2779C20.514 31.8332 19.8601 31.5612 19.3161 31.0172C18.7722 30.4732 18.5002 29.8193 18.5002 29.0554V28.4998H15.1668V29.0554C15.1668 29.8193 14.8948 30.4732 14.3509 31.0172C13.8069 31.5612 13.153 31.8332 12.3891 31.8332H8.18071ZM25.1668 15.1665C25.6391 15.1665 26.0349 15.0068 26.3543 14.6873C26.6738 14.3679 26.8335 13.9721 26.8335 13.4998C26.8335 13.0276 26.6738 12.6318 26.3543 12.3123C26.0349 11.9929 25.6391 11.8332 25.1668 11.8332C24.6946 11.8332 23.3197 9.56439 23.0002 9.88384C22.6808 10.2033 19.3335 13.0276 19.3335 13.4998C19.3335 13.9721 22.6808 15.6806 23.0002 16C23.3197 16.3194 24.6946 15.1665 25.1668 15.1665ZM18.778 11.2776C19.1715 11.2776 19.5013 11.144 19.7675 10.8769C20.0337 10.6097 20.1668 10.2787 20.1668 9.88384C20.1668 9.48895 20.0337 9.15956 19.7675 8.89567C19.5013 8.63178 19.1715 8.49984 18.778 8.49984L13.2224 7C12.8289 7 11.2665 6.73286 11.0002 7C10.734 7.26714 7.50024 9.48895 7.50024 9.88384C7.50024 10.2787 10.734 12.7361 11.0002 13C11.2665 13.2639 12.8289 11.2776 13.2224 11.2776H18.778Z" fill="#EC7F00"/>
<path d="M8.18071 31.8332C7.57887 31.8332 7.00721 31.6298 6.4657 31.2231C5.92423 30.8163 5.56534 30.3206 5.38904 29.736C4.69459 27.3656 4.12014 25.3174 3.66566 23.5913C3.21116 21.8652 2.849 20.3496 2.57916 19.0445C2.3093 17.7395 2.11755 16.5817 2.00391 15.5714C1.8903 14.561 1.8335 13.5927 1.8335 12.6665C1.8335 10.1109 2.72239 7.94428 4.50016 6.1665C6.27794 4.38873 8.44461 3.49984 11.0002 3.49984H19.3335C20.0835 2.49984 21.0349 1.69428 22.1877 1.08317C23.3404 0.472059 24.6113 0.166504 26.0002 0.166504C26.6946 0.166504 27.2849 0.409559 27.771 0.895671C28.2571 1.38178 28.5002 1.97206 28.5002 2.6665C28.5002 2.83317 28.4793 2.99984 28.4377 3.1665C28.396 3.33317 28.3474 3.48595 28.2918 3.62484C28.1807 3.93039 28.0766 4.23595 27.9793 4.5415C27.8821 4.84706 27.8057 5.18039 27.7502 5.5415L31.5418 9.33317H33.778C34.1715 9.33317 34.5013 9.46627 34.7675 9.73246C35.0337 9.99868 35.1668 10.3285 35.1668 10.722V19.9443C35.1668 20.2543 35.0812 20.5286 34.9099 20.7671C34.7386 21.0056 34.5002 21.1758 34.1946 21.2776L30.4605 22.5081L28.264 29.8471C28.0784 30.451 27.7419 30.933 27.2545 31.2931C26.7671 31.6531 26.2101 31.8332 25.5835 31.8332H21.2779C20.514 31.8332 19.8601 31.5612 19.3161 31.0172C18.7722 30.4732 18.5002 29.8193 18.5002 29.0554V28.4998H15.1668V29.0554C15.1668 29.8193 14.8948 30.4732 14.3509 31.0172C13.8069 31.5612 13.153 31.8332 12.3891 31.8332H8.18071ZM25.1668 15.1665C25.6391 15.1665 26.0349 15.0068 26.3543 14.6873C26.6738 14.3679 26.8335 13.9721 26.8335 13.4998C26.8335 13.0276 26.6738 12.6318 26.3543 12.3123C26.0349 11.9929 25.6391 11.8332 25.1668 11.8332C24.6946 11.8332 23.3197 9.56439 23.0002 9.88384C22.6808 10.2033 19.3335 13.0276 19.3335 13.4998C19.3335 13.9721 22.6808 15.6806 23.0002 16C23.3197 16.3194 24.6946 15.1665 25.1668 15.1665ZM18.778 11.2776C19.1715 11.2776 19.5013 11.144 19.7675 10.8769C20.0337 10.6097 20.1668 10.2787 20.1668 9.88384C20.1668 9.48895 20.0337 9.15956 19.7675 8.89567C19.5013 8.63178 19.1715 8.49984 18.778 8.49984L13.2224 7C12.8289 7 11.2665 6.73286 11.0002 7C10.734 7.26714 7.50024 9.48895 7.50024 9.88384C7.50024 10.2787 10.734 12.7361 11.0002 13C11.2665 13.2639 12.8289 11.2776 13.2224 11.2776H18.778Z" fill="#856A32"/>
<path d="M7.18071 31.8332C6.57887 31.8332 6.00721 31.6298 5.4657 31.2231C4.92423 30.8163 4.56534 30.3206 4.38904 29.736C3.69459 27.3656 3.12014 25.3174 2.66566 23.5913C2.21116 21.8652 1.849 20.3496 1.57916 19.0445C1.3093 17.7395 1.11755 16.5817 1.00391 15.5714C0.890302 14.561 0.833496 13.5927 0.833496 12.6665C0.833496 10.1109 1.72239 7.94428 3.50016 6.1665C5.27794 4.38873 7.44461 3.49984 10.0002 3.49984H18.3335C19.0835 2.49984 20.0349 1.69428 21.1877 1.08317C22.3404 0.472059 23.6113 0.166504 25.0002 0.166504C25.6946 0.166504 26.2849 0.409559 26.771 0.895671C27.2571 1.38178 27.5002 1.97206 27.5002 2.6665C27.5002 2.83317 27.4793 2.99984 27.4377 3.1665C27.396 3.33317 27.3474 3.48595 27.2918 3.62484C27.1807 3.93039 27.0766 4.23595 26.9793 4.5415C26.8821 4.84706 26.8057 5.18039 26.7502 5.5415L30.5418 9.33317H32.778C33.1715 9.33317 33.5013 9.46627 33.7675 9.73246C34.0337 9.99868 34.1668 10.3285 34.1668 10.722V19.9443C34.1668 20.2543 34.0812 20.5286 33.9099 20.7671C33.7386 21.0056 33.5002 21.1758 33.1946 21.2776L29.4605 22.5081L27.264 29.8471C27.0784 30.451 26.7419 30.933 26.2545 31.2931C25.7671 31.6531 25.2101 31.8332 24.5835 31.8332H20.2779C19.514 31.8332 18.8601 31.5612 18.3161 31.0172C17.7722 30.4732 17.5002 29.8193 17.5002 29.0554V28.4998H14.1668V29.0554C14.1668 29.8193 13.8948 30.4732 13.3509 31.0172C12.8069 31.5612 12.153 31.8332 11.3891 31.8332H7.18071ZM24.1668 15.1665C24.6391 15.1665 25.0349 15.0068 25.3543 14.6873C25.6738 14.3679 25.8335 13.9721 25.8335 13.4998C25.8335 13.0276 25.6738 12.6318 25.3543 12.3123C25.0349 11.9929 24.6391 11.8332 24.1668 11.8332C23.6946 11.8332 23.2988 11.9929 22.9793 12.3123C22.6599 12.6318 22.5002 13.0276 22.5002 13.4998C22.5002 13.9721 22.6599 14.3679 22.9793 14.6873C23.2988 15.0068 23.6946 15.1665 24.1668 15.1665ZM17.778 11.2776C18.1715 11.2776 18.5013 11.144 18.7675 10.8769C19.0337 10.6097 19.1668 10.2787 19.1668 9.88384C19.1668 9.48895 19.0337 9.15956 18.7675 8.89567C18.5013 8.63178 18.1715 8.49984 17.778 8.49984H12.2224C11.8289 8.49984 11.499 8.63341 11.2328 8.90055C10.9666 9.16768 10.8335 9.4987 10.8335 9.89359C10.8335 10.2885 10.9666 10.6179 11.2328 10.8818C11.499 11.1456 11.8289 11.2776 12.2224 11.2776H17.778Z" fill="#EC7F00"/>
<path d="M7.18071 31.8332C6.57887 31.8332 6.00721 31.6298 5.4657 31.2231C4.92423 30.8163 4.56534 30.3206 4.38904 29.736C3.69459 27.3656 3.12014 25.3174 2.66566 23.5913C2.21116 21.8652 1.849 20.3496 1.57916 19.0445C1.3093 17.7395 1.11755 16.5817 1.00391 15.5714C0.890302 14.561 0.833496 13.5927 0.833496 12.6665C0.833496 10.1109 1.72239 7.94428 3.50016 6.1665C5.27794 4.38873 7.44461 3.49984 10.0002 3.49984H18.3335C19.0835 2.49984 20.0349 1.69428 21.1877 1.08317C22.3404 0.472059 23.6113 0.166504 25.0002 0.166504C25.6946 0.166504 26.2849 0.409559 26.771 0.895671C27.2571 1.38178 27.5002 1.97206 27.5002 2.6665C27.5002 2.83317 27.4793 2.99984 27.4377 3.1665C27.396 3.33317 27.3474 3.48595 27.2918 3.62484C27.1807 3.93039 27.0766 4.23595 26.9793 4.5415C26.8821 4.84706 26.8057 5.18039 26.7502 5.5415L30.5418 9.33317H32.778C33.1715 9.33317 33.5013 9.46627 33.7675 9.73246C34.0337 9.99868 34.1668 10.3285 34.1668 10.722V19.9443C34.1668 20.2543 34.0812 20.5286 33.9099 20.7671C33.7386 21.0056 33.5002 21.1758 33.1946 21.2776L29.4605 22.5081L27.264 29.8471C27.0784 30.451 26.7419 30.933 26.2545 31.2931C25.7671 31.6531 25.2101 31.8332 24.5835 31.8332H20.2779C19.514 31.8332 18.8601 31.5612 18.3161 31.0172C17.7722 30.4732 17.5002 29.8193 17.5002 29.0554V28.4998H14.1668V29.0554C14.1668 29.8193 13.8948 30.4732 13.3509 31.0172C12.8069 31.5612 12.153 31.8332 11.3891 31.8332H7.18071ZM24.1668 15.1665C24.6391 15.1665 25.0349 15.0068 25.3543 14.6873C25.6738 14.3679 25.8335 13.9721 25.8335 13.4998C25.8335 13.0276 25.6738 12.6318 25.3543 12.3123C25.0349 11.9929 24.6391 11.8332 24.1668 11.8332C23.6946 11.8332 23.2988 11.9929 22.9793 12.3123C22.6599 12.6318 22.5002 13.0276 22.5002 13.4998C22.5002 13.9721 22.6599 14.3679 22.9793 14.6873C23.2988 15.0068 23.6946 15.1665 24.1668 15.1665ZM17.778 11.2776C18.1715 11.2776 18.5013 11.144 18.7675 10.8769C19.0337 10.6097 19.1668 10.2787 19.1668 9.88384C19.1668 9.48895 19.0337 9.15956 18.7675 8.89567C18.5013 8.63178 18.1715 8.49984 17.778 8.49984H12.2224C11.8289 8.49984 11.499 8.63341 11.2328 8.90055C10.9666 9.16768 10.8335 9.4987 10.8335 9.89359C10.8335 10.2885 10.9666 10.6179 11.2328 10.8818C11.499 11.1456 11.8289 11.2776 12.2224 11.2776H17.778Z" fill="#908271"/>
<path d="M7.18071 31.8332C6.57887 31.8332 6.00721 31.6298 5.4657 31.2231C4.92423 30.8163 4.56534 30.3206 4.38904 29.736C3.69459 27.3656 3.12014 25.3174 2.66566 23.5913C2.21116 21.8652 1.849 20.3496 1.57916 19.0445C1.3093 17.7395 1.11755 16.5817 1.00391 15.5714C0.890302 14.561 0.833496 13.5927 0.833496 12.6665C0.833496 10.1109 1.72239 7.94428 3.50016 6.1665C5.27794 4.38873 7.44461 3.49984 10.0002 3.49984H18.3335C19.0835 2.49984 20.0349 1.69428 21.1877 1.08317C22.3404 0.472059 23.6113 0.166504 25.0002 0.166504C25.6946 0.166504 26.2849 0.409559 26.771 0.895671C27.2571 1.38178 27.5002 1.97206 27.5002 2.6665C27.5002 2.83317 27.4793 2.99984 27.4377 3.1665C27.396 3.33317 27.3474 3.48595 27.2918 3.62484C27.1807 3.93039 27.0766 4.23595 26.9793 4.5415C26.8821 4.84706 26.8057 5.18039 26.7502 5.5415L30.5418 9.33317H32.778C33.1715 9.33317 33.5013 9.46627 33.7675 9.73246C34.0337 9.99868 34.1668 10.3285 34.1668 10.722V19.9443C34.1668 20.2543 34.0812 20.5286 33.9099 20.7671C33.7386 21.0056 33.5002 21.1758 33.1946 21.2776L29.4605 22.5081L27.264 29.8471C27.0784 30.451 26.7419 30.933 26.2545 31.2931C25.7671 31.6531 25.2101 31.8332 24.5835 31.8332H20.2779C19.514 31.8332 18.8601 31.5612 18.3161 31.0172C17.7722 30.4732 17.5002 29.8193 17.5002 29.0554V28.4998H14.1668V29.0554C14.1668 29.8193 13.8948 30.4732 13.3509 31.0172C12.8069 31.5612 12.153 31.8332 11.3891 31.8332H7.18071ZM24.1668 15.1665C24.6391 15.1665 25.0349 15.0068 25.3543 14.6873C25.6738 14.3679 25.8335 13.9721 25.8335 13.4998C25.8335 13.0276 25.6738 12.6318 25.3543 12.3123C25.0349 11.9929 24.6391 11.8332 24.1668 11.8332C23.6946 11.8332 23.2988 11.9929 22.9793 12.3123C22.6599 12.6318 22.5002 13.0276 22.5002 13.4998C22.5002 13.9721 22.6599 14.3679 22.9793 14.6873C23.2988 15.0068 23.6946 15.1665 24.1668 15.1665ZM17.778 11.2776C18.1715 11.2776 18.5013 11.144 18.7675 10.8769C19.0337 10.6097 19.1668 10.2787 19.1668 9.88384C19.1668 9.48895 19.0337 9.15956 18.7675 8.89567C18.5013 8.63178 18.1715 8.49984 17.778 8.49984H12.2224C11.8289 8.49984 11.499 8.63341 11.2328 8.90055C10.9666 9.16768 10.8335 9.4987 10.8335 9.89359C10.8335 10.2885 10.9666 10.6179 11.2328 10.8818C11.499 11.1456 11.8289 11.2776 12.2224 11.2776H17.778Z" fill="url(#paint0_linear_147_2413)"/>
<defs>
<linearGradient id="paint0_linear_147_2413" x1="0.500245" y1="32" x2="34.5002" y2="1.25633e-06" gradientUnits="userSpaceOnUse">
<stop offset="0.161458" stop-color="#AC883B"/>
<stop offset="0.609375" stop-color="#E2CD83"/>
<stop offset="0.817708" stop-color="#EFEDB5"/>
</linearGradient>
</defs>
</svg>
