<svg width="20" height="18" viewBox="0 0 20 18" fill="none" xmlns="http://www.w3.org/2000/svg">
<path d="M3.37305 13.7501L5.69615 16.0732C5.84487 16.2219 5.91827 16.3959 5.91635 16.5953C5.91442 16.7946 5.83589 16.9719 5.68078 17.127C5.52564 17.2719 5.35 17.3469 5.15385 17.352C4.9577 17.3571 4.78207 17.2821 4.62695 17.127L1.13273 13.6328C1.03914 13.5392 0.97312 13.4405 0.934653 13.3366C0.896186 13.2328 0.876953 13.1206 0.876953 13.0001C0.876953 12.8796 0.896186 12.7674 0.934653 12.6636C0.97312 12.5597 1.03914 12.461 1.13273 12.3674L4.62695 8.8732C4.7654 8.73473 4.93687 8.6639 5.14135 8.6607C5.34584 8.65748 5.52564 8.72831 5.68078 8.8732C5.83589 9.02831 5.91345 9.20651 5.91345 9.4078C5.91345 9.60906 5.83589 9.78726 5.68078 9.9424L3.37305 12.2501H17.75C17.9628 12.2501 18.141 12.3219 18.2846 12.4655C18.4282 12.6091 18.5 12.7873 18.5 13.0001C18.5 13.2129 18.4282 13.3911 18.2846 13.5347C18.141 13.6783 17.9628 13.7501 17.75 13.7501H3.37305ZM16.627 5.75007H2.25003C2.03721 5.75007 1.85901 5.67828 1.71543 5.5347C1.57183 5.39111 1.50003 5.21291 1.50003 5.0001C1.50003 4.78728 1.57183 4.60908 1.71543 4.4655C1.85901 4.32191 2.03721 4.25012 2.25003 4.25012H16.627L14.3039 1.927C14.1551 1.7783 14.0817 1.60426 14.0837 1.4049C14.0856 1.20555 14.1641 1.02831 14.3192 0.873196C14.4744 0.728313 14.65 0.653313 14.8462 0.648196C15.0423 0.643063 15.2179 0.718063 15.3731 0.873196L18.8673 4.36742C18.9609 4.461 19.0269 4.55972 19.0654 4.66357C19.1038 4.7674 19.1231 4.87958 19.1231 5.0001C19.1231 5.12061 19.1038 5.23279 19.0654 5.33662C19.0269 5.44047 18.9609 5.53919 18.8673 5.63277L15.3731 9.127C15.2346 9.26546 15.0631 9.3363 14.8587 9.3395C14.6542 9.34271 14.4744 9.27188 14.3192 9.127C14.1641 8.97188 14.0866 8.79368 14.0866 8.5924C14.0866 8.39113 14.1641 8.21293 14.3192 8.0578L16.627 5.75007Z" fill="#71757A"/>
</svg>
