<svg width="237" height="57" viewBox="0 0 237 57" fill="none" xmlns="http://www.w3.org/2000/svg">
<path d="M104.677 7.41105L78.001 5.3659L79.4597 7.09563L105.518 9.0958L104.677 7.41105Z" fill="url(#paint0_linear_96_970)"/>
<path d="M93.6992 8.79607L80.1377 7.71324L83.384 11.7114L96.2569 12.1324L93.6992 8.79607Z" fill="url(#paint1_linear_96_970)"/>
<path d="M94.6616 8.88548L97.1271 12.1323L102.932 12.2844L100.616 9.36691L94.6616 8.88548Z" fill="url(#paint2_linear_96_970)"/>
<path d="M96.7962 12.7341L83.9571 12.4948L87.0829 16.2225H99.4743L96.7962 12.7341Z" fill="url(#paint3_linear_96_970)"/>
<path d="M106.031 16.0726L103.562 12.8841H97.7606L100.287 16.0726H106.031Z" fill="url(#paint4_linear_96_970)"/>
<path d="M99.9847 16.9138H87.6559L91.3232 21.2146L100.918 18.2071L99.9847 16.9138Z" fill="url(#paint5_linear_96_970)"/>
<path d="M108.886 19.892L109.758 17.9363L106.783 16.7951H100.918L102.932 19.5922L108.886 19.892Z" fill="url(#paint6_linear_96_970)"/>
<path d="M106.031 9.75839L101.638 9.48742L106.901 16.0727L109.758 17.1245L106.031 9.75839Z" fill="url(#paint7_linear_96_970)"/>
<path d="M107.863 24.3428L111.835 20.8544L110.421 18.089L107.863 24.3428Z" fill="url(#paint8_linear_96_970)"/>
<path d="M106.661 20.344L104.466 23.8324L107.263 24.3427L108.676 20.4939L106.661 20.344Z" fill="url(#paint9_linear_96_970)"/>
<path d="M103.683 20.344L99.4742 22.9889L103.683 23.7119L105.699 20.5229L103.683 20.344Z" fill="url(#paint10_linear_96_970)"/>
<path d="M101.638 18.8091L91.7595 21.8476L98.4519 22.9599L102.587 20.1629L101.638 18.8091Z" fill="url(#paint11_linear_96_970)"/>
<path d="M131.442 7.41105L130.599 9.0958L156.657 7.09563L158.117 5.3659L131.442 7.41105Z" fill="url(#paint12_linear_96_970)"/>
<path d="M139.862 12.1324L152.733 11.7114L155.982 7.71324L142.418 8.79607L139.862 12.1324Z" fill="url(#paint13_linear_96_970)"/>
<path d="M141.455 8.88548L135.502 9.36691L133.185 12.2844L138.99 12.1323L141.455 8.88548Z" fill="url(#paint14_linear_96_970)"/>
<path d="M136.645 16.2225H149.034L152.162 12.4948L139.321 12.7341L136.645 16.2225Z" fill="url(#paint15_linear_96_970)"/>
<path d="M138.359 12.8841H132.555L130.089 16.0726H135.832L138.359 12.8841Z" fill="url(#paint16_linear_96_970)"/>
<path d="M135.202 18.2071L144.794 21.2146L148.464 16.9138H136.132L135.202 18.2071Z" fill="url(#paint17_linear_96_970)"/>
<path d="M126.359 17.9363L127.231 19.892L133.185 19.5922L135.202 16.7951H129.337L126.359 17.9363Z" fill="url(#paint18_linear_96_970)"/>
<path d="M126.359 17.1245L129.216 16.0727L134.479 9.48742L130.089 9.75839L126.359 17.1245Z" fill="url(#paint19_linear_96_970)"/>
<path d="M124.284 20.8544L128.254 24.3428L125.697 18.089L124.284 20.8544Z" fill="url(#paint20_linear_96_970)"/>
<path d="M127.442 20.4939L128.856 24.3427L131.653 23.8324L129.455 20.344L127.442 20.4939Z" fill="url(#paint21_linear_96_970)"/>
<path d="M130.42 20.5229L132.433 23.7119L136.645 22.9889L132.433 20.344L130.42 20.5229Z" fill="url(#paint22_linear_96_970)"/>
<path d="M133.532 20.1629L137.667 22.9599L144.357 21.8476L134.479 18.8091L133.532 20.1629Z" fill="url(#paint23_linear_96_970)"/>
<path d="M130.69 7.37095L123.193 9.29507L120.888 15.7101L119.445 13.5755L122.572 8.13139L118.062 0.342773L113.552 8.13139L116.68 13.5755L115.236 15.7101L112.932 9.29454L105.434 7.37095L112.289 20.1822H123.839L130.69 7.37095ZM111.181 15.0701L108.174 9.48733L111.481 10.3201L111.181 15.0701ZM119.221 4.94504L121.085 8.29258L119.221 11.6198V4.94504ZM115.032 8.29472L116.896 4.94772V11.6241L115.032 8.29472ZM127.943 9.48786L124.936 15.0707L124.636 10.3179L127.943 9.48786Z" fill="url(#paint24_linear_96_970)"/>
<path d="M130.599 9.09581L156.658 7.09564L158.117 5.36805L131.443 7.4132L130.599 9.09581Z" fill="url(#paint25_linear_96_970)"/>
<path d="M139.863 12.1344L152.733 11.714L155.982 7.71324L142.418 8.79607L139.863 12.1344Z" fill="url(#paint26_linear_96_970)"/>
<path d="M135.502 9.36691L133.186 12.2843L138.99 12.1344L141.456 8.88535L135.502 9.36691Z" fill="url(#paint27_linear_96_970)"/>
<path d="M152.163 12.4948L139.321 12.7363L136.961 15.8128C137.175 15.9494 137.39 16.086 137.605 16.2247H149.035L152.162 12.4948L152.163 12.4948Z" fill="url(#paint28_linear_96_970)"/>
<path d="M132.555 12.8862L132.409 13.0742C133.678 13.7945 134.992 14.5779 136.348 15.4257L138.359 12.8862H132.555Z" fill="url(#paint29_linear_96_970)"/>
<path d="M138.67 16.916C140.632 18.205 142.68 19.6279 144.813 21.1964L148.464 16.916H138.67Z" fill="url(#paint30_linear_96_970)"/>
<path d="M130.089 9.75839L129.275 11.367C130.116 11.8055 130.977 12.2709 131.862 12.7652L134.479 9.48781L130.089 9.75839Z" fill="url(#paint31_linear_96_970)"/>
<path d="M124.348 8.99942C124.988 9.27949 125.643 9.57939 126.314 9.89695L127.941 9.48728L127.431 10.4341C127.849 10.6397 128.274 10.8523 128.706 11.074L130.687 7.37304L124.348 8.99942Z" fill="url(#paint32_linear_96_970)"/>
<path d="M116.896 4.94767V6.26076C117.639 6.47765 118.414 6.72131 119.221 6.99711V4.94767L120.645 7.50264C121.251 7.72648 121.875 7.96854 122.517 8.22773L122.571 8.13348L118.06 0.344865L114.939 5.73274C115.368 5.8377 115.809 5.95445 116.266 6.07976L116.896 4.94767Z" fill="url(#paint33_linear_96_970)"/>
<path fill-rule="evenodd" clip-rule="evenodd" d="M7.38297 54.6201C7.81989 54.9892 8.38342 55.1854 9.08605 55.1854C9.53366 55.1854 9.77441 55.3298 9.76549 55.6223C9.76549 55.8952 9.47303 56.0414 8.86135 56.0414C8.59741 56.0414 8.22827 56.0111 7.74142 55.9629C6.52697 55.8167 5.53366 55.7489 4.77575 55.7489C3.84128 55.7489 3.09229 55.7971 2.55729 55.8952C2.09006 55.9718 1.76906 56.0218 1.55506 56.0218C1.36246 56.0218 1.21444 55.9059 1.1663 55.7097L1.13598 55.5938L1.54614 55.2728C2.22737 55.0285 2.66429 54.7378 2.88899 54.3776C3.09229 54.0173 3.20999 53.4342 3.20999 52.6263L3.22782 51.3816V40.2233C3.22782 39.3673 3.06375 38.7645 2.77129 38.3954C2.47882 38.0262 1.93491 37.7908 1.13776 37.666C0.650914 37.5875 0.338832 37.5109 0.213999 37.4413L0 37.0829C0 36.81 0.115916 36.6745 0.338832 36.6923C0.515381 36.7119 0.757914 36.7422 1.09853 36.8082C1.43914 36.8956 2.00267 36.9241 2.8016 36.9241C3.31699 36.9241 3.9679 36.8956 4.74543 36.8475L5.76728 36.769C6.74097 36.6816 7.46857 36.6531 7.98573 36.6531C8.28712 36.6531 8.45297 36.769 8.45297 36.9937L8.38342 37.3325C8.33527 37.3825 8.21935 37.4306 8.02497 37.4306C7.36335 37.5376 6.92644 37.732 6.73027 37.9941C6.53589 38.2581 6.43781 38.7931 6.43781 39.5991V51.5385L6.55551 52.9473C6.67142 53.6767 6.94427 54.2313 7.38297 54.6201ZM28.7519 37.9721C28.7644 38.1634 28.7724 38.285 28.7829 38.3365L28.9077 39.378C28.938 39.592 28.9576 39.7864 28.9576 39.9326C28.9576 40.6905 28.7829 41.0793 28.4226 41.0793C28.2283 41.0793 28.1302 40.9545 28.1302 40.6905V40.2233C28.1302 40.0485 28.1106 39.8845 28.0624 39.7382C27.6737 38.5024 26.4467 37.8889 24.3567 37.8889L22.527 37.8711L21.9438 37.8889C21.4088 37.8889 21.0397 38.0066 20.8257 38.1992C20.6117 38.3954 20.5136 38.7449 20.5136 39.2514V43.7347C20.5136 44.2518 20.6028 44.6103 20.7276 44.7868C20.8649 44.9509 21.136 45.0472 21.5247 45.0472L22.0597 45.0294L23.5881 45.0097C24.2889 45.0097 24.8043 44.8439 25.1627 44.5532C25.514 44.2607 25.8743 43.6758 26.2149 42.802C26.3023 42.5969 26.4093 42.481 26.5252 42.481C26.798 42.481 26.9443 42.5969 26.9443 42.8412C26.9443 42.9179 26.9336 43.0356 26.914 43.2104L26.8943 43.6473C26.8943 44.2019 26.9247 44.8332 26.9728 45.5644L27.1868 48.2001C27.1918 48.3324 27.1984 48.4458 27.204 48.5418C27.2103 48.6503 27.2153 48.7366 27.2153 48.8029C27.2153 48.999 27.1083 49.106 26.8462 49.1239C26.6714 49.1435 26.5537 49.0169 26.5074 48.7547C26.3112 47.7828 25.9902 47.1194 25.5622 46.7806C25.1342 46.44 24.3656 46.2741 23.2671 46.2741C21.8564 46.2741 21.0397 46.3615 20.8364 46.5363C20.6313 46.7128 20.5154 47.3923 20.5154 48.5603L20.5332 49.6785V51.3334C20.5332 52.7422 20.7757 53.7641 21.2626 54.3972C21.6228 54.8644 22.3326 55.1462 23.4026 55.2228C23.7147 55.2532 23.8609 55.3887 23.8609 55.6134C23.8609 55.8755 23.7628 56.0022 23.5488 56.0022C23.3741 56.0022 23.1012 55.9825 22.741 55.9344C22.4004 55.9041 21.7209 55.8845 20.6991 55.8845H19.1422C18.4218 55.8845 17.8297 55.9148 17.3232 55.9825C16.642 56.0788 16.1659 56.1288 15.9429 56.1288C15.6398 56.1288 15.4757 56.0022 15.4757 55.7596C15.4757 55.5742 15.6023 55.4279 15.8645 55.3495C16.4191 55.1551 16.8078 54.8341 17.0022 54.3776C17.1966 53.9299 17.2947 53.1328 17.2947 52.0146V40.4765C17.2947 39.2995 17.0914 38.5416 16.6812 38.1814C16.2247 37.773 15.5328 37.5483 14.6393 37.5002C14.3861 37.4805 14.2684 37.3735 14.2684 37.1595C14.2684 36.8885 14.4146 36.7422 14.7356 36.7422C14.8177 36.7422 15.0021 36.756 15.2867 36.7772C15.3423 36.7813 15.4018 36.7857 15.465 36.7904C16.0303 36.8403 16.6135 36.8582 17.2448 36.8582L19.6772 36.8385L23.3741 36.8189C24.6384 36.8189 25.9313 36.7708 27.2457 36.6549C27.7307 36.6049 28.1106 36.5853 28.3353 36.5853C28.5386 36.5853 28.6759 36.8296 28.7044 37.3165C28.7268 37.5874 28.7411 37.806 28.7519 37.9721ZM44.774 51.8684C45.1716 51.3031 45.4356 51.0124 45.5319 51.0124C45.6888 51.0124 45.7851 51.1872 45.7851 51.5742C45.7851 52.7726 45.3963 53.8212 44.6188 54.7663C43.9465 55.592 43.0227 56.0022 41.8368 56.0022C41.5925 56.0022 41.1556 55.9825 40.5029 55.9344C40.3478 55.9148 39.7735 55.8845 38.8212 55.8363L37.2929 55.7685C36.7882 55.7382 36.1944 55.7204 35.5435 55.7204C34.4628 55.7204 33.2769 55.7882 32.0303 55.9344C31.6416 55.9825 31.3776 56.0022 31.2528 56.0022C30.9692 56.0022 30.8444 55.8755 30.8444 55.6312C30.8444 55.4475 30.971 55.3405 31.2136 55.2728C31.8074 55.1069 32.2354 54.7859 32.4601 54.2991C32.683 53.8122 32.7989 53.024 32.7989 51.9362V40.2233C32.7989 38.736 32.1766 37.8907 30.9318 37.6945L30.0847 37.5483C29.7263 37.5002 29.5497 37.3539 29.5497 37.131C29.5497 36.8582 29.6959 36.7119 29.9688 36.7119C30.0669 36.7119 30.2006 36.7315 30.379 36.7619C30.5127 36.7619 30.7089 36.7815 30.9318 36.81L31.5346 36.8564C32.1088 36.9045 32.5457 36.9348 32.8186 36.9348C33.2662 36.9348 33.9759 36.8867 34.9692 36.769C35.6986 36.6816 36.4476 36.6513 37.2055 36.6513C37.7798 36.6513 38.0526 36.7975 38.0526 37.0615C38.0526 37.2844 37.8582 37.4128 37.4498 37.4306C36.4869 37.4984 36.0196 38.1404 36.0196 39.3762V51.5474C36.0196 53.2986 36.2336 54.2795 36.6509 54.4935C36.8952 54.6005 37.3518 54.6682 38.033 54.6682C41.1948 54.6682 43.4418 53.7356 44.774 51.8684ZM60.6021 36.6962C60.8715 36.6861 61.1811 36.6745 61.5337 36.6745C61.7762 36.6745 61.9028 36.7815 61.9617 36.9259C61.9617 37.1292 61.7958 37.2665 61.4552 37.3432C60.7561 37.5109 60.1908 37.8319 59.7539 38.2884C59.3152 38.7449 58.7606 39.6116 58.1008 40.8956C56.9238 43.2014 55.8235 45.1274 54.8319 46.6825C54.6375 46.9732 54.5198 47.2086 54.4717 47.3833C54.4218 47.5581 54.4039 47.8791 54.4039 48.3374V52.4712L54.4717 53.4235C54.6375 54.4845 55.5506 55.0481 57.2733 55.1444C57.5836 55.1854 57.7298 55.3102 57.7298 55.5545C57.7298 55.8274 57.5158 55.9718 57.0985 55.9718C56.8738 55.9718 56.6313 55.9522 56.3692 55.9237L54.3736 55.7489C54.0241 55.699 53.4712 55.6812 52.7401 55.6812C51.0085 55.6812 49.8422 55.7489 49.2572 55.8452C48.8685 55.9148 48.5867 55.9433 48.4119 55.9433C48.2069 55.9433 48.091 55.7882 48.091 55.4761C48.091 55.3102 48.2176 55.1943 48.4797 55.1658C49.5105 55.0088 50.2309 54.6682 50.6019 54.1636C50.9799 53.666 51.1547 52.7726 51.1547 51.526V48.851C51.1547 48.2393 50.9514 47.5884 50.5412 46.9072C50.0562 46.119 49.5016 45.1453 48.9184 44.0271L46.7784 40.0289C45.9224 38.4239 44.9202 37.5679 43.7824 37.452C43.4418 37.4128 43.2653 37.2862 43.2653 37.0436C43.2653 36.7512 43.3919 36.6049 43.6558 36.6049C43.8877 36.6049 44.239 36.6352 44.7436 36.6834C45.7477 36.7993 46.6518 36.8475 47.4775 36.8475C48.2372 36.8475 49.0147 36.7993 49.7922 36.7226C50.3772 36.6745 50.7642 36.6442 50.9603 36.6442C51.3491 36.6442 51.5435 36.7619 51.5435 37.0044C51.5435 37.2184 51.3972 37.345 51.0762 37.4128C50.3469 37.559 49.9866 37.8693 49.9866 38.3561C49.9866 38.7449 50.3272 39.6009 51.0085 40.9331L52.1088 43.0552C52.5653 43.9201 52.8382 44.4551 52.9345 44.6798C53.2465 45.3504 53.5675 45.6714 53.8582 45.6714C54.1507 45.6714 54.5395 45.1952 55.0245 44.2411C55.0897 44.1354 55.1917 43.9482 55.335 43.6853C55.4939 43.3939 55.7034 43.0095 55.9697 42.5398C56.9897 40.6798 57.5069 39.5242 57.5069 39.057C57.5069 38.6682 57.2822 38.2973 56.8257 37.9585C56.3692 37.6179 55.8342 37.4039 55.2492 37.3539C54.9389 37.3254 54.7927 37.2095 54.7927 37.0133C54.7927 36.7226 54.9193 36.5764 55.1618 36.5764C55.4169 36.5764 55.6576 36.5942 55.8716 36.6263L56.7971 36.7512C57.1663 36.8011 57.6424 36.8189 58.2078 36.8189C58.5181 36.8189 58.8587 36.7993 59.2278 36.7708L60.4155 36.703C60.4754 36.7009 60.5376 36.6986 60.6021 36.6962ZM80.3665 37.9983C80.3778 38.1746 80.385 38.2874 80.3941 38.3365L80.3923 38.3401L80.5386 39.4101C80.5689 39.6241 80.5867 39.8167 80.5867 39.9629C80.5867 40.7226 80.412 41.1114 80.0517 41.1114C79.8573 41.1114 79.761 40.9848 79.761 40.7226V40.2554C79.761 40.0806 79.7414 39.9148 79.6933 39.7685C79.3027 38.5327 78.0776 37.9192 75.9857 37.9192L74.1578 37.9014L73.5747 37.921C73.0397 37.921 72.6688 38.0369 72.4548 38.2313C72.2408 38.4257 72.1445 38.777 72.1445 39.2817V43.7632C72.1445 44.2804 72.2318 44.6406 72.3585 44.8154C72.4958 44.9812 72.7668 45.0775 73.1556 45.0775L73.6906 45.0579L75.2189 45.0383C75.9198 45.0383 76.4334 44.8742 76.7936 44.5817C77.1449 44.2893 77.5051 43.7061 77.844 42.8305C77.9314 42.6272 78.0383 42.5095 78.156 42.5095C78.4289 42.5095 78.5733 42.6272 78.5733 42.8697C78.5733 42.9482 78.5626 43.0641 78.5448 43.2389L78.5252 43.6776C78.5252 44.2322 78.5537 44.8635 78.6037 45.5929L78.8177 48.2304C78.8227 48.3624 78.8292 48.4752 78.8348 48.5708C78.8412 48.6794 78.8462 48.7659 78.8462 48.8332C78.8462 49.0276 78.7392 49.1346 78.4753 49.1542C78.3023 49.1738 78.1846 49.0472 78.1364 48.7833C77.942 47.8113 77.621 47.1497 77.193 46.8091C76.7651 46.4685 75.9964 46.3044 74.8979 46.3044C73.4873 46.3044 72.6795 46.3918 72.4654 46.5666C72.2604 46.7413 72.1445 47.4226 72.1445 48.5889L72.1623 49.7088V51.3619C72.1623 52.7726 72.4066 53.7944 72.8934 54.4257C73.2537 54.8929 73.9634 55.1747 75.0334 55.2532C75.3437 55.2817 75.49 55.4172 75.49 55.6419C75.49 55.9059 75.3937 56.0307 75.1797 56.0307C75.0049 56.0307 74.7321 56.0111 74.3718 55.9629C74.0312 55.9326 73.35 55.9148 72.3299 55.9148H70.7731C70.0526 55.9148 69.4588 55.9433 68.9541 56.0111C68.2729 56.1092 67.7967 56.1573 67.572 56.1573C67.2706 56.1573 67.1048 56.0307 67.1048 55.7882C67.1048 55.6027 67.2314 55.4565 67.4953 55.3798C68.0499 55.1854 68.4369 54.8644 68.6331 54.4061C68.8275 53.9585 68.9238 53.1613 68.9238 52.0432V40.5068C68.9238 39.3298 68.7205 38.5701 68.3121 38.2099C67.8556 37.8015 67.1636 37.5786 66.2684 37.5287C66.0169 37.5109 65.901 37.4039 65.901 37.1899C65.901 36.917 66.0437 36.7708 66.3647 36.7708C66.4461 36.7708 66.6282 36.7843 66.9099 36.8052C66.9677 36.8095 67.0297 36.8141 67.0959 36.8189C67.6594 36.8689 68.2443 36.8885 68.8756 36.8885L71.2885 36.8385L74.9871 36.8189C76.2515 36.8189 77.5444 36.7708 78.8587 36.6549C79.3437 36.6049 79.7236 36.5853 79.9465 36.5853C80.1516 36.5853 80.2871 36.8296 80.3174 37.3165C80.341 37.6019 80.3556 37.8293 80.3665 37.9983ZM88.5653 54.6201C89.0022 54.9892 89.5676 55.1854 90.2684 55.1854C90.7249 55.1854 90.9496 55.3298 90.9496 55.6312C90.9496 55.9041 90.6572 56.0503 90.0437 56.0503C89.7815 56.0503 89.4124 56.0218 88.9256 55.9718C87.7093 55.8274 86.7178 55.7578 85.9581 55.7578C85.0254 55.7578 84.2764 55.8078 83.7414 55.9059C83.2742 55.9825 82.9532 56.0307 82.7392 56.0307C82.5448 56.0307 82.3986 55.9148 82.3504 55.7204L82.3201 55.6027L82.7285 55.2817C83.4097 55.0392 83.8484 54.7467 84.0731 54.3865C84.2764 54.0262 84.3941 53.4431 84.3941 52.6352L84.412 51.3905V40.234C84.412 39.378 84.2461 38.7752 83.9554 38.4061C83.663 38.0351 83.119 37.8015 82.3201 37.6749C81.835 37.5982 81.523 37.5198 81.3981 37.452L81.1841 37.0918C81.1841 36.8189 81.3 36.6834 81.523 36.703C81.6977 36.7226 81.942 36.7512 82.2827 36.8189C82.6215 36.9063 83.1868 36.9366 83.9857 36.9366C84.4993 36.9366 85.152 36.9063 85.9296 36.8385L86.9514 36.7619C87.9233 36.6745 88.6527 36.6442 89.1681 36.6442C89.4695 36.6442 89.6353 36.7619 89.6353 36.9866L89.5676 37.3254C89.5194 37.3842 89.4035 37.4235 89.2073 37.452C88.5457 37.559 88.1088 37.7534 87.9144 38.0155C87.72 38.2795 87.6219 38.8145 87.6219 39.6205V51.5563L87.7396 52.9669C87.8556 53.6767 88.1284 54.2313 88.5653 54.6201ZM99.0994 45.7302C100.763 45.7302 101.783 45.6999 102.193 45.6321C102.582 45.5644 102.951 45.3896 103.331 45.0383C104.012 44.4248 104.353 43.5688 104.353 42.481C104.353 41.0704 103.886 39.9023 102.962 38.9785C102.037 38.0548 100.881 37.5982 99.4507 37.5982C98.8177 37.5982 98.3807 37.7445 98.1364 38.0048C97.8939 38.2884 97.778 38.7752 97.778 39.485V44.3481C97.778 44.9509 97.835 45.3218 98.0009 45.4859C98.1471 45.6517 98.5163 45.7302 99.0994 45.7302ZM110.762 54.2598L111.074 54.2117C111.23 54.2117 111.328 54.3294 111.395 54.5719C111.395 54.8448 111.007 55.1569 110.247 55.4957C109.469 55.8363 108.808 56.0111 108.205 56.0111C107.251 56.0111 106.358 55.526 105.55 54.5808C104.733 53.6482 103.683 51.8488 102.39 49.222C101.89 48.1912 101.462 47.5189 101.141 47.2478C100.82 46.975 100.285 46.8287 99.5363 46.8287H98.6625L98.0294 46.9464C97.885 47.0231 97.8154 47.2567 97.8154 47.6259V50.4774C97.8154 52.2572 97.9831 53.4538 98.3041 54.0869C98.6429 54.7182 99.276 55.0784 100.248 55.1747C100.637 55.2139 100.831 55.3602 100.831 55.6312C100.831 55.9148 100.687 56.0414 100.366 56.0414C100.248 56.0414 100.054 56.0218 99.7824 55.9915C98.9746 55.9237 98.1953 55.8952 97.4463 55.8952C96.815 55.8952 96.2604 55.9148 95.7735 55.9433L94.5876 56.0592L93.6424 56.1377C93.5137 56.1429 93.4013 56.1499 93.3088 56.1557C93.213 56.1616 93.1386 56.1662 93.0896 56.1662C92.749 56.1662 92.5832 56.0414 92.5832 55.7792C92.5832 55.5652 92.6598 55.4368 92.856 55.3691C93.4873 55.1747 93.926 54.8929 94.1685 54.5719C94.4111 54.2313 94.5395 53.7249 94.5395 53.0454V51.7115L94.5573 51.1586V41.0115C94.5573 39.9023 94.4111 39.1533 94.14 38.7645C93.6728 38.1332 92.9327 37.7534 91.893 37.6268C91.5042 37.559 91.3081 37.4039 91.3081 37.1417C91.3081 36.8582 91.4347 36.7315 91.6986 36.7315C91.7949 36.7315 91.9804 36.7512 92.2033 36.7815C92.9131 36.8689 93.712 36.8974 94.568 36.8974C95.5114 36.8974 96.6581 36.8296 98.0009 36.7315C99.5863 36.6245 100.667 36.5568 101.27 36.5568C103.058 36.5568 104.528 37.0436 105.696 38.0173C106.862 38.9892 107.445 40.1948 107.445 41.6731C107.445 42.5987 107.185 43.444 106.668 44.2037C106.152 44.9616 105.432 45.5447 104.528 45.9335C104.342 45.9924 104.246 46.0904 104.266 46.2064L104.412 46.547C104.489 46.6736 104.615 46.8965 104.781 47.2086L106.026 49.4253L107.465 51.9843C107.971 52.8582 108.408 53.4645 108.799 53.8033C109.168 54.1439 109.644 54.3098 110.16 54.3098C110.374 54.3098 110.568 54.2902 110.762 54.2598ZM114.976 42.1314C115.335 42.4524 116.444 43.0053 118.311 43.7632C120.53 44.678 122.008 45.5644 122.729 46.3811C123.593 47.4422 124.012 48.6959 124.012 50.1743C124.012 51.8096 123.428 53.2202 122.242 54.4346C121.065 55.6508 119.684 56.2536 118.097 56.2536C117.455 56.2536 116.433 56.0307 115.025 55.5938C114.383 55.3887 113.896 55.2425 113.584 55.1747C113.156 55.0962 112.902 55.0088 112.835 54.9322C112.778 54.8537 112.708 54.6112 112.66 54.2028C112.612 53.7641 112.465 53.1132 112.243 52.2875C111.882 51.0124 111.708 50.2046 111.708 49.8443C111.708 49.3878 111.852 49.1649 112.144 49.1649C112.271 49.1649 112.367 49.2808 112.417 49.5037C112.885 51.1087 113.671 52.4623 114.811 53.5501C115.948 54.6308 117.125 55.1854 118.341 55.1854C119.294 55.1854 120.13 54.8252 120.879 54.094C121.628 53.3842 121.997 52.5586 121.997 51.6152C121.997 50.884 121.803 50.2634 121.416 49.7962C121.025 49.3272 120.355 48.8724 119.401 48.4533L117.261 47.4993C115.256 46.6147 113.896 45.7587 113.165 44.9616C112.437 44.1644 112.077 43.1034 112.077 41.7694C112.077 40.234 112.581 38.9393 113.584 37.8996C114.586 36.8599 115.85 36.3428 117.339 36.3428C118.215 36.3428 119.071 36.5086 119.916 36.8492L120.86 37.238C121.288 37.4235 121.58 37.5002 121.755 37.5002L122.163 37.4039L122.698 37.1399L122.923 37.0918C123.117 37.0918 123.214 37.2469 123.214 37.559L123.185 38.6968C123.185 38.8822 123.185 39.0374 123.205 39.2032L123.379 40.5835L123.526 41.8675L123.554 42.1404C123.554 42.5487 123.419 42.7431 123.194 42.7431C123.021 42.7431 122.903 42.5684 122.825 42.2081C122.552 40.8956 121.872 39.7775 120.772 38.8234C119.683 37.8604 118.525 37.3932 117.289 37.3932C116.453 37.3932 115.724 37.6856 115.092 38.2491C114.459 38.8234 114.149 39.485 114.149 40.2625C114.149 40.9919 114.42 41.6143 114.976 42.1314ZM143.584 38.3544V38.3561L143.731 39.5224C143.798 40.0182 143.827 40.4266 143.827 40.7191C143.827 41.0401 143.72 41.1845 143.458 41.1845C143.224 41.1845 143.078 41.0097 143.001 40.6495C142.807 39.7757 142.416 39.1426 141.864 38.7538C141.318 38.3651 140.501 38.1707 139.451 38.1707C138.031 38.1707 137.156 38.267 136.795 38.4917C136.455 38.7146 136.28 39.2496 136.28 40.1252V50.6914C136.28 52.2661 136.503 53.386 136.961 54.0459C137.418 54.7075 138.226 55.0677 139.392 55.1462C139.732 55.1854 139.898 55.3405 139.898 55.6508C139.898 55.8559 139.752 55.9718 139.46 55.9718L139.101 55.9522L138.049 55.9041L136.3 55.7864C136.153 55.7685 135.959 55.7685 135.734 55.7685C135.199 55.7685 134.714 55.7882 134.276 55.8167L131.183 55.9915L131.128 55.9964C130.818 56.0239 130.62 56.0414 130.502 56.0414C130.21 56.0414 130.065 55.9148 130.083 55.6722C130.104 55.4582 130.151 55.3298 130.229 55.2621C130.317 55.2139 130.511 55.164 130.784 55.1462C131.513 55.0962 132.057 54.8341 132.467 54.3472C132.874 53.8622 133.07 53.2006 133.07 52.3731L133.049 51.7115V39.2514C133.049 38.522 132.651 38.1511 131.854 38.1511C129.976 38.1511 128.692 38.2884 128.011 38.5612C127.506 38.7752 127.174 39.0088 127.019 39.2603C126.864 39.5135 126.63 40.1662 126.358 41.1863L126.242 41.5768C126.144 41.9638 125.988 42.16 125.774 42.16C125.462 42.16 125.318 42.0138 125.336 41.7213C125.357 41.4502 125.405 41.09 125.482 40.6228L125.628 39.4065L125.794 38.1618L125.89 37.3058C125.921 36.9259 126.115 36.7512 126.475 36.7512C126.552 36.7512 126.718 36.7619 126.941 36.7815C127.303 36.81 127.816 36.8296 128.498 36.8296L131.365 36.8582L134.78 36.9063C136.968 36.9063 139.303 36.8582 141.764 36.7315C142.026 36.7258 142.237 36.718 142.398 36.712C142.537 36.7068 142.64 36.703 142.707 36.703C143.222 36.703 143.486 36.917 143.513 37.3539L143.584 38.3544ZM164.048 51.1087L164.419 50.8662C164.594 50.8466 164.69 50.9625 164.701 51.2264C164.701 51.5956 164.351 52.2072 163.602 53.0543C161.657 55.2425 159.272 56.3428 156.423 56.3428C153.669 56.3428 151.442 55.4672 149.721 53.7052C147.998 51.9451 147.142 49.6589 147.142 46.8394C147.142 45.3022 147.463 43.7846 148.116 42.3062C148.749 40.8189 149.623 39.6205 150.693 38.6968C152.455 37.1899 154.516 36.4302 156.879 36.4302C158.63 36.4302 160.159 36.7993 161.452 37.5483L162.375 38.0833C162.561 38.201 162.736 38.2491 162.882 38.2491C163.076 38.2491 163.203 38.1725 163.299 38.0262L163.592 37.5875L163.854 37.4716C164.146 37.4716 164.292 37.7623 164.292 38.3758L164.312 39.3976V40.6816L164.43 41.7516L164.555 42.3829C164.603 42.6932 164.633 42.9678 164.633 43.2104C164.633 43.5706 164.506 43.7454 164.244 43.7454C164.098 43.7454 164 43.6294 163.952 43.4047C163.884 43.0552 163.611 42.5006 163.174 41.7712C162.736 41.0222 162.318 40.4569 161.908 40.02C160.266 38.2581 158.456 37.3842 156.462 37.3842C154.691 37.3842 153.252 38.094 152.153 39.5528C151.053 41.0133 150.498 42.8894 150.498 45.2041C150.498 48.2304 151.385 50.6415 153.204 52.4409C154.564 53.7837 156.034 54.4649 157.639 54.4649C158.602 54.4649 159.602 54.2402 160.654 53.7837C161.705 53.3361 162.532 52.7619 163.144 52.1002L164.048 51.1087ZM180.858 51.8684C181.257 51.3031 181.519 51.0124 181.616 51.0124C181.801 51.0124 181.881 51.1872 181.871 51.5742C181.871 52.7726 181.482 53.8212 180.704 54.7663C180.032 55.592 179.108 56.0022 177.922 56.0022C177.678 56.0022 177.241 55.9825 176.589 55.9344C176.433 55.9148 175.859 55.8845 174.907 55.8363L173.379 55.7685C172.874 55.7382 172.28 55.7204 171.629 55.7204C170.548 55.7204 169.362 55.7882 168.116 55.9344C167.727 55.9825 167.465 56.0022 167.34 56.0022C167.055 56.0022 166.93 55.8755 166.93 55.6312C166.93 55.4475 167.057 55.3405 167.299 55.2728C167.893 55.1069 168.321 54.7859 168.546 54.2991C168.769 53.8122 168.885 53.024 168.885 51.9362V40.2233C168.885 38.736 168.262 37.8907 167.017 37.6945L166.172 37.5483C165.812 37.5002 165.637 37.3539 165.637 37.131C165.637 36.8582 165.782 36.7119 166.054 36.7119C166.152 36.7119 166.288 36.7315 166.465 36.7619C166.6 36.7619 166.794 36.7815 167.017 36.81L167.618 36.8564C168.193 36.9045 168.631 36.9348 168.902 36.9348C169.35 36.9348 170.06 36.8867 171.053 36.769C171.782 36.6816 172.531 36.6513 173.289 36.6513C173.864 36.6513 174.136 36.7975 174.136 37.0615C174.136 37.2844 173.942 37.4128 173.534 37.4306C172.571 37.4984 172.103 38.1404 172.103 39.3762V51.5474C172.103 53.2986 172.317 54.2795 172.735 54.4935C172.979 54.6005 173.436 54.6682 174.117 54.6682C177.279 54.6682 179.526 53.7356 180.858 51.8684ZM188.426 47.7525H192.569C192.929 47.7525 193.104 47.6562 193.104 47.4707L193.036 47.2282L192.968 47.0623L191.14 42.7824C190.702 41.7623 190.37 41.2451 190.195 41.2451C190.088 41.2451 189.874 41.5768 189.584 42.2384L189.32 42.8216L187.686 46.5666L187.52 46.9268L187.424 47.2853C187.424 47.5884 187.765 47.7525 188.426 47.7525ZM199.943 54.6005C200.371 54.9607 200.934 55.2032 201.616 55.3316C201.79 55.3691 201.869 55.4957 201.83 55.6705C201.83 55.9237 201.723 56.0592 201.509 56.0414C201.382 56.0414 201.197 56.0111 200.974 55.9629C200.264 55.7971 199.096 55.7204 197.491 55.7204C195.886 55.7204 194.787 55.7971 194.204 55.9433L193.833 56.0129C193.571 56.0129 193.445 55.8755 193.445 55.6027C193.445 55.4565 193.543 55.3602 193.757 55.2924C194.213 55.1551 194.582 54.9304 194.875 54.5915C195.167 54.2509 195.312 53.8907 195.312 53.5216C195.312 52.9955 194.903 51.8488 194.097 50.069C193.853 49.5144 193.58 49.2023 193.27 49.1239C192.968 49.0365 191.898 49.008 190.049 49.008H188.153L186.889 49.2309C186.529 49.3967 186.14 50.0102 185.701 51.0802L185.264 52.168C185.138 52.4801 185.068 52.7922 185.068 53.1132C185.068 54.2812 185.876 54.9607 187.529 55.1551C187.881 55.2032 188.064 55.3495 188.046 55.5742C188.027 55.8185 187.861 55.9433 187.54 55.9433C187.383 55.9433 187.142 55.9148 186.83 55.8648C186.217 55.7578 185.662 55.6901 185.177 55.6901C184.738 55.6901 184.029 55.7382 183.037 55.8363C182.308 55.9237 181.849 55.9522 181.675 55.9522C181.411 55.9522 181.286 55.8363 181.286 55.6134C181.286 55.4368 181.412 55.2924 181.675 55.1943C182.181 55.0285 182.579 54.7378 182.891 54.3187C183.201 53.8818 183.649 52.9955 184.253 51.6348L188.075 42.802C188.18 42.5697 188.274 42.3604 188.357 42.1749C188.521 41.8095 188.644 41.5367 188.728 41.3628L190.04 38.6878L190.721 37.3735V37.4235C191.012 36.7119 191.226 36.3535 191.324 36.3535C191.49 36.3535 191.733 36.7619 192.103 37.5394L192.442 38.2884L198.823 52.9473C199.135 53.6767 199.504 54.2313 199.943 54.6005ZM205.516 42.1314C205.876 42.4524 206.985 43.0053 208.854 43.7632C211.071 44.678 212.549 45.5644 213.259 46.4007C214.124 47.4618 214.543 48.7155 214.543 50.1939C214.543 51.8292 213.949 53.2398 212.772 54.4542C211.595 55.6705 210.215 56.2732 208.63 56.2732C207.988 56.2732 206.964 56.0503 205.555 55.6134C204.913 55.4083 204.426 55.2621 204.116 55.1943C203.688 55.1158 203.435 55.0285 203.367 54.9518C203.308 54.8733 203.24 54.6308 203.192 54.2224C203.142 53.7855 202.996 53.1328 202.773 52.3053C202.413 51.0302 202.238 50.2242 202.238 49.8622C202.238 49.4074 202.384 49.1845 202.675 49.1845C202.802 49.1845 202.9 49.3004 202.948 49.5233C203.415 51.1283 204.203 52.4819 205.341 53.5697C206.479 54.6504 207.656 55.2032 208.872 55.2032C209.824 55.2032 210.663 54.8448 211.412 54.1136C212.161 53.4039 212.53 52.5782 212.53 51.6348C212.53 50.9036 212.335 50.2812 211.947 49.8158C211.556 49.3468 210.885 48.8903 209.933 48.473L207.793 47.5189C205.789 46.6343 204.428 45.7784 203.697 44.9812C202.967 44.1823 202.607 43.123 202.607 41.7891C202.607 40.2536 203.114 38.9589 204.116 37.9192C205.118 36.8796 206.383 36.3624 207.87 36.3624C208.745 36.3624 209.601 36.5282 210.447 36.8689L211.392 37.2576C211.82 37.4413 212.111 37.5198 212.285 37.5198L212.696 37.4039L213.23 37.1399L213.453 37.0918C213.648 37.0918 213.746 37.2469 213.746 37.559L213.716 38.6968C213.716 38.8822 213.726 39.0374 213.746 39.2032L213.921 40.5835L214.067 41.8675L214.095 42.1404C214.095 42.5487 213.96 42.7431 213.735 42.7431C213.562 42.7431 213.445 42.5684 213.366 42.2081C213.093 40.8956 212.412 39.7775 211.313 38.8234C210.224 37.8604 209.066 37.3932 207.831 37.3932C206.994 37.3932 206.265 37.6856 205.634 38.2491C205 38.8234 204.69 39.485 204.69 40.2625C204.69 40.9919 204.963 41.6143 205.516 42.1314ZM219.631 42.1314C219.989 42.4524 221.099 43.0053 222.967 43.7632C225.184 44.678 226.652 45.5644 227.383 46.3811C228.248 47.4422 228.667 48.6959 228.667 50.1743C228.667 51.8096 228.084 53.2202 226.896 54.4346C225.719 55.6508 224.339 56.2536 222.753 56.2536C222.111 56.2536 221.088 56.0307 219.679 55.5938C219.037 55.3887 218.55 55.2425 218.24 55.1747C217.812 55.0962 217.548 55.0088 217.491 54.9322C217.432 54.8537 217.364 54.6112 217.316 54.2028C217.266 53.7641 217.12 53.1132 216.897 52.2875C216.537 51.0124 216.362 50.2046 216.362 49.8443C216.362 49.3878 216.508 49.1649 216.799 49.1649C216.926 49.1649 217.024 49.2808 217.072 49.5037C217.539 51.1087 218.327 52.4623 219.465 53.5501C220.603 54.6308 221.78 55.1854 222.996 55.1854C223.948 55.1854 224.786 54.8252 225.535 54.094C226.284 53.3842 226.654 52.5586 226.654 51.6152C226.654 50.884 226.459 50.2634 226.07 49.7962C225.68 49.3272 225.009 48.8724 224.057 48.4533L221.917 47.4993C219.913 46.6147 218.552 45.7587 217.821 44.9616C217.091 44.1644 216.731 43.1034 216.731 41.7694C216.731 40.234 217.238 38.9393 218.24 37.8996C219.242 36.8599 220.506 36.3428 221.994 36.3428C222.869 36.3428 223.725 36.5086 224.571 36.8492L225.516 37.238C225.944 37.4235 226.235 37.5002 226.409 37.5002L226.819 37.4039L227.354 37.1399L227.577 37.0918C227.772 37.0918 227.87 37.2469 227.87 37.559L227.84 38.6968C227.84 38.8822 227.85 39.0374 227.87 39.2032L228.045 40.5835L228.191 41.8675L228.219 42.1404C228.219 42.5487 228.084 42.7431 227.859 42.7431C227.686 42.7431 227.568 42.5684 227.49 42.2081C227.208 40.8956 226.527 39.7775 225.428 38.8234C224.339 37.8604 223.181 37.3932 221.946 37.3932C221.109 37.3932 220.38 37.6749 219.749 38.2491C219.115 38.8234 218.803 39.485 218.803 40.2625C218.803 40.9919 219.076 41.6143 219.631 42.1314ZM232.432 37.188L232.442 37.3342L232.48 37.4804L232.49 37.6552L232.432 37.723L232.364 37.6463C232.335 37.5197 232.276 37.4323 232.198 37.3734C232.121 37.3146 232.004 37.2861 231.848 37.2861C231.634 37.2861 231.508 37.3057 231.46 37.3342C231.41 37.3627 231.381 37.4412 231.381 37.5678V39.0961C231.381 39.3297 231.41 39.4849 231.479 39.583C231.547 39.6704 231.663 39.7292 231.829 39.7381L231.907 39.8059L231.848 39.8558H231.8L231.643 39.8451L231.392 39.8255H231.312L231.098 39.8362L230.652 39.8647L230.554 39.8754L230.497 39.8255L230.516 39.7667L230.593 39.7488L230.835 39.6311C230.894 39.5634 230.925 39.4671 230.925 39.3494V37.4501C230.925 37.3431 230.866 37.295 230.748 37.295C230.477 37.295 230.292 37.3146 230.195 37.3538L230.049 37.4501C230.029 37.4894 229.992 37.5874 229.951 37.7337L229.931 37.7907L229.864 37.8781L229.807 37.8211L229.824 37.6641L229.846 37.4894L229.864 37.3039L229.872 37.1791L229.962 37.1006H230.029L230.252 37.1113H230.671L231.169 37.1202C231.49 37.1202 231.82 37.1095 232.178 37.0917H232.316L232.432 37.188ZM235.759 39.6097C235.816 39.6971 235.934 39.747 236.08 39.7667V39.7649L236.118 39.854L235.982 39.9111L235.856 39.9022C235.69 39.8826 235.574 39.8737 235.506 39.8737C235.36 39.8737 235.244 39.8826 235.146 39.8933L234.96 39.9111L234.912 39.863L234.971 39.8041L235.137 39.6971L235.185 39.4831V39.3868L235.126 38.044L235.098 37.9851L235.008 38.0921L234.242 39.7078L234.211 39.7667L234.115 39.8933C234.085 39.8933 234.037 39.8148 233.969 39.6686L233.862 39.4546L233.211 38.0047L233.2 37.9762L233.172 37.9655L233.141 38.0547V38.1207L233.113 39.1425V39.2192L233.131 39.4136C233.172 39.6186 233.279 39.7346 233.452 39.7845L233.541 39.8523L233.471 39.9004L233.346 39.8897L233.2 39.8719L233.045 39.863C232.918 39.863 232.82 39.8719 232.753 39.8808L232.656 39.8915L232.597 39.8326L232.646 39.7738L232.87 39.5883C232.918 39.5009 232.938 39.3743 232.938 39.2192L232.997 37.887L233.006 37.7533C233.006 37.5964 232.967 37.4697 232.89 37.3734C232.811 37.2861 232.704 37.2361 232.569 37.2361L232.489 37.1791L232.578 37.1202H232.628L232.742 37.1291H232.831L233.015 37.1202L233.189 37.1024L233.386 37.2272L234.211 39.0462L234.299 39.1639L234.379 39.0747L235.146 37.4501C235.214 37.295 235.272 37.1987 235.303 37.1594L235.428 37.1006L235.517 37.1113L235.642 37.1202L235.847 37.1113L235.943 37.1006L236.011 37.1594L235.954 37.2094C235.827 37.2183 235.74 37.2557 235.69 37.3342C235.642 37.402 235.613 37.5393 235.613 37.7141V37.8514L235.661 39.1033V39.1924C235.661 39.3868 235.69 39.5223 235.759 39.6097Z" fill="black"/>
<defs>
<linearGradient id="paint0_linear_96_970" x1="23151" y1="1430.72" x2="401.905" y2="-1643.03" gradientUnits="userSpaceOnUse">
<stop stop-color="#8B733D"/>
<stop offset="0.3622" stop-color="#DCB96B"/>
<stop offset="0.5731" stop-color="#EAC572"/>
<stop offset="1" stop-color="#BD9244"/>
</linearGradient>
<linearGradient id="paint1_linear_96_970" x1="37851.9" y1="2037.73" x2="869.396" y2="-8068.12" gradientUnits="userSpaceOnUse">
<stop stop-color="#8B733D"/>
<stop offset="0.3622" stop-color="#DCB96B"/>
<stop offset="0.5731" stop-color="#EAC572"/>
<stop offset="1" stop-color="#BD9244"/>
</linearGradient>
<linearGradient id="paint2_linear_96_970" x1="60321.6" y1="3284.72" x2="-6563.81" y2="-24114.7" gradientUnits="userSpaceOnUse">
<stop stop-color="#8B733D"/>
<stop offset="0.3622" stop-color="#DCB96B"/>
<stop offset="0.5731" stop-color="#EAC572"/>
<stop offset="1" stop-color="#BD9244"/>
</linearGradient>
<linearGradient id="paint3_linear_96_970" x1="36890.6" y1="1907.29" x2="-2095.81" y2="-7428.03" gradientUnits="userSpaceOnUse">
<stop stop-color="#8B733D"/>
<stop offset="0.3622" stop-color="#DCB96B"/>
<stop offset="0.5731" stop-color="#EAC572"/>
<stop offset="1" stop-color="#BD9244"/>
</linearGradient>
<linearGradient id="paint4_linear_96_970" x1="56571.1" y1="3009.56" x2="-11366.2" y2="-23098.5" gradientUnits="userSpaceOnUse">
<stop stop-color="#8B733D"/>
<stop offset="0.3622" stop-color="#DCB96B"/>
<stop offset="0.5731" stop-color="#EAC572"/>
<stop offset="1" stop-color="#BD9244"/>
</linearGradient>
<linearGradient id="paint5_linear_96_970" x1="40341.1" y1="2228.12" x2="-3512.66" y2="-11946.5" gradientUnits="userSpaceOnUse">
<stop stop-color="#8B733D"/>
<stop offset="0.3622" stop-color="#DCB96B"/>
<stop offset="0.5731" stop-color="#EAC572"/>
<stop offset="1" stop-color="#BD9244"/>
</linearGradient>
<linearGradient id="paint6_linear_96_970" x1="49358.7" y1="2618.26" x2="-15505.7" y2="-20029.1" gradientUnits="userSpaceOnUse">
<stop stop-color="#8B733D"/>
<stop offset="0.3622" stop-color="#DCB96B"/>
<stop offset="0.5731" stop-color="#EAC572"/>
<stop offset="1" stop-color="#BD9244"/>
</linearGradient>
<linearGradient id="paint7_linear_96_970" x1="54551.1" y1="5301.27" x2="9546.88" y2="-36886.5" gradientUnits="userSpaceOnUse">
<stop stop-color="#8B733D"/>
<stop offset="0.3622" stop-color="#DCB96B"/>
<stop offset="0.5731" stop-color="#EAC572"/>
<stop offset="1" stop-color="#BD9244"/>
</linearGradient>
<linearGradient id="paint8_linear_96_970" x1="40669.6" y1="6434.26" x2="17886.2" y2="-29324.6" gradientUnits="userSpaceOnUse">
<stop stop-color="#8B733D"/>
<stop offset="0.3622" stop-color="#DCB96B"/>
<stop offset="0.5731" stop-color="#EAC572"/>
<stop offset="1" stop-color="#BD9244"/>
</linearGradient>
<linearGradient id="paint9_linear_96_970" x1="95031.5" y1="8830.98" x2="8897.84" y2="-72731.9" gradientUnits="userSpaceOnUse">
<stop stop-color="#8B733D"/>
<stop offset="0.3622" stop-color="#DCB96B"/>
<stop offset="0.5731" stop-color="#EAC572"/>
<stop offset="1" stop-color="#BD9244"/>
</linearGradient>
<linearGradient id="paint10_linear_96_970" x1="70427.4" y1="4354.14" x2="-10842.7" y2="-39467.9" gradientUnits="userSpaceOnUse">
<stop stop-color="#8B733D"/>
<stop offset="0.3622" stop-color="#DCB96B"/>
<stop offset="0.5731" stop-color="#EAC572"/>
<stop offset="1" stop-color="#BD9244"/>
</linearGradient>
<linearGradient id="paint11_linear_96_970" x1="46164.5" y1="2608.02" x2="-5794.18" y2="-17245.2" gradientUnits="userSpaceOnUse">
<stop stop-color="#8B733D"/>
<stop offset="0.3622" stop-color="#DCB96B"/>
<stop offset="0.5731" stop-color="#EAC572"/>
<stop offset="1" stop-color="#BD9244"/>
</linearGradient>
<linearGradient id="paint12_linear_96_970" x1="9085.31" y1="1260.99" x2="-13663.7" y2="-1812.76" gradientUnits="userSpaceOnUse">
<stop stop-color="#8B733D"/>
<stop offset="0.3622" stop-color="#DCB96B"/>
<stop offset="0.5731" stop-color="#EAC572"/>
<stop offset="1" stop-color="#BD9244"/>
</linearGradient>
<linearGradient id="paint13_linear_96_970" x1="10628.7" y1="1360.86" x2="-26353.8" y2="-8744.99" gradientUnits="userSpaceOnUse">
<stop stop-color="#8B733D"/>
<stop offset="0.3622" stop-color="#DCB96B"/>
<stop offset="0.5731" stop-color="#EAC572"/>
<stop offset="1" stop-color="#BD9244"/>
</linearGradient>
<linearGradient id="paint14_linear_96_970" x1="26094.4" y1="2009.43" x2="-40790.9" y2="-25390" gradientUnits="userSpaceOnUse">
<stop stop-color="#8B733D"/>
<stop offset="0.3622" stop-color="#DCB96B"/>
<stop offset="0.5731" stop-color="#EAC572"/>
<stop offset="1" stop-color="#BD9244"/>
</linearGradient>
<linearGradient id="paint15_linear_96_970" x1="11922.5" y1="1368.8" x2="-27063.9" y2="-7966.52" gradientUnits="userSpaceOnUse">
<stop stop-color="#8B733D"/>
<stop offset="0.3622" stop-color="#DCB96B"/>
<stop offset="0.5731" stop-color="#EAC572"/>
<stop offset="1" stop-color="#BD9244"/>
</linearGradient>
<linearGradient id="paint16_linear_96_970" x1="27814.5" y1="2018.82" x2="-40122.9" y2="-24089.1" gradientUnits="userSpaceOnUse">
<stop stop-color="#8B733D"/>
<stop offset="0.3622" stop-color="#DCB96B"/>
<stop offset="0.5731" stop-color="#EAC572"/>
<stop offset="1" stop-color="#BD9244"/>
</linearGradient>
<linearGradient id="paint17_linear_96_970" x1="14139.4" y1="1408.04" x2="-29714.4" y2="-12766.6" gradientUnits="userSpaceOnUse">
<stop stop-color="#8B733D"/>
<stop offset="0.3622" stop-color="#DCB96B"/>
<stop offset="0.5731" stop-color="#EAC572"/>
<stop offset="1" stop-color="#BD9244"/>
</linearGradient>
<linearGradient id="paint18_linear_96_970" x1="28214.3" y1="1943.82" x2="-36637" y2="-20693.1" gradientUnits="userSpaceOnUse">
<stop stop-color="#8B733D"/>
<stop offset="0.3622" stop-color="#DCB96B"/>
<stop offset="0.5731" stop-color="#EAC572"/>
<stop offset="1" stop-color="#BD9244"/>
</linearGradient>
<linearGradient id="paint19_linear_96_970" x1="32016.7" y1="3550.21" x2="-12987.6" y2="-38637.5" gradientUnits="userSpaceOnUse">
<stop stop-color="#8B733D"/>
<stop offset="0.3622" stop-color="#DCB96B"/>
<stop offset="0.5731" stop-color="#EAC572"/>
<stop offset="1" stop-color="#BD9244"/>
</linearGradient>
<linearGradient id="paint20_linear_96_970" x1="28484.9" y1="4558.09" x2="5728.04" y2="-31179.4" gradientUnits="userSpaceOnUse">
<stop stop-color="#8B733D"/>
<stop offset="0.3622" stop-color="#DCB96B"/>
<stop offset="0.5731" stop-color="#EAC572"/>
<stop offset="1" stop-color="#BD9244"/>
</linearGradient>
<linearGradient id="paint21_linear_96_970" x1="54694" y1="5561.86" x2="-31430.6" y2="-75948.8" gradientUnits="userSpaceOnUse">
<stop stop-color="#8B733D"/>
<stop offset="0.3622" stop-color="#DCB96B"/>
<stop offset="0.5731" stop-color="#EAC572"/>
<stop offset="1" stop-color="#BD9244"/>
</linearGradient>
<linearGradient id="paint22_linear_96_970" x1="33649" y1="2699.26" x2="-47621" y2="-41122.8" gradientUnits="userSpaceOnUse">
<stop stop-color="#8B733D"/>
<stop offset="0.3622" stop-color="#DCB96B"/>
<stop offset="0.5731" stop-color="#EAC572"/>
<stop offset="1" stop-color="#BD9244"/>
</linearGradient>
<linearGradient id="paint23_linear_96_970" x1="17531.3" y1="1734.44" x2="-34435.8" y2="-18125.9" gradientUnits="userSpaceOnUse">
<stop stop-color="#8B733D"/>
<stop offset="0.3622" stop-color="#DCB96B"/>
<stop offset="0.5731" stop-color="#EAC572"/>
<stop offset="1" stop-color="#BD9244"/>
</linearGradient>
<linearGradient id="paint24_linear_96_970" x1="16852.2" y1="2161.97" x2="372.908" y2="-10740.9" gradientUnits="userSpaceOnUse">
<stop stop-color="#8B733D"/>
<stop offset="0.3622" stop-color="#DCB96B"/>
<stop offset="0.5731" stop-color="#EAC572"/>
<stop offset="1" stop-color="#BD9244"/>
</linearGradient>
<linearGradient id="paint25_linear_96_970" x1="4291.84" y1="1180.9" x2="3591.19" y2="1910.5" gradientUnits="userSpaceOnUse">
<stop stop-color="white" stop-opacity="0.1"/>
<stop offset="1" stop-color="white" stop-opacity="0.2"/>
</linearGradient>
<linearGradient id="paint26_linear_96_970" x1="4646.27" y1="1093.85" x2="4062.57" y2="2324.45" gradientUnits="userSpaceOnUse">
<stop stop-color="white" stop-opacity="0.1"/>
<stop offset="1" stop-color="white" stop-opacity="0.2"/>
</linearGradient>
<linearGradient id="paint27_linear_96_970" x1="7044.61" y1="361.015" x2="6280.08" y2="2776.19" gradientUnits="userSpaceOnUse">
<stop stop-color="white" stop-opacity="0.1"/>
<stop offset="1" stop-color="white" stop-opacity="0.2"/>
</linearGradient>
<linearGradient id="paint28_linear_96_970" x1="5775.82" y1="905.935" x2="5078.42" y2="2221.2" gradientUnits="userSpaceOnUse">
<stop stop-color="white" stop-opacity="0.1"/>
<stop offset="1" stop-color="white" stop-opacity="0.2"/>
</linearGradient>
<linearGradient id="paint29_linear_96_970" x1="9790.41" y1="-682.721" x2="8761.8" y2="2692.16" gradientUnits="userSpaceOnUse">
<stop stop-color="white" stop-opacity="0.1"/>
<stop offset="1" stop-color="white" stop-opacity="0.2"/>
</linearGradient>
<linearGradient id="paint30_linear_96_970" x1="7664.87" y1="-108.665" x2="7052.24" y2="1949.37" gradientUnits="userSpaceOnUse">
<stop stop-color="white" stop-opacity="0.1"/>
<stop offset="1" stop-color="white" stop-opacity="0.2"/>
</linearGradient>
<linearGradient id="paint31_linear_96_970" x1="10028.8" y1="-1585.84" x2="9135.28" y2="2740.07" gradientUnits="userSpaceOnUse">
<stop stop-color="white" stop-opacity="0.1"/>
<stop offset="1" stop-color="white" stop-opacity="0.2"/>
</linearGradient>
<linearGradient id="paint32_linear_96_970" x1="8806.83" y1="-930.017" x2="8039.61" y2="2513.01" gradientUnits="userSpaceOnUse">
<stop stop-color="white" stop-opacity="0.1"/>
<stop offset="1" stop-color="white" stop-opacity="0.2"/>
</linearGradient>
<linearGradient id="paint33_linear_96_970" x1="934.123" y1="-415.666" x2="481.553" y2="626.435" gradientUnits="userSpaceOnUse">
<stop stop-color="white" stop-opacity="0.1"/>
<stop offset="1" stop-color="white" stop-opacity="0.2"/>
</linearGradient>
</defs>
</svg>
