<svg width="245" height="56" viewBox="0 0 245 56" fill="none" xmlns="http://www.w3.org/2000/svg">
<path d="M111.646 7.6573L82.7471 5.44172L84.3274 7.31559L112.557 9.48244L111.646 7.6573Z" fill="url(#paint0_linear_1881_18239)"/>
<path d="M99.7535 9.15774L85.0619 7.98468L88.5787 12.3161L102.524 12.7721L99.7535 9.15774Z" fill="url(#paint1_linear_1881_18239)"/>
<path d="M100.796 9.2546L103.467 12.772L109.755 12.9368L107.246 9.77615L100.796 9.2546Z" fill="url(#paint2_linear_1881_18239)"/>
<path d="M103.109 13.424L89.1995 13.1646L92.5858 17.2031H106.01L103.109 13.424Z" fill="url(#paint3_linear_1881_18239)"/>
<path d="M113.113 17.0406L110.439 13.5864H104.153L106.89 17.0406H113.113Z" fill="url(#paint4_linear_1881_18239)"/>
<path d="M106.563 17.952H93.2066L97.1794 22.6112L107.573 19.3531L106.563 17.952Z" fill="url(#paint5_linear_1881_18239)"/>
<path d="M116.205 21.1784L117.151 19.0597L113.927 17.8234H107.573L109.755 20.8535L116.205 21.1784Z" fill="url(#paint6_linear_1881_18239)"/>
<path d="M113.113 10.2003L108.354 9.9067L114.055 17.0408L117.151 18.1802L113.113 10.2003Z" fill="url(#paint7_linear_1881_18239)"/>
<path d="M115.098 26L119.4 22.2209L117.869 19.225L115.098 26Z" fill="url(#paint8_linear_1881_18239)"/>
<path d="M113.796 21.668L111.418 25.4471L114.448 26L115.978 21.8304L113.796 21.668Z" fill="url(#paint9_linear_1881_18239)"/>
<path d="M110.57 21.668L106.01 24.5334L110.57 25.3165L112.753 21.8618L110.57 21.668Z" fill="url(#paint10_linear_1881_18239)"/>
<path d="M108.354 20.0052L97.6522 23.2969L104.902 24.5019L109.382 21.4718L108.354 20.0052Z" fill="url(#paint11_linear_1881_18239)"/>
<path d="M140.642 7.6573L139.728 9.48244L167.958 7.31559L169.539 5.44172L140.642 7.6573Z" fill="url(#paint12_linear_1881_18239)"/>
<path d="M149.763 12.7721L163.707 12.3161L167.226 7.98468L152.532 9.15774L149.763 12.7721Z" fill="url(#paint13_linear_1881_18239)"/>
<path d="M151.489 9.2546L145.039 9.77615L142.53 12.9368L148.818 12.772L151.489 9.2546Z" fill="url(#paint14_linear_1881_18239)"/>
<path d="M146.278 17.2031H159.7L163.088 13.1646L149.177 13.424L146.278 17.2031Z" fill="url(#paint15_linear_1881_18239)"/>
<path d="M148.134 13.5864H141.847L139.176 17.0406H145.398L148.134 13.5864Z" fill="url(#paint16_linear_1881_18239)"/>
<path d="M144.714 19.3531L155.106 22.6112L159.082 17.952H145.723L144.714 19.3531Z" fill="url(#paint17_linear_1881_18239)"/>
<path d="M135.134 19.0597L136.08 21.1784L142.53 20.8535L144.714 17.8234H138.361L135.134 19.0597Z" fill="url(#paint18_linear_1881_18239)"/>
<path d="M135.134 18.1802L138.23 17.0408L143.931 9.9067L139.176 10.2003L135.134 18.1802Z" fill="url(#paint19_linear_1881_18239)"/>
<path d="M132.887 22.2209L137.188 26L134.417 19.225L132.887 22.2209Z" fill="url(#paint20_linear_1881_18239)"/>
<path d="M136.308 21.8304L137.84 26L140.87 25.4471L138.489 21.668L136.308 21.8304Z" fill="url(#paint21_linear_1881_18239)"/>
<path d="M139.534 21.8618L141.716 25.3165L146.278 24.5334L141.716 21.668L139.534 21.8618Z" fill="url(#paint22_linear_1881_18239)"/>
<path d="M142.906 21.4718L147.385 24.5019L154.633 23.2969L143.931 20.0052L142.906 21.4718Z" fill="url(#paint23_linear_1881_18239)"/>
<path d="M139.827 7.61386L131.705 9.69833L129.208 16.6479L127.645 14.3354L131.033 8.43767L126.147 0L121.26 8.43767L124.649 14.3354L123.085 16.6479L120.589 9.69775L112.466 7.61386L119.892 21.4927H132.405L139.827 7.61386ZM118.692 15.9546L115.435 9.9066L119.017 10.8087L118.692 15.9546ZM127.402 4.98579L129.421 8.61229L127.402 12.2167V4.98579ZM122.864 8.61461L124.883 4.98869V12.2214L122.864 8.61461ZM136.851 9.90718L133.593 15.9552L133.268 10.8064L136.851 9.90718Z" fill="url(#paint24_linear_1881_18239)"/>
<path d="M139.729 9.48246L167.959 7.31561L169.539 5.44405L140.642 7.65963L139.729 9.48246Z" fill="url(#paint25_linear_1881_18239)"/>
<path d="M149.764 12.7742L163.707 12.3188L167.226 7.98468L152.532 9.15774L149.764 12.7742Z" fill="url(#paint26_linear_1881_18239)"/>
<path d="M145.039 9.77615L142.531 12.9367L148.818 12.7742L151.49 9.25446L145.039 9.77615Z" fill="url(#paint27_linear_1881_18239)"/>
<path d="M163.089 13.1647L149.177 13.4263L146.62 16.7592C146.852 16.9072 147.085 17.0551 147.318 17.2054H159.7L163.088 13.1646L163.089 13.1647Z" fill="url(#paint28_linear_1881_18239)"/>
<path d="M141.847 13.5887L141.69 13.7924C143.064 14.5727 144.487 15.4214 145.956 16.3398L148.135 13.5887H141.847Z" fill="url(#paint29_linear_1881_18239)"/>
<path d="M148.472 17.9544C150.598 19.3508 152.816 20.8922 155.126 22.5915L159.082 17.9544H148.472Z" fill="url(#paint30_linear_1881_18239)"/>
<path d="M139.176 10.2003L138.294 11.9429C139.205 12.418 140.138 12.9222 141.096 13.4576L143.932 9.90713L139.176 10.2003Z" fill="url(#paint31_linear_1881_18239)"/>
<path d="M132.956 9.37803C133.649 9.68145 134.359 10.0063 135.086 10.3504L136.849 9.90655L136.296 10.9322C136.75 11.155 137.21 11.3853 137.678 11.6255L139.823 7.61612L132.956 9.37803Z" fill="url(#paint32_linear_1881_18239)"/>
<path d="M124.884 4.98863V6.41116C125.688 6.64612 126.527 6.91008 127.402 7.20886V4.98863L128.944 7.75652C129.601 7.99902 130.277 8.26125 130.973 8.54204L131.031 8.43993L126.144 0.0022662L122.763 5.83913C123.228 5.95284 123.706 6.07931 124.2 6.21507L124.884 4.98863Z" fill="url(#paint33_linear_1881_18239)"/>
<path fill-rule="evenodd" clip-rule="evenodd" d="M15.467 54.2773C15.9039 54.6465 16.4674 54.8426 17.17 54.8426C17.6176 54.8426 17.8584 54.9871 17.8495 55.2795C17.8495 55.5524 17.557 55.6986 16.9453 55.6986C16.6814 55.6986 16.3123 55.6683 15.8254 55.6202C14.611 55.4739 13.6176 55.4062 12.8597 55.4062C11.9253 55.4062 11.1763 55.4543 10.6413 55.5524C10.174 55.6291 9.85304 55.679 9.63904 55.679C9.44645 55.679 9.29843 55.5631 9.25028 55.3669L9.21996 55.251L9.63013 54.93C10.3114 54.6857 10.7483 54.395 10.973 54.0348C11.1763 53.6745 11.294 53.0914 11.294 52.2835L11.3118 51.0388V39.8805C11.3118 39.0245 11.1477 38.4218 10.8553 38.0526C10.5628 37.6835 10.0189 37.4481 9.22175 37.3232C8.7349 37.2448 8.42282 37.1681 8.29798 37.0985L8.08398 36.7401C8.08398 36.4672 8.1999 36.3317 8.42282 36.3495C8.59937 36.3691 8.8419 36.3995 9.18251 36.4654C9.52313 36.5528 10.0867 36.5814 10.8856 36.5814C11.401 36.5814 12.0519 36.5528 12.8294 36.5047L13.8513 36.4262C14.825 36.3388 15.5526 36.3103 16.0697 36.3103C16.3711 36.3103 16.537 36.4262 16.537 36.6509L16.4674 36.9897C16.4193 37.0397 16.3033 37.0878 16.109 37.0878C15.4473 37.1948 15.0104 37.3892 14.8143 37.6514C14.6199 37.9153 14.5218 38.4503 14.5218 39.2564V51.1957L14.6395 52.6045C14.7554 53.3339 15.0283 53.8885 15.467 54.2773ZM36.8359 37.6293C36.8484 37.8206 36.8564 37.9422 36.8669 37.9938L36.9917 39.0352C37.022 39.2492 37.0416 39.4436 37.0416 39.5898C37.0416 40.3477 36.8669 40.7365 36.5066 40.7365C36.3123 40.7365 36.2142 40.6117 36.2142 40.3477V39.8805C36.2142 39.7058 36.1946 39.5417 36.1464 39.3955C35.7576 38.1596 34.5307 37.5461 32.4407 37.5461L30.611 37.5283L30.0278 37.5461C29.4928 37.5461 29.1237 37.6638 28.9097 37.8564C28.6957 38.0526 28.5976 38.4021 28.5976 38.9086V43.3919C28.5976 43.9091 28.6868 44.2675 28.8116 44.444C28.9489 44.6081 29.22 44.7044 29.6087 44.7044L30.1437 44.6866L31.672 44.667C32.3729 44.667 32.8883 44.5011 33.2467 44.2104C33.598 43.918 33.9583 43.333 34.2989 42.4592C34.3863 42.2541 34.4933 42.1382 34.6092 42.1382C34.882 42.1382 35.0283 42.2541 35.0283 42.4984C35.0283 42.5751 35.0176 42.6928 34.9979 42.8676L34.9783 43.3045C34.9783 43.8591 35.0086 44.4904 35.0568 45.2216L35.2708 47.8573C35.2758 47.9896 35.2824 48.103 35.288 48.1991C35.2943 48.3076 35.2993 48.3939 35.2993 48.4601C35.2993 48.6563 35.1923 48.7633 34.9302 48.7811C34.7554 48.8007 34.6377 48.6741 34.5913 48.4119C34.3952 47.44 34.0742 46.7766 33.6462 46.4378C33.2182 46.0972 32.4496 45.9313 31.351 45.9313C29.9404 45.9313 29.1237 46.0187 28.9204 46.1935C28.7153 46.37 28.5994 47.0495 28.5994 48.2176L28.6172 49.3357V50.9906C28.6172 52.3995 28.8597 53.4213 29.3466 54.0544C29.7068 54.5216 30.4166 54.8034 31.4866 54.8801C31.7987 54.9104 31.9449 55.0459 31.9449 55.2706C31.9449 55.5328 31.8468 55.6594 31.6328 55.6594C31.458 55.6594 31.1852 55.6398 30.825 55.5916C30.4843 55.5613 29.8049 55.5417 28.7831 55.5417H27.2262C26.5057 55.5417 25.9137 55.572 25.4072 55.6398C24.726 55.7361 24.2498 55.786 24.0269 55.786C23.7238 55.786 23.5597 55.6594 23.5597 55.4169C23.5597 55.2314 23.6863 55.0852 23.9485 55.0067C24.5031 54.8123 24.8918 54.4913 25.0862 54.0348C25.2806 53.5872 25.3787 52.79 25.3787 51.6719V40.1337C25.3787 38.9568 25.1754 38.1988 24.7652 37.8386C24.3087 37.4302 23.6168 37.2055 22.7233 37.1574C22.4701 37.1378 22.3524 37.0308 22.3524 36.8168C22.3524 36.5457 22.4986 36.3995 22.8196 36.3995C22.9017 36.3995 23.0861 36.4132 23.3707 36.4344C23.4263 36.4385 23.4857 36.443 23.549 36.4476C24.1143 36.4975 24.6975 36.5154 25.3287 36.5154L27.7612 36.4958L31.458 36.4761C32.7224 36.4761 34.0153 36.428 35.3296 36.3121C35.8147 36.2621 36.1946 36.2425 36.4193 36.2425C36.6226 36.2425 36.7599 36.4868 36.7884 36.9737C36.8108 37.2447 36.8251 37.4633 36.8359 37.6293ZM52.858 51.5256C53.2556 50.9603 53.5196 50.6696 53.6159 50.6696C53.7728 50.6696 53.8691 50.8444 53.8691 51.2314C53.8691 52.4298 53.4803 53.4784 52.7028 54.4235C52.0305 55.2492 51.1067 55.6594 49.9208 55.6594C49.6765 55.6594 49.2396 55.6398 48.5869 55.5916C48.4317 55.572 47.8575 55.5417 46.9052 55.4935L45.3769 55.4258C44.8722 55.3955 44.2784 55.3776 43.6275 55.3776C42.5468 55.3776 41.3608 55.4454 40.1143 55.5916C39.7255 55.6398 39.4616 55.6594 39.3368 55.6594C39.0532 55.6594 38.9284 55.5328 38.9284 55.2885C38.9284 55.1048 39.055 54.9978 39.2975 54.93C39.8914 54.7642 40.3194 54.4432 40.5441 53.9563C40.767 53.4695 40.8829 52.6812 40.8829 51.5934V39.8805C40.8829 38.3932 40.2605 37.5479 39.0158 37.3518L38.1687 37.2055C37.8102 37.1574 37.6337 37.0111 37.6337 36.7882C37.6337 36.5154 37.7799 36.3691 38.0528 36.3691C38.1509 36.3691 38.2846 36.3888 38.4629 36.4191C38.5967 36.4191 38.7929 36.4387 39.0158 36.4672L39.6185 36.5136C40.1928 36.5617 40.6297 36.5921 40.9025 36.5921C41.3501 36.5921 42.0599 36.5439 43.0532 36.4262C43.7826 36.3388 44.5316 36.3085 45.2895 36.3085C45.8637 36.3085 46.1366 36.4547 46.1366 36.7187C46.1366 36.9416 45.9422 37.07 45.5338 37.0878C44.5708 37.1556 44.1036 37.7976 44.1036 39.0334V51.2046C44.1036 52.9559 44.3176 53.9367 44.7349 54.1507C44.9792 54.2577 45.4357 54.3255 46.117 54.3255C49.2788 54.3255 51.5258 53.3928 52.858 51.5256ZM68.6861 36.3534C68.9555 36.3433 69.2651 36.3317 69.6176 36.3317C69.8602 36.3317 69.9868 36.4387 70.0456 36.5831C70.0456 36.7864 69.8798 36.9238 69.5392 37.0004C68.8401 37.1681 68.2748 37.4891 67.8379 37.9456C67.3992 38.4021 66.8446 39.2688 66.1847 40.5528C65.0078 42.8587 63.9074 44.7847 62.9159 46.3397C62.7215 46.6304 62.6038 46.8658 62.5557 47.0406C62.5057 47.2153 62.4879 47.5363 62.4879 47.9947V52.1284L62.5557 53.0807C62.7215 54.1418 63.6346 54.7053 65.3573 54.8016C65.6676 54.8426 65.8138 54.9675 65.8138 55.2118C65.8138 55.4846 65.5998 55.6291 65.1825 55.6291C64.9578 55.6291 64.7153 55.6095 64.4531 55.5809L62.4576 55.4062C62.1081 55.3562 61.5552 55.3384 60.8241 55.3384C59.0925 55.3384 57.9262 55.4062 57.3412 55.5025C56.9525 55.572 56.6707 55.6005 56.4959 55.6005C56.2909 55.6005 56.1749 55.4454 56.1749 55.1333C56.1749 54.9675 56.3016 54.8515 56.5637 54.823C57.5945 54.6661 58.3149 54.3255 58.6859 53.8208C59.0639 53.3232 59.2387 52.4298 59.2387 51.1832V48.5082C59.2387 47.8966 59.0354 47.2457 58.6252 46.5644C58.1402 45.7762 57.5855 44.8025 57.0024 43.6844L54.8624 39.6861C54.0064 38.0811 53.0042 37.2251 51.8664 37.1092C51.5258 37.07 51.3493 36.9434 51.3493 36.7008C51.3493 36.4084 51.4759 36.2621 51.7398 36.2621C51.9716 36.2621 52.323 36.2925 52.8276 36.3406C53.8316 36.4565 54.7358 36.5047 55.5615 36.5047C56.3212 36.5047 57.0987 36.4565 57.8762 36.3798C58.4612 36.3317 58.8481 36.3014 59.0443 36.3014C59.4331 36.3014 59.6275 36.4191 59.6275 36.6616C59.6275 36.8756 59.4812 37.0022 59.1602 37.07C58.4308 37.2162 58.0706 37.5265 58.0706 38.0134C58.0706 38.4021 58.4112 39.2581 59.0925 40.5903L60.1928 42.7124C60.6493 43.5774 60.9222 44.1124 61.0185 44.337C61.3305 45.0076 61.6515 45.3286 61.9422 45.3286C62.2347 45.3286 62.6234 44.8524 63.1085 43.8984C63.1736 43.7926 63.2757 43.6054 63.419 43.3425C63.5779 43.0511 63.7874 42.6667 64.0537 42.1971C65.0737 40.337 65.5909 39.1815 65.5909 38.7142C65.5909 38.3255 65.3662 37.9545 64.9097 37.6157C64.4531 37.2751 63.9181 37.0611 63.3332 37.0111C63.0229 36.9826 62.8767 36.8667 62.8767 36.6705C62.8767 36.3798 63.0033 36.2336 63.2458 36.2336C63.5008 36.2336 63.7416 36.2514 63.9556 36.2835L64.8811 36.4084C65.2503 36.4583 65.7264 36.4761 66.2917 36.4761C66.602 36.4761 66.9427 36.4565 67.3118 36.428L68.4995 36.3602C68.5594 36.3582 68.6216 36.3558 68.6861 36.3534ZM88.4504 37.6555C88.4618 37.8318 88.469 37.9446 88.4781 37.9938L88.4763 37.9973L88.6226 39.0673C88.6529 39.2813 88.6707 39.4739 88.6707 39.6202C88.6707 40.3798 88.4959 40.7686 88.1357 40.7686C87.9413 40.7686 87.845 40.642 87.845 40.3798V39.9126C87.845 39.7379 87.8254 39.572 87.7773 39.4258C87.3867 38.1899 86.1616 37.5765 84.0697 37.5765L82.2418 37.5586L81.6587 37.5782C81.1237 37.5782 80.7527 37.6942 80.5387 37.8885C80.3247 38.0829 80.2284 38.4342 80.2284 38.9389V43.4204C80.2284 43.9376 80.3158 44.2978 80.4424 44.4726C80.5798 44.6384 80.8508 44.7347 81.2396 44.7347L81.7746 44.7151L83.3029 44.6955C84.0037 44.6955 84.5173 44.5314 84.8776 44.239C85.2289 43.9465 85.5891 43.3634 85.9279 42.4877C86.0153 42.2844 86.1223 42.1667 86.24 42.1667C86.5129 42.1667 86.6573 42.2844 86.6573 42.527C86.6573 42.6054 86.6466 42.7214 86.6288 42.8961L86.6092 43.3348C86.6092 43.8894 86.6377 44.5207 86.6876 45.2501L86.9016 47.8877C86.9067 48.0196 86.9132 48.1324 86.9188 48.228C86.9251 48.3366 86.9302 48.4231 86.9302 48.4904C86.9302 48.6848 86.8232 48.7918 86.5592 48.8114C86.3863 48.831 86.2686 48.7044 86.2204 48.4405C86.026 47.4686 85.705 46.807 85.277 46.4663C84.849 46.1257 84.0804 45.9617 82.9819 45.9617C81.5713 45.9617 80.7634 46.049 80.5494 46.2238C80.3444 46.3986 80.2284 47.0798 80.2284 48.2461L80.2463 49.366V51.0192C80.2463 52.4298 80.4906 53.4516 80.9774 54.0829C81.3377 54.5502 82.0474 54.8319 83.1174 54.9104C83.4277 54.9389 83.574 55.0745 83.574 55.2992C83.574 55.5631 83.4777 55.6879 83.2637 55.6879C83.0889 55.6879 82.816 55.6683 82.4558 55.6202C82.1152 55.5898 81.434 55.572 80.4139 55.572H78.8571C78.1366 55.572 77.5427 55.6005 77.0381 55.6683C76.3568 55.7664 75.8807 55.8145 75.656 55.8145C75.3546 55.8145 75.1888 55.6879 75.1888 55.4454C75.1888 55.2599 75.3154 55.1137 75.5793 55.037C76.1339 54.8426 76.5209 54.5216 76.7171 54.0633C76.9115 53.6157 77.0078 52.8185 77.0078 51.7004V40.1641C77.0078 38.9871 76.8045 38.2274 76.3961 37.8671C75.9395 37.4588 75.2476 37.2358 74.3524 37.1859C74.1009 37.1681 73.985 37.0611 73.985 36.8471C73.985 36.5742 74.1277 36.428 74.4487 36.428C74.5301 36.428 74.7121 36.4415 74.9939 36.4624C75.0517 36.4667 75.1137 36.4713 75.1798 36.4761C75.7434 36.5261 76.3283 36.5457 76.9596 36.5457L79.3724 36.4958L83.0711 36.4761C84.3354 36.4761 85.6283 36.428 86.9427 36.3121C87.4277 36.2621 87.8076 36.2425 88.0305 36.2425C88.2356 36.2425 88.3711 36.4868 88.4014 36.9737C88.425 37.2592 88.4396 37.4865 88.4504 37.6555ZM96.6493 54.2773C97.0862 54.6465 97.6515 54.8426 98.3524 54.8426C98.8089 54.8426 99.0336 54.9871 99.0336 55.2885C99.0336 55.5613 98.7411 55.7075 98.1277 55.7075C97.8655 55.7075 97.4964 55.679 97.0095 55.6291C95.7933 55.4846 94.8018 55.4151 94.0421 55.4151C93.1094 55.4151 92.3604 55.465 91.8254 55.5631C91.3582 55.6398 91.0372 55.6879 90.8232 55.6879C90.6288 55.6879 90.4826 55.572 90.4344 55.3776L90.4041 55.2599L90.8125 54.9389C91.4937 54.6964 91.9324 54.4039 92.1571 54.0437C92.3604 53.6835 92.4781 53.1003 92.4781 52.2925L92.4959 51.0477V39.8912C92.4959 39.0352 92.3301 38.4325 92.0394 38.0633C91.7469 37.6924 91.203 37.4588 90.4041 37.3321C89.919 37.2555 89.6069 37.177 89.4821 37.1092L89.2681 36.749C89.2681 36.4761 89.384 36.3406 89.6069 36.3602C89.7817 36.3798 90.026 36.4084 90.3666 36.4761C90.7055 36.5635 91.2708 36.5938 92.0697 36.5938C92.5833 36.5938 93.236 36.5635 94.0135 36.4958L95.0354 36.4191C96.0073 36.3317 96.7367 36.3014 97.2521 36.3014C97.5535 36.3014 97.7193 36.4191 97.7193 36.6438L97.6515 36.9826C97.6034 37.0415 97.4875 37.0807 97.2913 37.1092C96.6297 37.2162 96.1928 37.4106 95.9984 37.6728C95.804 37.9367 95.7059 38.4717 95.7059 39.2778V51.2136L95.8236 52.6242C95.9395 53.3339 96.2124 53.8885 96.6493 54.2773ZM107.183 45.3874C108.847 45.3874 109.867 45.3571 110.277 45.2893C110.666 45.2216 111.035 45.0468 111.415 44.6955C112.096 44.082 112.437 43.226 112.437 42.1382C112.437 40.7276 111.97 39.5595 111.046 38.6358C110.121 37.712 108.965 37.2555 107.535 37.2555C106.902 37.2555 106.465 37.4017 106.22 37.6621C105.978 37.9456 105.862 38.4325 105.862 39.1422V44.0054C105.862 44.6081 105.919 44.979 106.085 45.1431C106.231 45.309 106.6 45.3874 107.183 45.3874ZM118.846 53.9171L119.158 53.8689C119.314 53.8689 119.412 53.9866 119.479 54.2292C119.479 54.502 119.091 54.8141 118.331 55.1529C117.553 55.4935 116.892 55.6683 116.289 55.6683C115.335 55.6683 114.442 55.1832 113.634 54.2381C112.817 53.3054 111.767 51.506 110.474 48.8792C109.974 47.8484 109.546 47.1761 109.225 46.905C108.904 46.6322 108.369 46.486 107.62 46.486H106.746L106.113 46.6037C105.969 46.6803 105.899 46.914 105.899 47.2831V50.1346C105.899 51.9144 106.067 53.111 106.388 53.7441C106.727 54.3754 107.36 54.7356 108.332 54.8319C108.721 54.8712 108.915 55.0174 108.915 55.2885C108.915 55.572 108.771 55.6986 108.45 55.6986C108.332 55.6986 108.137 55.679 107.866 55.6487C107.059 55.5809 106.279 55.5524 105.53 55.5524C104.899 55.5524 104.344 55.572 103.858 55.6005L102.672 55.7165L101.726 55.7949C101.598 55.8002 101.485 55.8071 101.393 55.8129C101.297 55.8188 101.223 55.8235 101.174 55.8235C100.833 55.8235 100.667 55.6986 100.667 55.4365C100.667 55.2225 100.744 55.0941 100.94 55.0263C101.571 54.8319 102.01 54.5502 102.253 54.2292C102.495 53.8885 102.623 53.3821 102.623 52.7026V51.3687L102.641 50.8159V40.6687C102.641 39.5595 102.495 38.8105 102.224 38.4218C101.757 37.7905 101.017 37.4106 99.977 37.284C99.5882 37.2162 99.3921 37.0611 99.3921 36.7989C99.3921 36.5154 99.5187 36.3888 99.7826 36.3888C99.8789 36.3888 100.064 36.4084 100.287 36.4387C100.997 36.5261 101.796 36.5546 102.652 36.5546C103.595 36.5546 104.742 36.4868 106.085 36.3888C107.67 36.2818 108.751 36.214 109.354 36.214C111.142 36.214 112.612 36.7008 113.78 37.6745C114.946 38.6465 115.529 39.852 115.529 41.3304C115.529 42.2559 115.269 43.1012 114.752 43.8609C114.236 44.6188 113.516 45.202 112.612 45.5907C112.426 45.6496 112.33 45.7477 112.35 45.8636L112.496 46.2042C112.573 46.3308 112.699 46.5537 112.865 46.8658L114.11 49.0825L115.549 51.6416C116.055 52.5154 116.492 53.1217 116.883 53.4605C117.252 53.8012 117.728 53.967 118.244 53.967C118.458 53.967 118.652 53.9474 118.846 53.9171ZM123.06 41.7887C123.419 42.1097 124.528 42.6625 126.395 43.4204C128.614 44.3353 130.092 45.2216 130.812 46.0383C131.677 47.0994 132.096 48.3531 132.096 49.8315C132.096 51.4668 131.512 52.8774 130.326 54.0918C129.149 55.3081 127.768 55.9108 126.181 55.9108C125.539 55.9108 124.517 55.6879 123.109 55.251C122.467 55.0459 121.98 54.8997 121.668 54.8319C121.24 54.7535 120.986 54.6661 120.919 54.5894C120.862 54.5109 120.792 54.2684 120.744 53.86C120.696 53.4213 120.549 52.7704 120.327 51.9447C119.966 50.6696 119.792 49.8618 119.792 49.5016C119.792 49.045 119.936 48.8221 120.228 48.8221C120.355 48.8221 120.451 48.938 120.501 49.1609C120.969 50.7659 121.755 52.1195 122.895 53.2073C124.032 54.288 125.209 54.8426 126.425 54.8426C127.378 54.8426 128.214 54.4824 128.963 53.7512C129.712 53.0415 130.081 52.2158 130.081 51.2724C130.081 50.5412 129.887 49.9206 129.5 49.4534C129.109 48.9844 128.439 48.5296 127.485 48.1106L125.345 47.1565C123.34 46.272 121.98 45.416 121.249 44.6188C120.521 43.8217 120.161 42.7606 120.161 41.4267C120.161 39.8912 120.665 38.5965 121.668 37.5568C122.67 36.5172 123.934 36 125.423 36C126.299 36 127.155 36.1658 128 36.5065L128.944 36.8952C129.372 37.0807 129.664 37.1574 129.839 37.1574L130.247 37.0611L130.782 36.7971L131.007 36.749C131.201 36.749 131.298 36.9041 131.298 37.2162L131.269 38.354C131.269 38.5395 131.269 38.6946 131.289 38.8605L131.463 40.2407L131.61 41.5247L131.638 41.7976C131.638 42.206 131.503 42.4004 131.278 42.4004C131.105 42.4004 130.987 42.2256 130.909 41.8654C130.636 40.5528 129.956 39.4347 128.856 38.4806C127.767 37.5176 126.609 37.0504 125.373 37.0504C124.537 37.0504 123.808 37.3428 123.176 37.9064C122.543 38.4806 122.233 39.1422 122.233 39.9198C122.233 40.6491 122.504 41.2715 123.06 41.7887ZM151.668 38.0116V38.0134L151.815 39.1797C151.882 39.6754 151.911 40.0838 151.911 40.3763C151.911 40.6973 151.804 40.8417 151.542 40.8417C151.308 40.8417 151.162 40.667 151.085 40.3067C150.891 39.4329 150.5 38.7998 149.948 38.4111C149.402 38.0223 148.585 37.8279 147.535 37.8279C146.115 37.8279 145.24 37.9242 144.879 38.1489C144.539 38.3718 144.364 38.9068 144.364 39.7824V50.3486C144.364 51.9233 144.587 53.0432 145.045 53.7031C145.502 54.3647 146.31 54.7249 147.476 54.8034C147.816 54.8426 147.982 54.9978 147.982 55.3081C147.982 55.5132 147.836 55.6291 147.544 55.6291L147.185 55.6095L146.133 55.5613L144.384 55.4436C144.237 55.4258 144.043 55.4258 143.818 55.4258C143.283 55.4258 142.798 55.4454 142.36 55.4739L139.267 55.6487L139.212 55.6536C138.902 55.6811 138.704 55.6986 138.586 55.6986C138.294 55.6986 138.149 55.572 138.167 55.3295C138.188 55.1155 138.235 54.9871 138.313 54.9193C138.401 54.8712 138.595 54.8212 138.868 54.8034C139.597 54.7535 140.141 54.4913 140.551 54.0045C140.958 53.5194 141.154 52.8578 141.154 52.0303L141.133 51.3687V38.9086C141.133 38.1792 140.735 37.8083 139.938 37.8083C138.06 37.8083 136.776 37.9456 136.095 38.2185C135.59 38.4325 135.258 38.6661 135.103 38.9175C134.948 39.1708 134.714 39.8235 134.442 40.8435L134.326 41.2341C134.228 41.621 134.072 41.8172 133.858 41.8172C133.546 41.8172 133.402 41.671 133.42 41.3785C133.441 41.1074 133.489 40.7472 133.566 40.28L133.712 39.0638L133.878 37.819L133.974 36.963C134.005 36.5831 134.199 36.4084 134.559 36.4084C134.636 36.4084 134.802 36.4191 135.025 36.4387C135.387 36.4672 135.9 36.4868 136.582 36.4868L139.449 36.5154L142.864 36.5635C145.052 36.5635 147.387 36.5154 149.848 36.3888C150.11 36.383 150.321 36.3752 150.482 36.3692C150.621 36.364 150.724 36.3602 150.791 36.3602C151.306 36.3602 151.57 36.5742 151.597 37.0111L151.668 38.0116ZM172.132 50.7659L172.503 50.5234C172.678 50.5038 172.774 50.6197 172.785 50.8836C172.785 51.2528 172.435 51.8645 171.686 52.7115C169.741 54.8997 167.356 56 164.507 56C161.753 56 159.526 55.1244 157.805 53.3625C156.082 51.6023 155.226 49.3161 155.226 46.4967C155.226 44.9594 155.547 43.4418 156.2 41.9634C156.833 40.4761 157.707 39.2778 158.777 38.354C160.539 36.8471 162.6 36.0874 164.963 36.0874C166.714 36.0874 168.243 36.4565 169.536 37.2055L170.459 37.7405C170.645 37.8582 170.82 37.9064 170.966 37.9064C171.16 37.9064 171.287 37.8297 171.383 37.6835L171.676 37.2448L171.938 37.1288C172.23 37.1288 172.376 37.4195 172.376 38.033L172.396 39.0548V40.3388L172.514 41.4088L172.639 42.0401C172.687 42.3504 172.717 42.6251 172.717 42.8676C172.717 43.2278 172.59 43.4026 172.328 43.4026C172.182 43.4026 172.084 43.2867 172.036 43.062C171.968 42.7124 171.695 42.1578 171.258 41.4284C170.82 40.6794 170.402 40.1141 169.992 39.6772C168.35 37.9153 166.54 37.0415 164.546 37.0415C162.775 37.0415 161.336 37.7512 160.237 39.21C159.137 40.6705 158.582 42.5466 158.582 44.8613C158.582 47.8877 159.469 50.2987 161.288 52.0981C162.648 53.4409 164.118 54.1222 165.723 54.1222C166.686 54.1222 167.686 53.8975 168.738 53.4409C169.789 52.9933 170.616 52.4191 171.228 51.7575L172.132 50.7659ZM188.942 51.5256C189.341 50.9603 189.603 50.6696 189.7 50.6696C189.885 50.6696 189.965 50.8444 189.955 51.2314C189.955 52.4298 189.566 53.4784 188.788 54.4235C188.116 55.2492 187.192 55.6594 186.006 55.6594C185.762 55.6594 185.325 55.6398 184.672 55.5916C184.517 55.572 183.943 55.5417 182.991 55.4935L181.463 55.4258C180.958 55.3955 180.364 55.3776 179.713 55.3776C178.632 55.3776 177.446 55.4454 176.2 55.5916C175.811 55.6398 175.549 55.6594 175.424 55.6594C175.139 55.6594 175.014 55.5328 175.014 55.2885C175.014 55.1048 175.141 54.9978 175.383 54.93C175.977 54.7642 176.405 54.4432 176.63 53.9563C176.853 53.4695 176.969 52.6812 176.969 51.5934V39.8805C176.969 38.3932 176.346 37.5479 175.101 37.3518L174.256 37.2055C173.896 37.1574 173.721 37.0111 173.721 36.7882C173.721 36.5154 173.866 36.3691 174.138 36.3691C174.236 36.3691 174.372 36.3888 174.549 36.4191C174.684 36.4191 174.878 36.4387 175.101 36.4672L175.702 36.5136C176.277 36.5617 176.715 36.5921 176.986 36.5921C177.434 36.5921 178.144 36.5439 179.137 36.4262C179.866 36.3388 180.615 36.3085 181.373 36.3085C181.948 36.3085 182.22 36.4547 182.22 36.7187C182.22 36.9416 182.026 37.07 181.618 37.0878C180.655 37.1556 180.187 37.7976 180.187 39.0334V51.2046C180.187 52.9559 180.401 53.9367 180.819 54.1507C181.063 54.2577 181.52 54.3255 182.201 54.3255C185.363 54.3255 187.61 53.3928 188.942 51.5256ZM196.51 47.4097H200.653C201.013 47.4097 201.188 47.3134 201.188 47.128L201.12 46.8854L201.052 46.7196L199.224 42.4396C198.786 41.4195 198.454 40.9024 198.279 40.9024C198.172 40.9024 197.958 41.2341 197.668 41.8957L197.404 42.4788L195.77 46.2238L195.604 46.584L195.508 46.9425C195.508 47.2457 195.849 47.4097 196.51 47.4097ZM208.027 54.2577C208.455 54.6179 209.018 54.8605 209.7 54.9889C209.874 55.0263 209.953 55.1529 209.914 55.3277C209.914 55.5809 209.807 55.7165 209.593 55.6986C209.466 55.6986 209.281 55.6683 209.058 55.6202C208.348 55.4543 207.18 55.3776 205.575 55.3776C203.97 55.3776 202.871 55.4543 202.288 55.6005L201.917 55.6701C201.655 55.6701 201.528 55.5328 201.528 55.2599C201.528 55.1137 201.627 55.0174 201.841 54.9496C202.297 54.8123 202.666 54.5876 202.959 54.2488C203.251 53.9082 203.396 53.5479 203.396 53.1788C203.396 52.6527 202.987 51.506 202.181 49.7263C201.937 49.1716 201.664 48.8596 201.354 48.7811C201.052 48.6937 199.982 48.6652 198.133 48.6652H196.237L194.973 48.8881C194.613 49.0539 194.224 49.6674 193.785 50.7374L193.348 51.8252C193.222 52.1373 193.152 52.4494 193.152 52.7704C193.152 53.9385 193.96 54.6179 195.613 54.8123C195.965 54.8605 196.148 55.0067 196.13 55.2314C196.111 55.4757 195.945 55.6005 195.624 55.6005C195.467 55.6005 195.226 55.572 194.914 55.5221C194.301 55.4151 193.746 55.3473 193.261 55.3473C192.822 55.3473 192.113 55.3955 191.121 55.4935C190.392 55.5809 189.933 55.6095 189.759 55.6095C189.495 55.6095 189.37 55.4935 189.37 55.2706C189.37 55.0941 189.496 54.9496 189.759 54.8515C190.265 54.6857 190.663 54.395 190.975 53.9759C191.285 53.539 191.733 52.6527 192.337 51.292L196.159 42.4592C196.264 42.2269 196.358 42.0176 196.441 41.8322C196.605 41.4667 196.728 41.194 196.812 41.0201L198.124 38.3451L198.805 37.0308V37.0807C199.096 36.3691 199.31 36.0107 199.408 36.0107C199.574 36.0107 199.816 36.4191 200.187 37.1966L200.526 37.9456L206.907 52.6045C207.219 53.3339 207.588 53.8885 208.027 54.2577ZM213.6 41.7887C213.96 42.1097 215.069 42.6625 216.938 43.4204C219.155 44.3353 220.633 45.2216 221.343 46.058C222.208 47.119 222.627 48.3727 222.627 49.8511C222.627 51.4864 222.033 52.897 220.856 54.1115C219.679 55.3277 218.299 55.9305 216.714 55.9305C216.072 55.9305 215.048 55.7075 213.639 55.2706C212.997 55.0655 212.51 54.9193 212.2 54.8515C211.772 54.7731 211.519 54.6857 211.451 54.609C211.392 54.5305 211.324 54.288 211.276 53.8796C211.226 53.4427 211.08 52.79 210.857 51.9626C210.497 50.6875 210.322 49.8814 210.322 49.5194C210.322 49.0646 210.468 48.8417 210.759 48.8417C210.886 48.8417 210.984 48.9576 211.032 49.1806C211.499 50.7856 212.287 52.1391 213.425 53.2269C214.563 54.3076 215.74 54.8605 216.956 54.8605C217.908 54.8605 218.746 54.502 219.495 53.7708C220.244 53.0611 220.614 52.2354 220.614 51.292C220.614 50.5609 220.419 49.9385 220.031 49.473C219.64 49.004 218.969 48.5475 218.017 48.1302L215.877 47.1761C213.873 46.2916 212.512 45.4356 211.781 44.6384C211.051 43.8395 210.691 42.7802 210.691 41.4463C210.691 39.9108 211.198 38.6161 212.2 37.5765C213.202 36.5368 214.467 36.0196 215.954 36.0196C216.829 36.0196 217.685 36.1855 218.531 36.5261L219.476 36.9148C219.904 37.0985 220.195 37.177 220.369 37.177L220.779 37.0611L221.314 36.7971L221.537 36.749C221.732 36.749 221.83 36.9041 221.83 37.2162L221.8 38.354C221.8 38.5395 221.81 38.6946 221.83 38.8605L222.005 40.2407L222.151 41.5247L222.179 41.7976C222.179 42.206 222.044 42.4004 221.819 42.4004C221.646 42.4004 221.528 42.2256 221.45 41.8654C221.177 40.5528 220.496 39.4347 219.397 38.4806C218.308 37.5176 217.15 37.0504 215.915 37.0504C215.078 37.0504 214.349 37.3428 213.718 37.9064C213.084 38.4806 212.774 39.1422 212.774 39.9198C212.774 40.6491 213.047 41.2715 213.6 41.7887ZM227.715 41.7887C228.073 42.1097 229.183 42.6625 231.051 43.4204C233.268 44.3353 234.736 45.2216 235.467 46.0383C236.332 47.0994 236.751 48.3531 236.751 49.8315C236.751 51.4668 236.168 52.8774 234.98 54.0918C233.803 55.3081 232.423 55.9108 230.837 55.9108C230.195 55.9108 229.172 55.6879 227.763 55.251C227.121 55.0459 226.634 54.8997 226.324 54.8319C225.896 54.7535 225.632 54.6661 225.575 54.5894C225.516 54.5109 225.448 54.2684 225.4 53.86C225.35 53.4213 225.204 52.7704 224.981 51.9447C224.621 50.6696 224.446 49.8618 224.446 49.5016C224.446 49.045 224.592 48.8221 224.883 48.8221C225.01 48.8221 225.108 48.938 225.156 49.1609C225.623 50.7659 226.411 52.1195 227.549 53.2073C228.687 54.288 229.864 54.8426 231.08 54.8426C232.032 54.8426 232.87 54.4824 233.619 53.7512C234.368 53.0415 234.738 52.2158 234.738 51.2724C234.738 50.5412 234.543 49.9206 234.154 49.4534C233.764 48.9844 233.093 48.5296 232.141 48.1106L230.001 47.1565C227.997 46.272 226.636 45.416 225.905 44.6188C225.175 43.8217 224.815 42.7606 224.815 41.4267C224.815 39.8912 225.322 38.5965 226.324 37.5568C227.326 36.5172 228.59 36 230.078 36C230.953 36 231.809 36.1658 232.655 36.5065L233.6 36.8952C234.028 37.0807 234.319 37.1574 234.493 37.1574L234.903 37.0611L235.438 36.7971L235.661 36.749C235.856 36.749 235.954 36.9041 235.954 37.2162L235.924 38.354C235.924 38.5395 235.934 38.6946 235.954 38.8605L236.129 40.2407L236.275 41.5247L236.303 41.7976C236.303 42.206 236.168 42.4004 235.943 42.4004C235.77 42.4004 235.652 42.2256 235.574 41.8654C235.292 40.5528 234.611 39.4347 233.512 38.4806C232.423 37.5176 231.265 37.0504 230.03 37.0504C229.193 37.0504 228.464 37.3321 227.833 37.9064C227.199 38.4806 226.887 39.1422 226.887 39.9198C226.887 40.6491 227.16 41.2715 227.715 41.7887ZM240.516 36.8452L240.526 36.9914L240.564 37.1377L240.574 37.3124L240.516 37.3802L240.448 37.3035C240.419 37.1769 240.36 37.0895 240.282 37.0307C240.205 36.9718 240.088 36.9433 239.932 36.9433C239.718 36.9433 239.592 36.9629 239.544 36.9914C239.494 37.02 239.465 37.0984 239.465 37.225V38.7534C239.465 38.987 239.494 39.1421 239.563 39.2402C239.631 39.3276 239.747 39.3864 239.913 39.3954L239.991 39.4631L239.932 39.5131H239.884L239.727 39.5024L239.476 39.4827H239.396L239.182 39.4934L238.736 39.522L238.638 39.5327L238.581 39.4827L238.6 39.4239L238.677 39.4061L238.919 39.2884C238.978 39.2206 239.009 39.1243 239.009 39.0066V37.1073C239.009 37.0004 238.95 36.9522 238.832 36.9522C238.561 36.9522 238.376 36.9718 238.279 37.0111L238.133 37.1073C238.113 37.1466 238.076 37.2447 238.035 37.3909L238.015 37.448L237.948 37.5353L237.891 37.4783L237.908 37.3213L237.93 37.1466L237.948 36.9611L237.956 36.8363L238.046 36.7578H238.113L238.336 36.7685H238.755L239.253 36.7774C239.574 36.7774 239.904 36.7667 240.262 36.7489H240.4L240.516 36.8452ZM243.843 39.267C243.9 39.3543 244.018 39.4043 244.164 39.4239V39.4221L244.202 39.5113L244.066 39.5683L243.94 39.5594C243.774 39.5398 243.658 39.5309 243.59 39.5309C243.444 39.5309 243.328 39.5398 243.23 39.5505L243.044 39.5683L242.996 39.5202L243.055 39.4613L243.221 39.3543L243.269 39.1403V39.044L243.21 37.7012L243.182 37.6423L243.092 37.7493L242.326 39.365L242.295 39.4239L242.199 39.5505C242.169 39.5505 242.121 39.472 242.053 39.3258L241.946 39.1118L241.295 37.662L241.284 37.6334L241.256 37.6227L241.225 37.7119V37.7779L241.197 38.7997V38.8764L241.215 39.0708C241.256 39.2759 241.363 39.3918 241.536 39.4417L241.625 39.5095L241.555 39.5576L241.43 39.5469L241.284 39.5291L241.129 39.5202C241.002 39.5202 240.904 39.5291 240.837 39.538L240.74 39.5487L240.681 39.4899L240.73 39.431L240.954 39.2456C241.002 39.1582 241.022 39.0316 241.022 38.8764L241.081 37.5443L241.09 37.4105C241.09 37.2536 241.051 37.127 240.974 37.0307C240.895 36.9433 240.788 36.8934 240.653 36.8934L240.573 36.8363L240.662 36.7774H240.712L240.826 36.7864H240.915L241.099 36.7774L241.273 36.7596L241.47 36.8844L242.295 38.7034L242.383 38.8211L242.463 38.732L243.23 37.1073C243.298 36.9522 243.356 36.8559 243.387 36.8167L243.512 36.7578L243.601 36.7685L243.726 36.7774L243.931 36.7685L244.027 36.7578L244.095 36.8167L244.038 36.8666C243.911 36.8755 243.824 36.913 243.774 36.9914C243.726 37.0592 243.697 37.1965 243.697 37.3713V37.5086L243.745 38.7605V38.8497C243.745 39.044 243.774 39.1796 243.843 39.267Z" fill="black"/>
<defs>
<linearGradient id="paint0_linear_1881_18239" x1="25078.5" y1="1549.57" x2="433.643" y2="-1780.32" gradientUnits="userSpaceOnUse">
<stop stop-color="#8B733D"/>
<stop offset="0.3622" stop-color="#DCB96B"/>
<stop offset="0.5731" stop-color="#EAC572"/>
<stop offset="1" stop-color="#BD9244"/>
</linearGradient>
<linearGradient id="paint1_linear_1881_18239" x1="41004.4" y1="2207.17" x2="940.092" y2="-8740.83" gradientUnits="userSpaceOnUse">
<stop stop-color="#8B733D"/>
<stop offset="0.3622" stop-color="#DCB96B"/>
<stop offset="0.5731" stop-color="#EAC572"/>
<stop offset="1" stop-color="#BD9244"/>
</linearGradient>
<linearGradient id="paint2_linear_1881_18239" x1="65346.7" y1="3558.07" x2="-7112.55" y2="-26124.6" gradientUnits="userSpaceOnUse">
<stop stop-color="#8B733D"/>
<stop offset="0.3622" stop-color="#DCB96B"/>
<stop offset="0.5731" stop-color="#EAC572"/>
<stop offset="1" stop-color="#BD9244"/>
</linearGradient>
<linearGradient id="paint3_linear_1881_18239" x1="39963.1" y1="2065.86" x2="-2272.21" y2="-8047.4" gradientUnits="userSpaceOnUse">
<stop stop-color="#8B733D"/>
<stop offset="0.3622" stop-color="#DCB96B"/>
<stop offset="0.5731" stop-color="#EAC572"/>
<stop offset="1" stop-color="#BD9244"/>
</linearGradient>
<linearGradient id="paint4_linear_1881_18239" x1="61283.6" y1="3259.98" x2="-12315.1" y2="-25023.8" gradientUnits="userSpaceOnUse">
<stop stop-color="#8B733D"/>
<stop offset="0.3622" stop-color="#DCB96B"/>
<stop offset="0.5731" stop-color="#EAC572"/>
<stop offset="1" stop-color="#BD9244"/>
</linearGradient>
<linearGradient id="paint5_linear_1881_18239" x1="43701.1" y1="2413.42" x2="-3807.14" y2="-12942.4" gradientUnits="userSpaceOnUse">
<stop stop-color="#8B733D"/>
<stop offset="0.3622" stop-color="#DCB96B"/>
<stop offset="0.5731" stop-color="#EAC572"/>
<stop offset="1" stop-color="#BD9244"/>
</linearGradient>
<linearGradient id="paint6_linear_1881_18239" x1="53470.2" y1="2836.08" x2="-16799.6" y2="-21698.6" gradientUnits="userSpaceOnUse">
<stop stop-color="#8B733D"/>
<stop offset="0.3622" stop-color="#DCB96B"/>
<stop offset="0.5731" stop-color="#EAC572"/>
<stop offset="1" stop-color="#BD9244"/>
</linearGradient>
<linearGradient id="paint7_linear_1881_18239" x1="59095.2" y1="5742.67" x2="10340.7" y2="-39960.7" gradientUnits="userSpaceOnUse">
<stop stop-color="#8B733D"/>
<stop offset="0.3622" stop-color="#DCB96B"/>
<stop offset="0.5731" stop-color="#EAC572"/>
<stop offset="1" stop-color="#BD9244"/>
</linearGradient>
<linearGradient id="paint8_linear_1881_18239" x1="44057" y1="6970.08" x2="19375" y2="-31768.7" gradientUnits="userSpaceOnUse">
<stop stop-color="#8B733D"/>
<stop offset="0.3622" stop-color="#DCB96B"/>
<stop offset="0.5731" stop-color="#EAC572"/>
<stop offset="1" stop-color="#BD9244"/>
</linearGradient>
<linearGradient id="paint9_linear_1881_18239" x1="102949" y1="9566.52" x2="9637.57" y2="-78793.3" gradientUnits="userSpaceOnUse">
<stop stop-color="#8B733D"/>
<stop offset="0.3622" stop-color="#DCB96B"/>
<stop offset="0.5731" stop-color="#EAC572"/>
<stop offset="1" stop-color="#BD9244"/>
</linearGradient>
<linearGradient id="paint10_linear_1881_18239" x1="76294.6" y1="4716.61" x2="-11748" y2="-42757.3" gradientUnits="userSpaceOnUse">
<stop stop-color="#8B733D"/>
<stop offset="0.3622" stop-color="#DCB96B"/>
<stop offset="0.5731" stop-color="#EAC572"/>
<stop offset="1" stop-color="#BD9244"/>
</linearGradient>
<linearGradient id="paint11_linear_1881_18239" x1="50009.8" y1="2824.98" x2="-6278.78" y2="-18682.7" gradientUnits="userSpaceOnUse">
<stop stop-color="#8B733D"/>
<stop offset="0.3622" stop-color="#DCB96B"/>
<stop offset="0.5731" stop-color="#EAC572"/>
<stop offset="1" stop-color="#BD9244"/>
</linearGradient>
<linearGradient id="paint12_linear_1881_18239" x1="9840.67" y1="1365.7" x2="-14804.1" y2="-1964.19" gradientUnits="userSpaceOnUse">
<stop stop-color="#8B733D"/>
<stop offset="0.3622" stop-color="#DCB96B"/>
<stop offset="0.5731" stop-color="#EAC572"/>
<stop offset="1" stop-color="#BD9244"/>
</linearGradient>
<linearGradient id="paint13_linear_1881_18239" x1="11512.6" y1="1473.89" x2="-28551.7" y2="-9474.11" gradientUnits="userSpaceOnUse">
<stop stop-color="#8B733D"/>
<stop offset="0.3622" stop-color="#DCB96B"/>
<stop offset="0.5731" stop-color="#EAC572"/>
<stop offset="1" stop-color="#BD9244"/>
</linearGradient>
<linearGradient id="paint14_linear_1881_18239" x1="28267.2" y1="2176.51" x2="-44191.9" y2="-27506.2" gradientUnits="userSpaceOnUse">
<stop stop-color="#8B733D"/>
<stop offset="0.3622" stop-color="#DCB96B"/>
<stop offset="0.5731" stop-color="#EAC572"/>
<stop offset="1" stop-color="#BD9244"/>
</linearGradient>
<linearGradient id="paint15_linear_1881_18239" x1="12914.3" y1="1482.49" x2="-29321" y2="-8630.77" gradientUnits="userSpaceOnUse">
<stop stop-color="#8B733D"/>
<stop offset="0.3622" stop-color="#DCB96B"/>
<stop offset="0.5731" stop-color="#EAC572"/>
<stop offset="1" stop-color="#BD9244"/>
</linearGradient>
<linearGradient id="paint16_linear_1881_18239" x1="30130.6" y1="2186.68" x2="-43468.2" y2="-26096.9" gradientUnits="userSpaceOnUse">
<stop stop-color="#8B733D"/>
<stop offset="0.3622" stop-color="#DCB96B"/>
<stop offset="0.5731" stop-color="#EAC572"/>
<stop offset="1" stop-color="#BD9244"/>
</linearGradient>
<linearGradient id="paint17_linear_1881_18239" x1="15315.9" y1="1525" x2="-32192.3" y2="-13830.8" gradientUnits="userSpaceOnUse">
<stop stop-color="#8B733D"/>
<stop offset="0.3622" stop-color="#DCB96B"/>
<stop offset="0.5731" stop-color="#EAC572"/>
<stop offset="1" stop-color="#BD9244"/>
</linearGradient>
<linearGradient id="paint18_linear_1881_18239" x1="30563.8" y1="2105.43" x2="-39691.8" y2="-22417.9" gradientUnits="userSpaceOnUse">
<stop stop-color="#8B733D"/>
<stop offset="0.3622" stop-color="#DCB96B"/>
<stop offset="0.5731" stop-color="#EAC572"/>
<stop offset="1" stop-color="#BD9244"/>
</linearGradient>
<linearGradient id="paint19_linear_1881_18239" x1="34683" y1="3845.69" x2="-14071.6" y2="-41857.7" gradientUnits="userSpaceOnUse">
<stop stop-color="#8B733D"/>
<stop offset="0.3622" stop-color="#DCB96B"/>
<stop offset="0.5731" stop-color="#EAC572"/>
<stop offset="1" stop-color="#BD9244"/>
</linearGradient>
<linearGradient id="paint20_linear_1881_18239" x1="30856.9" y1="4937.56" x2="6203.62" y2="-33778" gradientUnits="userSpaceOnUse">
<stop stop-color="#8B733D"/>
<stop offset="0.3622" stop-color="#DCB96B"/>
<stop offset="0.5731" stop-color="#EAC572"/>
<stop offset="1" stop-color="#BD9244"/>
</linearGradient>
<linearGradient id="paint21_linear_1881_18239" x1="59250.1" y1="6024.98" x2="-34051.6" y2="-82278.3" gradientUnits="userSpaceOnUse">
<stop stop-color="#8B733D"/>
<stop offset="0.3622" stop-color="#DCB96B"/>
<stop offset="0.5731" stop-color="#EAC572"/>
<stop offset="1" stop-color="#BD9244"/>
</linearGradient>
<linearGradient id="paint22_linear_1881_18239" x1="36451.3" y1="2923.83" x2="-51591.2" y2="-44550" gradientUnits="userSpaceOnUse">
<stop stop-color="#8B733D"/>
<stop offset="0.3622" stop-color="#DCB96B"/>
<stop offset="0.5731" stop-color="#EAC572"/>
<stop offset="1" stop-color="#BD9244"/>
</linearGradient>
<linearGradient id="paint23_linear_1881_18239" x1="18990.4" y1="1878.6" x2="-37307.2" y2="-19636.8" gradientUnits="userSpaceOnUse">
<stop stop-color="#8B733D"/>
<stop offset="0.3622" stop-color="#DCB96B"/>
<stop offset="0.5731" stop-color="#EAC572"/>
<stop offset="1" stop-color="#BD9244"/>
</linearGradient>
<linearGradient id="paint24_linear_1881_18239" x1="18254.8" y1="2341.77" x2="402.228" y2="-11636.3" gradientUnits="userSpaceOnUse">
<stop stop-color="#8B733D"/>
<stop offset="0.3622" stop-color="#DCB96B"/>
<stop offset="0.5731" stop-color="#EAC572"/>
<stop offset="1" stop-color="#BD9244"/>
</linearGradient>
<linearGradient id="paint25_linear_1881_18239" x1="4647.74" y1="1278.94" x2="3888.7" y2="2069.33" gradientUnits="userSpaceOnUse">
<stop stop-color="white" stop-opacity="0.1"/>
<stop offset="1" stop-color="white" stop-opacity="0.2"/>
</linearGradient>
<linearGradient id="paint26_linear_1881_18239" x1="5031.71" y1="1184.64" x2="4399.36" y2="2517.79" gradientUnits="userSpaceOnUse">
<stop stop-color="white" stop-opacity="0.1"/>
<stop offset="1" stop-color="white" stop-opacity="0.2"/>
</linearGradient>
<linearGradient id="paint27_linear_1881_18239" x1="7629.91" y1="390.728" x2="6801.66" y2="3007.17" gradientUnits="userSpaceOnUse">
<stop stop-color="white" stop-opacity="0.1"/>
<stop offset="1" stop-color="white" stop-opacity="0.2"/>
</linearGradient>
<linearGradient id="paint28_linear_1881_18239" x1="6255.38" y1="981.058" x2="5499.86" y2="2405.93" gradientUnits="userSpaceOnUse">
<stop stop-color="white" stop-opacity="0.1"/>
<stop offset="1" stop-color="white" stop-opacity="0.2"/>
</linearGradient>
<linearGradient id="paint29_linear_1881_18239" x1="10604.5" y1="-739.986" x2="9490.2" y2="2916.14" gradientUnits="userSpaceOnUse">
<stop stop-color="white" stop-opacity="0.1"/>
<stop offset="1" stop-color="white" stop-opacity="0.2"/>
</linearGradient>
<linearGradient id="paint30_linear_1881_18239" x1="8301.85" y1="-118.092" x2="7638.18" y2="2111.45" gradientUnits="userSpaceOnUse">
<stop stop-color="white" stop-opacity="0.1"/>
<stop offset="1" stop-color="white" stop-opacity="0.2"/>
</linearGradient>
<linearGradient id="paint31_linear_1881_18239" x1="10862.8" y1="-1718.37" x2="9894.8" y2="2968.04" gradientUnits="userSpaceOnUse">
<stop stop-color="white" stop-opacity="0.1"/>
<stop offset="1" stop-color="white" stop-opacity="0.2"/>
</linearGradient>
<linearGradient id="paint32_linear_1881_18239" x1="9538.98" y1="-1007.89" x2="8707.83" y2="2722.05" gradientUnits="userSpaceOnUse">
<stop stop-color="white" stop-opacity="0.1"/>
<stop offset="1" stop-color="white" stop-opacity="0.2"/>
</linearGradient>
<linearGradient id="paint33_linear_1881_18239" x1="1010.21" y1="-450.676" x2="519.928" y2="678.267" gradientUnits="userSpaceOnUse">
<stop stop-color="white" stop-opacity="0.1"/>
<stop offset="1" stop-color="white" stop-opacity="0.2"/>
</linearGradient>
</defs>
</svg>
