<svg width="168" height="16" viewBox="0 0 168 16" fill="none" xmlns="http://www.w3.org/2000/svg">
<path d="M165.385 1.59049L165.377 1.48644L165.295 1.41793H165.197C164.942 1.43061 164.707 1.43823 164.479 1.43823L164.125 1.43188H163.827L163.668 1.42427H163.62L163.556 1.4801L163.55 1.56892L163.537 1.70088L163.522 1.82523L163.51 1.93689L163.55 1.97749L163.598 1.91532L163.612 1.87471C163.641 1.77067 163.668 1.70088 163.682 1.67297L163.786 1.60445C163.855 1.57653 163.987 1.56258 164.179 1.56258C164.263 1.56258 164.305 1.59683 164.305 1.67297V3.02429C164.305 3.10804 164.284 3.17656 164.242 3.22477L164.069 3.30852L164.015 3.32121L164.001 3.36308L164.041 3.39861L164.111 3.39099L164.428 3.37069L164.58 3.36308H164.638L164.816 3.37704L164.928 3.38465H164.962L165.004 3.34912L164.948 3.3009C164.83 3.29456 164.748 3.25269 164.7 3.19051C164.65 3.12073 164.63 3.01034 164.63 2.84412V1.75671C164.63 1.66662 164.65 1.61079 164.686 1.59049C164.72 1.57019 164.81 1.55623 164.962 1.55623C165.073 1.55623 165.157 1.57653 165.211 1.6184C165.267 1.66028 165.309 1.72245 165.329 1.81254L165.377 1.8671L165.419 1.81888L165.412 1.69454L165.385 1.59049ZM167.973 3.32121C167.869 3.30725 167.786 3.27172 167.745 3.20955C167.695 3.14737 167.675 3.05094 167.675 2.91264V2.84919L167.641 1.95846V1.86076C167.641 1.73641 167.661 1.63871 167.695 1.59049C167.731 1.53466 167.793 1.50801 167.883 1.50167L167.924 1.46614L167.876 1.42427L167.807 1.43188L167.661 1.43823L167.572 1.43188L167.509 1.42427L167.42 1.46614C167.399 1.49406 167.357 1.56258 167.308 1.67297L166.763 2.82889L166.706 2.89233L166.644 2.80859L166.056 1.51436L165.917 1.42554L165.792 1.43823L165.661 1.44457H165.598L165.517 1.43823H165.481L165.418 1.4801L165.475 1.5207C165.571 1.5207 165.648 1.55623 165.703 1.6184C165.758 1.68692 165.786 1.77701 165.786 1.88867L165.78 1.98383L165.738 2.93167C165.738 3.04206 165.724 3.13215 165.689 3.19432L165.53 3.32628L165.495 3.36815L165.537 3.41003L165.606 3.40241C165.654 3.39607 165.724 3.38972 165.814 3.38972L165.924 3.39607L166.028 3.40876L166.117 3.41637L166.167 3.38211L166.103 3.33389C165.98 3.29837 165.904 3.21589 165.875 3.06997L165.862 2.93167V2.87711L165.882 2.15005V2.10311L165.904 2.03966L165.924 2.04728L165.932 2.06758L166.395 3.09916L166.471 3.25142C166.519 3.35546 166.554 3.41129 166.575 3.41129L166.644 3.32121L166.665 3.27933L167.211 2.12975L167.274 2.05362L167.295 2.09549L167.336 3.05094V3.11946L167.302 3.27172L167.184 3.34785L167.142 3.38972L167.177 3.42398L167.308 3.41129C167.378 3.40368 167.461 3.39734 167.565 3.39734C167.613 3.39734 167.695 3.40368 167.813 3.41764L167.904 3.42398L168 3.38338L167.973 3.31994V3.32121Z" fill="black"/>
<path d="M6.46481 14.2917C5.96488 14.2917 5.56392 14.1521 5.25305 13.8895C4.94092 13.6129 4.74678 13.2183 4.66431 12.6993L4.58056 11.6969V3.20194C4.58056 2.62841 4.65035 2.24776 4.78865 2.05997C4.92823 1.87345 5.2391 1.73514 5.70984 1.65901C5.84815 1.65901 5.93062 1.62475 5.96488 1.58922L6.01437 1.34814C6.01437 1.18827 5.89636 1.10579 5.68193 1.10579C5.31396 1.10579 4.79627 1.12609 4.10347 1.18827L3.37642 1.2441C2.8232 1.27835 2.36007 1.29866 1.99337 1.29866C1.42492 1.29866 1.02396 1.27835 0.781614 1.21618C0.539263 1.16923 0.366699 1.14766 0.241082 1.13371C0.0824755 1.12102 0 1.21745 0 1.41158L0.152262 1.66662C0.241082 1.71611 0.463131 1.77067 0.809528 1.8265C1.37671 1.91532 1.76371 2.08281 1.9718 2.34546C2.17989 2.60811 2.29662 3.03699 2.29662 3.64603V11.5852L2.28394 12.4709C2.28394 13.0457 2.20019 13.4606 2.05554 13.7169C1.89567 13.9732 1.5848 14.1801 1.1001 14.3539L0.80826 14.5823L0.82983 14.6648C0.864089 14.8043 0.969404 14.8868 1.10644 14.8868C1.2587 14.8868 1.4871 14.8513 1.81954 14.7967C2.20019 14.7269 2.73311 14.6927 3.39799 14.6927C3.93725 14.6927 4.644 14.7409 5.50809 14.8449C5.85449 14.8792 6.11714 14.9008 6.30493 14.9008C6.74015 14.9008 6.94824 14.7967 6.94824 14.6026C6.95459 14.3945 6.78329 14.2917 6.46481 14.2917ZM20.4793 2.30359C20.4653 2.23507 20.4577 1.99272 20.4235 1.5778C20.4032 1.23141 20.3055 1.05757 20.1608 1.05757C20.0009 1.05757 19.7307 1.07153 19.3855 1.10706C18.4504 1.18953 17.5305 1.22379 16.6309 1.22379L14.0005 1.23775L12.2698 1.25171C11.8206 1.25171 11.4057 1.23902 11.0035 1.20349C10.7282 1.18319 10.5543 1.16923 10.4845 1.16923C10.2561 1.16923 10.1521 1.27328 10.1521 1.46614C10.1521 1.61841 10.2358 1.69454 10.416 1.7085C11.0517 1.74275 11.544 1.90263 11.8689 2.1932C12.1607 2.44951 12.3053 2.98877 12.3053 3.82621V12.0357C12.3053 12.8313 12.2356 13.3984 12.0972 13.7169C11.9589 14.0418 11.6823 14.2701 11.2877 14.4084C11.1012 14.4643 11.0111 14.5683 11.0111 14.7003C11.0111 14.8728 11.1278 14.9629 11.3436 14.9629C11.5022 14.9629 11.8409 14.9274 12.3256 14.8589C12.686 14.8107 13.1073 14.7891 13.6199 14.7891H14.7276C15.4546 14.7891 15.9381 14.8031 16.1804 14.8246C16.4367 14.8589 16.6309 14.8728 16.7552 14.8728C16.9075 14.8728 16.9773 14.7828 16.9773 14.5962C16.9773 14.4364 16.8732 14.3399 16.6512 14.3184C15.8899 14.2638 15.3848 14.0633 15.1285 13.7309C14.7821 13.2804 14.6096 12.5534 14.6096 11.551V10.3735L14.5969 9.57792C14.5969 8.74683 14.6794 8.26339 14.8253 8.13778C14.9699 8.01343 15.5511 7.95125 16.5547 7.95125C17.3363 7.95125 17.8832 8.06926 18.1877 8.31161C18.4923 8.55269 18.7207 9.0247 18.8602 9.71623C18.8932 9.90275 18.977 9.99284 19.1013 9.97888C19.2878 9.96619 19.364 9.89006 19.364 9.75049C19.364 9.66167 19.3513 9.5221 19.3437 9.32162L19.1914 7.44625C19.1571 6.92602 19.1356 6.47685 19.1356 6.08223L19.1495 5.77136C19.1635 5.64702 19.1711 5.56327 19.1711 5.50871C19.1711 5.33488 19.0671 5.2524 18.8729 5.2524C18.7905 5.2524 18.7143 5.33488 18.6521 5.4808C18.4098 6.10254 18.1535 6.51872 17.9035 6.72681C17.6485 6.93363 17.2818 7.05164 16.7831 7.05164L15.6957 7.0656L15.3151 7.07828C15.0385 7.07828 14.8456 7.00977 14.7479 6.89303C14.6591 6.76741 14.5956 6.51237 14.5956 6.14441V2.95451C14.5956 2.59416 14.6654 2.34546 14.8177 2.20589C14.9699 2.06885 15.2326 1.98511 15.6132 1.98511L16.0282 1.97242L17.33 1.98511C18.8171 1.98511 19.6901 2.42159 19.9667 3.30091C20.0009 3.40495 20.0149 3.52169 20.0149 3.64603V3.97847C20.0149 4.16626 20.0847 4.25508 20.223 4.25508C20.4793 4.25508 20.6036 3.97847 20.6036 3.43921C20.6036 3.33517 20.5897 3.19686 20.5681 3.0446L20.4793 2.30359ZM32.3964 11.3226C32.3278 11.3226 32.1401 11.5294 31.8571 11.9316C30.9093 13.2601 29.3105 13.9237 27.0608 13.9237C26.5761 13.9237 26.2513 13.8755 26.0775 13.7994C25.7806 13.6471 25.6283 12.9493 25.6283 11.7033V3.04333C25.6283 2.16401 25.9607 1.70723 26.6459 1.65901C26.9365 1.64632 27.0748 1.55496 27.0748 1.39636C27.0748 1.20857 26.8807 1.10452 26.4721 1.10452C25.9328 1.10452 25.3999 1.12609 24.8809 1.18827C24.1742 1.27201 23.6692 1.30627 23.3507 1.30627C23.1566 1.30627 22.8457 1.2847 22.4371 1.25044L22.0083 1.21745C21.8497 1.19715 21.7101 1.18319 21.6149 1.18319C21.488 1.16162 21.3929 1.14766 21.3231 1.14766C21.1289 1.14766 21.0249 1.25171 21.0249 1.44584C21.0249 1.60445 21.1505 1.7085 21.4056 1.74275L22.0083 1.8468C22.8939 1.98637 23.3368 2.58781 23.3368 3.64603V11.9799C23.3368 12.7539 23.2543 13.3147 23.0957 13.6611C22.9358 14.0075 22.6313 14.2359 22.2087 14.3539C22.0362 14.4021 21.9461 14.4782 21.9461 14.6089C21.9461 14.7828 22.0349 14.8728 22.2367 14.8728C22.3255 14.8728 22.5133 14.8589 22.7899 14.8246C23.6768 14.7206 24.5206 14.6724 25.2895 14.6724C25.7526 14.6724 26.1752 14.6851 26.5343 14.7066L27.6217 14.7548C28.2992 14.7891 28.7078 14.8107 28.8182 14.8246C29.2826 14.8589 29.5935 14.8728 29.7673 14.8728C30.6111 14.8728 31.2684 14.581 31.7467 13.9935C32.2999 13.321 32.5765 12.575 32.5765 11.7223C32.5765 11.4469 32.508 11.3226 32.3964 11.3226ZM43.7818 1.12102C43.4709 1.12102 43.207 1.13371 42.9862 1.14132L42.1412 1.18953C41.8785 1.20984 41.6362 1.22379 41.4154 1.22379C41.0131 1.22379 40.6744 1.21111 40.4117 1.17558L39.7532 1.08676C39.6009 1.06392 39.4296 1.05123 39.2482 1.05123C39.0756 1.05123 38.9855 1.15528 38.9855 1.3621C38.9855 1.50167 39.0896 1.58415 39.3103 1.60445C39.7265 1.63998 40.1072 1.79224 40.432 2.03459C40.7568 2.27567 40.9167 2.53959 40.9167 2.8162C40.9167 3.14864 40.5487 3.97086 39.823 5.29428C39.4626 5.92997 39.2482 6.34615 39.1505 6.50476C38.8053 7.1836 38.5287 7.52238 38.3206 7.52238C38.1138 7.52238 37.8854 7.29399 37.6634 6.8169C37.5949 6.65702 37.4007 6.27637 37.0759 5.66097L36.293 4.15104C35.8083 3.20321 35.566 2.59416 35.566 2.31755C35.566 1.97115 35.8223 1.75037 36.3412 1.64632C36.5696 1.59811 36.6737 1.50802 36.6737 1.35575C36.6737 1.18319 36.5354 1.09945 36.2588 1.09945C36.1192 1.09945 35.8438 1.12102 35.4277 1.15528C34.8744 1.20984 34.3212 1.2441 33.7807 1.2441C33.1932 1.2441 32.5499 1.20984 31.8355 1.12736C31.4764 1.0931 31.2265 1.07153 31.0615 1.07153C30.8737 1.07153 30.7837 1.17558 30.7837 1.38367C30.7837 1.55623 30.9093 1.64632 31.1516 1.67424C31.9611 1.75671 32.6742 2.36576 33.2833 3.50773L34.8059 6.3525C35.2208 7.14807 35.6154 7.84086 35.9606 8.4017C36.2524 8.8864 36.3971 9.34953 36.3971 9.78475V11.688C36.3971 12.575 36.2727 13.2107 36.0037 13.5647C35.7398 13.9237 35.2272 14.1661 34.4938 14.2778C34.3073 14.2981 34.2172 14.3805 34.2172 14.4985C34.2172 14.7206 34.2996 14.831 34.4456 14.831C34.5699 14.831 34.7704 14.8107 35.047 14.7612C35.4632 14.6927 36.293 14.6445 37.5251 14.6445C38.0453 14.6445 38.4386 14.6571 38.6873 14.6927L40.1072 14.817C40.2937 14.8373 40.4663 14.8513 40.6262 14.8513C40.9231 14.8513 41.0753 14.7485 41.0753 14.5544C41.0753 14.3805 40.9713 14.2917 40.7505 14.2625C39.5248 14.194 38.8751 13.7931 38.7571 13.0381L38.7089 12.3605V9.41932C38.7089 9.09322 38.7216 8.86483 38.7571 8.74048C38.7914 8.61613 38.8751 8.44864 39.0134 8.24182C39.7189 7.13538 40.5018 5.76502 41.3392 4.12439C41.8087 3.21082 42.2033 2.59416 42.5155 2.26933C42.8263 1.9445 43.2286 1.71611 43.726 1.59684C43.9683 1.54228 44.0863 1.44457 44.0863 1.29992C44.0444 1.19715 43.9544 1.12102 43.7818 1.12102ZM57.2012 2.30359C57.1885 2.23507 57.1809 1.99272 57.1466 1.5778C57.1251 1.23141 57.0286 1.05757 56.8827 1.05757C56.7241 1.05757 56.4538 1.07153 56.1087 1.10706C55.1736 1.18953 54.2536 1.22379 53.354 1.22379L50.7224 1.23775L49.0057 1.27328C48.5565 1.27328 48.1403 1.25932 47.7393 1.22379C47.4627 1.20349 47.2889 1.18953 47.2191 1.18953C46.9907 1.18953 46.8892 1.29358 46.8892 1.48772C46.8892 1.63998 46.9717 1.71611 47.1506 1.7288C47.7876 1.76433 48.2799 1.92293 48.6047 2.2135C48.8953 2.46981 49.0399 3.01034 49.0399 3.84778V12.056C49.0399 12.8516 48.9714 13.4187 48.8331 13.7372C48.6935 14.0633 48.4182 14.2917 48.0236 14.43C47.8358 14.4846 47.7457 14.5886 47.7457 14.7206C47.7457 14.8932 47.8637 14.9832 48.0781 14.9832C48.238 14.9832 48.5768 14.949 49.0615 14.8792C49.4206 14.831 49.8431 14.8107 50.3557 14.8107H51.4634C52.1892 14.8107 52.6739 14.8234 52.9163 14.8449C53.1726 14.8792 53.3667 14.8932 53.4911 14.8932C53.6433 14.8932 53.7118 14.8043 53.7118 14.6165C53.7118 14.4567 53.6078 14.3602 53.387 14.3399C52.6257 14.2841 52.1207 14.0836 51.8644 13.7512C51.518 13.302 51.3442 12.575 51.3442 11.5713V10.3951L51.3315 9.59823C51.3315 8.7684 51.4139 8.28369 51.5599 8.15935C51.7121 8.035 52.2869 7.97283 53.2906 7.97283C54.0722 7.97283 54.6191 8.08956 54.9236 8.33191C55.2281 8.57426 55.4565 9.04501 55.5948 9.73653C55.6291 9.92432 55.7128 10.0144 55.8359 10.0005C56.0237 9.9865 56.0998 9.91036 56.0998 9.77206C56.0998 9.68197 56.0871 9.54367 56.0795 9.34319L55.9273 7.46655C55.8917 6.94759 55.8714 6.49842 55.8714 6.1038L55.8854 5.79167C55.8981 5.66732 55.9057 5.58484 55.9057 5.52901C55.9057 5.35645 55.8029 5.27271 55.6088 5.27271C55.525 5.27271 55.4489 5.35645 55.3867 5.5011C55.1456 6.12411 54.8893 6.53902 54.6394 6.74711C54.3831 6.9552 54.0176 7.07194 53.519 7.07194L52.4316 7.0859L52.0509 7.09985C51.7743 7.09985 51.5814 7.03134 51.4837 6.91333C51.3936 6.78898 51.3315 6.53268 51.3315 6.16471V2.97608C51.3315 2.61699 51.4 2.36703 51.5522 2.22873C51.7045 2.09042 51.9684 2.00795 52.3491 2.00795L52.764 1.99399L54.0646 2.00668C55.5529 2.00668 56.4246 2.44316 56.7025 3.32248C56.7368 3.42652 56.7507 3.54453 56.7507 3.66887V4.00131C56.7507 4.18784 56.8193 4.27792 56.9576 4.27792C57.2139 4.27792 57.3382 4.00131 57.3382 3.46078C57.3382 3.35674 57.3255 3.2197 57.304 3.06744L57.1999 2.30613L57.2012 2.30359ZM64.2268 14.2917C63.7282 14.2917 63.3259 14.1521 63.0151 13.8895C62.7042 13.6129 62.5101 13.2183 62.4276 12.7133L62.3438 11.7096V3.21716C62.3438 2.64364 62.4136 2.26298 62.5519 2.07519C62.6902 1.88867 63.0011 1.75037 63.4719 1.67424C63.6114 1.65393 63.6939 1.62602 63.7282 1.58415L63.7764 1.34307C63.7764 1.18319 63.6584 1.09945 63.4439 1.09945C63.0772 1.09945 62.5583 1.12102 61.8668 1.18319L61.1397 1.23775C60.5865 1.28597 60.1221 1.30754 59.7567 1.30754C59.1882 1.30754 58.786 1.28597 58.5449 1.22379C58.3025 1.17558 58.1287 1.15528 58.0044 1.14132C57.8458 1.12736 57.7633 1.22379 57.7633 1.41793L57.9155 1.67424C58.0044 1.72245 58.2264 1.77828 58.5715 1.83284C59.14 1.92293 59.527 2.08915 59.7351 2.35307C59.9419 2.61573 60.0599 3.0446 60.0599 3.65365V11.5916L60.0472 12.4773C60.0472 13.052 59.9635 13.467 59.8188 13.7233C59.659 13.9796 59.3468 14.1877 58.8621 14.3602L58.5715 14.5886L58.5931 14.6724C58.6274 14.8107 58.7314 14.8932 58.8697 14.8932C59.022 14.8932 59.2504 14.8589 59.5828 14.8043C59.9635 14.7345 60.4964 14.699 61.16 14.699C61.7005 14.699 62.406 14.7485 63.2714 14.8513C63.6178 14.8868 63.8804 14.9071 64.0669 14.9071C64.5034 14.9071 64.7115 14.8031 64.7115 14.6089C64.7115 14.3945 64.5517 14.2917 64.2268 14.2917ZM72.7116 7.49447C72.4198 7.54268 71.694 7.56425 70.5102 7.56425C70.0953 7.56425 69.8326 7.50842 69.7286 7.39042C69.6106 7.27369 69.57 7.00977 69.57 6.58089V3.12073C69.57 2.61573 69.6524 2.26933 69.825 2.06758C69.9988 1.88233 70.3097 1.77828 70.7601 1.77828C71.7778 1.77828 72.6 2.10311 73.2585 2.76038C73.9158 3.41764 74.2482 4.24874 74.2482 5.2524C74.2482 6.0264 74.0059 6.63545 73.5212 7.07194C73.2509 7.3219 72.9883 7.44625 72.7116 7.49447ZM79.0305 13.5989L78.8085 13.6332C78.6702 13.6548 78.5319 13.6687 78.3796 13.6687C78.0129 13.6687 77.6741 13.5507 77.4115 13.3084C77.1336 13.0673 76.8227 12.6359 76.4624 12.0141L74.5527 8.61613C74.4347 8.39408 74.3447 8.23548 74.2901 8.14539L74.1861 7.90304C74.1721 7.82056 74.2406 7.75078 74.3726 7.7089C75.0159 7.43229 75.5285 7.01738 75.8952 6.47812C76.2632 5.93758 76.4484 5.33615 76.4484 4.67761C76.4484 3.62573 76.0335 2.76799 75.2037 2.07646C74.3726 1.38367 73.327 1.03727 72.0544 1.03727C71.6255 1.03727 70.8566 1.08549 69.7286 1.16162C68.7731 1.23141 67.9573 1.27962 67.286 1.27962C66.677 1.27962 66.1085 1.25932 65.6035 1.19715C65.4449 1.17558 65.313 1.16162 65.2444 1.16162C65.0567 1.16162 64.9666 1.25171 64.9666 1.45346C64.9666 1.63998 65.1061 1.75037 65.3827 1.79858C66.1225 1.88867 66.6491 2.15894 66.9815 2.60811C67.1744 2.88472 67.2784 3.41764 67.2784 4.20687V11.4266L67.2657 11.82V12.7691C67.2657 13.2525 67.1744 13.6129 67.0018 13.8552C66.8292 14.0836 66.5171 14.2841 66.0679 14.4224C65.9284 14.4706 65.8738 14.562 65.8738 14.7142C65.8738 14.9008 65.9918 14.9896 66.2341 14.9896C66.3027 14.9896 66.441 14.9769 66.6275 14.9693L67.3 14.9135L68.1438 14.831C68.4902 14.8107 68.8848 14.7967 69.334 14.7967C69.8669 14.7967 70.4214 14.817 70.9962 14.8652C71.189 14.8868 71.3273 14.9008 71.4111 14.9008C71.6395 14.9008 71.7422 14.8107 71.7422 14.6089C71.7422 14.4161 71.6039 14.312 71.3273 14.2841C70.6358 14.2156 70.1854 13.9593 69.9443 13.5101C69.7159 13.0597 69.5966 12.2083 69.5966 10.9419V8.91305C69.5966 8.65039 69.6461 8.48417 69.7489 8.42961L70.1993 8.34587H70.8211C71.354 8.34587 71.7346 8.44991 71.963 8.64405C72.1914 8.83691 72.4959 9.31527 72.8512 10.0487C73.7711 11.9177 74.5185 13.198 75.0996 13.8616C75.6744 14.5341 76.3101 14.8792 76.9889 14.8792C77.4178 14.8792 77.8886 14.7548 78.4418 14.5125C78.9823 14.2714 79.2589 14.0494 79.2589 13.8552C79.2107 13.6827 79.1409 13.5989 79.0305 13.5989ZM84.1795 6.16471C82.851 5.62545 82.0618 5.2321 81.8068 5.00371C81.4109 4.63574 81.218 4.19291 81.218 3.67395C81.218 3.12073 81.4388 2.64998 81.8893 2.24141C82.3384 1.84046 82.8574 1.63236 83.4525 1.63236C84.3318 1.63236 85.1553 1.9648 85.9306 2.64998C86.7134 3.32882 87.1969 4.12439 87.391 5.05827C87.4468 5.31458 87.5306 5.43892 87.6537 5.43892C87.8135 5.43892 87.91 5.30062 87.91 5.01005L87.8897 4.81592L87.7856 3.90234L87.6613 2.92025C87.6473 2.80225 87.6473 2.69186 87.6473 2.5599L87.6676 1.75037C87.6676 1.52832 87.5991 1.41793 87.4608 1.41793L87.3009 1.45219L86.9203 1.63998L86.6297 1.7085C86.5053 1.7085 86.2973 1.65393 85.9927 1.52197L85.3215 1.24536C84.7201 1.00301 84.111 0.88501 83.488 0.88501C82.4285 0.88501 81.5289 1.25298 80.8158 1.99272C80.1027 2.73246 79.7436 3.65365 79.7436 4.74613C79.7436 5.69523 79.9999 6.4502 80.5176 7.01738C81.0379 7.58456 82.006 8.19361 83.4322 8.82296L84.9548 9.50179C85.6336 9.79997 86.1107 10.1235 86.3886 10.4572C86.664 10.7897 86.8023 11.2312 86.8023 11.7515C86.8023 12.4227 86.5396 13.0102 86.0067 13.5152C85.4738 14.0354 84.8787 14.2917 84.2011 14.2917C83.3357 14.2917 82.4983 13.8971 81.6888 13.1282C80.878 12.3542 80.3184 11.3911 79.986 10.2491C79.9505 10.0905 79.8819 10.0081 79.7918 10.0081C79.5838 10.0081 79.481 10.1667 79.481 10.4915C79.481 10.7478 79.6053 11.3226 79.8616 12.2298C80.0202 12.8173 80.1243 13.2804 80.1585 13.5926C80.1928 13.8831 80.2423 14.0557 80.2829 14.1115C80.3311 14.1661 80.5113 14.2283 80.8158 14.2841C81.0379 14.3323 81.3843 14.4364 81.841 14.5823C82.8434 14.8932 83.5705 15.0518 84.0273 15.0518C85.1566 15.0518 86.1386 14.6229 86.9761 13.7575C87.8199 12.8934 88.2361 11.8898 88.2361 10.7262C88.2361 9.67436 87.9379 8.78235 87.3225 8.02739C86.8099 7.44625 85.758 6.81563 84.1795 6.16471ZM102.162 2.31755L102.111 1.60445C102.092 1.29358 101.904 1.14132 101.537 1.14132C101.433 1.14132 101.213 1.15401 100.866 1.16162C99.1152 1.25171 97.4543 1.28597 95.8974 1.28597L93.4675 1.25171L91.4272 1.23141C90.9425 1.23141 90.5771 1.21745 90.3195 1.19715C90.1609 1.18319 90.0429 1.17558 89.9883 1.17558C89.732 1.17558 89.5937 1.29992 89.5722 1.57019L89.5036 2.17924L89.3857 3.0649L89.2816 3.93026C89.227 4.2627 89.1928 4.51901 89.1776 4.71187C89.1649 4.91996 89.2676 5.02401 89.4897 5.02401C89.642 5.02401 89.7523 4.88444 89.8221 4.60909L89.9046 4.33122C90.0987 3.60543 90.265 3.14103 90.3754 2.96085C90.4857 2.78195 90.7217 2.61573 91.0808 2.46346C91.5655 2.26933 92.4791 2.17163 93.8152 2.17163C94.3824 2.17163 94.6653 2.43555 94.6653 2.95451V11.82L94.6806 12.2907C94.6806 12.8795 94.541 13.3502 94.2517 13.6954C93.9599 14.0418 93.5729 14.2283 93.0539 14.2638C92.8598 14.2765 92.7215 14.312 92.6593 14.3463C92.6035 14.3945 92.5705 14.4858 92.5552 14.6381C92.5425 14.8107 92.6453 14.9008 92.8534 14.9008C92.9422 14.9008 93.0945 14.8868 93.3381 14.8652L95.5383 14.7409C95.8505 14.7206 96.1956 14.7066 96.5762 14.7066C96.7361 14.7066 96.8744 14.7066 96.9785 14.7193L98.2232 14.8031L98.9718 14.8373L99.2269 14.8513C99.435 14.8513 99.539 14.7688 99.539 14.6229C99.539 14.4021 99.421 14.2917 99.1786 14.2638C98.3488 14.208 97.774 13.9517 97.4492 13.4809C97.1231 13.0114 96.9645 12.2146 96.9645 11.0942V3.57625C96.9645 2.95324 97.0889 2.57258 97.3312 2.41398C97.5875 2.2541 98.2105 2.18558 99.2205 2.18558C99.9679 2.18558 100.549 2.32389 100.937 2.6005C101.331 2.87711 101.609 3.32755 101.747 3.94929C101.801 4.2056 101.905 4.32995 102.072 4.32995C102.258 4.32995 102.334 4.22717 102.334 3.99878C102.334 3.79068 102.314 3.50012 102.266 3.14738L102.162 2.31628V2.31755ZM116.986 11.2186L116.722 11.3911L116.079 12.0966C115.643 12.5673 115.055 12.9759 114.307 13.2944C113.559 13.6192 112.847 13.7791 112.162 13.7791C111.02 13.7791 109.974 13.2944 109.006 12.3389C107.712 11.0587 107.081 9.34319 107.081 7.18994C107.081 5.54297 107.476 4.20814 108.259 3.16895C109.04 2.13102 110.064 1.62602 111.324 1.62602C112.743 1.62602 114.031 2.24776 115.199 3.50139C115.491 3.81225 115.788 4.21448 116.1 4.7474C116.411 5.26636 116.605 5.66097 116.653 5.90967C116.688 6.06954 116.757 6.15202 116.861 6.15202C117.048 6.15202 117.138 6.02767 117.138 5.77136C117.138 5.5988 117.116 5.4034 117.082 5.18262L116.993 4.73344L116.91 3.97213V3.05856L116.896 2.3315C116.896 1.89502 116.792 1.68819 116.584 1.68819L116.397 1.77067L116.189 2.08281C116.12 2.18685 116.03 2.24141 115.892 2.24141C115.788 2.24141 115.664 2.20715 115.532 2.12341L114.874 1.74275C113.954 1.20984 112.867 0.947184 111.621 0.947184C109.94 0.947184 108.473 1.48772 107.219 2.5599C106.458 3.21716 105.836 4.06983 105.386 5.12806C104.921 6.17994 104.693 7.25973 104.693 8.35348C104.693 10.3595 105.302 11.9862 106.528 13.2386C107.752 14.4922 109.337 15.1152 111.296 15.1152C113.324 15.1152 115.02 14.3323 116.405 12.7754C116.938 12.1727 117.186 11.7375 117.186 11.4749C117.179 11.2871 117.11 11.2046 116.986 11.2186ZM129.221 11.3226C129.153 11.3226 128.966 11.5294 128.682 11.9316C127.734 13.2601 126.135 13.9237 123.886 13.9237C123.401 13.9237 123.076 13.8755 122.902 13.7994C122.605 13.6471 122.453 12.9493 122.453 11.7033V3.04333C122.453 2.16401 122.786 1.70723 123.471 1.65901C123.761 1.64632 123.9 1.55496 123.9 1.39636C123.9 1.20857 123.706 1.10452 123.297 1.10452C122.758 1.10452 122.225 1.12609 121.706 1.18827C120.999 1.27201 120.494 1.30627 120.176 1.30627C119.983 1.30627 119.671 1.2847 119.262 1.25044L118.834 1.21745C118.676 1.19715 118.538 1.18319 118.441 1.18319C118.315 1.16162 118.219 1.14766 118.149 1.14766C117.955 1.14766 117.852 1.25171 117.852 1.44584C117.852 1.60445 117.977 1.7085 118.233 1.74275L118.834 1.8468C119.72 1.98637 120.163 2.58781 120.163 3.64603V11.9799C120.163 12.7539 120.08 13.3147 119.922 13.6611C119.762 14.0075 119.457 14.2359 119.035 14.3539C118.862 14.4021 118.772 14.4782 118.772 14.6089C118.772 14.7828 118.861 14.8728 119.064 14.8728C119.153 14.8728 119.339 14.8589 119.616 14.8246C120.503 14.7206 121.347 14.6724 122.116 14.6724C122.579 14.6724 123.001 14.6851 123.36 14.7066L124.448 14.7548C125.125 14.7891 125.534 14.8107 125.644 14.8246C126.109 14.8589 126.42 14.8728 126.594 14.8728C127.437 14.8728 128.095 14.581 128.573 13.9935C129.126 13.321 129.403 12.575 129.403 11.7223C129.41 11.4469 129.353 11.3226 129.221 11.3226ZM137.015 9.00313H134.067C133.596 9.00313 133.354 8.8864 133.354 8.67069L133.422 8.41565L133.54 8.15935L134.703 5.49475L134.891 5.07984C135.097 4.60909 135.25 4.37309 135.326 4.37309C135.45 4.37309 135.686 4.74106 135.998 5.46684L137.299 8.51209L137.347 8.63009L137.395 8.80266C137.395 8.93462 137.271 9.00313 137.015 9.00313ZM143.451 14.3958C142.967 14.3044 142.566 14.1318 142.261 13.8755C141.949 13.6129 141.687 13.2183 141.464 12.6993L136.924 2.26933L136.683 1.73641C136.42 1.18319 136.247 0.892623 136.129 0.892623C136.059 0.892623 135.907 1.14766 135.7 1.65393V1.61841L135.215 2.55355L134.281 4.45683C134.191 4.64335 134.039 4.98975 133.817 5.4808L131.098 11.7654C130.668 12.7336 130.349 13.3642 130.129 13.6751C129.906 13.9732 129.624 14.1801 129.263 14.2981C129.077 14.3678 128.987 14.4706 128.987 14.5962C128.987 14.7548 129.075 14.8373 129.263 14.8373C129.388 14.8373 129.714 14.817 130.233 14.7548C130.938 14.6851 131.443 14.6508 131.755 14.6508C132.1 14.6508 132.495 14.699 132.931 14.7751C133.153 14.8107 133.325 14.831 133.436 14.831C133.665 14.831 133.783 14.7422 133.797 14.5683C133.809 14.4084 133.679 14.3044 133.429 14.2701C132.253 14.1318 131.678 13.6484 131.678 12.8173C131.678 12.5889 131.727 12.3669 131.817 12.1448L132.128 11.3708C132.44 10.6095 132.717 10.173 132.973 10.055L133.873 9.89641H135.222C136.538 9.89641 137.299 9.91671 137.513 9.97888C137.734 10.0347 137.928 10.2568 138.102 10.6514C138.676 11.9177 138.966 12.7336 138.966 13.1079C138.966 13.3705 138.863 13.6268 138.655 13.8692C138.447 14.1103 138.184 14.2701 137.86 14.3678C137.707 14.4161 137.638 14.4846 137.638 14.5886C137.638 14.7828 137.728 14.8805 137.914 14.8805L138.178 14.831C138.593 14.7269 139.375 14.6724 140.517 14.6724C141.659 14.6724 142.49 14.7269 142.995 14.8449C143.153 14.8792 143.285 14.9008 143.375 14.9008C143.528 14.9135 143.604 14.817 143.604 14.6368C143.632 14.5125 143.576 14.4224 143.451 14.3958ZM148.602 6.16471C147.272 5.62545 146.483 5.2321 146.226 5.00371C145.833 4.63574 145.639 4.19291 145.639 3.67395C145.639 3.12073 145.86 2.64998 146.31 2.24141C146.759 1.84046 147.278 1.63236 147.873 1.63236C148.753 1.63236 149.576 1.9648 150.352 2.64998C151.133 3.32882 151.618 4.12439 151.812 5.05827C151.868 5.31458 151.952 5.43892 152.075 5.43892C152.234 5.43892 152.331 5.30062 152.331 5.01005L152.311 4.81592L152.207 3.90234L152.082 2.92025C152.068 2.80225 152.061 2.69186 152.061 2.5599L152.082 1.75037C152.082 1.52832 152.012 1.41793 151.874 1.41793L151.716 1.45219L151.335 1.63998L151.043 1.72245C150.919 1.72245 150.712 1.66662 150.407 1.53593L149.735 1.25932C149.133 1.01697 148.524 0.898967 147.901 0.898967C146.843 0.898967 145.944 1.26693 145.23 2.00668C144.517 2.74642 144.157 3.66761 144.157 4.76009C144.157 5.70919 144.413 6.46289 144.932 7.03134C145.452 7.59851 146.421 8.20756 147.847 8.83691L149.369 9.51575C150.047 9.81266 150.524 10.1375 150.802 10.4712C151.079 10.8024 151.217 11.2452 151.217 11.7654C151.217 12.4367 150.954 13.0241 150.421 13.5291C149.888 14.0494 149.292 14.3044 148.614 14.3044C147.749 14.3044 146.912 13.9111 146.102 13.1421C145.293 12.3681 144.732 11.4051 144.399 10.2631C144.365 10.1045 144.295 10.022 144.205 10.022C143.998 10.022 143.894 10.1806 143.894 10.5042C143.894 10.7618 144.019 11.3353 144.275 12.2425C144.434 12.8313 144.538 13.2957 144.573 13.6065C144.607 13.8971 144.656 14.0697 144.697 14.1255C144.746 14.1801 144.926 14.2422 145.23 14.2981C145.451 14.3463 145.798 14.4503 146.254 14.5962C147.257 14.9071 147.985 15.0657 148.442 15.0657C149.57 15.0657 150.552 14.6368 151.389 13.7715C152.227 12.9074 152.649 11.9037 152.649 10.7402C152.649 9.68831 152.351 8.79631 151.736 8.04134C151.231 7.44625 150.179 6.81563 148.602 6.16471ZM158.643 6.16471C157.314 5.62545 156.524 5.2321 156.269 5.00371C155.875 4.63574 155.681 4.19291 155.681 3.67395C155.681 3.12073 155.903 2.64998 156.353 2.24141C156.802 1.83284 157.321 1.63236 157.916 1.63236C158.796 1.63236 159.619 1.9648 160.394 2.64998C161.176 3.32882 161.661 4.12439 161.861 5.05827C161.917 5.31458 162.001 5.43892 162.124 5.43892C162.284 5.43892 162.38 5.30062 162.38 5.01005L162.36 4.81592L162.256 3.90234L162.132 2.92025C162.118 2.80225 162.11 2.69186 162.11 2.5599L162.132 1.75037C162.132 1.52832 162.062 1.41793 161.923 1.41793L161.765 1.45219L161.384 1.63998L161.092 1.7085C160.968 1.7085 160.761 1.65393 160.457 1.52197L159.784 1.24536C159.183 1.00301 158.574 0.88501 157.951 0.88501C156.892 0.88501 155.993 1.25298 155.28 1.99272C154.567 2.73246 154.206 3.65365 154.206 4.74613C154.206 5.69523 154.463 6.4502 154.982 7.01738C155.502 7.58456 156.47 8.19361 157.896 8.82296L159.419 9.50179C160.096 9.79997 160.573 10.1235 160.851 10.4572C161.128 10.7897 161.266 11.2312 161.266 11.7515C161.266 12.4227 161.004 13.0102 160.471 13.5152C159.938 14.0354 159.341 14.2917 158.664 14.2917C157.798 14.2917 156.961 13.8971 156.151 13.1282C155.342 12.3542 154.781 11.3911 154.449 10.2491C154.414 10.0905 154.345 10.0081 154.255 10.0081C154.048 10.0081 153.944 10.1667 153.944 10.4915C153.944 10.7478 154.068 11.3226 154.324 12.2298C154.483 12.8173 154.587 13.2804 154.622 13.5926C154.657 13.8831 154.705 14.0557 154.747 14.1115C154.787 14.1661 154.975 14.2283 155.28 14.2841C155.501 14.3323 155.847 14.4364 156.304 14.5823C157.306 14.8932 158.034 15.0518 158.491 15.0518C159.619 15.0518 160.601 14.6229 161.439 13.7575C162.284 12.8934 162.699 11.8898 162.699 10.7262C162.699 9.67436 162.401 8.78235 161.785 8.02739C161.265 7.44625 160.221 6.81563 158.643 6.16471Z" fill="black"/>
</svg>
