<svg width="217" height="38" viewBox="0 0 217 38" fill="none" xmlns="http://www.w3.org/2000/svg">
<g id="Group 25">
<g id="Vector">
<path fill-rule="evenodd" clip-rule="evenodd" d="M79.2032 31.5493V25.7507H69.6482V6.70117H62.8591V31.5493H79.2032Z" fill="#3D4043"/>
<path fill-rule="evenodd" clip-rule="evenodd" d="M97.5597 13.3264H91.525V22.1613C91.525 24.9218 91.0256 26.5794 89.2617 26.5794C87.7527 26.5794 86.9984 25.7506 86.9984 23.2659V13.3264H81.2149V24.3705C81.2149 29.6157 83.2262 32.3766 86.7471 32.3766C89.0096 32.3766 90.519 31.2727 92.0276 28.784V31.5488H97.5597V13.3264Z" fill="#3D4043"/>
<path fill-rule="evenodd" clip-rule="evenodd" d="M107.366 13.3261C107.115 10.5656 107.869 10.5656 109.881 10.5656V6.14453H107.366C103.594 6.14453 101.332 6.97589 101.332 13.3261H99.32V17.4634H101.332V31.5486H107.366V17.4634H109.881V13.3261H107.366Z" fill="#3D4043"/>
<path fill-rule="evenodd" clip-rule="evenodd" d="M121.699 26.3016H120.693C119.185 26.3016 118.933 25.75 118.933 24.0934V17.4631H121.95V13.3257H118.933V7.80402H112.898V13.3257H110.886V17.4631H112.898V25.198C112.898 31.2721 113.904 32.376 121.699 31.5482V26.3016Z" fill="#3D4043"/>
<path fill-rule="evenodd" clip-rule="evenodd" d="M124.968 31.5493H130.751V22.4379C130.751 19.9528 131.254 18.5724 133.266 18.5724C135.026 18.5724 135.278 20.2297 135.278 21.8855V31.5493H141.313V20.7809C141.313 15.8119 139.553 13.051 135.529 13.051C133.518 13.051 132.009 13.8791 130.751 15.8119V6.70117H124.968V31.5493Z" fill="#3D4043"/>
<path fill-rule="evenodd" clip-rule="evenodd" d="M163.44 31.5486H169.223V22.4372C169.223 19.9521 169.726 18.5717 171.738 18.5717C173.499 18.5717 173.75 20.229 173.75 21.8849V31.5486H179.785V20.7803C179.785 15.8112 178.024 13.0504 174.001 13.0504C171.738 13.0504 170.229 14.1546 168.972 16.3632V13.3262H163.44V31.5486Z" fill="#3D4043"/>
<path fill-rule="evenodd" clip-rule="evenodd" d="M182.048 26.0265C182.551 30.7194 186.071 32.3764 189.591 32.3764C195.123 32.3764 197.638 29.6155 197.638 25.75C197.638 18.8479 188.334 20.7803 188.334 18.0198C188.334 17.1873 188.837 16.9119 189.842 16.9119C190.345 16.9119 190.846 16.8644 191.265 17.3223C191.473 17.8822 191.603 18.0198 191.603 18.5717H197.386C196.884 13.8785 192.861 13.0504 189.591 13.0504C186.573 13.0504 182.551 14.1546 182.551 18.8479C182.551 26.0265 191.603 23.5411 191.603 26.5789C191.603 27.6828 190.848 28.2315 189.842 28.2315C189.34 28.2315 188.557 27.9827 188.334 27.6828C187.968 27.192 187.831 26.5789 187.831 26.0265H182.048Z" fill="#3D4043"/>
<path fill-rule="evenodd" clip-rule="evenodd" d="M207.947 24.0889C206.69 24.3651 205.684 24.9174 205.684 26.2978C205.684 27.1259 206.187 27.6782 207.444 27.6782H207.947C209.456 27.4017 210.21 25.7455 210.21 23.2601C209.456 23.8124 208.45 24.0889 207.947 24.0889ZM207.947 31.8251C206.942 32.3771 205.936 32.3771 204.93 32.3771C201.913 32.3771 199.398 30.4443 199.398 26.5795C199.398 20.7806 204.679 21.0578 207.947 20.5051C209.204 20.2293 210.21 19.9528 210.21 18.8482C210.21 17.4642 208.953 17.188 208.199 17.188L207.947 17.1923C207.193 17.1923 205.936 17.7403 205.936 19.1247H200.153C200.153 15.5357 202.416 13.0446 207.947 13.0446L208.702 13.051C215.743 13.051 216.245 16.0873 216.245 20.5051V28.7841C216.245 29.892 216.245 30.4443 217 31.2728V31.5493H210.713L210.462 29.6162C209.707 30.7201 208.702 31.2728 207.947 31.8251Z" fill="#3D4043"/>
<path fill-rule="evenodd" clip-rule="evenodd" d="M151.873 24.1205C150.615 24.3963 149.61 24.9486 149.61 26.3287C149.61 27.1572 150.113 27.7095 151.371 27.7095H151.873C153.382 27.4333 154.136 25.7764 154.136 23.2913C153.382 23.8436 152.376 24.1205 151.873 24.1205ZM151.874 31.8244C150.867 32.3764 149.862 32.3764 148.856 32.3764C145.838 32.3764 143.324 30.444 143.324 26.5789C143.324 20.7803 148.604 21.0571 151.874 20.5045C153.13 20.2287 154.136 19.9521 154.136 18.8475C154.136 17.4635 152.879 17.1873 152.125 17.1873L151.874 17.1916C151.119 17.1916 149.862 17.7396 149.862 19.124H144.079C144.079 15.5351 146.341 13.077 151.874 13.077C152.125 13.077 152.125 13.0504 152.628 13.0504C159.669 13.0504 160.172 16.087 160.172 20.5045V28.7834C160.172 29.8913 160.172 30.444 160.926 31.2721V31.5486H154.639L154.388 29.6155C153.633 30.7194 152.628 31.2721 151.874 31.8244Z" fill="#3D4043"/>
</g>
<g id="Vector_2">
<path fill-rule="evenodd" clip-rule="evenodd" d="M0.346436 19.0003C0.346436 8.50702 8.85261 0.000488281 19.3463 0.000488281C29.8392 0.000488281 38.3457 8.50702 38.3457 19.0003C38.3457 29.4936 29.8392 38.0005 19.3463 38.0005C8.85261 38.0005 0.346436 29.4936 0.346436 19.0003ZM3.09137 19.0007C3.09137 27.9781 10.3691 35.2551 19.3462 35.2551C28.3233 35.2551 35.6006 27.9781 35.6006 19.0007C35.6006 10.0235 28.3233 2.74658 19.3462 2.74658C10.3691 2.74658 3.09137 10.0235 3.09137 19.0007Z" fill="url(#paint0_linear_185_3313)"/>
<path fill-rule="evenodd" clip-rule="evenodd" d="M34.4152 14.4914C31.5661 14.0363 26.2381 13.6719 22.068 14.3549C21.6658 14.4208 20.77 19.6145 15.9392 19.2541C12.8882 19.0262 10.676 17.1136 10.676 17.1136L14.8008 18.7072L15.1651 18.161L7.14718 14.7279L6.80729 15.542L4.16453 14.8104L3.89125 15.7213C3.89125 15.7213 6.71404 16.5671 8.62734 17.9792C10.5392 19.3906 16.5121 23.0598 18.4707 23.9704C20.4283 24.8817 25.3725 26.9757 29.426 27.2036C29.471 27.2065 30.6095 25.3368 30.6095 25.3368C30.6095 25.3368 27.6495 25.7469 26.2381 25.1542C25.3815 24.7956 22.2498 23.6517 21.5211 21.8497C21.5042 21.8072 22.4853 20.6867 25.0272 20.21C28.6709 19.5267 31.5902 19.9807 31.5902 19.9807L32.0882 19.0309C32.0882 19.0309 29.4433 18.8955 28.4938 18.8955C27.499 18.8955 24.5963 19.0309 24.5963 19.0309L24.8217 18.466C24.8217 18.466 26.9567 18.2622 28.6303 18.2852C29.8732 18.3021 32.3694 18.4436 32.3694 18.4436L32.8666 17.5165C32.8666 17.5165 29.8951 17.3127 28.7883 17.3358C27.7928 17.3563 25.2163 17.5165 25.2163 17.5165L25.487 16.9062C25.487 16.9062 27.5217 16.7255 28.8553 16.7255C30.3477 16.7255 33.0924 16.9516 33.0924 16.9516L33.6353 15.9921C33.6353 15.9921 30.5734 15.7206 28.833 15.7659C27.7409 15.794 25.8489 15.924 25.8489 15.924L26.075 15.3134C29.0134 14.7942 33.9143 15.448 33.9143 15.448L34.4152 14.4914Z" fill="url(#paint1_linear_185_3313)"/>
</g>
</g>
<defs>
<linearGradient id="paint0_linear_185_3313" x1="-0.0334635" y1="38.2007" x2="40.5868" y2="1.88209" gradientUnits="userSpaceOnUse">
<stop offset="0.161458" stop-color="#AC883B"/>
<stop offset="0.609375" stop-color="#E2CD83"/>
<stop offset="1" stop-color="#E7E5AA"/>
</linearGradient>
<linearGradient id="paint1_linear_185_3313" x1="-0.0334635" y1="38.2007" x2="40.5868" y2="1.88209" gradientUnits="userSpaceOnUse">
<stop offset="0.161458" stop-color="#AC883B"/>
<stop offset="0.609375" stop-color="#E2CD83"/>
<stop offset="1" stop-color="#E7E5AA"/>
</linearGradient>
</defs>
</svg>
