<svg width="21" height="19" viewBox="0 0 21 19" fill="none" xmlns="http://www.w3.org/2000/svg">
<path d="M4.5 16L2.2 18.3C1.88333 18.6167 1.52083 18.6875 1.1125 18.5125C0.704167 18.3375 0.5 18.025 0.5 17.575V2C0.5 1.45 0.695833 0.979167 1.0875 0.5875C1.47917 0.195833 1.95 0 2.5 0H18.5C19.05 0 19.5208 0.195833 19.9125 0.5875C20.3042 0.979167 20.5 1.45 20.5 2V14C20.5 14.55 20.3042 15.0208 19.9125 15.4125C19.5208 15.8042 19.05 16 18.5 16H4.5ZM5.5 12H11.5C11.7833 12 12.0208 11.9042 12.2125 11.7125C12.4042 11.5208 12.5 11.2833 12.5 11C12.5 10.7167 12.4042 10.4792 12.2125 10.2875C12.0208 10.0958 11.7833 10 11.5 10H5.5C5.21667 10 4.97917 10.0958 4.7875 10.2875C4.59583 10.4792 4.5 10.7167 4.5 11C4.5 11.2833 4.59583 11.5208 4.7875 11.7125C4.97917 11.9042 5.21667 12 5.5 12ZM5.5 9H15.5C15.7833 9 16.0208 8.90417 16.2125 8.7125C16.4042 8.52083 16.5 8.28333 16.5 8C16.5 7.71667 16.4042 7.47917 16.2125 7.2875C16.0208 7.09583 15.7833 7 15.5 7H5.5C5.21667 7 4.97917 7.09583 4.7875 7.2875C4.59583 7.47917 4.5 7.71667 4.5 8C4.5 8.28333 4.59583 8.52083 4.7875 8.7125C4.97917 8.90417 5.21667 9 5.5 9ZM5.5 6H15.5C15.7833 6 16.0208 5.90417 16.2125 5.7125C16.4042 5.52083 16.5 5.28333 16.5 5C16.5 4.71667 16.4042 4.47917 16.2125 4.2875C16.0208 4.09583 15.7833 4 15.5 4H5.5C5.21667 4 4.97917 4.09583 4.7875 4.2875C4.59583 4.47917 4.5 4.71667 4.5 5C4.5 5.28333 4.59583 5.52083 4.7875 5.7125C4.97917 5.90417 5.21667 6 5.5 6Z" fill="#EC7F00"/>
<path d="M4.5 16L2.2 18.3C1.88333 18.6167 1.52083 18.6875 1.1125 18.5125C0.704167 18.3375 0.5 18.025 0.5 17.575V2C0.5 1.45 0.695833 0.979167 1.0875 0.5875C1.47917 0.195833 1.95 0 2.5 0H18.5C19.05 0 19.5208 0.195833 19.9125 0.5875C20.3042 0.979167 20.5 1.45 20.5 2V14C20.5 14.55 20.3042 15.0208 19.9125 15.4125C19.5208 15.8042 19.05 16 18.5 16H4.5ZM5.5 12H11.5C11.7833 12 12.0208 11.9042 12.2125 11.7125C12.4042 11.5208 12.5 11.2833 12.5 11C12.5 10.7167 12.4042 10.4792 12.2125 10.2875C12.0208 10.0958 11.7833 10 11.5 10H5.5C5.21667 10 4.97917 10.0958 4.7875 10.2875C4.59583 10.4792 4.5 10.7167 4.5 11C4.5 11.2833 4.59583 11.5208 4.7875 11.7125C4.97917 11.9042 5.21667 12 5.5 12ZM5.5 9H15.5C15.7833 9 16.0208 8.90417 16.2125 8.7125C16.4042 8.52083 16.5 8.28333 16.5 8C16.5 7.71667 16.4042 7.47917 16.2125 7.2875C16.0208 7.09583 15.7833 7 15.5 7H5.5C5.21667 7 4.97917 7.09583 4.7875 7.2875C4.59583 7.47917 4.5 7.71667 4.5 8C4.5 8.28333 4.59583 8.52083 4.7875 8.7125C4.97917 8.90417 5.21667 9 5.5 9ZM5.5 6H15.5C15.7833 6 16.0208 5.90417 16.2125 5.7125C16.4042 5.52083 16.5 5.28333 16.5 5C16.5 4.71667 16.4042 4.47917 16.2125 4.2875C16.0208 4.09583 15.7833 4 15.5 4H5.5C5.21667 4 4.97917 4.09583 4.7875 4.2875C4.59583 4.47917 4.5 4.71667 4.5 5C4.5 5.28333 4.59583 5.52083 4.7875 5.7125C4.97917 5.90417 5.21667 6 5.5 6Z" fill="#908271"/>
<path d="M4.5 16L2.2 18.3C1.88333 18.6167 1.52083 18.6875 1.1125 18.5125C0.704167 18.3375 0.5 18.025 0.5 17.575V2C0.5 1.45 0.695833 0.979167 1.0875 0.5875C1.47917 0.195833 1.95 0 2.5 0H18.5C19.05 0 19.5208 0.195833 19.9125 0.5875C20.3042 0.979167 20.5 1.45 20.5 2V14C20.5 14.55 20.3042 15.0208 19.9125 15.4125C19.5208 15.8042 19.05 16 18.5 16H4.5ZM5.5 12H11.5C11.7833 12 12.0208 11.9042 12.2125 11.7125C12.4042 11.5208 12.5 11.2833 12.5 11C12.5 10.7167 12.4042 10.4792 12.2125 10.2875C12.0208 10.0958 11.7833 10 11.5 10H5.5C5.21667 10 4.97917 10.0958 4.7875 10.2875C4.59583 10.4792 4.5 10.7167 4.5 11C4.5 11.2833 4.59583 11.5208 4.7875 11.7125C4.97917 11.9042 5.21667 12 5.5 12ZM5.5 9H15.5C15.7833 9 16.0208 8.90417 16.2125 8.7125C16.4042 8.52083 16.5 8.28333 16.5 8C16.5 7.71667 16.4042 7.47917 16.2125 7.2875C16.0208 7.09583 15.7833 7 15.5 7H5.5C5.21667 7 4.97917 7.09583 4.7875 7.2875C4.59583 7.47917 4.5 7.71667 4.5 8C4.5 8.28333 4.59583 8.52083 4.7875 8.7125C4.97917 8.90417 5.21667 9 5.5 9ZM5.5 6H15.5C15.7833 6 16.0208 5.90417 16.2125 5.7125C16.4042 5.52083 16.5 5.28333 16.5 5C16.5 4.71667 16.4042 4.47917 16.2125 4.2875C16.0208 4.09583 15.7833 4 15.5 4H5.5C5.21667 4 4.97917 4.09583 4.7875 4.2875C4.59583 4.47917 4.5 4.71667 4.5 5C4.5 5.28333 4.59583 5.52083 4.7875 5.7125C4.97917 5.90417 5.21667 6 5.5 6Z" fill="url(#paint0_linear_2020_3548)"/>
<defs>
<linearGradient id="paint0_linear_2020_3548" x1="0.300049" y1="18.704" x2="20.2979" y2="-0.516216" gradientUnits="userSpaceOnUse">
<stop offset="0.161458" stop-color="#AC883B"/>
<stop offset="0.609375" stop-color="#E2CD83"/>
<stop offset="0.817708" stop-color="#EFEDB5"/>
</linearGradient>
</defs>
</svg>
