<svg width="215" height="52" viewBox="0 0 215 52" fill="none" xmlns="http://www.w3.org/2000/svg">
<path d="M93.7736 7.06828L67.0977 5.02312L68.5564 6.75285L94.6149 8.75303L93.7736 7.06828Z" fill="url(#paint0_linear_1866_15676)"/>
<path d="M82.7959 8.45329L69.2344 7.37047L72.4807 11.3687L85.3536 11.7896L82.7959 8.45329Z" fill="url(#paint1_linear_1866_15676)"/>
<path d="M83.7583 8.54271L86.2238 11.7896L92.0283 11.9417L89.7122 9.02414L83.7583 8.54271Z" fill="url(#paint2_linear_1866_15676)"/>
<path d="M85.8929 12.3914L73.0538 12.152L76.1796 15.8797H88.571L85.8929 12.3914Z" fill="url(#paint3_linear_1866_15676)"/>
<path d="M95.1273 15.7298L92.6591 12.5413H86.8573L89.3833 15.7298H95.1273Z" fill="url(#paint4_linear_1866_15676)"/>
<path d="M89.0814 16.5711H76.7526L80.4198 20.8718L90.0142 17.8644L89.0814 16.5711Z" fill="url(#paint5_linear_1866_15676)"/>
<path d="M97.9822 19.5493L98.8551 17.5936L95.8792 16.4524H90.0142L92.0283 19.2494L97.9822 19.5493Z" fill="url(#paint6_linear_1866_15676)"/>
<path d="M95.1273 9.41562L90.735 9.14465L95.9975 15.7299L98.8551 16.7817L95.1273 9.41562Z" fill="url(#paint7_linear_1866_15676)"/>
<path d="M96.9599 24L100.931 20.5116L99.5175 17.7462L96.9599 24Z" fill="url(#paint8_linear_1866_15676)"/>
<path d="M95.7582 20.0012L93.5631 23.4896L96.3601 24L97.7723 20.1512L95.7582 20.0012Z" fill="url(#paint9_linear_1866_15676)"/>
<path d="M92.7801 20.0012L88.5709 22.6462L92.7801 23.3691L94.7958 20.1801L92.7801 20.0012Z" fill="url(#paint10_linear_1866_15676)"/>
<path d="M90.735 18.4663L80.8562 21.5049L87.5486 22.6171L91.6834 19.8201L90.735 18.4663Z" fill="url(#paint11_linear_1866_15676)"/>
<path d="M120.539 7.06828L119.695 8.75303L145.754 6.75285L147.213 5.02312L120.539 7.06828Z" fill="url(#paint12_linear_1866_15676)"/>
<path d="M128.959 11.7896L141.83 11.3687L145.079 7.37047L131.514 8.45329L128.959 11.7896Z" fill="url(#paint13_linear_1866_15676)"/>
<path d="M130.552 8.54271L124.598 9.02414L122.282 11.9417L128.087 11.7896L130.552 8.54271Z" fill="url(#paint14_linear_1866_15676)"/>
<path d="M125.742 15.8797H138.131L141.259 12.152L128.418 12.3914L125.742 15.8797Z" fill="url(#paint15_linear_1866_15676)"/>
<path d="M127.455 12.5413H121.651L119.186 15.7298H124.929L127.455 12.5413Z" fill="url(#paint16_linear_1866_15676)"/>
<path d="M124.298 17.8644L133.89 20.8718L137.56 16.5711H125.229L124.298 17.8644Z" fill="url(#paint17_linear_1866_15676)"/>
<path d="M115.455 17.5936L116.328 19.5493L122.282 19.2494L124.298 16.4524H118.434L115.455 17.5936Z" fill="url(#paint18_linear_1866_15676)"/>
<path d="M115.455 16.7817L118.313 15.7299L123.575 9.14465L119.186 9.41562L115.455 16.7817Z" fill="url(#paint19_linear_1866_15676)"/>
<path d="M113.381 20.5116L117.35 24L114.793 17.7462L113.381 20.5116Z" fill="url(#paint20_linear_1866_15676)"/>
<path d="M116.539 20.1512L117.952 24L120.749 23.4896L118.552 20.0012L116.539 20.1512Z" fill="url(#paint21_linear_1866_15676)"/>
<path d="M119.517 20.1801L121.53 23.3691L125.741 22.6462L121.53 20.0012L119.517 20.1801Z" fill="url(#paint22_linear_1866_15676)"/>
<path d="M122.629 19.8201L126.764 22.6171L133.454 21.5049L123.575 18.4663L122.629 19.8201Z" fill="url(#paint23_linear_1866_15676)"/>
<path d="M119.787 7.02818L112.29 8.9523L109.985 15.3673L108.542 13.2327L111.669 7.78861L107.159 0L102.648 7.78861L105.776 13.2327L104.333 15.3673L102.029 8.95177L94.5303 7.02818L101.385 19.8394H112.936L119.787 7.02818ZM100.278 14.7274L97.2711 9.14456L100.578 9.97729L100.278 14.7274ZM108.318 4.60227L110.181 7.94981L108.318 11.277V4.60227ZM104.129 7.95195L105.993 4.60494V11.2813L104.129 7.95195ZM117.04 9.14509L114.032 14.7279L113.732 9.97515L117.04 9.14509Z" fill="url(#paint24_linear_1866_15676)"/>
<path d="M119.696 8.75304L145.754 6.75287L147.213 5.02528L120.539 7.07043L119.696 8.75304Z" fill="url(#paint25_linear_1866_15676)"/>
<path d="M128.959 11.7916L141.83 11.3712L145.079 7.37047L131.514 8.45329L128.959 11.7916Z" fill="url(#paint26_linear_1866_15676)"/>
<path d="M124.598 9.02414L122.283 11.9415L128.087 11.7916L130.553 8.54258L124.598 9.02414Z" fill="url(#paint27_linear_1866_15676)"/>
<path d="M141.259 12.152L128.418 12.3935L126.057 15.4701C126.272 15.6066 126.487 15.7432 126.702 15.8819H138.131L141.259 12.152L141.259 12.152Z" fill="url(#paint28_linear_1866_15676)"/>
<path d="M121.652 12.5435L121.506 12.7314C122.775 13.4517 124.088 14.2352 125.444 15.0829L127.456 12.5435H121.652Z" fill="url(#paint29_linear_1866_15676)"/>
<path d="M127.767 16.5733C129.729 17.8622 131.776 19.2851 133.909 20.8537L137.56 16.5733H127.767Z" fill="url(#paint30_linear_1866_15676)"/>
<path d="M119.186 9.41562L118.372 11.0242C119.212 11.4628 120.074 11.9281 120.958 12.4224L123.576 9.14504L119.186 9.41562Z" fill="url(#paint31_linear_1866_15676)"/>
<path d="M113.444 8.65664C114.084 8.93672 114.74 9.23661 115.411 9.55418L117.038 9.1445L116.527 10.0913C116.946 10.2969 117.371 10.5095 117.803 10.7313L119.783 7.03027L113.444 8.65664Z" fill="url(#paint32_linear_1866_15676)"/>
<path d="M105.993 4.60489V5.91799C106.736 6.13488 107.51 6.37854 108.318 6.65433V4.60489L109.741 7.15986C110.347 7.38371 110.972 7.62577 111.614 7.88496L111.668 7.79071L107.157 0.00209188L104.035 5.38997C104.465 5.49493 104.905 5.61167 105.362 5.73698L105.993 4.60489Z" fill="url(#paint33_linear_1866_15676)"/>
<path fill-rule="evenodd" clip-rule="evenodd" d="M6.64467 50.4496C7.0379 50.7818 7.54507 50.9584 8.17744 50.9584C8.58029 50.9584 8.79697 51.0884 8.78894 51.3516C8.78894 51.5971 8.52573 51.7288 7.97521 51.7288C7.73767 51.7288 7.40544 51.7015 6.96728 51.6581C5.87428 51.5265 4.98029 51.4655 4.29817 51.4655C3.45716 51.4655 2.78306 51.5089 2.30156 51.5971C1.88105 51.6662 1.59215 51.7111 1.39955 51.7111C1.22621 51.7111 1.093 51.6068 1.04967 51.4302L1.02238 51.3259L1.39153 51.037C2.00464 50.8171 2.39786 50.5555 2.60009 50.2313C2.78306 49.9071 2.88899 49.3823 2.88899 48.6552L2.90504 47.5349V37.4925C2.90504 36.7221 2.75738 36.1796 2.49416 35.8473C2.23094 35.5151 1.74142 35.3033 1.02399 35.1909C0.585822 35.1203 0.304949 35.0513 0.192599 34.9887L0 34.6661C0 34.4205 0.104325 34.2985 0.304949 34.3146C0.463843 34.3322 0.682122 34.3595 0.988676 34.4189C1.29523 34.4975 1.80241 34.5232 2.52144 34.5232C2.98529 34.5232 3.57111 34.4975 4.27089 34.4542L5.19055 34.3836C6.06687 34.3049 6.72171 34.2793 7.18716 34.2793C7.4584 34.2793 7.60767 34.3836 7.60767 34.5858L7.54507 34.8908C7.50174 34.9357 7.39741 34.979 7.22247 34.979C6.62702 35.0753 6.23379 35.2503 6.05724 35.4862C5.8823 35.7238 5.79403 36.2053 5.79403 36.9307V47.6761L5.89996 48.9441C6.00428 49.6005 6.24984 50.0997 6.64467 50.4496ZM25.8767 35.4664C25.888 35.6386 25.8951 35.748 25.9046 35.7944L26.0169 36.7317C26.0442 36.9243 26.0619 37.0992 26.0619 37.2309C26.0619 37.913 25.9046 38.2629 25.5804 38.2629C25.4054 38.2629 25.3172 38.1505 25.3172 37.913V37.4925C25.3172 37.3352 25.2995 37.1875 25.2562 37.0559C24.9063 35.9436 23.8021 35.3915 21.921 35.3915L20.2743 35.3755L19.7494 35.3915C19.2679 35.3915 18.9357 35.4975 18.7431 35.6708C18.5505 35.8473 18.4622 36.1619 18.4622 36.6177V40.6527C18.4622 41.1181 18.5425 41.4408 18.6548 41.5996C18.7784 41.7473 19.0224 41.834 19.3723 41.834L19.8538 41.8179L21.2292 41.8003C21.86 41.8003 22.3239 41.651 22.6465 41.3894C22.9626 41.1262 23.2868 40.5997 23.5934 39.8133C23.672 39.6287 23.7683 39.5244 23.8727 39.5244C24.1182 39.5244 24.2498 39.6287 24.2498 39.8486C24.2498 39.9176 24.2402 40.0235 24.2226 40.1808L24.2049 40.5741C24.2049 41.0732 24.2322 41.6414 24.2755 42.2994L24.4681 44.6716C24.4726 44.7907 24.4786 44.8927 24.4836 44.9792C24.4893 45.0768 24.4938 45.1545 24.4938 45.2141C24.4938 45.3906 24.3975 45.4869 24.1616 45.503C24.0043 45.5206 23.8984 45.4067 23.8566 45.1708C23.6801 44.296 23.3912 43.699 23.006 43.394C22.6208 43.0875 21.929 42.9382 20.9403 42.9382C19.6708 42.9382 18.9357 43.0169 18.7527 43.1741C18.5682 43.333 18.4638 43.9445 18.4638 44.9958L18.4799 46.0021V47.4916C18.4799 48.7595 18.6982 49.6792 19.1363 50.249C19.4605 50.6695 20.0993 50.9231 21.0623 50.9921C21.3432 51.0194 21.4748 51.1413 21.4748 51.3436C21.4748 51.5795 21.3865 51.6934 21.1939 51.6934C21.0366 51.6934 20.7911 51.6758 20.4669 51.6325C20.1603 51.6052 19.5488 51.5875 18.6292 51.5875H17.228C16.5796 51.5875 16.0467 51.6148 15.5909 51.6758C14.9778 51.7625 14.5493 51.8074 14.3486 51.8074C14.0758 51.8074 13.9281 51.6934 13.9281 51.4752C13.9281 51.3082 14.0421 51.1766 14.278 51.106C14.7772 50.9311 15.1271 50.6422 15.302 50.2313C15.477 49.8284 15.5652 49.111 15.5652 48.1047V37.7204C15.5652 36.6611 15.3823 35.979 15.0131 35.6547C14.6022 35.2872 13.9795 35.085 13.1754 35.0416C12.9475 35.024 12.8416 34.9277 12.8416 34.7351C12.8416 34.4911 12.9732 34.3595 13.2621 34.3595C13.3359 34.3595 13.5019 34.3719 13.758 34.3909C13.8081 34.3947 13.8616 34.3987 13.9185 34.4029C14.4273 34.4478 14.9521 34.4638 15.5203 34.4638L17.7095 34.4462L21.0366 34.4285C22.1746 34.4285 23.3382 34.3852 24.5211 34.2809C24.9576 34.2359 25.2995 34.2183 25.5017 34.2183C25.6847 34.2183 25.8083 34.4382 25.834 34.8763C25.8541 35.1202 25.867 35.3169 25.8767 35.4664ZM40.2966 47.9731C40.6545 47.4643 40.892 47.2027 40.9787 47.2027C41.1199 47.2027 41.2066 47.36 41.2066 47.7082C41.2066 48.7868 40.8567 49.7305 40.1569 50.5812C39.5519 51.3243 38.7205 51.6934 37.6531 51.6934C37.4333 51.6934 37.04 51.6758 36.4526 51.6325C36.313 51.6148 35.7962 51.5875 34.9391 51.5442L33.5636 51.4832C33.1094 51.4559 32.5749 51.4399 31.9891 51.4399C31.0165 51.4399 29.9492 51.5008 28.8273 51.6325C28.4774 51.6758 28.2399 51.6934 28.1275 51.6934C27.8723 51.6934 27.76 51.5795 27.76 51.3596C27.76 51.1943 27.8739 51.098 28.0922 51.037C28.6267 50.8877 29.0119 50.5988 29.2141 50.1607C29.4147 49.7225 29.519 49.0131 29.519 48.0341V37.4925C29.519 36.1539 28.9589 35.3931 27.8386 35.2166L27.0762 35.085C26.7536 35.0416 26.5947 34.91 26.5947 34.7094C26.5947 34.4638 26.7263 34.3322 26.9719 34.3322C27.0602 34.3322 27.1806 34.3499 27.3411 34.3772C27.4614 34.3772 27.638 34.3948 27.8386 34.4205L28.3811 34.4622C28.8979 34.5056 29.2911 34.5329 29.5367 34.5329C29.9395 34.5329 30.5783 34.4895 31.4723 34.3836C32.1288 34.3049 32.8029 34.2777 33.485 34.2777C34.0018 34.2777 34.2473 34.4093 34.2473 34.6468C34.2473 34.8474 34.0724 34.963 33.7049 34.979C32.8382 35.04 32.4177 35.6178 32.4177 36.7301V47.6842C32.4177 49.2603 32.6103 50.143 32.9858 50.3356C33.2057 50.4319 33.6166 50.4929 34.2297 50.4929C37.0753 50.4929 39.0976 49.6535 40.2966 47.9731ZM54.5419 34.3181C54.7844 34.309 55.063 34.2985 55.3803 34.2985C55.5986 34.2985 55.7125 34.3948 55.7655 34.5248C55.7655 34.7078 55.6162 34.8314 55.3097 34.9004C54.6805 35.0513 54.1717 35.3402 53.7785 35.751C53.3837 36.1619 52.8845 36.942 52.2907 38.0975C51.2314 40.1728 50.2411 41.9062 49.3487 43.3058C49.1738 43.5674 49.0679 43.7792 49.0245 43.9365C48.9796 44.0938 48.9635 44.3827 48.9635 44.7952V48.5156L49.0245 49.3726C49.1738 50.3276 49.9955 50.8348 51.546 50.9214C51.8252 50.9584 51.9568 51.0707 51.9568 51.2906C51.9568 51.5362 51.7642 51.6662 51.3887 51.6662C51.1865 51.6662 50.9682 51.6485 50.7322 51.6228L48.9362 51.4655C48.6217 51.4206 48.1241 51.4045 47.4661 51.4045C45.9076 51.4045 44.858 51.4655 44.3315 51.5522C43.9816 51.6148 43.728 51.6405 43.5708 51.6405C43.3862 51.6405 43.2819 51.5008 43.2819 51.22C43.2819 51.0707 43.3958 50.9664 43.6317 50.9407C44.5594 50.7995 45.2078 50.4929 45.5417 50.0387C45.8819 49.5909 46.0392 48.7868 46.0392 47.6649V45.2574C46.0392 44.7069 45.8563 44.1211 45.4871 43.508C45.0506 42.7986 44.5514 41.9222 44.0266 40.9159L42.1006 37.3175C41.3302 35.873 40.4282 35.1026 39.4042 34.9983C39.0976 34.963 38.9387 34.849 38.9387 34.6308C38.9387 34.3675 39.0527 34.2359 39.2902 34.2359C39.4989 34.2359 39.8151 34.2632 40.2693 34.3066C41.1729 34.4109 41.9866 34.4542 42.7297 34.4542C43.4135 34.4542 44.1132 34.4109 44.813 34.3419C45.3395 34.2985 45.6877 34.2712 45.8643 34.2712C46.2142 34.2712 46.3891 34.3772 46.3891 34.5955C46.3891 34.7881 46.2575 34.902 45.9686 34.963C45.3122 35.0946 44.988 35.3739 44.988 35.812C44.988 36.1619 45.2945 36.9323 45.9076 38.1313L46.8979 40.0412C47.3088 40.8196 47.5543 41.3011 47.641 41.5033C47.9219 42.1068 48.2108 42.3957 48.4724 42.3957C48.7356 42.3957 49.0855 41.9672 49.5221 41.1085C49.5807 41.0134 49.6725 40.8449 49.8015 40.6082C49.9445 40.346 50.1331 40 50.3727 39.5774C51.2908 37.9033 51.7562 36.8633 51.7562 36.4428C51.7562 36.0929 51.554 35.7591 51.1431 35.4541C50.7322 35.1476 50.2507 34.955 49.7243 34.91C49.445 34.8844 49.3134 34.78 49.3134 34.6035C49.3134 34.3419 49.4274 34.2103 49.6457 34.2103C49.8752 34.2103 50.0918 34.2263 50.2844 34.2552L51.1174 34.3675C51.4497 34.4125 51.8782 34.4285 52.387 34.4285C52.6663 34.4285 52.9728 34.4109 53.305 34.3852L54.374 34.3242C54.4279 34.3223 54.4838 34.3203 54.5419 34.3181ZM72.3298 35.4899C72.34 35.6486 72.3465 35.7501 72.3547 35.7944L72.3531 35.7976L72.4847 36.7606C72.512 36.9532 72.528 37.1265 72.528 37.2581C72.528 37.9419 72.3708 38.2918 72.0465 38.2918C71.8716 38.2918 71.7849 38.1778 71.7849 37.9419V37.5214C71.7849 37.3641 71.7673 37.2148 71.7239 37.0832C71.3725 35.9709 70.2698 35.4188 68.3872 35.4188L66.742 35.4028L66.2172 35.4204C65.7357 35.4204 65.4019 35.5247 65.2093 35.6997C65.0167 35.8746 64.93 36.1908 64.93 36.645V40.6784C64.93 41.1438 65.0087 41.468 65.1226 41.6253C65.2462 41.7746 65.4902 41.8613 65.84 41.8613L66.3215 41.8436L67.697 41.8259C68.3278 41.8259 68.79 41.6783 69.1142 41.4151C69.4304 41.1519 69.7546 40.627 70.0596 39.839C70.1382 39.656 70.2345 39.5501 70.3404 39.5501C70.586 39.5501 70.716 39.656 70.716 39.8743C70.716 39.9449 70.7064 40.0492 70.6903 40.2065L70.6727 40.6013C70.6727 41.1005 70.6983 41.6687 70.7433 42.3251L70.9359 44.6989C70.9404 44.8177 70.9463 44.9192 70.9513 45.0053C70.957 45.103 70.9616 45.1808 70.9616 45.2414C70.9616 45.4163 70.8653 45.5126 70.6277 45.5303C70.472 45.5479 70.3661 45.434 70.3228 45.1964C70.1478 44.3217 69.8589 43.7263 69.4737 43.4197C69.0885 43.1132 68.3968 42.9655 67.4081 42.9655C66.1386 42.9655 65.4115 43.0441 65.2189 43.2014C65.0343 43.3587 64.93 43.9718 64.93 45.0215L64.9461 46.0294V47.5173C64.9461 48.7868 65.1659 49.7065 65.6041 50.2746C65.9283 50.6951 66.5671 50.9487 67.5301 51.0194C67.8094 51.045 67.941 51.167 67.941 51.3692C67.941 51.6068 67.8543 51.7191 67.6617 51.7191C67.5044 51.7191 67.2589 51.7015 66.9346 51.6581C66.6281 51.6309 66.015 51.6148 65.0969 51.6148H63.6958C63.0473 51.6148 62.5129 51.6405 62.0587 51.7015C61.4456 51.7897 61.017 51.8331 60.8148 51.8331C60.5436 51.8331 60.3943 51.7191 60.3943 51.5008C60.3943 51.3339 60.5082 51.2023 60.7458 51.1333C61.2449 50.9584 61.5932 50.6695 61.7698 50.257C61.9447 49.8541 62.0314 49.1367 62.0314 48.1304V37.7477C62.0314 36.6884 61.8484 36.0046 61.4809 35.6804C61.07 35.3129 60.4473 35.1123 59.6416 35.0673C59.4152 35.0513 59.3109 34.955 59.3109 34.7624C59.3109 34.5168 59.4393 34.3852 59.7282 34.3852C59.8015 34.3852 59.9653 34.3974 60.2189 34.4162C60.2709 34.42 60.3267 34.4242 60.3863 34.4285C60.8934 34.4735 61.4199 34.4911 61.9881 34.4911L64.1596 34.4462L67.4884 34.4285C68.6263 34.4285 69.7899 34.3852 70.9728 34.2809C71.4094 34.2359 71.7512 34.2183 71.9519 34.2183C72.1364 34.2183 72.2584 34.4382 72.2857 34.8763C72.3069 35.1332 72.32 35.3378 72.3298 35.4899ZM79.7088 50.4496C80.102 50.7818 80.6108 50.9584 81.2416 50.9584C81.6524 50.9584 81.8547 51.0884 81.8547 51.3596C81.8547 51.6052 81.5914 51.7368 81.0393 51.7368C80.8034 51.7368 80.4712 51.7111 80.033 51.6662C78.9384 51.5362 78.046 51.4736 77.3623 51.4736C76.5229 51.4736 75.8488 51.5185 75.3673 51.6068C74.9468 51.6758 74.6579 51.7191 74.4653 51.7191C74.2903 51.7191 74.1587 51.6148 74.1154 51.4399L74.0881 51.3339L74.4556 51.045C75.0687 50.8268 75.4636 50.5635 75.6658 50.2393C75.8488 49.9151 75.9547 49.3903 75.9547 48.6632L75.9708 47.5429V37.5021C75.9708 36.7317 75.8215 36.1892 75.5599 35.857C75.2967 35.5231 74.8071 35.3129 74.0881 35.1989C73.6515 35.1299 73.3707 35.0593 73.2583 34.9983L73.0657 34.6741C73.0657 34.4285 73.17 34.3066 73.3707 34.3242C73.528 34.3419 73.7478 34.3675 74.0544 34.4285C74.3593 34.5072 74.8681 34.5345 75.5872 34.5345C76.0494 34.5345 76.6368 34.5072 77.3366 34.4462L78.2563 34.3772C79.131 34.2985 79.7874 34.2712 80.2513 34.2712C80.5225 34.2712 80.6718 34.3772 80.6718 34.5794L80.6108 34.8844C80.5675 34.9373 80.4631 34.9726 80.2866 34.9983C79.6911 35.0946 79.2979 35.2695 79.123 35.5055C78.948 35.743 78.8597 36.2245 78.8597 36.95V47.6922L78.9657 48.9617C79.07 49.6005 79.3156 50.0997 79.7088 50.4496ZM89.1895 42.4487C90.6869 42.4487 91.605 42.4214 91.9741 42.3604C92.324 42.2994 92.6563 42.1421 92.9981 41.8259C93.6112 41.2738 93.9178 40.5034 93.9178 39.5244C93.9178 38.2548 93.4973 37.2036 92.6659 36.3722C91.8329 35.5408 90.7929 35.1299 89.5057 35.1299C88.9359 35.1299 88.5427 35.2615 88.3228 35.4959C88.1045 35.751 88.0002 36.1892 88.0002 36.828V41.2048C88.0002 41.7473 88.0515 42.0811 88.2008 42.2288C88.3324 42.3781 88.6646 42.4487 89.1895 42.4487ZM99.6861 50.1254L99.967 50.082C100.107 50.082 100.195 50.188 100.256 50.4062C100.256 50.6518 99.906 50.9327 99.2223 51.2376C98.5225 51.5442 97.9271 51.7015 97.3846 51.7015C96.5259 51.7015 95.7218 51.2649 94.9947 50.4143C94.2597 49.5749 93.3143 47.9554 92.1507 45.5913C91.7013 44.6636 91.3161 44.0585 91.0272 43.8145C90.7383 43.569 90.2568 43.4374 89.5827 43.4374H88.7963L88.2265 43.5433C88.0965 43.6123 88.0339 43.8226 88.0339 44.1548V46.7212C88.0339 48.323 88.1848 49.3999 88.4737 49.9697C88.7786 50.5379 89.3484 50.8621 90.2231 50.9487C90.573 50.984 90.7479 51.1157 90.7479 51.3596C90.7479 51.6148 90.6179 51.7288 90.329 51.7288C90.2231 51.7288 90.0481 51.7111 89.8042 51.6838C89.0771 51.6228 88.3757 51.5971 87.7017 51.5971C87.1335 51.5971 86.6343 51.6148 86.1962 51.6405L85.1288 51.7448L84.2782 51.8154C84.1623 51.8202 84.0611 51.8264 83.9779 51.8316C83.8917 51.837 83.8248 51.8411 83.7807 51.8411C83.4741 51.8411 83.3248 51.7288 83.3248 51.4928C83.3248 51.3002 83.3939 51.1847 83.5704 51.1237C84.1386 50.9487 84.5334 50.6951 84.7517 50.4062C84.97 50.0997 85.0855 49.6439 85.0855 49.0324V47.8318L85.1016 47.3343V38.2019C85.1016 37.2036 84.97 36.5295 84.726 36.1796C84.3055 35.6114 83.6394 35.2695 82.7037 35.1556C82.3538 35.0946 82.1773 34.955 82.1773 34.719C82.1773 34.4638 82.2912 34.3499 82.5288 34.3499C82.6154 34.3499 82.7823 34.3675 82.983 34.3948C83.6218 34.4735 84.3408 34.4992 85.1112 34.4992C85.9602 34.4992 86.9922 34.4382 88.2008 34.3499C89.6276 34.2536 90.6003 34.1926 91.1428 34.1926C92.7526 34.1926 94.0751 34.6308 95.1264 35.5071C96.176 36.3818 96.7009 37.4668 96.7009 38.7973C96.7009 39.6303 96.4665 40.3911 96.0011 41.0748C95.5372 41.7569 94.8888 42.2818 94.0751 42.6317C93.9082 42.6846 93.8215 42.7729 93.8391 42.8772L93.9708 43.1838C94.0398 43.2977 94.1537 43.4984 94.303 43.7792L95.4233 45.7742L96.7185 48.0774C97.1743 48.8638 97.5675 49.4095 97.919 49.7145C98.2513 50.021 98.6798 50.1703 99.1436 50.1703C99.3363 50.1703 99.5112 50.1527 99.6861 50.1254ZM103.479 39.2098C103.801 39.4987 104.8 39.9963 106.48 40.6784C108.477 41.5017 109.807 42.2994 110.456 43.0345C111.234 43.9895 111.611 45.1178 111.611 46.4483C111.611 47.9201 111.085 49.1897 110.017 50.2827C108.958 51.3773 107.716 51.9198 106.287 51.9198C105.71 51.9198 104.79 51.7191 103.522 51.3259C102.944 51.1413 102.506 51.0097 102.225 50.9487C101.84 50.8781 101.612 50.7995 101.551 50.7305C101.5 50.6598 101.437 50.4416 101.394 50.074C101.351 49.6792 101.219 49.0934 101.018 48.3502C100.694 47.2027 100.537 46.4756 100.537 46.1514C100.537 45.7405 100.667 45.5399 100.93 45.5399C101.044 45.5399 101.131 45.6442 101.176 45.8449C101.596 47.2893 102.304 48.5075 103.329 49.4866C104.353 50.4592 105.413 50.9584 106.507 50.9584C107.364 50.9584 108.117 50.6342 108.791 49.9761C109.465 49.3373 109.798 48.5942 109.798 47.7452C109.798 47.0871 109.623 46.5286 109.274 46.1081C108.923 45.686 108.319 45.2767 107.461 44.8995L105.535 44.0408C103.731 43.2448 102.506 42.4744 101.848 41.7569C101.193 41.0395 100.869 40.0845 100.869 38.884C100.869 37.5021 101.323 36.3369 102.225 35.4012C103.127 34.4654 104.265 34 105.605 34C106.393 34 107.164 34.1493 107.925 34.4558L108.774 34.8057C109.159 34.9726 109.422 35.0416 109.579 35.0416L109.947 34.955L110.428 34.7174L110.631 34.6741C110.806 34.6741 110.892 34.8137 110.892 35.0946L110.867 36.1186C110.867 36.2855 110.867 36.4251 110.884 36.5744L111.041 37.8167L111.173 38.9723L111.199 39.2178C111.199 39.5854 111.077 39.7603 110.875 39.7603C110.719 39.7603 110.613 39.603 110.542 39.2788C110.297 38.0975 109.685 37.0912 108.695 36.2325C107.714 35.3658 106.673 34.9453 105.56 34.9453C104.808 34.9453 104.151 35.2086 103.583 35.7157C103.013 36.2325 102.734 36.828 102.734 37.5278C102.734 38.1842 102.978 38.7444 103.479 39.2098ZM129.226 35.8104V35.812L129.358 36.8617C129.419 37.3079 129.444 37.6754 129.444 37.9387C129.444 38.2276 129.348 38.3576 129.112 38.3576C128.902 38.3576 128.77 38.2003 128.701 37.8761C128.526 37.0896 128.175 36.5198 127.677 36.17C127.186 35.8201 126.451 35.6451 125.506 35.6451C124.228 35.6451 123.44 35.7318 123.116 35.934C122.809 36.1346 122.652 36.6161 122.652 37.4042V46.9138C122.652 48.331 122.853 49.3389 123.265 49.9328C123.676 50.5282 124.403 50.8524 125.453 50.923C125.759 50.9584 125.909 51.098 125.909 51.3773C125.909 51.5618 125.777 51.6662 125.514 51.6662L125.191 51.6485L124.244 51.6052L122.67 51.4992C122.538 51.4832 122.363 51.4832 122.161 51.4832C121.679 51.4832 121.243 51.5008 120.848 51.5265L118.065 51.6838L118.015 51.6882C117.736 51.713 117.558 51.7288 117.452 51.7288C117.189 51.7288 117.059 51.6148 117.075 51.3965C117.094 51.2039 117.136 51.0884 117.206 51.0274C117.285 50.984 117.46 50.9391 117.705 50.923C118.362 50.8781 118.851 50.6422 119.221 50.204C119.586 49.7675 119.763 49.172 119.763 48.4273L119.744 47.8318V36.6177C119.744 35.9613 119.386 35.6275 118.668 35.6275C116.978 35.6275 115.823 35.751 115.21 35.9966C114.755 36.1892 114.457 36.3995 114.317 36.6258C114.178 36.8537 113.967 37.4411 113.722 38.3592L113.617 38.7107C113.529 39.0589 113.39 39.2355 113.197 39.2355C112.916 39.2355 112.786 39.1039 112.802 38.8407C112.821 38.5967 112.865 38.2725 112.934 37.852L113.065 36.7574L113.215 35.6371L113.301 34.8667C113.329 34.5248 113.504 34.3675 113.828 34.3675C113.897 34.3675 114.046 34.3772 114.247 34.3948C114.572 34.4205 115.035 34.4382 115.648 34.4382L118.229 34.4638L121.302 34.5072C123.272 34.5072 125.372 34.4638 127.587 34.3499C127.823 34.3447 128.013 34.3377 128.158 34.3323C128.283 34.3276 128.376 34.3242 128.436 34.3242C128.9 34.3242 129.138 34.5168 129.162 34.91L129.226 35.8104ZM147.643 47.2893L147.977 47.0711C148.134 47.0534 148.221 47.1577 148.231 47.3953C148.231 47.7275 147.916 48.278 147.242 49.0404C145.491 51.0097 143.345 52 140.78 52C138.302 52 136.298 51.212 134.749 49.6262C133.198 48.0421 132.428 45.9845 132.428 43.447C132.428 42.0635 132.717 40.6976 133.304 39.3671C133.874 38.0285 134.661 36.95 135.624 36.1186C137.209 34.7624 139.065 34.0786 141.191 34.0786C142.767 34.0786 144.143 34.4109 145.306 35.085L146.138 35.5665C146.305 35.6724 146.462 35.7157 146.594 35.7157C146.769 35.7157 146.883 35.6467 146.969 35.5151L147.232 35.1203L147.468 35.016C147.732 35.016 147.863 35.2776 147.863 35.8297L147.881 36.7494V37.9049L147.987 38.8679L148.099 39.4361C148.142 39.7154 148.17 39.9626 148.17 40.1808C148.17 40.505 148.056 40.6623 147.82 40.6623C147.688 40.6623 147.6 40.558 147.557 40.3558C147.496 40.0412 147.25 39.542 146.857 38.8856C146.462 38.2115 146.086 37.7027 145.717 37.3095C144.239 35.7238 142.61 34.9373 140.816 34.9373C139.222 34.9373 137.927 35.5761 136.938 36.889C135.948 38.2035 135.449 39.8919 135.449 41.9752C135.449 44.6989 136.246 46.8688 137.883 48.4883C139.108 49.6968 140.43 50.3099 141.875 50.3099C142.742 50.3099 143.642 50.1077 144.589 49.6968C145.534 49.294 146.279 48.7772 146.83 48.1817L147.643 47.2893ZM162.772 47.9731C163.132 47.4643 163.367 47.2027 163.454 47.2027C163.621 47.2027 163.693 47.36 163.684 47.7082C163.684 48.7868 163.334 49.7305 162.634 50.5812C162.029 51.3243 161.197 51.6934 160.13 51.6934C159.91 51.6934 159.517 51.6758 158.93 51.6325C158.79 51.6148 158.273 51.5875 157.416 51.5442L156.041 51.4832C155.586 51.4559 155.052 51.4399 154.466 51.4399C153.494 51.4399 152.426 51.5008 151.304 51.6325C150.954 51.6758 150.719 51.6934 150.606 51.6934C150.349 51.6934 150.237 51.5795 150.237 51.3596C150.237 51.1943 150.351 51.098 150.569 51.037C151.104 50.8877 151.489 50.5988 151.691 50.1607C151.892 49.7225 151.996 49.0131 151.996 48.0341V37.4925C151.996 36.1539 151.436 35.3931 150.316 35.2166L149.555 35.085C149.231 35.0416 149.073 34.91 149.073 34.7094C149.073 34.4638 149.203 34.3322 149.449 34.3322C149.537 34.3322 149.659 34.3499 149.818 34.3772C149.94 34.3772 150.115 34.3948 150.316 34.4205L150.857 34.4622C151.373 34.5056 151.768 34.5329 152.012 34.5329C152.415 34.5329 153.054 34.4895 153.948 34.3836C154.604 34.3049 155.278 34.2777 155.96 34.2777C156.477 34.2777 156.723 34.4093 156.723 34.6468C156.723 34.8474 156.548 34.963 156.18 34.979C155.314 35.04 154.893 35.6178 154.893 36.7301V47.6842C154.893 49.2603 155.086 50.143 155.461 50.3356C155.681 50.4319 156.092 50.4929 156.705 50.4929C159.551 50.4929 161.573 49.6535 162.772 47.9731ZM169.584 44.2687H173.312C173.636 44.2687 173.793 44.1821 173.793 44.0152L173.732 43.7969L173.672 43.6476L172.026 39.7956C171.632 38.8776 171.333 38.4121 171.176 38.4121C171.079 38.4121 170.887 38.7107 170.625 39.3061L170.388 39.8309L168.918 43.2014L168.768 43.5256L168.682 43.8482C168.682 44.1211 168.988 44.2687 169.584 44.2687ZM179.949 50.4319C180.334 50.7561 180.841 50.9744 181.454 51.09C181.611 51.1237 181.682 51.2376 181.647 51.3949C181.647 51.6228 181.55 51.7448 181.358 51.7288C181.244 51.7288 181.077 51.7015 180.876 51.6581C180.238 51.5089 179.186 51.4399 177.742 51.4399C176.297 51.4399 175.309 51.5089 174.784 51.6405L174.45 51.7031C174.214 51.7031 174.1 51.5795 174.1 51.3339C174.1 51.2023 174.188 51.1157 174.381 51.0547C174.792 50.9311 175.124 50.7288 175.387 50.4239C175.65 50.1173 175.78 49.7931 175.78 49.4609C175.78 48.9874 175.413 47.9554 174.687 46.3536C174.468 45.8545 174.222 45.5736 173.943 45.503C173.672 45.4243 172.709 45.3987 171.044 45.3987H169.338L168.2 45.5993C167.876 45.7486 167.526 46.3007 167.131 47.2637L166.738 48.2427C166.624 48.5236 166.561 48.8045 166.561 49.0934C166.561 50.1446 167.288 50.7561 168.776 50.9311C169.092 50.9744 169.258 51.106 169.242 51.3082C169.224 51.5281 169.075 51.6405 168.786 51.6405C168.645 51.6405 168.428 51.6148 168.147 51.5699C167.595 51.4736 167.096 51.4126 166.659 51.4126C166.264 51.4126 165.626 51.4559 164.733 51.5442C164.077 51.6228 163.664 51.6485 163.507 51.6485C163.27 51.6485 163.157 51.5442 163.157 51.3436C163.157 51.1847 163.271 51.0547 163.507 50.9664C163.963 50.8171 164.321 50.5555 164.602 50.1783C164.881 49.7851 165.284 48.9874 165.828 47.7628L169.267 39.8133C169.362 39.6044 169.446 39.4163 169.521 39.2495C169.669 38.9204 169.779 38.6747 169.855 38.5181L171.036 36.1106L171.649 34.9277V34.9726C171.911 34.3322 172.103 34.0096 172.192 34.0096C172.341 34.0096 172.559 34.3772 172.893 35.077L173.198 35.751L178.941 48.9441C179.222 49.6005 179.554 50.0997 179.949 50.4319ZM184.964 39.2098C185.288 39.4987 186.287 39.9963 187.969 40.6784C189.964 41.5017 191.294 42.2994 191.933 43.0522C192.712 44.0071 193.089 45.1354 193.089 46.466C193.089 47.9378 192.554 49.2073 191.495 50.3003C190.436 51.3949 189.193 51.9374 187.767 51.9374C187.189 51.9374 186.268 51.7368 185 51.3436C184.422 51.159 183.984 51.0274 183.704 50.9664C183.319 50.8958 183.091 50.8171 183.03 50.7481C182.977 50.6775 182.916 50.4592 182.873 50.0917C182.828 49.6984 182.696 49.111 182.496 48.3663C182.172 47.2187 182.014 46.4933 182.014 46.1675C182.014 45.7582 182.146 45.5576 182.407 45.5576C182.521 45.5576 182.61 45.6619 182.653 45.8625C183.074 47.307 183.783 48.5252 184.807 49.5042C185.831 50.4769 186.89 50.9744 187.985 50.9744C188.842 50.9744 189.596 50.6518 190.27 49.9938C190.944 49.355 191.277 48.6119 191.277 47.7628C191.277 47.1048 191.102 46.5446 190.752 46.1257C190.4 45.7036 189.797 45.2927 188.94 44.9172L187.014 44.0585C185.21 43.2624 183.985 42.492 183.327 41.7746C182.671 41.0556 182.346 40.1022 182.346 38.9017C182.346 37.5198 182.802 36.3545 183.704 35.4188C184.606 34.4831 185.744 34.0177 187.083 34.0177C187.871 34.0177 188.641 34.1669 189.402 34.4735L190.253 34.8234C190.638 34.9887 190.9 35.0593 191.057 35.0593L191.426 34.955L191.907 34.7174L192.108 34.6741C192.283 34.6741 192.371 34.8137 192.371 35.0946L192.344 36.1186C192.344 36.2855 192.354 36.4251 192.371 36.5744L192.529 37.8167L192.66 38.9723L192.686 39.2178C192.686 39.5854 192.564 39.7603 192.362 39.7603C192.206 39.7603 192.1 39.603 192.029 39.2788C191.784 38.0975 191.171 37.0912 190.182 36.2325C189.201 35.3658 188.16 34.9453 187.048 34.9453C186.295 34.9453 185.638 35.2086 185.07 35.7157C184.5 36.2325 184.221 36.828 184.221 37.5278C184.221 38.1842 184.467 38.7444 184.964 39.2098ZM197.668 39.2098C197.99 39.4987 198.989 39.9963 200.671 40.6784C202.666 41.5017 203.987 42.2994 204.645 43.0345C205.423 43.9895 205.8 45.1178 205.8 46.4483C205.8 47.9201 205.275 49.1897 204.206 50.2827C203.147 51.3773 201.905 51.9198 200.478 51.9198C199.9 51.9198 198.979 51.7191 197.711 51.3259C197.133 51.1413 196.695 51.0097 196.416 50.9487C196.031 50.8781 195.793 50.7995 195.742 50.7305C195.689 50.6598 195.628 50.4416 195.584 50.074C195.54 49.6792 195.408 49.0934 195.207 48.3502C194.883 47.2027 194.726 46.4756 194.726 46.1514C194.726 45.7405 194.857 45.5399 195.119 45.5399C195.233 45.5399 195.321 45.6442 195.365 45.8449C195.785 47.2893 196.495 48.5075 197.518 49.4866C198.542 50.4592 199.602 50.9584 200.696 50.9584C201.553 50.9584 202.308 50.6342 202.982 49.9761C203.656 49.3373 203.988 48.5942 203.988 47.7452C203.988 47.0871 203.813 46.5286 203.463 46.1081C203.112 45.686 202.508 45.2767 201.651 44.8995L199.725 44.0408C197.921 43.2448 196.697 42.4744 196.039 41.7569C195.382 41.0395 195.058 40.0845 195.058 38.884C195.058 37.5021 195.514 36.3369 196.416 35.4012C197.318 34.4654 198.456 34 199.794 34C200.582 34 201.353 34.1493 202.114 34.4558L202.964 34.8057C203.349 34.9726 203.611 35.0416 203.768 35.0416L204.137 34.955L204.619 34.7174L204.82 34.6741C204.995 34.6741 205.083 34.8137 205.083 35.0946L205.056 36.1186C205.056 36.2855 205.065 36.4251 205.083 36.5744L205.24 37.8167L205.372 38.9723L205.397 39.2178C205.397 39.5854 205.275 39.7603 205.073 39.7603C204.918 39.7603 204.812 39.603 204.741 39.2788C204.487 38.0975 203.874 37.0912 202.886 36.2325C201.905 35.3658 200.863 34.9453 199.751 34.9453C198.998 34.9453 198.342 35.1989 197.774 35.7157C197.204 36.2325 196.923 36.828 196.923 37.5278C196.923 38.1842 197.169 38.7444 197.668 39.2098ZM210.625 34.8452L210.636 34.9914L210.673 35.1377L210.684 35.3124L210.625 35.3802L210.557 35.3035C210.529 35.1769 210.47 35.0895 210.391 35.0307C210.315 34.9718 210.197 34.9433 210.042 34.9433C209.828 34.9433 209.701 34.9629 209.653 34.9914C209.603 35.02 209.575 35.0984 209.575 35.225V36.7533C209.575 36.987 209.603 37.1421 209.673 37.2402C209.741 37.3276 209.856 37.3864 210.022 37.3953L210.101 37.4631L210.042 37.513H209.994L209.837 37.5023L209.585 37.4827H209.505L209.291 37.4934L208.845 37.522L208.747 37.5327L208.69 37.4827L208.71 37.4239L208.786 37.406L209.029 37.2883C209.088 37.2206 209.118 37.1243 209.118 37.0066V35.1073C209.118 35.0003 209.059 34.9522 208.942 34.9522C208.671 34.9522 208.485 34.9718 208.389 35.011L208.243 35.1073C208.223 35.1466 208.185 35.2447 208.144 35.3909L208.125 35.448L208.057 35.5353L208 35.4783L208.018 35.3213L208.039 35.1466L208.057 34.9611L208.066 34.8363L208.155 34.7578H208.223L208.446 34.7685H208.865L209.362 34.7774C209.683 34.7774 210.013 34.7667 210.372 34.7489H210.509L210.625 34.8452ZM213.953 37.2669C214.01 37.3543 214.128 37.4043 214.274 37.4239V37.4221L214.311 37.5113L214.176 37.5683L214.049 37.5594C213.883 37.5398 213.767 37.5309 213.7 37.5309C213.553 37.5309 213.437 37.5398 213.339 37.5505L213.154 37.5683L213.106 37.5202L213.165 37.4613L213.33 37.3543L213.379 37.1403V37.044L213.32 35.7012L213.291 35.6423L213.202 35.7493L212.435 37.365L212.405 37.4239L212.309 37.5505C212.278 37.5505 212.23 37.472 212.162 37.3258L212.055 37.1118L211.404 35.662L211.394 35.6334L211.365 35.6227L211.335 35.7119V35.7779L211.306 36.7997V36.8764L211.324 37.0708C211.365 37.2759 211.472 37.3918 211.645 37.4417L211.734 37.5095L211.665 37.5576L211.54 37.5469L211.394 37.5291L211.239 37.5202C211.112 37.5202 211.014 37.5291 210.946 37.538L210.85 37.5487L210.791 37.4899L210.839 37.431L211.064 37.2455C211.112 37.1582 211.132 37.0315 211.132 36.8764L211.19 35.5443L211.199 35.4105C211.199 35.2536 211.16 35.127 211.083 35.0307C211.005 34.9433 210.898 34.8933 210.762 34.8933L210.682 34.8363L210.771 34.7774H210.821L210.935 34.7863H211.025L211.208 34.7774L211.383 34.7596L211.579 34.8844L212.405 36.7034L212.492 36.8211L212.572 36.7319L213.339 35.1073C213.407 34.9522 213.466 34.8559 213.496 34.8167L213.621 34.7578L213.71 34.7685L213.835 34.7774L214.04 34.7685L214.136 34.7578L214.204 34.8167L214.147 34.8666C214.021 34.8755 213.933 34.913 213.883 34.9914C213.835 35.0592 213.807 35.1965 213.807 35.3713V35.5086L213.855 36.7605V36.8496C213.855 37.044 213.883 37.1796 213.953 37.2669Z" fill="black"/>
<defs>
<linearGradient id="paint0_linear_1866_15676" x1="23140.1" y1="1430.38" x2="391.002" y2="-1643.37" gradientUnits="userSpaceOnUse">
<stop stop-color="#8B733D"/>
<stop offset="0.3622" stop-color="#DCB96B"/>
<stop offset="0.5731" stop-color="#EAC572"/>
<stop offset="1" stop-color="#BD9244"/>
</linearGradient>
<linearGradient id="paint1_linear_1866_15676" x1="37841" y1="2037.38" x2="858.494" y2="-8068.46" gradientUnits="userSpaceOnUse">
<stop stop-color="#8B733D"/>
<stop offset="0.3622" stop-color="#DCB96B"/>
<stop offset="0.5731" stop-color="#EAC572"/>
<stop offset="1" stop-color="#BD9244"/>
</linearGradient>
<linearGradient id="paint2_linear_1866_15676" x1="60310.7" y1="3284.38" x2="-6574.71" y2="-24115" gradientUnits="userSpaceOnUse">
<stop stop-color="#8B733D"/>
<stop offset="0.3622" stop-color="#DCB96B"/>
<stop offset="0.5731" stop-color="#EAC572"/>
<stop offset="1" stop-color="#BD9244"/>
</linearGradient>
<linearGradient id="paint3_linear_1866_15676" x1="36879.7" y1="1906.94" x2="-2106.71" y2="-7428.38" gradientUnits="userSpaceOnUse">
<stop stop-color="#8B733D"/>
<stop offset="0.3622" stop-color="#DCB96B"/>
<stop offset="0.5731" stop-color="#EAC572"/>
<stop offset="1" stop-color="#BD9244"/>
</linearGradient>
<linearGradient id="paint4_linear_1866_15676" x1="56560.2" y1="3009.22" x2="-11377.1" y2="-23098.9" gradientUnits="userSpaceOnUse">
<stop stop-color="#8B733D"/>
<stop offset="0.3622" stop-color="#DCB96B"/>
<stop offset="0.5731" stop-color="#EAC572"/>
<stop offset="1" stop-color="#BD9244"/>
</linearGradient>
<linearGradient id="paint5_linear_1866_15676" x1="40330.2" y1="2227.78" x2="-3523.56" y2="-11946.8" gradientUnits="userSpaceOnUse">
<stop stop-color="#8B733D"/>
<stop offset="0.3622" stop-color="#DCB96B"/>
<stop offset="0.5731" stop-color="#EAC572"/>
<stop offset="1" stop-color="#BD9244"/>
</linearGradient>
<linearGradient id="paint6_linear_1866_15676" x1="49347.8" y1="2617.92" x2="-15516.6" y2="-20029.5" gradientUnits="userSpaceOnUse">
<stop stop-color="#8B733D"/>
<stop offset="0.3622" stop-color="#DCB96B"/>
<stop offset="0.5731" stop-color="#EAC572"/>
<stop offset="1" stop-color="#BD9244"/>
</linearGradient>
<linearGradient id="paint7_linear_1866_15676" x1="54540.2" y1="5300.93" x2="9535.98" y2="-36886.8" gradientUnits="userSpaceOnUse">
<stop stop-color="#8B733D"/>
<stop offset="0.3622" stop-color="#DCB96B"/>
<stop offset="0.5731" stop-color="#EAC572"/>
<stop offset="1" stop-color="#BD9244"/>
</linearGradient>
<linearGradient id="paint8_linear_1866_15676" x1="40658.7" y1="6433.92" x2="17875.3" y2="-29325" gradientUnits="userSpaceOnUse">
<stop stop-color="#8B733D"/>
<stop offset="0.3622" stop-color="#DCB96B"/>
<stop offset="0.5731" stop-color="#EAC572"/>
<stop offset="1" stop-color="#BD9244"/>
</linearGradient>
<linearGradient id="paint9_linear_1866_15676" x1="95020.6" y1="8830.63" x2="8886.95" y2="-72732.2" gradientUnits="userSpaceOnUse">
<stop stop-color="#8B733D"/>
<stop offset="0.3622" stop-color="#DCB96B"/>
<stop offset="0.5731" stop-color="#EAC572"/>
<stop offset="1" stop-color="#BD9244"/>
</linearGradient>
<linearGradient id="paint10_linear_1866_15676" x1="70416.5" y1="4353.79" x2="-10853.6" y2="-39468.2" gradientUnits="userSpaceOnUse">
<stop stop-color="#8B733D"/>
<stop offset="0.3622" stop-color="#DCB96B"/>
<stop offset="0.5731" stop-color="#EAC572"/>
<stop offset="1" stop-color="#BD9244"/>
</linearGradient>
<linearGradient id="paint11_linear_1866_15676" x1="46153.6" y1="2607.67" x2="-5805.08" y2="-17245.6" gradientUnits="userSpaceOnUse">
<stop stop-color="#8B733D"/>
<stop offset="0.3622" stop-color="#DCB96B"/>
<stop offset="0.5731" stop-color="#EAC572"/>
<stop offset="1" stop-color="#BD9244"/>
</linearGradient>
<linearGradient id="paint12_linear_1866_15676" x1="9074.41" y1="1260.65" x2="-13674.6" y2="-1813.1" gradientUnits="userSpaceOnUse">
<stop stop-color="#8B733D"/>
<stop offset="0.3622" stop-color="#DCB96B"/>
<stop offset="0.5731" stop-color="#EAC572"/>
<stop offset="1" stop-color="#BD9244"/>
</linearGradient>
<linearGradient id="paint13_linear_1866_15676" x1="10617.8" y1="1360.51" x2="-26364.7" y2="-8745.33" gradientUnits="userSpaceOnUse">
<stop stop-color="#8B733D"/>
<stop offset="0.3622" stop-color="#DCB96B"/>
<stop offset="0.5731" stop-color="#EAC572"/>
<stop offset="1" stop-color="#BD9244"/>
</linearGradient>
<linearGradient id="paint14_linear_1866_15676" x1="26083.5" y1="2009.09" x2="-40801.8" y2="-25390.3" gradientUnits="userSpaceOnUse">
<stop stop-color="#8B733D"/>
<stop offset="0.3622" stop-color="#DCB96B"/>
<stop offset="0.5731" stop-color="#EAC572"/>
<stop offset="1" stop-color="#BD9244"/>
</linearGradient>
<linearGradient id="paint15_linear_1866_15676" x1="11911.6" y1="1368.46" x2="-27074.8" y2="-7966.86" gradientUnits="userSpaceOnUse">
<stop stop-color="#8B733D"/>
<stop offset="0.3622" stop-color="#DCB96B"/>
<stop offset="0.5731" stop-color="#EAC572"/>
<stop offset="1" stop-color="#BD9244"/>
</linearGradient>
<linearGradient id="paint16_linear_1866_15676" x1="27803.6" y1="2018.47" x2="-40133.8" y2="-24089.4" gradientUnits="userSpaceOnUse">
<stop stop-color="#8B733D"/>
<stop offset="0.3622" stop-color="#DCB96B"/>
<stop offset="0.5731" stop-color="#EAC572"/>
<stop offset="1" stop-color="#BD9244"/>
</linearGradient>
<linearGradient id="paint17_linear_1866_15676" x1="14128.5" y1="1407.7" x2="-29725.3" y2="-12766.9" gradientUnits="userSpaceOnUse">
<stop stop-color="#8B733D"/>
<stop offset="0.3622" stop-color="#DCB96B"/>
<stop offset="0.5731" stop-color="#EAC572"/>
<stop offset="1" stop-color="#BD9244"/>
</linearGradient>
<linearGradient id="paint18_linear_1866_15676" x1="28203.4" y1="1943.47" x2="-36647.9" y2="-20693.5" gradientUnits="userSpaceOnUse">
<stop stop-color="#8B733D"/>
<stop offset="0.3622" stop-color="#DCB96B"/>
<stop offset="0.5731" stop-color="#EAC572"/>
<stop offset="1" stop-color="#BD9244"/>
</linearGradient>
<linearGradient id="paint19_linear_1866_15676" x1="32005.8" y1="3549.86" x2="-12998.5" y2="-38637.8" gradientUnits="userSpaceOnUse">
<stop stop-color="#8B733D"/>
<stop offset="0.3622" stop-color="#DCB96B"/>
<stop offset="0.5731" stop-color="#EAC572"/>
<stop offset="1" stop-color="#BD9244"/>
</linearGradient>
<linearGradient id="paint20_linear_1866_15676" x1="28474" y1="4557.74" x2="5717.14" y2="-31179.7" gradientUnits="userSpaceOnUse">
<stop stop-color="#8B733D"/>
<stop offset="0.3622" stop-color="#DCB96B"/>
<stop offset="0.5731" stop-color="#EAC572"/>
<stop offset="1" stop-color="#BD9244"/>
</linearGradient>
<linearGradient id="paint21_linear_1866_15676" x1="54683.1" y1="5561.52" x2="-31441.5" y2="-75949.2" gradientUnits="userSpaceOnUse">
<stop stop-color="#8B733D"/>
<stop offset="0.3622" stop-color="#DCB96B"/>
<stop offset="0.5731" stop-color="#EAC572"/>
<stop offset="1" stop-color="#BD9244"/>
</linearGradient>
<linearGradient id="paint22_linear_1866_15676" x1="33638.1" y1="2698.92" x2="-47631.9" y2="-41123.1" gradientUnits="userSpaceOnUse">
<stop stop-color="#8B733D"/>
<stop offset="0.3622" stop-color="#DCB96B"/>
<stop offset="0.5731" stop-color="#EAC572"/>
<stop offset="1" stop-color="#BD9244"/>
</linearGradient>
<linearGradient id="paint23_linear_1866_15676" x1="17520.4" y1="1734.1" x2="-34446.7" y2="-18126.3" gradientUnits="userSpaceOnUse">
<stop stop-color="#8B733D"/>
<stop offset="0.3622" stop-color="#DCB96B"/>
<stop offset="0.5731" stop-color="#EAC572"/>
<stop offset="1" stop-color="#BD9244"/>
</linearGradient>
<linearGradient id="paint24_linear_1866_15676" x1="16841.3" y1="2161.63" x2="362.005" y2="-10741.2" gradientUnits="userSpaceOnUse">
<stop stop-color="#8B733D"/>
<stop offset="0.3622" stop-color="#DCB96B"/>
<stop offset="0.5731" stop-color="#EAC572"/>
<stop offset="1" stop-color="#BD9244"/>
</linearGradient>
<linearGradient id="paint25_linear_1866_15676" x1="4280.94" y1="1180.56" x2="3580.29" y2="1910.16" gradientUnits="userSpaceOnUse">
<stop stop-color="white" stop-opacity="0.1"/>
<stop offset="1" stop-color="white" stop-opacity="0.2"/>
</linearGradient>
<linearGradient id="paint26_linear_1866_15676" x1="4635.37" y1="1093.51" x2="4051.67" y2="2324.11" gradientUnits="userSpaceOnUse">
<stop stop-color="white" stop-opacity="0.1"/>
<stop offset="1" stop-color="white" stop-opacity="0.2"/>
</linearGradient>
<linearGradient id="paint27_linear_1866_15676" x1="7033.71" y1="360.672" x2="6269.18" y2="2775.85" gradientUnits="userSpaceOnUse">
<stop stop-color="white" stop-opacity="0.1"/>
<stop offset="1" stop-color="white" stop-opacity="0.2"/>
</linearGradient>
<linearGradient id="paint28_linear_1866_15676" x1="5764.92" y1="905.592" x2="5067.51" y2="2220.86" gradientUnits="userSpaceOnUse">
<stop stop-color="white" stop-opacity="0.1"/>
<stop offset="1" stop-color="white" stop-opacity="0.2"/>
</linearGradient>
<linearGradient id="paint29_linear_1866_15676" x1="9779.51" y1="-683.064" x2="8750.9" y2="2691.82" gradientUnits="userSpaceOnUse">
<stop stop-color="white" stop-opacity="0.1"/>
<stop offset="1" stop-color="white" stop-opacity="0.2"/>
</linearGradient>
<linearGradient id="paint30_linear_1866_15676" x1="7653.96" y1="-109.008" x2="7041.34" y2="1949.03" gradientUnits="userSpaceOnUse">
<stop stop-color="white" stop-opacity="0.1"/>
<stop offset="1" stop-color="white" stop-opacity="0.2"/>
</linearGradient>
<linearGradient id="paint31_linear_1866_15676" x1="10017.9" y1="-1586.18" x2="9124.38" y2="2739.73" gradientUnits="userSpaceOnUse">
<stop stop-color="white" stop-opacity="0.1"/>
<stop offset="1" stop-color="white" stop-opacity="0.2"/>
</linearGradient>
<linearGradient id="paint32_linear_1866_15676" x1="8795.93" y1="-930.36" x2="8028.71" y2="2512.66" gradientUnits="userSpaceOnUse">
<stop stop-color="white" stop-opacity="0.1"/>
<stop offset="1" stop-color="white" stop-opacity="0.2"/>
</linearGradient>
<linearGradient id="paint33_linear_1866_15676" x1="923.219" y1="-416.008" x2="470.649" y2="626.092" gradientUnits="userSpaceOnUse">
<stop stop-color="white" stop-opacity="0.1"/>
<stop offset="1" stop-color="white" stop-opacity="0.2"/>
</linearGradient>
</defs>
</svg>
