<svg width="119" height="120" viewBox="0 0 119 120" fill="none" xmlns="http://www.w3.org/2000/svg">
<g filter="url(#filter0_d_1961_9299)">
<path d="M56.9355 62.9164L42.2064 52.9975C41.8376 52.7662 41.5158 52.5383 41.2175 52.3774C40.7817 52.1025 40.413 51.8947 40.1113 51.7807C39.4912 51.5494 38.7772 51.4354 37.9257 51.4354C36.8665 51.4354 35.8776 51.7338 34.9357 52.3774C34.5904 52.6087 34.2686 52.8601 33.9468 53.1819C32.8875 54.2881 32.3579 55.6222 32.3579 57.2077C32.3579 58.7933 32.8875 60.0838 33.9468 61.19C34.4295 61.6727 34.9357 62.0415 35.4888 62.2962C36.2497 62.7119 37.0777 62.9164 37.9291 62.9164H56.9388H56.9355Z" fill="url(#paint0_linear_1961_9299)" fill-opacity="0.57"/>
<path d="M38.0196 48.2776C38.4118 48.8978 38.918 49.4039 39.5147 49.7961L56.1075 61.143L48.629 43.997C48.5385 43.8127 48.4681 43.6283 48.3977 43.4674C48.0994 42.7299 47.8212 42.1802 47.5697 41.788C47.4558 41.6506 47.3384 41.4896 47.201 41.3287C46.9697 41.074 46.6948 40.8226 46.3965 40.5913C46.2356 40.5008 46.0982 40.4069 45.9607 40.293C44.764 39.4884 43.336 39.2337 41.6801 39.532C40.7818 39.7164 40.0007 40.0617 39.3336 40.5913C39.0588 40.8226 38.804 41.0505 38.5727 41.3287C38.4118 41.5131 38.2744 41.7209 38.137 41.9053C37.7917 42.4115 37.5168 42.9176 37.3559 43.4707C37.081 44.2987 37.0341 45.1971 37.2185 46.139C37.3794 46.9435 37.6542 47.681 38.023 48.2776H38.0196Z" fill="url(#paint1_linear_1961_9299)" fill-opacity="0.57"/>
<path d="M56.245 58.6592L58.9367 39.8104C59.0976 38.7511 59.168 37.9466 59.1445 37.417C59.1211 36.9108 59.0071 36.4047 58.8227 35.8516C58.7758 35.6672 58.6853 35.4828 58.6149 35.275C58.0182 33.9174 56.9355 32.952 55.3701 32.352C55.2092 32.2816 55.0483 32.238 54.8639 32.1911C53.922 31.9363 52.9767 31.9363 52.0347 32.1911C51.7129 32.2816 51.3911 32.3989 51.0693 32.5363C49.6212 33.1799 48.629 34.2157 48.0994 35.6203C48.0759 35.6907 48.029 35.7812 48.0089 35.8516C47.5262 37.303 47.5496 38.6807 48.1228 39.9947L56.245 58.6592Z" fill="url(#paint2_linear_1961_9299)" fill-opacity="0.57"/>
<path d="M85.9311 53.8489C85.7702 53.6176 85.5858 53.3897 85.378 53.1819C85.0562 52.8601 84.7109 52.6053 84.3657 52.3774C83.9735 52.079 83.5377 51.8712 83.0986 51.7103C82.5455 51.5259 81.9723 51.4354 81.3957 51.4354C80.5443 51.4354 79.8303 51.5494 79.2336 51.7807C78.9353 51.8947 78.5431 52.1025 78.1073 52.3774C77.809 52.5383 77.4872 52.7696 77.1185 52.9975L62.3893 62.9164H81.3991C82.5254 62.9164 83.5846 62.5711 84.597 61.8571C84.8517 61.6727 85.1031 61.4414 85.378 61.19C85.4249 61.1431 85.4685 61.0995 85.5389 61.0291C86.159 60.3621 86.5747 59.6011 86.806 58.7262C86.8764 58.4715 86.9434 58.1966 86.9669 57.9217C86.9904 57.6904 86.9904 57.439 86.9904 57.2077C86.9904 55.9205 86.6451 54.7909 85.9311 53.8489Z" fill="url(#paint3_linear_1961_9299)" fill-opacity="0.57"/>
<path d="M60.2037 38.4292H61.7457C62.2049 38.4762 62.5066 38.5432 62.5737 38.6605C62.6876 38.7745 62.4597 38.9589 61.9535 39.1667L61.5613 39.4215L61.0786 39.8137C60.8708 39.998 60.7568 40.2729 60.6864 40.5947C60.6395 40.826 60.616 41.0539 60.6395 41.3322C60.6395 41.4461 60.6395 41.54 60.663 41.6774L63.0798 58.6625L71.2254 39.998C71.7785 38.7309 71.8254 37.3298 71.3159 35.8548C71.2925 35.7844 71.2455 35.6939 71.2254 35.6235C70.6723 34.1955 69.6834 33.1832 68.2555 32.5396C67.9337 32.4022 67.6119 32.2848 67.2901 32.1943C66.3481 31.9396 65.4028 31.9396 64.4609 32.1943C64.2765 32.2413 64.1156 32.2848 63.9547 32.3552C62.3893 32.9519 61.3066 33.9441 60.7099 35.2783C60.6395 35.4861 60.549 35.6705 60.4786 35.8548C60.2037 36.6828 60.1099 37.4873 60.2037 38.3186V38.4326V38.4292Z" fill="url(#paint4_linear_1961_9299)" fill-opacity="0.57"/>
<path d="M63.2173 61.143L79.8102 49.7962C80.4303 49.3805 80.9164 48.8978 81.3052 48.2777C81.3521 48.2308 81.3756 48.1872 81.3957 48.1168C81.6035 47.7715 81.7644 47.3793 81.9019 46.967C81.9723 46.7123 82.0628 46.4139 82.1097 46.139C82.2002 45.7033 82.2471 45.2642 82.2237 44.8518C82.1768 43.8395 81.855 42.8741 81.2113 41.9054C81.0739 41.721 80.9365 41.5132 80.7756 41.3288C80.5443 41.0539 80.2929 40.8226 80.0146 40.5913C79.3241 40.0617 78.5431 39.693 77.6447 39.5321C75.9888 39.2337 74.5608 39.4851 73.3641 40.293C73.2267 40.407 73.0658 40.5008 72.9283 40.5913C72.63 40.8461 72.3752 41.074 72.1473 41.3288C71.9864 41.4897 71.8724 41.6506 71.7786 41.788C71.4802 42.2473 71.1115 42.9847 70.6958 43.9971L63.2173 61.143Z" fill="url(#paint5_linear_1961_9299)" fill-opacity="0.57"/>
<path d="M47.8915 77.2968L36.1324 66.6907V87.3095H40.3895V76.8845L52.2626 87.9531V67.5422H47.8915V77.2968Z" fill="url(#paint6_linear_1961_9299)" fill-opacity="0.57"/>
<path d="M73.5284 68.1858C71.916 69.0607 70.6288 70.2808 69.6634 71.7993C68.698 73.3178 68.1684 75.0207 68.098 76.8845C68.098 78.9091 68.5807 80.7058 69.526 82.3383C70.4478 83.9708 71.735 85.2613 73.3474 86.2267C74.9597 87.1921 76.7296 87.7687 78.6872 87.9531C78.9856 88 79.4247 88 79.9744 88C81.2181 88 82.4382 87.7687 83.6785 87.3095V82.5227C82.6427 83.1428 81.5164 83.4881 80.2493 83.5585C79.5822 83.5585 79.0761 83.5115 78.6839 83.421C77.1185 83.0992 75.8547 82.3618 74.886 81.2589C73.8971 80.1527 73.3909 78.8421 73.3909 77.3001C73.3909 75.6676 73.944 74.2866 75.0033 73.1335C76.086 71.9837 77.4436 71.2697 79.0761 71.0384C79.7666 70.9479 80.2258 70.901 80.4337 70.901C81.3555 70.901 82.4349 71.2462 83.6785 71.9133V67.5422C82.274 66.9656 80.665 66.6907 78.8213 66.6907C76.9106 66.7812 75.1407 67.2874 73.5284 68.1858Z" fill="url(#paint7_linear_1961_9299)" fill-opacity="0.57"/>
<path d="M64.6922 76.4453C66.2342 75.4799 66.9951 73.9815 66.9951 71.9333C66.9046 70.7366 66.4655 69.7478 65.6844 68.9433C64.9034 68.1388 63.9112 67.6762 62.7379 67.5387H54.2236V87.306H62.7379C64.2799 87.1921 65.5671 86.5686 66.5794 85.4188C67.5918 84.269 68.0979 82.888 68.0979 81.2991C67.984 78.9761 66.8308 77.3403 64.6922 76.4419V76.4453ZM58.5243 71.0383H60.5959C61.149 71.0383 61.6317 71.2227 62.0474 71.635C62.4832 72.0272 62.7145 72.4864 62.7379 73.0161C62.7379 73.6831 62.5536 74.2128 62.1614 74.6955C61.7692 75.1782 61.263 75.4095 60.6663 75.4095H58.5277V71.0383H58.5243ZM63.0564 82.8913C62.4362 83.2601 61.7457 83.421 60.9848 83.421H58.521V78.6576H60.9848C62.9625 78.7716 63.9749 79.6465 63.9749 81.2354C63.9749 81.9963 63.6531 82.5461 63.053 82.8913H63.0564Z" fill="url(#paint8_linear_1961_9299)" fill-opacity="0.57"/>
</g>
<defs>
<filter id="filter0_d_1961_9299" x="0.35791" y="0" width="118.632" height="120" filterUnits="userSpaceOnUse" color-interpolation-filters="sRGB">
<feFlood flood-opacity="0" result="BackgroundImageFix"/>
<feColorMatrix in="SourceAlpha" type="matrix" values="0 0 0 0 0 0 0 0 0 0 0 0 0 0 0 0 0 0 127 0" result="hardAlpha"/>
<feOffset/>
<feGaussianBlur stdDeviation="16"/>
<feComposite in2="hardAlpha" operator="out"/>
<feColorMatrix type="matrix" values="0 0 0 0 0 0 0 0 0 0 0 0 0 0 0 0 0 0 0.03 0"/>
<feBlend mode="normal" in2="BackgroundImageFix" result="effect1_dropShadow_1961_9299"/>
<feBlend mode="normal" in="SourceGraphic" in2="effect1_dropShadow_1961_9299" result="shape"/>
</filter>
<linearGradient id="paint0_linear_1961_9299" x1="31.8113" y1="88.295" x2="91.4902" y2="36.2382" gradientUnits="userSpaceOnUse">
<stop offset="0.114812" stop-color="#B39257"/>
<stop offset="0.814205" stop-color="#DEC79F"/>
</linearGradient>
<linearGradient id="paint1_linear_1961_9299" x1="31.8113" y1="88.295" x2="91.4902" y2="36.2382" gradientUnits="userSpaceOnUse">
<stop offset="0.114812" stop-color="#B39257"/>
<stop offset="0.814205" stop-color="#DEC79F"/>
</linearGradient>
<linearGradient id="paint2_linear_1961_9299" x1="31.8113" y1="88.295" x2="91.4902" y2="36.2382" gradientUnits="userSpaceOnUse">
<stop offset="0.114812" stop-color="#B39257"/>
<stop offset="0.814205" stop-color="#DEC79F"/>
</linearGradient>
<linearGradient id="paint3_linear_1961_9299" x1="31.8113" y1="88.295" x2="91.4902" y2="36.2382" gradientUnits="userSpaceOnUse">
<stop offset="0.114812" stop-color="#B39257"/>
<stop offset="0.814205" stop-color="#DEC79F"/>
</linearGradient>
<linearGradient id="paint4_linear_1961_9299" x1="31.8113" y1="88.295" x2="91.4902" y2="36.2382" gradientUnits="userSpaceOnUse">
<stop offset="0.114812" stop-color="#B39257"/>
<stop offset="0.814205" stop-color="#DEC79F"/>
</linearGradient>
<linearGradient id="paint5_linear_1961_9299" x1="31.8113" y1="88.295" x2="91.4902" y2="36.2382" gradientUnits="userSpaceOnUse">
<stop offset="0.114812" stop-color="#B39257"/>
<stop offset="0.814205" stop-color="#DEC79F"/>
</linearGradient>
<linearGradient id="paint6_linear_1961_9299" x1="31.8113" y1="88.295" x2="91.4902" y2="36.2382" gradientUnits="userSpaceOnUse">
<stop offset="0.114812" stop-color="#B39257"/>
<stop offset="0.814205" stop-color="#DEC79F"/>
</linearGradient>
<linearGradient id="paint7_linear_1961_9299" x1="31.8113" y1="88.295" x2="91.4902" y2="36.2382" gradientUnits="userSpaceOnUse">
<stop offset="0.114812" stop-color="#B39257"/>
<stop offset="0.814205" stop-color="#DEC79F"/>
</linearGradient>
<linearGradient id="paint8_linear_1961_9299" x1="31.8113" y1="88.295" x2="91.4902" y2="36.2382" gradientUnits="userSpaceOnUse">
<stop offset="0.114812" stop-color="#B39257"/>
<stop offset="0.814205" stop-color="#DEC79F"/>
</linearGradient>
</defs>
</svg>
