<svg width="120" height="120" viewBox="0 0 120 120" fill="none" xmlns="http://www.w3.org/2000/svg">
<g filter="url(#filter0_d_1302_10476)">
<path d="M57.1454 62.9164L42.4163 52.9975C42.0476 52.7662 41.7258 52.5383 41.4275 52.3774C40.9917 52.1025 40.623 51.8947 40.3213 51.7807C39.7011 51.5494 38.9871 51.4354 38.1357 51.4354C37.0764 51.4354 36.0876 51.7338 35.1456 52.3774C34.8004 52.6087 34.4786 52.8601 34.1568 53.1819C33.0975 54.2881 32.5679 55.6222 32.5679 57.2077C32.5679 58.7933 33.0975 60.0838 34.1568 61.19C34.6395 61.6727 35.1456 62.0415 35.6987 62.2962C36.4597 62.7119 37.2876 62.9164 38.1391 62.9164H57.1488H57.1454Z" fill="url(#paint0_linear_1302_10476)" fill-opacity="0.75"/>
<path d="M57.1454 62.9164L42.4163 52.9975C42.0476 52.7662 41.7258 52.5383 41.4275 52.3774C40.9917 52.1025 40.623 51.8947 40.3213 51.7807C39.7011 51.5494 38.9871 51.4354 38.1357 51.4354C37.0764 51.4354 36.0876 51.7338 35.1456 52.3774C34.8004 52.6087 34.4786 52.8601 34.1568 53.1819C33.0975 54.2881 32.5679 55.6222 32.5679 57.2077C32.5679 58.7933 33.0975 60.0838 34.1568 61.19C34.6395 61.6727 35.1456 62.0415 35.6987 62.2962C36.4597 62.7119 37.2876 62.9164 38.1391 62.9164H57.1488H57.1454Z" fill="#3D4043" fill-opacity="0.5"/>
<path d="M38.2296 48.2776C38.6218 48.8978 39.128 49.4039 39.7246 49.7961L56.3175 61.143L48.839 43.997C48.7485 43.8127 48.6781 43.6283 48.6077 43.4674C48.3093 42.7299 48.0311 42.1802 47.7797 41.788C47.6657 41.6506 47.5484 41.4896 47.411 41.3287C47.1797 41.074 46.9048 40.8226 46.6065 40.5913C46.4456 40.5008 46.3081 40.4069 46.1707 40.293C44.974 39.4884 43.546 39.2337 41.8901 39.532C40.9917 39.7164 40.2107 40.0617 39.5436 40.5913C39.2687 40.8226 39.014 41.0505 38.7827 41.3287C38.6218 41.5131 38.4843 41.7209 38.3469 41.9053C38.0016 42.4115 37.7268 42.9176 37.5659 43.4707C37.291 44.2987 37.2441 45.1971 37.4284 46.139C37.5893 46.9435 37.8642 47.681 38.2329 48.2776H38.2296Z" fill="url(#paint1_linear_1302_10476)" fill-opacity="0.75"/>
<path d="M38.2296 48.2776C38.6218 48.8978 39.128 49.4039 39.7246 49.7961L56.3175 61.143L48.839 43.997C48.7485 43.8127 48.6781 43.6283 48.6077 43.4674C48.3093 42.7299 48.0311 42.1802 47.7797 41.788C47.6657 41.6506 47.5484 41.4896 47.411 41.3287C47.1797 41.074 46.9048 40.8226 46.6065 40.5913C46.4456 40.5008 46.3081 40.4069 46.1707 40.293C44.974 39.4884 43.546 39.2337 41.8901 39.532C40.9917 39.7164 40.2107 40.0617 39.5436 40.5913C39.2687 40.8226 39.014 41.0505 38.7827 41.3287C38.6218 41.5131 38.4843 41.7209 38.3469 41.9053C38.0016 42.4115 37.7268 42.9176 37.5659 43.4707C37.291 44.2987 37.2441 45.1971 37.4284 46.139C37.5893 46.9435 37.8642 47.681 38.2329 48.2776H38.2296Z" fill="#3D4043" fill-opacity="0.5"/>
<path d="M56.4549 58.6592L59.1467 39.8104C59.3076 38.7511 59.378 37.9466 59.3545 37.417C59.331 36.9108 59.217 36.4047 59.0327 35.8516C58.9858 35.6672 58.8952 35.4828 58.8249 35.275C58.2282 33.9174 57.1455 32.952 55.58 32.352C55.4191 32.2816 55.2582 32.238 55.0739 32.1911C54.1319 31.9363 53.1866 31.9363 52.2447 32.1911C51.9229 32.2816 51.6011 32.3989 51.2793 32.5363C49.8312 33.1799 48.839 34.2157 48.3093 35.6203C48.2859 35.6907 48.2389 35.7812 48.2188 35.8516C47.7361 37.303 47.7596 38.6807 48.3328 39.9947L56.4549 58.6592Z" fill="url(#paint2_linear_1302_10476)" fill-opacity="0.75"/>
<path d="M56.4549 58.6592L59.1467 39.8104C59.3076 38.7511 59.378 37.9466 59.3545 37.417C59.331 36.9108 59.217 36.4047 59.0327 35.8516C58.9858 35.6672 58.8952 35.4828 58.8249 35.275C58.2282 33.9174 57.1455 32.952 55.58 32.352C55.4191 32.2816 55.2582 32.238 55.0739 32.1911C54.1319 31.9363 53.1866 31.9363 52.2447 32.1911C51.9229 32.2816 51.6011 32.3989 51.2793 32.5363C49.8312 33.1799 48.839 34.2157 48.3093 35.6203C48.2859 35.6907 48.2389 35.7812 48.2188 35.8516C47.7361 37.303 47.7596 38.6807 48.3328 39.9947L56.4549 58.6592Z" fill="#3D4043" fill-opacity="0.5"/>
<path d="M86.1411 53.8489C85.9802 53.6176 85.7958 53.3897 85.588 53.1819C85.2662 52.8601 84.9209 52.6053 84.5756 52.3774C84.1834 52.079 83.7477 51.8712 83.3085 51.7103C82.7555 51.5259 82.1822 51.4354 81.6057 51.4354C80.7542 51.4354 80.0403 51.5494 79.4436 51.7807C79.1452 51.8947 78.7531 52.1025 78.3173 52.3774C78.0189 52.5383 77.6971 52.7696 77.3284 52.9975L62.5993 62.9164H81.609C82.7353 62.9164 83.7946 62.5711 84.8069 61.8571C85.0617 61.6727 85.3131 61.4414 85.588 61.19C85.6349 61.1431 85.6785 61.0995 85.7489 61.0291C86.369 60.3621 86.7847 59.6011 87.016 58.7262C87.0864 58.4715 87.1534 58.1966 87.1769 57.9217C87.2003 57.6904 87.2003 57.439 87.2003 57.2077C87.2003 55.9205 86.8551 54.7909 86.1411 53.8489Z" fill="url(#paint3_linear_1302_10476)" fill-opacity="0.75"/>
<path d="M86.1411 53.8489C85.9802 53.6176 85.7958 53.3897 85.588 53.1819C85.2662 52.8601 84.9209 52.6053 84.5756 52.3774C84.1834 52.079 83.7477 51.8712 83.3085 51.7103C82.7555 51.5259 82.1822 51.4354 81.6057 51.4354C80.7542 51.4354 80.0403 51.5494 79.4436 51.7807C79.1452 51.8947 78.7531 52.1025 78.3173 52.3774C78.0189 52.5383 77.6971 52.7696 77.3284 52.9975L62.5993 62.9164H81.609C82.7353 62.9164 83.7946 62.5711 84.8069 61.8571C85.0617 61.6727 85.3131 61.4414 85.588 61.19C85.6349 61.1431 85.6785 61.0995 85.7489 61.0291C86.369 60.3621 86.7847 59.6011 87.016 58.7262C87.0864 58.4715 87.1534 58.1966 87.1769 57.9217C87.2003 57.6904 87.2003 57.439 87.2003 57.2077C87.2003 55.9205 86.8551 54.7909 86.1411 53.8489Z" fill="#3D4043" fill-opacity="0.5"/>
<path d="M60.4137 38.4292H61.9557C62.4149 38.4762 62.7166 38.5432 62.7836 38.6605C62.8976 38.7745 62.6696 38.9589 62.1635 39.1667L61.7713 39.4215L61.2886 39.8137C61.0808 39.998 60.9668 40.2729 60.8964 40.5947C60.8495 40.826 60.826 41.0539 60.8495 41.3322C60.8495 41.4461 60.8495 41.54 60.8729 41.6774L63.2898 58.6625L71.4354 39.998C71.9885 38.7309 72.0354 37.3298 71.5259 35.8548C71.5024 35.7844 71.4555 35.6939 71.4354 35.6235C70.8823 34.1955 69.8934 33.1832 68.4654 32.5396C68.1436 32.4022 67.8218 32.2848 67.5 32.1943C66.5581 31.9396 65.6128 31.9396 64.6708 32.1943C64.4865 32.2413 64.3256 32.2848 64.1647 32.3552C62.5993 32.9519 61.5165 33.9441 60.9199 35.2783C60.8495 35.4861 60.759 35.6705 60.6886 35.8548C60.4137 36.6828 60.3198 37.4873 60.4137 38.3186V38.4326V38.4292Z" fill="url(#paint4_linear_1302_10476)" fill-opacity="0.75"/>
<path d="M60.4137 38.4292H61.9557C62.4149 38.4762 62.7166 38.5432 62.7836 38.6605C62.8976 38.7745 62.6696 38.9589 62.1635 39.1667L61.7713 39.4215L61.2886 39.8137C61.0808 39.998 60.9668 40.2729 60.8964 40.5947C60.8495 40.826 60.826 41.0539 60.8495 41.3322C60.8495 41.4461 60.8495 41.54 60.8729 41.6774L63.2898 58.6625L71.4354 39.998C71.9885 38.7309 72.0354 37.3298 71.5259 35.8548C71.5024 35.7844 71.4555 35.6939 71.4354 35.6235C70.8823 34.1955 69.8934 33.1832 68.4654 32.5396C68.1436 32.4022 67.8218 32.2848 67.5 32.1943C66.5581 31.9396 65.6128 31.9396 64.6708 32.1943C64.4865 32.2413 64.3256 32.2848 64.1647 32.3552C62.5993 32.9519 61.5165 33.9441 60.9199 35.2783C60.8495 35.4861 60.759 35.6705 60.6886 35.8548C60.4137 36.6828 60.3198 37.4873 60.4137 38.3186V38.4326V38.4292Z" fill="#3D4043" fill-opacity="0.5"/>
<path d="M63.4273 61.143L80.0201 49.7962C80.6403 49.3805 81.1263 48.8978 81.5152 48.2777C81.5621 48.2308 81.5856 48.1872 81.6057 48.1168C81.8135 47.7715 81.9744 47.3793 82.1118 46.967C82.1822 46.7123 82.2727 46.4139 82.3197 46.139C82.4102 45.7033 82.4571 45.2642 82.4336 44.8518C82.3867 43.8395 82.0649 42.8741 81.4213 41.9054C81.2839 41.721 81.1464 41.5132 80.9855 41.3288C80.7542 41.0539 80.5028 40.8226 80.2246 40.5913C79.5341 40.0617 78.753 39.693 77.8547 39.5321C76.1987 39.2337 74.7708 39.4851 73.5741 40.293C73.4366 40.407 73.2757 40.5008 73.1383 40.5913C72.8399 40.8461 72.5852 41.074 72.3572 41.3288C72.1963 41.4897 72.0824 41.6506 71.9885 41.788C71.6902 42.2473 71.3214 42.9847 70.9058 43.9971L63.4273 61.143Z" fill="url(#paint5_linear_1302_10476)" fill-opacity="0.75"/>
<path d="M63.4273 61.143L80.0201 49.7962C80.6403 49.3805 81.1263 48.8978 81.5152 48.2777C81.5621 48.2308 81.5856 48.1872 81.6057 48.1168C81.8135 47.7715 81.9744 47.3793 82.1118 46.967C82.1822 46.7123 82.2727 46.4139 82.3197 46.139C82.4102 45.7033 82.4571 45.2642 82.4336 44.8518C82.3867 43.8395 82.0649 42.8741 81.4213 41.9054C81.2839 41.721 81.1464 41.5132 80.9855 41.3288C80.7542 41.0539 80.5028 40.8226 80.2246 40.5913C79.5341 40.0617 78.753 39.693 77.8547 39.5321C76.1987 39.2337 74.7708 39.4851 73.5741 40.293C73.4366 40.407 73.2757 40.5008 73.1383 40.5913C72.8399 40.8461 72.5852 41.074 72.3572 41.3288C72.1963 41.4897 72.0824 41.6506 71.9885 41.788C71.6902 42.2473 71.3214 42.9847 70.9058 43.9971L63.4273 61.143Z" fill="#3D4043" fill-opacity="0.5"/>
<path d="M48.1015 77.2968L36.3423 66.6907V87.3095H40.5995V76.8845L52.4726 87.9531V67.5422H48.1015V77.2968Z" fill="url(#paint6_linear_1302_10476)" fill-opacity="0.75"/>
<path d="M48.1015 77.2968L36.3423 66.6907V87.3095H40.5995V76.8845L52.4726 87.9531V67.5422H48.1015V77.2968Z" fill="#3D4043" fill-opacity="0.5"/>
<path d="M73.7383 68.1858C72.126 69.0607 70.8388 70.2808 69.8734 71.7993C68.908 73.3178 68.3783 75.0207 68.3079 76.8845C68.3079 78.9091 68.7906 80.7058 69.7359 82.3383C70.6578 83.9708 71.945 85.2613 73.5573 86.2267C75.1697 87.1921 76.9396 87.7687 78.8972 87.9531C79.1955 88 79.6347 88 80.1844 88C81.428 88 82.6482 87.7687 83.8885 87.3095V82.5227C82.8527 83.1428 81.7264 83.4881 80.4593 83.5585C79.7922 83.5585 79.286 83.5115 78.8938 83.421C77.3284 83.0992 76.0647 82.3618 75.0959 81.2589C74.1071 80.1527 73.6009 78.8421 73.6009 77.3001C73.6009 75.6676 74.154 74.2866 75.2132 73.1335C76.296 71.9837 77.6536 71.2697 79.286 71.0384C79.9766 70.9479 80.4358 70.901 80.6436 70.901C81.5655 70.901 82.6448 71.2462 83.8885 71.9133V67.5422C82.4839 66.9656 80.8749 66.6907 79.0313 66.6907C77.1206 66.7812 75.3507 67.2874 73.7383 68.1858Z" fill="url(#paint7_linear_1302_10476)" fill-opacity="0.75"/>
<path d="M73.7383 68.1858C72.126 69.0607 70.8388 70.2808 69.8734 71.7993C68.908 73.3178 68.3783 75.0207 68.3079 76.8845C68.3079 78.9091 68.7906 80.7058 69.7359 82.3383C70.6578 83.9708 71.945 85.2613 73.5573 86.2267C75.1697 87.1921 76.9396 87.7687 78.8972 87.9531C79.1955 88 79.6347 88 80.1844 88C81.428 88 82.6482 87.7687 83.8885 87.3095V82.5227C82.8527 83.1428 81.7264 83.4881 80.4593 83.5585C79.7922 83.5585 79.286 83.5115 78.8938 83.421C77.3284 83.0992 76.0647 82.3618 75.0959 81.2589C74.1071 80.1527 73.6009 78.8421 73.6009 77.3001C73.6009 75.6676 74.154 74.2866 75.2132 73.1335C76.296 71.9837 77.6536 71.2697 79.286 71.0384C79.9766 70.9479 80.4358 70.901 80.6436 70.901C81.5655 70.901 82.6448 71.2462 83.8885 71.9133V67.5422C82.4839 66.9656 80.8749 66.6907 79.0313 66.6907C77.1206 66.7812 75.3507 67.2874 73.7383 68.1858Z" fill="#3D4043" fill-opacity="0.5"/>
<path d="M64.9022 76.4453C66.4441 75.4799 67.2051 73.9815 67.2051 71.9333C67.1145 70.7366 66.6754 69.7478 65.8944 68.9433C65.1133 68.1388 64.1211 67.6762 62.9479 67.5387H54.4336V87.306H62.9479C64.4899 87.1921 65.7771 86.5686 66.7894 85.4188C67.8017 84.269 68.3079 82.888 68.3079 81.2991C68.1939 78.9761 67.0408 77.3403 64.9022 76.4419V76.4453ZM58.7343 71.0383H60.8059C61.359 71.0383 61.8417 71.2227 62.2574 71.635C62.6931 72.0272 62.9244 72.4864 62.9479 73.0161C62.9479 73.6831 62.7635 74.2128 62.3713 74.6955C61.9791 75.1782 61.473 75.4095 60.8763 75.4095H58.7377V71.0383H58.7343ZM63.2663 82.8913C62.6462 83.2601 61.9557 83.421 61.1947 83.421H58.731V78.6576H61.1947C63.1725 78.7716 64.1848 79.6465 64.1848 81.2354C64.1848 81.9963 63.863 82.5461 63.263 82.8913H63.2663Z" fill="url(#paint8_linear_1302_10476)" fill-opacity="0.75"/>
<path d="M64.9022 76.4453C66.4441 75.4799 67.2051 73.9815 67.2051 71.9333C67.1145 70.7366 66.6754 69.7478 65.8944 68.9433C65.1133 68.1388 64.1211 67.6762 62.9479 67.5387H54.4336V87.306H62.9479C64.4899 87.1921 65.7771 86.5686 66.7894 85.4188C67.8017 84.269 68.3079 82.888 68.3079 81.2991C68.1939 78.9761 67.0408 77.3403 64.9022 76.4419V76.4453ZM58.7343 71.0383H60.8059C61.359 71.0383 61.8417 71.2227 62.2574 71.635C62.6931 72.0272 62.9244 72.4864 62.9479 73.0161C62.9479 73.6831 62.7635 74.2128 62.3713 74.6955C61.9791 75.1782 61.473 75.4095 60.8763 75.4095H58.7377V71.0383H58.7343ZM63.2663 82.8913C62.6462 83.2601 61.9557 83.421 61.1947 83.421H58.731V78.6576H61.1947C63.1725 78.7716 64.1848 79.6465 64.1848 81.2354C64.1848 81.9963 63.863 82.5461 63.263 82.8913H63.2663Z" fill="#3D4043" fill-opacity="0.5"/>
</g>
<defs>
<filter id="filter0_d_1302_10476" x="0.567871" y="0" width="118.633" height="120" filterUnits="userSpaceOnUse" color-interpolation-filters="sRGB">
<feFlood flood-opacity="0" result="BackgroundImageFix"/>
<feColorMatrix in="SourceAlpha" type="matrix" values="0 0 0 0 0 0 0 0 0 0 0 0 0 0 0 0 0 0 127 0" result="hardAlpha"/>
<feOffset/>
<feGaussianBlur stdDeviation="16"/>
<feComposite in2="hardAlpha" operator="out"/>
<feColorMatrix type="matrix" values="0 0 0 0 0 0 0 0 0 0 0 0 0 0 0 0 0 0 0.03 0"/>
<feBlend mode="normal" in2="BackgroundImageFix" result="effect1_dropShadow_1302_10476"/>
<feBlend mode="normal" in="SourceGraphic" in2="effect1_dropShadow_1302_10476" result="shape"/>
</filter>
<linearGradient id="paint0_linear_1302_10476" x1="32.0213" y1="88.295" x2="91.7001" y2="36.2382" gradientUnits="userSpaceOnUse">
<stop offset="0.114812" stop-color="#B39257"/>
<stop offset="0.814205" stop-color="#DEC79F"/>
</linearGradient>
<linearGradient id="paint1_linear_1302_10476" x1="32.0213" y1="88.295" x2="91.7001" y2="36.2382" gradientUnits="userSpaceOnUse">
<stop offset="0.114812" stop-color="#B39257"/>
<stop offset="0.814205" stop-color="#DEC79F"/>
</linearGradient>
<linearGradient id="paint2_linear_1302_10476" x1="32.0213" y1="88.295" x2="91.7001" y2="36.2382" gradientUnits="userSpaceOnUse">
<stop offset="0.114812" stop-color="#B39257"/>
<stop offset="0.814205" stop-color="#DEC79F"/>
</linearGradient>
<linearGradient id="paint3_linear_1302_10476" x1="32.0213" y1="88.295" x2="91.7001" y2="36.2382" gradientUnits="userSpaceOnUse">
<stop offset="0.114812" stop-color="#B39257"/>
<stop offset="0.814205" stop-color="#DEC79F"/>
</linearGradient>
<linearGradient id="paint4_linear_1302_10476" x1="32.0213" y1="88.295" x2="91.7001" y2="36.2382" gradientUnits="userSpaceOnUse">
<stop offset="0.114812" stop-color="#B39257"/>
<stop offset="0.814205" stop-color="#DEC79F"/>
</linearGradient>
<linearGradient id="paint5_linear_1302_10476" x1="32.0213" y1="88.295" x2="91.7001" y2="36.2382" gradientUnits="userSpaceOnUse">
<stop offset="0.114812" stop-color="#B39257"/>
<stop offset="0.814205" stop-color="#DEC79F"/>
</linearGradient>
<linearGradient id="paint6_linear_1302_10476" x1="32.0213" y1="88.295" x2="91.7001" y2="36.2382" gradientUnits="userSpaceOnUse">
<stop offset="0.114812" stop-color="#B39257"/>
<stop offset="0.814205" stop-color="#DEC79F"/>
</linearGradient>
<linearGradient id="paint7_linear_1302_10476" x1="32.0213" y1="88.295" x2="91.7001" y2="36.2382" gradientUnits="userSpaceOnUse">
<stop offset="0.114812" stop-color="#B39257"/>
<stop offset="0.814205" stop-color="#DEC79F"/>
</linearGradient>
<linearGradient id="paint8_linear_1302_10476" x1="32.0213" y1="88.295" x2="91.7001" y2="36.2382" gradientUnits="userSpaceOnUse">
<stop offset="0.114812" stop-color="#B39257"/>
<stop offset="0.814205" stop-color="#DEC79F"/>
</linearGradient>
</defs>
</svg>
