<svg width="96" height="96" viewBox="0 0 96 96" fill="none" xmlns="http://www.w3.org/2000/svg">
<path fill-rule="evenodd" clip-rule="evenodd" d="M72.5847 50.4681L55.9657 60.4401L39.4849 70.3293C37.5699 71.4783 35.1525 70.0739 35.1525 67.8125V47.9515V28.0903C35.1525 25.8287 37.5699 24.4245 39.4849 25.5735L55.9657 35.4627L72.5847 45.4347C74.4689 46.5651 74.4689 49.3375 72.5847 50.4681ZM95.8219 45.1951C94.2997 18.7569 71.6333 -1.44151 45.1951 0.0806867C18.7567 1.60289 -1.44151 24.2695 0.0806875 50.7077C1.60289 77.1459 24.2693 97.3443 50.7075 95.8221C77.1457 94.2997 97.3441 71.6333 95.8219 45.1951Z" fill="#EC7F00"/>
<path fill-rule="evenodd" clip-rule="evenodd" d="M72.5847 50.4681L55.9657 60.4401L39.4849 70.3293C37.5699 71.4783 35.1525 70.0739 35.1525 67.8125V47.9515V28.0903C35.1525 25.8287 37.5699 24.4245 39.4849 25.5735L55.9657 35.4627L72.5847 45.4347C74.4689 46.5651 74.4689 49.3375 72.5847 50.4681ZM95.8219 45.1951C94.2997 18.7569 71.6333 -1.44151 45.1951 0.0806867C18.7567 1.60289 -1.44151 24.2695 0.0806875 50.7077C1.60289 77.1459 24.2693 97.3443 50.7075 95.8221C77.1457 94.2997 97.3441 71.6333 95.8219 45.1951Z" fill="#908271"/>
<path fill-rule="evenodd" clip-rule="evenodd" d="M72.5847 50.4681L55.9657 60.4401L39.4849 70.3293C37.5699 71.4783 35.1525 70.0739 35.1525 67.8125V47.9515V28.0903C35.1525 25.8287 37.5699 24.4245 39.4849 25.5735L55.9657 35.4627L72.5847 45.4347C74.4689 46.5651 74.4689 49.3375 72.5847 50.4681ZM95.8219 45.1951C94.2997 18.7569 71.6333 -1.44151 45.1951 0.0806867C18.7567 1.60289 -1.44151 24.2695 0.0806875 50.7077C1.60289 77.1459 24.2693 97.3443 50.7075 95.8221C77.1457 94.2997 97.3441 71.6333 95.8219 45.1951Z" fill="url(#paint0_linear_2015_1652)"/>
<defs>
<linearGradient id="paint0_linear_2015_1652" x1="-0.958789" y1="96.408" x2="101.557" y2="4.74699" gradientUnits="userSpaceOnUse">
<stop offset="0.085" stop-color="#D0AB5E"/>
<stop offset="0.609375" stop-color="#E2CD83"/>
<stop offset="1" stop-color="#F9F7C3"/>
</linearGradient>
</defs>
</svg>
