<svg width="214" height="120" viewBox="0 0 214 120" fill="none" xmlns="http://www.w3.org/2000/svg">
<g filter="url(#filter0_d_1302_10478)">
<path d="M50.8521 43.5009C50.3953 41.5773 49.012 40.5455 47.2479 39.9444C46.3843 39.6504 45.4892 39.4475 44.4693 39.1654C45.9177 37.1594 47.3466 35.1815 48.8569 33.0897C48.0052 33.1017 47.964 33.8492 47.5018 34.0781C47.4887 34.0781 47.467 34.0846 47.454 34.0781C47.3444 34.0152 47.236 33.9523 47.1296 33.885C45.0053 32.5386 42.6987 31.9625 40.2044 32.3541C38.0595 32.6905 36.3073 33.6756 35.5847 35.8531C34.835 38.1152 35.4079 40.2493 37.9933 41.1965C38.4837 41.3755 38.9817 41.5382 39.4873 41.6673C40.2695 41.867 41.0615 42.0319 41.8438 42.2109C41.6843 42.7642 41.3545 42.8434 40.8738 42.7002C40.4442 42.5722 39.9874 42.532 39.5513 42.4214C37.8327 41.9841 36.0675 41.6185 35.1301 39.8446C33.9801 40.7722 34.0365 42.7208 35.2245 43.7873C35.9568 44.4448 36.8519 44.7768 37.7806 45.0307C38.3643 45.1901 38.9545 45.3247 39.6706 45.5026C39.0305 46.1612 38.488 46.7622 37.8978 47.3123C37.5517 47.6356 37.1503 47.7832 36.6848 47.4078C36.534 47.2863 36.214 47.3134 35.9948 47.3676C35.9037 47.3904 35.7832 47.7474 35.8364 47.806C35.9883 47.973 36.2118 48.1379 36.4277 48.1748C37.1731 48.2985 37.8305 48.0392 38.3567 47.5228C38.897 46.9922 39.3809 46.4064 39.905 45.8585C40.0124 45.7467 40.2077 45.6068 40.3259 45.635C41.5161 45.9181 42.7247 46.159 43.878 46.5572C45.5228 47.1246 46.7466 48.1054 46.5611 50.2059C47.1351 49.5972 47.4041 48.9636 47.5821 48.2877C48.1375 46.1785 47.3553 44.6227 45.3351 43.8144C45.0346 43.694 44.7265 43.5866 44.4129 43.5085C43.6285 43.3121 42.8397 43.1363 41.8796 42.9118C42.1953 42.6926 42.4275 42.3964 42.613 42.4235C44.005 42.6242 45.3981 42.8575 46.6425 43.5779C48.0334 44.3819 48.757 45.8715 48.5542 47.4729C48.3274 49.2641 47.2794 50.6149 46.1846 51.9537C46.0978 51.9005 46.0306 51.8713 45.9763 51.8257C43.5938 49.8001 40.8098 49.2912 37.8023 49.71C35.9905 49.9617 34.3891 50.6702 33.2803 52.1967C32.1791 53.7124 31.8948 55.3919 32.5436 57.1691C32.6629 57.4956 32.9667 57.794 33.2586 58.0023C33.3888 58.0956 33.7012 57.935 33.9312 57.8895C33.8336 57.6844 33.7913 57.398 33.6296 57.2884C32.8593 56.7676 32.6054 56.172 32.8767 55.2747C33.1664 54.3156 33.9215 53.8231 34.7916 53.5041C36.546 52.8596 38.3535 52.7718 40.1773 53.1309C41.6463 53.4195 42.9081 54.1323 44.0147 55.1652C44.1146 55.0718 44.1981 55.0057 44.2686 54.9276C45.2375 53.8545 46.2356 52.8065 47.1654 51.6998C48.2091 50.4576 49.2572 49.2099 50.1772 47.8776C51.0821 46.5669 51.2177 45.0459 50.8521 43.5063V43.5009ZM43.6556 39.0407C42.2463 38.7412 40.8272 38.4722 39.446 38.0729C38.7723 37.8787 38.1289 37.4892 37.5506 37.078C36.9018 36.6169 36.6664 35.9149 36.8302 35.1099C37.0016 34.2669 37.5094 33.7418 38.3296 33.5031C39.2095 33.247 40.0894 33.3284 40.9465 33.5682C42.8408 34.0966 44.2838 35.2911 45.5727 36.7731C45.0758 37.4838 44.6017 38.1846 44.0972 38.8638C44.0147 38.9756 43.788 39.07 43.6556 39.0418V39.0407Z" fill="url(#paint0_linear_1302_10478)" fill-opacity="0.75"/>
<path d="M50.8521 43.5009C50.3953 41.5773 49.012 40.5455 47.2479 39.9444C46.3843 39.6504 45.4892 39.4475 44.4693 39.1654C45.9177 37.1594 47.3466 35.1815 48.8569 33.0897C48.0052 33.1017 47.964 33.8492 47.5018 34.0781C47.4887 34.0781 47.467 34.0846 47.454 34.0781C47.3444 34.0152 47.236 33.9523 47.1296 33.885C45.0053 32.5386 42.6987 31.9625 40.2044 32.3541C38.0595 32.6905 36.3073 33.6756 35.5847 35.8531C34.835 38.1152 35.4079 40.2493 37.9933 41.1965C38.4837 41.3755 38.9817 41.5382 39.4873 41.6673C40.2695 41.867 41.0615 42.0319 41.8438 42.2109C41.6843 42.7642 41.3545 42.8434 40.8738 42.7002C40.4442 42.5722 39.9874 42.532 39.5513 42.4214C37.8327 41.9841 36.0675 41.6185 35.1301 39.8446C33.9801 40.7722 34.0365 42.7208 35.2245 43.7873C35.9568 44.4448 36.8519 44.7768 37.7806 45.0307C38.3643 45.1901 38.9545 45.3247 39.6706 45.5026C39.0305 46.1612 38.488 46.7622 37.8978 47.3123C37.5517 47.6356 37.1503 47.7832 36.6848 47.4078C36.534 47.2863 36.214 47.3134 35.9948 47.3676C35.9037 47.3904 35.7832 47.7474 35.8364 47.806C35.9883 47.973 36.2118 48.1379 36.4277 48.1748C37.1731 48.2985 37.8305 48.0392 38.3567 47.5228C38.897 46.9922 39.3809 46.4064 39.905 45.8585C40.0124 45.7467 40.2077 45.6068 40.3259 45.635C41.5161 45.9181 42.7247 46.159 43.878 46.5572C45.5228 47.1246 46.7466 48.1054 46.5611 50.2059C47.1351 49.5972 47.4041 48.9636 47.5821 48.2877C48.1375 46.1785 47.3553 44.6227 45.3351 43.8144C45.0346 43.694 44.7265 43.5866 44.4129 43.5085C43.6285 43.3121 42.8397 43.1363 41.8796 42.9118C42.1953 42.6926 42.4275 42.3964 42.613 42.4235C44.005 42.6242 45.3981 42.8575 46.6425 43.5779C48.0334 44.3819 48.757 45.8715 48.5542 47.4729C48.3274 49.2641 47.2794 50.6149 46.1846 51.9537C46.0978 51.9005 46.0306 51.8713 45.9763 51.8257C43.5938 49.8001 40.8098 49.2912 37.8023 49.71C35.9905 49.9617 34.3891 50.6702 33.2803 52.1967C32.1791 53.7124 31.8948 55.3919 32.5436 57.1691C32.6629 57.4956 32.9667 57.794 33.2586 58.0023C33.3888 58.0956 33.7012 57.935 33.9312 57.8895C33.8336 57.6844 33.7913 57.398 33.6296 57.2884C32.8593 56.7676 32.6054 56.172 32.8767 55.2747C33.1664 54.3156 33.9215 53.8231 34.7916 53.5041C36.546 52.8596 38.3535 52.7718 40.1773 53.1309C41.6463 53.4195 42.9081 54.1323 44.0147 55.1652C44.1146 55.0718 44.1981 55.0057 44.2686 54.9276C45.2375 53.8545 46.2356 52.8065 47.1654 51.6998C48.2091 50.4576 49.2572 49.2099 50.1772 47.8776C51.0821 46.5669 51.2177 45.0459 50.8521 43.5063V43.5009ZM43.6556 39.0407C42.2463 38.7412 40.8272 38.4722 39.446 38.0729C38.7723 37.8787 38.1289 37.4892 37.5506 37.078C36.9018 36.6169 36.6664 35.9149 36.8302 35.1099C37.0016 34.2669 37.5094 33.7418 38.3296 33.5031C39.2095 33.247 40.0894 33.3284 40.9465 33.5682C42.8408 34.0966 44.2838 35.2911 45.5727 36.7731C45.0758 37.4838 44.6017 38.1846 44.0972 38.8638C44.0147 38.9756 43.788 39.07 43.6556 39.0418V39.0407Z" fill="#3D4043" fill-opacity="0.5"/>
<path d="M78.783 57.9014C78.9891 58.024 79.4697 58.0316 79.5847 57.8927C79.8581 57.5607 79.5229 57.3513 79.2343 57.219C78.7482 56.9965 78.5595 56.6049 78.5204 56.0982C78.4271 54.8755 79.0846 53.9728 80.4701 53.618C82.8298 53.0137 85.0605 53.184 86.9667 54.9167C87.0861 55.0252 87.2152 55.1207 87.4105 55.278C88.6994 54.3655 90.0187 53.4846 91.2794 52.5266C92.6095 51.5143 93.3809 50.1505 93.4471 48.4558C93.5014 47.0476 93.497 45.6382 93.5176 44.2289C93.5209 44.0217 93.5176 43.8133 93.5176 43.6105H95.2362C95.2362 43.8741 95.2362 44.0889 95.2362 44.3037C95.2362 47.5033 95.2362 50.7039 95.2362 53.9034C95.2362 54.0477 95.2134 54.1996 95.2492 54.3352C95.2752 54.4317 95.3827 54.5066 95.4543 54.5923C95.5367 54.5001 95.6593 54.4209 95.693 54.3135C95.7353 54.1822 95.7049 54.027 95.7049 53.8827C95.7049 50.6832 95.7049 47.4826 95.7049 44.2831C95.7049 44.0694 95.7049 43.8557 95.7049 43.5627C95.9631 43.5627 96.1768 43.5823 96.3841 43.5562C96.5132 43.5399 96.7009 43.489 96.7464 43.3967C97.1565 42.5592 97.5417 41.7096 97.9768 40.7701H95.7288V36.7352C96.8929 37.1713 98.0213 37.2462 99.0954 36.6126C100.162 35.9822 100.731 35.0188 101.043 33.7223C99.231 34.3081 97.8238 33.8893 96.6889 32.506C93.1043 35.0893 89.1844 36.9391 85.0778 38.4439C85.1484 38.687 85.2232 38.8877 85.2634 39.096C85.3078 39.326 85.3219 39.5614 85.3447 39.7958C85.4062 40.4381 85.1147 40.7744 84.4703 40.8048C83.2443 40.8634 82.4848 41.4785 82.2765 42.583C82.0996 43.5215 82.3774 44.3873 82.9665 44.7356C83.4482 43.6463 84.1773 43.3143 85.3328 43.6615C85.3328 44.8137 85.336 45.9691 85.3328 47.1235C85.3295 48.1065 84.8912 48.8518 84.0775 49.3889C83.9907 49.4464 83.9343 49.5516 83.8649 49.6352C83.8898 49.6775 83.9148 49.7198 83.9408 49.7621C84.4551 49.5668 84.9726 49.3802 85.4836 49.1752C87.6676 48.3018 88.7092 46.7047 88.6473 44.3352C88.5941 42.3118 88.6365 40.2862 88.6365 38.2606C88.6365 37.3785 88.7992 37.2006 89.716 37.0747C89.716 42.1838 89.716 47.2928 89.716 52.5396C87.7457 50.4207 85.3979 49.8901 82.7517 50.2395C79.4882 50.6702 77.5407 53.184 78.0181 56.415C78.1038 56.9944 78.2481 57.5846 78.783 57.9025V57.9014ZM93.5719 34.9786C94.0981 35.482 94.6167 35.9605 95.1103 36.465C95.2047 36.5616 95.2297 36.7579 95.2308 36.9077C95.2405 38.0425 95.2221 39.1774 95.2438 40.3122C95.2514 40.6996 95.1136 40.8211 94.7425 40.7939C94.3682 40.7679 93.9896 40.7885 93.573 40.7885V34.9786H93.5719Z" fill="url(#paint1_linear_1302_10478)" fill-opacity="0.75"/>
<path d="M78.783 57.9014C78.9891 58.024 79.4697 58.0316 79.5847 57.8927C79.8581 57.5607 79.5229 57.3513 79.2343 57.219C78.7482 56.9965 78.5595 56.6049 78.5204 56.0982C78.4271 54.8755 79.0846 53.9728 80.4701 53.618C82.8298 53.0137 85.0605 53.184 86.9667 54.9167C87.0861 55.0252 87.2152 55.1207 87.4105 55.278C88.6994 54.3655 90.0187 53.4846 91.2794 52.5266C92.6095 51.5143 93.3809 50.1505 93.4471 48.4558C93.5014 47.0476 93.497 45.6382 93.5176 44.2289C93.5209 44.0217 93.5176 43.8133 93.5176 43.6105H95.2362C95.2362 43.8741 95.2362 44.0889 95.2362 44.3037C95.2362 47.5033 95.2362 50.7039 95.2362 53.9034C95.2362 54.0477 95.2134 54.1996 95.2492 54.3352C95.2752 54.4317 95.3827 54.5066 95.4543 54.5923C95.5367 54.5001 95.6593 54.4209 95.693 54.3135C95.7353 54.1822 95.7049 54.027 95.7049 53.8827C95.7049 50.6832 95.7049 47.4826 95.7049 44.2831C95.7049 44.0694 95.7049 43.8557 95.7049 43.5627C95.9631 43.5627 96.1768 43.5823 96.3841 43.5562C96.5132 43.5399 96.7009 43.489 96.7464 43.3967C97.1565 42.5592 97.5417 41.7096 97.9768 40.7701H95.7288V36.7352C96.8929 37.1713 98.0213 37.2462 99.0954 36.6126C100.162 35.9822 100.731 35.0188 101.043 33.7223C99.231 34.3081 97.8238 33.8893 96.6889 32.506C93.1043 35.0893 89.1844 36.9391 85.0778 38.4439C85.1484 38.687 85.2232 38.8877 85.2634 39.096C85.3078 39.326 85.3219 39.5614 85.3447 39.7958C85.4062 40.4381 85.1147 40.7744 84.4703 40.8048C83.2443 40.8634 82.4848 41.4785 82.2765 42.583C82.0996 43.5215 82.3774 44.3873 82.9665 44.7356C83.4482 43.6463 84.1773 43.3143 85.3328 43.6615C85.3328 44.8137 85.336 45.9691 85.3328 47.1235C85.3295 48.1065 84.8912 48.8518 84.0775 49.3889C83.9907 49.4464 83.9343 49.5516 83.8649 49.6352C83.8898 49.6775 83.9148 49.7198 83.9408 49.7621C84.4551 49.5668 84.9726 49.3802 85.4836 49.1752C87.6676 48.3018 88.7092 46.7047 88.6473 44.3352C88.5941 42.3118 88.6365 40.2862 88.6365 38.2606C88.6365 37.3785 88.7992 37.2006 89.716 37.0747C89.716 42.1838 89.716 47.2928 89.716 52.5396C87.7457 50.4207 85.3979 49.8901 82.7517 50.2395C79.4882 50.6702 77.5407 53.184 78.0181 56.415C78.1038 56.9944 78.2481 57.5846 78.783 57.9025V57.9014ZM93.5719 34.9786C94.0981 35.482 94.6167 35.9605 95.1103 36.465C95.2047 36.5616 95.2297 36.7579 95.2308 36.9077C95.2405 38.0425 95.2221 39.1774 95.2438 40.3122C95.2514 40.6996 95.1136 40.8211 94.7425 40.7939C94.3682 40.7679 93.9896 40.7885 93.573 40.7885V34.9786H93.5719Z" fill="#3D4043" fill-opacity="0.5"/>
<path d="M69.792 82.1001V66.4215C72.4914 67.3925 74.7524 66.2815 75.0898 63.8708C74.3596 63.823 73.5893 63.9044 72.9091 63.6928C72.2342 63.4824 71.6505 62.9779 71.0484 62.6155C68.7483 64.2234 66.3864 65.8747 64.0331 67.5205C64.0895 67.8287 64.2306 68.242 64.2327 68.6565C64.2512 71.7844 64.2392 74.9112 64.2468 78.0391C64.249 78.8311 63.891 79.4072 63.2465 79.8846C63.112 79.7392 62.985 79.6166 62.8733 79.4799C61.7493 78.1118 61.2166 76.5072 60.9616 74.7799C60.3367 70.5541 61.58 67.0486 64.9304 64.3373C65.0443 64.2451 65.1311 64.1181 65.2602 63.9738C65.1267 63.937 65.0747 63.9077 65.0247 63.912C64.9358 63.9185 64.8446 63.9315 64.7611 63.9619C62.0075 64.9763 59.7411 66.5994 58.3719 69.2608C56.8518 72.2162 56.815 75.3061 57.8012 78.4134C58.6388 81.0563 60.4116 82.9018 62.9471 84.0193C64.5257 84.7159 66.1911 85.0099 67.9009 85.0142C71.5919 85.024 74.3998 83.4671 76.2116 80.2123C76.3115 80.0332 76.3505 79.8217 76.4471 79.5396C75.2916 80.1634 74.2859 80.7591 73.2335 81.2603C72.1594 81.7713 71.0126 82.0653 69.7898 82.099L69.792 82.1001ZM69.2365 81.4382C69.2365 81.6498 69.2365 81.8614 69.2365 82.1185C67.1241 82.0697 65.22 81.6249 63.5644 80.2198C63.9376 79.9519 64.2826 79.7023 64.6298 79.4539C64.7622 79.3595 64.8913 79.2608 65.0313 79.1772C66.8909 78.0684 67.7404 76.5158 67.6058 74.2754C67.4518 71.7193 67.5917 69.1469 67.5559 66.5831C67.5473 65.9202 67.6688 65.419 68.3317 65.1564C68.9566 65.6457 69.2745 66.2327 69.2636 67.1332C69.2083 71.9016 69.2376 76.6699 69.2376 81.4393L69.2365 81.4382Z" fill="url(#paint2_linear_1302_10478)" fill-opacity="0.75"/>
<path d="M69.792 82.1001V66.4215C72.4914 67.3925 74.7524 66.2815 75.0898 63.8708C74.3596 63.823 73.5893 63.9044 72.9091 63.6928C72.2342 63.4824 71.6505 62.9779 71.0484 62.6155C68.7483 64.2234 66.3864 65.8747 64.0331 67.5205C64.0895 67.8287 64.2306 68.242 64.2327 68.6565C64.2512 71.7844 64.2392 74.9112 64.2468 78.0391C64.249 78.8311 63.891 79.4072 63.2465 79.8846C63.112 79.7392 62.985 79.6166 62.8733 79.4799C61.7493 78.1118 61.2166 76.5072 60.9616 74.7799C60.3367 70.5541 61.58 67.0486 64.9304 64.3373C65.0443 64.2451 65.1311 64.1181 65.2602 63.9738C65.1267 63.937 65.0747 63.9077 65.0247 63.912C64.9358 63.9185 64.8446 63.9315 64.7611 63.9619C62.0075 64.9763 59.7411 66.5994 58.3719 69.2608C56.8518 72.2162 56.815 75.3061 57.8012 78.4134C58.6388 81.0563 60.4116 82.9018 62.9471 84.0193C64.5257 84.7159 66.1911 85.0099 67.9009 85.0142C71.5919 85.024 74.3998 83.4671 76.2116 80.2123C76.3115 80.0332 76.3505 79.8217 76.4471 79.5396C75.2916 80.1634 74.2859 80.7591 73.2335 81.2603C72.1594 81.7713 71.0126 82.0653 69.7898 82.099L69.792 82.1001ZM69.2365 81.4382C69.2365 81.6498 69.2365 81.8614 69.2365 82.1185C67.1241 82.0697 65.22 81.6249 63.5644 80.2198C63.9376 79.9519 64.2826 79.7023 64.6298 79.4539C64.7622 79.3595 64.8913 79.2608 65.0313 79.1772C66.8909 78.0684 67.7404 76.5158 67.6058 74.2754C67.4518 71.7193 67.5917 69.1469 67.5559 66.5831C67.5473 65.9202 67.6688 65.419 68.3317 65.1564C68.9566 65.6457 69.2745 66.2327 69.2636 67.1332C69.2083 71.9016 69.2376 76.6699 69.2376 81.4393L69.2365 81.4382Z" fill="#3D4043" fill-opacity="0.5"/>
<path d="M87.4539 73.7796C87.4484 71.8983 86.5143 70.6202 84.7372 69.9725C84.1914 69.774 83.8008 69.7751 83.3669 70.2589C82.6031 71.1117 81.7481 71.8831 80.8303 72.788C80.8303 72.4744 80.8303 72.3008 80.8303 72.1272C80.8303 70.1754 80.8487 68.2225 80.8238 66.2707C80.8031 64.6877 80.0838 63.5084 78.6398 62.8151C78.4965 62.7468 78.2177 62.7272 78.1287 62.814C77.1783 63.7438 76.2529 64.7008 75.2884 65.6826C75.3751 65.7781 75.4565 65.8682 75.6334 66.0624C75.8894 65.7032 76.0999 65.4071 76.3104 65.112C76.357 65.1369 76.4037 65.1619 76.4503 65.1868C76.484 65.1987 76.5209 65.2063 76.5523 65.2237C77.3161 65.6447 77.4116 66.3586 77.4105 67.1321C77.404 71.7052 77.4214 76.2782 77.3997 80.8502C77.3921 82.4429 78.0778 83.5409 79.5262 84.1691C79.6498 84.2222 79.8733 84.2439 79.9515 84.1723C80.6643 83.517 81.3554 82.8378 82.1213 82.1011C81.0603 81.8082 80.8541 81.1052 80.8498 80.2925C80.8411 78.485 80.9149 76.6742 80.8205 74.8711C80.7641 73.798 81.0234 72.98 81.9022 72.3681C81.9315 72.3475 81.9586 72.3214 81.9792 72.2921C82.1593 72.0383 82.3687 72.048 82.6356 72.1695C83.547 72.5829 83.9777 73.3163 83.9831 74.2754C83.9994 77.1668 84.0189 80.0593 83.9658 82.9496C83.9332 84.7028 83.3517 86.2749 82.0346 87.5129C81.925 87.6159 81.8642 87.7689 81.7156 88C81.9326 87.9631 82.0096 87.9696 82.0628 87.9371C82.5727 87.63 83.0891 87.3317 83.5828 87.0008C86.2018 85.2453 87.5038 82.7999 87.4615 79.6329C87.4354 77.6811 87.4615 75.7292 87.456 73.7763L87.4539 73.7796Z" fill="url(#paint3_linear_1302_10478)" fill-opacity="0.75"/>
<path d="M87.4539 73.7796C87.4484 71.8983 86.5143 70.6202 84.7372 69.9725C84.1914 69.774 83.8008 69.7751 83.3669 70.2589C82.6031 71.1117 81.7481 71.8831 80.8303 72.788C80.8303 72.4744 80.8303 72.3008 80.8303 72.1272C80.8303 70.1754 80.8487 68.2225 80.8238 66.2707C80.8031 64.6877 80.0838 63.5084 78.6398 62.8151C78.4965 62.7468 78.2177 62.7272 78.1287 62.814C77.1783 63.7438 76.2529 64.7008 75.2884 65.6826C75.3751 65.7781 75.4565 65.8682 75.6334 66.0624C75.8894 65.7032 76.0999 65.4071 76.3104 65.112C76.357 65.1369 76.4037 65.1619 76.4503 65.1868C76.484 65.1987 76.5209 65.2063 76.5523 65.2237C77.3161 65.6447 77.4116 66.3586 77.4105 67.1321C77.404 71.7052 77.4214 76.2782 77.3997 80.8502C77.3921 82.4429 78.0778 83.5409 79.5262 84.1691C79.6498 84.2222 79.8733 84.2439 79.9515 84.1723C80.6643 83.517 81.3554 82.8378 82.1213 82.1011C81.0603 81.8082 80.8541 81.1052 80.8498 80.2925C80.8411 78.485 80.9149 76.6742 80.8205 74.8711C80.7641 73.798 81.0234 72.98 81.9022 72.3681C81.9315 72.3475 81.9586 72.3214 81.9792 72.2921C82.1593 72.0383 82.3687 72.048 82.6356 72.1695C83.547 72.5829 83.9777 73.3163 83.9831 74.2754C83.9994 77.1668 84.0189 80.0593 83.9658 82.9496C83.9332 84.7028 83.3517 86.2749 82.0346 87.5129C81.925 87.6159 81.8642 87.7689 81.7156 88C81.9326 87.9631 82.0096 87.9696 82.0628 87.9371C82.5727 87.63 83.0891 87.3317 83.5828 87.0008C86.2018 85.2453 87.5038 82.7999 87.4615 79.6329C87.4354 77.6811 87.4615 75.7292 87.456 73.7763L87.4539 73.7796Z" fill="#3D4043" fill-opacity="0.5"/>
<path d="M123.513 81.6607C123.197 82.0957 122.817 82.0013 122.574 81.6748C122.354 81.3807 122.194 80.9674 122.188 80.6028C122.154 78.3624 122.178 76.1209 122.167 73.8794C122.157 71.8148 121.237 70.5931 119.274 69.9259C118.806 69.7664 118.489 69.8152 118.144 70.1938C117.346 71.0716 116.503 71.9081 115.579 72.8639C115.366 71.2028 114.538 70.273 113.137 69.8619C112.987 69.8174 112.735 69.8651 112.627 69.9703C111.81 70.7634 111.024 71.588 110.213 72.3865C109.959 72.6371 110.044 72.7641 110.392 72.9268C110.451 72.84 110.511 72.7218 110.6 72.6328C111.112 72.1196 111.608 72.1836 111.932 72.8248C112.034 73.0266 112.083 73.2718 112.091 73.5008C112.115 74.2407 112.107 74.9828 112.115 75.7227C112.135 77.655 112.117 79.5895 112.193 81.5207C112.247 82.8856 113.122 83.6982 114.319 84.1973C114.421 84.2396 114.614 84.2233 114.688 84.1539C115.366 83.5083 116.028 82.8454 116.77 82.112C115.797 81.7605 115.536 81.1073 115.549 80.2383C115.577 78.4677 115.635 76.6916 115.528 74.9264C115.459 73.7839 115.764 72.9366 116.687 72.2932C116.701 72.2835 116.711 72.2596 116.726 72.2563C116.928 72.2216 117.165 72.1044 117.326 72.1717C118.259 72.5645 118.692 73.3196 118.699 74.3091C118.717 76.4052 118.714 78.5024 118.719 80.5985C118.722 82.3691 119.561 83.5832 121.223 84.1864C121.345 84.2309 121.562 84.2244 121.642 84.1463C122.535 83.2544 123.41 82.3442 124.317 81.41C124.23 81.3395 124.119 81.2484 123.996 81.1486C123.808 81.3439 123.638 81.4849 123.512 81.6585L123.513 81.6607Z" fill="url(#paint4_linear_1302_10478)" fill-opacity="0.75"/>
<path d="M123.513 81.6607C123.197 82.0957 122.817 82.0013 122.574 81.6748C122.354 81.3807 122.194 80.9674 122.188 80.6028C122.154 78.3624 122.178 76.1209 122.167 73.8794C122.157 71.8148 121.237 70.5931 119.274 69.9259C118.806 69.7664 118.489 69.8152 118.144 70.1938C117.346 71.0716 116.503 71.9081 115.579 72.8639C115.366 71.2028 114.538 70.273 113.137 69.8619C112.987 69.8174 112.735 69.8651 112.627 69.9703C111.81 70.7634 111.024 71.588 110.213 72.3865C109.959 72.6371 110.044 72.7641 110.392 72.9268C110.451 72.84 110.511 72.7218 110.6 72.6328C111.112 72.1196 111.608 72.1836 111.932 72.8248C112.034 73.0266 112.083 73.2718 112.091 73.5008C112.115 74.2407 112.107 74.9828 112.115 75.7227C112.135 77.655 112.117 79.5895 112.193 81.5207C112.247 82.8856 113.122 83.6982 114.319 84.1973C114.421 84.2396 114.614 84.2233 114.688 84.1539C115.366 83.5083 116.028 82.8454 116.77 82.112C115.797 81.7605 115.536 81.1073 115.549 80.2383C115.577 78.4677 115.635 76.6916 115.528 74.9264C115.459 73.7839 115.764 72.9366 116.687 72.2932C116.701 72.2835 116.711 72.2596 116.726 72.2563C116.928 72.2216 117.165 72.1044 117.326 72.1717C118.259 72.5645 118.692 73.3196 118.699 74.3091C118.717 76.4052 118.714 78.5024 118.719 80.5985C118.722 82.3691 119.561 83.5832 121.223 84.1864C121.345 84.2309 121.562 84.2244 121.642 84.1463C122.535 83.2544 123.41 82.3442 124.317 81.41C124.23 81.3395 124.119 81.2484 123.996 81.1486C123.808 81.3439 123.638 81.4849 123.512 81.6585L123.513 81.6607Z" fill="#3D4043" fill-opacity="0.5"/>
<path d="M119.067 42.7078C119.54 42.2489 120.022 42.2988 120.321 42.9074C120.473 43.2166 120.536 43.5985 120.539 43.9479C120.558 46.3337 120.546 48.7206 120.552 51.1064C120.556 52.5938 121.228 53.6592 122.603 54.2505C122.755 54.3156 123.03 54.3395 123.127 54.2505C123.815 53.6159 124.47 52.9464 125.194 52.2315C124.122 51.8734 123.969 51.102 123.991 50.1733C124.032 48.4385 124.002 46.7026 124.002 44.9666C124.002 43.3956 123.996 43.387 125.185 42.3649C125.312 42.2554 125.613 42.2337 125.777 42.3031C126.877 42.761 127.151 43.7092 127.158 44.78C127.169 46.7872 127.162 48.7933 127.164 50.8004C127.166 52.5049 128.012 53.7178 129.631 54.2918C129.777 54.3439 130.038 54.2994 130.143 54.1963C131.02 53.3359 131.872 52.4506 132.759 51.5447C132.666 51.4687 132.551 51.3765 132.449 51.293C132.24 51.4937 132.048 51.638 131.907 51.8224C131.663 52.1425 131.418 52.1067 131.119 51.9103C130.683 51.6239 130.609 51.2008 130.609 50.7288C130.612 48.5416 130.622 46.3532 130.607 44.166C130.59 41.8756 129.625 40.6019 127.497 39.9835C127.186 39.8923 126.96 39.9238 126.727 40.1723C126.257 40.6724 125.756 41.1433 125.265 41.625C124.862 42.0221 124.455 42.4159 123.978 42.8825C123.807 41.3375 122.989 40.4424 121.657 40.003C121.484 39.9466 121.196 39.9596 121.077 40.0681C120.161 40.9079 119.272 41.7791 118.399 42.6177C118.705 43.183 118.887 42.8825 119.068 42.7067L119.067 42.7078Z" fill="url(#paint5_linear_1302_10478)" fill-opacity="0.75"/>
<path d="M119.067 42.7078C119.54 42.2489 120.022 42.2988 120.321 42.9074C120.473 43.2166 120.536 43.5985 120.539 43.9479C120.558 46.3337 120.546 48.7206 120.552 51.1064C120.556 52.5938 121.228 53.6592 122.603 54.2505C122.755 54.3156 123.03 54.3395 123.127 54.2505C123.815 53.6159 124.47 52.9464 125.194 52.2315C124.122 51.8734 123.969 51.102 123.991 50.1733C124.032 48.4385 124.002 46.7026 124.002 44.9666C124.002 43.3956 123.996 43.387 125.185 42.3649C125.312 42.2554 125.613 42.2337 125.777 42.3031C126.877 42.761 127.151 43.7092 127.158 44.78C127.169 46.7872 127.162 48.7933 127.164 50.8004C127.166 52.5049 128.012 53.7178 129.631 54.2918C129.777 54.3439 130.038 54.2994 130.143 54.1963C131.02 53.3359 131.872 52.4506 132.759 51.5447C132.666 51.4687 132.551 51.3765 132.449 51.293C132.24 51.4937 132.048 51.638 131.907 51.8224C131.663 52.1425 131.418 52.1067 131.119 51.9103C130.683 51.6239 130.609 51.2008 130.609 50.7288C130.612 48.5416 130.622 46.3532 130.607 44.166C130.59 41.8756 129.625 40.6019 127.497 39.9835C127.186 39.8923 126.96 39.9238 126.727 40.1723C126.257 40.6724 125.756 41.1433 125.265 41.625C124.862 42.0221 124.455 42.4159 123.978 42.8825C123.807 41.3375 122.989 40.4424 121.657 40.003C121.484 39.9466 121.196 39.9596 121.077 40.0681C120.161 40.9079 119.272 41.7791 118.399 42.6177C118.705 43.183 118.887 42.8825 119.068 42.7067L119.067 42.7078Z" fill="#3D4043" fill-opacity="0.5"/>
<path d="M62.3938 42.6915C62.8429 42.2586 63.1293 42.2554 63.5254 42.749C63.6642 42.9226 63.7608 43.158 63.7988 43.3794C63.8563 43.7157 63.8595 44.0629 63.8617 44.4057C63.8758 46.7373 63.8671 49.0678 63.8997 51.3993C63.9192 52.8271 64.7134 53.7439 65.9838 54.2831C66.1151 54.3395 66.3625 54.3276 66.4547 54.2408C67.135 53.5985 67.7903 52.9302 68.4608 52.2618C67.3899 51.6185 67.289 51.4362 67.2879 50.1863C67.2879 48.4873 67.3628 46.7839 67.2619 45.0914C67.1925 43.9392 67.4832 43.0593 68.4326 42.4073C68.4619 42.3866 68.4814 42.34 68.5096 42.3346C68.681 42.3031 68.8839 42.2065 69.0206 42.2651C69.9168 42.6503 70.4126 43.3425 70.4234 44.3265C70.4473 46.4585 70.4527 48.5915 70.4603 50.7234C70.4668 52.4832 71.2686 53.6658 72.9188 54.2798C73.0729 54.3373 73.355 54.2853 73.47 54.1724C74.3369 53.3294 75.1766 52.4582 76.0684 51.5523C75.6648 51.038 75.4934 51.5555 75.2992 51.7346C74.8544 52.1436 74.4974 52.1664 74.1763 51.6521C73.9984 51.3657 73.9148 50.9773 73.9105 50.6333C73.8866 48.4103 73.9083 46.1872 73.8931 43.9642C73.8779 41.8246 72.7875 40.4533 70.7153 39.9726C70.52 39.9271 70.2173 40.0269 70.0643 40.1679C69.3624 40.8178 68.6951 41.5068 68.0149 42.1816C67.7946 42.4007 67.5722 42.6177 67.2934 42.8933C67.1491 41.5892 66.5502 40.7223 65.4739 40.1951C64.6645 39.798 64.6298 39.8056 63.9984 40.4424C63.24 41.2062 62.4816 41.9711 61.7352 42.7241C62.0487 43.1928 62.2169 42.8619 62.3948 42.6915H62.3938Z" fill="url(#paint6_linear_1302_10478)" fill-opacity="0.75"/>
<path d="M62.3938 42.6915C62.8429 42.2586 63.1293 42.2554 63.5254 42.749C63.6642 42.9226 63.7608 43.158 63.7988 43.3794C63.8563 43.7157 63.8595 44.0629 63.8617 44.4057C63.8758 46.7373 63.8671 49.0678 63.8997 51.3993C63.9192 52.8271 64.7134 53.7439 65.9838 54.2831C66.1151 54.3395 66.3625 54.3276 66.4547 54.2408C67.135 53.5985 67.7903 52.9302 68.4608 52.2618C67.3899 51.6185 67.289 51.4362 67.2879 50.1863C67.2879 48.4873 67.3628 46.7839 67.2619 45.0914C67.1925 43.9392 67.4832 43.0593 68.4326 42.4073C68.4619 42.3866 68.4814 42.34 68.5096 42.3346C68.681 42.3031 68.8839 42.2065 69.0206 42.2651C69.9168 42.6503 70.4126 43.3425 70.4234 44.3265C70.4473 46.4585 70.4527 48.5915 70.4603 50.7234C70.4668 52.4832 71.2686 53.6658 72.9188 54.2798C73.0729 54.3373 73.355 54.2853 73.47 54.1724C74.3369 53.3294 75.1766 52.4582 76.0684 51.5523C75.6648 51.038 75.4934 51.5555 75.2992 51.7346C74.8544 52.1436 74.4974 52.1664 74.1763 51.6521C73.9984 51.3657 73.9148 50.9773 73.9105 50.6333C73.8866 48.4103 73.9083 46.1872 73.8931 43.9642C73.8779 41.8246 72.7875 40.4533 70.7153 39.9726C70.52 39.9271 70.2173 40.0269 70.0643 40.1679C69.3624 40.8178 68.6951 41.5068 68.0149 42.1816C67.7946 42.4007 67.5722 42.6177 67.2934 42.8933C67.1491 41.5892 66.5502 40.7223 65.4739 40.1951C64.6645 39.798 64.6298 39.8056 63.9984 40.4424C63.24 41.2062 62.4816 41.9711 61.7352 42.7241C62.0487 43.1928 62.2169 42.8619 62.3948 42.6915H62.3938Z" fill="#3D4043" fill-opacity="0.5"/>
<path d="M109.252 78.881C109.252 77.3632 109.255 75.8453 109.252 74.3286C109.246 72.3768 108.289 70.9794 106.485 70.2004C105.83 69.9183 105.234 69.8 104.669 70.3685C104.545 70.4933 104.37 70.5692 104.213 70.6582C102.414 71.6824 100.614 72.7044 98.8436 73.7102C98.8773 74.155 98.9402 74.6345 98.9445 75.1152C98.9576 76.633 98.989 78.1519 98.9413 79.6676C98.8545 82.406 100.551 83.6721 102.35 84.1799C102.586 84.2461 102.917 84.1908 103.134 84.0692C104.907 83.0667 106.649 82.0057 108.436 81.0292C109.04 80.6994 109.563 80.4683 109.27 79.6372C109.191 79.4116 109.254 79.136 109.253 78.8821L109.252 78.881ZM105.78 82.2194C103.894 82.3344 102.445 81.0889 102.411 79.2944C102.369 76.9498 102.395 74.6031 102.393 72.2585C102.393 72.1717 102.412 72.0838 102.421 72.0035C103.946 71.7855 105.702 73.0462 105.755 74.5575C105.844 77.0952 105.779 79.6383 105.779 82.2194H105.78Z" fill="url(#paint7_linear_1302_10478)" fill-opacity="0.75"/>
<path d="M109.252 78.881C109.252 77.3632 109.255 75.8453 109.252 74.3286C109.246 72.3768 108.289 70.9794 106.485 70.2004C105.83 69.9183 105.234 69.8 104.669 70.3685C104.545 70.4933 104.37 70.5692 104.213 70.6582C102.414 71.6824 100.614 72.7044 98.8436 73.7102C98.8773 74.155 98.9402 74.6345 98.9445 75.1152C98.9576 76.633 98.989 78.1519 98.9413 79.6676C98.8545 82.406 100.551 83.6721 102.35 84.1799C102.586 84.2461 102.917 84.1908 103.134 84.0692C104.907 83.0667 106.649 82.0057 108.436 81.0292C109.04 80.6994 109.563 80.4683 109.27 79.6372C109.191 79.4116 109.254 79.136 109.253 78.8821L109.252 78.881ZM105.78 82.2194C103.894 82.3344 102.445 81.0889 102.411 79.2944C102.369 76.9498 102.395 74.6031 102.393 72.2585C102.393 72.1717 102.412 72.0838 102.421 72.0035C103.946 71.7855 105.702 73.0462 105.755 74.5575C105.844 77.0952 105.779 79.6383 105.779 82.2194H105.78Z" fill="#3D4043" fill-opacity="0.5"/>
<path d="M181.435 49.2359C181.42 47.6465 181.435 46.057 181.424 44.4687C181.422 44.0922 181.416 43.7059 181.334 43.3403C180.943 41.5827 179.723 40.6269 178.089 40.13C177.843 40.0551 177.494 40.1321 177.254 40.258C176.696 40.5487 176.187 40.9328 175.638 41.2431C174.103 42.11 172.557 42.9595 171.051 43.7949C171.076 44.2658 171.121 44.7464 171.123 45.227C171.133 46.7622 171.121 48.2974 171.128 49.8326C171.139 52.162 172.347 53.733 174.591 54.3211C174.78 54.371 175.041 54.3634 175.202 54.269C177.32 53.0397 179.425 51.7899 181.548 50.5368C181.511 50.1299 181.439 49.684 181.435 49.2359ZM178.019 51.9168C178.021 52.353 177.867 52.468 177.463 52.3302C177.038 52.1859 176.591 52.0991 176.179 51.9266C175.181 51.5067 174.634 50.693 174.612 49.6482C174.561 47.1431 174.596 44.6357 174.596 42.0948C176.605 42.0492 177.972 43.2872 178.001 45.1967C178.036 47.436 178.005 49.6764 178.018 51.9168H178.019Z" fill="url(#paint8_linear_1302_10478)" fill-opacity="0.75"/>
<path d="M181.435 49.2359C181.42 47.6465 181.435 46.057 181.424 44.4687C181.422 44.0922 181.416 43.7059 181.334 43.3403C180.943 41.5827 179.723 40.6269 178.089 40.13C177.843 40.0551 177.494 40.1321 177.254 40.258C176.696 40.5487 176.187 40.9328 175.638 41.2431C174.103 42.11 172.557 42.9595 171.051 43.7949C171.076 44.2658 171.121 44.7464 171.123 45.227C171.133 46.7622 171.121 48.2974 171.128 49.8326C171.139 52.162 172.347 53.733 174.591 54.3211C174.78 54.371 175.041 54.3634 175.202 54.269C177.32 53.0397 179.425 51.7899 181.548 50.5368C181.511 50.1299 181.439 49.684 181.435 49.2359ZM178.019 51.9168C178.021 52.353 177.867 52.468 177.463 52.3302C177.038 52.1859 176.591 52.0991 176.179 51.9266C175.181 51.5067 174.634 50.693 174.612 49.6482C174.561 47.1431 174.596 44.6357 174.596 42.0948C176.605 42.0492 177.972 43.2872 178.001 45.1967C178.036 47.436 178.005 49.6764 178.018 51.9168H178.019Z" fill="#3D4043" fill-opacity="0.5"/>
<path d="M112.89 52.3269C113.141 52.1382 113.4 51.9602 113.686 51.7552C114.023 53.0571 114.856 53.8328 116.019 54.2668C116.197 54.333 116.522 54.2701 116.66 54.1399C117.49 53.3609 118.285 52.5461 119.105 51.7302C118.853 51.2659 118.668 51.5197 118.469 51.7129C117.897 52.2662 117.414 52.1414 117.173 51.3602C117.095 51.1075 117.074 50.8286 117.073 50.5606C117.065 48.5361 117.07 46.5105 117.066 44.486C117.066 44.2332 117.062 43.9783 117.024 43.7298C116.675 41.3809 114.632 39.9726 112.269 39.8826C112.141 39.8782 111.975 39.9379 111.885 40.0258C110.893 40.999 109.912 41.9841 108.908 42.9888C109.033 43.106 109.128 43.1938 109.215 43.2741C109.723 42.928 109.993 42.2467 110.734 42.429C111.325 42.5743 111.954 42.6438 112.497 42.8977C113.49 43.362 113.83 44.5055 113.559 46.1037C113.352 46.146 113.14 46.1872 112.928 46.2306C111.449 46.5344 110.029 46.9868 108.833 47.96C106.71 49.6851 107.121 53.0528 109.588 54.2364C109.944 54.4068 110.206 54.3786 110.517 54.1312C111.293 53.5117 112.095 52.9247 112.89 52.3269ZM111.744 47.5336C112.264 47.1159 112.898 46.8382 113.616 46.4183C113.616 48.1108 113.623 49.5896 113.605 51.0673C113.603 51.2149 113.473 51.3819 113.362 51.5013C113.242 51.6304 113.075 51.7161 112.927 51.8203C112.173 52.3551 111.725 52.2683 111.178 51.4796C110.407 50.3675 110.652 48.4103 111.744 47.5336Z" fill="url(#paint9_linear_1302_10478)" fill-opacity="0.75"/>
<path d="M112.89 52.3269C113.141 52.1382 113.4 51.9602 113.686 51.7552C114.023 53.0571 114.856 53.8328 116.019 54.2668C116.197 54.333 116.522 54.2701 116.66 54.1399C117.49 53.3609 118.285 52.5461 119.105 51.7302C118.853 51.2659 118.668 51.5197 118.469 51.7129C117.897 52.2662 117.414 52.1414 117.173 51.3602C117.095 51.1075 117.074 50.8286 117.073 50.5606C117.065 48.5361 117.07 46.5105 117.066 44.486C117.066 44.2332 117.062 43.9783 117.024 43.7298C116.675 41.3809 114.632 39.9726 112.269 39.8826C112.141 39.8782 111.975 39.9379 111.885 40.0258C110.893 40.999 109.912 41.9841 108.908 42.9888C109.033 43.106 109.128 43.1938 109.215 43.2741C109.723 42.928 109.993 42.2467 110.734 42.429C111.325 42.5743 111.954 42.6438 112.497 42.8977C113.49 43.362 113.83 44.5055 113.559 46.1037C113.352 46.146 113.14 46.1872 112.928 46.2306C111.449 46.5344 110.029 46.9868 108.833 47.96C106.71 49.6851 107.121 53.0528 109.588 54.2364C109.944 54.4068 110.206 54.3786 110.517 54.1312C111.293 53.5117 112.095 52.9247 112.89 52.3269ZM111.744 47.5336C112.264 47.1159 112.898 46.8382 113.616 46.4183C113.616 48.1108 113.623 49.5896 113.605 51.0673C113.603 51.2149 113.473 51.3819 113.362 51.5013C113.242 51.6304 113.075 51.7161 112.927 51.8203C112.173 52.3551 111.725 52.2683 111.178 51.4796C110.407 50.3675 110.652 48.4103 111.744 47.5336Z" fill="#3D4043" fill-opacity="0.5"/>
<path d="M157.761 40.9122C156.882 41.037 156.225 40.514 155.682 39.9911C153.781 41.0945 151.914 42.1783 150.074 43.247C150.101 43.8893 150.182 44.6075 150.151 45.3203C150.094 46.5952 150.678 47.4642 151.753 48.0392C152.322 48.3441 152.925 48.5839 153.573 48.8811C153.489 48.9983 153.43 49.0873 153.367 49.1719C152.316 50.5737 151.231 51.9515 150.231 53.388C149.839 53.95 149.539 54.6194 149.384 55.2834C149.285 55.7076 149.493 56.2241 149.642 56.6732C149.683 56.7969 150.001 56.8794 150.194 56.8837C150.306 56.8859 150.501 56.7025 150.514 56.5854C150.531 56.4443 150.433 56.2403 150.318 56.1416C149.756 55.6588 149.692 55.2921 150.105 54.6802C150.765 53.7048 152.598 53.2817 153.622 53.9934C154.169 54.3742 154.523 54.333 154.956 53.9413C155.021 53.8817 155.107 53.8426 155.186 53.7992C156.687 52.9822 158.188 52.1664 159.62 51.3874C159.6 50.4771 159.551 49.5451 159.564 48.6142C159.582 47.2277 158.906 46.3337 157.672 45.8086C157.378 45.6838 157.072 45.584 156.717 45.4516C157.903 43.7537 159.101 42.1176 160.169 40.3469C159.284 40.5607 158.533 40.8026 157.763 40.9122H157.761ZM156.074 52.251C154.794 51.0228 153.478 51.1552 152.053 51.8138C152.989 50.5357 153.925 49.2565 154.862 47.9785C155.529 48.1228 156.031 48.4352 156.062 49.135C156.105 50.1353 156.072 51.14 156.072 52.2499L156.074 52.251ZM156.1 45.4408C156.089 45.456 156.08 45.4722 156.066 45.4831C155.747 45.7077 155.76 46.4031 155.156 46.2024C154.422 45.9583 153.62 45.7163 153.585 44.7334C153.553 43.8611 153.578 42.9866 153.578 41.9288C155.04 43.809 156.564 43.5714 158.211 42.4734C157.507 43.4629 156.804 44.4524 156.1 45.4419V45.4408Z" fill="url(#paint10_linear_1302_10478)" fill-opacity="0.75"/>
<path d="M157.761 40.9122C156.882 41.037 156.225 40.514 155.682 39.9911C153.781 41.0945 151.914 42.1783 150.074 43.247C150.101 43.8893 150.182 44.6075 150.151 45.3203C150.094 46.5952 150.678 47.4642 151.753 48.0392C152.322 48.3441 152.925 48.5839 153.573 48.8811C153.489 48.9983 153.43 49.0873 153.367 49.1719C152.316 50.5737 151.231 51.9515 150.231 53.388C149.839 53.95 149.539 54.6194 149.384 55.2834C149.285 55.7076 149.493 56.2241 149.642 56.6732C149.683 56.7969 150.001 56.8794 150.194 56.8837C150.306 56.8859 150.501 56.7025 150.514 56.5854C150.531 56.4443 150.433 56.2403 150.318 56.1416C149.756 55.6588 149.692 55.2921 150.105 54.6802C150.765 53.7048 152.598 53.2817 153.622 53.9934C154.169 54.3742 154.523 54.333 154.956 53.9413C155.021 53.8817 155.107 53.8426 155.186 53.7992C156.687 52.9822 158.188 52.1664 159.62 51.3874C159.6 50.4771 159.551 49.5451 159.564 48.6142C159.582 47.2277 158.906 46.3337 157.672 45.8086C157.378 45.6838 157.072 45.584 156.717 45.4516C157.903 43.7537 159.101 42.1176 160.169 40.3469C159.284 40.5607 158.533 40.8026 157.763 40.9122H157.761ZM156.074 52.251C154.794 51.0228 153.478 51.1552 152.053 51.8138C152.989 50.5357 153.925 49.2565 154.862 47.9785C155.529 48.1228 156.031 48.4352 156.062 49.135C156.105 50.1353 156.072 51.14 156.072 52.2499L156.074 52.251ZM156.1 45.4408C156.089 45.456 156.08 45.4722 156.066 45.4831C155.747 45.7077 155.76 46.4031 155.156 46.2024C154.422 45.9583 153.62 45.7163 153.585 44.7334C153.553 43.8611 153.578 42.9866 153.578 41.9288C155.04 43.809 156.564 43.5714 158.211 42.4734C157.507 43.4629 156.804 44.4524 156.1 45.4419V45.4408Z" fill="#3D4043" fill-opacity="0.5"/>
<path d="M59.3049 54.2625C59.4709 54.3276 59.7671 54.3319 59.8756 54.2288C60.7381 53.4108 61.5703 52.5613 62.4111 51.7215C62.2042 51.5103 61.9811 51.5194 61.7417 51.7487C61.2101 52.2575 60.7837 52.1729 60.5266 51.459C60.4137 51.1465 60.392 50.7885 60.3899 50.45C60.3779 48.535 60.3888 46.619 60.379 44.7041C60.3768 44.2896 60.3768 43.8643 60.289 43.464C59.7595 41.0402 57.5744 39.9379 55.5315 39.8848C55.3969 39.8815 55.232 39.9965 55.1246 40.1017C54.236 40.9762 53.3648 41.868 52.473 42.7393C52.2094 42.9975 52.2289 43.1439 52.5587 43.2622C53.0361 42.9421 53.2867 42.2456 54.0331 42.43C54.6244 42.5754 55.2526 42.6427 55.7973 42.8911C56.7813 43.3414 57.1567 44.5544 56.8898 46.1004C56.6696 46.1438 56.4406 46.1872 56.2117 46.235C54.8067 46.529 53.4516 46.9488 52.294 47.8418C50.0666 49.5592 50.3281 52.8586 52.7779 54.1681C53.1988 54.3927 53.5015 54.3916 53.8921 54.0802C54.8881 53.2839 55.9253 52.5396 57.0026 51.7324C57.3097 53.0571 58.1581 53.809 59.3027 54.2625H59.3049ZM56.943 51.0261C56.9408 51.1758 56.8312 51.3548 56.7195 51.4666C56.5557 51.6293 56.343 51.7421 56.152 51.8778C55.5076 52.3367 55.3123 52.3226 54.7384 51.7704C53.878 50.9436 53.8021 49.0829 54.6038 48.0121C55.1767 47.2472 55.9763 46.8306 56.9538 46.5637C56.9538 48.1087 56.9603 49.5679 56.9441 51.0261H56.943Z" fill="url(#paint11_linear_1302_10478)" fill-opacity="0.75"/>
<path d="M59.3049 54.2625C59.4709 54.3276 59.7671 54.3319 59.8756 54.2288C60.7381 53.4108 61.5703 52.5613 62.4111 51.7215C62.2042 51.5103 61.9811 51.5194 61.7417 51.7487C61.2101 52.2575 60.7837 52.1729 60.5266 51.459C60.4137 51.1465 60.392 50.7885 60.3899 50.45C60.3779 48.535 60.3888 46.619 60.379 44.7041C60.3768 44.2896 60.3768 43.8643 60.289 43.464C59.7595 41.0402 57.5744 39.9379 55.5315 39.8848C55.3969 39.8815 55.232 39.9965 55.1246 40.1017C54.236 40.9762 53.3648 41.868 52.473 42.7393C52.2094 42.9975 52.2289 43.1439 52.5587 43.2622C53.0361 42.9421 53.2867 42.2456 54.0331 42.43C54.6244 42.5754 55.2526 42.6427 55.7973 42.8911C56.7813 43.3414 57.1567 44.5544 56.8898 46.1004C56.6696 46.1438 56.4406 46.1872 56.2117 46.235C54.8067 46.529 53.4516 46.9488 52.294 47.8418C50.0666 49.5592 50.3281 52.8586 52.7779 54.1681C53.1988 54.3927 53.5015 54.3916 53.8921 54.0802C54.8881 53.2839 55.9253 52.5396 57.0026 51.7324C57.3097 53.0571 58.1581 53.809 59.3027 54.2625H59.3049ZM56.943 51.0261C56.9408 51.1758 56.8312 51.3548 56.7195 51.4666C56.5557 51.6293 56.343 51.7421 56.152 51.8778C55.5076 52.3367 55.3123 52.3226 54.7384 51.7704C53.878 50.9436 53.8021 49.0829 54.6038 48.0121C55.1767 47.2472 55.9763 46.8306 56.9538 46.5637C56.9538 48.1087 56.9603 49.5679 56.9441 51.0261H56.943Z" fill="#3D4043" fill-opacity="0.5"/>
<path d="M146.718 81.1703C146.564 81.2516 146.428 81.3927 146.323 81.5359C146.006 81.9644 145.665 81.8776 145.386 81.5424C145.188 81.3059 145.049 80.9988 144.96 80.7005C144.89 80.4672 144.93 80.1982 144.93 79.9454C144.929 75.4808 144.925 71.0162 144.931 66.5517C144.934 64.8179 144.265 63.5073 142.627 62.7945C142.483 62.7327 142.211 62.7359 142.116 62.8292C141.112 63.8122 140.133 64.819 139.147 65.8193C139.175 65.8747 139.205 65.9289 139.233 65.9842C139.812 66.0493 139.982 65.3224 140.467 65.1499C141.218 65.5286 141.484 66.1861 141.483 67.0074C141.48 71.6347 141.487 76.262 141.479 80.8882C141.477 82.2509 142.081 83.2317 143.251 83.8913C143.826 84.2161 144.349 84.1441 144.817 83.6754C145.495 82.9984 146.173 82.3225 146.848 81.6422C146.958 81.5326 147.053 81.4089 147.271 81.1594C146.986 81.1594 146.823 81.1138 146.715 81.1703H146.718Z" fill="url(#paint12_linear_1302_10478)" fill-opacity="0.75"/>
<path d="M146.718 81.1703C146.564 81.2516 146.428 81.3927 146.323 81.5359C146.006 81.9644 145.665 81.8776 145.386 81.5424C145.188 81.3059 145.049 80.9988 144.96 80.7005C144.89 80.4672 144.93 80.1982 144.93 79.9454C144.929 75.4808 144.925 71.0162 144.931 66.5517C144.934 64.8179 144.265 63.5073 142.627 62.7945C142.483 62.7327 142.211 62.7359 142.116 62.8292C141.112 63.8122 140.133 64.819 139.147 65.8193C139.175 65.8747 139.205 65.9289 139.233 65.9842C139.812 66.0493 139.982 65.3224 140.467 65.1499C141.218 65.5286 141.484 66.1861 141.483 67.0074C141.48 71.6347 141.487 76.262 141.479 80.8882C141.477 82.2509 142.081 83.2317 143.251 83.8913C143.826 84.2161 144.349 84.1441 144.817 83.6754C145.495 82.9984 146.173 82.3225 146.848 81.6422C146.958 81.5326 147.053 81.4089 147.271 81.1594C146.986 81.1594 146.823 81.1138 146.715 81.1703H146.718Z" fill="#3D4043" fill-opacity="0.5"/>
<path d="M151.476 77.9458C153.204 76.8684 154.912 75.7553 156.63 74.653C155.627 73.0201 154.65 71.4307 153.72 69.9172C151.613 71.218 149.53 72.5037 147.46 73.7807C147.489 74.2993 147.543 74.8711 147.549 75.4417C147.564 76.7958 147.537 78.1519 147.564 79.506C147.594 80.9761 148.176 82.2118 149.467 82.9431C150.413 83.479 151.471 83.8186 152.488 84.2233C152.596 84.2667 152.809 84.207 152.898 84.1191C154.071 82.9442 155.231 81.755 156.415 80.5464C156.349 80.4846 156.255 80.3967 156.091 80.2459C155.956 80.4184 155.873 80.6072 155.729 80.6951C155.178 81.0314 155.015 81.9948 154.172 81.8006C153.516 81.6498 152.904 81.3048 152.274 81.0455C152.258 81.039 152.245 81.0249 152.23 81.0151C151.447 80.5084 151.033 79.8043 150.992 78.8582C150.973 78.4275 151.102 78.178 151.476 77.9458ZM151.047 72.1967C151.076 72.1826 151.106 72.1684 151.134 72.1543C151.912 73.4736 152.69 74.794 153.501 76.1719C152.694 76.6797 151.903 77.1777 151.046 77.7158V72.1956L151.047 72.1967Z" fill="url(#paint13_linear_1302_10478)" fill-opacity="0.75"/>
<path d="M151.476 77.9458C153.204 76.8684 154.912 75.7553 156.63 74.653C155.627 73.0201 154.65 71.4307 153.72 69.9172C151.613 71.218 149.53 72.5037 147.46 73.7807C147.489 74.2993 147.543 74.8711 147.549 75.4417C147.564 76.7958 147.537 78.1519 147.564 79.506C147.594 80.9761 148.176 82.2118 149.467 82.9431C150.413 83.479 151.471 83.8186 152.488 84.2233C152.596 84.2667 152.809 84.207 152.898 84.1191C154.071 82.9442 155.231 81.755 156.415 80.5464C156.349 80.4846 156.255 80.3967 156.091 80.2459C155.956 80.4184 155.873 80.6072 155.729 80.6951C155.178 81.0314 155.015 81.9948 154.172 81.8006C153.516 81.6498 152.904 81.3048 152.274 81.0455C152.258 81.039 152.245 81.0249 152.23 81.0151C151.447 80.5084 151.033 79.8043 150.992 78.8582C150.973 78.4275 151.102 78.178 151.476 77.9458ZM151.047 72.1967C151.076 72.1826 151.106 72.1684 151.134 72.1543C151.912 73.4736 152.69 74.794 153.501 76.1719C152.694 76.6797 151.903 77.1777 151.046 77.7158V72.1956L151.047 72.1967Z" fill="#3D4043" fill-opacity="0.5"/>
<path d="M100.657 40.067C99.6357 41.0315 98.6473 42.0286 97.6513 43.0148C98.0158 43.605 98.2057 43.1255 98.3923 42.9497C98.9586 42.4116 99.4436 42.4843 99.6867 43.2372C99.832 43.6897 99.8602 44.1942 99.8657 44.6759C99.8895 46.6993 99.8375 48.7238 99.9036 50.7451C99.9655 52.6633 100.941 53.8122 102.79 54.3178C102.94 54.359 103.185 54.3493 103.279 54.256C104.226 53.3197 105.152 52.3617 106.128 51.3646C106.042 51.293 105.948 51.2138 105.771 51.0662C105.604 51.2713 105.433 51.4579 105.286 51.664C105.058 51.9863 104.798 52.0014 104.448 51.8517C103.603 51.4915 103.311 51.089 103.308 50.093C103.3 47.7626 103.305 45.4321 103.308 43.1016C103.308 42.9855 103.34 42.8694 103.368 42.6752C104.657 43.7841 105.999 43.988 107.365 43.0278C108.183 42.4528 108.605 41.5968 108.761 40.4261C107.502 41.2811 106.591 40.8894 105.743 39.7849C104.931 40.7061 104.169 41.5708 103.405 42.4355C103.336 42.3964 103.267 42.3563 103.199 42.3172C102.957 41.2127 102.361 40.3958 101.283 40.0095C101.099 39.9433 100.779 39.952 100.657 40.0681V40.067Z" fill="url(#paint14_linear_1302_10478)" fill-opacity="0.75"/>
<path d="M100.657 40.067C99.6357 41.0315 98.6473 42.0286 97.6513 43.0148C98.0158 43.605 98.2057 43.1255 98.3923 42.9497C98.9586 42.4116 99.4436 42.4843 99.6867 43.2372C99.832 43.6897 99.8602 44.1942 99.8657 44.6759C99.8895 46.6993 99.8375 48.7238 99.9036 50.7451C99.9655 52.6633 100.941 53.8122 102.79 54.3178C102.94 54.359 103.185 54.3493 103.279 54.256C104.226 53.3197 105.152 52.3617 106.128 51.3646C106.042 51.293 105.948 51.2138 105.771 51.0662C105.604 51.2713 105.433 51.4579 105.286 51.664C105.058 51.9863 104.798 52.0014 104.448 51.8517C103.603 51.4915 103.311 51.089 103.308 50.093C103.3 47.7626 103.305 45.4321 103.308 43.1016C103.308 42.9855 103.34 42.8694 103.368 42.6752C104.657 43.7841 105.999 43.988 107.365 43.0278C108.183 42.4528 108.605 41.5968 108.761 40.4261C107.502 41.2811 106.591 40.8894 105.743 39.7849C104.931 40.7061 104.169 41.5708 103.405 42.4355C103.336 42.3964 103.267 42.3563 103.199 42.3172C102.957 41.2127 102.361 40.3958 101.283 40.0095C101.099 39.9433 100.779 39.952 100.657 40.0681V40.067Z" fill="#3D4043" fill-opacity="0.5"/>
<path d="M96.3515 69.7892C95.5042 70.6029 94.6557 71.4177 93.765 72.2726C93.5133 71.0868 92.9003 70.2969 91.8371 69.876C91.5539 69.7631 91.351 69.7751 91.1199 70.0137C90.2151 70.949 89.2863 71.8614 88.3674 72.7825C88.3175 72.8324 88.2795 72.8943 88.2209 72.9724C88.3327 73.0679 88.4347 73.1547 88.5931 73.2892C88.7949 73.0592 88.9891 72.8672 89.1475 72.6502C89.4013 72.3019 89.6737 72.3778 89.908 72.6285C90.074 72.8064 90.2389 73.0342 90.2856 73.2642C90.3756 73.7015 90.4136 74.1561 90.4169 74.6042C90.4299 76.4844 90.4093 78.3635 90.4245 80.2437C90.4429 82.4104 91.325 83.5995 93.3419 84.1918C93.4959 84.2374 93.7531 84.2168 93.854 84.117C94.7935 83.1926 95.7092 82.2444 96.6531 81.282C96.5685 81.2082 96.4676 81.1214 96.2929 80.9717C96.1877 81.1182 96.1042 81.2375 96.0174 81.3525C95.7223 81.7464 95.3664 82.0274 94.8923 81.6683C94.5483 81.4079 94.2077 81.103 93.9809 80.745C93.8344 80.5128 93.8692 80.1504 93.8659 79.8455C93.8551 78.5262 93.8616 77.2069 93.8616 75.8866C93.8616 74.806 93.8616 73.7253 93.8616 72.4918C95.1201 73.6136 96.4014 73.8338 97.7381 73.0321C98.6863 72.4646 99.1138 71.5294 99.3286 70.4184C97.4799 70.898 97.4007 70.8806 96.3493 69.787L96.3515 69.7892Z" fill="url(#paint15_linear_1302_10478)" fill-opacity="0.75"/>
<path d="M96.3515 69.7892C95.5042 70.6029 94.6557 71.4177 93.765 72.2726C93.5133 71.0868 92.9003 70.2969 91.8371 69.876C91.5539 69.7631 91.351 69.7751 91.1199 70.0137C90.2151 70.949 89.2863 71.8614 88.3674 72.7825C88.3175 72.8324 88.2795 72.8943 88.2209 72.9724C88.3327 73.0679 88.4347 73.1547 88.5931 73.2892C88.7949 73.0592 88.9891 72.8672 89.1475 72.6502C89.4013 72.3019 89.6737 72.3778 89.908 72.6285C90.074 72.8064 90.2389 73.0342 90.2856 73.2642C90.3756 73.7015 90.4136 74.1561 90.4169 74.6042C90.4299 76.4844 90.4093 78.3635 90.4245 80.2437C90.4429 82.4104 91.325 83.5995 93.3419 84.1918C93.4959 84.2374 93.7531 84.2168 93.854 84.117C94.7935 83.1926 95.7092 82.2444 96.6531 81.282C96.5685 81.2082 96.4676 81.1214 96.2929 80.9717C96.1877 81.1182 96.1042 81.2375 96.0174 81.3525C95.7223 81.7464 95.3664 82.0274 94.8923 81.6683C94.5483 81.4079 94.2077 81.103 93.9809 80.745C93.8344 80.5128 93.8692 80.1504 93.8659 79.8455C93.8551 78.5262 93.8616 77.2069 93.8616 75.8866C93.8616 74.806 93.8616 73.7253 93.8616 72.4918C95.1201 73.6136 96.4014 73.8338 97.7381 73.0321C98.6863 72.4646 99.1138 71.5294 99.3286 70.4184C97.4799 70.898 97.4007 70.8806 96.3493 69.787L96.3515 69.7892Z" fill="#3D4043" fill-opacity="0.5"/>
<path d="M134.883 72.3833C136.623 73.7959 137.518 73.9825 138.783 73.2089C139.78 72.5981 140.509 71.3081 140.327 70.3935C139.216 71.0629 138.289 70.7331 137.585 69.9183C135.451 71.2376 133.368 72.5243 131.254 73.8306C131.285 74.1463 131.352 74.5369 131.356 74.9286C131.37 76.3021 131.343 77.6767 131.367 79.0514C131.411 81.5305 132.671 83.1752 135.015 83.9835C135.949 84.3058 136.706 84.3654 137.372 83.4606C137.775 82.9149 138.342 82.4917 138.828 82.0068C139.284 81.5511 139.731 81.0856 140.226 80.5779C140.12 80.4813 140.03 80.3989 139.861 80.2437C139.612 80.5312 139.352 80.7688 139.168 81.0542C138.565 81.9894 137.808 81.9156 136.899 81.5391C135.619 81.0086 134.832 80.1417 134.807 78.7356C134.771 76.6569 134.796 74.5781 134.798 72.4994C134.798 72.4614 134.853 72.4234 134.882 72.3844L134.883 72.3833Z" fill="url(#paint16_linear_1302_10478)" fill-opacity="0.75"/>
<path d="M134.883 72.3833C136.623 73.7959 137.518 73.9825 138.783 73.2089C139.78 72.5981 140.509 71.3081 140.327 70.3935C139.216 71.0629 138.289 70.7331 137.585 69.9183C135.451 71.2376 133.368 72.5243 131.254 73.8306C131.285 74.1463 131.352 74.5369 131.356 74.9286C131.37 76.3021 131.343 77.6767 131.367 79.0514C131.411 81.5305 132.671 83.1752 135.015 83.9835C135.949 84.3058 136.706 84.3654 137.372 83.4606C137.775 82.9149 138.342 82.4917 138.828 82.0068C139.284 81.5511 139.731 81.0856 140.226 80.5779C140.12 80.4813 140.03 80.3989 139.861 80.2437C139.612 80.5312 139.352 80.7688 139.168 81.0542C138.565 81.9894 137.808 81.9156 136.899 81.5391C135.619 81.0086 134.832 80.1417 134.807 78.7356C134.771 76.6569 134.796 74.5781 134.798 72.4994C134.798 72.4614 134.853 72.4234 134.882 72.3844L134.883 72.3833Z" fill="#3D4043" fill-opacity="0.5"/>
<path d="M168.766 43.4195C169.852 42.8966 170.639 41.5914 170.527 40.6095C169.311 40.7853 168.387 40.595 167.755 40.0388C165.629 41.3516 163.531 42.6449 161.439 43.937C161.468 44.3113 161.53 44.7746 161.535 45.2379C161.549 46.5029 161.535 47.7691 161.542 49.0352C161.556 51.6261 162.82 53.3023 165.267 54.1301C166.184 54.4393 166.868 54.4014 167.532 53.5898C168.375 52.5591 169.341 51.6293 170.302 50.6062C170.304 50.6084 170.216 50.5238 170.066 50.3816C169.787 50.6854 169.587 50.9187 169.371 51.1367C168.34 52.1772 168.333 52.1696 166.959 51.6C165.743 51.0955 165.011 50.2319 164.991 48.8866C164.96 46.8262 164.969 44.7648 164.967 42.7034C164.967 42.6286 165.018 42.5537 165.072 42.404C166.069 43.7548 167.296 44.128 168.765 43.4206L168.766 43.4195Z" fill="url(#paint17_linear_1302_10478)" fill-opacity="0.75"/>
<path d="M168.766 43.4195C169.852 42.8966 170.639 41.5914 170.527 40.6095C169.311 40.7853 168.387 40.595 167.755 40.0388C165.629 41.3516 163.531 42.6449 161.439 43.937C161.468 44.3113 161.53 44.7746 161.535 45.2379C161.549 46.5029 161.535 47.7691 161.542 49.0352C161.556 51.6261 162.82 53.3023 165.267 54.1301C166.184 54.4393 166.868 54.4014 167.532 53.5898C168.375 52.5591 169.341 51.6293 170.302 50.6062C170.304 50.6084 170.216 50.5238 170.066 50.3816C169.787 50.6854 169.587 50.9187 169.371 51.1367C168.34 52.1772 168.333 52.1696 166.959 51.6C165.743 51.0955 165.011 50.2319 164.991 48.8866C164.96 46.8262 164.969 44.7648 164.967 42.7034C164.967 42.6286 165.018 42.5537 165.072 42.404C166.069 43.7548 167.296 44.128 168.765 43.4206L168.766 43.4195Z" fill="#3D4043" fill-opacity="0.5"/>
<path d="M133.325 48.8649C133.328 49.2804 133.316 49.7024 133.383 50.1093C133.759 52.404 135.86 54.2549 138.208 54.371C138.348 54.3775 138.531 54.3167 138.631 54.2213C139.74 53.1569 140.831 52.0752 141.938 51.0109C142.179 50.7787 142.157 50.629 141.789 50.437C141.561 50.6876 141.306 50.9035 141.131 51.1725C140.52 52.1013 139.732 52.0741 138.85 51.6445C138.817 51.6282 138.785 51.6141 138.751 51.6C137.557 51.115 136.807 50.2699 136.781 48.9462C136.74 46.8501 136.756 44.754 136.752 42.6568C136.752 42.5982 136.805 42.5396 136.865 42.417C137.85 43.7526 139.08 44.1226 140.547 43.4206C141.629 42.9031 142.417 41.5968 142.307 40.539C141.186 41.1042 140.213 40.8992 139.55 40.0312C137.389 41.3646 135.305 42.6492 133.223 43.9338C133.252 44.3233 133.31 44.8039 133.317 45.2845C133.331 46.478 133.317 47.6703 133.324 48.8638L133.325 48.8649Z" fill="url(#paint18_linear_1302_10478)" fill-opacity="0.75"/>
<path d="M133.325 48.8649C133.328 49.2804 133.316 49.7024 133.383 50.1093C133.759 52.404 135.86 54.2549 138.208 54.371C138.348 54.3775 138.531 54.3167 138.631 54.2213C139.74 53.1569 140.831 52.0752 141.938 51.0109C142.179 50.7787 142.157 50.629 141.789 50.437C141.561 50.6876 141.306 50.9035 141.131 51.1725C140.52 52.1013 139.732 52.0741 138.85 51.6445C138.817 51.6282 138.785 51.6141 138.751 51.6C137.557 51.115 136.807 50.2699 136.781 48.9462C136.74 46.8501 136.756 44.754 136.752 42.6568C136.752 42.5982 136.805 42.5396 136.865 42.417C137.85 43.7526 139.08 44.1226 140.547 43.4206C141.629 42.9031 142.417 41.5968 142.307 40.539C141.186 41.1042 140.213 40.8992 139.55 40.0312C137.389 41.3646 135.305 42.6492 133.223 43.9338C133.252 44.3233 133.31 44.8039 133.317 45.2845C133.331 46.478 133.317 47.6703 133.324 48.8638L133.325 48.8649Z" fill="#3D4043" fill-opacity="0.5"/>
<path d="M130.172 81.5652C129.917 81.9297 129.655 81.8625 129.353 81.6335C128.905 81.2939 128.782 80.8318 128.783 80.298C128.788 78.0196 128.793 75.7423 128.783 73.4639C128.775 71.8506 127.674 70.349 126.093 69.7968C125.137 70.7591 124.173 71.7366 123.199 72.7044C122.949 72.9529 123.022 73.0809 123.408 73.2664C123.688 72.9127 123.968 72.559 124.242 72.2129C125.011 72.6263 125.335 73.1959 125.333 73.9727C125.327 76.2327 125.327 78.4926 125.333 80.7526C125.337 82.4201 126.173 83.6212 127.733 84.1832C127.866 84.2309 128.105 84.2125 128.195 84.1235C129.116 83.2067 130.016 82.2704 130.957 81.3048C130.898 81.2299 130.816 81.1269 130.692 80.9706C130.48 81.2104 130.306 81.3731 130.173 81.5641L130.172 81.5652Z" fill="url(#paint19_linear_1302_10478)" fill-opacity="0.75"/>
<path d="M130.172 81.5652C129.917 81.9297 129.655 81.8625 129.353 81.6335C128.905 81.2939 128.782 80.8318 128.783 80.298C128.788 78.0196 128.793 75.7423 128.783 73.4639C128.775 71.8506 127.674 70.349 126.093 69.7968C125.137 70.7591 124.173 71.7366 123.199 72.7044C122.949 72.9529 123.022 73.0809 123.408 73.2664C123.688 72.9127 123.968 72.559 124.242 72.2129C125.011 72.6263 125.335 73.1959 125.333 73.9727C125.327 76.2327 125.327 78.4926 125.333 80.7526C125.337 82.4201 126.173 83.6212 127.733 84.1832C127.866 84.2309 128.105 84.2125 128.195 84.1235C129.116 83.2067 130.016 82.2704 130.957 81.3048C130.898 81.2299 130.816 81.1269 130.692 80.9706C130.48 81.2104 130.306 81.3731 130.173 81.5641L130.172 81.5652Z" fill="#3D4043" fill-opacity="0.5"/>
<path d="M145.431 40.0291C145.327 39.9705 145.096 39.9813 145.019 40.0562C144.013 41.0402 143.024 42.0405 142.03 43.0376L142.057 43.2014C142.199 43.1917 142.376 43.2329 142.475 43.1624C142.679 43.0192 142.858 42.8293 143.017 42.6351C143.241 42.3617 143.434 42.3823 143.698 42.595C144.286 43.0691 144.38 43.7125 144.381 44.3981C144.383 46.6038 144.368 48.8106 144.388 51.0163C144.402 52.5949 145.277 53.797 146.752 54.2939C146.899 54.3439 147.16 54.2994 147.265 54.1952C148.176 53.2925 149.064 52.3671 149.982 51.4243C149.916 51.3646 149.819 51.2745 149.676 51.1433C149.497 51.344 149.325 51.5067 149.19 51.6944C148.954 52.0221 148.715 51.9884 148.417 51.7769C147.894 51.4069 147.8 50.8742 147.799 50.2948C147.799 48.1065 147.773 45.9192 147.806 43.7309C147.833 41.9505 146.878 40.8384 145.431 40.0291Z" fill="url(#paint20_linear_1302_10478)" fill-opacity="0.75"/>
<path d="M145.431 40.0291C145.327 39.9705 145.096 39.9813 145.019 40.0562C144.013 41.0402 143.024 42.0405 142.03 43.0376L142.057 43.2014C142.199 43.1917 142.376 43.2329 142.475 43.1624C142.679 43.0192 142.858 42.8293 143.017 42.6351C143.241 42.3617 143.434 42.3823 143.698 42.595C144.286 43.0691 144.38 43.7125 144.381 44.3981C144.383 46.6038 144.368 48.8106 144.388 51.0163C144.402 52.5949 145.277 53.797 146.752 54.2939C146.899 54.3439 147.16 54.2994 147.265 54.1952C148.176 53.2925 149.064 52.3671 149.982 51.4243C149.916 51.3646 149.819 51.2745 149.676 51.1433C149.497 51.344 149.325 51.5067 149.19 51.6944C148.954 52.0221 148.715 51.9884 148.417 51.7769C147.894 51.4069 147.8 50.8742 147.799 50.2948C147.799 48.1065 147.773 45.9192 147.806 43.7309C147.833 41.9505 146.878 40.8384 145.431 40.0291Z" fill="#3D4043" fill-opacity="0.5"/>
<path d="M81.1547 37.3004C81.3315 37.3894 81.6255 37.244 81.8653 37.2071C81.7384 37.0303 81.6494 36.7818 81.4769 36.6896C80.891 36.376 80.7641 35.7923 81.2708 35.3345C81.4856 35.1414 81.7948 35.0264 82.0812 34.945C82.9774 34.69 83.828 35.0014 84.684 35.2075C85.821 35.481 86.9374 35.826 88.1439 35.6025C89.6162 35.3291 91.0765 34.0781 91.3271 32.7567C91.2458 32.7523 91.2045 32.7371 91.1785 32.7512C91.0667 32.8087 90.9593 32.8749 90.8508 32.9389C89.997 33.4402 89.1052 33.5975 88.158 33.2308C87.5201 32.9834 86.8854 32.7295 86.2463 32.4854C85.4326 32.1751 84.6102 31.9484 83.7184 32.0102C81.7894 32.1447 80.2422 33.744 80.3084 35.6014C80.3334 36.2827 80.4733 36.9597 81.1547 37.3004Z" fill="url(#paint21_linear_1302_10478)" fill-opacity="0.75"/>
<path d="M81.1547 37.3004C81.3315 37.3894 81.6255 37.244 81.8653 37.2071C81.7384 37.0303 81.6494 36.7818 81.4769 36.6896C80.891 36.376 80.7641 35.7923 81.2708 35.3345C81.4856 35.1414 81.7948 35.0264 82.0812 34.945C82.9774 34.69 83.828 35.0014 84.684 35.2075C85.821 35.481 86.9374 35.826 88.1439 35.6025C89.6162 35.3291 91.0765 34.0781 91.3271 32.7567C91.2458 32.7523 91.2045 32.7371 91.1785 32.7512C91.0667 32.8087 90.9593 32.8749 90.8508 32.9389C89.997 33.4402 89.1052 33.5975 88.158 33.2308C87.5201 32.9834 86.8854 32.7295 86.2463 32.4854C85.4326 32.1751 84.6102 31.9484 83.7184 32.0102C81.7894 32.1447 80.2422 33.744 80.3084 35.6014C80.3334 36.2827 80.4733 36.9597 81.1547 37.3004Z" fill="#3D4043" fill-opacity="0.5"/>
<path d="M124.048 65.8909C124.788 66.5712 125.473 67.2016 126.09 67.769C126.798 67.0855 127.469 66.4378 128.081 65.8475C127.462 65.1651 126.834 64.4707 126.306 63.886C125.512 64.5923 124.798 65.2259 124.049 65.8909H124.048Z" fill="url(#paint22_linear_1302_10478)" fill-opacity="0.75"/>
<path d="M124.048 65.8909C124.788 66.5712 125.473 67.2016 126.09 67.769C126.798 67.0855 127.469 66.4378 128.081 65.8475C127.462 65.1651 126.834 64.4707 126.306 63.886C125.512 64.5923 124.798 65.2259 124.049 65.8909H124.048Z" fill="#3D4043" fill-opacity="0.5"/>
<path d="M147.089 36.0147C146.412 35.2889 145.775 34.6065 145.116 33.8991C144.43 34.6173 143.764 35.315 143.075 36.0375C143.8 36.7015 144.485 37.3297 145.106 37.8982C145.819 37.2223 146.483 36.5919 147.089 36.0158V36.0147Z" fill="url(#paint23_linear_1302_10478)" fill-opacity="0.75"/>
<path d="M147.089 36.0147C146.412 35.2889 145.775 34.6065 145.116 33.8991C144.43 34.6173 143.764 35.315 143.075 36.0375C143.8 36.7015 144.485 37.3297 145.106 37.8982C145.819 37.2223 146.483 36.5919 147.089 36.0158V36.0147Z" fill="#3D4043" fill-opacity="0.5"/>
</g>
<defs>
<filter id="filter0_d_1302_10478" x="0.200195" y="0" width="213.348" height="120" filterUnits="userSpaceOnUse" color-interpolation-filters="sRGB">
<feFlood flood-opacity="0" result="BackgroundImageFix"/>
<feColorMatrix in="SourceAlpha" type="matrix" values="0 0 0 0 0 0 0 0 0 0 0 0 0 0 0 0 0 0 127 0" result="hardAlpha"/>
<feOffset/>
<feGaussianBlur stdDeviation="16"/>
<feComposite in2="hardAlpha" operator="out"/>
<feColorMatrix type="matrix" values="0 0 0 0 0 0 0 0 0 0 0 0 0 0 0 0 0 0 0.03 0"/>
<feBlend mode="normal" in2="BackgroundImageFix" result="effect1_dropShadow_1302_10478"/>
<feBlend mode="normal" in="SourceGraphic" in2="effect1_dropShadow_1302_10478" result="shape"/>
</filter>
<linearGradient id="paint0_linear_1302_10478" x1="30.706" y1="88.295" x2="73.6723" y2="-14.16" gradientUnits="userSpaceOnUse">
<stop offset="0.114812" stop-color="#B39257"/>
<stop offset="0.814205" stop-color="#DEC79F"/>
</linearGradient>
<linearGradient id="paint1_linear_1302_10478" x1="30.706" y1="88.295" x2="73.6723" y2="-14.16" gradientUnits="userSpaceOnUse">
<stop offset="0.114812" stop-color="#B39257"/>
<stop offset="0.814205" stop-color="#DEC79F"/>
</linearGradient>
<linearGradient id="paint2_linear_1302_10478" x1="30.706" y1="88.295" x2="73.6723" y2="-14.16" gradientUnits="userSpaceOnUse">
<stop offset="0.114812" stop-color="#B39257"/>
<stop offset="0.814205" stop-color="#DEC79F"/>
</linearGradient>
<linearGradient id="paint3_linear_1302_10478" x1="30.706" y1="88.295" x2="73.6723" y2="-14.16" gradientUnits="userSpaceOnUse">
<stop offset="0.114812" stop-color="#B39257"/>
<stop offset="0.814205" stop-color="#DEC79F"/>
</linearGradient>
<linearGradient id="paint4_linear_1302_10478" x1="30.706" y1="88.295" x2="73.6723" y2="-14.16" gradientUnits="userSpaceOnUse">
<stop offset="0.114812" stop-color="#B39257"/>
<stop offset="0.814205" stop-color="#DEC79F"/>
</linearGradient>
<linearGradient id="paint5_linear_1302_10478" x1="30.706" y1="88.295" x2="73.6723" y2="-14.16" gradientUnits="userSpaceOnUse">
<stop offset="0.114812" stop-color="#B39257"/>
<stop offset="0.814205" stop-color="#DEC79F"/>
</linearGradient>
<linearGradient id="paint6_linear_1302_10478" x1="30.706" y1="88.295" x2="73.6723" y2="-14.16" gradientUnits="userSpaceOnUse">
<stop offset="0.114812" stop-color="#B39257"/>
<stop offset="0.814205" stop-color="#DEC79F"/>
</linearGradient>
<linearGradient id="paint7_linear_1302_10478" x1="30.706" y1="88.295" x2="73.6723" y2="-14.16" gradientUnits="userSpaceOnUse">
<stop offset="0.114812" stop-color="#B39257"/>
<stop offset="0.814205" stop-color="#DEC79F"/>
</linearGradient>
<linearGradient id="paint8_linear_1302_10478" x1="30.706" y1="88.295" x2="73.6723" y2="-14.16" gradientUnits="userSpaceOnUse">
<stop offset="0.114812" stop-color="#B39257"/>
<stop offset="0.814205" stop-color="#DEC79F"/>
</linearGradient>
<linearGradient id="paint9_linear_1302_10478" x1="30.706" y1="88.295" x2="73.6723" y2="-14.16" gradientUnits="userSpaceOnUse">
<stop offset="0.114812" stop-color="#B39257"/>
<stop offset="0.814205" stop-color="#DEC79F"/>
</linearGradient>
<linearGradient id="paint10_linear_1302_10478" x1="30.706" y1="88.295" x2="73.6723" y2="-14.16" gradientUnits="userSpaceOnUse">
<stop offset="0.114812" stop-color="#B39257"/>
<stop offset="0.814205" stop-color="#DEC79F"/>
</linearGradient>
<linearGradient id="paint11_linear_1302_10478" x1="30.706" y1="88.295" x2="73.6723" y2="-14.16" gradientUnits="userSpaceOnUse">
<stop offset="0.114812" stop-color="#B39257"/>
<stop offset="0.814205" stop-color="#DEC79F"/>
</linearGradient>
<linearGradient id="paint12_linear_1302_10478" x1="30.706" y1="88.295" x2="73.6723" y2="-14.16" gradientUnits="userSpaceOnUse">
<stop offset="0.114812" stop-color="#B39257"/>
<stop offset="0.814205" stop-color="#DEC79F"/>
</linearGradient>
<linearGradient id="paint13_linear_1302_10478" x1="30.706" y1="88.295" x2="73.6723" y2="-14.16" gradientUnits="userSpaceOnUse">
<stop offset="0.114812" stop-color="#B39257"/>
<stop offset="0.814205" stop-color="#DEC79F"/>
</linearGradient>
<linearGradient id="paint14_linear_1302_10478" x1="30.706" y1="88.295" x2="73.6723" y2="-14.16" gradientUnits="userSpaceOnUse">
<stop offset="0.114812" stop-color="#B39257"/>
<stop offset="0.814205" stop-color="#DEC79F"/>
</linearGradient>
<linearGradient id="paint15_linear_1302_10478" x1="30.706" y1="88.295" x2="73.6723" y2="-14.16" gradientUnits="userSpaceOnUse">
<stop offset="0.114812" stop-color="#B39257"/>
<stop offset="0.814205" stop-color="#DEC79F"/>
</linearGradient>
<linearGradient id="paint16_linear_1302_10478" x1="30.706" y1="88.295" x2="73.6723" y2="-14.16" gradientUnits="userSpaceOnUse">
<stop offset="0.114812" stop-color="#B39257"/>
<stop offset="0.814205" stop-color="#DEC79F"/>
</linearGradient>
<linearGradient id="paint17_linear_1302_10478" x1="30.706" y1="88.295" x2="73.6723" y2="-14.16" gradientUnits="userSpaceOnUse">
<stop offset="0.114812" stop-color="#B39257"/>
<stop offset="0.814205" stop-color="#DEC79F"/>
</linearGradient>
<linearGradient id="paint18_linear_1302_10478" x1="30.706" y1="88.295" x2="73.6723" y2="-14.16" gradientUnits="userSpaceOnUse">
<stop offset="0.114812" stop-color="#B39257"/>
<stop offset="0.814205" stop-color="#DEC79F"/>
</linearGradient>
<linearGradient id="paint19_linear_1302_10478" x1="30.706" y1="88.295" x2="73.6723" y2="-14.16" gradientUnits="userSpaceOnUse">
<stop offset="0.114812" stop-color="#B39257"/>
<stop offset="0.814205" stop-color="#DEC79F"/>
</linearGradient>
<linearGradient id="paint20_linear_1302_10478" x1="30.706" y1="88.295" x2="73.6723" y2="-14.16" gradientUnits="userSpaceOnUse">
<stop offset="0.114812" stop-color="#B39257"/>
<stop offset="0.814205" stop-color="#DEC79F"/>
</linearGradient>
<linearGradient id="paint21_linear_1302_10478" x1="30.706" y1="88.295" x2="73.6723" y2="-14.16" gradientUnits="userSpaceOnUse">
<stop offset="0.114812" stop-color="#B39257"/>
<stop offset="0.814205" stop-color="#DEC79F"/>
</linearGradient>
<linearGradient id="paint22_linear_1302_10478" x1="30.706" y1="88.295" x2="73.6723" y2="-14.16" gradientUnits="userSpaceOnUse">
<stop offset="0.114812" stop-color="#B39257"/>
<stop offset="0.814205" stop-color="#DEC79F"/>
</linearGradient>
<linearGradient id="paint23_linear_1302_10478" x1="30.706" y1="88.295" x2="73.6723" y2="-14.16" gradientUnits="userSpaceOnUse">
<stop offset="0.114812" stop-color="#B39257"/>
<stop offset="0.814205" stop-color="#DEC79F"/>
</linearGradient>
</defs>
</svg>
