<svg width="28" height="34" viewBox="0 0 28 34" fill="none" xmlns="http://www.w3.org/2000/svg">
<path d="M11.5 16L9.80538 15.4722C9.5276 15.1944 9.19427 15.0555 8.80538 15.0555C8.41649 15.0555 8.77778 12.7222 8.5 13C8.22222 13.2778 6 13.6065 6 14C6 14.3935 4.22222 17.2222 4.5 17.5L9.80538 22.1176C10.0832 22.3954 12.3239 21.8611 12.6943 21.8611C13.0647 21.8611 13.3887 21.7222 13.6665 21.4444L21.1943 13.9166C21.4721 13.6389 21.611 13.3079 21.611 12.9236C21.611 12.5393 21.4721 12.2176 21.1943 11.9583C20.935 11.6991 20.6087 11.5741 20.2151 11.5833C19.8216 11.5926 18.7593 9.74075 18.5 10L11.5 16ZM14.4998 33.5C14.3424 33.5 14.1943 33.4861 14.0554 33.4583C13.9165 33.4306 13.773 33.3889 13.6248 33.3333C9.80075 32.0463 6.76835 29.7153 4.52763 26.3403C2.28688 22.9653 1.1665 19.287 1.1665 15.3055V7.23608C1.1665 6.65278 1.33549 6.12501 1.67346 5.65279C2.01141 5.18057 2.44427 4.83797 2.97205 4.625L13.5276 0.680542C13.861 0.560181 14.185 0.5 14.4998 0.5C14.8146 0.5 15.1387 0.560181 15.472 0.680542L26.0276 4.625C26.5554 4.83797 26.9883 5.18057 27.3262 5.65279C27.6642 6.12501 27.8332 6.65278 27.8332 7.23608V15.3055C27.8332 19.287 26.7128 22.9653 24.472 26.3403C22.2313 29.7153 19.1989 32.0463 15.3748 33.3333C15.2267 33.3889 15.0832 33.4306 14.9443 33.4583C14.8054 33.4861 14.6573 33.5 14.4998 33.5Z" fill="#EC7F00"/>
<path d="M11.5 16L9.80538 15.4722C9.5276 15.1944 9.19427 15.0555 8.80538 15.0555C8.41649 15.0555 8.77778 12.7222 8.5 13C8.22222 13.2778 6 13.6065 6 14C6 14.3935 4.22222 17.2222 4.5 17.5L9.80538 22.1176C10.0832 22.3954 12.3239 21.8611 12.6943 21.8611C13.0647 21.8611 13.3887 21.7222 13.6665 21.4444L21.1943 13.9166C21.4721 13.6389 21.611 13.3079 21.611 12.9236C21.611 12.5393 21.4721 12.2176 21.1943 11.9583C20.935 11.6991 20.6087 11.5741 20.2151 11.5833C19.8216 11.5926 18.7593 9.74075 18.5 10L11.5 16ZM14.4998 33.5C14.3424 33.5 14.1943 33.4861 14.0554 33.4583C13.9165 33.4306 13.773 33.3889 13.6248 33.3333C9.80075 32.0463 6.76835 29.7153 4.52763 26.3403C2.28688 22.9653 1.1665 19.287 1.1665 15.3055V7.23608C1.1665 6.65278 1.33549 6.12501 1.67346 5.65279C2.01141 5.18057 2.44427 4.83797 2.97205 4.625L13.5276 0.680542C13.861 0.560181 14.185 0.5 14.4998 0.5C14.8146 0.5 15.1387 0.560181 15.472 0.680542L26.0276 4.625C26.5554 4.83797 26.9883 5.18057 27.3262 5.65279C27.6642 6.12501 27.8332 6.65278 27.8332 7.23608V15.3055C27.8332 19.287 26.7128 22.9653 24.472 26.3403C22.2313 29.7153 19.1989 32.0463 15.3748 33.3333C15.2267 33.3889 15.0832 33.4306 14.9443 33.4583C14.8054 33.4861 14.6573 33.5 14.4998 33.5Z" fill="#6D572A"/>
<path d="M11.7776 18.4445L8.80538 15.4722C8.5276 15.1944 8.19427 15.0555 7.80538 15.0555C7.41649 15.0555 7.08316 15.1944 6.80538 15.4722C6.5276 15.75 6.38871 16.0856 6.38871 16.4792C6.38871 16.8727 6.5276 17.2083 6.80538 17.4861L10.722 21.4444C10.9998 21.7222 11.3239 21.8611 11.6943 21.8611C12.0647 21.8611 12.3887 21.7222 12.6665 21.4444L20.1943 13.9166C20.4721 13.6389 20.611 13.3079 20.611 12.9236C20.611 12.5393 20.4721 12.2176 20.1943 11.9583C19.935 11.6991 19.6087 11.5741 19.2151 11.5833C18.8216 11.5926 18.4952 11.7268 18.236 11.9861L11.7776 18.4445ZM13.4998 33.5C13.3424 33.5 13.1943 33.4861 13.0554 33.4583C12.9165 33.4306 12.773 33.3889 12.6248 33.3333C8.80075 32.0463 5.76835 29.7153 3.52763 26.3403C1.28688 22.9653 0.166504 19.287 0.166504 15.3055V7.23608C0.166504 6.65278 0.33549 6.12501 0.673463 5.65279C1.01141 5.18057 1.44427 4.83797 1.97205 4.625L12.5276 0.680542C12.861 0.560181 13.185 0.5 13.4998 0.5C13.8146 0.5 14.1387 0.560181 14.472 0.680542L25.0276 4.625C25.5554 4.83797 25.9883 5.18057 26.3262 5.65279C26.6642 6.12501 26.8332 6.65278 26.8332 7.23608V15.3055C26.8332 19.287 25.7128 22.9653 23.472 26.3403C21.2313 29.7153 18.1989 32.0463 14.3748 33.3333C14.2267 33.3889 14.0832 33.4306 13.9443 33.4583C13.8054 33.4861 13.6573 33.5 13.4998 33.5Z" fill="#EC7F00"/>
<path d="M11.7776 18.4445L8.80538 15.4722C8.5276 15.1944 8.19427 15.0555 7.80538 15.0555C7.41649 15.0555 7.08316 15.1944 6.80538 15.4722C6.5276 15.75 6.38871 16.0856 6.38871 16.4792C6.38871 16.8727 6.5276 17.2083 6.80538 17.4861L10.722 21.4444C10.9998 21.7222 11.3239 21.8611 11.6943 21.8611C12.0647 21.8611 12.3887 21.7222 12.6665 21.4444L20.1943 13.9166C20.4721 13.6389 20.611 13.3079 20.611 12.9236C20.611 12.5393 20.4721 12.2176 20.1943 11.9583C19.935 11.6991 19.6087 11.5741 19.2151 11.5833C18.8216 11.5926 18.4952 11.7268 18.236 11.9861L11.7776 18.4445ZM13.4998 33.5C13.3424 33.5 13.1943 33.4861 13.0554 33.4583C12.9165 33.4306 12.773 33.3889 12.6248 33.3333C8.80075 32.0463 5.76835 29.7153 3.52763 26.3403C1.28688 22.9653 0.166504 19.287 0.166504 15.3055V7.23608C0.166504 6.65278 0.33549 6.12501 0.673463 5.65279C1.01141 5.18057 1.44427 4.83797 1.97205 4.625L12.5276 0.680542C12.861 0.560181 13.185 0.5 13.4998 0.5C13.8146 0.5 14.1387 0.560181 14.472 0.680542L25.0276 4.625C25.5554 4.83797 25.9883 5.18057 26.3262 5.65279C26.6642 6.12501 26.8332 6.65278 26.8332 7.23608V15.3055C26.8332 19.287 25.7128 22.9653 23.472 26.3403C21.2313 29.7153 18.1989 32.0463 14.3748 33.3333C14.2267 33.3889 14.0832 33.4306 13.9443 33.4583C13.8054 33.4861 13.6573 33.5 13.4998 33.5Z" fill="#908271"/>
<path d="M11.7776 18.4445L8.80538 15.4722C8.5276 15.1944 8.19427 15.0555 7.80538 15.0555C7.41649 15.0555 7.08316 15.1944 6.80538 15.4722C6.5276 15.75 6.38871 16.0856 6.38871 16.4792C6.38871 16.8727 6.5276 17.2083 6.80538 17.4861L10.722 21.4444C10.9998 21.7222 11.3239 21.8611 11.6943 21.8611C12.0647 21.8611 12.3887 21.7222 12.6665 21.4444L20.1943 13.9166C20.4721 13.6389 20.611 13.3079 20.611 12.9236C20.611 12.5393 20.4721 12.2176 20.1943 11.9583C19.935 11.6991 19.6087 11.5741 19.2151 11.5833C18.8216 11.5926 18.4952 11.7268 18.236 11.9861L11.7776 18.4445ZM13.4998 33.5C13.3424 33.5 13.1943 33.4861 13.0554 33.4583C12.9165 33.4306 12.773 33.3889 12.6248 33.3333C8.80075 32.0463 5.76835 29.7153 3.52763 26.3403C1.28688 22.9653 0.166504 19.287 0.166504 15.3055V7.23608C0.166504 6.65278 0.33549 6.12501 0.673463 5.65279C1.01141 5.18057 1.44427 4.83797 1.97205 4.625L12.5276 0.680542C12.861 0.560181 13.185 0.5 13.4998 0.5C13.8146 0.5 14.1387 0.560181 14.472 0.680542L25.0276 4.625C25.5554 4.83797 25.9883 5.18057 26.3262 5.65279C26.6642 6.12501 26.8332 6.65278 26.8332 7.23608V15.3055C26.8332 19.287 25.7128 22.9653 23.472 26.3403C21.2313 29.7153 18.1989 32.0463 14.3748 33.3333C14.2267 33.3889 14.0832 33.4306 13.9443 33.4583C13.8054 33.4861 13.6573 33.5 13.4998 33.5Z" fill="url(#paint0_linear_147_2412)"/>
<defs>
<linearGradient id="paint0_linear_147_2412" x1="-0.100097" y1="33.6739" x2="33.6009" y2="9.32421" gradientUnits="userSpaceOnUse">
<stop offset="0.161458" stop-color="#AC883B"/>
<stop offset="0.609375" stop-color="#E2CD83"/>
<stop offset="0.817708" stop-color="#EFEDB5"/>
</linearGradient>
</defs>
</svg>
