<svg width="222" height="28" viewBox="0 0 222 28" fill="none" xmlns="http://www.w3.org/2000/svg">
<g clip-path="url(#clip0_143_2967)">
<path d="M24.1082 26L24.0892 25.9872L15.6332 20.4268C16.1329 19.9161 16.6327 19.4225 17.1304 18.9459L19.8823 20.758L18.6655 17.5313C19.2328 17.0291 19.8 16.5483 20.3673 16.091L24.1103 25.9978L24.1082 26Z" fill="#EC7F00"/>
<path d="M22.7204 9.56053C22.5264 9.63744 22.3324 9.71863 22.1341 9.80199C21.0755 10.2507 19.9495 10.832 18.796 11.5244H16.3984L15.0467 7.94498L13.6971 11.5244H3.86821L0.880127 9.56053H12.1872L15.0467 2L17.9019 9.56053H22.7204Z" fill="#EC7F00"/>
<path d="M29.12 9.43017C27.8842 9.94728 20.5163 12.1269 10.6685 23.9827C10.5609 24.1131 8.93933 25.9487 6.99503 25.9487H5.34811C6.8453 21.9997 8.47747 17.7322 8.83174 16.8175C9.19659 15.8731 8.93511 14.9157 8.17174 14.4071C8.13585 14.3836 8.10214 14.3601 8.07053 14.3387H10.1392C10.9215 14.3387 11.6068 14.9285 11.6785 15.7192C11.6807 15.7555 11.6828 15.7918 11.6849 15.826C11.6912 16.0803 11.649 16.3517 11.5457 16.6316C11.0776 17.9031 10.4534 19.5528 10.0464 20.6256C10.175 20.476 10.3437 20.2794 10.5061 20.1085C14.6835 15.4798 19.4156 12.3984 22.6398 11.0328C25.3495 9.88529 27.6607 9.40025 28.732 9.40025C28.888 9.40025 29.0166 9.41091 29.1179 9.43017H29.12Z" fill="#EC7F00"/>
</g>
<path d="M37.6479 17.996L38.5599 16.764C38.8372 17.0733 39.1732 17.3507 39.5679 17.596C39.9625 17.8413 40.3679 18.0173 40.7839 18.124C41.1999 18.22 41.5785 18.268 41.9199 18.268C42.4212 18.268 42.8479 18.1987 43.1999 18.06C43.5519 17.9107 43.8132 17.708 43.9839 17.452C44.1652 17.196 44.2559 16.9187 44.2559 16.62C44.2559 16.236 44.0959 15.9107 43.7759 15.644C43.4665 15.3773 42.7679 15.1053 41.6799 14.828C40.6452 14.5613 39.8879 14.3 39.4079 14.044C38.9279 13.788 38.5705 13.4627 38.3359 13.068C38.1012 12.6733 37.9839 12.22 37.9839 11.708C37.9839 11.388 38.0425 11.0573 38.1599 10.716C38.2879 10.364 38.5225 10.0227 38.8639 9.692C39.2052 9.35067 39.6372 9.09467 40.1599 8.924C40.6825 8.75333 41.2159 8.668 41.7599 8.668C42.5599 8.668 43.2905 8.796 43.9519 9.052C44.6132 9.308 45.1785 9.676 45.6479 10.156L44.7199 11.34C44.3252 10.924 43.8559 10.6147 43.3119 10.412C42.7785 10.1987 42.2185 10.092 41.6319 10.092C41.2052 10.092 40.8265 10.172 40.4959 10.332C40.1652 10.492 39.9359 10.6947 39.8079 10.94C39.6905 11.1747 39.6319 11.3933 39.6319 11.596C39.6319 11.9373 39.7865 12.2253 40.0959 12.46C40.4159 12.6947 41.0879 12.94 42.1119 13.196C43.1572 13.4733 43.9252 13.7507 44.4159 14.028C44.9172 14.2947 45.2852 14.636 45.5199 15.052C45.7652 15.468 45.8879 15.9427 45.8879 16.476C45.8879 17.1373 45.7225 17.708 45.3919 18.188C45.0612 18.668 44.6025 19.0413 44.0159 19.308C43.4292 19.564 42.7092 19.692 41.8559 19.692C40.9599 19.692 40.1492 19.5427 39.4239 19.244C38.7092 18.9347 38.1172 18.5187 37.6479 17.996ZM47.2294 15.628C47.2294 15.084 47.3254 14.5667 47.5174 14.076C47.7094 13.5747 47.976 13.1373 48.3174 12.764C48.6694 12.3907 49.0854 12.1027 49.5654 11.9C50.0454 11.6867 50.5574 11.58 51.1014 11.58C51.656 11.58 52.168 11.6867 52.6374 11.9C53.1174 12.1027 53.5174 12.396 53.8374 12.78C54.168 13.1533 54.4187 13.6013 54.5894 14.124C54.7707 14.636 54.8614 15.18 54.8614 15.756V16.108H48.7494C48.76 16.236 48.8027 16.4493 48.8774 16.748C48.9627 17.0467 49.1174 17.3293 49.3414 17.596C49.5654 17.8627 49.8427 18.0813 50.1734 18.252C50.504 18.4227 50.904 18.508 51.3734 18.508C51.7894 18.508 52.2054 18.428 52.6214 18.268C53.0374 18.108 53.384 17.884 53.6614 17.596L54.3334 18.54C53.96 18.9133 53.5014 19.2013 52.9574 19.404C52.424 19.596 51.848 19.692 51.2294 19.692C50.664 19.692 50.136 19.596 49.6454 19.404C49.1547 19.2013 48.728 18.924 48.3654 18.572C48.0027 18.2093 47.72 17.7773 47.5174 17.276C47.3254 16.764 47.2294 16.2147 47.2294 15.628ZM51.1014 12.764C50.7387 12.764 50.376 12.8493 50.0134 13.02C49.6614 13.18 49.368 13.4573 49.1334 13.852C48.8987 14.2467 48.7654 14.652 48.7334 15.068H53.4534C53.4427 14.812 53.3734 14.508 53.2454 14.156C53.1174 13.7933 52.8667 13.4733 52.4934 13.196C52.1307 12.908 51.6667 12.764 51.1014 12.764ZM56.1825 15.628C56.1825 15.084 56.2785 14.5667 56.4705 14.076C56.6625 13.5747 56.9292 13.1373 57.2705 12.764C57.6225 12.3907 58.0385 12.1027 58.5185 11.9C58.9985 11.6867 59.5105 11.58 60.0545 11.58C60.6092 11.58 61.1212 11.6867 61.5905 11.9C62.0705 12.1027 62.4705 12.396 62.7905 12.78C63.1212 13.1533 63.3718 13.6013 63.5425 14.124C63.7238 14.636 63.8145 15.18 63.8145 15.756V16.108H57.7025C57.7132 16.236 57.7558 16.4493 57.8305 16.748C57.9158 17.0467 58.0705 17.3293 58.2945 17.596C58.5185 17.8627 58.7958 18.0813 59.1265 18.252C59.4572 18.4227 59.8572 18.508 60.3265 18.508C60.7425 18.508 61.1585 18.428 61.5745 18.268C61.9905 18.108 62.3372 17.884 62.6145 17.596L63.2865 18.54C62.9132 18.9133 62.4545 19.2013 61.9105 19.404C61.3772 19.596 60.8012 19.692 60.1825 19.692C59.6172 19.692 59.0892 19.596 58.5985 19.404C58.1078 19.2013 57.6812 18.924 57.3185 18.572C56.9558 18.2093 56.6732 17.7773 56.4705 17.276C56.2785 16.764 56.1825 16.2147 56.1825 15.628ZM60.0545 12.764C59.6918 12.764 59.3292 12.8493 58.9665 13.02C58.6145 13.18 58.3212 13.4573 58.0865 13.852C57.8518 14.2467 57.7185 14.652 57.6865 15.068H62.4065C62.3958 14.812 62.3265 14.508 62.1985 14.156C62.0705 13.7933 61.8198 13.4733 61.4465 13.196C61.0838 12.908 60.6198 12.764 60.0545 12.764ZM73.1646 19.692C72.5886 19.692 72.0553 19.5907 71.5646 19.388C71.074 19.1747 70.658 18.8813 70.3166 18.508C69.9753 18.1347 69.714 17.7027 69.5326 17.212C69.3513 16.7107 69.2606 16.1827 69.2606 15.628C69.2606 15.084 69.3513 14.5667 69.5326 14.076C69.714 13.5747 69.9753 13.1373 70.3166 12.764C70.658 12.3907 71.074 12.1027 71.5646 11.9C72.0553 11.6867 72.5886 11.58 73.1646 11.58C73.7406 11.58 74.274 11.6867 74.7646 11.9C75.2553 12.1027 75.6713 12.3907 76.0126 12.764C76.354 13.1373 76.6153 13.5747 76.7966 14.076C76.978 14.5667 77.0686 15.084 77.0686 15.628C77.0686 16.1827 76.978 16.7107 76.7966 17.212C76.6153 17.7027 76.354 18.1347 76.0126 18.508C75.6713 18.8813 75.2553 19.1747 74.7646 19.388C74.274 19.5907 73.7406 19.692 73.1646 19.692ZM73.1646 18.412C73.9006 18.412 74.482 18.14 74.9086 17.596C75.346 17.052 75.5646 16.396 75.5646 15.628C75.5646 15.1693 75.4686 14.716 75.2766 14.268C75.0953 13.82 74.8126 13.4733 74.4286 13.228C74.0446 12.9827 73.6233 12.86 73.1646 12.86C72.706 12.86 72.3006 12.972 71.9486 13.196C71.5966 13.42 71.3086 13.7453 71.0846 14.172C70.8713 14.588 70.7646 15.0733 70.7646 15.628C70.7646 15.9907 70.818 16.3427 70.9246 16.684C71.0313 17.0253 71.186 17.324 71.3886 17.58C71.602 17.836 71.858 18.0387 72.1566 18.188C72.466 18.3373 72.802 18.412 73.1646 18.412ZM84.1129 19.5V14.556C84.1129 13.4253 83.5635 12.86 82.4649 12.86C82.0489 12.86 81.6435 12.972 81.2489 13.196C80.8649 13.4093 80.5609 13.6707 80.3369 13.98V19.5H78.8969V11.772H80.3369V12.86C80.5395 12.6147 80.8062 12.3853 81.1369 12.172C81.4675 11.9587 81.8035 11.8093 82.1449 11.724C82.4969 11.628 82.8062 11.58 83.0729 11.58C83.8835 11.58 84.4969 11.7933 84.9129 12.22C85.3395 12.6467 85.5529 13.2653 85.5529 14.076V19.5H84.1129ZM91.3354 17.996L92.2474 16.764C92.5247 17.0733 92.8607 17.3507 93.2554 17.596C93.65 17.8413 94.0554 18.0173 94.4714 18.124C94.8874 18.22 95.266 18.268 95.6074 18.268C96.1087 18.268 96.5354 18.1987 96.8874 18.06C97.2394 17.9107 97.5007 17.708 97.6714 17.452C97.8527 17.196 97.9434 16.9187 97.9434 16.62C97.9434 16.236 97.7834 15.9107 97.4634 15.644C97.154 15.3773 96.4554 15.1053 95.3674 14.828C94.3327 14.5613 93.5754 14.3 93.0954 14.044C92.6154 13.788 92.258 13.4627 92.0234 13.068C91.7887 12.6733 91.6714 12.22 91.6714 11.708C91.6714 11.388 91.73 11.0573 91.8474 10.716C91.9754 10.364 92.21 10.0227 92.5514 9.692C92.8927 9.35067 93.3247 9.09467 93.8474 8.924C94.37 8.75333 94.9034 8.668 95.4474 8.668C96.2474 8.668 96.978 8.796 97.6394 9.052C98.3007 9.308 98.866 9.676 99.3354 10.156L98.4074 11.34C98.0127 10.924 97.5434 10.6147 96.9994 10.412C96.466 10.1987 95.906 10.092 95.3194 10.092C94.8927 10.092 94.514 10.172 94.1834 10.332C93.8527 10.492 93.6234 10.6947 93.4954 10.94C93.378 11.1747 93.3194 11.3933 93.3194 11.596C93.3194 11.9373 93.474 12.2253 93.7834 12.46C94.1034 12.6947 94.7754 12.94 95.7994 13.196C96.8447 13.4733 97.6127 13.7507 98.1034 14.028C98.6047 14.2947 98.9727 14.636 99.2074 15.052C99.4527 15.468 99.5754 15.9427 99.5754 16.476C99.5754 17.1373 99.41 17.708 99.0794 18.188C98.7487 18.668 98.29 19.0413 97.7034 19.308C97.1167 19.564 96.3967 19.692 95.5434 19.692C94.6474 19.692 93.8367 19.5427 93.1114 19.244C92.3967 18.9347 91.8047 18.5187 91.3354 17.996ZM106.613 19.5V14.524C106.613 13.9267 106.469 13.5 106.181 13.244C105.893 12.988 105.488 12.86 104.965 12.86C104.549 12.86 104.144 12.972 103.749 13.196C103.365 13.4093 103.061 13.6707 102.837 13.98V19.5H101.397V8.828H102.837V12.86C103.114 12.5187 103.504 12.22 104.005 11.964C104.506 11.708 105.029 11.58 105.573 11.58C107.226 11.58 108.053 12.4013 108.053 14.044V19.5H106.613ZM113.774 19.692C113.198 19.692 112.665 19.5907 112.174 19.388C111.683 19.1747 111.267 18.8813 110.926 18.508C110.585 18.1347 110.323 17.7027 110.142 17.212C109.961 16.7107 109.87 16.1827 109.87 15.628C109.87 15.084 109.961 14.5667 110.142 14.076C110.323 13.5747 110.585 13.1373 110.926 12.764C111.267 12.3907 111.683 12.1027 112.174 11.9C112.665 11.6867 113.198 11.58 113.774 11.58C114.35 11.58 114.883 11.6867 115.374 11.9C115.865 12.1027 116.281 12.3907 116.622 12.764C116.963 13.1373 117.225 13.5747 117.406 14.076C117.587 14.5667 117.678 15.084 117.678 15.628C117.678 16.1827 117.587 16.7107 117.406 17.212C117.225 17.7027 116.963 18.1347 116.622 18.508C116.281 18.8813 115.865 19.1747 115.374 19.388C114.883 19.5907 114.35 19.692 113.774 19.692ZM113.774 18.412C114.51 18.412 115.091 18.14 115.518 17.596C115.955 17.052 116.174 16.396 116.174 15.628C116.174 15.1693 116.078 14.716 115.886 14.268C115.705 13.82 115.422 13.4733 115.038 13.228C114.654 12.9827 114.233 12.86 113.774 12.86C113.315 12.86 112.91 12.972 112.558 13.196C112.206 13.42 111.918 13.7453 111.694 14.172C111.481 14.588 111.374 15.0733 111.374 15.628C111.374 15.9907 111.427 16.3427 111.534 16.684C111.641 17.0253 111.795 17.324 111.998 17.58C112.211 17.836 112.467 18.0387 112.766 18.188C113.075 18.3373 113.411 18.412 113.774 18.412ZM120.946 22.444H119.506V11.772H120.946V12.876C121.234 12.492 121.602 12.1827 122.05 11.948C122.498 11.7027 122.973 11.58 123.474 11.58C123.965 11.58 124.424 11.676 124.85 11.868C125.277 12.0493 125.645 12.316 125.954 12.668C126.264 13.02 126.498 13.452 126.658 13.964C126.829 14.4653 126.914 15.02 126.914 15.628C126.914 16.236 126.829 16.796 126.658 17.308C126.498 17.82 126.264 18.252 125.954 18.604C125.645 18.956 125.277 19.228 124.85 19.42C124.424 19.6013 123.965 19.692 123.474 19.692C122.973 19.692 122.504 19.58 122.066 19.356C121.629 19.1213 121.256 18.796 120.946 18.38V22.444ZM125.41 15.628C125.41 14.8173 125.197 14.156 124.77 13.644C124.354 13.1213 123.794 12.86 123.09 12.86C122.664 12.86 122.248 12.972 121.842 13.196C121.437 13.4093 121.138 13.676 120.946 13.996V17.276C121.138 17.5853 121.437 17.852 121.842 18.076C122.258 18.3 122.674 18.412 123.09 18.412C123.794 18.412 124.354 18.156 124.77 17.644C125.197 17.1213 125.41 16.4493 125.41 15.628ZM130.181 22.444H128.741V11.772H130.181V12.876C130.469 12.492 130.837 12.1827 131.285 11.948C131.733 11.7027 132.207 11.58 132.709 11.58C133.199 11.58 133.658 11.676 134.085 11.868C134.511 12.0493 134.879 12.316 135.189 12.668C135.498 13.02 135.733 13.452 135.893 13.964C136.063 14.4653 136.149 15.02 136.149 15.628C136.149 16.236 136.063 16.796 135.893 17.308C135.733 17.82 135.498 18.252 135.189 18.604C134.879 18.956 134.511 19.228 134.085 19.42C133.658 19.6013 133.199 19.692 132.709 19.692C132.207 19.692 131.738 19.58 131.301 19.356C130.863 19.1213 130.49 18.796 130.181 18.38V22.444ZM134.645 15.628C134.645 14.8173 134.431 14.156 134.005 13.644C133.589 13.1213 133.029 12.86 132.325 12.86C131.898 12.86 131.482 12.972 131.077 13.196C130.671 13.4093 130.373 13.676 130.181 13.996V17.276C130.373 17.5853 130.671 17.852 131.077 18.076C131.493 18.3 131.909 18.412 132.325 18.412C133.029 18.412 133.589 18.156 134.005 17.644C134.431 17.1213 134.645 16.4493 134.645 15.628ZM137.495 15.628C137.495 15.084 137.591 14.5667 137.783 14.076C137.975 13.5747 138.242 13.1373 138.583 12.764C138.935 12.3907 139.351 12.1027 139.831 11.9C140.311 11.6867 140.823 11.58 141.367 11.58C141.922 11.58 142.434 11.6867 142.903 11.9C143.383 12.1027 143.783 12.396 144.103 12.78C144.434 13.1533 144.684 13.6013 144.855 14.124C145.036 14.636 145.127 15.18 145.127 15.756V16.108H139.015C139.026 16.236 139.068 16.4493 139.143 16.748C139.228 17.0467 139.383 17.3293 139.607 17.596C139.831 17.8627 140.108 18.0813 140.439 18.252C140.77 18.4227 141.17 18.508 141.639 18.508C142.055 18.508 142.471 18.428 142.887 18.268C143.303 18.108 143.65 17.884 143.927 17.596L144.599 18.54C144.226 18.9133 143.767 19.2013 143.223 19.404C142.69 19.596 142.114 19.692 141.495 19.692C140.93 19.692 140.402 19.596 139.911 19.404C139.42 19.2013 138.994 18.924 138.631 18.572C138.268 18.2093 137.986 17.7773 137.783 17.276C137.591 16.764 137.495 16.2147 137.495 15.628ZM141.367 12.764C141.004 12.764 140.642 12.8493 140.279 13.02C139.927 13.18 139.634 13.4573 139.399 13.852C139.164 14.2467 139.031 14.652 138.999 15.068H143.719C143.708 14.812 143.639 14.508 143.511 14.156C143.383 13.7933 143.132 13.4733 142.759 13.196C142.396 12.908 141.932 12.764 141.367 12.764ZM146.928 19.5V11.772H148.368V12.956C148.677 12.5613 149.056 12.236 149.504 11.98C149.952 11.724 150.416 11.596 150.896 11.596V13.052C150.757 13.02 150.592 13.004 150.4 13.004C150.048 13.004 149.664 13.1213 149.248 13.356C148.832 13.58 148.539 13.836 148.368 14.124V19.5H146.928ZM159.982 19.5L159.118 17.292H153.886L153.022 19.5H151.262L155.502 8.828H157.502L161.742 19.5H159.982ZM156.494 10.22L154.35 15.868H158.654L156.494 10.22ZM164.431 22.444H162.991V11.772H164.431V12.876C164.719 12.492 165.087 12.1827 165.535 11.948C165.983 11.7027 166.457 11.58 166.959 11.58C167.449 11.58 167.908 11.676 168.335 11.868C168.761 12.0493 169.129 12.316 169.439 12.668C169.748 13.02 169.983 13.452 170.143 13.964C170.313 14.4653 170.399 15.02 170.399 15.628C170.399 16.236 170.313 16.796 170.143 17.308C169.983 17.82 169.748 18.252 169.439 18.604C169.129 18.956 168.761 19.228 168.335 19.42C167.908 19.6013 167.449 19.692 166.959 19.692C166.457 19.692 165.988 19.58 165.551 19.356C165.113 19.1213 164.74 18.796 164.431 18.38V22.444ZM168.895 15.628C168.895 14.8173 168.681 14.156 168.255 13.644C167.839 13.1213 167.279 12.86 166.575 12.86C166.148 12.86 165.732 12.972 165.327 13.196C164.921 13.4093 164.623 13.676 164.431 13.996V17.276C164.623 17.5853 164.921 17.852 165.327 18.076C165.743 18.3 166.159 18.412 166.575 18.412C167.279 18.412 167.839 18.156 168.255 17.644C168.681 17.1213 168.895 16.4493 168.895 15.628ZM173.665 22.444H172.225V11.772H173.665V12.876C173.953 12.492 174.321 12.1827 174.769 11.948C175.217 11.7027 175.692 11.58 176.193 11.58C176.684 11.58 177.142 11.676 177.569 11.868C177.996 12.0493 178.364 12.316 178.673 12.668C178.982 13.02 179.217 13.452 179.377 13.964C179.548 14.4653 179.633 15.02 179.633 15.628C179.633 16.236 179.548 16.796 179.377 17.308C179.217 17.82 178.982 18.252 178.673 18.604C178.364 18.956 177.996 19.228 177.569 19.42C177.142 19.6013 176.684 19.692 176.193 19.692C175.692 19.692 175.222 19.58 174.785 19.356C174.348 19.1213 173.974 18.796 173.665 18.38V22.444ZM178.129 15.628C178.129 14.8173 177.916 14.156 177.489 13.644C177.073 13.1213 176.513 12.86 175.809 12.86C175.382 12.86 174.966 12.972 174.561 13.196C174.156 13.4093 173.857 13.676 173.665 13.996V17.276C173.857 17.5853 174.156 17.852 174.561 18.076C174.977 18.3 175.393 18.412 175.809 18.412C176.513 18.412 177.073 18.156 177.489 17.644C177.916 17.1213 178.129 16.4493 178.129 15.628ZM181.459 19.5V11.772H182.899V12.956C183.209 12.5613 183.587 12.236 184.035 11.98C184.483 11.724 184.947 11.596 185.427 11.596V13.052C185.289 13.02 185.123 13.004 184.931 13.004C184.579 13.004 184.195 13.1213 183.779 13.356C183.363 13.58 183.07 13.836 182.899 14.124V19.5H181.459ZM190.29 19.692C189.714 19.692 189.18 19.5907 188.69 19.388C188.199 19.1747 187.783 18.8813 187.442 18.508C187.1 18.1347 186.839 17.7027 186.658 17.212C186.476 16.7107 186.386 16.1827 186.386 15.628C186.386 15.084 186.476 14.5667 186.658 14.076C186.839 13.5747 187.1 13.1373 187.442 12.764C187.783 12.3907 188.199 12.1027 188.69 11.9C189.18 11.6867 189.714 11.58 190.29 11.58C190.866 11.58 191.399 11.6867 191.89 11.9C192.38 12.1027 192.796 12.3907 193.138 12.764C193.479 13.1373 193.74 13.5747 193.922 14.076C194.103 14.5667 194.194 15.084 194.194 15.628C194.194 16.1827 194.103 16.7107 193.922 17.212C193.74 17.7027 193.479 18.1347 193.138 18.508C192.796 18.8813 192.38 19.1747 191.89 19.388C191.399 19.5907 190.866 19.692 190.29 19.692ZM190.29 18.412C191.026 18.412 191.607 18.14 192.034 17.596C192.471 17.052 192.69 16.396 192.69 15.628C192.69 15.1693 192.594 14.716 192.402 14.268C192.22 13.82 191.938 13.4733 191.554 13.228C191.17 12.9827 190.748 12.86 190.29 12.86C189.831 12.86 189.426 12.972 189.074 13.196C188.722 13.42 188.434 13.7453 188.21 14.172C187.996 14.588 187.89 15.0733 187.89 15.628C187.89 15.9907 187.943 16.3427 188.05 16.684C188.156 17.0253 188.311 17.324 188.514 17.58C188.727 17.836 188.983 18.0387 189.282 18.188C189.591 18.3373 189.927 18.412 190.29 18.412ZM198.07 19.5L194.886 11.772H196.422L198.838 17.836L201.254 11.772H202.806L199.622 19.5H198.07ZM203.495 15.628C203.495 15.084 203.591 14.5667 203.783 14.076C203.975 13.5747 204.242 13.1373 204.583 12.764C204.935 12.3907 205.351 12.1027 205.831 11.9C206.311 11.6867 206.823 11.58 207.367 11.58C207.922 11.58 208.434 11.6867 208.903 11.9C209.383 12.1027 209.783 12.396 210.103 12.78C210.434 13.1533 210.684 13.6013 210.855 14.124C211.036 14.636 211.127 15.18 211.127 15.756V16.108H205.015C205.026 16.236 205.068 16.4493 205.143 16.748C205.228 17.0467 205.383 17.3293 205.607 17.596C205.831 17.8627 206.108 18.0813 206.439 18.252C206.77 18.4227 207.17 18.508 207.639 18.508C208.055 18.508 208.471 18.428 208.887 18.268C209.303 18.108 209.65 17.884 209.927 17.596L210.599 18.54C210.226 18.9133 209.767 19.2013 209.223 19.404C208.69 19.596 208.114 19.692 207.495 19.692C206.93 19.692 206.402 19.596 205.911 19.404C205.42 19.2013 204.994 18.924 204.631 18.572C204.268 18.2093 203.986 17.7773 203.783 17.276C203.591 16.764 203.495 16.2147 203.495 15.628ZM207.367 12.764C207.004 12.764 206.642 12.8493 206.279 13.02C205.927 13.18 205.634 13.4573 205.399 13.852C205.164 14.2467 205.031 14.652 204.999 15.068H209.719C209.708 14.812 209.639 14.508 209.511 14.156C209.383 13.7933 209.132 13.4733 208.759 13.196C208.396 12.908 207.932 12.764 207.367 12.764ZM218.432 19.5V18.396C218.144 18.78 217.771 19.0947 217.312 19.34C216.864 19.5747 216.395 19.692 215.904 19.692C215.541 19.692 215.163 19.628 214.768 19.5C214.373 19.3827 213.984 19.148 213.6 18.796C213.216 18.444 212.928 17.9853 212.736 17.42C212.544 16.844 212.448 16.252 212.448 15.644C212.448 15.0467 212.533 14.4973 212.704 13.996C212.875 13.484 213.115 13.052 213.424 12.7C213.733 12.3373 214.101 12.06 214.528 11.868C214.955 11.676 215.413 11.58 215.904 11.58C216.395 11.58 216.859 11.6973 217.296 11.932C217.744 12.156 218.123 12.476 218.432 12.892V8.828H219.872V19.5H218.432ZM218.432 17.292V13.996C218.229 13.676 217.925 13.4093 217.52 13.196C217.125 12.972 216.715 12.86 216.288 12.86C215.584 12.86 215.019 13.1213 214.592 13.644C214.165 14.156 213.952 14.8227 213.952 15.644C213.952 16.4547 214.165 17.1213 214.592 17.644C215.019 18.156 215.584 18.412 216.288 18.412C216.715 18.412 217.125 18.3053 217.52 18.092C217.925 17.8787 218.229 17.612 218.432 17.292Z" fill="#EC7F00"/>
<path d="M37.6479 17.996L38.5599 16.764C38.8372 17.0733 39.1732 17.3507 39.5679 17.596C39.9625 17.8413 40.3679 18.0173 40.7839 18.124C41.1999 18.22 41.5785 18.268 41.9199 18.268C42.4212 18.268 42.8479 18.1987 43.1999 18.06C43.5519 17.9107 43.8132 17.708 43.9839 17.452C44.1652 17.196 44.2559 16.9187 44.2559 16.62C44.2559 16.236 44.0959 15.9107 43.7759 15.644C43.4665 15.3773 42.7679 15.1053 41.6799 14.828C40.6452 14.5613 39.8879 14.3 39.4079 14.044C38.9279 13.788 38.5705 13.4627 38.3359 13.068C38.1012 12.6733 37.9839 12.22 37.9839 11.708C37.9839 11.388 38.0425 11.0573 38.1599 10.716C38.2879 10.364 38.5225 10.0227 38.8639 9.692C39.2052 9.35067 39.6372 9.09467 40.1599 8.924C40.6825 8.75333 41.2159 8.668 41.7599 8.668C42.5599 8.668 43.2905 8.796 43.9519 9.052C44.6132 9.308 45.1785 9.676 45.6479 10.156L44.7199 11.34C44.3252 10.924 43.8559 10.6147 43.3119 10.412C42.7785 10.1987 42.2185 10.092 41.6319 10.092C41.2052 10.092 40.8265 10.172 40.4959 10.332C40.1652 10.492 39.9359 10.6947 39.8079 10.94C39.6905 11.1747 39.6319 11.3933 39.6319 11.596C39.6319 11.9373 39.7865 12.2253 40.0959 12.46C40.4159 12.6947 41.0879 12.94 42.1119 13.196C43.1572 13.4733 43.9252 13.7507 44.4159 14.028C44.9172 14.2947 45.2852 14.636 45.5199 15.052C45.7652 15.468 45.8879 15.9427 45.8879 16.476C45.8879 17.1373 45.7225 17.708 45.3919 18.188C45.0612 18.668 44.6025 19.0413 44.0159 19.308C43.4292 19.564 42.7092 19.692 41.8559 19.692C40.9599 19.692 40.1492 19.5427 39.4239 19.244C38.7092 18.9347 38.1172 18.5187 37.6479 17.996ZM47.2294 15.628C47.2294 15.084 47.3254 14.5667 47.5174 14.076C47.7094 13.5747 47.976 13.1373 48.3174 12.764C48.6694 12.3907 49.0854 12.1027 49.5654 11.9C50.0454 11.6867 50.5574 11.58 51.1014 11.58C51.656 11.58 52.168 11.6867 52.6374 11.9C53.1174 12.1027 53.5174 12.396 53.8374 12.78C54.168 13.1533 54.4187 13.6013 54.5894 14.124C54.7707 14.636 54.8614 15.18 54.8614 15.756V16.108H48.7494C48.76 16.236 48.8027 16.4493 48.8774 16.748C48.9627 17.0467 49.1174 17.3293 49.3414 17.596C49.5654 17.8627 49.8427 18.0813 50.1734 18.252C50.504 18.4227 50.904 18.508 51.3734 18.508C51.7894 18.508 52.2054 18.428 52.6214 18.268C53.0374 18.108 53.384 17.884 53.6614 17.596L54.3334 18.54C53.96 18.9133 53.5014 19.2013 52.9574 19.404C52.424 19.596 51.848 19.692 51.2294 19.692C50.664 19.692 50.136 19.596 49.6454 19.404C49.1547 19.2013 48.728 18.924 48.3654 18.572C48.0027 18.2093 47.72 17.7773 47.5174 17.276C47.3254 16.764 47.2294 16.2147 47.2294 15.628ZM51.1014 12.764C50.7387 12.764 50.376 12.8493 50.0134 13.02C49.6614 13.18 49.368 13.4573 49.1334 13.852C48.8987 14.2467 48.7654 14.652 48.7334 15.068H53.4534C53.4427 14.812 53.3734 14.508 53.2454 14.156C53.1174 13.7933 52.8667 13.4733 52.4934 13.196C52.1307 12.908 51.6667 12.764 51.1014 12.764ZM56.1825 15.628C56.1825 15.084 56.2785 14.5667 56.4705 14.076C56.6625 13.5747 56.9292 13.1373 57.2705 12.764C57.6225 12.3907 58.0385 12.1027 58.5185 11.9C58.9985 11.6867 59.5105 11.58 60.0545 11.58C60.6092 11.58 61.1212 11.6867 61.5905 11.9C62.0705 12.1027 62.4705 12.396 62.7905 12.78C63.1212 13.1533 63.3718 13.6013 63.5425 14.124C63.7238 14.636 63.8145 15.18 63.8145 15.756V16.108H57.7025C57.7132 16.236 57.7558 16.4493 57.8305 16.748C57.9158 17.0467 58.0705 17.3293 58.2945 17.596C58.5185 17.8627 58.7958 18.0813 59.1265 18.252C59.4572 18.4227 59.8572 18.508 60.3265 18.508C60.7425 18.508 61.1585 18.428 61.5745 18.268C61.9905 18.108 62.3372 17.884 62.6145 17.596L63.2865 18.54C62.9132 18.9133 62.4545 19.2013 61.9105 19.404C61.3772 19.596 60.8012 19.692 60.1825 19.692C59.6172 19.692 59.0892 19.596 58.5985 19.404C58.1078 19.2013 57.6812 18.924 57.3185 18.572C56.9558 18.2093 56.6732 17.7773 56.4705 17.276C56.2785 16.764 56.1825 16.2147 56.1825 15.628ZM60.0545 12.764C59.6918 12.764 59.3292 12.8493 58.9665 13.02C58.6145 13.18 58.3212 13.4573 58.0865 13.852C57.8518 14.2467 57.7185 14.652 57.6865 15.068H62.4065C62.3958 14.812 62.3265 14.508 62.1985 14.156C62.0705 13.7933 61.8198 13.4733 61.4465 13.196C61.0838 12.908 60.6198 12.764 60.0545 12.764ZM73.1646 19.692C72.5886 19.692 72.0553 19.5907 71.5646 19.388C71.074 19.1747 70.658 18.8813 70.3166 18.508C69.9753 18.1347 69.714 17.7027 69.5326 17.212C69.3513 16.7107 69.2606 16.1827 69.2606 15.628C69.2606 15.084 69.3513 14.5667 69.5326 14.076C69.714 13.5747 69.9753 13.1373 70.3166 12.764C70.658 12.3907 71.074 12.1027 71.5646 11.9C72.0553 11.6867 72.5886 11.58 73.1646 11.58C73.7406 11.58 74.274 11.6867 74.7646 11.9C75.2553 12.1027 75.6713 12.3907 76.0126 12.764C76.354 13.1373 76.6153 13.5747 76.7966 14.076C76.978 14.5667 77.0686 15.084 77.0686 15.628C77.0686 16.1827 76.978 16.7107 76.7966 17.212C76.6153 17.7027 76.354 18.1347 76.0126 18.508C75.6713 18.8813 75.2553 19.1747 74.7646 19.388C74.274 19.5907 73.7406 19.692 73.1646 19.692ZM73.1646 18.412C73.9006 18.412 74.482 18.14 74.9086 17.596C75.346 17.052 75.5646 16.396 75.5646 15.628C75.5646 15.1693 75.4686 14.716 75.2766 14.268C75.0953 13.82 74.8126 13.4733 74.4286 13.228C74.0446 12.9827 73.6233 12.86 73.1646 12.86C72.706 12.86 72.3006 12.972 71.9486 13.196C71.5966 13.42 71.3086 13.7453 71.0846 14.172C70.8713 14.588 70.7646 15.0733 70.7646 15.628C70.7646 15.9907 70.818 16.3427 70.9246 16.684C71.0313 17.0253 71.186 17.324 71.3886 17.58C71.602 17.836 71.858 18.0387 72.1566 18.188C72.466 18.3373 72.802 18.412 73.1646 18.412ZM84.1129 19.5V14.556C84.1129 13.4253 83.5635 12.86 82.4649 12.86C82.0489 12.86 81.6435 12.972 81.2489 13.196C80.8649 13.4093 80.5609 13.6707 80.3369 13.98V19.5H78.8969V11.772H80.3369V12.86C80.5395 12.6147 80.8062 12.3853 81.1369 12.172C81.4675 11.9587 81.8035 11.8093 82.1449 11.724C82.4969 11.628 82.8062 11.58 83.0729 11.58C83.8835 11.58 84.4969 11.7933 84.9129 12.22C85.3395 12.6467 85.5529 13.2653 85.5529 14.076V19.5H84.1129ZM91.3354 17.996L92.2474 16.764C92.5247 17.0733 92.8607 17.3507 93.2554 17.596C93.65 17.8413 94.0554 18.0173 94.4714 18.124C94.8874 18.22 95.266 18.268 95.6074 18.268C96.1087 18.268 96.5354 18.1987 96.8874 18.06C97.2394 17.9107 97.5007 17.708 97.6714 17.452C97.8527 17.196 97.9434 16.9187 97.9434 16.62C97.9434 16.236 97.7834 15.9107 97.4634 15.644C97.154 15.3773 96.4554 15.1053 95.3674 14.828C94.3327 14.5613 93.5754 14.3 93.0954 14.044C92.6154 13.788 92.258 13.4627 92.0234 13.068C91.7887 12.6733 91.6714 12.22 91.6714 11.708C91.6714 11.388 91.73 11.0573 91.8474 10.716C91.9754 10.364 92.21 10.0227 92.5514 9.692C92.8927 9.35067 93.3247 9.09467 93.8474 8.924C94.37 8.75333 94.9034 8.668 95.4474 8.668C96.2474 8.668 96.978 8.796 97.6394 9.052C98.3007 9.308 98.866 9.676 99.3354 10.156L98.4074 11.34C98.0127 10.924 97.5434 10.6147 96.9994 10.412C96.466 10.1987 95.906 10.092 95.3194 10.092C94.8927 10.092 94.514 10.172 94.1834 10.332C93.8527 10.492 93.6234 10.6947 93.4954 10.94C93.378 11.1747 93.3194 11.3933 93.3194 11.596C93.3194 11.9373 93.474 12.2253 93.7834 12.46C94.1034 12.6947 94.7754 12.94 95.7994 13.196C96.8447 13.4733 97.6127 13.7507 98.1034 14.028C98.6047 14.2947 98.9727 14.636 99.2074 15.052C99.4527 15.468 99.5754 15.9427 99.5754 16.476C99.5754 17.1373 99.41 17.708 99.0794 18.188C98.7487 18.668 98.29 19.0413 97.7034 19.308C97.1167 19.564 96.3967 19.692 95.5434 19.692C94.6474 19.692 93.8367 19.5427 93.1114 19.244C92.3967 18.9347 91.8047 18.5187 91.3354 17.996ZM106.613 19.5V14.524C106.613 13.9267 106.469 13.5 106.181 13.244C105.893 12.988 105.488 12.86 104.965 12.86C104.549 12.86 104.144 12.972 103.749 13.196C103.365 13.4093 103.061 13.6707 102.837 13.98V19.5H101.397V8.828H102.837V12.86C103.114 12.5187 103.504 12.22 104.005 11.964C104.506 11.708 105.029 11.58 105.573 11.58C107.226 11.58 108.053 12.4013 108.053 14.044V19.5H106.613ZM113.774 19.692C113.198 19.692 112.665 19.5907 112.174 19.388C111.683 19.1747 111.267 18.8813 110.926 18.508C110.585 18.1347 110.323 17.7027 110.142 17.212C109.961 16.7107 109.87 16.1827 109.87 15.628C109.87 15.084 109.961 14.5667 110.142 14.076C110.323 13.5747 110.585 13.1373 110.926 12.764C111.267 12.3907 111.683 12.1027 112.174 11.9C112.665 11.6867 113.198 11.58 113.774 11.58C114.35 11.58 114.883 11.6867 115.374 11.9C115.865 12.1027 116.281 12.3907 116.622 12.764C116.963 13.1373 117.225 13.5747 117.406 14.076C117.587 14.5667 117.678 15.084 117.678 15.628C117.678 16.1827 117.587 16.7107 117.406 17.212C117.225 17.7027 116.963 18.1347 116.622 18.508C116.281 18.8813 115.865 19.1747 115.374 19.388C114.883 19.5907 114.35 19.692 113.774 19.692ZM113.774 18.412C114.51 18.412 115.091 18.14 115.518 17.596C115.955 17.052 116.174 16.396 116.174 15.628C116.174 15.1693 116.078 14.716 115.886 14.268C115.705 13.82 115.422 13.4733 115.038 13.228C114.654 12.9827 114.233 12.86 113.774 12.86C113.315 12.86 112.91 12.972 112.558 13.196C112.206 13.42 111.918 13.7453 111.694 14.172C111.481 14.588 111.374 15.0733 111.374 15.628C111.374 15.9907 111.427 16.3427 111.534 16.684C111.641 17.0253 111.795 17.324 111.998 17.58C112.211 17.836 112.467 18.0387 112.766 18.188C113.075 18.3373 113.411 18.412 113.774 18.412ZM120.946 22.444H119.506V11.772H120.946V12.876C121.234 12.492 121.602 12.1827 122.05 11.948C122.498 11.7027 122.973 11.58 123.474 11.58C123.965 11.58 124.424 11.676 124.85 11.868C125.277 12.0493 125.645 12.316 125.954 12.668C126.264 13.02 126.498 13.452 126.658 13.964C126.829 14.4653 126.914 15.02 126.914 15.628C126.914 16.236 126.829 16.796 126.658 17.308C126.498 17.82 126.264 18.252 125.954 18.604C125.645 18.956 125.277 19.228 124.85 19.42C124.424 19.6013 123.965 19.692 123.474 19.692C122.973 19.692 122.504 19.58 122.066 19.356C121.629 19.1213 121.256 18.796 120.946 18.38V22.444ZM125.41 15.628C125.41 14.8173 125.197 14.156 124.77 13.644C124.354 13.1213 123.794 12.86 123.09 12.86C122.664 12.86 122.248 12.972 121.842 13.196C121.437 13.4093 121.138 13.676 120.946 13.996V17.276C121.138 17.5853 121.437 17.852 121.842 18.076C122.258 18.3 122.674 18.412 123.09 18.412C123.794 18.412 124.354 18.156 124.77 17.644C125.197 17.1213 125.41 16.4493 125.41 15.628ZM130.181 22.444H128.741V11.772H130.181V12.876C130.469 12.492 130.837 12.1827 131.285 11.948C131.733 11.7027 132.207 11.58 132.709 11.58C133.199 11.58 133.658 11.676 134.085 11.868C134.511 12.0493 134.879 12.316 135.189 12.668C135.498 13.02 135.733 13.452 135.893 13.964C136.063 14.4653 136.149 15.02 136.149 15.628C136.149 16.236 136.063 16.796 135.893 17.308C135.733 17.82 135.498 18.252 135.189 18.604C134.879 18.956 134.511 19.228 134.085 19.42C133.658 19.6013 133.199 19.692 132.709 19.692C132.207 19.692 131.738 19.58 131.301 19.356C130.863 19.1213 130.49 18.796 130.181 18.38V22.444ZM134.645 15.628C134.645 14.8173 134.431 14.156 134.005 13.644C133.589 13.1213 133.029 12.86 132.325 12.86C131.898 12.86 131.482 12.972 131.077 13.196C130.671 13.4093 130.373 13.676 130.181 13.996V17.276C130.373 17.5853 130.671 17.852 131.077 18.076C131.493 18.3 131.909 18.412 132.325 18.412C133.029 18.412 133.589 18.156 134.005 17.644C134.431 17.1213 134.645 16.4493 134.645 15.628ZM137.495 15.628C137.495 15.084 137.591 14.5667 137.783 14.076C137.975 13.5747 138.242 13.1373 138.583 12.764C138.935 12.3907 139.351 12.1027 139.831 11.9C140.311 11.6867 140.823 11.58 141.367 11.58C141.922 11.58 142.434 11.6867 142.903 11.9C143.383 12.1027 143.783 12.396 144.103 12.78C144.434 13.1533 144.684 13.6013 144.855 14.124C145.036 14.636 145.127 15.18 145.127 15.756V16.108H139.015C139.026 16.236 139.068 16.4493 139.143 16.748C139.228 17.0467 139.383 17.3293 139.607 17.596C139.831 17.8627 140.108 18.0813 140.439 18.252C140.77 18.4227 141.17 18.508 141.639 18.508C142.055 18.508 142.471 18.428 142.887 18.268C143.303 18.108 143.65 17.884 143.927 17.596L144.599 18.54C144.226 18.9133 143.767 19.2013 143.223 19.404C142.69 19.596 142.114 19.692 141.495 19.692C140.93 19.692 140.402 19.596 139.911 19.404C139.42 19.2013 138.994 18.924 138.631 18.572C138.268 18.2093 137.986 17.7773 137.783 17.276C137.591 16.764 137.495 16.2147 137.495 15.628ZM141.367 12.764C141.004 12.764 140.642 12.8493 140.279 13.02C139.927 13.18 139.634 13.4573 139.399 13.852C139.164 14.2467 139.031 14.652 138.999 15.068H143.719C143.708 14.812 143.639 14.508 143.511 14.156C143.383 13.7933 143.132 13.4733 142.759 13.196C142.396 12.908 141.932 12.764 141.367 12.764ZM146.928 19.5V11.772H148.368V12.956C148.677 12.5613 149.056 12.236 149.504 11.98C149.952 11.724 150.416 11.596 150.896 11.596V13.052C150.757 13.02 150.592 13.004 150.4 13.004C150.048 13.004 149.664 13.1213 149.248 13.356C148.832 13.58 148.539 13.836 148.368 14.124V19.5H146.928ZM159.982 19.5L159.118 17.292H153.886L153.022 19.5H151.262L155.502 8.828H157.502L161.742 19.5H159.982ZM156.494 10.22L154.35 15.868H158.654L156.494 10.22ZM164.431 22.444H162.991V11.772H164.431V12.876C164.719 12.492 165.087 12.1827 165.535 11.948C165.983 11.7027 166.457 11.58 166.959 11.58C167.449 11.58 167.908 11.676 168.335 11.868C168.761 12.0493 169.129 12.316 169.439 12.668C169.748 13.02 169.983 13.452 170.143 13.964C170.313 14.4653 170.399 15.02 170.399 15.628C170.399 16.236 170.313 16.796 170.143 17.308C169.983 17.82 169.748 18.252 169.439 18.604C169.129 18.956 168.761 19.228 168.335 19.42C167.908 19.6013 167.449 19.692 166.959 19.692C166.457 19.692 165.988 19.58 165.551 19.356C165.113 19.1213 164.74 18.796 164.431 18.38V22.444ZM168.895 15.628C168.895 14.8173 168.681 14.156 168.255 13.644C167.839 13.1213 167.279 12.86 166.575 12.86C166.148 12.86 165.732 12.972 165.327 13.196C164.921 13.4093 164.623 13.676 164.431 13.996V17.276C164.623 17.5853 164.921 17.852 165.327 18.076C165.743 18.3 166.159 18.412 166.575 18.412C167.279 18.412 167.839 18.156 168.255 17.644C168.681 17.1213 168.895 16.4493 168.895 15.628ZM173.665 22.444H172.225V11.772H173.665V12.876C173.953 12.492 174.321 12.1827 174.769 11.948C175.217 11.7027 175.692 11.58 176.193 11.58C176.684 11.58 177.142 11.676 177.569 11.868C177.996 12.0493 178.364 12.316 178.673 12.668C178.982 13.02 179.217 13.452 179.377 13.964C179.548 14.4653 179.633 15.02 179.633 15.628C179.633 16.236 179.548 16.796 179.377 17.308C179.217 17.82 178.982 18.252 178.673 18.604C178.364 18.956 177.996 19.228 177.569 19.42C177.142 19.6013 176.684 19.692 176.193 19.692C175.692 19.692 175.222 19.58 174.785 19.356C174.348 19.1213 173.974 18.796 173.665 18.38V22.444ZM178.129 15.628C178.129 14.8173 177.916 14.156 177.489 13.644C177.073 13.1213 176.513 12.86 175.809 12.86C175.382 12.86 174.966 12.972 174.561 13.196C174.156 13.4093 173.857 13.676 173.665 13.996V17.276C173.857 17.5853 174.156 17.852 174.561 18.076C174.977 18.3 175.393 18.412 175.809 18.412C176.513 18.412 177.073 18.156 177.489 17.644C177.916 17.1213 178.129 16.4493 178.129 15.628ZM181.459 19.5V11.772H182.899V12.956C183.209 12.5613 183.587 12.236 184.035 11.98C184.483 11.724 184.947 11.596 185.427 11.596V13.052C185.289 13.02 185.123 13.004 184.931 13.004C184.579 13.004 184.195 13.1213 183.779 13.356C183.363 13.58 183.07 13.836 182.899 14.124V19.5H181.459ZM190.29 19.692C189.714 19.692 189.18 19.5907 188.69 19.388C188.199 19.1747 187.783 18.8813 187.442 18.508C187.1 18.1347 186.839 17.7027 186.658 17.212C186.476 16.7107 186.386 16.1827 186.386 15.628C186.386 15.084 186.476 14.5667 186.658 14.076C186.839 13.5747 187.1 13.1373 187.442 12.764C187.783 12.3907 188.199 12.1027 188.69 11.9C189.18 11.6867 189.714 11.58 190.29 11.58C190.866 11.58 191.399 11.6867 191.89 11.9C192.38 12.1027 192.796 12.3907 193.138 12.764C193.479 13.1373 193.74 13.5747 193.922 14.076C194.103 14.5667 194.194 15.084 194.194 15.628C194.194 16.1827 194.103 16.7107 193.922 17.212C193.74 17.7027 193.479 18.1347 193.138 18.508C192.796 18.8813 192.38 19.1747 191.89 19.388C191.399 19.5907 190.866 19.692 190.29 19.692ZM190.29 18.412C191.026 18.412 191.607 18.14 192.034 17.596C192.471 17.052 192.69 16.396 192.69 15.628C192.69 15.1693 192.594 14.716 192.402 14.268C192.22 13.82 191.938 13.4733 191.554 13.228C191.17 12.9827 190.748 12.86 190.29 12.86C189.831 12.86 189.426 12.972 189.074 13.196C188.722 13.42 188.434 13.7453 188.21 14.172C187.996 14.588 187.89 15.0733 187.89 15.628C187.89 15.9907 187.943 16.3427 188.05 16.684C188.156 17.0253 188.311 17.324 188.514 17.58C188.727 17.836 188.983 18.0387 189.282 18.188C189.591 18.3373 189.927 18.412 190.29 18.412ZM198.07 19.5L194.886 11.772H196.422L198.838 17.836L201.254 11.772H202.806L199.622 19.5H198.07ZM203.495 15.628C203.495 15.084 203.591 14.5667 203.783 14.076C203.975 13.5747 204.242 13.1373 204.583 12.764C204.935 12.3907 205.351 12.1027 205.831 11.9C206.311 11.6867 206.823 11.58 207.367 11.58C207.922 11.58 208.434 11.6867 208.903 11.9C209.383 12.1027 209.783 12.396 210.103 12.78C210.434 13.1533 210.684 13.6013 210.855 14.124C211.036 14.636 211.127 15.18 211.127 15.756V16.108H205.015C205.026 16.236 205.068 16.4493 205.143 16.748C205.228 17.0467 205.383 17.3293 205.607 17.596C205.831 17.8627 206.108 18.0813 206.439 18.252C206.77 18.4227 207.17 18.508 207.639 18.508C208.055 18.508 208.471 18.428 208.887 18.268C209.303 18.108 209.65 17.884 209.927 17.596L210.599 18.54C210.226 18.9133 209.767 19.2013 209.223 19.404C208.69 19.596 208.114 19.692 207.495 19.692C206.93 19.692 206.402 19.596 205.911 19.404C205.42 19.2013 204.994 18.924 204.631 18.572C204.268 18.2093 203.986 17.7773 203.783 17.276C203.591 16.764 203.495 16.2147 203.495 15.628ZM207.367 12.764C207.004 12.764 206.642 12.8493 206.279 13.02C205.927 13.18 205.634 13.4573 205.399 13.852C205.164 14.2467 205.031 14.652 204.999 15.068H209.719C209.708 14.812 209.639 14.508 209.511 14.156C209.383 13.7933 209.132 13.4733 208.759 13.196C208.396 12.908 207.932 12.764 207.367 12.764ZM218.432 19.5V18.396C218.144 18.78 217.771 19.0947 217.312 19.34C216.864 19.5747 216.395 19.692 215.904 19.692C215.541 19.692 215.163 19.628 214.768 19.5C214.373 19.3827 213.984 19.148 213.6 18.796C213.216 18.444 212.928 17.9853 212.736 17.42C212.544 16.844 212.448 16.252 212.448 15.644C212.448 15.0467 212.533 14.4973 212.704 13.996C212.875 13.484 213.115 13.052 213.424 12.7C213.733 12.3373 214.101 12.06 214.528 11.868C214.955 11.676 215.413 11.58 215.904 11.58C216.395 11.58 216.859 11.6973 217.296 11.932C217.744 12.156 218.123 12.476 218.432 12.892V8.828H219.872V19.5H218.432ZM218.432 17.292V13.996C218.229 13.676 217.925 13.4093 217.52 13.196C217.125 12.972 216.715 12.86 216.288 12.86C215.584 12.86 215.019 13.1213 214.592 13.644C214.165 14.156 213.952 14.8227 213.952 15.644C213.952 16.4547 214.165 17.1213 214.592 17.644C215.019 18.156 215.584 18.412 216.288 18.412C216.715 18.412 217.125 18.3053 217.52 18.092C217.925 17.8787 218.229 17.612 218.432 17.292Z" fill="#EC7F00"/>
<path d="M37.1199 21.5H221.024V22.3H37.1199V21.5Z" fill="#EC7F00"/>
<path d="M37.1199 21.5H221.024V22.3H37.1199V21.5Z" fill="#EC7F00"/>
<defs>
<clipPath id="clip0_143_2967">
<rect width="28.2399" height="28" fill="white" transform="translate(0.880127)"/>
</clipPath>
</defs>
</svg>
