<svg width="288" height="24" viewBox="0 0 288 24" fill="none" xmlns="http://www.w3.org/2000/svg">
<path d="M38.3735 7.56053H40.3219V10.7275H42.5404C43.483 10.7275 44.1788 11.0095 44.6322 11.5716C45.0835 12.1357 45.3091 12.9029 45.3091 13.8794V18.3585H43.3606V14.1209C43.3606 13.6081 43.2426 13.358 43.0043 13.0931C42.766 12.826 42.5087 12.6934 42.0828 12.6934H40.4021L40.3283 18.3585H38.3798V7.56053H38.3735Z" fill="#EB7100"/>
<path d="M36.9569 15.4757C36.9485 16.2386 36.6469 16.9374 36.1556 17.4524L36.1514 17.4567C35.6263 18.0123 34.8861 18.3585 34.07 18.3585H29.7049V16.3989H34.07C34.5635 16.3989 34.9895 15.995 35.0211 15.5056L35.0063 15.4822C35.0063 15.2663 34.9662 15.0676 34.884 14.8817C34.8482 14.7983 34.7996 14.7172 34.7427 14.6423C34.6731 14.5462 34.5867 14.4522 34.4834 14.3667C34.3927 14.2919 34.2851 14.2171 34.1649 14.1402C34.0595 14.0718 33.9393 14.0055 33.8107 13.9393C33.545 13.8046 33.2055 13.6615 32.8048 13.5119L32.1173 13.2576C31.8432 13.1593 31.5564 13.0182 31.2612 12.8452C30.9765 12.6742 30.7129 12.4605 30.4788 12.2148C30.2954 12.0203 30.1373 11.8023 30.0107 11.5609C29.977 11.4989 29.9432 11.4369 29.9158 11.3707C29.7808 11.0715 29.7092 10.7339 29.7028 10.3642C29.7007 10.1056 29.7345 9.84919 29.8062 9.60556C29.9285 9.16747 30.1647 8.76146 30.4957 8.42172C31.0292 7.87463 31.7631 7.56053 32.5117 7.56053H36.436V9.5201H32.5117C32.2818 9.5201 32.0393 9.62482 31.8706 9.79791L31.8664 9.80219C31.761 9.91329 31.6366 10.0928 31.6387 10.3428C31.6408 10.4668 31.664 10.5287 31.6745 10.5522C31.7251 10.6698 31.7947 10.7702 31.8749 10.8557C31.9887 10.9753 32.1131 11.0758 32.2523 11.157C32.4337 11.2681 32.6129 11.3536 32.7795 11.4156L33.4733 11.6699C33.9414 11.8472 34.3484 12.0203 34.6774 12.187C35.0738 12.3879 35.4196 12.608 35.7043 12.8473C35.7128 12.8516 35.717 12.858 35.7254 12.8622C35.8878 12.999 36.0354 13.1508 36.1661 13.3068C36.1935 13.3324 36.221 13.3623 36.2463 13.388C36.6047 13.7662 36.8283 14.2555 36.9147 14.8453C36.9464 15.0419 36.9611 15.2556 36.959 15.4757H36.9569Z" fill="#EB7100"/>
<path d="M85.1696 10.9454C84.8107 10.8386 84.4168 10.7873 83.9865 10.7873C83.4299 10.7873 82.9235 10.8941 82.4599 11.1036C82.2591 11.1955 82.0759 11.3044 81.8985 11.4241V10.9689H79.9481V18.3585H81.8985V14.6893C81.8985 14.6252 81.9009 14.559 81.9073 14.497C81.9243 14.2791 81.9641 14.0718 82.0273 13.8794C82.0654 13.7555 82.1139 13.6401 82.1707 13.5311C82.1918 13.4905 82.2152 13.4499 82.2404 13.4114C82.3118 13.3003 82.392 13.202 82.481 13.1101C82.5565 13.029 82.639 12.9606 82.7298 12.8964C82.8392 12.8195 82.9575 12.7532 83.0798 12.6999C83.0903 12.6913 83.1026 12.6892 83.1155 12.6849C83.2841 12.6272 83.472 12.5973 83.6681 12.5973C83.8788 12.5973 84.0515 12.6144 84.1973 12.6486C84.3407 12.6849 84.4712 12.7319 84.5918 12.7939L84.6105 12.7298C84.6105 12.7298 84.6193 12.7298 84.6211 12.734L85.2726 10.9818C85.2392 10.9689 85.2053 10.9561 85.1696 10.9454Z" fill="#EB7100"/>
<path d="M61.9393 13.0204C61.7538 12.5481 61.505 12.1421 61.1883 11.8023C60.8593 11.4498 60.48 11.1762 60.0457 10.9818C59.6341 10.798 59.1852 10.7168 58.7338 10.7168H55.189V21.3865H57.0996V18.4311H58.7362C59.1852 18.4311 59.6341 18.3499 60.0474 18.1661C60.48 17.9717 60.8617 17.7003 61.1906 17.3456C61.5067 17.0058 61.7555 16.5997 61.9411 16.1275C62.1249 15.6553 62.2174 15.1381 62.2174 14.5761C62.2174 14.0141 62.1249 13.4969 61.9411 13.0247L61.9393 13.0204ZM60.1446 15.3518C60.0369 15.5847 59.8958 15.7813 59.7208 15.9437C59.5458 16.104 59.3432 16.2301 59.1155 16.3198C58.8878 16.4096 58.6455 16.4545 58.3943 16.4545H57.0974V12.6913H58.3943C58.6472 12.6913 58.8878 12.7362 59.1155 12.826C59.3432 12.9157 59.5458 13.0418 59.7208 13.202C59.8958 13.3623 60.0369 13.5611 60.1446 13.794C60.2523 14.0269 60.305 14.2876 60.305 14.5739C60.305 14.8603 60.2523 15.121 60.1446 15.3539V15.3518Z" fill="#EB7100"/>
<path d="M69.8962 13.0204C69.7106 12.5481 69.4619 12.1421 69.1458 11.8023C68.8168 11.4498 68.4375 11.1762 68.0025 10.9818C67.5916 10.798 67.1426 10.7168 66.6913 10.7168H63.1463V21.3865H65.057V18.4311H66.6931C67.1426 18.4311 67.5916 18.3499 68.0049 18.1661C68.4369 17.9717 68.8191 17.7003 69.1481 17.3456C69.4642 17.0058 69.713 16.5997 69.8985 16.1275C70.0818 15.6553 70.1748 15.1381 70.1748 14.5761C70.1748 14.0141 70.0818 13.4969 69.8985 13.0247L69.8962 13.0204ZM68.1021 15.3518C67.9943 15.5847 67.8533 15.7813 67.6782 15.9437C67.5032 16.104 67.3007 16.2301 67.073 16.3198C66.8453 16.4096 66.6023 16.4545 66.3518 16.4545H65.0546V12.6913H66.3518C66.6047 12.6913 66.8453 12.7362 67.073 12.826C67.3007 12.9157 67.5032 13.0418 67.6782 13.202C67.8533 13.3623 67.9943 13.5611 68.1021 13.794C68.2092 14.0269 68.2618 14.2876 68.2618 14.5739C68.2618 14.8603 68.2092 15.121 68.1021 15.3539V15.3518Z" fill="#EB7100"/>
<path d="M53.7718 13.0802C53.5778 12.5972 53.31 12.1827 52.9684 11.8365C52.6268 11.4903 52.2198 11.2189 51.7475 11.0223C51.2751 10.8258 50.7584 10.7274 50.1933 10.7274C49.6281 10.7274 49.1094 10.8258 48.6371 11.0223C48.1668 11.2189 47.7598 11.4903 47.4161 11.8365C47.0745 12.1827 46.8067 12.5972 46.6127 13.0802C46.4186 13.5632 46.3216 14.091 46.3216 14.6637C46.3216 15.2364 46.4186 15.7642 46.6127 16.2472C46.8067 16.7301 47.0745 17.1447 47.4161 17.4908C47.7577 17.837 48.1647 18.1085 48.6371 18.305C49.1073 18.5017 49.626 18.5999 50.1933 18.5999C50.7605 18.5999 51.2772 18.5017 51.7475 18.305C52.2177 18.1085 52.6247 17.837 52.9684 17.4908C53.31 17.1447 53.5778 16.7301 53.7718 16.2472C53.9658 15.7642 54.0629 15.2364 54.0629 14.6637C54.0629 14.091 53.9658 13.5632 53.7718 13.0802ZM51.9794 15.5099C51.8824 15.7493 51.7601 15.9437 51.5998 16.1061C51.4395 16.2685 51.2477 16.3967 51.0115 16.4929C50.7732 16.5912 50.5054 16.6404 50.1912 16.6404C49.877 16.6404 49.6092 16.5912 49.3709 16.4929C49.1368 16.3946 48.9449 16.2685 48.7847 16.1061C48.6244 15.9437 48.5021 15.7493 48.4051 15.5099C48.306 15.262 48.2575 14.9843 48.2575 14.6637C48.2575 14.3432 48.306 14.0653 48.4051 13.8174C48.5021 13.5781 48.6244 13.3837 48.7847 13.2212C48.9449 13.0589 49.1368 12.9306 49.373 12.8345C49.6113 12.7362 49.8791 12.687 50.1933 12.687C50.5075 12.687 50.7753 12.7362 51.0136 12.8345C51.2477 12.9328 51.4395 13.0589 51.5998 13.2212C51.7601 13.3837 51.8824 13.5781 51.9794 13.8174C52.0785 14.0653 52.127 14.3432 52.127 14.6637C52.127 14.9843 52.0785 15.2599 51.9794 15.5099Z" fill="#EB7100"/>
<path d="M23.2281 24L23.2091 23.9872L14.753 18.4268C15.2528 17.9161 15.7526 17.4225 16.2503 16.9459L19.0021 18.758L17.7854 15.5313C18.3527 15.0291 18.9199 14.5483 19.4872 14.091L23.2302 23.9978L23.2281 24Z" fill="#003057"/>
<path d="M21.8402 7.56053C21.6462 7.63744 21.4523 7.71863 21.254 7.80199C20.1954 8.25073 19.0693 8.832 17.9159 9.52437H15.5182L14.1666 5.94498L12.8169 9.52437H2.98809L0 7.56053H11.3071L14.1666 0L17.0218 7.56053H21.8402Z" fill="#003057"/>
<path d="M28.2399 7.43017C27.0041 7.94728 19.6362 10.1269 9.78837 21.9827C9.68078 22.1131 8.0592 23.9487 6.11491 23.9487H4.46799C5.96517 19.9997 7.59735 15.7322 7.95161 14.8175C8.31647 13.8731 8.05499 12.9157 7.29161 12.4071C7.25573 12.3836 7.22201 12.3601 7.1904 12.3387H9.25902C10.0414 12.3387 10.7267 12.9285 10.7984 13.7192C10.8005 13.7555 10.8026 13.7918 10.8047 13.826C10.8111 14.0803 10.7689 14.3517 10.6656 14.6316C10.1974 15.9031 9.57325 17.5528 9.16624 18.6256C9.29491 18.476 9.46361 18.2794 9.62599 18.1085C13.8034 13.4798 18.5354 10.3984 21.7597 9.03284C24.4694 7.88529 26.7806 7.40025 27.8518 7.40025C28.0079 7.40025 28.1365 7.41091 28.2378 7.43017H28.2399Z" fill="#EB7100"/>
<path d="M91.351 7.56053H89.9467C89.4129 7.56053 88.9346 7.896 88.7467 8.40246L85.0566 18.3585H87.2745L87.8546 16.6554C88.0338 16.1318 88.519 15.7813 89.0652 15.7813H92.2601L93.137 18.3606H95.3555L91.3534 7.56263L91.351 7.56053ZM88.8059 13.9093L90.2037 9.94531L91.6021 13.9093H88.8035H88.8059Z" fill="#003057"/>
<path d="M125.268 10.9689H127.487L129.302 15.6745H129.406L131.236 10.9689H133.438L130.298 18.3585H128.379L125.268 10.9689Z" fill="#003057"/>
<path d="M117.214 10.9454C116.855 10.8386 116.461 10.7873 116.031 10.7873C115.474 10.7873 114.968 10.8941 114.504 11.1036C114.304 11.1955 114.12 11.3044 113.943 11.4241V10.9689H111.992V18.3585H113.943V14.6893C113.943 14.6252 113.945 14.559 113.951 14.497C113.968 14.2791 114.008 14.0718 114.071 13.8794C114.109 13.7555 114.158 13.6401 114.215 13.5311C114.236 13.4905 114.259 13.4499 114.284 13.4114C114.356 13.3003 114.437 13.202 114.525 13.1101C114.601 13.029 114.683 12.9606 114.774 12.8964C114.883 12.8195 115.002 12.7532 115.124 12.6999C115.134 12.6913 115.147 12.6892 115.16 12.6849C115.328 12.6272 115.516 12.5973 115.712 12.5973C115.923 12.5973 116.096 12.6144 116.241 12.6486C116.385 12.6849 116.516 12.7319 116.636 12.7939L116.655 12.7298C116.655 12.7298 116.663 12.7298 116.665 12.734L117.317 10.9818C117.283 10.9689 117.249 10.9561 117.214 10.9454Z" fill="#003057"/>
<path d="M102.75 13.0204C102.564 12.5481 102.316 12.1421 101.999 11.8023C101.67 11.4498 101.291 11.1762 100.856 10.9818C100.445 10.798 99.9963 10.7168 99.545 10.7168H96V21.3865H97.9106V18.4311H99.5467C99.9963 18.4311 100.445 18.3499 100.859 18.1661C101.291 17.9717 101.673 17.7003 102.002 17.3456C102.318 17.0058 102.567 16.5997 102.752 16.1275C102.935 15.6553 103.028 15.1381 103.028 14.5761C103.028 14.0141 102.935 13.4969 102.752 13.0247L102.75 13.0204ZM100.956 15.3518C100.848 15.5847 100.707 15.7813 100.532 15.9437C100.357 16.104 100.154 16.2301 99.9266 16.3198C99.6989 16.4096 99.456 16.4545 99.2055 16.4545H97.9083V12.6913H99.2055C99.4583 12.6913 99.6989 12.7362 99.9266 12.826C100.154 12.9157 100.357 13.0418 100.532 13.202C100.707 13.3623 100.848 13.5611 100.956 13.794C101.063 14.0269 101.116 14.2876 101.116 14.5739C101.116 14.8603 101.063 15.121 100.956 15.3539V15.3518Z" fill="#003057"/>
<path d="M110.707 13.0204C110.522 12.5481 110.273 12.1421 109.957 11.8023C109.628 11.4498 109.248 11.1762 108.814 10.9818C108.403 10.798 107.953 10.7168 107.502 10.7168H103.957V21.3865H105.868V18.4311H107.504C107.953 18.4311 108.403 18.3499 108.816 18.1661C109.248 17.9717 109.63 17.7003 109.959 17.3456C110.275 17.0058 110.524 16.5997 110.71 16.1275C110.893 15.6553 110.986 15.1381 110.986 14.5761C110.986 14.0141 110.893 13.4969 110.71 13.0247L110.707 13.0204ZM108.913 15.3518C108.805 15.5847 108.664 15.7813 108.489 15.9437C108.314 16.104 108.112 16.2301 107.884 16.3198C107.656 16.4096 107.413 16.4545 107.162 16.4545H105.866V12.6913H107.162C107.416 12.6913 107.656 12.7362 107.884 12.826C108.112 12.9157 108.314 13.0418 108.489 13.202C108.664 13.3623 108.805 13.5611 108.913 13.794C109.02 14.0269 109.073 14.2876 109.073 14.5739C109.073 14.8603 109.02 15.121 108.913 15.3539V15.3518Z" fill="#003057"/>
<path d="M142.559 16.0527C142.744 16.525 142.993 16.931 143.309 17.2708C143.638 17.6234 144.018 17.8969 144.452 18.0914C144.863 18.2751 145.313 18.3563 145.764 18.3563H149.309V7.56053H147.399V10.6441H145.762C145.313 10.6441 144.863 10.7253 144.45 10.9091C144.018 11.1036 143.636 11.3749 143.308 11.7297C142.991 12.0694 142.742 12.4755 142.556 12.9478C142.373 13.42 142.28 13.9372 142.28 14.4992C142.28 15.0612 142.373 15.5783 142.556 16.0506L142.559 16.0527ZM144.354 13.7213C144.461 13.4884 144.602 13.2918 144.777 13.1294C144.952 12.9691 145.155 12.843 145.383 12.7532C145.61 12.6635 145.853 12.6187 146.104 12.6187H147.4V16.3818H146.104C145.85 16.3818 145.61 16.3369 145.383 16.2472C145.155 16.1574 144.952 16.0314 144.777 15.8711C144.602 15.7108 144.461 15.5121 144.354 15.2792C144.246 15.0462 144.193 14.7855 144.193 14.4992C144.193 14.2128 144.246 13.9521 144.354 13.7192V13.7213Z" fill="#003057"/>
<path d="M124.871 13.0802C124.677 12.5973 124.409 12.1827 124.068 11.8365C123.726 11.4903 123.319 11.2189 122.847 11.0224C122.374 10.8258 121.857 10.7275 121.292 10.7275C120.727 10.7275 120.208 10.8258 119.736 11.0224C119.266 11.2189 118.859 11.4903 118.515 11.8365C118.174 12.1827 117.906 12.5973 117.712 13.0802C117.517 13.5632 117.421 14.091 117.421 14.6637C117.421 15.2364 117.517 15.7643 117.712 16.2472C117.906 16.7301 118.174 17.1447 118.515 17.4909C118.857 17.8371 119.264 18.1085 119.736 18.305C120.207 18.5017 120.725 18.5999 121.292 18.5999C121.86 18.5999 122.376 18.5017 122.847 18.305C123.317 18.1085 123.724 17.8371 124.068 17.4909C124.409 17.1447 124.677 16.7301 124.871 16.2472C125.065 15.7643 125.162 15.2364 125.162 14.6637C125.162 14.091 125.065 13.5632 124.871 13.0802ZM123.078 15.5099C122.981 15.7493 122.859 15.9437 122.699 16.1062C122.539 16.2685 122.347 16.3967 122.111 16.4929C121.872 16.5913 121.604 16.6404 121.29 16.6404C120.976 16.6404 120.708 16.5913 120.47 16.4929C120.236 16.3946 120.044 16.2685 119.884 16.1062C119.724 15.9437 119.601 15.7493 119.504 15.5099C119.405 15.2621 119.357 14.9843 119.357 14.6637C119.357 14.3432 119.405 14.0653 119.504 13.8175C119.601 13.5781 119.724 13.3837 119.884 13.2212C120.044 13.0589 120.236 12.9307 120.472 12.8345C120.711 12.7362 120.978 12.687 121.292 12.687C121.607 12.687 121.874 12.7362 122.113 12.8345C122.347 12.9328 122.539 13.0589 122.699 13.2212C122.859 13.3837 122.981 13.5781 123.078 13.8175C123.177 14.0653 123.226 14.3432 123.226 14.6637C123.226 14.9843 123.177 15.2599 123.078 15.5099Z" fill="#003057"/>
<path d="M152.78 8.77645C152.78 9.39184 152.303 9.87694 151.681 9.87694C151.059 9.87694 150.576 9.39401 150.576 8.77645C150.576 8.15883 151.068 7.69083 151.681 7.69083C152.295 7.69083 152.78 8.17381 152.78 8.77645ZM150.852 8.77645C150.852 9.25938 151.205 9.64402 151.689 9.64402C152.175 9.64402 152.506 9.25938 152.506 8.78283C152.506 8.30628 152.16 7.90882 151.681 7.90882C151.202 7.90882 150.851 8.2999 150.851 8.77645H150.852ZM151.264 9.347V8.26144C151.363 8.24219 151.5 8.22726 151.675 8.22726C151.877 8.22726 151.968 8.26144 152.048 8.30628C152.107 8.35329 152.154 8.43881 152.154 8.54564C152.154 8.66529 152.063 8.75719 151.932 8.79781V8.81063C152.038 8.8512 152.094 8.93028 152.128 9.07557C152.162 9.24012 152.181 9.30638 152.206 9.347H151.939C151.905 9.30638 151.885 9.2081 151.854 9.08201C151.835 8.96236 151.77 8.90892 151.633 8.90892H151.514V9.347H151.264ZM151.519 8.73155H151.637C151.774 8.73155 151.885 8.68455 151.885 8.57344C151.885 8.47299 151.814 8.40673 151.658 8.40673C151.593 8.40673 151.546 8.41317 151.521 8.41955V8.73155H151.519Z" fill="#003057"/>
<path d="M141.19 16.604C140.85 17.2088 140.395 17.6982 139.823 18.0721C139.25 18.4461 138.552 18.632 137.725 18.632C137.168 18.632 136.652 18.5337 136.18 18.3371C135.707 18.1405 135.296 17.8648 134.948 17.5123C134.6 17.1596 134.328 16.7429 134.134 16.2643C133.94 15.7856 133.843 15.2578 133.843 14.683C133.843 14.1487 133.938 13.6401 134.128 13.1614C134.317 12.6828 134.581 12.2639 134.919 11.9049C135.256 11.5459 135.659 11.2617 136.12 11.0501C136.585 10.8386 137.094 10.7317 137.651 10.7317C138.24 10.7317 138.763 10.83 139.22 11.0267C139.678 11.2232 140.062 11.4968 140.37 11.8451C140.677 12.1934 140.912 12.6037 141.072 13.0781C141.232 13.5525 141.31 14.0675 141.31 14.6231V14.8047C141.3 14.8646 141.295 14.9202 141.295 14.9714C141.284 15.0227 141.28 15.0783 141.28 15.1381H135.768C135.808 15.4415 135.89 15.7001 136.015 15.9181C136.139 16.1361 136.293 16.3177 136.479 16.463C136.662 16.6084 136.865 16.7152 137.084 16.7814C137.303 16.8476 137.527 16.8797 137.757 16.8797C138.206 16.8797 138.575 16.7771 138.87 16.5698C139.163 16.3626 139.396 16.104 139.564 15.7899L141.192 16.6084L141.19 16.604ZM139.412 13.7277C139.401 13.5973 139.359 13.4499 139.285 13.2897C139.212 13.1294 139.102 12.9777 138.956 12.8345C138.813 12.6934 138.634 12.578 138.419 12.4861C138.204 12.3942 137.948 12.3494 137.649 12.3494C137.232 12.3494 136.863 12.4712 136.544 12.7127C136.226 12.9541 136.002 13.294 135.872 13.7277H139.412Z" fill="#003057"/>
<path d="M78.4823 16.604C78.1428 17.2088 77.6874 17.6982 77.1161 18.0721C76.5424 18.4461 75.8447 18.632 75.0182 18.632C74.4609 18.632 73.9446 18.5337 73.4722 18.3371C72.9998 18.1405 72.5889 17.8648 72.2406 17.5123C71.8929 17.1596 71.6207 16.7429 71.4269 16.2643C71.2326 15.7856 71.1354 15.2578 71.1354 14.683C71.1354 14.1487 71.2308 13.6401 71.4205 13.1614C71.6101 12.6828 71.8736 12.2639 72.2113 11.9049C72.5485 11.5459 72.9512 11.2617 73.4131 11.0501C73.8773 10.8386 74.3871 10.7317 74.9438 10.7317C75.5327 10.7317 76.0554 10.83 76.5132 11.0267C76.9703 11.2232 77.3543 11.4968 77.6622 11.8451C77.9701 12.1934 78.2043 12.6037 78.3647 13.0781C78.5245 13.5525 78.6029 14.0675 78.6029 14.6231V14.8047C78.5924 14.8646 78.5877 14.9202 78.5877 14.9714C78.5772 15.0227 78.5731 15.0783 78.5731 15.1381H73.0607C73.1011 15.4415 73.183 15.7001 73.3077 15.9181C73.4318 16.1361 73.5858 16.3177 73.7713 16.463C73.9551 16.6084 74.1577 16.7152 74.3766 16.7814C74.5961 16.8476 74.8197 16.8797 75.0498 16.8797C75.4987 16.8797 75.8675 16.7771 76.1631 16.5698C76.4558 16.3626 76.6882 16.104 76.8568 15.7899L78.4847 16.6084L78.4823 16.604ZM76.7046 13.7277C76.694 13.5973 76.6519 13.4499 76.5781 13.2897C76.5044 13.1294 76.3949 12.9777 76.2492 12.8345C76.1058 12.6934 75.9266 12.578 75.7118 12.4861C75.4964 12.3942 75.2412 12.3494 74.942 12.3494C74.5247 12.3494 74.1553 12.4712 73.8369 12.7127C73.5184 12.9541 73.2948 13.294 73.1643 13.7277H76.7046Z" fill="#EB7100"/>
<path d="M251.112 16.384L247.695 18.4256C247.542 18.509 247.393 18.5437 247.247 18.5298C247.101 18.5159 246.973 18.4673 246.862 18.384C246.751 18.3006 246.667 18.186 246.612 18.0402C246.556 17.8944 246.549 17.7451 246.591 17.5923L247.487 13.7798L244.466 11.2173C244.341 11.1062 244.264 10.9777 244.237 10.8319C244.209 10.686 244.216 10.5437 244.257 10.4048C244.299 10.2659 244.376 10.1513 244.487 10.061C244.598 9.97076 244.737 9.91867 244.903 9.90479L248.862 9.55062L250.424 5.92562C250.494 5.77284 250.591 5.65826 250.716 5.58187C250.841 5.50548 250.973 5.46729 251.112 5.46729C251.251 5.46729 251.382 5.50548 251.507 5.58187C251.632 5.65826 251.73 5.77284 251.799 5.92562L253.362 9.57145L257.32 9.90479C257.487 9.91867 257.626 9.97423 257.737 10.0715C257.848 10.1687 257.924 10.2867 257.966 10.4256C258.007 10.5645 258.011 10.7034 257.976 10.8423C257.941 10.9812 257.862 11.1062 257.737 11.2173L254.737 13.7798L255.632 17.5923C255.674 17.7451 255.667 17.8944 255.612 18.0402C255.556 18.186 255.473 18.3006 255.362 18.384C255.251 18.4673 255.122 18.5159 254.976 18.5298C254.83 18.5437 254.681 18.509 254.528 18.4256L251.112 16.384Z" fill="#DD7700"/>
<path d="M268.717 12.644L267.033 12.2412L267.641 6.83594H273.632V8.54248H269.376L269.113 10.9082C269.254 10.8252 269.469 10.7373 269.757 10.6445C270.045 10.5469 270.368 10.498 270.724 10.498C271.242 10.498 271.701 10.5786 272.101 10.7397C272.501 10.9009 272.841 11.1353 273.119 11.4429C273.402 11.7505 273.617 12.1265 273.764 12.5708C273.91 13.0151 273.983 13.5181 273.983 14.0796C273.983 14.5532 273.91 15.0049 273.764 15.4346C273.617 15.8594 273.395 16.2402 273.097 16.5771C272.799 16.9092 272.426 17.1704 271.977 17.3608C271.527 17.5513 270.995 17.6465 270.38 17.6465C269.921 17.6465 269.477 17.5781 269.047 17.4414C268.622 17.3047 268.239 17.1021 267.897 16.8335C267.56 16.5649 267.289 16.2402 267.084 15.8594C266.884 15.4736 266.779 15.0342 266.769 14.541H268.864C268.893 14.8438 268.971 15.105 269.098 15.3247C269.23 15.5396 269.403 15.7056 269.618 15.8228C269.833 15.9399 270.084 15.9985 270.373 15.9985C270.641 15.9985 270.871 15.9473 271.061 15.8447C271.251 15.7422 271.405 15.6006 271.522 15.4199C271.64 15.2344 271.725 15.0195 271.779 14.7754C271.837 14.5264 271.867 14.2578 271.867 13.9697C271.867 13.6816 271.833 13.4204 271.764 13.186C271.696 12.9517 271.591 12.749 271.449 12.5781C271.308 12.4072 271.127 12.2754 270.907 12.1826C270.692 12.0898 270.441 12.0435 270.153 12.0435C269.762 12.0435 269.459 12.1045 269.245 12.2266C269.035 12.3486 268.859 12.4878 268.717 12.644ZM275.536 16.4819C275.536 16.1694 275.644 15.9082 275.858 15.6982C276.078 15.4883 276.369 15.3833 276.73 15.3833C277.091 15.3833 277.379 15.4883 277.594 15.6982C277.814 15.9082 277.924 16.1694 277.924 16.4819C277.924 16.7944 277.814 17.0557 277.594 17.2656C277.379 17.4756 277.091 17.5806 276.73 17.5806C276.369 17.5806 276.078 17.4756 275.858 17.2656C275.644 17.0557 275.536 16.7944 275.536 16.4819ZM286.874 11.2305V13.0762C286.874 13.877 286.789 14.5679 286.618 15.1489C286.447 15.7251 286.2 16.1987 285.878 16.5698C285.561 16.936 285.182 17.207 284.743 17.3828C284.303 17.5586 283.815 17.6465 283.278 17.6465C282.848 17.6465 282.448 17.5928 282.077 17.4854C281.706 17.373 281.371 17.1997 281.073 16.9653C280.78 16.731 280.526 16.4355 280.312 16.0791C280.102 15.7178 279.94 15.2881 279.828 14.79C279.716 14.292 279.66 13.7207 279.66 13.0762V11.2305C279.66 10.4297 279.745 9.74365 279.916 9.17236C280.092 8.59619 280.338 8.125 280.656 7.75879C280.978 7.39258 281.359 7.12402 281.798 6.95312C282.238 6.77734 282.726 6.68945 283.263 6.68945C283.693 6.68945 284.091 6.74561 284.457 6.85791C284.828 6.96533 285.163 7.13379 285.46 7.36328C285.758 7.59277 286.012 7.88818 286.222 8.24951C286.432 8.60596 286.593 9.0332 286.706 9.53125C286.818 10.0244 286.874 10.5908 286.874 11.2305ZM284.757 13.3545V10.9448C284.757 10.5591 284.735 10.2222 284.691 9.93408C284.652 9.646 284.591 9.40186 284.508 9.20166C284.425 8.99658 284.323 8.83057 284.201 8.70361C284.079 8.57666 283.939 8.48389 283.783 8.42529C283.627 8.3667 283.454 8.3374 283.263 8.3374C283.024 8.3374 282.812 8.38379 282.626 8.47656C282.445 8.56934 282.292 8.71826 282.165 8.92334C282.038 9.12354 281.94 9.39209 281.872 9.729C281.808 10.061 281.776 10.4663 281.776 10.9448V13.3545C281.776 13.7402 281.796 14.0796 281.835 14.3726C281.879 14.6655 281.942 14.917 282.025 15.127C282.113 15.332 282.216 15.5005 282.333 15.6323C282.455 15.7593 282.594 15.8521 282.75 15.9106C282.912 15.9692 283.087 15.9985 283.278 15.9985C283.512 15.9985 283.72 15.9521 283.9 15.8594C284.086 15.7617 284.242 15.6104 284.369 15.4053C284.501 15.1953 284.599 14.9219 284.662 14.585C284.726 14.248 284.757 13.8379 284.757 13.3545Z" fill="#DD7700"/>
</svg>
