<svg width="204" height="32" viewBox="0 0 204 32" fill="none" xmlns="http://www.w3.org/2000/svg">
<path d="M51.1646 10.0807H53.7626V14.3033H56.7205C57.9773 14.3033 58.9051 14.6793 59.5096 15.4288C60.1113 16.1809 60.4122 17.2038 60.4122 18.5059V24.478H57.8142V18.8279C57.8142 18.1441 57.6567 17.8107 57.339 17.4574C57.0213 17.1013 56.6783 16.9246 56.1104 16.9246H53.8694L53.771 24.478H51.1731V10.0807H51.1646Z" fill="#EB7100"/>
<path d="M49.2759 20.6343C49.2646 21.6515 48.8626 22.5832 48.2075 23.2699L48.2018 23.2756C47.5017 24.0164 46.5148 24.478 45.4267 24.478H39.6066V21.8652H45.4267C46.0847 21.8652 46.6526 21.3267 46.6948 20.6742L46.6751 20.6429C46.6751 20.3551 46.6217 20.0901 46.512 19.8423C46.4642 19.7311 46.3995 19.6229 46.3237 19.5231C46.2309 19.3949 46.1156 19.2695 45.9778 19.1556C45.8569 19.0558 45.7135 18.9561 45.5532 18.8535C45.4127 18.7624 45.2524 18.674 45.0809 18.5857C44.7266 18.4062 44.2739 18.2153 43.7397 18.0158L42.8231 17.6768C42.4576 17.5458 42.0752 17.3577 41.6816 17.1269C41.302 16.899 40.9506 16.614 40.6384 16.2864C40.3938 16.0271 40.183 15.7364 40.0143 15.4145C39.9693 15.3318 39.9243 15.2492 39.8878 15.1609C39.7078 14.762 39.6123 14.3118 39.6037 13.8189C39.6009 13.4741 39.646 13.1323 39.7416 12.8074C39.9046 12.2233 40.2196 11.682 40.661 11.229C41.3723 10.4995 42.3507 10.0807 43.3489 10.0807H48.5814V12.6935H43.3489C43.0424 12.6935 42.7191 12.8331 42.4941 13.0639L42.4885 13.0696C42.3479 13.2177 42.1821 13.457 42.1849 13.7904C42.1877 13.9557 42.2186 14.0383 42.2327 14.0696C42.3002 14.2263 42.393 14.3603 42.4998 14.4742C42.6516 14.6338 42.8175 14.7677 43.0031 14.8759C43.2449 15.0242 43.4839 15.1381 43.706 15.2208L44.631 15.5598C45.2552 15.7963 45.7979 16.0271 46.2365 16.2493C46.765 16.5172 47.2261 16.8106 47.6058 17.1298C47.617 17.1355 47.6226 17.144 47.6339 17.1497C47.8504 17.3321 48.0472 17.5344 48.2215 17.7424C48.258 17.7765 48.2946 17.8164 48.3284 17.8506C48.8063 18.3549 49.1044 19.0074 49.2197 19.7938C49.2618 20.0559 49.2815 20.3408 49.2787 20.6343H49.2759Z" fill="#EB7100"/>
<path d="M113.559 14.5939C113.081 14.4514 112.556 14.3831 111.982 14.3831C111.24 14.3831 110.565 14.5255 109.947 14.8048C109.679 14.9273 109.435 15.0725 109.198 15.2322V14.6252H106.597V24.478H109.198V19.5858C109.198 19.5003 109.201 19.412 109.21 19.3293C109.232 19.0387 109.285 18.7624 109.37 18.5059C109.42 18.3407 109.485 18.1868 109.561 18.0415C109.589 17.9874 109.62 17.9332 109.654 17.8819C109.749 17.7338 109.856 17.6027 109.975 17.4802C110.075 17.3719 110.185 17.2808 110.306 17.1952C110.452 17.0927 110.61 17.0043 110.773 16.9332C110.787 16.9218 110.804 16.9189 110.821 16.9132C111.045 16.8363 111.296 16.7964 111.557 16.7964C111.838 16.7964 112.069 16.8192 112.263 16.8648C112.454 16.9132 112.628 16.9758 112.789 17.0585L112.814 16.973C112.814 16.973 112.826 16.973 112.828 16.9787L113.697 14.6423C113.652 14.6252 113.607 14.6082 113.559 14.5939Z" fill="#EB7100"/>
<path d="M82.5858 17.3605C82.3383 16.7308 82.0066 16.1895 81.5844 15.7364C81.1458 15.2663 80.64 14.9016 80.0609 14.6423C79.5122 14.3973 78.9136 14.289 78.3118 14.289H73.5853V28.5154H76.1328V24.5748H78.3149C78.9136 24.5748 79.5122 24.4666 80.0632 24.2215C80.64 23.9622 81.1489 23.6004 81.5875 23.1274C82.009 22.6743 82.3407 22.133 82.5881 21.5033C82.8332 20.8737 82.9565 20.1841 82.9565 19.4348C82.9565 18.6854 82.8332 17.9959 82.5881 17.3662L82.5858 17.3605ZM80.1928 20.4691C80.0492 20.7796 79.8611 21.0417 79.6277 21.2583C79.3943 21.472 79.1243 21.6401 78.8207 21.7598C78.5171 21.8794 78.194 21.9393 77.8591 21.9393H76.1299V16.9218H77.8591C78.1963 16.9218 78.5171 16.9815 78.8207 17.1013C79.1243 17.2209 79.3943 17.389 79.6277 17.6027C79.8611 17.8164 80.0492 18.0814 80.1928 18.392C80.3364 18.7025 80.4066 19.0501 80.4066 19.4319C80.4066 19.8137 80.3364 20.1613 80.1928 20.4719V20.4691Z" fill="#EB7100"/>
<path d="M93.1949 17.3605C92.9475 16.7308 92.6158 16.1895 92.1943 15.7364C91.7557 15.2663 91.2499 14.9016 90.67 14.6423C90.1221 14.3973 89.5235 14.289 88.9218 14.289H84.1951V28.5154H86.7426V24.5748H88.9241C89.5235 24.5748 90.1221 24.4666 90.6732 24.2215C91.2492 23.9622 91.7588 23.6004 92.1975 23.1274C92.6189 22.6743 92.9506 22.133 93.1981 21.5033C93.4423 20.8737 93.5664 20.1841 93.5664 19.4348C93.5664 18.6854 93.4423 17.9959 93.1981 17.3662L93.1949 17.3605ZM90.8027 20.4691C90.6591 20.7796 90.471 21.0417 90.2377 21.2583C90.0043 21.472 89.7342 21.6401 89.4306 21.7598C89.127 21.8794 88.8031 21.9393 88.4691 21.9393H86.7395V16.9218H88.4691C88.8062 16.9218 89.127 16.9815 89.4306 17.1013C89.7342 17.2209 90.0043 17.389 90.2377 17.6027C90.471 17.8164 90.6591 18.0814 90.8027 18.392C90.9456 18.7025 91.0158 19.0501 91.0158 19.4319C91.0158 19.8137 90.9456 20.1613 90.8027 20.4719V20.4691Z" fill="#EB7100"/>
<path d="M71.6958 17.4403C71.4371 16.7963 71.08 16.2436 70.6245 15.782C70.1691 15.3204 69.6264 14.9586 68.9966 14.6964C68.3668 14.4343 67.6779 14.3032 66.9244 14.3032C66.1708 14.3032 65.4792 14.4343 64.8494 14.6964C64.2224 14.9586 63.6798 15.3204 63.2215 15.782C62.766 16.2436 62.4089 16.7963 62.1502 17.4403C61.8915 18.0842 61.7622 18.788 61.7622 19.5516C61.7622 20.3152 61.8915 21.0189 62.1502 21.6629C62.4089 22.3068 62.766 22.8596 63.2215 23.3211C63.677 23.7827 64.2196 24.1446 64.8494 24.4067C65.4764 24.6689 66.168 24.7999 66.9244 24.7999C67.6807 24.7999 68.3696 24.6689 68.9966 24.4067C69.6236 24.1446 70.1662 23.7827 70.6245 23.3211C71.08 22.8596 71.4371 22.3068 71.6958 21.6629C71.9544 21.0189 72.0838 20.3152 72.0838 19.5516C72.0838 18.788 71.9544 18.0842 71.6958 17.4403ZM69.3058 20.6799C69.1765 20.999 69.0135 21.2583 68.7998 21.4748C68.5861 21.6914 68.3302 21.8623 68.0153 21.9906C67.6976 22.1216 67.3405 22.1872 66.9216 22.1872C66.5026 22.1872 66.1456 22.1216 65.8278 21.9906C65.5158 21.8595 65.2599 21.6914 65.0462 21.4748C64.8325 21.2583 64.6694 20.999 64.5401 20.6799C64.408 20.3493 64.3433 19.979 64.3433 19.5516C64.3433 19.1242 64.408 18.7538 64.5401 18.4233C64.6694 18.1042 64.8325 17.8449 65.0462 17.6283C65.2599 17.4118 65.5158 17.2408 65.8306 17.1127C66.1484 16.9815 66.5054 16.9161 66.9244 16.9161C67.3433 16.9161 67.7004 16.9815 68.0181 17.1127C68.3302 17.2437 68.5861 17.4118 68.7998 17.6283C69.0135 17.8449 69.1765 18.1042 69.3058 18.4233C69.438 18.7538 69.5027 19.1242 69.5027 19.5516C69.5027 19.979 69.438 20.3465 69.3058 20.6799Z" fill="#EB7100"/>
<path d="M30.9708 32L30.9455 31.9829L19.6707 24.5691C20.3371 23.8882 21.0035 23.23 21.667 22.5946L25.3362 25.0107L23.7139 20.7084C24.4702 20.0388 25.2265 19.3977 25.9829 18.788L30.9736 31.9971L30.9708 32Z" fill="white"/>
<path d="M29.1203 10.0807C28.8617 10.1833 28.603 10.2915 28.3387 10.4027C26.9272 11.001 25.4258 11.776 23.8878 12.6992H20.691L18.8887 7.92663L17.0892 12.6992H3.98412L0 10.0807H15.0761L18.8887 0L22.6957 10.0807H29.1203Z" fill="white"/>
<path d="M37.6531 9.90689C36.0055 10.5964 26.1815 13.5026 13.0512 29.3103C12.9077 29.4841 10.7456 31.9316 8.15321 31.9316H5.95731C7.95356 26.6662 10.1298 20.9762 10.6021 19.7567C11.0886 18.4974 10.74 17.2209 9.72215 16.5428C9.6743 16.5115 9.62935 16.4801 9.5872 16.4516H12.3454C13.3885 16.4516 14.3023 17.238 14.3979 18.2922C14.4007 18.3407 14.4035 18.3891 14.4063 18.4347C14.4148 18.7738 14.3586 19.1356 14.2208 19.5088C13.5966 21.2041 12.7643 23.4038 12.2217 24.8341C12.3932 24.6347 12.6181 24.3725 12.8347 24.1446C18.4045 17.9731 24.7139 13.8645 29.0129 12.0438C32.6259 10.5137 35.7075 9.867 37.1358 9.867C37.3438 9.867 37.5153 9.88121 37.6503 9.90689H37.6531Z" fill="#EB7100"/>
<path d="M121.801 10.0807H119.929C119.217 10.0807 118.58 10.528 118.329 11.2033L113.409 24.478H116.366L117.14 22.2071C117.378 21.5091 118.025 21.0418 118.754 21.0418H123.013L124.183 24.4808H127.141L121.804 10.0835L121.801 10.0807ZM118.408 18.5458L120.272 13.2604L122.136 18.5458H118.405H118.408Z" fill="white"/>
<path d="M167.024 14.6252H169.982L172.403 20.8993H172.541L174.981 14.6252H177.917L173.73 24.478H171.172L167.024 14.6252Z" fill="white"/>
<path d="M156.285 14.5939C155.807 14.4514 155.281 14.3831 154.708 14.3831C153.965 14.3831 153.29 14.5255 152.672 14.8048C152.405 14.9273 152.16 15.0725 151.924 15.2322V14.6252H149.323V24.478H151.924V19.5858C151.924 19.5003 151.927 19.412 151.935 19.3293C151.958 19.0387 152.011 18.7624 152.095 18.5059C152.146 18.3407 152.211 18.1868 152.286 18.0415C152.315 17.9874 152.346 17.9332 152.379 17.8819C152.475 17.7338 152.582 17.6027 152.7 17.4802C152.802 17.3719 152.911 17.2808 153.032 17.1952C153.178 17.0927 153.335 17.0043 153.499 16.9332C153.513 16.9218 153.53 16.9189 153.546 16.9132C153.771 16.8363 154.021 16.7964 154.283 16.7964C154.564 16.7964 154.795 16.8192 154.988 16.8648C155.18 16.9132 155.355 16.9758 155.515 17.0585L155.54 16.973C155.54 16.973 155.551 16.973 155.554 16.9787L156.422 14.6423C156.378 14.6252 156.332 14.6082 156.285 14.5939Z" fill="white"/>
<path d="M137 17.3605C136.752 16.7308 136.421 16.1895 135.999 15.7364C135.561 15.2663 135.055 14.9016 134.475 14.6423C133.927 14.3973 133.328 14.289 132.727 14.289H128V28.5154H130.548V24.5748H132.729C133.328 24.5748 133.927 24.4666 134.478 24.2215C135.055 23.9622 135.564 23.6004 136.002 23.1274C136.424 22.6743 136.756 22.133 137.003 21.5033C137.247 20.8737 137.371 20.1841 137.371 19.4348C137.371 18.6854 137.247 17.9959 137.003 17.3662L137 17.3605ZM134.608 20.4691C134.464 20.7796 134.276 21.0417 134.043 21.2583C133.809 21.472 133.539 21.6401 133.236 21.7598C132.932 21.8794 132.608 21.9393 132.274 21.9393H130.544V16.9218H132.274C132.611 16.9218 132.932 16.9815 133.236 17.1013C133.539 17.2209 133.809 17.389 134.043 17.6027C134.276 17.8164 134.464 18.0814 134.608 18.392C134.75 18.7025 134.821 19.0501 134.821 19.4319C134.821 19.8137 134.75 20.1613 134.608 20.4719V20.4691Z" fill="white"/>
<path d="M147.61 17.3605C147.362 16.7308 147.031 16.1895 146.609 15.7364C146.171 15.2663 145.664 14.9016 145.085 14.6423C144.537 14.3973 143.938 14.289 143.336 14.289H138.61V28.5154H141.157V24.5748H143.339C143.938 24.5748 144.537 24.4666 145.088 24.2215C145.664 23.9622 146.173 23.6004 146.611 23.1274C147.034 22.6743 147.365 22.133 147.613 21.5033C147.857 20.8737 147.981 20.1841 147.981 19.4348C147.981 18.6854 147.857 17.9959 147.613 17.3662L147.61 17.3605ZM145.217 20.4691C145.074 20.7796 144.885 21.0417 144.652 21.2583C144.418 21.472 144.149 21.6401 143.845 21.7598C143.541 21.8794 143.218 21.9393 142.883 21.9393H141.154V16.9218H142.883C143.221 16.9218 143.541 16.9815 143.845 17.1013C144.149 17.2209 144.418 17.389 144.652 17.6027C144.885 17.8164 145.074 18.0814 145.217 18.392C145.36 18.7025 145.431 19.0501 145.431 19.4319C145.431 19.8137 145.36 20.1613 145.217 20.4719V20.4691Z" fill="white"/>
<path d="M190.078 21.4036C190.326 22.0333 190.658 22.5747 191.079 23.0277C191.518 23.4978 192.024 23.8626 192.603 24.1218C193.151 24.3668 193.751 24.4751 194.352 24.4751H199.078V10.0807H196.532V14.1922H194.349C193.751 14.1922 193.151 14.3004 192.6 14.5455C192.024 14.8048 191.515 15.1666 191.077 15.6396C190.655 16.0926 190.323 16.634 190.075 17.2637C189.831 17.8933 189.707 18.5829 189.707 19.3322C189.707 20.0816 189.831 20.7711 190.075 21.4007L190.078 21.4036ZM192.471 18.2951C192.614 17.9845 192.803 17.7224 193.036 17.5059C193.27 17.2922 193.54 17.1241 193.844 17.0043C194.147 16.8847 194.47 16.8249 194.805 16.8249H196.534V21.8424H194.805C194.467 21.8424 194.147 21.7826 193.844 21.6629C193.54 21.5433 193.27 21.3751 193.036 21.1614C192.803 20.9477 192.614 20.6828 192.471 20.3722C192.328 20.0616 192.258 19.714 192.258 19.3322C192.258 18.9504 192.328 18.6028 192.471 18.2922V18.2951Z" fill="white"/>
<path d="M166.494 17.4403C166.236 16.7964 165.879 16.2436 165.424 15.782C164.968 15.3204 164.425 14.9586 163.796 14.6965C163.166 14.4343 162.476 14.3033 161.723 14.3033C160.969 14.3033 160.278 14.4343 159.648 14.6965C159.021 14.9586 158.479 15.3204 158.02 15.782C157.565 16.2436 157.207 16.7964 156.949 17.4403C156.69 18.0842 156.561 18.788 156.561 19.5516C156.561 20.3152 156.69 21.019 156.949 21.6629C157.207 22.3068 157.565 22.8596 158.02 23.3212C158.476 23.7828 159.018 24.1446 159.648 24.4067C160.275 24.6689 160.967 24.7999 161.723 24.7999C162.48 24.7999 163.168 24.6689 163.796 24.4067C164.422 24.1446 164.965 23.7828 165.424 23.3212C165.879 22.8596 166.236 22.3068 166.494 21.6629C166.754 21.019 166.882 20.3152 166.882 19.5516C166.882 18.788 166.754 18.0842 166.494 17.4403ZM164.105 20.6799C163.975 20.999 163.812 21.2583 163.599 21.4749C163.385 21.6914 163.129 21.8623 162.814 21.9906C162.496 22.1217 162.139 22.1872 161.72 22.1872C161.301 22.1872 160.944 22.1217 160.627 21.9906C160.315 21.8595 160.059 21.6914 159.845 21.4749C159.632 21.2583 159.468 20.999 159.339 20.6799C159.207 20.3494 159.142 19.979 159.142 19.5516C159.142 19.1242 159.207 18.7538 159.339 18.4233C159.468 18.1042 159.632 17.8449 159.845 17.6283C160.059 17.4118 160.315 17.2409 160.629 17.1127C160.948 16.9816 161.304 16.9161 161.723 16.9161C162.142 16.9161 162.499 16.9816 162.817 17.1127C163.129 17.2437 163.385 17.4118 163.599 17.6283C163.812 17.8449 163.975 18.1042 164.105 18.4233C164.236 18.7538 164.301 19.1242 164.301 19.5516C164.301 19.979 164.236 20.3465 164.105 20.6799Z" fill="white"/>
<path d="M203.707 11.7019C203.707 12.5225 203.071 13.1692 202.242 13.1692C201.412 13.1692 200.768 12.5253 200.768 11.7019C200.768 10.8784 201.424 10.2544 202.242 10.2544C203.06 10.2544 203.707 10.8984 203.707 11.7019ZM201.136 11.7019C201.136 12.3458 201.606 12.8587 202.252 12.8587C202.899 12.8587 203.341 12.3458 203.341 11.7104C203.341 11.075 202.88 10.5451 202.242 10.5451C201.603 10.5451 201.134 11.0665 201.134 11.7019H201.136ZM201.685 12.4627V11.0153C201.817 10.9896 202 10.9697 202.233 10.9697C202.503 10.9697 202.624 11.0153 202.731 11.075C202.81 11.1377 202.871 11.2517 202.871 11.3942C202.871 11.5537 202.75 11.6763 202.576 11.7304V11.7475C202.717 11.8016 202.793 11.907 202.838 12.1008C202.882 12.3202 202.908 12.4085 202.942 12.4627H202.585C202.54 12.4085 202.514 12.2775 202.472 12.1093C202.447 11.9498 202.359 11.8786 202.177 11.8786H202.019V12.4627H201.685ZM202.025 11.6421H202.182C202.366 11.6421 202.514 11.5794 202.514 11.4313C202.514 11.2973 202.419 11.209 202.21 11.209C202.124 11.209 202.061 11.2176 202.028 11.2261V11.6421H202.025Z" fill="white"/>
<path d="M188.253 22.1387C187.8 22.9451 187.193 23.5976 186.431 24.0962C185.666 24.5948 184.736 24.8427 183.634 24.8427C182.891 24.8427 182.203 24.7116 181.573 24.4495C180.943 24.1873 180.395 23.8198 179.931 23.3497C179.467 22.8795 179.104 22.3239 178.846 21.6857C178.587 21.0475 178.457 20.3437 178.457 19.5773C178.457 18.8649 178.584 18.1868 178.837 17.5486C179.09 16.9104 179.441 16.3519 179.891 15.8732C180.341 15.3946 180.878 15.0156 181.494 14.7335C182.113 14.4514 182.793 14.309 183.535 14.309C184.32 14.309 185.017 14.44 185.627 14.7022C186.237 14.9643 186.749 15.329 187.159 15.7934C187.57 16.2579 187.882 16.8049 188.096 17.4374C188.309 18.07 188.414 18.7567 188.414 19.4974V19.7396C188.4 19.8195 188.393 19.8935 188.393 19.9619C188.379 20.0303 188.374 20.1044 188.374 20.1841H181.024C181.078 20.5887 181.187 20.9335 181.353 21.2241C181.519 21.5148 181.724 21.757 181.972 21.9507C182.217 22.1445 182.487 22.2869 182.779 22.3753C183.071 22.4635 183.369 22.5063 183.676 22.5063C184.275 22.5063 184.766 22.3695 185.161 22.0931C185.551 21.8167 185.861 21.472 186.085 21.0532L188.256 22.1445L188.253 22.1387ZM185.883 18.3036C185.868 18.1298 185.812 17.9332 185.714 17.7196C185.616 17.5059 185.47 17.3036 185.275 17.1127C185.084 16.9246 184.845 16.7707 184.559 16.6482C184.272 16.5257 183.931 16.4659 183.532 16.4659C182.976 16.4659 182.484 16.6283 182.059 16.9502C181.634 17.2722 181.336 17.7253 181.162 18.3036H185.883Z" fill="white"/>
<path d="M104.643 22.1387C104.19 22.9451 103.583 23.5976 102.821 24.0962C102.057 24.5948 101.126 24.8427 100.024 24.8427C99.2812 24.8427 98.5928 24.7116 97.9629 24.4495C97.3331 24.1873 96.7852 23.8198 96.3208 23.3497C95.8572 22.8795 95.4942 22.3239 95.2359 21.6857C94.9768 21.0475 94.8472 20.3437 94.8472 19.5773C94.8472 18.8649 94.9744 18.1868 95.2273 17.5486C95.4802 16.9104 95.8314 16.3519 96.2818 15.8732C96.7313 15.3946 97.2683 15.0156 97.8841 14.7335C98.503 14.4514 99.1828 14.309 99.9251 14.309C100.71 14.309 101.407 14.44 102.018 14.7022C102.627 14.9643 103.139 15.329 103.55 15.7934C103.96 16.2579 104.272 16.8049 104.486 17.4374C104.699 18.07 104.804 18.7567 104.804 19.4974V19.7396C104.79 19.8195 104.784 19.8935 104.784 19.9619C104.77 20.0303 104.764 20.1044 104.764 20.1841H97.4142C97.4681 20.5887 97.5774 20.9335 97.7436 21.2241C97.9091 21.5148 98.1143 21.757 98.3618 21.9507C98.6068 22.1445 98.8769 22.2869 99.1688 22.3753C99.4615 22.4635 99.7596 22.5063 100.066 22.5063C100.665 22.5063 101.157 22.3695 101.551 22.0931C101.941 21.8167 102.251 21.472 102.476 21.0532L104.646 22.1445L104.643 22.1387ZM102.273 18.3036C102.259 18.1298 102.203 17.9332 102.104 17.7196C102.006 17.5059 101.86 17.3036 101.666 17.1127C101.474 16.9246 101.236 16.7707 100.949 16.6482C100.662 16.5257 100.322 16.4659 99.9227 16.4659C99.3662 16.4659 98.8738 16.6283 98.4492 16.9502C98.0246 17.2722 97.7264 17.7253 97.5524 18.3036H102.273Z" fill="#EB7100"/>
</svg>
