<svg width="30" height="28" viewBox="0 0 30 28" fill="none" xmlns="http://www.w3.org/2000/svg">
<g clip-path="url(#clip0_1543_12497)">
<path d="M24.1089 26L24.09 25.9872L15.6339 20.4268C16.1337 19.9161 16.6335 19.4225 17.1311 18.9459L19.883 20.758L18.6663 17.5313C19.2335 17.0291 19.8008 16.5483 20.368 16.091L24.111 25.9978L24.1089 26Z" fill="#EC7F00"/>
<path d="M22.7211 9.56053C22.5271 9.63744 22.3331 9.71863 22.1348 9.80199C21.0763 10.2507 19.9502 10.832 18.7967 11.5244H16.3991L15.0474 7.94498L13.6978 11.5244H3.86895L0.880859 9.56053H12.188L15.0474 2L17.9027 9.56053H22.7211Z" fill="#EC7F00"/>
<path d="M29.1207 9.43017C27.885 9.94728 20.517 12.1269 10.6692 23.9827C10.5616 24.1131 8.94006 25.9487 6.99577 25.9487H5.34885C6.84603 21.9997 8.47821 17.7322 8.83247 16.8175C9.19733 15.8731 8.93584 14.9157 8.17247 14.4071C8.13659 14.3836 8.10287 14.3601 8.07126 14.3387H10.1399C10.9222 14.3387 11.6076 14.9285 11.6793 15.7192C11.6814 15.7555 11.6835 15.7918 11.6856 15.826C11.6919 16.0803 11.6498 16.3517 11.5465 16.6316C11.0783 17.9031 10.4541 19.5528 10.0471 20.6256C10.1758 20.476 10.3445 20.2794 10.5068 20.1085C14.6843 15.4798 19.4163 12.3984 22.6405 11.0328C25.3503 9.88529 27.6615 9.40025 28.7327 9.40025C28.8887 9.40025 29.0173 9.41091 29.1186 9.43017H29.1207Z" fill="#EC7F00"/>
</g>
<defs>
<clipPath id="clip0_1543_12497">
<rect width="28.2399" height="28" fill="white" transform="translate(0.880859)"/>
</clipPath>
</defs>
</svg>
