<svg width="205" height="32" viewBox="0 0 205 32" fill="none" xmlns="http://www.w3.org/2000/svg">
<path d="M51.7823 10.0807H54.3802V14.3033H57.3381C58.595 14.3033 59.5228 14.6793 60.1273 15.4288C60.729 16.1809 61.0299 17.2038 61.0299 18.5059V24.478H58.4318V18.8279C58.4318 18.1441 58.2744 17.8107 57.9567 17.4574C57.639 17.1013 57.296 16.9246 56.728 16.9246H54.4871L54.3887 24.478H51.7907V10.0807H51.7823Z" fill="#EB7100"/>
<path d="M49.8935 20.6343C49.8823 21.6515 49.4803 22.5832 48.8251 23.2699L48.8195 23.2756C48.1194 24.0164 47.1325 24.478 46.0444 24.478H40.2242V21.8652H46.0444C46.7024 21.8652 47.2703 21.3267 47.3125 20.6742L47.2928 20.6429C47.2928 20.3551 47.2393 20.0901 47.1297 19.8423C47.0819 19.7311 47.0172 19.6229 46.9413 19.5231C46.8485 19.3949 46.7333 19.2695 46.5955 19.1556C46.4746 19.0558 46.3312 18.9561 46.1709 18.8535C46.0304 18.7624 45.87 18.674 45.6986 18.5857C45.3443 18.4062 44.8916 18.2153 44.3574 18.0158L43.4408 17.6768C43.0753 17.5458 42.6929 17.3577 42.2992 17.1269C41.9197 16.899 41.5682 16.614 41.2561 16.2864C41.0115 16.0271 40.8007 15.7364 40.632 15.4145C40.587 15.3318 40.542 15.2492 40.5054 15.1609C40.3255 14.762 40.2299 14.3118 40.2214 13.8189C40.2186 13.4741 40.2636 13.1323 40.3593 12.8074C40.5223 12.2233 40.8372 11.682 41.2787 11.229C41.99 10.4995 42.9684 10.0807 43.9666 10.0807H49.1991V12.6935H43.9666C43.6601 12.6935 43.3367 12.8331 43.1118 13.0639L43.1062 13.0696C42.9656 13.2177 42.7998 13.457 42.8026 13.7904C42.8054 13.9557 42.8363 14.0383 42.8503 14.0696C42.9179 14.2263 43.0107 14.3603 43.1175 14.4742C43.2693 14.6338 43.4352 14.7677 43.6208 14.8759C43.8625 15.0242 44.1015 15.1381 44.3237 15.2208L45.2487 15.5598C45.8728 15.7963 46.4155 16.0271 46.8542 16.2493C47.3827 16.5172 47.8438 16.8106 48.2234 17.1298C48.2347 17.1355 48.2403 17.144 48.2515 17.1497C48.4681 17.3321 48.6649 17.5344 48.8392 17.7424C48.8757 17.7765 48.9123 17.8164 48.946 17.8506C49.424 18.3549 49.7221 19.0074 49.8373 19.7938C49.8795 20.0559 49.8992 20.3408 49.8963 20.6343H49.8935Z" fill="#EB7100"/>
<path d="M114.177 14.5939C113.699 14.4514 113.173 14.3831 112.6 14.3831C111.857 14.3831 111.182 14.5255 110.564 14.8048C110.297 14.9273 110.052 15.0725 109.816 15.2322V14.6252H107.215V24.478H109.816V19.5858C109.816 19.5003 109.819 19.412 109.827 19.3293C109.85 19.0387 109.903 18.7624 109.987 18.5059C110.038 18.3407 110.103 18.1868 110.179 18.0415C110.207 17.9874 110.238 17.9332 110.272 17.8819C110.367 17.7338 110.474 17.6027 110.592 17.4802C110.693 17.3719 110.803 17.2808 110.924 17.1952C111.07 17.0927 111.228 17.0043 111.391 16.9332C111.405 16.9218 111.421 16.9189 111.438 16.9132C111.663 16.8363 111.914 16.7964 112.175 16.7964C112.456 16.7964 112.686 16.8192 112.881 16.8648C113.072 16.9132 113.246 16.9758 113.407 17.0585L113.432 16.973C113.432 16.973 113.443 16.973 113.446 16.9787L114.314 14.6423C114.27 14.6252 114.225 14.6082 114.177 14.5939Z" fill="#EB7100"/>
<path d="M83.2034 17.3605C82.956 16.7308 82.6243 16.1895 82.2021 15.7364C81.7634 15.2663 81.2577 14.9016 80.6786 14.6423C80.1299 14.3973 79.5312 14.289 78.9295 14.289H74.203V28.5154H76.7504V24.5748H78.9326C79.5312 24.5748 80.1299 24.4666 80.6809 24.2215C81.2577 23.9622 81.7665 23.6004 82.2052 23.1274C82.6266 22.6743 82.9584 22.133 83.2058 21.5033C83.4508 20.8737 83.5742 20.1841 83.5742 19.4348C83.5742 18.6854 83.4508 17.9959 83.2058 17.3662L83.2034 17.3605ZM80.8105 20.4691C80.6668 20.7796 80.4787 21.0417 80.2454 21.2583C80.012 21.472 79.742 21.6401 79.4384 21.7598C79.1347 21.8794 78.8116 21.9393 78.4768 21.9393H76.7475V16.9218H78.4768C78.814 16.9218 79.1347 16.9815 79.4384 17.1013C79.742 17.2209 80.012 17.389 80.2454 17.6027C80.4787 17.8164 80.6668 18.0814 80.8105 18.392C80.9541 18.7025 81.0243 19.0501 81.0243 19.4319C81.0243 19.8137 80.9541 20.1613 80.8105 20.4719V20.4691Z" fill="#EB7100"/>
<path d="M93.8126 17.3605C93.5652 16.7308 93.2335 16.1895 92.812 15.7364C92.3734 15.2663 91.8676 14.9016 91.2877 14.6423C90.7398 14.3973 90.1412 14.289 89.5394 14.289H84.8128V28.5154H87.3603V24.5748H89.5418C90.1412 24.5748 90.7398 24.4666 91.2908 24.2215C91.8668 23.9622 92.3765 23.6004 92.8151 23.1274C93.2366 22.6743 93.5683 22.133 93.8157 21.5033C94.06 20.8737 94.1841 20.1841 94.1841 19.4348C94.1841 18.6854 94.06 17.9959 93.8157 17.3662L93.8126 17.3605ZM91.4204 20.4691C91.2768 20.7796 91.0887 21.0417 90.8553 21.2583C90.622 21.472 90.3519 21.6401 90.0483 21.7598C89.7447 21.8794 89.4208 21.9393 89.0867 21.9393H87.3572V16.9218H89.0867C89.4239 16.9218 89.7447 16.9815 90.0483 17.1013C90.3519 17.2209 90.622 17.389 90.8553 17.6027C91.0887 17.8164 91.2768 18.0814 91.4204 18.392C91.5632 18.7025 91.6335 19.0501 91.6335 19.4319C91.6335 19.8137 91.5632 20.1613 91.4204 20.4719V20.4691Z" fill="#EB7100"/>
<path d="M72.3134 17.4403C72.0548 16.7963 71.6977 16.2436 71.2422 15.782C70.7867 15.3204 70.2441 14.9586 69.6143 14.6964C68.9844 14.4343 68.2956 14.3032 67.5421 14.3032C66.7885 14.3032 66.0969 14.4343 65.4671 14.6964C64.84 14.9586 64.2974 15.3204 63.8391 15.782C63.3836 16.2436 63.0266 16.7963 62.7679 17.4403C62.5092 18.0842 62.3799 18.788 62.3799 19.5516C62.3799 20.3152 62.5092 21.0189 62.7679 21.6629C63.0266 22.3068 63.3836 22.8596 63.8391 23.3211C64.2946 23.7827 64.8372 24.1446 65.4671 24.4067C66.094 24.6689 66.7857 24.7999 67.5421 24.7999C68.2984 24.7999 68.9872 24.6689 69.6143 24.4067C70.2412 24.1446 70.7839 23.7827 71.2422 23.3211C71.6977 22.8596 72.0548 22.3068 72.3134 21.6629C72.5721 21.0189 72.7015 20.3152 72.7015 19.5516C72.7015 18.788 72.5721 18.0842 72.3134 17.4403ZM69.9235 20.6799C69.7942 20.999 69.6311 21.2583 69.4174 21.4748C69.2037 21.6914 68.9479 21.8623 68.633 21.9906C68.3153 22.1216 67.9582 22.1872 67.5393 22.1872C67.1203 22.1872 66.7632 22.1216 66.4455 21.9906C66.1335 21.8595 65.8775 21.6914 65.6639 21.4748C65.4502 21.2583 65.2871 20.999 65.1578 20.6799C65.0256 20.3493 64.961 19.979 64.961 19.5516C64.961 19.1242 65.0256 18.7538 65.1578 18.4233C65.2871 18.1042 65.4502 17.8449 65.6639 17.6283C65.8775 17.4118 66.1335 17.2408 66.4483 17.1127C66.766 16.9815 67.1231 16.9161 67.5421 16.9161C67.961 16.9161 68.3181 16.9815 68.6358 17.1127C68.9479 17.2437 69.2037 17.4118 69.4174 17.6283C69.6311 17.8449 69.7942 18.1042 69.9235 18.4233C70.0557 18.7538 70.1203 19.1242 70.1203 19.5516C70.1203 19.979 70.0557 20.3465 69.9235 20.6799Z" fill="#EB7100"/>
<path d="M31.5884 32L31.5632 31.9829L20.2884 24.5691C20.9548 23.8882 21.6211 23.23 22.2847 22.5946L25.9539 25.0107L24.3315 20.7084C25.0879 20.0388 25.8442 19.3977 26.6006 18.788L31.5913 31.9971L31.5884 32Z" fill="#003057"/>
<path d="M29.738 10.0807C29.4793 10.1833 29.2207 10.2915 28.9563 10.4027C27.5449 11.001 26.0435 11.776 24.5055 12.6992H21.3086L19.5064 7.92663L17.7069 12.6992H4.60179L0.617676 10.0807H15.6938L19.5064 0L23.3134 10.0807H29.738Z" fill="#003057"/>
<path d="M38.2708 9.90689C36.6231 10.5964 26.7992 13.5026 13.6688 29.3103C13.5254 29.4841 11.3633 31.9316 8.77088 31.9316H6.57499C8.57124 26.6662 10.7475 20.9762 11.2198 19.7567C11.7063 18.4974 11.3577 17.2209 10.3398 16.5428C10.292 16.5115 10.247 16.4801 10.2049 16.4516H12.963C14.0062 16.4516 14.92 17.238 15.0156 18.2922C15.0184 18.3407 15.0212 18.3891 15.024 18.4347C15.0324 18.7738 14.9762 19.1356 14.8385 19.5088C14.2142 21.2041 13.382 23.4038 12.8393 24.8341C13.0109 24.6347 13.2358 24.3725 13.4523 24.1446C19.0222 17.9731 25.3316 13.8645 29.6306 12.0438C33.2435 10.5137 36.3251 9.867 37.7534 9.867C37.9615 9.867 38.133 9.88121 38.268 9.90689H38.2708Z" fill="#EB7100"/>
<path d="M122.419 10.0807H120.547C119.835 10.0807 119.197 10.528 118.947 11.2033L114.026 24.478H116.984L117.757 22.2071C117.996 21.5091 118.643 21.0418 119.371 21.0418H123.631L124.8 24.4808H127.758L122.422 10.0835L122.419 10.0807ZM119.025 18.5458L120.889 13.2604L122.754 18.5458H119.022H119.025Z" fill="#003057"/>
<path d="M167.642 14.6252H170.6L173.02 20.8993H173.159L175.599 14.6252H178.535L174.348 24.478H171.79L167.642 14.6252Z" fill="#003057"/>
<path d="M156.903 14.5939C156.425 14.4514 155.899 14.3831 155.325 14.3831C154.583 14.3831 153.908 14.5255 153.29 14.8048C153.023 14.9273 152.778 15.0725 152.542 15.2322V14.6252H149.941V24.478H152.542V19.5858C152.542 19.5003 152.544 19.412 152.553 19.3293C152.576 19.0387 152.629 18.7624 152.713 18.5059C152.764 18.3407 152.828 18.1868 152.904 18.0415C152.932 17.9874 152.963 17.9332 152.997 17.8819C153.093 17.7338 153.2 17.6027 153.318 17.4802C153.419 17.3719 153.529 17.2808 153.649 17.1952C153.795 17.0927 153.953 17.0043 154.116 16.9332C154.13 16.9218 154.147 16.9189 154.164 16.9132C154.389 16.8363 154.639 16.7964 154.901 16.7964C155.182 16.7964 155.413 16.8192 155.606 16.8648C155.797 16.9132 155.972 16.9758 156.132 17.0585L156.157 16.973C156.157 16.973 156.169 16.973 156.171 16.9787L157.04 14.6423C156.995 14.6252 156.95 14.6082 156.903 14.5939Z" fill="#003057"/>
<path d="M137.617 17.3605C137.37 16.7308 137.038 16.1895 136.617 15.7364C136.178 15.2663 135.673 14.9016 135.093 14.6423C134.545 14.3973 133.946 14.289 133.344 14.289H128.618V28.5154H131.165V24.5748H133.347C133.946 24.5748 134.545 24.4666 135.096 24.2215C135.673 23.9622 136.181 23.6004 136.62 23.1274C137.041 22.6743 137.373 22.133 137.621 21.5033C137.865 20.8737 137.989 20.1841 137.989 19.4348C137.989 18.6854 137.865 17.9959 137.621 17.3662L137.617 17.3605ZM135.225 20.4691C135.082 20.7796 134.894 21.0417 134.66 21.2583C134.427 21.472 134.157 21.6401 133.853 21.7598C133.55 21.8794 133.226 21.9393 132.892 21.9393H131.162V16.9218H132.892C133.229 16.9218 133.55 16.9815 133.853 17.1013C134.157 17.2209 134.427 17.389 134.66 17.6027C134.894 17.8164 135.082 18.0814 135.225 18.392C135.368 18.7025 135.439 19.0501 135.439 19.4319C135.439 19.8137 135.368 20.1613 135.225 20.4719V20.4691Z" fill="#003057"/>
<path d="M148.227 17.3605C147.98 16.7308 147.648 16.1895 147.227 15.7364C146.788 15.2663 146.282 14.9016 145.703 14.6423C145.155 14.3973 144.555 14.289 143.953 14.289H139.228V28.5154H141.775V24.5748H143.957C144.555 24.5748 145.155 24.4666 145.706 24.2215C146.282 23.9622 146.791 23.6004 147.229 23.1274C147.651 22.6743 147.983 22.133 148.231 21.5033C148.475 20.8737 148.599 20.1841 148.599 19.4348C148.599 18.6854 148.475 17.9959 148.231 17.3662L148.227 17.3605ZM145.834 20.4691C145.692 20.7796 145.503 21.0417 145.269 21.2583C145.036 21.472 144.767 21.6401 144.462 21.7598C144.159 21.8794 143.836 21.9393 143.501 21.9393H141.772V16.9218H143.501C143.839 16.9218 144.159 16.9815 144.462 17.1013C144.767 17.2209 145.036 17.389 145.269 17.6027C145.503 17.8164 145.692 18.0814 145.834 18.392C145.978 18.7025 146.048 19.0501 146.048 19.4319C146.048 19.8137 145.978 20.1613 145.834 20.4719V20.4691Z" fill="#003057"/>
<path d="M190.696 21.4036C190.944 22.0333 191.275 22.5747 191.697 23.0277C192.135 23.4978 192.642 23.8626 193.221 24.1218C193.769 24.3668 194.368 24.4751 194.97 24.4751H199.696V10.0807H197.149V14.1922H194.967C194.368 14.1922 193.769 14.3004 193.218 14.5455C192.642 14.8048 192.133 15.1666 191.694 15.6396C191.273 16.0926 190.94 16.634 190.693 17.2637C190.449 17.8933 190.325 18.5829 190.325 19.3322C190.325 20.0816 190.449 20.7711 190.693 21.4007L190.696 21.4036ZM193.089 18.2951C193.232 17.9845 193.421 17.7224 193.654 17.5059C193.888 17.2922 194.158 17.1241 194.461 17.0043C194.765 16.8847 195.088 16.8249 195.423 16.8249H197.152V21.8424H195.423C195.085 21.8424 194.765 21.7826 194.461 21.6629C194.158 21.5433 193.888 21.3751 193.654 21.1614C193.421 20.9477 193.232 20.6828 193.089 20.3722C192.945 20.0616 192.875 19.714 192.875 19.3322C192.875 18.9504 192.945 18.6028 193.089 18.2922V18.2951Z" fill="#003057"/>
<path d="M167.112 17.4403C166.854 16.7964 166.496 16.2436 166.041 15.782C165.585 15.3204 165.043 14.9586 164.413 14.6965C163.783 14.4343 163.094 14.3033 162.341 14.3033C161.587 14.3033 160.896 14.4343 160.266 14.6965C159.639 14.9586 159.096 15.3204 158.638 15.782C158.183 16.2436 157.825 16.7964 157.567 17.4403C157.308 18.0842 157.179 18.788 157.179 19.5516C157.179 20.3152 157.308 21.019 157.567 21.6629C157.825 22.3068 158.183 22.8596 158.638 23.3212C159.093 23.7828 159.636 24.1446 160.266 24.4067C160.893 24.6689 161.585 24.7999 162.341 24.7999C163.097 24.7999 163.786 24.6689 164.413 24.4067C165.04 24.1446 165.582 23.7828 166.041 23.3212C166.496 22.8596 166.854 22.3068 167.112 21.6629C167.371 21.019 167.5 20.3152 167.5 19.5516C167.5 18.788 167.371 18.0842 167.112 17.4403ZM164.722 20.6799C164.593 20.999 164.43 21.2583 164.216 21.4749C164.003 21.6914 163.747 21.8623 163.432 21.9906C163.114 22.1217 162.757 22.1872 162.338 22.1872C161.919 22.1872 161.562 22.1217 161.244 21.9906C160.932 21.8595 160.676 21.6914 160.462 21.4749C160.249 21.2583 160.086 20.999 159.957 20.6799C159.825 20.3494 159.76 19.979 159.76 19.5516C159.76 19.1242 159.825 18.7538 159.957 18.4233C160.086 18.1042 160.249 17.8449 160.462 17.6283C160.676 17.4118 160.932 17.2409 161.247 17.1127C161.565 16.9816 161.922 16.9161 162.341 16.9161C162.76 16.9161 163.117 16.9816 163.434 17.1127C163.747 17.2437 164.003 17.4118 164.216 17.6283C164.43 17.8449 164.593 18.1042 164.722 18.4233C164.854 18.7538 164.919 19.1242 164.919 19.5516C164.919 19.979 164.854 20.3465 164.722 20.6799Z" fill="#003057"/>
<path d="M204.324 11.7019C204.324 12.5225 203.689 13.1692 202.859 13.1692C202.03 13.1692 201.386 12.5253 201.386 11.7019C201.386 10.8784 202.041 10.2544 202.859 10.2544C203.677 10.2544 204.324 10.8984 204.324 11.7019ZM201.754 11.7019C201.754 12.3458 202.224 12.8587 202.87 12.8587C203.517 12.8587 203.959 12.3458 203.959 11.7104C203.959 11.075 203.498 10.5451 202.859 10.5451C202.221 10.5451 201.752 11.0665 201.752 11.7019H201.754ZM202.303 12.4627V11.0153C202.435 10.9896 202.617 10.9697 202.851 10.9697C203.121 10.9697 203.242 11.0153 203.349 11.075C203.427 11.1377 203.489 11.2517 203.489 11.3942C203.489 11.5537 203.368 11.6763 203.194 11.7304V11.7475C203.335 11.8016 203.41 11.907 203.456 12.1008C203.5 12.3202 203.526 12.4085 203.559 12.4627H203.203C203.157 12.4085 203.132 12.2775 203.089 12.1093C203.064 11.9498 202.977 11.8786 202.794 11.8786H202.637V12.4627H202.303ZM202.643 11.6421H202.8C202.983 11.6421 203.132 11.5794 203.132 11.4313C203.132 11.2973 203.036 11.209 202.828 11.209C202.741 11.209 202.679 11.2176 202.645 11.2261V11.6421H202.643Z" fill="#003057"/>
<path d="M188.871 22.1387C188.418 22.9451 187.811 23.5976 187.049 24.0962C186.284 24.5948 185.354 24.8427 184.252 24.8427C183.509 24.8427 182.82 24.7116 182.19 24.4495C181.561 24.1873 181.013 23.8198 180.548 23.3497C180.085 22.8795 179.722 22.3239 179.463 21.6857C179.204 21.0475 179.075 20.3437 179.075 19.5773C179.075 18.8649 179.202 18.1868 179.455 17.5486C179.708 16.9104 180.059 16.3519 180.509 15.8732C180.959 15.3946 181.496 15.0156 182.112 14.7335C182.73 14.4514 183.41 14.309 184.152 14.309C184.938 14.309 185.635 14.44 186.245 14.7022C186.855 14.9643 187.367 15.329 187.777 15.7934C188.188 16.2579 188.5 16.8049 188.714 17.4374C188.927 18.07 189.031 18.7567 189.031 19.4974V19.7396C189.017 19.8195 189.011 19.8935 189.011 19.9619C188.997 20.0303 188.992 20.1044 188.992 20.1841H181.642C181.696 20.5887 181.805 20.9335 181.971 21.2241C182.136 21.5148 182.342 21.757 182.589 21.9507C182.834 22.1445 183.104 22.2869 183.396 22.3753C183.689 22.4635 183.987 22.5063 184.294 22.5063C184.892 22.5063 185.384 22.3695 185.778 22.0931C186.169 21.8167 186.478 21.472 186.703 21.0532L188.874 22.1445L188.871 22.1387ZM186.5 18.3036C186.486 18.1298 186.43 17.9332 186.332 17.7196C186.233 17.5059 186.087 17.3036 185.893 17.1127C185.702 16.9246 185.463 16.7707 185.176 16.6482C184.889 16.5257 184.549 16.4659 184.15 16.4659C183.594 16.4659 183.101 16.6283 182.677 16.9502C182.252 17.2722 181.954 17.7253 181.78 18.3036H186.5Z" fill="#003057"/>
<path d="M105.261 22.1387C104.808 22.9451 104.201 23.5976 103.439 24.0962C102.674 24.5948 101.744 24.8427 100.642 24.8427C99.8988 24.8427 99.2104 24.7116 98.5806 24.4495C97.9507 24.1873 97.4028 23.8198 96.9385 23.3497C96.4748 22.8795 96.1119 22.3239 95.8536 21.6857C95.5945 21.0475 95.4649 20.3437 95.4649 19.5773C95.4649 18.8649 95.5921 18.1868 95.845 17.5486C96.0979 16.9104 96.4491 16.3519 96.8994 15.8732C97.349 15.3946 97.886 15.0156 98.5018 14.7335C99.1207 14.4514 99.8005 14.309 100.543 14.309C101.328 14.309 102.025 14.44 102.635 14.7022C103.245 14.9643 103.757 15.329 104.167 15.7934C104.578 16.2579 104.89 16.8049 105.104 17.4374C105.317 18.07 105.422 18.7567 105.422 19.4974V19.7396C105.408 19.8195 105.401 19.8935 105.401 19.9619C105.387 20.0303 105.382 20.1044 105.382 20.1841H98.0319C98.0858 20.5887 98.195 20.9335 98.3613 21.2241C98.5267 21.5148 98.732 21.757 98.9794 21.9507C99.2245 22.1445 99.4945 22.2869 99.7865 22.3753C100.079 22.4635 100.377 22.5063 100.684 22.5063C101.283 22.5063 101.774 22.3695 102.169 22.0931C102.559 21.8167 102.869 21.472 103.093 21.0532L105.264 22.1445L105.261 22.1387ZM102.89 18.3036C102.876 18.1298 102.82 17.9332 102.722 17.7196C102.624 17.5059 102.478 17.3036 102.283 17.1127C102.092 16.9246 101.853 16.7707 101.567 16.6482C101.28 16.5257 100.939 16.4659 100.54 16.4659C99.9839 16.4659 99.4914 16.6283 99.0668 16.9502C98.6423 17.2722 98.3441 17.7253 98.1701 18.3036H102.89Z" fill="#EB7100"/>
</svg>
