<svg width="44" height="20" viewBox="0 0 44 20" fill="none" xmlns="http://www.w3.org/2000/svg">
<path d="M7.11164 14.384L3.69497 16.4256C3.54219 16.509 3.39289 16.5437 3.24705 16.5298C3.10122 16.5159 2.97275 16.4673 2.86164 16.384C2.75053 16.3006 2.66719 16.186 2.61164 16.0402C2.55608 15.8944 2.54914 15.7451 2.5908 15.5923L3.48664 11.7798L0.465804 9.21729C0.340804 9.10617 0.264415 8.9777 0.236637 8.83187C0.20886 8.68604 0.215804 8.54367 0.257471 8.40479C0.299137 8.2659 0.375526 8.15131 0.486637 8.06104C0.597748 7.97076 0.736637 7.91867 0.903304 7.90479L4.86164 7.55062L6.42414 3.92562C6.49358 3.77284 6.5908 3.65826 6.7158 3.58187C6.8408 3.50548 6.97275 3.46729 7.11164 3.46729C7.25053 3.46729 7.38247 3.50548 7.50747 3.58187C7.63247 3.65826 7.72969 3.77284 7.79914 3.92562L9.36164 7.57145L13.32 7.90479C13.4866 7.91867 13.6255 7.97423 13.7366 8.07145C13.8477 8.16867 13.9241 8.28673 13.9658 8.42562C14.0075 8.56451 14.0109 8.7034 13.9762 8.84229C13.9415 8.98117 13.8616 9.10617 13.7366 9.21729L10.7366 11.7798L11.6325 15.5923C11.6741 15.7451 11.6672 15.8944 11.6116 16.0402C11.5561 16.186 11.4727 16.3006 11.3616 16.384C11.2505 16.4673 11.1221 16.5159 10.9762 16.5298C10.8304 16.5437 10.6811 16.509 10.5283 16.4256L7.11164 14.384Z" fill="#DD7700"/>
<path d="M24.7173 10.644L23.0327 10.2412L23.6406 4.83594H29.6318V6.54248H25.3765L25.1128 8.9082C25.2544 8.8252 25.4692 8.7373 25.7573 8.64453C26.0454 8.54688 26.3677 8.49805 26.7241 8.49805C27.2417 8.49805 27.7007 8.57861 28.1011 8.73975C28.5015 8.90088 28.8408 9.13525 29.1191 9.44287C29.4023 9.75049 29.6172 10.1265 29.7637 10.5708C29.9102 11.0151 29.9834 11.5181 29.9834 12.0796C29.9834 12.5532 29.9102 13.0049 29.7637 13.4346C29.6172 13.8594 29.395 14.2402 29.0972 14.5771C28.7993 14.9092 28.4258 15.1704 27.9766 15.3608C27.5273 15.5513 26.9951 15.6465 26.3799 15.6465C25.9209 15.6465 25.4766 15.5781 25.0469 15.4414C24.6221 15.3047 24.2388 15.1021 23.897 14.8335C23.5601 14.5649 23.2891 14.2402 23.084 13.8594C22.8838 13.4736 22.7788 13.0342 22.769 12.541H24.8638C24.8931 12.8438 24.9712 13.105 25.0981 13.3247C25.23 13.5396 25.4033 13.7056 25.6182 13.8228C25.833 13.9399 26.0845 13.9985 26.3726 13.9985C26.6411 13.9985 26.8706 13.9473 27.061 13.8447C27.2515 13.7422 27.4053 13.6006 27.5225 13.4199C27.6396 13.2344 27.7251 13.0195 27.7788 12.7754C27.8374 12.5264 27.8667 12.2578 27.8667 11.9697C27.8667 11.6816 27.8325 11.4204 27.7642 11.186C27.6958 10.9517 27.5908 10.749 27.4492 10.5781C27.3076 10.4072 27.127 10.2754 26.9072 10.1826C26.6924 10.0898 26.4409 10.0435 26.1528 10.0435C25.7622 10.0435 25.4595 10.1045 25.2446 10.2266C25.0347 10.3486 24.8589 10.4878 24.7173 10.644ZM31.5361 14.4819C31.5361 14.1694 31.6436 13.9082 31.8584 13.6982C32.0781 13.4883 32.3687 13.3833 32.73 13.3833C33.0913 13.3833 33.3794 13.4883 33.5942 13.6982C33.814 13.9082 33.9238 14.1694 33.9238 14.4819C33.9238 14.7944 33.814 15.0557 33.5942 15.2656C33.3794 15.4756 33.0913 15.5806 32.73 15.5806C32.3687 15.5806 32.0781 15.4756 31.8584 15.2656C31.6436 15.0557 31.5361 14.7944 31.5361 14.4819ZM42.874 9.23047V11.0762C42.874 11.877 42.7886 12.5679 42.6177 13.1489C42.4468 13.7251 42.2002 14.1987 41.8779 14.5698C41.5605 14.936 41.1821 15.207 40.7427 15.3828C40.3032 15.5586 39.8149 15.6465 39.2778 15.6465C38.8481 15.6465 38.4478 15.5928 38.0767 15.4854C37.7056 15.373 37.3711 15.1997 37.0732 14.9653C36.7803 14.731 36.5264 14.4355 36.3115 14.0791C36.1016 13.7178 35.9404 13.2881 35.8281 12.79C35.7158 12.292 35.6597 11.7207 35.6597 11.0762V9.23047C35.6597 8.42969 35.7451 7.74365 35.916 7.17236C36.0918 6.59619 36.3384 6.125 36.6558 5.75879C36.978 5.39258 37.3589 5.12402 37.7983 4.95312C38.2378 4.77734 38.7261 4.68945 39.2632 4.68945C39.6929 4.68945 40.0908 4.74561 40.457 4.85791C40.8281 4.96533 41.1626 5.13379 41.4604 5.36328C41.7583 5.59277 42.0122 5.88818 42.2222 6.24951C42.4321 6.60596 42.5933 7.0332 42.7056 7.53125C42.8179 8.02441 42.874 8.59082 42.874 9.23047ZM40.7573 11.3545V8.94482C40.7573 8.55908 40.7354 8.22217 40.6914 7.93408C40.6523 7.646 40.5913 7.40186 40.5083 7.20166C40.4253 6.99658 40.3228 6.83057 40.2007 6.70361C40.0786 6.57666 39.9395 6.48389 39.7832 6.42529C39.627 6.3667 39.4536 6.3374 39.2632 6.3374C39.0239 6.3374 38.8115 6.38379 38.626 6.47656C38.4453 6.56934 38.2915 6.71826 38.1646 6.92334C38.0376 7.12354 37.9399 7.39209 37.8716 7.729C37.8081 8.06104 37.7764 8.46631 37.7764 8.94482V11.3545C37.7764 11.7402 37.7959 12.0796 37.835 12.3726C37.8789 12.6655 37.9424 12.917 38.0254 13.127C38.1133 13.332 38.2158 13.5005 38.333 13.6323C38.4551 13.7593 38.5942 13.8521 38.7505 13.9106C38.9116 13.9692 39.0874 13.9985 39.2778 13.9985C39.5122 13.9985 39.7197 13.9521 39.9004 13.8594C40.0859 13.7617 40.2422 13.6104 40.3691 13.4053C40.501 13.1953 40.5986 12.9219 40.6621 12.585C40.7256 12.248 40.7573 11.8379 40.7573 11.3545Z" fill="#DD7700"/>
</svg>
