<svg width="46" height="20" viewBox="0 0 46 20" fill="none" xmlns="http://www.w3.org/2000/svg">
<path d="M7.21589 14.384L3.79922 16.4256C3.64644 16.509 3.49714 16.5437 3.3513 16.5298C3.20547 16.5159 3.077 16.4673 2.96589 16.384C2.85477 16.3006 2.77144 16.186 2.71589 16.0402C2.66033 15.8944 2.65339 15.7451 2.69505 15.5923L3.59089 11.7798L0.570052 9.21729C0.445052 9.10617 0.368663 8.9777 0.340885 8.83187C0.313108 8.68604 0.320052 8.54367 0.361719 8.40479C0.403385 8.2659 0.479774 8.15131 0.590885 8.06104C0.701997 7.97076 0.840885 7.91867 1.00755 7.90479L4.96589 7.55062L6.52839 3.92562C6.59783 3.77284 6.69505 3.65826 6.82005 3.58187C6.94505 3.50548 7.077 3.46729 7.21589 3.46729C7.35477 3.46729 7.48672 3.50548 7.61172 3.58187C7.73672 3.65826 7.83394 3.77284 7.90339 3.92562L9.46589 7.57145L13.4242 7.90479C13.5909 7.91867 13.7298 7.97423 13.8409 8.07145C13.952 8.16867 14.0284 8.28673 14.0701 8.42562C14.1117 8.56451 14.1152 8.7034 14.0805 8.84229C14.0457 8.98117 13.9659 9.10617 13.8409 9.21729L10.8409 11.7798L11.7367 15.5923C11.7784 15.7451 11.7714 15.8944 11.7159 16.0402C11.6603 16.186 11.577 16.3006 11.4659 16.384C11.3548 16.4673 11.2263 16.5159 11.0805 16.5298C10.9346 16.5437 10.7853 16.509 10.6326 16.4256L7.21589 14.384Z" fill="url(#paint0_linear_185_3519)"/>
<path d="M7.21589 14.384L3.79922 16.4256C3.64644 16.509 3.49714 16.5437 3.3513 16.5298C3.20547 16.5159 3.077 16.4673 2.96589 16.384C2.85477 16.3006 2.77144 16.186 2.71589 16.0402C2.66033 15.8944 2.65339 15.7451 2.69505 15.5923L3.59089 11.7798L0.570052 9.21729C0.445052 9.10617 0.368663 8.9777 0.340885 8.83187C0.313108 8.68604 0.320052 8.54367 0.361719 8.40479C0.403385 8.2659 0.479774 8.15131 0.590885 8.06104C0.701997 7.97076 0.840885 7.91867 1.00755 7.90479L4.96589 7.55062L6.52839 3.92562C6.59783 3.77284 6.69505 3.65826 6.82005 3.58187C6.94505 3.50548 7.077 3.46729 7.21589 3.46729C7.35477 3.46729 7.48672 3.50548 7.61172 3.58187C7.73672 3.65826 7.83394 3.77284 7.90339 3.92562L9.46589 7.57145L13.4242 7.90479C13.5909 7.91867 13.7298 7.97423 13.8409 8.07145C13.952 8.16867 14.0284 8.28673 14.0701 8.42562C14.1117 8.56451 14.1152 8.7034 14.0805 8.84229C14.0457 8.98117 13.9659 9.10617 13.8409 9.21729L10.8409 11.7798L11.7367 15.5923C11.7784 15.7451 11.7714 15.8944 11.7159 16.0402C11.6603 16.186 11.577 16.3006 11.4659 16.384C11.3548 16.4673 11.2263 16.5159 11.0805 16.5298C10.9346 16.5437 10.7853 16.509 10.6326 16.4256L7.21589 14.384Z" fill="#DD7700"/>
<path d="M26.5042 9.024C27.5709 9.024 28.4722 9.344 29.2082 9.984C29.9442 10.6133 30.3122 11.488 30.3122 12.608C30.3122 13.728 29.9336 14.608 29.1762 15.248C28.4189 15.888 27.4909 16.208 26.3922 16.208C25.5069 16.208 24.7229 16.0053 24.0402 15.6C23.3576 15.184 22.8722 14.5867 22.5842 13.808L24.1682 12.896C24.4669 13.9093 25.2082 14.416 26.3922 14.416C27.0216 14.416 27.5229 14.256 27.8962 13.936C28.2802 13.6053 28.4722 13.1627 28.4722 12.608C28.4722 12.0533 28.2856 11.616 27.9122 11.296C27.5389 10.976 27.0429 10.816 26.4242 10.816H23.1602L23.5922 4.8H29.8322V6.528H25.2882L25.0962 9.024H26.5042ZM33.4065 15.84C33.1718 16.0747 32.8892 16.192 32.5585 16.192C32.2278 16.192 31.9452 16.0747 31.7105 15.84C31.4758 15.6053 31.3585 15.3227 31.3585 14.992C31.3585 14.6613 31.4705 14.3787 31.6945 14.144C31.9292 13.9093 32.2172 13.792 32.5585 13.792C32.8892 13.792 33.1718 13.9093 33.4065 14.144C33.6412 14.3787 33.7585 14.6613 33.7585 14.992C33.7585 15.3227 33.6412 15.6053 33.4065 15.84ZM42.3762 14.624C41.6082 15.68 40.5309 16.208 39.1442 16.208C37.7576 16.208 36.6749 15.68 35.8962 14.624C35.1282 13.568 34.7442 12.16 34.7442 10.4C34.7442 8.64 35.1282 7.232 35.8962 6.176C36.6749 5.12 37.7576 4.592 39.1442 4.592C40.5309 4.592 41.6082 5.12 42.3762 6.176C43.1549 7.232 43.5442 8.64 43.5442 10.4C43.5442 12.16 43.1549 13.568 42.3762 14.624ZM39.1442 14.416C39.9762 14.416 40.6109 14.0693 41.0482 13.376C41.4856 12.6827 41.7042 11.6907 41.7042 10.4C41.7042 9.10933 41.4856 8.11733 41.0482 7.424C40.6109 6.73067 39.9762 6.384 39.1442 6.384C38.3229 6.384 37.6882 6.73067 37.2402 7.424C36.8029 8.11733 36.5842 9.10933 36.5842 10.4C36.5842 11.6907 36.8029 12.6827 37.2402 13.376C37.6882 14.0693 38.3229 14.416 39.1442 14.416Z" fill="#A38A00"/>
<path d="M26.5042 9.024C27.5709 9.024 28.4722 9.344 29.2082 9.984C29.9442 10.6133 30.3122 11.488 30.3122 12.608C30.3122 13.728 29.9336 14.608 29.1762 15.248C28.4189 15.888 27.4909 16.208 26.3922 16.208C25.5069 16.208 24.7229 16.0053 24.0402 15.6C23.3576 15.184 22.8722 14.5867 22.5842 13.808L24.1682 12.896C24.4669 13.9093 25.2082 14.416 26.3922 14.416C27.0216 14.416 27.5229 14.256 27.8962 13.936C28.2802 13.6053 28.4722 13.1627 28.4722 12.608C28.4722 12.0533 28.2856 11.616 27.9122 11.296C27.5389 10.976 27.0429 10.816 26.4242 10.816H23.1602L23.5922 4.8H29.8322V6.528H25.2882L25.0962 9.024H26.5042ZM33.4065 15.84C33.1718 16.0747 32.8892 16.192 32.5585 16.192C32.2278 16.192 31.9452 16.0747 31.7105 15.84C31.4758 15.6053 31.3585 15.3227 31.3585 14.992C31.3585 14.6613 31.4705 14.3787 31.6945 14.144C31.9292 13.9093 32.2172 13.792 32.5585 13.792C32.8892 13.792 33.1718 13.9093 33.4065 14.144C33.6412 14.3787 33.7585 14.6613 33.7585 14.992C33.7585 15.3227 33.6412 15.6053 33.4065 15.84ZM42.3762 14.624C41.6082 15.68 40.5309 16.208 39.1442 16.208C37.7576 16.208 36.6749 15.68 35.8962 14.624C35.1282 13.568 34.7442 12.16 34.7442 10.4C34.7442 8.64 35.1282 7.232 35.8962 6.176C36.6749 5.12 37.7576 4.592 39.1442 4.592C40.5309 4.592 41.6082 5.12 42.3762 6.176C43.1549 7.232 43.5442 8.64 43.5442 10.4C43.5442 12.16 43.1549 13.568 42.3762 14.624ZM39.1442 14.416C39.9762 14.416 40.6109 14.0693 41.0482 13.376C41.4856 12.6827 41.7042 11.6907 41.7042 10.4C41.7042 9.10933 41.4856 8.11733 41.0482 7.424C40.6109 6.73067 39.9762 6.384 39.1442 6.384C38.3229 6.384 37.6882 6.73067 37.2402 7.424C36.8029 8.11733 36.5842 9.10933 36.5842 10.4C36.5842 11.6907 36.8029 12.6827 37.2402 13.376C37.6882 14.0693 38.3229 14.416 39.1442 14.416Z" fill="#DD7700"/>
<defs>
<linearGradient id="paint0_linear_185_3519" x1="0.186352" y1="16.6016" x2="14.2162" y2="3.37134" gradientUnits="userSpaceOnUse">
<stop offset="0.114812" stop-color="#A38A00"/>
<stop offset="0.814205" stop-color="#D1B000"/>
</linearGradient>
</defs>
</svg>
