<svg width="214" height="120" viewBox="0 0 214 120" fill="none" xmlns="http://www.w3.org/2000/svg">
<g filter="url(#filter0_d_1961_9301)">
<path d="M50.6421 43.5009C50.1854 41.5773 48.802 40.5455 47.0379 39.9444C46.1743 39.6504 45.2792 39.4475 44.2594 39.1654C45.7078 37.1594 47.1367 35.1815 48.6469 33.0897C47.7952 33.1017 47.754 33.8492 47.2918 34.0781C47.2788 34.0781 47.2571 34.0846 47.2441 34.0781C47.1345 34.0152 47.026 33.9523 46.9197 33.885C44.7953 32.5386 42.4887 31.9625 39.9944 32.3541C37.8495 32.6905 36.0973 33.6756 35.3747 35.8531C34.625 38.1152 35.1979 40.2493 37.7833 41.1965C38.2737 41.3755 38.7717 41.5382 39.2773 41.6673C40.0595 41.867 40.8516 42.0319 41.6338 42.2109C41.4743 42.7642 41.1445 42.8434 40.6639 42.7002C40.2342 42.5722 39.7775 42.532 39.3413 42.4214C37.6228 41.9841 35.8575 41.6185 34.9201 39.8446C33.7701 40.7722 33.8265 42.7208 35.0145 43.7873C35.7469 44.4448 36.642 44.7768 37.5707 45.0307C38.1544 45.1901 38.7446 45.3247 39.4607 45.5026C38.8205 46.1612 38.2781 46.7622 37.6878 47.3123C37.3418 47.6356 36.9403 47.7832 36.4749 47.4078C36.3241 47.2863 36.004 47.3134 35.7849 47.3676C35.6937 47.3904 35.5733 47.7474 35.6264 47.806C35.7783 47.973 36.0018 48.1379 36.2177 48.1748C36.9631 48.2985 37.6206 48.0392 38.1468 47.5228C38.6871 46.9922 39.171 46.4064 39.695 45.8585C39.8024 45.7467 39.9977 45.6068 40.116 45.635C41.3061 45.9181 42.5148 46.159 43.6681 46.5572C45.3129 47.1246 46.5367 48.1054 46.3512 50.2059C46.9251 49.5972 47.1942 48.9636 47.3721 48.2877C47.9276 46.1785 47.1453 44.6227 45.1252 43.8144C44.8246 43.694 44.5165 43.5866 44.203 43.5085C43.4185 43.3121 42.6298 43.1363 41.6696 42.9118C41.9853 42.6926 42.2175 42.3964 42.403 42.4235C43.795 42.6242 45.1881 42.8575 46.4325 43.5779C47.8234 44.3819 48.5471 45.8715 48.3442 47.4729C48.1174 49.2641 47.0694 50.6149 45.9747 51.9537C45.8879 51.9005 45.8206 51.8713 45.7664 51.8257C43.3838 49.8001 40.5998 49.2912 37.5924 49.71C35.7805 49.9617 34.1791 50.6702 33.0703 52.1967C31.9691 53.7124 31.6848 55.3919 32.3336 57.1691C32.453 57.4956 32.7568 57.794 33.0486 58.0023C33.1788 58.0956 33.4913 57.935 33.7213 57.8895C33.6236 57.6844 33.5813 57.398 33.4197 57.2884C32.6494 56.7676 32.3955 56.172 32.6667 55.2747C32.9564 54.3156 33.7115 53.8231 34.5816 53.5041C36.336 52.8596 38.1435 52.7718 39.9673 53.1309C41.4363 53.4195 42.6981 54.1323 43.8048 55.1652C43.9046 55.0718 43.9881 55.0057 44.0587 54.9276C45.0275 53.8545 46.0257 52.8065 46.9555 51.6998C47.9992 50.4576 49.0472 49.2099 49.9673 47.8776C50.8721 46.5669 51.0077 45.0459 50.6421 43.5063V43.5009ZM43.4457 39.0407C42.0363 38.7412 40.6172 38.4722 39.2361 38.0729C38.5623 37.8787 37.9189 37.4892 37.3407 37.078C36.6919 36.6169 36.4564 35.9149 36.6203 35.1099C36.7917 34.2669 37.2994 33.7418 38.1197 33.5031C38.9996 33.247 39.8794 33.3284 40.7366 33.5682C42.6309 34.0966 44.0739 35.2911 45.3628 36.7731C44.8659 37.4838 44.3917 38.1846 43.8872 38.8638C43.8048 38.9756 43.578 39.07 43.4457 39.0418V39.0407Z" fill="url(#paint0_linear_1961_9301)" fill-opacity="0.57"/>
<path d="M78.573 57.9014C78.7791 58.024 79.2598 58.0316 79.3748 57.8927C79.6482 57.5607 79.3129 57.3513 79.0243 57.219C78.5383 56.9965 78.3495 56.6049 78.3104 56.0982C78.2171 54.8755 78.8746 53.9728 80.2601 53.618C82.6199 53.0137 84.8505 53.184 86.7568 54.9167C86.8761 55.0252 87.0052 55.1207 87.2005 55.278C88.4894 54.3655 89.8087 53.4846 91.0694 52.5266C92.3996 51.5143 93.171 50.1505 93.2372 48.4558C93.2914 47.0476 93.2871 45.6382 93.3077 44.2289C93.3109 44.0217 93.3077 43.8133 93.3077 43.6105H95.0262C95.0262 43.8741 95.0262 44.0889 95.0262 44.3037C95.0262 47.5033 95.0262 50.7039 95.0262 53.9034C95.0262 54.0477 95.0034 54.1996 95.0392 54.3352C95.0653 54.4317 95.1727 54.5066 95.2443 54.5923C95.3268 54.5001 95.4494 54.4209 95.483 54.3135C95.5253 54.1822 95.4949 54.027 95.4949 53.8827C95.4949 50.6832 95.4949 47.4826 95.4949 44.2831C95.4949 44.0694 95.4949 43.8557 95.4949 43.5627C95.7531 43.5627 95.9669 43.5823 96.1741 43.5562C96.3032 43.5399 96.4909 43.489 96.5365 43.3967C96.9466 42.5592 97.3317 41.7096 97.7668 40.7701H95.5188V36.7352C96.6829 37.1713 97.8113 37.2462 98.8854 36.6126C99.9519 35.9822 100.521 35.0188 100.833 33.7223C99.021 34.3081 97.6138 33.8893 96.479 32.506C92.8943 35.0893 88.9744 36.9391 84.8679 38.4439C84.9384 38.687 85.0133 38.8877 85.0534 39.096C85.0979 39.326 85.112 39.5614 85.1348 39.7958C85.1962 40.4381 84.9048 40.7744 84.2603 40.8048C83.0343 40.8634 82.2748 41.4785 82.0665 42.583C81.8897 43.5215 82.1674 44.3873 82.7566 44.7356C83.2383 43.6463 83.9674 43.3143 85.1228 43.6615C85.1228 44.8137 85.1261 45.9691 85.1228 47.1235C85.1196 48.1065 84.6813 48.8518 83.8675 49.3889C83.7808 49.4464 83.7243 49.5516 83.6549 49.6352C83.6799 49.6775 83.7048 49.7198 83.7308 49.7621C84.2451 49.5668 84.7626 49.3802 85.2736 49.1752C87.4576 48.3018 88.4992 46.7047 88.4373 44.3352C88.3842 42.3118 88.4265 40.2862 88.4265 38.2606C88.4265 37.3785 88.5892 37.2006 89.506 37.0747C89.506 42.1838 89.506 47.2928 89.506 52.5396C87.5358 50.4207 85.1879 49.8901 82.5417 50.2395C79.2782 50.6702 77.3307 53.184 77.8081 56.415C77.8938 56.9944 78.0381 57.5846 78.573 57.9025V57.9014ZM93.3619 34.9786C93.8881 35.482 94.4067 35.9605 94.9004 36.465C94.9948 36.5616 95.0197 36.7579 95.0208 36.9077C95.0306 38.0425 95.0121 39.1774 95.0338 40.3122C95.0414 40.6996 94.9036 40.8211 94.5326 40.7939C94.1583 40.7679 93.7796 40.7885 93.363 40.7885V34.9786H93.3619Z" fill="url(#paint1_linear_1961_9301)" fill-opacity="0.57"/>
<path d="M69.582 82.1001V66.4215C72.2814 67.3925 74.5424 66.2815 74.8798 63.8708C74.1497 63.823 73.3794 63.9044 72.6991 63.6928C72.0243 63.4824 71.4406 62.9779 70.8384 62.6155C68.5383 64.2234 66.1764 65.8747 63.8231 67.5205C63.8796 67.8287 64.0206 68.242 64.0228 68.6565C64.0412 71.7844 64.0293 74.9112 64.0369 78.0391C64.0391 78.8311 63.681 79.4072 63.0366 79.8846C62.902 79.7392 62.7751 79.6166 62.6633 79.4799C61.5393 78.1118 61.0066 76.5072 60.7517 74.7799C60.1267 70.5541 61.3701 67.0486 64.7204 64.3373C64.8343 64.2451 64.9211 64.1181 65.0502 63.9738C64.9168 63.937 64.8647 63.9077 64.8148 63.912C64.7258 63.9185 64.6347 63.9315 64.5511 63.9619C61.7975 64.9763 59.5311 66.5994 58.1619 69.2608C56.6419 72.2162 56.605 75.3061 57.5912 78.4134C58.4288 81.0563 60.2016 82.9018 62.7371 84.0193C64.3157 84.7159 65.9811 85.0099 67.691 85.0142C71.382 85.024 74.1898 83.4671 76.0017 80.2123C76.1015 80.0332 76.1406 79.8217 76.2371 79.5396C75.0816 80.1634 74.0759 80.7591 73.0235 81.2603C71.9494 81.7713 70.8026 82.0653 69.5799 82.099L69.582 82.1001ZM69.0266 81.4382C69.0266 81.6498 69.0266 81.8614 69.0266 82.1185C66.9142 82.0697 65.0101 81.6249 63.3544 80.2198C63.7277 79.9519 64.0727 79.7023 64.4199 79.4539C64.5522 79.3595 64.6813 79.2608 64.8213 79.1772C66.6809 78.0684 67.5304 76.5158 67.3959 74.2754C67.2418 71.7193 67.3818 69.1469 67.346 66.5831C67.3373 65.9202 67.4588 65.419 68.1217 65.1564C68.7466 65.6457 69.0645 66.2327 69.0537 67.1332C68.9983 71.9016 69.0276 76.6699 69.0276 81.4393L69.0266 81.4382Z" fill="url(#paint2_linear_1961_9301)" fill-opacity="0.57"/>
<path d="M87.2439 73.7796C87.2385 71.8983 86.3043 70.6202 84.5272 69.9725C83.9815 69.774 83.5909 69.7751 83.1569 70.2589C82.3931 71.1117 81.5382 71.8831 80.6203 72.788C80.6203 72.4744 80.6203 72.3008 80.6203 72.1272C80.6203 70.1754 80.6387 68.2225 80.6138 66.2707C80.5932 64.6877 79.8739 63.5084 78.4298 62.8151C78.2866 62.7468 78.0077 62.7272 77.9188 62.814C76.9684 63.7438 76.0429 64.7008 75.0784 65.6826C75.1652 65.7781 75.2466 65.8682 75.4234 66.0624C75.6795 65.7032 75.8899 65.4071 76.1004 65.112C76.1471 65.1369 76.1937 65.1619 76.2404 65.1868C76.274 65.1987 76.3109 65.2063 76.3424 65.2237C77.1062 65.6447 77.2016 66.3586 77.2006 67.1321C77.194 71.7052 77.2114 76.2782 77.1897 80.8502C77.1821 82.4429 77.8678 83.5409 79.3162 84.1691C79.4399 84.2222 79.6634 84.2439 79.7415 84.1723C80.4543 83.517 81.1454 82.8378 81.9114 82.1011C80.8503 81.8082 80.6442 81.1052 80.6398 80.2925C80.6311 78.485 80.7049 76.6742 80.6105 74.8711C80.5541 73.798 80.8134 72.98 81.6922 72.3681C81.7215 72.3475 81.7486 72.3214 81.7693 72.2921C81.9494 72.0383 82.1588 72.048 82.4257 72.1695C83.337 72.5829 83.7677 73.3163 83.7732 74.2754C83.7894 77.1668 83.809 80.0593 83.7558 82.9496C83.7233 84.7028 83.1417 86.2749 81.8246 87.5129C81.715 87.6159 81.6543 87.7689 81.5056 88C81.7226 87.9631 81.7996 87.9696 81.8528 87.9371C82.3627 87.63 82.8792 87.3317 83.3728 87.0008C85.9919 85.2453 87.2938 82.7999 87.2515 79.6329C87.2255 77.6811 87.2515 75.7292 87.2461 73.7763L87.2439 73.7796Z" fill="url(#paint3_linear_1961_9301)" fill-opacity="0.57"/>
<path d="M123.303 81.6607C122.987 82.0957 122.607 82.0013 122.364 81.6748C122.144 81.3807 121.984 80.9674 121.978 80.6028C121.944 78.3624 121.968 76.1209 121.957 73.8794C121.947 71.8148 121.027 70.5931 119.064 69.9259C118.596 69.7664 118.279 69.8152 117.934 70.1938C117.136 71.0716 116.293 71.9081 115.369 72.8639C115.156 71.2028 114.329 70.273 112.927 69.8619C112.777 69.8174 112.525 69.8651 112.417 69.9703C111.6 70.7634 110.814 71.588 110.003 72.3865C109.749 72.6371 109.834 72.7641 110.182 72.9268C110.242 72.84 110.301 72.7218 110.39 72.6328C110.902 72.1196 111.398 72.1836 111.722 72.8248C111.824 73.0266 111.873 73.2718 111.881 73.5008C111.905 74.2407 111.897 74.9828 111.905 75.7227C111.925 77.655 111.907 79.5895 111.983 81.5207C112.037 82.8856 112.912 83.6982 114.109 84.1973C114.211 84.2396 114.404 84.2233 114.478 84.1539C115.156 83.5083 115.818 82.8454 116.56 82.112C115.587 81.7605 115.326 81.1073 115.339 80.2383C115.367 78.4677 115.425 76.6916 115.318 74.9264C115.249 73.7839 115.555 72.9366 116.477 72.2932C116.491 72.2835 116.501 72.2596 116.516 72.2563C116.718 72.2216 116.955 72.1044 117.116 72.1717C118.049 72.5645 118.482 73.3196 118.489 74.3091C118.507 76.4052 118.504 78.5024 118.509 80.5985C118.512 82.3691 119.351 83.5832 121.013 84.1864C121.135 84.2309 121.352 84.2244 121.432 84.1463C122.325 83.2544 123.2 82.3442 124.107 81.41C124.02 81.3395 123.909 81.2484 123.786 81.1486C123.598 81.3439 123.428 81.4849 123.302 81.6585L123.303 81.6607Z" fill="url(#paint4_linear_1961_9301)" fill-opacity="0.57"/>
<path d="M118.857 42.7078C119.33 42.2489 119.812 42.2988 120.111 42.9074C120.263 43.2166 120.326 43.5985 120.329 43.9479C120.348 46.3337 120.336 48.7206 120.342 51.1064C120.346 52.5938 121.018 53.6592 122.393 54.2505C122.545 54.3156 122.82 54.3395 122.917 54.2505C123.605 53.6159 124.26 52.9464 124.984 52.2315C123.912 51.8734 123.759 51.102 123.781 50.1733C123.822 48.4385 123.793 46.7026 123.793 44.9666C123.793 43.3956 123.786 43.387 124.975 42.3649C125.102 42.2554 125.403 42.2337 125.567 42.3031C126.667 42.761 126.941 43.7092 126.948 44.78C126.959 46.7872 126.952 48.7933 126.954 50.8004C126.956 52.5049 127.802 53.7178 129.421 54.2918C129.567 54.3439 129.828 54.2994 129.933 54.1963C130.81 53.3359 131.662 52.4506 132.549 51.5447C132.456 51.4687 132.341 51.3765 132.239 51.293C132.031 51.4937 131.838 51.638 131.697 51.8224C131.453 52.1425 131.208 52.1067 130.909 51.9103C130.473 51.6239 130.399 51.2008 130.399 50.7288C130.402 48.5416 130.412 46.3532 130.397 44.166C130.38 41.8756 129.415 40.6019 127.287 39.9835C126.976 39.8923 126.75 39.9238 126.517 40.1723C126.047 40.6724 125.546 41.1433 125.055 41.625C124.652 42.0221 124.245 42.4159 123.768 42.8825C123.597 41.3375 122.779 40.4424 121.447 40.003C121.274 39.9466 120.986 39.9596 120.868 40.0681C119.951 40.9079 119.062 41.7791 118.189 42.6177C118.495 43.183 118.677 42.8825 118.858 42.7067L118.857 42.7078Z" fill="url(#paint5_linear_1961_9301)" fill-opacity="0.57"/>
<path d="M62.1838 42.6915C62.633 42.2586 62.9194 42.2554 63.3154 42.749C63.4543 42.9226 63.5508 43.158 63.5888 43.3794C63.6463 43.7157 63.6496 44.0629 63.6517 44.4057C63.6658 46.7373 63.6572 49.0678 63.6897 51.3993C63.7092 52.8271 64.5034 53.7439 65.7739 54.2831C65.9052 54.3395 66.1525 54.3276 66.2447 54.2408C66.925 53.5985 67.5803 52.9302 68.2508 52.2618C67.18 51.6185 67.0791 51.4362 67.078 50.1863C67.078 48.4873 67.1529 46.7839 67.0519 45.0914C66.9825 43.9392 67.2733 43.0593 68.2226 42.4073C68.2519 42.3866 68.2714 42.34 68.2996 42.3346C68.4711 42.3031 68.6739 42.2065 68.8106 42.2651C69.7068 42.6503 70.2026 43.3425 70.2135 44.3265C70.2374 46.4585 70.2428 48.5915 70.2504 50.7234C70.2569 52.4832 71.0587 53.6658 72.7089 54.2798C72.8629 54.3373 73.145 54.2853 73.26 54.1724C74.1269 53.3294 74.9666 52.4582 75.8585 51.5523C75.4549 51.038 75.2834 51.5555 75.0892 51.7346C74.6444 52.1436 74.2875 52.1664 73.9663 51.6521C73.7884 51.3657 73.7048 50.9773 73.7005 50.6333C73.6766 48.4103 73.6983 46.1872 73.6831 43.9642C73.668 41.8246 72.5776 40.4533 70.5053 39.9726C70.31 39.9271 70.0073 40.0269 69.8544 40.1679C69.1524 40.8178 68.4852 41.5068 67.8049 42.1816C67.5847 42.4007 67.3622 42.6177 67.0834 42.8933C66.9391 41.5892 66.3402 40.7223 65.264 40.1951C64.4546 39.798 64.4199 39.8056 63.7884 40.4424C63.03 41.2062 62.2717 41.9711 61.5252 42.7241C61.8388 43.1928 62.0069 42.8619 62.1849 42.6915H62.1838Z" fill="url(#paint6_linear_1961_9301)" fill-opacity="0.57"/>
<path d="M109.042 78.881C109.042 77.3632 109.045 75.8453 109.042 74.3286C109.036 72.3768 108.079 70.9794 106.275 70.2004C105.62 69.9183 105.024 69.8 104.459 70.3685C104.335 70.4933 104.16 70.5692 104.003 70.6582C102.204 71.6824 100.404 72.7044 98.6337 73.7102C98.6673 74.155 98.7302 74.6345 98.7346 75.1152C98.7476 76.633 98.7791 78.1519 98.7313 79.6676C98.6445 82.406 100.341 83.6721 102.14 84.1799C102.376 84.2461 102.707 84.1908 102.924 84.0692C104.697 83.0667 106.439 82.0057 108.226 81.0292C108.83 80.6994 109.353 80.4683 109.06 79.6372C108.981 79.4116 109.044 79.136 109.043 78.8821L109.042 78.881ZM105.57 82.2194C103.684 82.3344 102.235 81.0889 102.201 79.2944C102.159 76.9498 102.185 74.6031 102.183 72.2585C102.183 72.1717 102.202 72.0838 102.211 72.0035C103.736 71.7855 105.492 73.0462 105.545 74.5575C105.634 77.0952 105.569 79.6383 105.569 82.2194H105.57Z" fill="url(#paint7_linear_1961_9301)" fill-opacity="0.57"/>
<path d="M181.225 49.2359C181.21 47.6465 181.225 46.057 181.214 44.4687C181.212 44.0922 181.206 43.7059 181.124 43.3403C180.733 41.5827 179.513 40.6269 177.879 40.13C177.633 40.0551 177.284 40.1321 177.044 40.258C176.486 40.5487 175.977 40.9328 175.428 41.2431C173.893 42.11 172.347 42.9595 170.841 43.7949C170.866 44.2658 170.911 44.7464 170.913 45.227C170.923 46.7622 170.911 48.2974 170.918 49.8326C170.929 52.162 172.137 53.733 174.381 54.3211C174.57 54.371 174.831 54.3634 174.992 54.269C177.11 53.0397 179.215 51.7899 181.338 50.5368C181.301 50.1299 181.229 49.684 181.225 49.2359ZM177.809 51.9168C177.811 52.353 177.657 52.468 177.253 52.3302C176.828 52.1859 176.381 52.0991 175.969 51.9266C174.971 51.5067 174.424 50.693 174.402 49.6482C174.351 47.1431 174.386 44.6357 174.386 42.0948C176.395 42.0492 177.762 43.2872 177.791 45.1967C177.826 47.436 177.795 49.6764 177.808 51.9168H177.809Z" fill="url(#paint8_linear_1961_9301)" fill-opacity="0.57"/>
<path d="M112.68 52.3269C112.931 52.1382 113.19 51.9602 113.476 51.7552C113.813 53.0571 114.646 53.8328 115.809 54.2668C115.987 54.333 116.312 54.2701 116.45 54.1399C117.28 53.3609 118.075 52.5461 118.895 51.7302C118.643 51.2659 118.458 51.5197 118.259 51.7129C117.688 52.2662 117.204 52.1414 116.963 51.3602C116.885 51.1075 116.864 50.8286 116.863 50.5606C116.855 48.5361 116.86 46.5105 116.856 44.486C116.856 44.2332 116.852 43.9783 116.814 43.7298C116.465 41.3809 114.422 39.9726 112.059 39.8826C111.931 39.8782 111.765 39.9379 111.675 40.0258C110.683 40.999 109.702 41.9841 108.698 42.9888C108.824 43.106 108.918 43.1938 109.005 43.2741C109.514 42.928 109.783 42.2467 110.524 42.429C111.115 42.5743 111.744 42.6438 112.287 42.8977C113.28 43.362 113.62 44.5055 113.349 46.1037C113.142 46.146 112.93 46.1872 112.718 46.2306C111.239 46.5344 109.819 46.9868 108.623 47.96C106.5 49.6851 106.911 53.0528 109.378 54.2364C109.734 54.4068 109.996 54.3786 110.307 54.1312C111.083 53.5117 111.885 52.9247 112.68 52.3269ZM111.534 47.5336C112.054 47.1159 112.688 46.8382 113.406 46.4183C113.406 48.1108 113.413 49.5896 113.395 51.0673C113.393 51.2149 113.263 51.3819 113.152 51.5013C113.032 51.6304 112.865 51.7161 112.717 51.8203C111.963 52.3551 111.515 52.2683 110.968 51.4796C110.197 50.3675 110.442 48.4103 111.534 47.5336Z" fill="url(#paint9_linear_1961_9301)" fill-opacity="0.57"/>
<path d="M157.551 40.9122C156.672 41.037 156.015 40.514 155.472 39.9911C153.571 41.0945 151.704 42.1783 149.864 43.247C149.891 43.8893 149.972 44.6075 149.941 45.3203C149.884 46.5952 150.468 47.4642 151.543 48.0392C152.112 48.3441 152.715 48.5839 153.363 48.8811C153.279 48.9983 153.22 49.0873 153.157 49.1719C152.106 50.5737 151.021 51.9515 150.021 53.388C149.629 53.95 149.329 54.6194 149.174 55.2834C149.075 55.7076 149.283 56.2241 149.432 56.6732C149.473 56.7969 149.791 56.8794 149.984 56.8837C150.096 56.8859 150.291 56.7025 150.304 56.5854C150.321 56.4443 150.223 56.2403 150.108 56.1416C149.546 55.6588 149.482 55.2921 149.895 54.6802C150.555 53.7048 152.388 53.2817 153.412 53.9934C153.959 54.3742 154.313 54.333 154.746 53.9413C154.811 53.8817 154.897 53.8426 154.976 53.7992C156.477 52.9822 157.978 52.1664 159.41 51.3874C159.39 50.4771 159.341 49.5451 159.354 48.6142C159.372 47.2277 158.696 46.3337 157.462 45.8086C157.168 45.6838 156.862 45.584 156.507 45.4516C157.693 43.7537 158.891 42.1176 159.959 40.3469C159.074 40.5607 158.323 40.8026 157.553 40.9122H157.551ZM155.864 52.251C154.584 51.0228 153.268 51.1552 151.843 51.8138C152.779 50.5357 153.715 49.2565 154.652 47.9785C155.319 48.1228 155.821 48.4352 155.852 49.135C155.895 50.1353 155.862 51.14 155.862 52.2499L155.864 52.251ZM155.89 45.4408C155.879 45.456 155.87 45.4722 155.856 45.4831C155.537 45.7077 155.55 46.4031 154.946 46.2024C154.212 45.9583 153.411 45.7163 153.375 44.7334C153.343 43.8611 153.368 42.9866 153.368 41.9288C154.83 43.809 156.354 43.5714 158.001 42.4734C157.297 43.4629 156.594 44.4524 155.89 45.4419V45.4408Z" fill="url(#paint10_linear_1961_9301)" fill-opacity="0.57"/>
<path d="M59.0949 54.2625C59.2609 54.3276 59.5571 54.3319 59.6656 54.2288C60.5282 53.4108 61.3603 52.5613 62.2012 51.7215C61.9943 51.5103 61.7711 51.5194 61.5317 51.7487C61.0001 52.2575 60.5737 52.1729 60.3166 51.459C60.2038 51.1465 60.1821 50.7885 60.1799 50.45C60.168 48.535 60.1788 46.619 60.169 44.7041C60.1669 44.2896 60.1669 43.8643 60.079 43.464C59.5495 41.0402 57.3645 39.9379 55.3215 39.8848C55.187 39.8815 55.0221 39.9965 54.9146 40.1017C54.0261 40.9762 53.1549 41.868 52.263 42.7393C51.9994 42.9975 52.0189 43.1439 52.3487 43.2622C52.8261 42.9421 53.0767 42.2456 53.8232 42.43C54.4145 42.5754 55.0427 42.6427 55.5873 42.8911C56.5714 43.3414 56.9467 44.5544 56.6799 46.1004C56.4596 46.1438 56.2307 46.1872 56.0018 46.235C54.5968 46.529 53.2417 46.9488 52.084 47.8418C49.8566 49.5592 50.1181 52.8586 52.5679 54.1681C52.9889 54.3927 53.2916 54.3916 53.6821 54.0802C54.6781 53.2839 55.7153 52.5396 56.7927 51.7324C57.0997 53.0571 57.9482 53.809 59.0928 54.2625H59.0949ZM56.733 51.0261C56.7308 51.1758 56.6213 51.3548 56.5095 51.4666C56.3457 51.6293 56.133 51.7421 55.9421 51.8778C55.2976 52.3367 55.1023 52.3226 54.5284 51.7704C53.668 50.9436 53.5921 49.0829 54.3939 48.0121C54.9667 47.2472 55.7663 46.8306 56.7439 46.5637C56.7439 48.1087 56.7504 49.5679 56.7341 51.0261H56.733Z" fill="url(#paint11_linear_1961_9301)" fill-opacity="0.57"/>
<path d="M146.508 81.1703C146.354 81.2516 146.218 81.3927 146.113 81.5359C145.796 81.9644 145.455 81.8776 145.176 81.5424C144.978 81.3059 144.839 80.9988 144.75 80.7005C144.68 80.4672 144.72 80.1982 144.72 79.9454C144.719 75.4808 144.715 71.0162 144.721 66.5517C144.724 64.8179 144.055 63.5073 142.417 62.7945C142.274 62.7327 142.001 62.7359 141.906 62.8292C140.902 63.8122 139.924 64.819 138.937 65.8193C138.966 65.8747 138.995 65.9289 139.023 65.9842C139.602 66.0493 139.772 65.3224 140.257 65.1499C141.008 65.5286 141.274 66.1861 141.273 67.0074C141.27 71.6347 141.278 76.262 141.269 80.8882C141.267 82.2509 141.871 83.2317 143.041 83.8913C143.616 84.2161 144.139 84.1441 144.607 83.6754C145.285 82.9984 145.963 82.3225 146.638 81.6422C146.748 81.5326 146.843 81.4089 147.061 81.1594C146.776 81.1594 146.613 81.1138 146.505 81.1703H146.508Z" fill="url(#paint12_linear_1961_9301)" fill-opacity="0.57"/>
<path d="M151.266 77.9458C152.994 76.8684 154.702 75.7553 156.42 74.653C155.417 73.0201 154.44 71.4307 153.51 69.9172C151.403 71.218 149.32 72.5037 147.25 73.7807C147.279 74.2993 147.333 74.8711 147.339 75.4417C147.354 76.7958 147.327 78.1519 147.354 79.506C147.384 80.9761 147.966 82.2118 149.257 82.9431C150.203 83.479 151.261 83.8186 152.278 84.2233C152.386 84.2667 152.599 84.207 152.688 84.1191C153.861 82.9442 155.021 81.755 156.205 80.5464C156.139 80.4846 156.045 80.3967 155.881 80.2459C155.746 80.4184 155.663 80.6072 155.519 80.6951C154.968 81.0314 154.805 81.9948 153.962 81.8006C153.306 81.6498 152.694 81.3048 152.064 81.0455C152.048 81.039 152.035 81.0249 152.02 81.0151C151.237 80.5084 150.823 79.8043 150.782 78.8582C150.763 78.4275 150.892 78.178 151.266 77.9458ZM150.837 72.1967C150.866 72.1826 150.896 72.1684 150.924 72.1543C151.702 73.4736 152.48 74.794 153.291 76.1719C152.484 76.6797 151.693 77.1777 150.836 77.7158V72.1956L150.837 72.1967Z" fill="url(#paint13_linear_1961_9301)" fill-opacity="0.57"/>
<path d="M100.447 40.067C99.4257 41.0315 98.4373 42.0286 97.4413 43.0148C97.8059 43.605 97.9957 43.1255 98.1824 42.9497C98.7487 42.4116 99.2337 42.4843 99.4767 43.2372C99.6221 43.6897 99.6503 44.1942 99.6557 44.6759C99.6796 46.6993 99.6275 48.7238 99.6937 50.7451C99.7555 52.6633 100.731 53.8122 102.58 54.3178C102.73 54.359 102.975 54.3493 103.069 54.256C104.016 53.3197 104.942 52.3617 105.918 51.3646C105.832 51.293 105.738 51.2138 105.561 51.0662C105.394 51.2713 105.223 51.4579 105.076 51.664C104.848 51.9863 104.588 52.0014 104.239 51.8517C103.393 51.4915 103.102 51.089 103.098 50.093C103.09 47.7626 103.095 45.4321 103.098 43.1016C103.098 42.9855 103.13 42.8694 103.158 42.6752C104.447 43.7841 105.789 43.988 107.155 43.0278C107.973 42.4528 108.395 41.5968 108.551 40.4261C107.292 41.2811 106.381 40.8894 105.533 39.7849C104.721 40.7061 103.959 41.5708 103.195 42.4355C103.126 42.3964 103.057 42.3563 102.989 42.3172C102.747 41.2127 102.151 40.3958 101.073 40.0095C100.889 39.9433 100.569 39.952 100.447 40.0681V40.067Z" fill="url(#paint14_linear_1961_9301)" fill-opacity="0.57"/>
<path d="M96.1416 69.7892C95.2942 70.6029 94.4458 71.4177 93.555 72.2726C93.3033 71.0868 92.6903 70.2969 91.6271 69.876C91.3439 69.7631 91.141 69.7751 90.9099 70.0137C90.0051 70.949 89.0764 71.8614 88.1574 72.7825C88.1075 72.8324 88.0696 72.8943 88.011 72.9724C88.1227 73.0679 88.2247 73.1547 88.3831 73.2892C88.5849 73.0592 88.7791 72.8672 88.9375 72.6502C89.1914 72.3019 89.4637 72.3778 89.6981 72.6285C89.8641 72.8064 90.029 73.0342 90.0756 73.2642C90.1657 73.7015 90.2036 74.1561 90.2069 74.6042C90.2199 76.4844 90.1993 78.3635 90.2145 80.2437C90.2329 82.4104 91.115 83.5995 93.1319 84.1918C93.286 84.2374 93.5431 84.2168 93.644 84.117C94.5836 83.1926 95.4993 82.2444 96.4432 81.282C96.3586 81.2082 96.2576 81.1214 96.083 80.9717C95.9777 81.1182 95.8942 81.2375 95.8074 81.3525C95.5123 81.7464 95.1564 82.0274 94.6823 81.6683C94.3384 81.4079 93.9977 81.103 93.7709 80.745C93.6245 80.5128 93.6592 80.1504 93.6559 79.8455C93.6451 78.5262 93.6516 77.2069 93.6516 75.8866C93.6516 74.806 93.6516 73.7253 93.6516 72.4918C94.9101 73.6136 96.1915 73.8338 97.5281 73.0321C98.4764 72.4646 98.9038 71.5294 99.1187 70.4184C97.2699 70.898 97.1907 70.8806 96.1394 69.787L96.1416 69.7892Z" fill="url(#paint15_linear_1961_9301)" fill-opacity="0.57"/>
<path d="M134.673 72.3833C136.413 73.7959 137.308 73.9825 138.573 73.2089C139.57 72.5981 140.299 71.3081 140.117 70.3935C139.006 71.0629 138.079 70.7331 137.375 69.9183C135.241 71.2376 133.158 72.5243 131.044 73.8306C131.075 74.1463 131.142 74.5369 131.146 74.9286C131.16 76.3021 131.133 77.6767 131.157 79.0514C131.201 81.5305 132.461 83.1752 134.805 83.9835C135.739 84.3058 136.496 84.3654 137.162 83.4606C137.565 82.9149 138.132 82.4917 138.618 82.0068C139.074 81.5511 139.521 81.0856 140.016 80.5779C139.91 80.4813 139.82 80.3989 139.651 80.2437C139.402 80.5312 139.142 80.7688 138.958 81.0542C138.355 81.9894 137.598 81.9156 136.689 81.5391C135.409 81.0086 134.622 80.1417 134.598 78.7356C134.561 76.6569 134.586 74.5781 134.588 72.4994C134.588 72.4614 134.643 72.4234 134.672 72.3844L134.673 72.3833Z" fill="url(#paint16_linear_1961_9301)" fill-opacity="0.57"/>
<path d="M168.556 43.4195C169.642 42.8966 170.429 41.5914 170.317 40.6095C169.101 40.7853 168.177 40.595 167.545 40.0388C165.419 41.3516 163.321 42.6449 161.229 43.937C161.258 44.3113 161.32 44.7746 161.325 45.2379C161.339 46.5029 161.325 47.7691 161.332 49.0352C161.346 51.6261 162.61 53.3023 165.057 54.1301C165.974 54.4393 166.658 54.4014 167.322 53.5898C168.165 52.5591 169.131 51.6293 170.092 50.6062C170.094 50.6084 170.006 50.5238 169.856 50.3816C169.577 50.6854 169.377 50.9187 169.161 51.1367C168.13 52.1772 168.123 52.1696 166.749 51.6C165.533 51.0955 164.801 50.2319 164.781 48.8866C164.75 46.8262 164.759 44.7648 164.757 42.7034C164.757 42.6286 164.808 42.5537 164.862 42.404C165.859 43.7548 167.086 44.128 168.555 43.4206L168.556 43.4195Z" fill="url(#paint17_linear_1961_9301)" fill-opacity="0.57"/>
<path d="M133.115 48.8649C133.118 49.2804 133.106 49.7024 133.173 50.1093C133.549 52.404 135.65 54.2549 137.998 54.371C138.138 54.3775 138.321 54.3167 138.421 54.2213C139.53 53.1569 140.621 52.0752 141.728 51.0109C141.969 50.7787 141.947 50.629 141.579 50.437C141.351 50.6876 141.096 50.9035 140.921 51.1725C140.31 52.1013 139.522 52.0741 138.64 51.6445C138.607 51.6282 138.575 51.6141 138.541 51.6C137.347 51.115 136.597 50.2699 136.571 48.9462C136.53 46.8501 136.546 44.754 136.542 42.6568C136.542 42.5982 136.595 42.5396 136.655 42.417C137.64 43.7526 138.87 44.1226 140.337 43.4206C141.419 42.9031 142.207 41.5968 142.097 40.539C140.976 41.1042 140.003 40.8992 139.34 40.0312C137.179 41.3646 135.096 42.6492 133.013 43.9338C133.042 44.3233 133.1 44.8039 133.107 45.2845C133.121 46.478 133.107 47.6703 133.114 48.8638L133.115 48.8649Z" fill="url(#paint18_linear_1961_9301)" fill-opacity="0.57"/>
<path d="M129.962 81.5652C129.707 81.9297 129.445 81.8625 129.143 81.6335C128.695 81.2939 128.572 80.8318 128.573 80.298C128.578 78.0196 128.583 75.7423 128.573 73.4639C128.565 71.8506 127.464 70.349 125.883 69.7968C124.927 70.7591 123.963 71.7366 122.989 72.7044C122.739 72.9529 122.812 73.0809 123.198 73.2664C123.478 72.9127 123.758 72.559 124.032 72.2129C124.802 72.6263 125.125 73.1959 125.123 73.9727C125.117 76.2327 125.117 78.4926 125.123 80.7526C125.127 82.4201 125.964 83.6212 127.523 84.1832C127.656 84.2309 127.895 84.2125 127.985 84.1235C128.906 83.2067 129.806 82.2704 130.747 81.3048C130.688 81.2299 130.606 81.1269 130.482 80.9706C130.27 81.2104 130.096 81.3731 129.963 81.5641L129.962 81.5652Z" fill="url(#paint19_linear_1961_9301)" fill-opacity="0.57"/>
<path d="M145.221 40.0291C145.117 39.9705 144.886 39.9813 144.809 40.0562C143.803 41.0402 142.814 42.0405 141.82 43.0376L141.847 43.2014C141.989 43.1917 142.166 43.2329 142.265 43.1624C142.469 43.0192 142.648 42.8293 142.807 42.6351C143.031 42.3617 143.224 42.3823 143.488 42.595C144.076 43.0691 144.17 43.7125 144.171 44.3981C144.173 46.6038 144.158 48.8106 144.178 51.0163C144.192 52.5949 145.067 53.797 146.542 54.2939C146.689 54.3439 146.95 54.2994 147.055 54.1952C147.966 53.2925 148.854 52.3671 149.772 51.4243C149.706 51.3646 149.609 51.2745 149.466 51.1433C149.287 51.344 149.115 51.5067 148.98 51.6944C148.744 52.0221 148.505 51.9884 148.207 51.7769C147.684 51.4069 147.59 50.8742 147.589 50.2948C147.589 48.1065 147.563 45.9192 147.596 43.7309C147.623 41.9505 146.668 40.8384 145.221 40.0291Z" fill="url(#paint20_linear_1961_9301)" fill-opacity="0.57"/>
<path d="M80.9447 37.3004C81.1215 37.3894 81.4156 37.244 81.6553 37.2071C81.5284 37.0303 81.4394 36.7818 81.2669 36.6896C80.6811 36.376 80.5541 35.7923 81.0608 35.3345C81.2756 35.1414 81.5848 35.0264 81.8712 34.945C82.7674 34.69 83.618 35.0014 84.474 35.2075C85.6111 35.481 86.7275 35.826 87.9339 35.6025C89.4062 35.3291 90.8665 34.0781 91.1172 32.7567C91.0358 32.7523 90.9946 32.7371 90.9685 32.7512C90.8568 32.8087 90.7494 32.8749 90.6409 32.9389C89.787 33.4402 88.8952 33.5975 87.948 33.2308C87.3101 32.9834 86.6754 32.7295 86.0364 32.4854C85.2226 32.1751 84.4003 31.9484 83.5084 32.0102C81.5794 32.1447 80.0323 33.744 80.0984 35.6014C80.1234 36.2827 80.2634 36.9597 80.9447 37.3004Z" fill="url(#paint21_linear_1961_9301)" fill-opacity="0.57"/>
<path d="M123.838 65.8909C124.578 66.5712 125.263 67.2016 125.88 67.769C126.588 67.0855 127.259 66.4378 127.871 65.8475C127.252 65.1651 126.624 64.4707 126.096 63.886C125.302 64.5923 124.588 65.2259 123.839 65.8909H123.838Z" fill="url(#paint22_linear_1961_9301)" fill-opacity="0.57"/>
<path d="M146.879 36.0147C146.202 35.2889 145.565 34.6065 144.906 33.8991C144.22 34.6173 143.554 35.315 142.865 36.0375C143.59 36.7015 144.275 37.3297 144.896 37.8982C145.609 37.2223 146.273 36.5919 146.879 36.0158V36.0147Z" fill="url(#paint23_linear_1961_9301)" fill-opacity="0.57"/>
</g>
<defs>
<filter id="filter0_d_1961_9301" x="-0.00976562" y="0" width="213.348" height="120" filterUnits="userSpaceOnUse" color-interpolation-filters="sRGB">
<feFlood flood-opacity="0" result="BackgroundImageFix"/>
<feColorMatrix in="SourceAlpha" type="matrix" values="0 0 0 0 0 0 0 0 0 0 0 0 0 0 0 0 0 0 127 0" result="hardAlpha"/>
<feOffset/>
<feGaussianBlur stdDeviation="16"/>
<feComposite in2="hardAlpha" operator="out"/>
<feColorMatrix type="matrix" values="0 0 0 0 0 0 0 0 0 0 0 0 0 0 0 0 0 0 0.03 0"/>
<feBlend mode="normal" in2="BackgroundImageFix" result="effect1_dropShadow_1961_9301"/>
<feBlend mode="normal" in="SourceGraphic" in2="effect1_dropShadow_1961_9301" result="shape"/>
</filter>
<linearGradient id="paint0_linear_1961_9301" x1="30.496" y1="88.295" x2="73.4623" y2="-14.16" gradientUnits="userSpaceOnUse">
<stop offset="0.114812" stop-color="#B39257"/>
<stop offset="0.814205" stop-color="#DEC79F"/>
</linearGradient>
<linearGradient id="paint1_linear_1961_9301" x1="30.496" y1="88.295" x2="73.4623" y2="-14.16" gradientUnits="userSpaceOnUse">
<stop offset="0.114812" stop-color="#B39257"/>
<stop offset="0.814205" stop-color="#DEC79F"/>
</linearGradient>
<linearGradient id="paint2_linear_1961_9301" x1="30.496" y1="88.295" x2="73.4623" y2="-14.16" gradientUnits="userSpaceOnUse">
<stop offset="0.114812" stop-color="#B39257"/>
<stop offset="0.814205" stop-color="#DEC79F"/>
</linearGradient>
<linearGradient id="paint3_linear_1961_9301" x1="30.496" y1="88.295" x2="73.4623" y2="-14.16" gradientUnits="userSpaceOnUse">
<stop offset="0.114812" stop-color="#B39257"/>
<stop offset="0.814205" stop-color="#DEC79F"/>
</linearGradient>
<linearGradient id="paint4_linear_1961_9301" x1="30.496" y1="88.295" x2="73.4623" y2="-14.16" gradientUnits="userSpaceOnUse">
<stop offset="0.114812" stop-color="#B39257"/>
<stop offset="0.814205" stop-color="#DEC79F"/>
</linearGradient>
<linearGradient id="paint5_linear_1961_9301" x1="30.496" y1="88.295" x2="73.4623" y2="-14.16" gradientUnits="userSpaceOnUse">
<stop offset="0.114812" stop-color="#B39257"/>
<stop offset="0.814205" stop-color="#DEC79F"/>
</linearGradient>
<linearGradient id="paint6_linear_1961_9301" x1="30.496" y1="88.295" x2="73.4623" y2="-14.16" gradientUnits="userSpaceOnUse">
<stop offset="0.114812" stop-color="#B39257"/>
<stop offset="0.814205" stop-color="#DEC79F"/>
</linearGradient>
<linearGradient id="paint7_linear_1961_9301" x1="30.496" y1="88.295" x2="73.4623" y2="-14.16" gradientUnits="userSpaceOnUse">
<stop offset="0.114812" stop-color="#B39257"/>
<stop offset="0.814205" stop-color="#DEC79F"/>
</linearGradient>
<linearGradient id="paint8_linear_1961_9301" x1="30.496" y1="88.295" x2="73.4623" y2="-14.16" gradientUnits="userSpaceOnUse">
<stop offset="0.114812" stop-color="#B39257"/>
<stop offset="0.814205" stop-color="#DEC79F"/>
</linearGradient>
<linearGradient id="paint9_linear_1961_9301" x1="30.496" y1="88.295" x2="73.4623" y2="-14.16" gradientUnits="userSpaceOnUse">
<stop offset="0.114812" stop-color="#B39257"/>
<stop offset="0.814205" stop-color="#DEC79F"/>
</linearGradient>
<linearGradient id="paint10_linear_1961_9301" x1="30.496" y1="88.295" x2="73.4623" y2="-14.16" gradientUnits="userSpaceOnUse">
<stop offset="0.114812" stop-color="#B39257"/>
<stop offset="0.814205" stop-color="#DEC79F"/>
</linearGradient>
<linearGradient id="paint11_linear_1961_9301" x1="30.496" y1="88.295" x2="73.4623" y2="-14.16" gradientUnits="userSpaceOnUse">
<stop offset="0.114812" stop-color="#B39257"/>
<stop offset="0.814205" stop-color="#DEC79F"/>
</linearGradient>
<linearGradient id="paint12_linear_1961_9301" x1="30.496" y1="88.295" x2="73.4623" y2="-14.16" gradientUnits="userSpaceOnUse">
<stop offset="0.114812" stop-color="#B39257"/>
<stop offset="0.814205" stop-color="#DEC79F"/>
</linearGradient>
<linearGradient id="paint13_linear_1961_9301" x1="30.496" y1="88.295" x2="73.4623" y2="-14.16" gradientUnits="userSpaceOnUse">
<stop offset="0.114812" stop-color="#B39257"/>
<stop offset="0.814205" stop-color="#DEC79F"/>
</linearGradient>
<linearGradient id="paint14_linear_1961_9301" x1="30.496" y1="88.295" x2="73.4623" y2="-14.16" gradientUnits="userSpaceOnUse">
<stop offset="0.114812" stop-color="#B39257"/>
<stop offset="0.814205" stop-color="#DEC79F"/>
</linearGradient>
<linearGradient id="paint15_linear_1961_9301" x1="30.496" y1="88.295" x2="73.4623" y2="-14.16" gradientUnits="userSpaceOnUse">
<stop offset="0.114812" stop-color="#B39257"/>
<stop offset="0.814205" stop-color="#DEC79F"/>
</linearGradient>
<linearGradient id="paint16_linear_1961_9301" x1="30.496" y1="88.295" x2="73.4623" y2="-14.16" gradientUnits="userSpaceOnUse">
<stop offset="0.114812" stop-color="#B39257"/>
<stop offset="0.814205" stop-color="#DEC79F"/>
</linearGradient>
<linearGradient id="paint17_linear_1961_9301" x1="30.496" y1="88.295" x2="73.4623" y2="-14.16" gradientUnits="userSpaceOnUse">
<stop offset="0.114812" stop-color="#B39257"/>
<stop offset="0.814205" stop-color="#DEC79F"/>
</linearGradient>
<linearGradient id="paint18_linear_1961_9301" x1="30.496" y1="88.295" x2="73.4623" y2="-14.16" gradientUnits="userSpaceOnUse">
<stop offset="0.114812" stop-color="#B39257"/>
<stop offset="0.814205" stop-color="#DEC79F"/>
</linearGradient>
<linearGradient id="paint19_linear_1961_9301" x1="30.496" y1="88.295" x2="73.4623" y2="-14.16" gradientUnits="userSpaceOnUse">
<stop offset="0.114812" stop-color="#B39257"/>
<stop offset="0.814205" stop-color="#DEC79F"/>
</linearGradient>
<linearGradient id="paint20_linear_1961_9301" x1="30.496" y1="88.295" x2="73.4623" y2="-14.16" gradientUnits="userSpaceOnUse">
<stop offset="0.114812" stop-color="#B39257"/>
<stop offset="0.814205" stop-color="#DEC79F"/>
</linearGradient>
<linearGradient id="paint21_linear_1961_9301" x1="30.496" y1="88.295" x2="73.4623" y2="-14.16" gradientUnits="userSpaceOnUse">
<stop offset="0.114812" stop-color="#B39257"/>
<stop offset="0.814205" stop-color="#DEC79F"/>
</linearGradient>
<linearGradient id="paint22_linear_1961_9301" x1="30.496" y1="88.295" x2="73.4623" y2="-14.16" gradientUnits="userSpaceOnUse">
<stop offset="0.114812" stop-color="#B39257"/>
<stop offset="0.814205" stop-color="#DEC79F"/>
</linearGradient>
<linearGradient id="paint23_linear_1961_9301" x1="30.496" y1="88.295" x2="73.4623" y2="-14.16" gradientUnits="userSpaceOnUse">
<stop offset="0.114812" stop-color="#B39257"/>
<stop offset="0.814205" stop-color="#DEC79F"/>
</linearGradient>
</defs>
</svg>
