<svg width="35" height="30" viewBox="0 0 35 30" fill="none" xmlns="http://www.w3.org/2000/svg">
<path d="M17.5556 30C17.1621 30 16.8323 29.8664 16.566 29.5993C16.2998 29.3322 16.1667 29.0011 16.1667 28.6063C16.1667 28.2114 16.2998 27.882 16.566 27.6181C16.8323 27.3542 17.1621 27.2222 17.5556 27.2222H30.0557V14.8333C30.0557 11.4595 28.8698 8.59756 26.4981 6.24742C24.1264 3.89728 21.2382 2.72221 17.8334 2.72221C14.4286 2.72221 11.5404 3.89728 9.16871 6.24742C6.79701 8.59756 5.61117 11.4595 5.61117 14.8333V23.8889C5.61117 24.2037 5.50469 24.4676 5.29175 24.6805C5.07878 24.8935 4.81489 25 4.50008 25C3.58342 25 2.79869 24.6736 2.14591 24.0208C1.49314 23.3681 1.16675 22.5833 1.16675 21.6667V18.3333C1.16675 17.75 1.31258 17.2014 1.60425 16.6875C1.89591 16.1736 2.30564 15.7639 2.83341 15.4583L2.95841 13.25C3.18064 11.3611 3.72925 9.61111 4.60425 8C5.47925 6.38889 6.57647 4.98611 7.89592 3.79167C9.21536 2.59722 10.7292 1.66667 12.4376 1C14.1459 0.333333 15.9445 0 17.8334 0C19.7223 0 21.514 0.333333 23.2084 1C24.9029 1.66667 26.4167 2.59028 27.7501 3.77083C29.0834 4.95139 30.1806 6.34722 31.0418 7.95833C31.9029 9.56944 32.4584 11.3194 32.7084 13.2083L32.8334 15.375C33.3612 15.625 33.7709 16 34.0626 16.5C34.3543 17 34.5001 17.5278 34.5001 18.0833V21.9167C34.5001 22.4722 34.3543 23 34.0626 23.5C33.7709 24 33.3612 24.375 32.8334 24.625V27.2222C32.8334 27.9861 32.5614 28.6401 32.0175 29.184C31.4735 29.728 30.8196 30 30.0557 30H17.5556ZM12.8285 18.0555C12.4337 18.0555 12.1043 17.922 11.8404 17.6548C11.5765 17.3877 11.4445 17.0567 11.4445 16.6618C11.4445 16.2669 11.5781 15.9375 11.8452 15.6736C12.1124 15.4097 12.4434 15.2778 12.8383 15.2778C13.2332 15.2778 13.5626 15.4114 13.8265 15.6785C14.0903 15.9456 14.2223 16.2767 14.2223 16.6715C14.2223 17.0664 14.0887 17.3958 13.8216 17.6597C13.5544 17.9236 13.2234 18.0555 12.8285 18.0555ZM22.8285 18.0555C22.4337 18.0555 22.1043 17.922 21.8404 17.6548C21.5765 17.3877 21.4445 17.0567 21.4445 16.6618C21.4445 16.2669 21.5781 15.9375 21.8453 15.6736C22.1124 15.4097 22.4434 15.2778 22.8383 15.2778C23.2332 15.2778 23.5626 15.4114 23.8265 15.6785C24.0903 15.9456 24.2223 16.2767 24.2223 16.6715C24.2223 17.0664 24.0887 17.3958 23.8216 17.6597C23.5544 17.9236 23.2234 18.0555 22.8285 18.0555ZM7.87508 15.75C7.68064 12.8056 8.56953 10.2778 10.5417 8.16667C12.514 6.05556 14.9723 5 17.9167 5C20.3519 5 22.4746 5.79399 24.2848 7.38196C26.095 8.9699 27.1945 10.9676 27.5834 13.375C25.0927 13.3472 22.8126 12.6574 20.7431 11.3055C18.6737 9.95371 17.0762 8.15742 15.9506 5.91667C15.5114 8.13889 14.5765 10.1181 13.1459 11.8542C11.7154 13.5903 9.95842 14.8889 7.87508 15.75Z" fill="#EC7F00"/>
<path d="M17.5556 30C17.1621 30 16.8323 29.8664 16.566 29.5993C16.2998 29.3322 16.1667 29.0011 16.1667 28.6063C16.1667 28.2114 16.2998 27.882 16.566 27.6181C16.8323 27.3542 17.1621 27.2222 17.5556 27.2222H30.0557V14.8333C30.0557 11.4595 28.8698 8.59756 26.4981 6.24742C24.1264 3.89728 21.2382 2.72221 17.8334 2.72221C14.4286 2.72221 11.5404 3.89728 9.16871 6.24742C6.79701 8.59756 5.61117 11.4595 5.61117 14.8333V23.8889C5.61117 24.2037 5.50469 24.4676 5.29175 24.6805C5.07878 24.8935 4.81489 25 4.50008 25C3.58342 25 2.79869 24.6736 2.14591 24.0208C1.49314 23.3681 1.16675 22.5833 1.16675 21.6667V18.3333C1.16675 17.75 1.31258 17.2014 1.60425 16.6875C1.89591 16.1736 2.30564 15.7639 2.83341 15.4583L2.95841 13.25C3.18064 11.3611 3.72925 9.61111 4.60425 8C5.47925 6.38889 6.57647 4.98611 7.89592 3.79167C9.21536 2.59722 10.7292 1.66667 12.4376 1C14.1459 0.333333 15.9445 0 17.8334 0C19.7223 0 21.514 0.333333 23.2084 1C24.9029 1.66667 26.4167 2.59028 27.7501 3.77083C29.0834 4.95139 30.1806 6.34722 31.0418 7.95833C31.9029 9.56944 32.4584 11.3194 32.7084 13.2083L32.8334 15.375C33.3612 15.625 33.7709 16 34.0626 16.5C34.3543 17 34.5001 17.5278 34.5001 18.0833V21.9167C34.5001 22.4722 34.3543 23 34.0626 23.5C33.7709 24 33.3612 24.375 32.8334 24.625V27.2222C32.8334 27.9861 32.5614 28.6401 32.0175 29.184C31.4735 29.728 30.8196 30 30.0557 30H17.5556ZM12.8285 18.0555C12.4337 18.0555 12.1043 17.922 11.8404 17.6548C11.5765 17.3877 11.4445 17.0567 11.4445 16.6618C11.4445 16.2669 11.5781 15.9375 11.8452 15.6736C12.1124 15.4097 12.4434 15.2778 12.8383 15.2778C13.2332 15.2778 13.5626 15.4114 13.8265 15.6785C14.0903 15.9456 14.2223 16.2767 14.2223 16.6715C14.2223 17.0664 14.0887 17.3958 13.8216 17.6597C13.5544 17.9236 13.2234 18.0555 12.8285 18.0555ZM22.8285 18.0555C22.4337 18.0555 22.1043 17.922 21.8404 17.6548C21.5765 17.3877 21.4445 17.0567 21.4445 16.6618C21.4445 16.2669 21.5781 15.9375 21.8453 15.6736C22.1124 15.4097 22.4434 15.2778 22.8383 15.2778C23.2332 15.2778 23.5626 15.4114 23.8265 15.6785C24.0903 15.9456 24.2223 16.2767 24.2223 16.6715C24.2223 17.0664 24.0887 17.3958 23.8216 17.6597C23.5544 17.9236 23.2234 18.0555 22.8285 18.0555ZM7.87508 15.75C7.68064 12.8056 8.56953 10.2778 10.5417 8.16667C12.514 6.05556 14.9723 5 17.9167 5C20.3519 5 22.4746 5.79399 24.2848 7.38196C26.095 8.9699 27.1945 10.9676 27.5834 13.375C25.0927 13.3472 22.8126 12.6574 20.7431 11.3055C18.6737 9.95371 17.0762 8.15742 15.9506 5.91667C15.5114 8.13889 14.5765 10.1181 13.1459 11.8542C11.7154 13.5903 9.95842 14.8889 7.87508 15.75Z" fill="#6D572A"/>
<path d="M16.5556 30C16.1621 30 15.8323 29.8664 15.566 29.5993C15.2998 29.3322 15.1667 29.0011 15.1667 28.6063C15.1667 28.2114 15.2998 27.882 15.566 27.6181C15.8323 27.3542 16.1621 27.2222 16.5556 27.2222H29.0557V14.8333C29.0557 11.4595 27.8698 8.59756 25.4981 6.24742C23.1264 3.89728 20.2382 2.72221 16.8334 2.72221C13.4286 2.72221 10.5404 3.89728 8.16871 6.24742C5.79701 8.59756 4.61117 11.4595 4.61117 14.8333V23.8889C4.61117 24.2037 4.50469 24.4676 4.29175 24.6805C4.07878 24.8935 3.81489 25 3.50008 25C2.58342 25 1.79869 24.6736 1.14591 24.0208C0.493137 23.3681 0.166748 22.5833 0.166748 21.6667V18.3333C0.166748 17.75 0.312581 17.2014 0.604248 16.6875C0.895915 16.1736 1.30564 15.7639 1.83341 15.4583L1.95841 13.25C2.18064 11.3611 2.72925 9.61111 3.60425 8C4.47925 6.38889 5.57647 4.98611 6.89592 3.79167C8.21536 2.59722 9.72925 1.66667 11.4376 1C13.1459 0.333333 14.9445 0 16.8334 0C18.7223 0 20.514 0.333333 22.2084 1C23.9029 1.66667 25.4167 2.59028 26.7501 3.77083C28.0834 4.95139 29.1806 6.34722 30.0418 7.95833C30.9029 9.56944 31.4584 11.3194 31.7084 13.2083L31.8334 15.375C32.3612 15.625 32.7709 16 33.0626 16.5C33.3543 17 33.5001 17.5278 33.5001 18.0833V21.9167C33.5001 22.4722 33.3543 23 33.0626 23.5C32.7709 24 32.3612 24.375 31.8334 24.625V27.2222C31.8334 27.9861 31.5614 28.6401 31.0175 29.184C30.4735 29.728 29.8196 30 29.0557 30H16.5556ZM11.8285 18.0555C11.4337 18.0555 11.1043 17.922 10.8404 17.6548C10.5765 17.3877 10.4445 17.0567 10.4445 16.6618C10.4445 16.2669 10.5781 15.9375 10.8452 15.6736C11.1124 15.4097 11.4434 15.2778 11.8383 15.2778C12.2332 15.2778 12.5626 15.4114 12.8265 15.6785C13.0903 15.9456 13.2223 16.2767 13.2223 16.6715C13.2223 17.0664 13.0887 17.3958 12.8216 17.6597C12.5544 17.9236 12.2234 18.0555 11.8285 18.0555ZM21.8285 18.0555C21.4337 18.0555 21.1043 17.922 20.8404 17.6548C20.5765 17.3877 20.4445 17.0567 20.4445 16.6618C20.4445 16.2669 20.5781 15.9375 20.8453 15.6736C21.1124 15.4097 21.4434 15.2778 21.8383 15.2778C22.2332 15.2778 22.5626 15.4114 22.8265 15.6785C23.0903 15.9456 23.2223 16.2767 23.2223 16.6715C23.2223 17.0664 23.0887 17.3958 22.8216 17.6597C22.5544 17.9236 22.2234 18.0555 21.8285 18.0555ZM6.87508 15.75C6.68064 12.8056 7.56953 10.2778 9.54175 8.16667C11.514 6.05556 13.9723 5 16.9167 5C19.3519 5 21.4746 5.79399 23.2848 7.38196C25.095 8.9699 26.1945 10.9676 26.5834 13.375C24.0927 13.3472 21.8126 12.6574 19.7431 11.3055C17.6737 9.95371 16.0762 8.15742 14.9506 5.91667C14.5114 8.13889 13.5765 10.1181 12.1459 11.8542C10.7154 13.5903 8.95842 14.8889 6.87508 15.75Z" fill="#EC7F00"/>
<path d="M16.5556 30C16.1621 30 15.8323 29.8664 15.566 29.5993C15.2998 29.3322 15.1667 29.0011 15.1667 28.6063C15.1667 28.2114 15.2998 27.882 15.566 27.6181C15.8323 27.3542 16.1621 27.2222 16.5556 27.2222H29.0557V14.8333C29.0557 11.4595 27.8698 8.59756 25.4981 6.24742C23.1264 3.89728 20.2382 2.72221 16.8334 2.72221C13.4286 2.72221 10.5404 3.89728 8.16871 6.24742C5.79701 8.59756 4.61117 11.4595 4.61117 14.8333V23.8889C4.61117 24.2037 4.50469 24.4676 4.29175 24.6805C4.07878 24.8935 3.81489 25 3.50008 25C2.58342 25 1.79869 24.6736 1.14591 24.0208C0.493137 23.3681 0.166748 22.5833 0.166748 21.6667V18.3333C0.166748 17.75 0.312581 17.2014 0.604248 16.6875C0.895915 16.1736 1.30564 15.7639 1.83341 15.4583L1.95841 13.25C2.18064 11.3611 2.72925 9.61111 3.60425 8C4.47925 6.38889 5.57647 4.98611 6.89592 3.79167C8.21536 2.59722 9.72925 1.66667 11.4376 1C13.1459 0.333333 14.9445 0 16.8334 0C18.7223 0 20.514 0.333333 22.2084 1C23.9029 1.66667 25.4167 2.59028 26.7501 3.77083C28.0834 4.95139 29.1806 6.34722 30.0418 7.95833C30.9029 9.56944 31.4584 11.3194 31.7084 13.2083L31.8334 15.375C32.3612 15.625 32.7709 16 33.0626 16.5C33.3543 17 33.5001 17.5278 33.5001 18.0833V21.9167C33.5001 22.4722 33.3543 23 33.0626 23.5C32.7709 24 32.3612 24.375 31.8334 24.625V27.2222C31.8334 27.9861 31.5614 28.6401 31.0175 29.184C30.4735 29.728 29.8196 30 29.0557 30H16.5556ZM11.8285 18.0555C11.4337 18.0555 11.1043 17.922 10.8404 17.6548C10.5765 17.3877 10.4445 17.0567 10.4445 16.6618C10.4445 16.2669 10.5781 15.9375 10.8452 15.6736C11.1124 15.4097 11.4434 15.2778 11.8383 15.2778C12.2332 15.2778 12.5626 15.4114 12.8265 15.6785C13.0903 15.9456 13.2223 16.2767 13.2223 16.6715C13.2223 17.0664 13.0887 17.3958 12.8216 17.6597C12.5544 17.9236 12.2234 18.0555 11.8285 18.0555ZM21.8285 18.0555C21.4337 18.0555 21.1043 17.922 20.8404 17.6548C20.5765 17.3877 20.4445 17.0567 20.4445 16.6618C20.4445 16.2669 20.5781 15.9375 20.8453 15.6736C21.1124 15.4097 21.4434 15.2778 21.8383 15.2778C22.2332 15.2778 22.5626 15.4114 22.8265 15.6785C23.0903 15.9456 23.2223 16.2767 23.2223 16.6715C23.2223 17.0664 23.0887 17.3958 22.8216 17.6597C22.5544 17.9236 22.2234 18.0555 21.8285 18.0555ZM6.87508 15.75C6.68064 12.8056 7.56953 10.2778 9.54175 8.16667C11.514 6.05556 13.9723 5 16.9167 5C19.3519 5 21.4746 5.79399 23.2848 7.38196C25.095 8.9699 26.1945 10.9676 26.5834 13.375C24.0927 13.3472 21.8126 12.6574 19.7431 11.3055C17.6737 9.95371 16.0762 8.15742 14.9506 5.91667C14.5114 8.13889 13.5765 10.1181 12.1459 11.8542C10.7154 13.5903 8.95842 14.8889 6.87508 15.75Z" fill="#908271"/>
<path d="M16.5556 30C16.1621 30 15.8323 29.8664 15.566 29.5993C15.2998 29.3322 15.1667 29.0011 15.1667 28.6063C15.1667 28.2114 15.2998 27.882 15.566 27.6181C15.8323 27.3542 16.1621 27.2222 16.5556 27.2222H29.0557V14.8333C29.0557 11.4595 27.8698 8.59756 25.4981 6.24742C23.1264 3.89728 20.2382 2.72221 16.8334 2.72221C13.4286 2.72221 10.5404 3.89728 8.16871 6.24742C5.79701 8.59756 4.61117 11.4595 4.61117 14.8333V23.8889C4.61117 24.2037 4.50469 24.4676 4.29175 24.6805C4.07878 24.8935 3.81489 25 3.50008 25C2.58342 25 1.79869 24.6736 1.14591 24.0208C0.493137 23.3681 0.166748 22.5833 0.166748 21.6667V18.3333C0.166748 17.75 0.312581 17.2014 0.604248 16.6875C0.895915 16.1736 1.30564 15.7639 1.83341 15.4583L1.95841 13.25C2.18064 11.3611 2.72925 9.61111 3.60425 8C4.47925 6.38889 5.57647 4.98611 6.89592 3.79167C8.21536 2.59722 9.72925 1.66667 11.4376 1C13.1459 0.333333 14.9445 0 16.8334 0C18.7223 0 20.514 0.333333 22.2084 1C23.9029 1.66667 25.4167 2.59028 26.7501 3.77083C28.0834 4.95139 29.1806 6.34722 30.0418 7.95833C30.9029 9.56944 31.4584 11.3194 31.7084 13.2083L31.8334 15.375C32.3612 15.625 32.7709 16 33.0626 16.5C33.3543 17 33.5001 17.5278 33.5001 18.0833V21.9167C33.5001 22.4722 33.3543 23 33.0626 23.5C32.7709 24 32.3612 24.375 31.8334 24.625V27.2222C31.8334 27.9861 31.5614 28.6401 31.0175 29.184C30.4735 29.728 29.8196 30 29.0557 30H16.5556ZM11.8285 18.0555C11.4337 18.0555 11.1043 17.922 10.8404 17.6548C10.5765 17.3877 10.4445 17.0567 10.4445 16.6618C10.4445 16.2669 10.5781 15.9375 10.8452 15.6736C11.1124 15.4097 11.4434 15.2778 11.8383 15.2778C12.2332 15.2778 12.5626 15.4114 12.8265 15.6785C13.0903 15.9456 13.2223 16.2767 13.2223 16.6715C13.2223 17.0664 13.0887 17.3958 12.8216 17.6597C12.5544 17.9236 12.2234 18.0555 11.8285 18.0555ZM21.8285 18.0555C21.4337 18.0555 21.1043 17.922 20.8404 17.6548C20.5765 17.3877 20.4445 17.0567 20.4445 16.6618C20.4445 16.2669 20.5781 15.9375 20.8453 15.6736C21.1124 15.4097 21.4434 15.2778 21.8383 15.2778C22.2332 15.2778 22.5626 15.4114 22.8265 15.6785C23.0903 15.9456 23.2223 16.2767 23.2223 16.6715C23.2223 17.0664 23.0887 17.3958 22.8216 17.6597C22.5544 17.9236 22.2234 18.0555 21.8285 18.0555ZM6.87508 15.75C6.68064 12.8056 7.56953 10.2778 9.54175 8.16667C11.514 6.05556 13.9723 5 16.9167 5C19.3519 5 21.4746 5.79399 23.2848 7.38196C25.095 8.9699 26.1945 10.9676 26.5834 13.375C24.0927 13.3472 21.8126 12.6574 19.7431 11.3055C17.6737 9.95371 16.0762 8.15742 14.9506 5.91667C14.5114 8.13889 13.5765 10.1181 12.1459 11.8542C10.7154 13.5903 8.95842 14.8889 6.87508 15.75Z" fill="url(#paint0_linear_147_2410)"/>
<defs>
<linearGradient id="paint0_linear_147_2410" x1="-0.166503" y1="30.158" x2="32.1025" y2="-1.90009" gradientUnits="userSpaceOnUse">
<stop offset="0.161458" stop-color="#AC883B"/>
<stop offset="0.609375" stop-color="#E2CD83"/>
<stop offset="0.817708" stop-color="#EFEDB5"/>
</linearGradient>
</defs>
</svg>
