<svg width="39" height="28" viewBox="0 0 39 28" fill="none" xmlns="http://www.w3.org/2000/svg">
<path d="M1.8335 25.9443V20.6665C1.8335 19.8146 2.13211 19.0924 2.72933 18.4998C3.32655 17.9073 4.04645 17.611 4.88904 17.611H10.6252C11.1252 17.611 11.602 17.736 12.0557 17.986C12.5094 18.236 12.8891 18.5785 13.1946 19.0137C14.0002 20.1526 15.0164 21.0369 16.2432 21.6665C17.4701 22.2961 18.7779 22.611 20.1668 22.611C21.565 22.611 22.8775 22.2961 24.1043 21.6665C25.3312 21.0369 26.352 20.1526 27.1668 19.0137C27.4909 18.5785 27.8729 18.236 28.3127 17.986C28.7525 17.736 29.2177 17.611 29.7085 17.611H35.4446C36.2965 17.611 37.0187 17.9073 37.6113 18.4998C38.2039 19.0924 38.5002 19.8146 38.5002 20.6665V25.9443C38.5002 26.3424 38.3682 26.6734 38.1043 26.9373C37.8404 27.2012 37.5094 27.3332 37.1113 27.3332H28.778C28.3798 27.3332 28.0488 27.2012 27.7849 26.9373C27.521 26.6734 27.3891 26.3424 27.3891 25.9443V22.7637C26.3983 23.6063 25.2849 24.2544 24.0488 24.7082C22.8127 25.1619 21.5187 25.3887 20.1668 25.3887C18.8242 25.3887 17.5372 25.1595 16.3057 24.7012C15.0742 24.2429 13.9539 23.5924 12.9446 22.7498V25.9443C12.9446 26.3424 12.8126 26.6734 12.5487 26.9373C12.2849 27.2012 11.9538 27.3332 11.5557 27.3332H3.22237C2.82423 27.3332 2.49322 27.2012 2.22933 26.9373C1.96544 26.6734 1.8335 26.3424 1.8335 25.9443ZM20.1668 20.3887C19.1668 20.3887 18.2085 20.1549 17.2918 19.6873C16.3752 19.2198 15.6252 18.5739 15.0418 17.7498C14.5881 17.0924 14.0349 16.567 13.3821 16.1735C12.7293 15.7799 12.0233 15.5369 11.2641 15.4443C12.0048 14.5461 13.278 13.8494 15.0835 13.354C16.8891 12.8586 18.5835 12.611 20.1668 12.611C21.7502 12.611 23.4492 12.8586 25.264 13.354C27.0788 13.8494 28.3566 14.5461 29.0974 15.4443C28.3474 15.5369 27.6437 15.7799 26.9862 16.1735C26.3289 16.567 25.7733 17.0924 25.3196 17.7498C24.7455 18.5832 24.0002 19.2313 23.0835 19.6943C22.1668 20.1572 21.1946 20.3887 20.1668 20.3887ZM6.8335 15.1109C5.53719 15.1109 4.42608 14.648 3.50016 13.722C2.57425 12.7961 2.11129 11.685 2.11129 10.3887C2.11129 9.06466 2.57425 7.9466 3.50016 7.03455C4.42608 6.12252 5.53719 5.6665 6.8335 5.6665C8.15758 5.6665 9.27564 6.12252 10.1877 7.03455C11.0997 7.9466 11.5557 9.06466 11.5557 10.3887C11.5557 11.685 11.0997 12.7961 10.1877 13.722C9.27564 14.648 8.15758 15.1109 6.8335 15.1109ZM33.5002 15.1109C32.2039 15.1109 31.0927 14.648 30.1668 13.722C29.2409 12.7961 28.778 11.685 28.778 10.3887C28.778 9.06466 29.2409 7.9466 30.1668 7.03455C31.0927 6.12252 32.2039 5.6665 33.5002 5.6665C34.8242 5.6665 35.9423 6.12252 36.8543 7.03455C37.7664 7.9466 38.2224 9.06466 38.2224 10.3887C38.2224 11.685 37.7664 12.7961 36.8543 13.722C35.9423 14.648 34.8242 15.1109 33.5002 15.1109ZM20.1668 10.1109C18.8705 10.1109 17.7594 9.64796 16.8335 8.72205C15.9076 7.79613 15.4446 6.68502 15.4446 5.38871C15.4446 4.06466 15.9076 2.9466 16.8335 2.03455C17.7594 1.12252 18.8705 0.666504 20.1668 0.666504C21.4909 0.666504 22.609 1.12252 23.521 2.03455C24.433 2.9466 24.889 4.06466 24.889 5.38871C24.889 6.68502 24.433 7.79613 23.521 8.72205C22.609 9.64796 21.4909 10.1109 20.1668 10.1109Z" fill="#EC7F00"/>
<path d="M1.8335 25.9443V20.6665C1.8335 19.8146 2.13211 19.0924 2.72933 18.4998C3.32655 17.9073 4.04645 17.611 4.88904 17.611H10.6252C11.1252 17.611 11.602 17.736 12.0557 17.986C12.5094 18.236 12.8891 18.5785 13.1946 19.0137C14.0002 20.1526 15.0164 21.0369 16.2432 21.6665C17.4701 22.2961 18.7779 22.611 20.1668 22.611C21.565 22.611 22.8775 22.2961 24.1043 21.6665C25.3312 21.0369 26.352 20.1526 27.1668 19.0137C27.4909 18.5785 27.8729 18.236 28.3127 17.986C28.7525 17.736 29.2177 17.611 29.7085 17.611H35.4446C36.2965 17.611 37.0187 17.9073 37.6113 18.4998C38.2039 19.0924 38.5002 19.8146 38.5002 20.6665V25.9443C38.5002 26.3424 38.3682 26.6734 38.1043 26.9373C37.8404 27.2012 37.5094 27.3332 37.1113 27.3332H28.778C28.3798 27.3332 28.0488 27.2012 27.7849 26.9373C27.521 26.6734 27.3891 26.3424 27.3891 25.9443V22.7637C26.3983 23.6063 25.2849 24.2544 24.0488 24.7082C22.8127 25.1619 21.5187 25.3887 20.1668 25.3887C18.8242 25.3887 17.5372 25.1595 16.3057 24.7012C15.0742 24.2429 13.9539 23.5924 12.9446 22.7498V25.9443C12.9446 26.3424 12.8126 26.6734 12.5487 26.9373C12.2849 27.2012 11.9538 27.3332 11.5557 27.3332H3.22237C2.82423 27.3332 2.49322 27.2012 2.22933 26.9373C1.96544 26.6734 1.8335 26.3424 1.8335 25.9443ZM20.1668 20.3887C19.1668 20.3887 18.2085 20.1549 17.2918 19.6873C16.3752 19.2198 15.6252 18.5739 15.0418 17.7498C14.5881 17.0924 14.0349 16.567 13.3821 16.1735C12.7293 15.7799 12.0233 15.5369 11.2641 15.4443C12.0048 14.5461 13.278 13.8494 15.0835 13.354C16.8891 12.8586 18.5835 12.611 20.1668 12.611C21.7502 12.611 23.4492 12.8586 25.264 13.354C27.0788 13.8494 28.3566 14.5461 29.0974 15.4443C28.3474 15.5369 27.6437 15.7799 26.9862 16.1735C26.3289 16.567 25.7733 17.0924 25.3196 17.7498C24.7455 18.5832 24.0002 19.2313 23.0835 19.6943C22.1668 20.1572 21.1946 20.3887 20.1668 20.3887ZM6.8335 15.1109C5.53719 15.1109 4.42608 14.648 3.50016 13.722C2.57425 12.7961 2.11129 11.685 2.11129 10.3887C2.11129 9.06466 2.57425 7.9466 3.50016 7.03455C4.42608 6.12252 5.53719 5.6665 6.8335 5.6665C8.15758 5.6665 9.27564 6.12252 10.1877 7.03455C11.0997 7.9466 11.5557 9.06466 11.5557 10.3887C11.5557 11.685 11.0997 12.7961 10.1877 13.722C9.27564 14.648 8.15758 15.1109 6.8335 15.1109ZM33.5002 15.1109C32.2039 15.1109 31.0927 14.648 30.1668 13.722C29.2409 12.7961 28.778 11.685 28.778 10.3887C28.778 9.06466 29.2409 7.9466 30.1668 7.03455C31.0927 6.12252 32.2039 5.6665 33.5002 5.6665C34.8242 5.6665 35.9423 6.12252 36.8543 7.03455C37.7664 7.9466 38.2224 9.06466 38.2224 10.3887C38.2224 11.685 37.7664 12.7961 36.8543 13.722C35.9423 14.648 34.8242 15.1109 33.5002 15.1109ZM20.1668 10.1109C18.8705 10.1109 17.7594 9.64796 16.8335 8.72205C15.9076 7.79613 15.4446 6.68502 15.4446 5.38871C15.4446 4.06466 15.9076 2.9466 16.8335 2.03455C17.7594 1.12252 18.8705 0.666504 20.1668 0.666504C21.4909 0.666504 22.609 1.12252 23.521 2.03455C24.433 2.9466 24.889 4.06466 24.889 5.38871C24.889 6.68502 24.433 7.79613 23.521 8.72205C22.609 9.64796 21.4909 10.1109 20.1668 10.1109Z" fill="#6D572A"/>
<path d="M0.833496 25.9443V20.6665C0.833496 19.8146 1.13211 19.0924 1.72933 18.4998C2.32655 17.9073 3.04645 17.611 3.88904 17.611H9.62516C10.1252 17.611 10.602 17.736 11.0557 17.986C11.5094 18.236 11.8891 18.5785 12.1946 19.0137C13.0002 20.1526 14.0164 21.0369 15.2432 21.6665C16.4701 22.2961 17.7779 22.611 19.1668 22.611C20.565 22.611 21.8775 22.2961 23.1043 21.6665C24.3312 21.0369 25.352 20.1526 26.1668 19.0137C26.4909 18.5785 26.8729 18.236 27.3127 17.986C27.7525 17.736 28.2177 17.611 28.7085 17.611H34.4446C35.2965 17.611 36.0187 17.9073 36.6113 18.4998C37.2039 19.0924 37.5002 19.8146 37.5002 20.6665V25.9443C37.5002 26.3424 37.3682 26.6734 37.1043 26.9373C36.8404 27.2012 36.5094 27.3332 36.1113 27.3332H27.778C27.3798 27.3332 27.0488 27.2012 26.7849 26.9373C26.521 26.6734 26.3891 26.3424 26.3891 25.9443V22.7637C25.3983 23.6063 24.2849 24.2544 23.0488 24.7082C21.8127 25.1619 20.5187 25.3887 19.1668 25.3887C17.8242 25.3887 16.5372 25.1595 15.3057 24.7012C14.0742 24.2429 12.9539 23.5924 11.9446 22.7498V25.9443C11.9446 26.3424 11.8126 26.6734 11.5487 26.9373C11.2849 27.2012 10.9538 27.3332 10.5557 27.3332H2.22237C1.82423 27.3332 1.49322 27.2012 1.22933 26.9373C0.965441 26.6734 0.833496 26.3424 0.833496 25.9443ZM19.1668 20.3887C18.1668 20.3887 17.2085 20.1549 16.2918 19.6873C15.3752 19.2198 14.6252 18.5739 14.0418 17.7498C13.5881 17.0924 13.0349 16.567 12.3821 16.1735C11.7293 15.7799 11.0233 15.5369 10.2641 15.4443C11.0048 14.5461 12.278 13.8494 14.0835 13.354C15.8891 12.8586 17.5835 12.611 19.1668 12.611C20.7502 12.611 22.4492 12.8586 24.264 13.354C26.0788 13.8494 27.3566 14.5461 28.0974 15.4443C27.3474 15.5369 26.6437 15.7799 25.9862 16.1735C25.3289 16.567 24.7733 17.0924 24.3196 17.7498C23.7455 18.5832 23.0002 19.2313 22.0835 19.6943C21.1668 20.1572 20.1946 20.3887 19.1668 20.3887ZM5.8335 15.1109C4.53719 15.1109 3.42608 14.648 2.50016 13.722C1.57425 12.7961 1.11129 11.685 1.11129 10.3887C1.11129 9.06466 1.57425 7.9466 2.50016 7.03455C3.42608 6.12252 4.53719 5.6665 5.8335 5.6665C7.15758 5.6665 8.27564 6.12252 9.18766 7.03455C10.0997 7.9466 10.5557 9.06466 10.5557 10.3887C10.5557 11.685 10.0997 12.7961 9.18766 13.722C8.27564 14.648 7.15758 15.1109 5.8335 15.1109ZM32.5002 15.1109C31.2039 15.1109 30.0927 14.648 29.1668 13.722C28.2409 12.7961 27.778 11.685 27.778 10.3887C27.778 9.06466 28.2409 7.9466 29.1668 7.03455C30.0927 6.12252 31.2039 5.6665 32.5002 5.6665C33.8242 5.6665 34.9423 6.12252 35.8543 7.03455C36.7664 7.9466 37.2224 9.06466 37.2224 10.3887C37.2224 11.685 36.7664 12.7961 35.8543 13.722C34.9423 14.648 33.8242 15.1109 32.5002 15.1109ZM19.1668 10.1109C17.8705 10.1109 16.7594 9.64796 15.8335 8.72205C14.9076 7.79613 14.4446 6.68502 14.4446 5.38871C14.4446 4.06466 14.9076 2.9466 15.8335 2.03455C16.7594 1.12252 17.8705 0.666504 19.1668 0.666504C20.4909 0.666504 21.609 1.12252 22.521 2.03455C23.433 2.9466 23.889 4.06466 23.889 5.38871C23.889 6.68502 23.433 7.79613 22.521 8.72205C21.609 9.64796 20.4909 10.1109 19.1668 10.1109Z" fill="#EC7F00"/>
<path d="M0.833496 25.9443V20.6665C0.833496 19.8146 1.13211 19.0924 1.72933 18.4998C2.32655 17.9073 3.04645 17.611 3.88904 17.611H9.62516C10.1252 17.611 10.602 17.736 11.0557 17.986C11.5094 18.236 11.8891 18.5785 12.1946 19.0137C13.0002 20.1526 14.0164 21.0369 15.2432 21.6665C16.4701 22.2961 17.7779 22.611 19.1668 22.611C20.565 22.611 21.8775 22.2961 23.1043 21.6665C24.3312 21.0369 25.352 20.1526 26.1668 19.0137C26.4909 18.5785 26.8729 18.236 27.3127 17.986C27.7525 17.736 28.2177 17.611 28.7085 17.611H34.4446C35.2965 17.611 36.0187 17.9073 36.6113 18.4998C37.2039 19.0924 37.5002 19.8146 37.5002 20.6665V25.9443C37.5002 26.3424 37.3682 26.6734 37.1043 26.9373C36.8404 27.2012 36.5094 27.3332 36.1113 27.3332H27.778C27.3798 27.3332 27.0488 27.2012 26.7849 26.9373C26.521 26.6734 26.3891 26.3424 26.3891 25.9443V22.7637C25.3983 23.6063 24.2849 24.2544 23.0488 24.7082C21.8127 25.1619 20.5187 25.3887 19.1668 25.3887C17.8242 25.3887 16.5372 25.1595 15.3057 24.7012C14.0742 24.2429 12.9539 23.5924 11.9446 22.7498V25.9443C11.9446 26.3424 11.8126 26.6734 11.5487 26.9373C11.2849 27.2012 10.9538 27.3332 10.5557 27.3332H2.22237C1.82423 27.3332 1.49322 27.2012 1.22933 26.9373C0.965441 26.6734 0.833496 26.3424 0.833496 25.9443ZM19.1668 20.3887C18.1668 20.3887 17.2085 20.1549 16.2918 19.6873C15.3752 19.2198 14.6252 18.5739 14.0418 17.7498C13.5881 17.0924 13.0349 16.567 12.3821 16.1735C11.7293 15.7799 11.0233 15.5369 10.2641 15.4443C11.0048 14.5461 12.278 13.8494 14.0835 13.354C15.8891 12.8586 17.5835 12.611 19.1668 12.611C20.7502 12.611 22.4492 12.8586 24.264 13.354C26.0788 13.8494 27.3566 14.5461 28.0974 15.4443C27.3474 15.5369 26.6437 15.7799 25.9862 16.1735C25.3289 16.567 24.7733 17.0924 24.3196 17.7498C23.7455 18.5832 23.0002 19.2313 22.0835 19.6943C21.1668 20.1572 20.1946 20.3887 19.1668 20.3887ZM5.8335 15.1109C4.53719 15.1109 3.42608 14.648 2.50016 13.722C1.57425 12.7961 1.11129 11.685 1.11129 10.3887C1.11129 9.06466 1.57425 7.9466 2.50016 7.03455C3.42608 6.12252 4.53719 5.6665 5.8335 5.6665C7.15758 5.6665 8.27564 6.12252 9.18766 7.03455C10.0997 7.9466 10.5557 9.06466 10.5557 10.3887C10.5557 11.685 10.0997 12.7961 9.18766 13.722C8.27564 14.648 7.15758 15.1109 5.8335 15.1109ZM32.5002 15.1109C31.2039 15.1109 30.0927 14.648 29.1668 13.722C28.2409 12.7961 27.778 11.685 27.778 10.3887C27.778 9.06466 28.2409 7.9466 29.1668 7.03455C30.0927 6.12252 31.2039 5.6665 32.5002 5.6665C33.8242 5.6665 34.9423 6.12252 35.8543 7.03455C36.7664 7.9466 37.2224 9.06466 37.2224 10.3887C37.2224 11.685 36.7664 12.7961 35.8543 13.722C34.9423 14.648 33.8242 15.1109 32.5002 15.1109ZM19.1668 10.1109C17.8705 10.1109 16.7594 9.64796 15.8335 8.72205C14.9076 7.79613 14.4446 6.68502 14.4446 5.38871C14.4446 4.06466 14.9076 2.9466 15.8335 2.03455C16.7594 1.12252 17.8705 0.666504 19.1668 0.666504C20.4909 0.666504 21.609 1.12252 22.521 2.03455C23.433 2.9466 23.889 4.06466 23.889 5.38871C23.889 6.68502 23.433 7.79613 22.521 8.72205C21.609 9.64796 20.4909 10.1109 19.1668 10.1109Z" fill="#908271"/>
<path d="M0.833496 25.9443V20.6665C0.833496 19.8146 1.13211 19.0924 1.72933 18.4998C2.32655 17.9073 3.04645 17.611 3.88904 17.611H9.62516C10.1252 17.611 10.602 17.736 11.0557 17.986C11.5094 18.236 11.8891 18.5785 12.1946 19.0137C13.0002 20.1526 14.0164 21.0369 15.2432 21.6665C16.4701 22.2961 17.7779 22.611 19.1668 22.611C20.565 22.611 21.8775 22.2961 23.1043 21.6665C24.3312 21.0369 25.352 20.1526 26.1668 19.0137C26.4909 18.5785 26.8729 18.236 27.3127 17.986C27.7525 17.736 28.2177 17.611 28.7085 17.611H34.4446C35.2965 17.611 36.0187 17.9073 36.6113 18.4998C37.2039 19.0924 37.5002 19.8146 37.5002 20.6665V25.9443C37.5002 26.3424 37.3682 26.6734 37.1043 26.9373C36.8404 27.2012 36.5094 27.3332 36.1113 27.3332H27.778C27.3798 27.3332 27.0488 27.2012 26.7849 26.9373C26.521 26.6734 26.3891 26.3424 26.3891 25.9443V22.7637C25.3983 23.6063 24.2849 24.2544 23.0488 24.7082C21.8127 25.1619 20.5187 25.3887 19.1668 25.3887C17.8242 25.3887 16.5372 25.1595 15.3057 24.7012C14.0742 24.2429 12.9539 23.5924 11.9446 22.7498V25.9443C11.9446 26.3424 11.8126 26.6734 11.5487 26.9373C11.2849 27.2012 10.9538 27.3332 10.5557 27.3332H2.22237C1.82423 27.3332 1.49322 27.2012 1.22933 26.9373C0.965441 26.6734 0.833496 26.3424 0.833496 25.9443ZM19.1668 20.3887C18.1668 20.3887 17.2085 20.1549 16.2918 19.6873C15.3752 19.2198 14.6252 18.5739 14.0418 17.7498C13.5881 17.0924 13.0349 16.567 12.3821 16.1735C11.7293 15.7799 11.0233 15.5369 10.2641 15.4443C11.0048 14.5461 12.278 13.8494 14.0835 13.354C15.8891 12.8586 17.5835 12.611 19.1668 12.611C20.7502 12.611 22.4492 12.8586 24.264 13.354C26.0788 13.8494 27.3566 14.5461 28.0974 15.4443C27.3474 15.5369 26.6437 15.7799 25.9862 16.1735C25.3289 16.567 24.7733 17.0924 24.3196 17.7498C23.7455 18.5832 23.0002 19.2313 22.0835 19.6943C21.1668 20.1572 20.1946 20.3887 19.1668 20.3887ZM5.8335 15.1109C4.53719 15.1109 3.42608 14.648 2.50016 13.722C1.57425 12.7961 1.11129 11.685 1.11129 10.3887C1.11129 9.06466 1.57425 7.9466 2.50016 7.03455C3.42608 6.12252 4.53719 5.6665 5.8335 5.6665C7.15758 5.6665 8.27564 6.12252 9.18766 7.03455C10.0997 7.9466 10.5557 9.06466 10.5557 10.3887C10.5557 11.685 10.0997 12.7961 9.18766 13.722C8.27564 14.648 7.15758 15.1109 5.8335 15.1109ZM32.5002 15.1109C31.2039 15.1109 30.0927 14.648 29.1668 13.722C28.2409 12.7961 27.778 11.685 27.778 10.3887C27.778 9.06466 28.2409 7.9466 29.1668 7.03455C30.0927 6.12252 31.2039 5.6665 32.5002 5.6665C33.8242 5.6665 34.9423 6.12252 35.8543 7.03455C36.7664 7.9466 37.2224 9.06466 37.2224 10.3887C37.2224 11.685 36.7664 12.7961 35.8543 13.722C34.9423 14.648 33.8242 15.1109 32.5002 15.1109ZM19.1668 10.1109C17.8705 10.1109 16.7594 9.64796 15.8335 8.72205C14.9076 7.79613 14.4446 6.68502 14.4446 5.38871C14.4446 4.06466 14.9076 2.9466 15.8335 2.03455C16.7594 1.12252 17.8705 0.666504 19.1668 0.666504C20.4909 0.666504 21.609 1.12252 22.521 2.03455C23.433 2.9466 23.889 4.06466 23.889 5.38871C23.889 6.68502 23.433 7.79613 22.521 8.72205C21.609 9.64796 20.4909 10.1109 19.1668 10.1109Z" fill="url(#paint0_linear_147_2408)"/>
<defs>
<linearGradient id="paint0_linear_147_2408" x1="0.46692" y1="27.4737" x2="28.55" y2="-7.05204" gradientUnits="userSpaceOnUse">
<stop offset="0.161458" stop-color="#AC883B"/>
<stop offset="0.609375" stop-color="#E2CD83"/>
<stop offset="0.817708" stop-color="#EFEDB5"/>
</linearGradient>
</defs>
</svg>
