<svg width="141" height="112" viewBox="0 0 141 112" fill="none" xmlns="http://www.w3.org/2000/svg">
<g filter="url(#filter0_d_1961_9303)">
<path d="M88.8775 49.9699C87.7598 46.4467 85.8424 43.3996 83.2431 40.7861C80.7603 38.2903 77.882 36.3555 74.6672 34.9218C70.3487 32.9968 65.8135 32.0959 61.0953 32.0784L61.0876 32C59.5254 32.1329 57.9599 32.2288 56.4032 32.4085C54.038 32.682 51.7437 33.2801 49.5083 34.0982C45.899 35.4208 42.6373 37.3261 39.7994 39.9266C37.3711 42.1523 35.4232 44.7396 34.0887 47.7627C33.0962 50.0135 32.5167 52.371 32.3729 54.8232C32.2912 56.2177 32.3543 57.6099 32.5657 58.9979C32.9078 61.2475 33.593 63.3828 34.6312 65.4025C36.566 69.1654 39.3745 72.1602 42.8519 74.5253C47.8589 77.9308 53.4454 79.6096 59.4677 79.9222C61.4297 80.0246 63.3874 79.931 65.3353 79.6945C67.4694 79.4353 69.5622 78.9712 71.6048 78.2914C76.6118 76.6246 80.9586 73.9468 84.4425 69.9388C86.0821 68.0531 87.36 65.9516 88.3067 63.6409C89.1346 61.6201 89.615 59.5164 89.7567 57.3463C89.822 56.3462 89.7719 55.3342 89.7164 54.3308C89.6346 52.8427 89.3285 51.3883 88.8786 49.9699H88.8775ZM79.9084 51.2336C78.247 51.2336 76.5856 51.2292 74.9254 51.2412C74.7838 51.2412 74.6073 51.3164 74.507 51.4166C71.6767 54.2328 68.853 57.0554 66.0325 59.8814C65.9519 59.962 65.8702 60.0895 65.8691 60.1962C65.8593 61.9469 65.8625 63.6976 65.8625 65.4483C65.8625 65.4919 65.8713 65.5343 65.8778 65.5986H73.0342V70.3855H53.9019V65.6062H61.0517C61.0571 65.493 61.0659 65.4047 61.0659 65.3176C61.0659 63.6399 61.0702 61.9611 61.0593 60.2834C61.0593 60.1494 60.9918 59.9816 60.8981 59.8868C56.499 55.4703 52.0923 51.0604 47.69 46.6461C47.544 46.5001 47.4013 46.4358 47.1943 46.4391C46.35 46.45 45.5057 46.4435 44.6615 46.4435H44.3531V41.6762H58.6539V46.4358H55.5926C58.2519 49.0809 60.885 51.6999 63.5388 54.3384C63.7001 54.1761 63.907 53.9648 64.1162 53.7556C64.6217 53.2468 65.1217 52.7337 65.6359 52.2337C65.7972 52.0779 65.868 51.9221 65.8669 51.6912C65.856 50.0494 65.8615 48.4077 65.8615 46.7659V46.462H80.2188V51.2336H79.9084Z" fill="url(#paint0_linear_1961_9303)" fill-opacity="0.57"/>
<path d="M108.325 33.0404C107.919 32.3584 107.293 32.0817 106.522 32.0806C104.869 32.0806 103.217 32.0806 101.565 32.0806C100.058 32.0806 98.5504 32.0763 97.0438 32.0817C95.7691 32.0861 94.8137 32.9304 94.72 34.1952C94.671 34.8608 94.7266 35.5351 94.7505 36.2051C94.8312 38.5071 94.9216 40.809 95.0044 43.1109C95.0665 44.842 95.1209 46.5731 95.1841 48.3042C95.2854 51.0953 95.3922 53.8874 95.4935 56.6785C95.5752 58.9445 95.6493 61.2105 95.7288 63.4764C95.7528 64.1737 95.7855 64.8709 95.8149 65.5855H102.969C102.985 65.5529 102.997 65.5376 103 65.5202C103.441 63.0505 103.882 60.5808 104.323 58.1111C104.8 55.4366 105.278 52.7621 105.757 50.0886C106.238 47.3989 106.722 44.7091 107.204 42.0193C107.636 39.6063 108.064 37.1932 108.499 34.7813C108.607 34.1821 108.655 33.5916 108.327 33.0404H108.325Z" fill="url(#paint1_linear_1961_9303)" fill-opacity="0.57"/>
<path d="M104.155 74.278C104.093 72.7201 102.946 71.1906 101.475 70.6633C100.363 70.2646 99.2182 70.3256 98.0885 70.465C96.3814 70.6764 94.9063 72.1645 94.6852 73.8542C94.598 74.5242 94.6144 75.2105 94.622 75.8881C94.6427 77.7216 95.9238 79.3383 97.6963 79.8187C98.5548 80.0508 99.4307 80.0181 100.293 79.9495C101.868 79.8231 103.029 79.018 103.756 77.6116C104.151 76.8468 104.206 76.0167 104.157 75.1757C104.157 74.8772 104.166 74.5776 104.154 74.2791L104.155 74.278Z" fill="url(#paint2_linear_1961_9303)" fill-opacity="0.57"/>
</g>
<defs>
<filter id="filter0_d_1961_9303" x="0.338379" y="0" width="140.241" height="112" filterUnits="userSpaceOnUse" color-interpolation-filters="sRGB">
<feFlood flood-opacity="0" result="BackgroundImageFix"/>
<feColorMatrix in="SourceAlpha" type="matrix" values="0 0 0 0 0 0 0 0 0 0 0 0 0 0 0 0 0 0 127 0" result="hardAlpha"/>
<feOffset/>
<feGaussianBlur stdDeviation="16"/>
<feComposite in2="hardAlpha" operator="out"/>
<feColorMatrix type="matrix" values="0 0 0 0 0 0 0 0 0 0 0 0 0 0 0 0 0 0 0.03 0"/>
<feBlend mode="normal" in2="BackgroundImageFix" result="effect1_dropShadow_1961_9303"/>
<feBlend mode="normal" in="SourceGraphic" in2="effect1_dropShadow_1961_9303" result="shape"/>
</filter>
<linearGradient id="paint0_linear_1961_9303" x1="31.5756" y1="80.2529" x2="80.1856" y2="11.2178" gradientUnits="userSpaceOnUse">
<stop offset="0.114812" stop-color="#B39257"/>
<stop offset="0.814205" stop-color="#DEC79F"/>
</linearGradient>
<linearGradient id="paint1_linear_1961_9303" x1="31.5756" y1="80.2529" x2="80.1856" y2="11.2178" gradientUnits="userSpaceOnUse">
<stop offset="0.114812" stop-color="#B39257"/>
<stop offset="0.814205" stop-color="#DEC79F"/>
</linearGradient>
<linearGradient id="paint2_linear_1961_9303" x1="31.5756" y1="80.2529" x2="80.1856" y2="11.2178" gradientUnits="userSpaceOnUse">
<stop offset="0.114812" stop-color="#B39257"/>
<stop offset="0.814205" stop-color="#DEC79F"/>
</linearGradient>
</defs>
</svg>
