<svg width="141" height="112" viewBox="0 0 141 112" fill="none" xmlns="http://www.w3.org/2000/svg">
<g filter="url(#filter0_d_1302_10480)">
<path d="M89.0875 49.9699C87.9697 46.4467 86.0524 43.3996 83.453 40.7861C80.9702 38.2903 78.092 36.3555 74.8771 34.9218C70.5587 32.9968 66.0235 32.0959 61.3052 32.0784L61.2976 32C59.7354 32.1329 58.1699 32.2288 56.6131 32.4085C54.248 32.682 51.9537 33.2801 49.7182 34.0982C46.109 35.4208 42.8473 37.3261 40.0094 39.9266C37.5811 42.1523 35.6332 44.7396 34.2987 47.7627C33.3062 50.0135 32.7266 52.371 32.5828 54.8232C32.5011 56.2177 32.5643 57.6099 32.7756 58.9979C33.1177 61.2475 33.803 63.3828 34.8412 65.4025C36.776 69.1654 39.5845 72.1602 43.0619 74.5253C48.0688 77.9308 53.6554 79.6096 59.6776 79.9222C61.6397 80.0246 63.5974 79.931 65.5452 79.6945C67.6794 79.4353 69.7722 78.9712 71.8148 78.2914C76.8218 76.6246 81.1685 73.9468 84.6525 69.9388C86.292 68.0531 87.5699 65.9516 88.5166 63.6409C89.3446 61.6201 89.825 59.5164 89.9666 57.3463C90.032 56.3462 89.9819 55.3342 89.9263 54.3308C89.8446 52.8427 89.5385 51.3883 89.0886 49.9699H89.0875ZM80.1183 51.2336C78.457 51.2336 76.7956 51.2292 75.1353 51.2412C74.9937 51.2412 74.8172 51.3164 74.717 51.4166C71.8867 54.2328 69.0629 57.0554 66.2425 59.8814C66.1618 59.962 66.0801 60.0895 66.079 60.1962C66.0692 61.9469 66.0725 63.6976 66.0725 65.4483C66.0725 65.4919 66.0812 65.5343 66.0878 65.5986H73.2441V70.3855H54.1118V65.6062H61.2617C61.2671 65.493 61.2758 65.4047 61.2758 65.3176C61.2758 63.6399 61.2802 61.9611 61.2693 60.2834C61.2693 60.1494 61.2017 59.9816 61.108 59.8868C56.709 55.4703 52.3023 51.0604 47.9 46.6461C47.754 46.5001 47.6113 46.4358 47.4043 46.4391C46.56 46.45 45.7157 46.4435 44.8714 46.4435H44.5631V41.6762H58.8638V46.4358H55.8026C58.4619 49.0809 61.095 51.6999 63.7488 54.3384C63.91 54.1761 64.117 53.9648 64.3262 53.7556C64.8317 53.2468 65.3317 52.7337 65.8459 52.2337C66.0071 52.0779 66.0779 51.9221 66.0769 51.6912C66.066 50.0494 66.0714 48.4077 66.0714 46.7659V46.462H80.4288V51.2336H80.1183Z" fill="url(#paint0_linear_1302_10480)" fill-opacity="0.75"/>
<path d="M89.0875 49.9699C87.9697 46.4467 86.0524 43.3996 83.453 40.7861C80.9702 38.2903 78.092 36.3555 74.8771 34.9218C70.5587 32.9968 66.0235 32.0959 61.3052 32.0784L61.2976 32C59.7354 32.1329 58.1699 32.2288 56.6131 32.4085C54.248 32.682 51.9537 33.2801 49.7182 34.0982C46.109 35.4208 42.8473 37.3261 40.0094 39.9266C37.5811 42.1523 35.6332 44.7396 34.2987 47.7627C33.3062 50.0135 32.7266 52.371 32.5828 54.8232C32.5011 56.2177 32.5643 57.6099 32.7756 58.9979C33.1177 61.2475 33.803 63.3828 34.8412 65.4025C36.776 69.1654 39.5845 72.1602 43.0619 74.5253C48.0688 77.9308 53.6554 79.6096 59.6776 79.9222C61.6397 80.0246 63.5974 79.931 65.5452 79.6945C67.6794 79.4353 69.7722 78.9712 71.8148 78.2914C76.8218 76.6246 81.1685 73.9468 84.6525 69.9388C86.292 68.0531 87.5699 65.9516 88.5166 63.6409C89.3446 61.6201 89.825 59.5164 89.9666 57.3463C90.032 56.3462 89.9819 55.3342 89.9263 54.3308C89.8446 52.8427 89.5385 51.3883 89.0886 49.9699H89.0875ZM80.1183 51.2336C78.457 51.2336 76.7956 51.2292 75.1353 51.2412C74.9937 51.2412 74.8172 51.3164 74.717 51.4166C71.8867 54.2328 69.0629 57.0554 66.2425 59.8814C66.1618 59.962 66.0801 60.0895 66.079 60.1962C66.0692 61.9469 66.0725 63.6976 66.0725 65.4483C66.0725 65.4919 66.0812 65.5343 66.0878 65.5986H73.2441V70.3855H54.1118V65.6062H61.2617C61.2671 65.493 61.2758 65.4047 61.2758 65.3176C61.2758 63.6399 61.2802 61.9611 61.2693 60.2834C61.2693 60.1494 61.2017 59.9816 61.108 59.8868C56.709 55.4703 52.3023 51.0604 47.9 46.6461C47.754 46.5001 47.6113 46.4358 47.4043 46.4391C46.56 46.45 45.7157 46.4435 44.8714 46.4435H44.5631V41.6762H58.8638V46.4358H55.8026C58.4619 49.0809 61.095 51.6999 63.7488 54.3384C63.91 54.1761 64.117 53.9648 64.3262 53.7556C64.8317 53.2468 65.3317 52.7337 65.8459 52.2337C66.0071 52.0779 66.0779 51.9221 66.0769 51.6912C66.066 50.0494 66.0714 48.4077 66.0714 46.7659V46.462H80.4288V51.2336H80.1183Z" fill="#3D4043" fill-opacity="0.5"/>
<path d="M108.535 33.0404C108.129 32.3584 107.503 32.0817 106.732 32.0806C105.079 32.0806 103.427 32.0806 101.775 32.0806C100.268 32.0806 98.7604 32.0763 97.2537 32.0817C95.9791 32.0861 95.0237 32.9304 94.93 34.1952C94.881 34.8608 94.9365 35.5351 94.9605 36.2051C95.0411 38.5071 95.1315 40.809 95.2143 43.1109C95.2764 44.842 95.3309 46.5731 95.3941 48.3042C95.4954 51.0953 95.6022 53.8874 95.7035 56.6785C95.7852 58.9445 95.8593 61.2105 95.9388 63.4764C95.9628 64.1737 95.9954 64.8709 96.0249 65.5855H103.179C103.195 65.5529 103.207 65.5376 103.21 65.5202C103.651 63.0505 104.092 60.5808 104.533 58.1111C105.01 55.4366 105.488 52.7621 105.967 50.0886C106.448 47.3989 106.932 44.7091 107.414 42.0193C107.846 39.6063 108.274 37.1932 108.709 34.7813C108.817 34.1821 108.865 33.5916 108.537 33.0404H108.535Z" fill="url(#paint1_linear_1302_10480)" fill-opacity="0.75"/>
<path d="M108.535 33.0404C108.129 32.3584 107.503 32.0817 106.732 32.0806C105.079 32.0806 103.427 32.0806 101.775 32.0806C100.268 32.0806 98.7604 32.0763 97.2537 32.0817C95.9791 32.0861 95.0237 32.9304 94.93 34.1952C94.881 34.8608 94.9365 35.5351 94.9605 36.2051C95.0411 38.5071 95.1315 40.809 95.2143 43.1109C95.2764 44.842 95.3309 46.5731 95.3941 48.3042C95.4954 51.0953 95.6022 53.8874 95.7035 56.6785C95.7852 58.9445 95.8593 61.2105 95.9388 63.4764C95.9628 64.1737 95.9954 64.8709 96.0249 65.5855H103.179C103.195 65.5529 103.207 65.5376 103.21 65.5202C103.651 63.0505 104.092 60.5808 104.533 58.1111C105.01 55.4366 105.488 52.7621 105.967 50.0886C106.448 47.3989 106.932 44.7091 107.414 42.0193C107.846 39.6063 108.274 37.1932 108.709 34.7813C108.817 34.1821 108.865 33.5916 108.537 33.0404H108.535Z" fill="#3D4043" fill-opacity="0.5"/>
<path d="M104.365 74.278C104.303 72.7201 103.156 71.1906 101.685 70.6633C100.573 70.2646 99.4282 70.3256 98.2985 70.465C96.5913 70.6764 95.1163 72.1645 94.8951 73.8542C94.808 74.5242 94.8243 75.2105 94.8319 75.8881C94.8526 77.7216 96.1338 79.3383 97.9063 79.8187C98.7647 80.0508 99.6406 80.0181 100.503 79.9495C102.078 79.8231 103.239 79.018 103.966 77.6116C104.361 76.8468 104.416 76.0167 104.367 75.1757C104.367 74.8772 104.376 74.5776 104.364 74.2791L104.365 74.278Z" fill="url(#paint2_linear_1302_10480)" fill-opacity="0.75"/>
<path d="M104.365 74.278C104.303 72.7201 103.156 71.1906 101.685 70.6633C100.573 70.2646 99.4282 70.3256 98.2985 70.465C96.5913 70.6764 95.1163 72.1645 94.8951 73.8542C94.808 74.5242 94.8243 75.2105 94.8319 75.8881C94.8526 77.7216 96.1338 79.3383 97.9063 79.8187C98.7647 80.0508 99.6406 80.0181 100.503 79.9495C102.078 79.8231 103.239 79.018 103.966 77.6116C104.361 76.8468 104.416 76.0167 104.367 75.1757C104.367 74.8772 104.376 74.5776 104.364 74.2791L104.365 74.278Z" fill="#3D4043" fill-opacity="0.5"/>
</g>
<defs>
<filter id="filter0_d_1302_10480" x="0.54834" y="0" width="140.241" height="112" filterUnits="userSpaceOnUse" color-interpolation-filters="sRGB">
<feFlood flood-opacity="0" result="BackgroundImageFix"/>
<feColorMatrix in="SourceAlpha" type="matrix" values="0 0 0 0 0 0 0 0 0 0 0 0 0 0 0 0 0 0 127 0" result="hardAlpha"/>
<feOffset/>
<feGaussianBlur stdDeviation="16"/>
<feComposite in2="hardAlpha" operator="out"/>
<feColorMatrix type="matrix" values="0 0 0 0 0 0 0 0 0 0 0 0 0 0 0 0 0 0 0.03 0"/>
<feBlend mode="normal" in2="BackgroundImageFix" result="effect1_dropShadow_1302_10480"/>
<feBlend mode="normal" in="SourceGraphic" in2="effect1_dropShadow_1302_10480" result="shape"/>
</filter>
<linearGradient id="paint0_linear_1302_10480" x1="31.7856" y1="80.2529" x2="80.3956" y2="11.2178" gradientUnits="userSpaceOnUse">
<stop offset="0.114812" stop-color="#B39257"/>
<stop offset="0.814205" stop-color="#DEC79F"/>
</linearGradient>
<linearGradient id="paint1_linear_1302_10480" x1="31.7856" y1="80.2529" x2="80.3956" y2="11.2178" gradientUnits="userSpaceOnUse">
<stop offset="0.114812" stop-color="#B39257"/>
<stop offset="0.814205" stop-color="#DEC79F"/>
</linearGradient>
<linearGradient id="paint2_linear_1302_10480" x1="31.7856" y1="80.2529" x2="80.3956" y2="11.2178" gradientUnits="userSpaceOnUse">
<stop offset="0.114812" stop-color="#B39257"/>
<stop offset="0.814205" stop-color="#DEC79F"/>
</linearGradient>
</defs>
</svg>
