<?xml version="1.0" encoding="UTF-8"?>
<svg width="46px" height="40px" viewBox="0 0 46 40" version="1.1" xmlns="http://www.w3.org/2000/svg" xmlns:xlink="http://www.w3.org/1999/xlink">
    <!-- Generator: Sketch 59.1 (86144) - https://sketch.com -->
    <title>Group 8</title>
    <desc>Created with Sketch.</desc>
    <defs>
        <polygon id="path-1" points="0.0002 0 45.173 0 45.173 39.9997 0.0002 39.9997"></polygon>
    </defs>
    <g id="Symbols" stroke="none" stroke-width="1" fill="none" fill-rule="evenodd">
        <g id="Group-8">
            <g>
                <path d="M23.5322,12.3379 C20.2982,12.3379 18.7042,13.0409 18.0482,10.3689 C17.3912,7.6969 16.6342,2.2599 23.9502,1.4629 C31.2662,0.6659 30.2352,8.4939 30.0012,9.2439 C29.7662,9.9939 28.5012,12.7279 27.8442,12.7669 C27.1882,12.8069 23.5322,12.3379 23.5322,12.3379" id="Fill-1" fill="#C7DAF0"></path>
                <g id="Group-5">
                    <mask id="mask-2" fill="white">
                        <use xlink:href="#path-1"></use>
                    </mask>
                    <g id="Clip-4"></g>
                    <path d="M42.5742,23.3267 L40.4982,23.3267 C39.9952,23.3267 39.5702,23.7007 39.5062,24.2007 C39.0012,28.1567 36.4172,31.6237 32.7612,33.2497 C32.4002,33.4107 32.1682,33.7687 32.1682,34.1637 L32.1682,37.6887 C32.1682,37.8607 32.0282,37.9997 31.8562,37.9997 L27.5192,37.9997 C27.3472,37.9997 27.2082,37.8607 27.2082,37.6887 L27.2082,35.2377 C27.2082,34.6857 26.6672,34.2377 26.1142,34.2377 L20.4702,34.2377 C19.9182,34.2377 19.4702,34.6857 19.4702,35.2377 L19.4702,37.6887 C19.4702,37.8607 19.3312,37.9997 19.1592,37.9997 L14.8212,37.9997 C14.6492,37.9997 14.5102,37.8607 14.5102,37.6887 L14.5102,34.6737 C14.5102,34.2427 14.2342,33.8607 13.8252,33.7247 C10.2022,32.5197 7.2952,29.5657 6.2382,26.0167 C6.2212,25.9577 6.1982,25.9017 6.1712,25.8477 L6.1232,25.7537 C5.9522,25.4187 5.6082,25.2077 5.2322,25.2077 L2.3112,25.2077 C2.1392,25.2077 2.0002,25.0687 2.0002,24.8967 L2.0002,20.5587 C2.0002,20.3877 2.1392,20.2477 2.3112,20.2477 L5.2532,20.2477 C5.6982,20.2477 6.0902,19.9527 6.2142,19.5247 C6.8872,17.1917 8.3262,15.0867 10.2622,13.5977 C10.6872,13.2707 10.7792,12.6667 10.4702,12.2287 C9.2852,10.5437 8.4972,8.4887 8.8802,8.0777 C8.9252,8.0297 9.0292,8.0087 9.1802,8.0237 C10.3742,8.1227 12.5852,9.8607 13.4282,11.1337 C14.2102,12.3147 15.5952,11.7817 16.3412,11.4947 C16.5552,11.4127 16.8022,11.3197 17.0082,11.2647 C17.1752,11.5977 17.3702,11.9117 17.5832,12.2167 C16.3072,12.4427 15.7852,12.7157 15.6072,12.8387 C15.1542,13.1537 15.0152,13.7927 15.3302,14.2467 C15.6432,14.7007 16.2392,14.8307 16.6962,14.5147 C16.7452,14.4887 17.9662,13.8607 22.8332,13.8607 C28.3012,13.8607 29.4922,14.5487 30.9082,16.1177 C31.1052,16.3357 31.3782,16.4477 31.6502,16.4477 C31.8892,16.4477 32.1292,16.3627 32.3202,16.1897 C32.7302,15.8197 32.7622,15.1877 32.3922,14.7777 C31.6052,13.9047 30.8182,13.2757 29.8462,12.8277 C30.1892,12.4277 30.4962,11.9937 30.7522,11.5337 C35.3132,12.6217 38.8602,16.4827 39.4942,21.1687 C39.4972,21.1917 39.5202,21.3087 39.5252,21.3317 C39.6222,21.7957 40.0312,22.1287 40.5052,22.1287 L42.5742,22.1287 C42.9042,22.1287 43.1732,22.3977 43.1732,22.7277 C43.1732,23.0577 42.9042,23.3267 42.5742,23.3267 M23.9502,1.9997 C27.1332,1.9997 29.7222,4.5897 29.7222,7.7727 C29.7222,8.5507 29.5702,9.3057 29.2702,10.0167 C28.9502,10.7757 28.4582,11.4717 27.8482,12.0297 C27.7992,12.0747 27.7722,12.1337 27.7332,12.1867 C26.4622,11.9517 24.8892,11.8607 22.8332,11.8607 C21.6972,11.8607 20.7432,11.8947 19.9282,11.9497 C19.9002,11.9137 19.8872,11.8717 19.8542,11.8387 C19.2882,11.2677 18.8542,10.6007 18.5652,9.8577 C18.3082,9.1917 18.1782,8.4897 18.1782,7.7727 C18.1782,4.5897 20.7672,1.9997 23.9502,1.9997 M42.5742,20.1287 L41.3482,20.1287 C40.3542,15.0697 36.4572,10.9507 31.4832,9.6537 C31.6362,9.0407 31.7222,8.4137 31.7222,7.7727 C31.7222,3.4867 28.2362,-0.0003 23.9502,-0.0003 C19.6642,-0.0003 16.1782,3.4867 16.1782,7.7727 C16.1782,8.3147 16.2392,8.8487 16.3482,9.3727 C16.0962,9.4487 15.8512,9.5397 15.6222,9.6287 C15.4262,9.7037 15.1532,9.8087 14.9742,9.8537 C13.8672,8.3077 11.3042,6.1937 9.3462,6.0307 C8.3602,5.9487 7.7512,6.3567 7.4172,6.7137 C5.9792,8.2547 7.3662,11.0647 8.3242,12.6067 C6.6042,14.1307 5.2852,16.0897 4.5232,18.2477 L2.3112,18.2477 C1.0372,18.2477 0.0002,19.2847 0.0002,20.5587 L0.0002,24.8967 C0.0002,26.1707 1.0372,27.2077 2.3112,27.2077 L4.5242,27.2077 C5.8252,30.8717 8.8042,33.9167 12.5102,35.3737 L12.5102,37.6887 C12.5102,38.9627 13.5472,39.9997 14.8212,39.9997 L19.1592,39.9997 C20.4332,39.9997 21.4702,38.9627 21.4702,37.6887 L21.4702,36.2377 L25.2082,36.2377 L25.2082,37.6887 C25.2082,38.9627 26.2452,39.9997 27.5192,39.9997 L31.8562,39.9997 C33.1312,39.9997 34.1682,38.9627 34.1682,37.6887 L34.1682,34.7957 C37.8792,32.9197 40.5512,29.3907 41.3482,25.3267 L42.5742,25.3267 C44.0072,25.3267 45.1732,24.1607 45.1732,22.7277 C45.1732,21.2947 44.0072,20.1287 42.5742,20.1287" id="Fill-3" fill="#1565C0" mask="url(#mask-2)"></path>
                </g>
                <path d="M11.5459,16.5557 C10.3769,16.5557 9.4289,17.5027 9.4289,18.6717 C9.4289,19.8407 10.3769,20.7877 11.5459,20.7877 C12.7139,20.7877 13.6619,19.8407 13.6619,18.6717 C13.6619,17.5027 12.7139,16.5557 11.5459,16.5557" id="Fill-6" fill="#1565C0"></path>
            </g>
        </g>
    </g>
</svg>