<?xml version="1.0" encoding="UTF-8"?>
<svg width="47px" height="44px" viewBox="0 0 47 44" version="1.1" xmlns="http://www.w3.org/2000/svg" xmlns:xlink="http://www.w3.org/1999/xlink">
    <!-- Generator: Sketch 59.1 (86144) - https://sketch.com -->
    <title>Group 14</title>
    <desc>Created with Sketch.</desc>
    <defs>
        <polygon id="path-1" points="0 0.999109758 46.915 0.999109758 46.915 45 0 45"></polygon>
    </defs>
    <g id="Symbols" stroke="none" stroke-width="1" fill="none" fill-rule="evenodd">
        <g id="Group-14" transform="translate(0.000000, -1.000000)">
            <g>
                <path d="M17.2264,42.2763 C17.2264,42.2763 15.8094,42.2003 12.1114,41.2073 C8.4134,40.2133 0.7704,37.0823 1.0034,36.2633 C1.2374,35.4443 3.1004,29.9633 3.9134,29.9013 C4.7254,29.8383 7.0354,27.7433 7.0384,26.3643 C7.0404,24.9853 5.7014,25.1823 6.0564,22.6673 C6.4134,20.1513 13.6634,1.5263 14.4134,1.6513 C15.1634,1.7763 26.7254,7.0263 26.7254,7.0263 L15.2564,19.6513 C15.2564,19.6513 16.6314,22.6513 14.9754,23.9323 C13.3194,25.2143 10.2024,23.9953 10.2024,23.9953 L5.7564,29.8703 L17.2264,42.2763 Z" id="Fill-1" fill="#C7DAF0"></path>
                <g id="Group-5" transform="translate(0.000000, 0.000900)">
                    <mask id="mask-2" fill="white">
                        <use xlink:href="#path-1"></use>
                    </mask>
                    <g id="Clip-4"></g>
                    <path d="M44.8934,17.895 L29.5334,33.255 C28.0414,32.377 25.9774,32.615 24.7194,33.873 C23.4164,35.175 23.2114,37.166 24.1024,38.685 L19.8094,42.979 C19.7824,43.004 19.7234,43.005 19.6984,42.978 L6.3184,29.599 C6.2894,29.57 6.2894,29.515 6.3184,29.487 L10.6104,25.194 C12.1014,26.073 14.1674,25.834 15.4234,24.577 C16.7264,23.274 16.9314,21.284 16.0404,19.765 L31.4034,4.403 C31.4284,4.377 31.4884,4.377 31.5134,4.403 L38.3254,11.216 L38.3264,11.217 L44.8934,17.783 C44.9224,17.812 44.9224,17.866 44.8934,17.895 M2.0044,36.242 L4.1484,30.561 C4.2904,30.577 4.4344,30.571 4.5784,30.571 C4.6674,30.728 4.7704,30.878 4.9044,31.012 L15.1904,41.299 L2.0504,36.343 C2.0124,36.329 1.9904,36.28 2.0044,36.242 M6.8574,23.378 L14.5244,3.051 C14.5244,3.05 14.6254,3.005 14.6254,3.005 L25.7694,7.208 L14.0094,18.967 C13.6194,19.358 13.6194,19.991 14.0094,20.381 C14.7764,21.148 14.7764,22.396 14.0094,23.163 C13.2674,23.906 11.9704,23.906 11.2284,23.163 C11.0404,22.975 10.7874,22.87 10.5214,22.87 C10.2554,22.87 10.0014,22.975 9.8144,23.163 L8.1164,24.861 C7.8264,24.276 7.3974,23.762 6.8574,23.378 M46.3074,16.369 L32.9274,2.989 C32.1414,2.205 30.7684,2.207 29.9884,2.989 L27.3214,5.656 L15.3314,1.134 C14.8124,0.937 14.2474,0.957 13.7414,1.186 C13.2344,1.415 12.8484,1.827 12.6534,2.345 L4.6784,23.487 C4.4834,24.004 4.7444,24.581 5.2604,24.776 C5.9824,25.048 6.4464,25.724 6.5024,26.474 L4.9034,28.073 C4.7534,28.223 4.6424,28.393 4.5484,28.57 C4.3194,28.568 4.0914,28.539 3.8734,28.456 C3.6244,28.362 3.3494,28.371 3.1084,28.48 C2.8674,28.59 2.6784,28.791 2.5844,29.039 L0.1334,35.537 C-0.2706,36.609 0.2734,37.811 1.3454,38.214 L19.0504,44.892 C19.1094,44.914 19.1674,44.914 19.2264,44.924 C19.3974,44.969 19.5724,45 19.7534,45 C20.3104,45 20.8324,44.784 21.2234,44.393 L26.1334,39.482 C26.5244,39.092 26.5244,38.459 26.1334,38.068 C25.3674,37.301 25.3674,36.054 26.1334,35.287 C26.8784,34.544 28.1734,34.545 28.9144,35.287 C29.1024,35.475 29.3564,35.58 29.6224,35.58 C29.8874,35.58 30.1414,35.475 30.3294,35.287 L46.3074,19.309 C47.1184,18.499 47.1184,17.18 46.3074,16.369" id="Fill-3" fill="#1565C0" mask="url(#mask-2)"></path>
                </g>
                <path d="M17.702,25.4257 C17.311,25.0347 16.679,25.0347 16.288,25.4257 C15.897,25.8167 15.897,26.4487 16.288,26.8397 L16.752,27.3037 C16.947,27.4987 17.203,27.5967 17.459,27.5967 C17.715,27.5967 17.971,27.4987 18.166,27.3037 C18.556,26.9127 18.556,26.2797 18.166,25.8897 L17.702,25.4257 Z" id="Fill-6" fill="#1565C0"></path>
                <path d="M20.3212,28.0448 C19.9302,27.6538 19.2982,27.6538 18.9072,28.0448 C18.5162,28.4358 18.5162,29.0678 18.9072,29.4588 L19.3712,29.9228 C19.5662,30.1178 19.8222,30.2158 20.0782,30.2158 C20.3342,30.2158 20.5902,30.1178 20.7852,29.9228 C21.1752,29.5318 21.1752,28.8988 20.7852,28.5088 L20.3212,28.0448 Z" id="Fill-8" fill="#1565C0"></path>
                <path d="M23.0399,30.7641 C22.6489,30.3731 22.0169,30.3731 21.6259,30.7641 C21.2349,31.1551 21.2349,31.7871 21.6259,32.1781 L22.0899,32.6421 C22.2849,32.8371 22.5409,32.9351 22.7969,32.9351 C23.0529,32.9351 23.3089,32.8371 23.5039,32.6421 C23.8939,32.2511 23.8939,31.6181 23.5039,31.2281 L23.0399,30.7641 Z" id="Fill-10" fill="#1565C0"></path>
                <path d="M30.9843,16.2836 L30.9843,12.6026 C30.9843,12.0466 30.5353,11.5986 29.9803,11.5986 C29.4233,11.5986 28.9753,12.0466 28.9753,12.6026 L28.9753,16.2836 L24.0213,19.3806 C23.7723,19.5356 23.6213,19.8076 23.6213,20.1016 L23.6213,20.9696 L28.9753,19.2956 L28.9753,22.9766 L27.9773,23.7256 C27.7633,23.8866 27.6373,24.1376 27.6363,24.4056 L27.6363,24.9846 L29.9803,24.3156 L32.3223,24.9846 L32.3223,24.4066 C32.3223,24.1376 32.1963,23.8866 31.9823,23.7256 L30.9833,22.9766 L30.9833,19.2956 L36.3383,20.9686 L36.3383,20.1016 C36.3383,19.8086 36.1873,19.5356 35.9383,19.3806 L30.9843,16.2836 Z" id="Fill-12" fill="#1565C0"></path>
            </g>
        </g>
    </g>
</svg>