<?xml version="1.0" encoding="UTF-8"?>
<svg width="42px" height="42px" viewBox="0 0 42 42" version="1.1" xmlns="http://www.w3.org/2000/svg" xmlns:xlink="http://www.w3.org/1999/xlink">
    <!-- Generator: Sketch 59.1 (86144) - https://sketch.com -->
    <title>Group 25</title>
    <desc>Created with Sketch.</desc>
    <g id="Symbols" stroke="none" stroke-width="1" fill="none" fill-rule="evenodd">
        <g id="Group-25">
            <g>
                <path d="M37.2158,21 C37.2158,29.956 29.9558,37.215 20.9998,37.215 C12.0448,37.215 4.7848,29.956 4.7848,21 C4.7848,12.044 12.0448,4.785 20.9998,4.785 C29.9558,4.785 37.2158,12.044 37.2158,21" id="Fill-1" fill="#C7DAF0"></path>
                <path d="M37.8848,17.5142 C37.7748,16.9732 37.2488,16.6232 36.7038,16.7352 C36.1628,16.8462 35.8148,17.3742 35.9258,17.9152 C36.0208,18.3792 36.0948,18.8472 36.1458,19.3062 C36.2018,19.8182 36.6358,20.1962 37.1388,20.1962 C37.1748,20.1962 37.2128,20.1942 37.2498,20.1892 C37.7988,20.1292 38.1948,19.6342 38.1338,19.0852 C38.0758,18.5662 37.9918,18.0372 37.8848,17.5142" id="Fill-3" fill="#1565C0"></path>
                <path d="M32.4971,31.0132 C31.8611,31.7432 31.1511,32.4162 30.3881,33.0142 C29.9521,33.3552 29.8761,33.9832 30.2171,34.4182 C30.4141,34.6702 30.7081,34.8022 31.0051,34.8022 C31.2201,34.8022 31.4371,34.7322 31.6201,34.5892 C32.4831,33.9132 33.2861,33.1522 34.0051,32.3272 C34.3681,31.9112 34.3241,31.2792 33.9081,30.9162 C33.4941,30.5552 32.8621,30.5972 32.4971,31.0132" id="Fill-5" fill="#1565C0"></path>
                <path d="M18.5098,36.0356 C17.5538,35.8776 16.6088,35.6266 15.7008,35.2886 C15.1848,35.0966 14.6088,35.3596 14.4148,35.8776 C14.2228,36.3946 14.4868,36.9706 15.0038,37.1626 C16.0308,37.5456 17.1008,37.8296 18.1838,38.0096 C18.2388,38.0176 18.2938,38.0226 18.3478,38.0226 C18.8278,38.0226 19.2518,37.6756 19.3328,37.1856 C19.4238,36.6406 19.0548,36.1256 18.5098,36.0356" id="Fill-7" fill="#1565C0"></path>
                <path d="M26.1582,35.3486 C25.2472,35.6756 24.3002,35.9166 23.3432,36.0636 C22.7972,36.1466 22.4222,36.6576 22.5062,37.2036 C22.5822,37.6986 23.0082,38.0516 23.4932,38.0516 C23.5432,38.0516 23.5952,38.0476 23.6452,38.0396 C24.7292,37.8736 25.8022,37.6016 26.8342,37.2316 C27.3532,37.0446 27.6242,36.4726 27.4372,35.9526 C27.2512,35.4316 26.6762,35.1626 26.1582,35.3486" id="Fill-9" fill="#1565C0"></path>
                <path d="M9.4141,30.8784 C9.0551,30.4584 8.4241,30.4074 8.0041,30.7654 C7.5841,31.1234 7.5331,31.7544 7.8911,32.1754 C8.6021,33.0104 9.3951,33.7804 10.2501,34.4644 C10.4351,34.6124 10.6551,34.6844 10.8741,34.6844 C11.1671,34.6844 11.4581,34.5564 11.6551,34.3094 C12.0011,33.8784 11.9321,33.2494 11.5001,32.9044 C10.7451,32.2984 10.0431,31.6174 9.4141,30.8784" id="Fill-11" fill="#1565C0"></path>
                <path d="M37.1016,23.3652 C36.5566,23.2502 36.0306,23.5992 35.9186,24.1402 C35.7206,25.0882 35.4296,26.0222 35.0536,26.9142 C34.8396,27.4232 35.0786,28.0102 35.5876,28.2232 C35.7136,28.2772 35.8456,28.3022 35.9756,28.3022 C36.3656,28.3022 36.7366,28.0732 36.8976,27.6902 C37.3236,26.6792 37.6526,25.6222 37.8756,24.5482 C37.9896,24.0082 37.6426,23.4782 37.1016,23.3652" id="Fill-13" fill="#1565C0"></path>
                <path d="M6.4297,25.4092 C6.2707,24.8802 5.7157,24.5812 5.1847,24.7392 C4.6557,24.8982 4.3557,25.4552 4.5137,25.9842 C4.6667,26.4942 4.8447,27.0002 5.0427,27.4882 C5.2007,27.8762 5.5757,28.1122 5.9697,28.1122 C6.0957,28.1122 6.2227,28.0882 6.3457,28.0372 C6.8577,27.8302 7.1047,27.2462 6.8967,26.7352 C6.7217,26.3052 6.5647,25.8592 6.4297,25.4092" id="Fill-15" fill="#1565C0"></path>
                <path d="M21.0127,3.7847 C11.5137,3.7847 3.7847,11.5127 3.7847,21.0127 C3.7847,21.5647 4.2327,22.0127 4.7847,22.0127 C5.3377,22.0127 5.7847,21.5647 5.7847,21.0127 C5.7847,12.6157 12.6167,5.7847 21.0127,5.7847 C24.8127,5.7847 28.4187,7.1857 31.1977,9.6897 L28.9417,9.6897 C28.3887,9.6897 27.9417,10.1377 27.9417,10.6897 C27.9417,11.2427 28.3887,11.6897 28.9417,11.6897 L33.5337,11.6897 C33.9207,11.6897 34.2737,11.4667 34.4387,11.1167 C34.6037,10.7657 34.5517,10.3517 34.3057,10.0537 C31.0187,6.0697 26.1737,3.7847 21.0127,3.7847" id="Fill-17" fill="#1565C0"></path>
                <path d="M21,40 C10.523,40 2,31.477 2,21 C2,10.523 10.523,2 21,2 C31.477,2 40,10.523 40,21 C40,31.477 31.477,40 21,40 M21,0 C9.421,0 0,9.42 0,21 C0,32.58 9.421,42 21,42 C32.579,42 42,32.58 42,21 C42,9.42 32.579,0 21,0" id="Fill-19" fill="#1565C0"></path>
                <path d="M18.8906,24.5913 L15.8496,24.5913 C16.8166,23.1313 18.2246,20.9373 19.1056,19.2693 C19.9786,17.6173 20.1016,16.2483 19.4706,15.2023 C18.9266,14.2993 17.8526,13.7813 16.5236,13.7813 C13.7126,13.7813 12.9706,16.6213 12.9706,18.1223 C12.9706,18.6733 13.4156,19.1183 13.9666,19.1203 L13.9706,19.1203 C14.5196,19.1203 14.9666,18.6753 14.9706,18.1263 C14.9716,18.0303 15.0066,15.7813 16.5236,15.7813 C17.1256,15.7813 17.5866,15.9513 17.7576,16.2343 C17.9916,16.6213 17.8376,17.3873 17.3376,18.3353 C15.9766,20.9103 13.1756,24.9833 13.1476,25.0243 C12.9366,25.3303 12.9126,25.7273 13.0856,26.0563 C13.2576,26.3853 13.5996,26.5913 13.9706,26.5913 L18.8906,26.5913 C19.4436,26.5913 19.8906,26.1433 19.8906,25.5913 C19.8906,25.0393 19.4436,24.5913 18.8906,24.5913" id="Fill-21" fill="#1565C0"></path>
                <path d="M27.0127,21.5513 C26.4597,21.5513 26.0127,21.9993 26.0127,22.5513 L26.0127,24.4413 L23.7347,24.4413 L27.5267,15.1593 C27.7357,14.6483 27.4907,14.0653 26.9787,13.8563 C26.4667,13.6463 25.8837,13.8923 25.6747,14.4043 L21.3207,25.0633 C21.1947,25.3713 21.2307,25.7223 21.4157,25.9993 C21.6017,26.2753 21.9127,26.4413 22.2457,26.4413 L26.0127,26.4413 L26.0127,28.7813 C26.0127,29.3343 26.4597,29.7813 27.0127,29.7813 C27.5657,29.7813 28.0127,29.3343 28.0127,28.7813 L28.0127,22.5513 C28.0127,21.9993 27.5657,21.5513 27.0127,21.5513" id="Fill-23" fill="#1565C0"></path>
            </g>
        </g>
    </g>
</svg>