<?xml version="1.0" encoding="UTF-8"?>
<svg width="39px" height="44px" viewBox="0 0 39 44" version="1.1" xmlns="http://www.w3.org/2000/svg" xmlns:xlink="http://www.w3.org/1999/xlink">
    <!-- Generator: Sketch 59.1 (86144) - https://sketch.com -->
    <title>Group 6</title>
    <desc>Created with Sketch.</desc>
    <defs>
        <polygon id="path-1" points="0 0.0003 38.0859 0.0003 38.0859 44 0 44"></polygon>
    </defs>
    <g id="Symbols" stroke="none" stroke-width="1" fill="none" fill-rule="evenodd">
        <g id="Group-6">
            <g>
                <path d="M12.5518,8.5396 C12.5518,8.5396 16.6138,20.3026 30.0518,22.1016 C30.1768,17.5876 30.6138,10.9006 24.6148,8.0876 C18.6138,5.2756 13.0518,7.6156 12.5518,8.5396" id="Fill-1" fill="#C7DAF0"></path>
                <g id="Group-5">
                    <mask id="mask-2" fill="white">
                        <use xlink:href="#path-1"></use>
                    </mask>
                    <g id="Clip-4"></g>
                    <path d="M36.0859,27.4463 C36.0859,27.9703 35.6599,28.3973 35.1359,28.3973 L34.9399,28.3973 C34.8699,28.3973 34.8089,28.3723 34.7419,28.3573 C34.7279,28.3523 34.7169,28.3403 34.7009,28.3363 C34.6669,28.3263 34.6329,28.3343 34.5989,28.3283 C34.2439,28.1903 33.9889,27.8493 33.9889,27.4463 L33.9889,20.8953 C33.9889,20.3713 34.4159,19.9453 34.9399,19.9453 L35.1359,19.9453 C35.6599,19.9453 36.0859,20.3713 36.0859,20.8953 L36.0859,27.4463 Z M15.2479,11.9833 C15.2049,11.9073 15.1609,11.8363 15.0999,11.7723 C14.2679,10.5773 13.7009,9.5433 13.3759,8.8873 C15.0119,7.8293 16.9539,7.2073 19.0429,7.2073 C24.8129,7.2073 29.5069,11.9013 29.5069,17.6713 L29.5069,20.8963 C22.1869,19.9023 17.6589,15.3683 15.2479,11.9833 L15.2479,11.9833 Z M8.6089,17.0663 C8.7659,14.3543 9.9519,11.9173 11.7919,10.1443 C12.1239,10.7623 12.5989,11.5733 13.2269,12.4933 C11.9099,14.7753 9.9379,16.2623 8.6089,17.0663 L8.6089,17.0663 Z M4.0979,27.4463 C4.0979,27.9703 3.6709,28.3973 3.1469,28.3973 L2.9509,28.3973 C2.4269,28.3973 1.9999,27.9703 1.9999,27.4463 L1.9999,20.8953 C1.9999,20.3713 2.4269,19.9453 2.9509,19.9453 L3.1469,19.9453 C3.6709,19.9453 4.0979,20.3713 4.0979,20.8953 L4.0979,27.4463 Z M36.0379,18.1003 L36.0379,16.9943 C36.0379,7.6233 28.4139,0.0003 19.0429,0.0003 C9.6729,0.0003 2.0489,7.6233 2.0489,16.9943 L2.0489,18.1003 C0.8649,18.4853 -0.0001,19.5853 -0.0001,20.8953 L-0.0001,27.4463 C-0.0001,29.0733 1.3239,30.3973 2.9509,30.3973 L3.1469,30.3973 C4.7739,30.3973 6.0979,29.0733 6.0979,27.4463 L6.0979,20.8953 C6.0979,19.5853 5.2329,18.4853 4.0489,18.1003 L4.0489,16.9943 C4.0489,8.7263 10.7749,2.0003 19.0429,2.0003 C27.3119,2.0003 34.0379,8.7263 34.0379,16.9943 L34.0379,18.1003 C32.8539,18.4853 31.9889,19.5853 31.9889,20.8953 L31.9889,21.0883 C31.8279,21.0843 31.6659,21.0813 31.5069,21.0743 L31.5069,17.6713 C31.5069,10.7993 25.9159,5.2073 19.0429,5.2073 C16.2129,5.2073 13.6069,6.1663 11.5139,7.7623 C11.4729,7.7943 11.4259,7.8173 11.3909,7.8543 C8.4689,10.1373 6.5789,13.6843 6.5789,17.6713 L6.5789,26.3283 C6.5789,31.5143 9.8449,36.2113 14.7059,38.0163 C14.8199,38.0583 14.9379,38.0793 15.0539,38.0793 C15.4599,38.0793 15.8419,37.8293 15.9909,37.4263 C16.1839,36.9083 15.9199,36.3333 15.4009,36.1413 C11.3209,34.6263 8.5789,30.6823 8.5789,26.3283 L8.5789,19.3723 C9.8039,18.7623 12.5539,17.1463 14.5059,14.2213 C17.3649,17.7853 22.2039,21.9883 29.5069,22.9113 L29.5069,26.3283 C29.5069,30.6043 26.9479,34.4103 22.9879,36.0233 C22.4769,36.2313 22.2309,36.8153 22.4399,37.3263 C22.6469,37.8383 23.2339,38.0833 23.7419,37.8753 C28.4589,35.9543 31.5069,31.4213 31.5069,26.3283 L31.5069,23.0733 C31.6659,23.0803 31.8279,23.0843 31.9889,23.0873 L31.9889,27.4463 C31.9889,28.4233 32.4719,29.2843 33.2049,29.8213 C31.4619,34.8543 27.1739,38.5843 21.9539,39.6103 C21.4629,38.5443 20.3909,37.7983 19.1419,37.7983 C17.4319,37.7983 16.0409,39.1893 16.0409,40.8993 C16.0409,42.6093 17.4319,44.0003 19.1419,44.0003 C20.6079,44.0003 21.8339,42.9743 22.1539,41.6043 C28.1829,40.4883 33.1409,36.2003 35.1199,30.3973 L35.1359,30.3973 C36.7629,30.3973 38.0859,29.0733 38.0859,27.4463 L38.0859,20.8953 C38.0859,19.5853 37.2219,18.4853 36.0379,18.1003 L36.0379,18.1003 Z" id="Fill-3" fill="#1565C0" mask="url(#mask-2)"></path>
                </g>
            </g>
        </g>
    </g>
</svg>