<?xml version="1.0" encoding="UTF-8"?>
<svg width="35px" height="42px" viewBox="0 0 35 42" version="1.1" xmlns="http://www.w3.org/2000/svg" xmlns:xlink="http://www.w3.org/1999/xlink">
    <!-- Generator: Sketch 59.1 (86144) - https://sketch.com -->
    <title>Group 8</title>
    <desc>Created with Sketch.</desc>
    <defs>
        <polygon id="path-1" points="0 0.00035 34.7266 0.00035 34.7266 41.9996 0 41.9996"></polygon>
    </defs>
    <g id="Symbols" stroke="none" stroke-width="1" fill="none" fill-rule="evenodd">
        <g id="Group-8">
            <g>
                <path d="M3.9307,30.3286 L28.2147,6.0446 L33.7267,8.2726 L33.3827,23.0696 L29.4827,32.4336 C29.4827,32.4336 24.2357,40.9176 17.3637,40.9999392 C12.6477,41.0566 6.2487,33.9156 3.9307,30.3286" id="Fill-1" fill="#C7DAF0"></path>
                <g id="Group-5">
                    <mask id="mask-2" fill="white">
                        <use xlink:href="#path-1"></use>
                    </mask>
                    <g id="Clip-4"></g>
                    <path d="M32.7266,19.1816 C32.7266,28.8076 26.1386,37.6966 17.3636,39.9686 C8.5876,37.6966 1.9996,28.8076 1.9996,19.1816 L1.9996,8.9226 L17.3636,2.0946 L32.7266,8.9226 L32.7266,19.1816 Z M34.1326,7.3586 L17.7696,0.0866 C17.5096,-0.0284 17.2166,-0.0284 16.9566,0.0866 L0.5936,7.3586 C0.2326,7.5186 -0.0004,7.8776 -0.0004,8.2726 L-0.0004,19.1816 C-0.0004,29.7896 7.3626,39.5876 17.1256,41.9716 C17.2046,41.9906 17.2836,41.9996 17.3636,41.9996 C17.4436,41.9996 17.5226,41.9906 17.6006,41.9716 C27.3646,39.5876 34.7266,29.7896 34.7266,19.1816 L34.7266,8.2726 C34.7266,7.8776 34.4946,7.5186 34.1326,7.3586 L34.1326,7.3586 Z" id="Fill-3" fill="#1565C0" mask="url(#mask-2)"></path>
                </g>
                <path d="M8.4521,20.8203 C8.0611,20.4293 7.4291,20.4293 7.0381,20.8203 C6.6471,21.2113 6.6471,21.8433 7.0381,22.2343 L12.9471,28.1433 C13.1421,28.3393 13.3981,28.4363 13.6541,28.4363 C13.9101,28.4363 14.1661,28.3393 14.3611,28.1433 L27.6211,14.8833 C28.0121,14.4933 28.0121,13.8603 27.6211,13.4693 C27.2301,13.0793 26.5981,13.0793 26.2071,13.4693 L13.6541,26.0223 L8.4521,20.8203 Z" id="Fill-6" fill="#1565C0"></path>
            </g>
        </g>
    </g>
</svg>