<?xml version="1.0" encoding="UTF-8"?>
<svg width="207px" height="32px" viewBox="0 0 207 32" version="1.1" xmlns="http://www.w3.org/2000/svg" xmlns:xlink="http://www.w3.org/1999/xlink">
    <!-- Generator: Sketch 59.1 (86144) - https://sketch.com -->
    <title>British logo</title>
    <desc>Created with Sketch.</desc>
    <g id="Page-1" stroke="none" stroke-width="1" fill="none" fill-rule="evenodd">
        <g id="Desktop-HD" transform="translate(-260.000000, -3859.000000)">
            <g id="British-logo" transform="translate(260.000000, 3859.000000)">
                <path d="M57.011531,17.3175172 C57.9980138,17.3175172 59.4170483,17.4554483 60.3174621,17.8703448 L60.3174621,17.8703448 L60.4730483,20.4844138 C59.9191172,19.3246897 58.5342897,18.4937931 57.2531862,18.4937931 C56.2324966,18.4937931 55.1764966,18.9958621 55.1764966,20.1555862 C55.1764966,22.9241379 61.5632552,23.6005517 61.5632552,27.6325517 C61.5632552,30.5577931 59.0010483,31.7682759 56.4222897,31.7682759 C55.0727724,31.7682759 53.2377379,31.510069 52.095669,30.729931 C52.0272552,30.2631724 51.9919448,29.7787586 51.9919448,29.2943448 C51.9919448,28.7227586 52.0438069,28.1522759 52.1309793,27.5806897 C52.8393931,29.2071724 54.3113931,30.4706207 56.1453241,30.4706207 C57.5478069,30.4706207 58.5861517,29.8648276 58.5861517,28.342069 C58.5861517,25.6761379 52.3031172,25.0714483 52.3031172,20.8132414 C52.3031172,18.1826207 54.8123586,17.3175172 57.011531,17.3175172 Z M159.597241,17.3175172 C160.583724,17.3175172 162.002759,17.4554483 162.903172,17.8703448 L162.903172,17.8703448 L163.058759,20.4844138 C162.504828,19.3246897 161.12,18.4937931 159.838897,18.4937931 C158.818207,18.4937931 157.762207,18.9958621 157.762207,20.1555862 C157.762207,22.9241379 164.148966,23.6005517 164.148966,27.6325517 C164.148966,30.5577931 161.604414,31.7682759 159.008,31.7682759 C157.658483,31.7682759 155.823448,31.510069 154.681379,30.729931 C154.612966,30.2631724 154.577655,29.7787586 154.577655,29.2943448 C154.577655,28.7227586 154.629517,28.1522759 154.715586,27.5806897 C155.426207,29.2071724 156.897103,30.4706207 158.731034,30.4706207 C160.133517,30.4706207 161.171862,29.8648276 161.171862,28.342069 C161.171862,25.6761379 154.888828,25.0714483 154.888828,20.8132414 C154.888828,18.1826207 157.399172,17.3175172 159.597241,17.3175172 Z M17.7748966,17.5074207 C19.9729655,17.5074207 22.7249655,18.3559724 22.7249655,21.0031448 C22.7249655,23.218869 20.889931,24.3609379 18.8474483,24.3609379 C21.7561379,24.3785931 23.4686897,31.2144552 26.6885517,31.2321103 C25.8234483,31.4914207 24.9230345,31.5962483 24.0226207,31.5962483 C23.4863448,31.5962483 22.8982069,31.6128 22.3784828,31.4572138 C21.4273103,31.1802483 20.1108966,29.0340414 19.5922759,28.1865931 C18.7790345,26.8183172 18.0695172,24.9325241 16.2521379,24.914869 L16.2521379,24.914869 L16.2521379,30.2632828 C16.2521379,30.7300414 16.4595862,31.3016276 16.9097931,31.5090759 L16.9097931,31.5090759 L12.7034483,31.5090759 C13.1536552,31.2839724 13.3622069,30.7476966 13.3622069,30.2632828 L13.3622069,30.2632828 L13.3622069,18.770869 C13.3622069,18.2864552 13.1536552,17.7501793 12.7034483,17.5074207 L12.7034483,17.5074207 Z M107.968331,17.5074207 C110.1664,17.5074207 112.9184,18.3559724 112.9184,21.0031448 C112.9184,23.218869 110.911228,24.3609379 109.387366,24.3609379 C112.416331,24.5341793 114.23371,31.2321103 117.228469,31.2321103 C116.362262,31.4914207 115.462952,31.5962483 114.562538,31.5962483 C114.026262,31.5962483 113.437021,31.6128 112.9184,31.4572138 C111.966124,31.1802483 110.650814,29.0340414 110.132193,28.1865931 C109.317848,26.8183172 108.262952,24.914869 106.445572,24.914869 L106.445572,24.914869 L106.445572,30.2632828 C106.445572,30.7300414 106.653021,31.3016276 107.103228,31.5090759 L107.103228,31.5090759 L102.896883,31.5090759 C103.34709,31.2839724 103.555641,30.7476966 103.555641,30.2632828 L103.555641,30.2632828 L103.555641,18.770869 C103.555641,18.2864552 103.34709,17.7501793 102.896883,17.5074207 L102.896883,17.5074207 Z M139.121876,17.5069793 L143.829186,30.419531 C144.020083,30.9381517 144.436083,31.3188414 144.781462,31.5097379 L144.781462,31.5097379 L140.766014,31.5097379 C140.903945,31.3707034 141.026428,31.2669793 141.026428,31.0242207 C141.026428,30.9668414 141.002887,30.8859218 140.961692,30.7615183 L140.887393,30.5398069 C140.887393,30.5398069 139.745324,27.4071172 139.60629,27.0440828 C138.741186,26.9403586 137.841876,26.9403586 136.958014,26.9403586 C136.128221,26.9403586 135.279669,26.9569103 134.448772,27.0440828 C134.327393,27.3552552 133.099255,30.4702897 133.099255,30.4702897 C132.926014,30.8862897 132.874152,31.0418759 132.874152,31.1279448 C132.874152,31.3364966 133.047393,31.4402207 133.202979,31.5097379 L133.202979,31.5097379 L130.381462,31.5097379 C130.797462,31.3011862 131.160497,30.8686345 131.333738,30.4360828 L131.333738,30.4360828 L135.971531,18.4769103 C135.989186,18.4239448 136.006841,18.3731862 136.006841,18.303669 C136.006841,17.9748414 135.781738,17.663669 135.487117,17.5069793 L135.487117,17.5069793 L139.121876,17.5069793 Z M5.46857931,17.5077517 C7.9094069,17.5077517 10.2983724,18.5107862 10.2983724,21.2804414 C10.2983724,22.7513379 9.01726897,23.9110621 7.63244138,24.1703724 C9.62306207,24.1538207 11.5441655,25.3654069 11.5441655,27.5634759 C11.5441655,30.7127172 8.25588966,31.5094069 5.93644138,31.5094069 L5.93644138,31.5094069 L-0.000110344828,31.5094069 C0.450096552,31.2843034 0.640993103,30.7303724 0.640993103,30.2636138 L0.640993103,30.2636138 L0.640993103,18.7712 C0.640993103,18.2856828 0.450096552,17.7494069 -0.000110344828,17.5077517 L-0.000110344828,17.5077517 Z M89.9165793,17.5069793 L94.6238897,30.419531 C94.8147862,30.9381517 95.2307862,31.3188414 95.577269,31.5097379 L95.577269,31.5097379 L91.5607172,31.5097379 C91.6997517,31.3707034 91.8200276,31.2669793 91.8200276,31.0242207 C91.8200276,30.9381517 91.7858207,30.7991172 91.6820966,30.5398069 C91.6820966,30.5398069 90.5400276,27.4071172 90.4009931,27.0440828 C89.5358897,26.9403586 88.6365793,26.9403586 87.7538207,26.9403586 C86.9229241,26.9403586 86.0743724,26.9569103 85.2434759,27.0440828 C85.1220966,27.3552552 83.8939586,30.4702897 83.8939586,30.4702897 C83.7207172,30.8862897 83.6688552,31.0418759 83.6688552,31.1279448 C83.6688552,31.3364966 83.8420966,31.4402207 83.9976828,31.5097379 L83.9976828,31.5097379 L81.1761655,31.5097379 C81.5921655,31.3011862 81.9552,30.8686345 82.1284414,30.4360828 L82.1284414,30.4360828 L86.7673379,18.4769103 C86.7838897,18.4239448 86.8015448,18.3731862 86.8015448,18.303669 C86.8015448,17.9748414 86.5764414,17.663669 86.2829241,17.5069793 L86.2829241,17.5069793 L89.9165793,17.5069793 Z M31.2056276,17.5074207 C30.8414897,17.6806621 30.4961103,18.1297655 30.4961103,18.770869 L30.4961103,18.770869 L30.4961103,30.2632828 C30.4961103,30.886731 30.8414897,31.3534897 31.2056276,31.5090759 L31.2056276,31.5090759 L26.8955586,31.5090759 C27.2420414,31.3534897 27.6050759,30.886731 27.6050759,30.2632828 L27.6050759,30.2632828 L27.6050759,18.770869 C27.6050759,18.1297655 27.2420414,17.6806621 26.8955586,17.5074207 L26.8955586,17.5074207 Z M45.3806345,17.3176276 C44.9822897,18.3725241 43.8225655,19.1515586 43.1483586,19.1515586 C42.3340138,19.1339034 40.9844966,19.0820414 39.8247724,19.0820414 L39.8247724,19.0820414 L39.8247724,30.2632828 C39.8247724,30.7476966 40.067531,31.3016276 40.5166345,31.5090759 L40.5166345,31.5090759 L36.2418759,31.5090759 C36.7097379,31.3016276 36.9348414,30.7476966 36.9348414,30.2632828 L36.9348414,30.2632828 L36.9348414,19.1173517 L33.8363586,19.1173517 C33.1268414,19.1173517 32.2793931,19.2034207 31.6559448,19.5675586 L31.6559448,19.5675586 L32.6247724,17.5074207 L42.8879448,17.5074207 C43.7188414,17.5074207 44.5673931,17.4897655 45.3806345,17.3176276 Z M50.1921103,17.5074207 C49.8279724,17.6806621 49.4825931,18.1297655 49.4825931,18.770869 L49.4825931,18.770869 L49.4825931,30.2632828 C49.4825931,30.886731 49.8279724,31.3534897 50.1921103,31.5090759 L50.1921103,31.5090759 L45.8820414,31.5090759 C46.2285241,31.3534897 46.5915586,30.886731 46.5915586,30.2632828 L46.5915586,30.2632828 L46.5915586,18.770869 C46.5915586,18.1297655 46.2285241,17.6806621 45.8820414,17.5074207 L45.8820414,17.5074207 Z M67.3094621,17.5074207 C66.9971862,17.6630069 66.6860138,18.1297655 66.6860138,18.770869 L66.6860138,18.770869 L66.6860138,23.4781793 C67.4473931,23.5653517 68.4857379,23.5995586 69.6973241,23.5995586 C70.8747034,23.5995586 71.9130483,23.5476966 72.6744276,23.4781793 L72.6744276,23.4781793 L72.6744276,18.770869 C72.6744276,18.1297655 72.3456,17.6630069 72.0333241,17.5074207 L72.0333241,17.5074207 L76.1878069,17.5074207 C75.8766345,17.6630069 75.5643586,18.1297655 75.5643586,18.770869 L75.5643586,18.770869 L75.5643586,30.2632828 C75.5643586,30.886731 75.8766345,31.3534897 76.1878069,31.5090759 L76.1878069,31.5090759 L72.0333241,31.5090759 C72.3456,31.3700414 72.6744276,30.886731 72.6744276,30.2632828 L72.6744276,30.2632828 L72.6744276,25.0539034 C71.9130483,24.966731 70.8747034,24.9325241 69.6973241,24.9325241 C68.5033931,24.9325241 67.4473931,24.966731 66.6860138,25.0539034 L66.6860138,25.0539034 L66.6860138,30.2632828 C66.6860138,30.886731 66.9971862,31.3534897 67.3094621,31.5090759 L67.3094621,31.5090759 L63.1549793,31.5090759 C63.4672552,31.3700414 63.7960828,30.886731 63.7960828,30.2632828 L63.7960828,30.2632828 L63.7960828,18.770869 C63.7960828,18.1297655 63.4672552,17.6630069 63.1549793,17.5074207 L63.1549793,17.5074207 Z M143.829076,17.3341793 C145.179697,17.3341793 145.853903,17.4555586 146.685903,18.7532138 L146.685903,18.7532138 L149.350731,22.9772138 C149.575834,22.5612138 151.687834,18.8922483 151.687834,18.8922483 C151.947145,18.4420414 152.120386,18.1297655 152.120386,17.9752828 C152.120386,17.766731 152.033214,17.6453517 151.825766,17.5074207 L151.825766,17.5074207 L154.802869,17.5074207 C154.214731,17.7843862 153.730317,18.4243862 153.418041,18.9783172 L153.418041,18.9783172 L150.095559,24.7945931 L150.095559,30.2632828 C150.095559,30.7134897 150.285352,31.3016276 150.717903,31.5090759 L150.717903,31.5090759 L146.598731,31.5090759 C147.014731,31.2839724 147.205628,30.6958345 147.205628,30.2632828 L147.205628,30.2632828 L147.205628,24.7769379 L144.331145,20.1556966 C144.071834,19.7231448 142.860248,17.714869 141.407007,17.714869 C141.804248,17.5592828 143.016938,17.3341793 143.829076,17.3341793 Z M100.595752,17.5074207 C100.231614,17.6806621 99.8862345,18.1297655 99.8862345,18.770869 L99.8862345,18.770869 L99.8862345,30.2632828 C99.8862345,30.886731 100.231614,31.3534897 100.595752,31.5090759 L100.595752,31.5090759 L96.2856828,31.5090759 C96.6321655,31.3534897 96.9963034,30.886731 96.9963034,30.2632828 L96.9963034,30.2632828 L96.9963034,18.770869 C96.9963034,18.1297655 96.6321655,17.6806621 96.2856828,17.5074207 L96.2856828,17.5074207 Z M117.851255,17.5074207 C117.678014,17.6453517 117.556634,17.8020414 117.556634,18.0955586 C117.556634,18.2345931 117.626152,18.4243862 117.678014,18.5810759 L117.678014,18.5810759 L120.776497,26.9573517 L124.081324,17.5074207 L127.716083,26.610869 L130.468083,18.3725241 C130.5376,18.1485241 130.571807,18.0613517 130.571807,17.9223172 C130.571807,17.7501793 130.503393,17.6453517 130.330152,17.5074207 L130.330152,17.5074207 L133.064497,17.5074207 C132.562428,17.766731 132.199393,18.3559724 132.026152,18.8745931 L132.026152,18.8745931 L127.769048,31.5090759 C127.421462,31.5090759 127.076083,31.3876966 126.885186,31.2497655 C126.452634,30.8514207 125.794979,29.1554207 125.553324,28.5330759 L125.553324,28.5330759 L123.632221,23.6690759 L120.862566,31.5090759 L119.547255,31.5090759 L114.788083,18.8403862 C114.579531,18.3041103 114.234152,17.7843862 113.714428,17.5074207 L113.714428,17.5074207 Z M4.77782069,24.9328552 C4.37947586,24.9328552 4.01533793,24.9328552 3.53092414,24.9670621 L3.53092414,24.9670621 L3.53092414,30.141131 C4.13671724,30.2636138 4.79437241,30.2978207 5.40016552,30.2978207 C6.80264828,30.2978207 8.23823448,29.6754759 8.23823448,27.5281655 C8.23823448,25.417269 6.54223448,24.9328552 4.77782069,24.9328552 Z M137.114703,20.1729103 L134.985048,25.6239448 C135.626152,25.6934621 136.283807,25.7111172 136.923807,25.7111172 C137.650979,25.7111172 138.377048,25.7111172 139.087669,25.6239448 L139.087669,25.6239448 L137.114703,20.1729103 Z M87.9094069,20.1729103 L85.7808552,25.6239448 C86.4208552,25.6934621 87.0785103,25.7111172 87.7185103,25.7111172 C88.4456828,25.7111172 89.1728552,25.7111172 89.8823724,25.6239448 L89.8823724,25.6239448 L87.9094069,20.1729103 Z M4.43133793,18.7193379 C4.17092414,18.7193379 3.99768276,18.7193379 3.53092414,18.7712 L3.53092414,18.7712 L3.53092414,23.6694069 L4.08485517,23.6694069 C5.7632,23.6694069 7.39078621,23.1496828 7.39078621,21.2109241 C7.39078621,19.2721655 6.09202759,18.7193379 4.43133793,18.7193379 Z M16.9616552,18.7190069 C16.7188966,18.7190069 16.4948966,18.7532138 16.2521379,18.7885241 L16.2521379,18.7885241 L16.2521379,23.6337655 C16.4772414,23.6514207 16.6846897,23.6690759 16.9097931,23.6690759 C18.4844138,23.6690759 19.6441379,22.8039724 19.6441379,21.0903172 C19.6441379,19.3424552 18.502069,18.7190069 16.9616552,18.7190069 Z M107.15509,18.7190069 C106.912331,18.7190069 106.687228,18.7532138 106.445572,18.7885241 L106.445572,18.7885241 L106.445572,23.6337655 C106.669572,23.6514207 106.878124,23.6690759 107.103228,23.6690759 C108.677848,23.6690759 109.837572,22.8039724 109.837572,21.0903172 C109.837572,19.3424552 108.695503,18.7190069 107.15509,18.7190069 Z M178.814566,0.0868413793 C183.548359,-0.098537931 192.552497,-0.00584827586 194.593876,0.551393103 C196.636359,1.10863448 199.327669,1.3878069 201.370152,3.15332414 C203.410428,4.91663448 205.774014,8.72132414 206.425048,11.2294621 C206.429462,11.2349793 206.437186,11.2471172 206.440497,11.251531 C206.369876,11.251531 206.63691,12.1982897 206.011255,13.3734621 C204.512772,16.1839448 196.590014,19.5913931 192.413462,21.171531 C186.2176,19.9687724 181.307255,18.7119448 177.236634,17.6471172 C183.696221,15.5174621 190.802428,13.0766345 193.015945,12.1651862 C194.838841,11.4137379 198.879669,9.39111724 200.509462,7.91249655 C196.065876,7.38504828 191.383945,7.62008276 180.763255,7.70615172 C169.160497,7.79884138 154.495669,7.98422069 145.213462,7.05511724 C135.931255,6.12601379 127.669738,4.08132414 122.193324,2.31691034 C133.888772,1.85235862 174.080772,0.27222069 178.814566,0.0868413793 Z" id="Combined-Shape" fill="#424242"></path>
                <path d="M122,2.3168036 C133.695448,1.85225187 173.886345,0.273217391 178.620138,0.0867346326 C183.355034,-0.0986446777 192.358069,-0.00595502255 194.400552,0.551286357 C196.441931,1.10852774 199.133241,1.38770015 201.175724,3.15321739 C203.218207,4.91873463 205.584,8.72783808 206.232828,11.235976 C204.942897,9.48701049 203.326345,8.34825187 201.547586,8.07790705 C196.688,7.33749325 192.17269,7.61225187 180.569931,7.70604498 C168.967172,7.79873463 154.301241,7.98411394 145.019034,7.05501049 C135.736828,6.12701049 127.476414,4.08232084 122,2.3168036" id="Fill-1" fill="#757575"></path>
            </g>
        </g>
    </g>
</svg>