<?xml version="1.0" encoding="UTF-8"?>
<svg width="221px" height="32px" viewBox="0 0 221 32" version="1.1" xmlns="http://www.w3.org/2000/svg" xmlns:xlink="http://www.w3.org/1999/xlink">
    <!-- Generator: Sketch 59.1 (86144) - https://sketch.com -->
    <title>Group 7</title>
    <desc>Created with Sketch.</desc>
    <g id="Page-1" stroke="none" stroke-width="1" fill="none" fill-rule="evenodd">
        <g id="Desktop-HD" transform="translate(-814.000000, -3859.000000)">
            <g id="Group-7" transform="translate(814.000000, 3859.000000)">
                <path d="M214.649538,15.6504 C217.707385,15.6504 219.868,16.7057846 219.868,16.7057846 L219.868,20.0030154 L219.780615,19.9316308 C219.780615,19.9316308 218.488308,17.1347077 214.895077,17.1347077 C211.429846,17.1347077 209.229846,19.7002462 209.229846,23.6184 C209.229846,27.5408615 211.497538,29.6891692 214.770769,29.6891692 C218.387385,29.6891692 220.320308,26.5014769 220.320308,26.5014769 L220.453846,26.4153231 L219.253231,30.5027077 C219.253231,30.5027077 216.656923,31.3876308 214.428,31.3876308 C208.509231,31.3876308 205.640923,27.3205538 205.640923,23.6387077 C205.640923,19.0602462 209.118462,15.6504 214.649538,15.6504 Z M169.902462,15.6540923 C172.961538,15.6540923 175.116,16.7057846 175.116,16.7057846 L175.116,20.0030154 L175.029846,19.9316308 C175.029846,19.9316308 173.735692,17.1347077 170.149231,17.1347077 C166.680923,17.1347077 164.483385,19.7002462 164.483385,23.6184 C164.483385,27.5408615 166.746769,29.6891692 170.023692,29.6891692 C173.629846,29.6891692 175.572615,26.5014769 175.572615,26.5014769 L175.702462,26.4153231 L174.506154,30.5027077 C174.506154,30.5027077 171.908,31.3876308 169.675385,31.3876308 C163.762154,31.3876308 160.895077,27.3205538 160.895077,23.6387077 C160.895077,19.0602462 164.366462,15.6540923 169.902462,15.6540923 Z M43.4249231,15.6540923 C46.4907692,15.6540923 48.6427692,16.7057846 48.6427692,16.7057846 L48.6427692,16.7057846 L48.6427692,20.0030154 L48.5566154,19.9316308 C48.5566154,19.9316308 47.2649231,17.1347077 43.6723077,17.1347077 C40.2107692,17.1347077 38.0107692,19.7002462 38.0107692,23.6184 C38.0107692,27.5408615 40.2729231,29.6891692 43.5516923,29.6891692 C47.1584615,29.6891692 49.0975385,26.5014769 49.0975385,26.5014769 L49.0975385,26.5014769 L49.2304615,26.4153231 L48.0335385,30.5027077 C48.0335385,30.5027077 45.4329231,31.3876308 43.2015385,31.3876308 C37.2883077,31.3876308 34.4212308,27.3205538 34.4212308,23.6387077 C34.4212308,19.0602462 37.8938462,15.6540923 43.4249231,15.6540923 Z M0.394153846,0.615569231 C0.441538462,0.609415385 0.465538462,0.696184615 0.488307692,0.791569231 C0.496307692,0.824184615 0.493230769,0.8648 0.501846154,0.900492308 C0.517846154,0.9608 0.536307692,1.06233846 0.543692308,1.15710769 C0.547384615,1.22787692 0.570153846,1.30787692 0.570769231,1.35710769 C0.572615385,1.39095385 0.575692308,1.48449231 0.578769231,1.53187692 C0.582461538,1.56141538 0.599692308,1.62910769 0.613230769,1.67833846 C0.634769231,1.73433846 0.656307692,1.79156923 0.673538462,1.85187692 C0.696923077,1.93310769 0.678461538,2.0248 0.701230769,2.10849231 C0.721538462,2.17987692 0.748615385,2.27895385 0.757230769,2.32141538 C0.767076923,2.36326154 0.767076923,2.45003077 0.774461538,2.49310769 C0.78,2.53618462 0.82,2.68326154 0.831692308,2.75033846 C0.846461538,2.81556923 0.846461538,2.85556923 0.852,2.8888 C0.856923077,2.9208 0.903076923,3.05003077 0.909230769,3.07464615 C0.913538462,3.11156923 0.913538462,3.21310769 0.924,3.26910769 C0.934461538,3.32326154 1.02123077,3.62295385 1.03169231,3.6728 C1.04092308,3.72387692 1.03969231,3.80264615 1.05384615,3.87033846 C1.05753846,3.89269744 1.06239316,3.91184274 1.06777208,3.92934701 L1.10123077,4.02726154 C1.12769231,4.11403077 1.12953846,4.21003077 1.15107692,4.29126154 C1.17261538,4.37064615 1.16646154,4.44756923 1.18861538,4.52141538 C1.23415385,4.66356923 1.284,4.8408 1.31846154,4.97618462 C1.33323077,5.03649231 1.33507692,5.09556923 1.34861538,5.15833846 C1.38553846,5.27772308 1.42984615,5.39649231 1.46553846,5.51956923 C1.51476923,5.68941538 1.51907692,5.88326154 1.57138462,6.05064615 C1.61938462,6.20326154 1.66615385,6.36818462 1.70984615,6.51526154 C1.72523077,6.57618462 1.72646154,6.6408 1.74246154,6.70295385 C1.76830769,6.7848 1.80707692,6.85433846 1.83415385,6.93064615 C1.85015385,6.98972308 1.85569231,7.05187692 1.87538462,7.10849231 C1.90246154,7.17864615 1.93323077,7.24941538 1.956,7.32018462 L1.956,7.32018462 L1.996,7.50356923 C2.02307692,7.58110769 2.05015385,7.66910769 2.07784615,7.75033846 C2.09384615,7.79464615 2.09692308,7.84387692 2.11415385,7.88818462 C2.13323077,7.94295385 2.16153846,8.0008 2.18246154,8.05126154 C2.19723077,8.08449231 2.20707692,8.12141538 2.21630769,8.15526154 C2.236,8.20203077 2.25876923,8.25187692 2.27538462,8.29926154 C2.28461538,8.33249231 2.292,8.36756923 2.30430769,8.40203077 C2.33076923,8.46418462 2.36646154,8.52449231 2.39292308,8.58418462 C2.42184615,8.64264615 2.44030769,8.70726154 2.46061538,8.77249231 C2.47476923,8.82664615 2.47230769,8.87341538 2.49323077,8.91956923 C2.52215385,8.9688 2.55169231,9.01310769 2.57569231,9.06541538 C2.59476923,9.10726154 2.60092308,9.15033846 2.61630769,9.1928 L2.61630769,9.1928 L2.69446154,9.32264615 C2.71969231,9.3768 2.71046154,9.45064615 2.73015385,9.51403077 C2.74615385,9.55710769 2.77138462,9.60141538 2.78923077,9.64203077 C2.81876923,9.70849231 2.83969231,9.78541538 2.86492308,9.84941538 L2.86492308,9.84941538 L2.89446154,9.93803077 C2.92953846,10.0168 2.97261538,10.0894154 3.02,10.1558769 C3.04584615,10.1952615 3.09138462,10.2580308 3.13076923,10.2500308 C3.14861538,10.2438769 3.14984615,10.1755692 3.14184615,10.1466462 C3.11538462,10.0475692 3.11292308,9.94172308 3.07846154,9.85618462 C3.05446154,9.79587692 3.03169231,9.73187692 3.00276923,9.67341538 C2.988,9.6408 2.95969231,9.60633846 2.94492308,9.57495385 C2.92830769,9.52449231 2.908,9.47218462 2.88953846,9.42172308 C2.87169231,9.37803077 2.83846154,9.33310769 2.82123077,9.28633846 C2.80707692,9.22849231 2.80707692,9.16387692 2.78615385,9.10418462 C2.76461538,9.04633846 2.72892308,8.99587692 2.71169231,8.93187692 C2.69261538,8.87033846 2.70369231,8.7928 2.67907692,8.73556923 C2.652,8.68326154 2.60830769,8.62110769 2.59661538,8.58233846 C2.57938462,8.53741538 2.57323077,8.49556923 2.56153846,8.45433846 C2.54246154,8.4008 2.51723077,8.34418462 2.49692308,8.28941538 C2.468,8.20818462 2.46492308,8.12510769 2.43476923,8.04387692 C2.39723077,7.94356923 2.35661538,7.83464615 2.31969231,7.74295385 C2.29938462,7.68941538 2.29938462,7.63403077 2.27907692,7.57864615 C2.25261538,7.51341538 2.21630769,7.44818462 2.19353846,7.38233846 C2.17815385,7.32695385 2.16953846,7.27095385 2.15907692,7.21310769 C2.15046154,7.18172308 2.12769231,7.14849231 2.11538462,7.12018462 C2.09753846,7.06972308 2.10307692,7.01618462 2.08584615,6.96203077 C2.07538462,6.92633846 2.05569231,6.88387692 2.04830769,6.8488 C2.04092308,6.80326154 2.03476923,6.75772308 2.02307692,6.71033846 C1.99169231,6.61310769 1.95907692,6.5208 1.93076923,6.42356923 C1.91969231,6.38172308 1.91969231,6.34418462 1.91107692,6.29926154 C1.89076923,6.20572308 1.868,6.10603077 1.84092308,6.01433846 C1.83107692,5.96941538 1.83292308,5.92695385 1.82184615,5.88633846 C1.74246154,5.6248 1.68276923,5.34233846 1.60707692,5.07710769 C1.596,5.0328 1.59538462,4.98541538 1.58307692,4.94172308 C1.49015385,4.6408 1.468,4.26787692 1.38553846,3.95156923 C1.37384615,3.89556923 1.38246154,3.80264615 1.37446154,3.73803077 C1.36338462,3.68203077 1.33507692,3.62972308 1.31907692,3.5768 C1.30246154,3.52572308 1.31415385,3.47403077 1.29815385,3.41803077 C1.28153846,3.35341538 1.26246154,3.2888 1.24584615,3.22295385 C1.23415385,3.14110769 1.236,3.04510769 1.22369231,2.97064615 C1.21446154,2.91587692 1.17384615,2.84818462 1.164,2.79772308 C1.15538462,2.74787692 1.15969231,2.69126154 1.15415385,2.65064615 C1.13507692,2.54849231 1.12523077,2.39218462 1.09261538,2.27895385 C1.07661538,2.23095385 1.08584615,2.18541538 1.07169231,2.12941538 C1.05569231,2.06603077 1.04769231,1.99895385 1.044,1.91956923 C1.04276923,1.86972308 1.03415385,1.83526154 1.07292308,1.82295385 C1.10369231,1.81618462 1.13076923,1.86233846 1.14861538,1.92018462 C1.15538462,1.95403077 1.15784615,1.98233846 1.16646154,2.01864615 C1.19107692,2.09003077 1.212,2.16141538 1.23415385,2.24203077 C1.25015385,2.31095385 1.22430769,2.39772308 1.24461538,2.46295385 C1.34984615,2.80818462 1.39107692,3.20941538 1.48707692,3.5688 C1.5,3.61987692 1.50861538,3.67464615 1.51969231,3.73187692 C1.57323077,3.92326154 1.58738462,4.13495385 1.64461538,4.31895385 C1.66123077,4.37433846 1.66,4.45372308 1.67784615,4.51649231 C1.72153846,4.66356923 1.748,4.82356923 1.796,4.97556923 C1.81569231,5.02787692 1.84338462,5.08018462 1.85569231,5.13249231 C1.86492308,5.18356923 1.87292308,5.23464615 1.884,5.28572308 C1.90861538,5.36018462 1.93815385,5.43526154 1.96153846,5.50726154 C1.97507692,5.55218462 1.97630769,5.61003077 1.98615385,5.6568 C2.01938462,5.76941538 2.036,5.88510769 2.07230769,6.00141538 C2.15353846,6.25126154 2.23107692,6.5208 2.31784615,6.77187692 C2.332,6.80941538 2.33507692,6.94787692 2.348,7.00941538 C2.37384615,7.09064615 2.40892308,7.16756923 2.43661538,7.24941538 C2.45323077,7.32387692 2.468,7.41556923 2.48830769,7.4728 C2.50492308,7.51956923 2.53138462,7.57003077 2.55169231,7.61495385 C2.57692308,7.67526154 2.58369231,7.73495385 2.60830769,7.79895385 C2.63476923,7.87403077 2.67230769,7.95218462 2.70492308,8.02603077 C2.74676923,8.12203077 2.76030769,8.22049231 2.804,8.31526154 C2.83169231,8.37926154 2.86430769,8.45064615 2.88953846,8.51587692 C2.90676923,8.56633846 2.92215385,8.69618462 2.94246154,8.75833846 C2.97261538,8.84264615 3.012,8.93187692 3.044,9.01864615 C3.06369231,9.07403077 3.07046154,9.12387692 3.09384615,9.17187692 C3.12892308,9.24572308 3.17692308,9.32264615 3.21076923,9.39956923 C3.24953846,9.48695385 3.26492308,9.58049231 3.30430769,9.67095385 C3.37076923,9.82603077 3.45815385,9.98972308 3.54246154,10.1361846 C3.57938462,10.2044923 3.59784615,10.2851077 3.63292308,10.3577231 C3.652,10.4008 3.68953846,10.4401846 3.71107692,10.4814154 C3.75476923,10.5700308 3.78,10.6648 3.82307692,10.7546462 C3.844,10.7946462 3.87907692,10.8371077 3.89692308,10.8783385 C3.93323077,10.9546462 3.93569231,11.0518769 3.97015385,11.1288 C3.99784615,11.1946462 4.04646154,11.2561846 4.07476923,11.3171077 C4.10615385,11.3848 4.12646154,11.4574154 4.16584615,11.5195692 C4.18923077,11.5564923 4.22,11.5921846 4.24338462,11.6284923 C4.28584615,11.6937231 4.32707692,11.8297231 4.38369231,11.9263385 C4.38553846,11.9275692 4.38553846,11.9300308 4.38615385,11.9306462 C4.40030769,11.9558769 4.444,12.0112615 4.45815385,12.0414154 C4.47230769,12.0703385 4.47230769,12.0641846 4.49138462,12.1060308 C4.50430769,12.1300308 4.51723077,12.1638769 4.52584615,12.1928 C4.53753846,12.2284923 4.55169231,12.2617231 4.56153846,12.2789538 C4.60830769,12.3657231 4.67169231,12.4383385 4.71292308,12.5269538 C4.76523077,12.6408 4.77630769,12.8580308 4.93138462,12.8586462 C4.97015385,12.8524923 4.95353846,12.7017231 4.92461538,12.6420308 C4.88584615,12.5614154 4.82,12.5004923 4.78369231,12.4235692 C4.74676923,12.3441846 4.74246154,12.2444923 4.69692308,12.1724923 C4.68892308,12.1601846 4.68030769,12.1472615 4.67046154,12.1392615 C4.652,12.1140308 4.62553846,12.0869538 4.61753846,12.0752615 C4.60461538,12.0568 4.57138462,12.0026462 4.56153846,11.9737231 C4.55476923,11.9546462 4.54615385,11.9275692 4.54061538,11.9066462 C4.53876923,11.8949538 4.53630769,11.8851077 4.53323077,11.8777231 C4.53015385,11.8728 4.53015385,11.8721846 4.52892308,11.8721846 C4.50553846,11.8186462 4.46615385,11.7688 4.44338462,11.7189538 C4.42246154,11.6746462 4.41384615,11.6315692 4.39476923,11.5848 C4.34861538,11.4740308 4.28830769,11.3786462 4.24092308,11.2740308 C4.21015385,11.2069538 4.20584615,11.1306462 4.17015385,11.0715692 C4.13076923,11.0081846 4.07292308,10.9509538 4.03969231,10.8826462 C4.00769231,10.8137231 4.00276923,10.7294154 3.96769231,10.6611077 C3.94923077,10.6204923 3.91415385,10.5817231 3.89446154,10.5429538 C3.86923077,10.4888 3.85015385,10.4284923 3.82984615,10.3755692 C3.78676923,10.2586462 3.73630769,10.1737231 3.69630769,10.0623385 C3.66184615,9.9688 3.64830769,9.87587692 3.60769231,9.78664615 C3.57692308,9.71649231 3.53015385,9.65126154 3.50123077,9.57372308 C3.48153846,9.49987692 3.46,9.42172308 3.44030769,9.34664615 C3.31538462,9.00326154 3.18553846,8.65987692 3.05938462,8.31403077 C3.028,8.22726154 3.01876923,8.14172308 2.98676923,8.05310769 C2.92953846,7.89249231 2.87292308,7.71895385 2.81507692,7.55895385 C2.79230769,7.47895385 2.77815385,7.39710769 2.75907692,7.31587692 C2.748,7.27587692 2.75415385,7.24387692 2.74061538,7.20818462 C2.71292308,7.13003077 2.66861538,7.05249231 2.63846154,6.97126154 C2.59661538,6.85310769 2.57015385,6.73741538 2.53323077,6.62049231 C2.51846154,6.57618462 2.51969231,6.53926154 2.50369231,6.49803077 C2.48338462,6.43956923 2.44523077,6.39341538 2.43476923,6.32510769 C2.42430769,6.25372308 2.42061538,6.18295385 2.40584615,6.11218462 C2.36276923,5.94910769 2.35169231,5.76941538 2.292,5.61926154 C2.22369231,5.45249231 2.188,5.23464615 2.13753846,5.05064615 C2.12276923,4.98849231 2.13323077,4.90295385 2.12092308,4.84818462 C2.08892308,4.73433846 2.04584615,4.59895385 2.01076923,4.48326154 C2.00030769,4.44941538 1.996,4.40818462 1.99169231,4.37556923 C1.988,4.33618462 1.988,4.29126154 1.98246154,4.2568 C1.96769231,4.18295385 1.93507692,4.10849231 1.92646154,4.01926154 C1.92092308,3.98787692 1.91353846,3.94726154 1.94984615,3.94049231 C1.98246154,3.92941538 2.00646154,3.96818462 2.01938462,4.00264615 C2.09692308,4.18233846 2.12646154,4.41987692 2.188,4.61310769 C2.20092308,4.66172308 2.20523077,4.72326154 2.21753846,4.76572308 L2.21753846,4.76572308 L2.34184615,5.19526154 C2.35353846,5.23895385 2.35353846,5.27526154 2.37015385,5.31833846 C2.38,5.34910769 2.39723077,5.38603077 2.40892308,5.41864615 C2.42246154,5.47526154 2.42553846,5.55649231 2.43846154,5.59895385 C2.49692308,5.78787692 2.55723077,5.97249231 2.61630769,6.15833846 C2.62923077,6.22541538 2.63969231,6.29926154 2.65569231,6.35156923 C2.67907692,6.41618462 2.70369231,6.47895385 2.72707692,6.54295385 C2.75169231,6.61064615 2.75538462,6.67464615 2.77815385,6.74049231 C2.85630769,6.95833846 2.91969231,7.18787692 2.99723077,7.40633846 C3.04892308,7.55095385 3.07046154,7.69741538 3.12092308,7.83833846 C3.156,7.92572308 3.20215385,8.00510769 3.23969231,8.08941538 C3.31292308,8.25495385 3.33938462,8.44387692 3.40953846,8.60756923 C3.44153846,8.67033846 3.47353846,8.73249231 3.50492308,8.79587692 C3.53815385,8.86787692 3.54615385,8.94172308 3.57692308,9.01310769 C3.65753846,9.19833846 3.74369231,9.39095385 3.82738462,9.57618462 C3.86430769,9.65803077 3.87784615,9.74418462 3.91415385,9.82233846 C3.94,9.87772308 3.97938462,9.93064615 4.00523077,9.98726154 C4.04830769,10.0777231 4.06984615,10.1718769 4.11169231,10.2623385 C4.14492308,10.3318769 4.19969231,10.3884923 4.23230769,10.4561846 C4.29261538,10.5817231 4.32523077,10.7164923 4.38369231,10.8420308 C4.43969231,10.9632615 4.52584615,11.0678769 4.58184615,11.1884923 C4.61015385,11.2488 4.62492308,11.3060308 4.65384615,11.3657231 C4.676,11.4118769 4.70738462,11.4629538 4.732,11.5097231 C4.78184615,11.6032615 4.80338462,11.7048 4.85076923,11.8057231 C4.89138462,11.8949538 4.97630769,11.9515692 5.01692308,12.0395692 C5.04215385,12.0974154 5.05692308,12.1712615 5.08215385,12.2309538 C5.11661538,12.3048 5.17323077,12.3657231 5.21692308,12.4291077 C5.26246154,12.4998769 5.32646154,12.6395692 5.36461538,12.7171077 C5.42861538,12.8537231 5.48215385,12.9208 5.564,13.0383385 C5.64153846,13.1484923 5.68153846,13.2875692 5.76769231,13.3878769 C5.79661538,13.4260308 5.90430769,13.5281846 5.94369231,13.5146462 C5.95907692,13.5060308 5.916,13.3318769 5.88707692,13.2777231 C5.85507692,13.2223385 5.80769231,13.1780308 5.772,13.1281846 C5.74061538,13.0795692 5.716,13.0186462 5.69384615,12.9614154 C5.66492308,12.8820308 5.61692308,12.8001846 5.57630769,12.7349538 C5.52830769,12.6617231 5.49323077,12.6038769 5.44769231,12.5300308 C5.41753846,12.4820308 5.40769231,12.4315692 5.38184615,12.3755692 C5.34984615,12.3048 5.31169231,12.2309538 5.27292308,12.1601846 C5.24030769,12.0998769 5.18984615,12.0506462 5.16215385,11.9946462 C5.13138462,11.9263385 5.09876923,11.8580308 5.06676923,11.7872615 C5.01569231,11.6937231 4.95169231,11.6094154 4.90123077,11.5164923 C4.84830769,11.4217231 4.83538462,11.3066462 4.79415385,11.1983385 C4.75169231,11.0801846 4.69015385,10.9718769 4.63969231,10.8586462 C4.60646154,10.7798769 4.59415385,10.7011077 4.55907692,10.6266462 C4.52584615,10.5608 4.47661538,10.5029538 4.43907692,10.4426462 C4.38738462,10.3644923 4.36892308,10.2709538 4.32707692,10.1817231 C4.30061538,10.1263385 4.26061538,10.0697231 4.24153846,10.0124923 L4.24153846,10.0124923 L4.20153846,9.87033846 C4.18307692,9.8168 4.15415385,9.75895385 4.13692308,9.70110769 C4.12215385,9.65126154 4.12769231,9.60141538 4.10615385,9.55772308 C4.076,9.49187692 4.01015385,9.44941538 3.97815385,9.38049231 C3.91415385,9.24141538 3.908,9.06172308 3.85384615,8.91156923 C3.79846154,8.76141538 3.72646154,8.60941538 3.67107692,8.45495385 C3.63107692,8.35033846 3.604,8.23464615 3.56523077,8.12633846 C3.55046154,8.08018462 3.54615385,8.03156923 3.53076923,7.98664615 C3.48584615,7.86356923 3.42676923,7.74110769 3.37938462,7.61310769 C3.35169231,7.53249231 3.35415385,7.45003077 3.32707692,7.36572308 C3.30553846,7.30049231 3.27784615,7.2408 3.25261538,7.18295385 C3.228,7.1288 3.22184615,7.07341538 3.20092308,7.01618462 C3.17692308,6.94603077 3.14984615,6.87587692 3.12646154,6.80756923 C3.10615385,6.74910769 3.10246154,6.67095385 3.084,6.60387692 C3.03784615,6.47526154 2.99169231,6.32264615 2.95169231,6.18541538 C2.93692308,6.13741538 2.94492308,6.07526154 2.92953846,6.01372308 C2.91169231,5.95156923 2.88953846,5.89003077 2.876,5.8248 C2.86307692,5.77987692 2.86492308,5.73372308 2.85630769,5.69249231 C2.83661538,5.62726154 2.82430769,5.55218462 2.79846154,5.48572308 C2.77446154,5.41987692 2.74615385,5.34726154 2.73876923,5.26603077 C2.73753846,5.23833846 2.73753846,5.19833846 2.76769231,5.19095385 C2.79846154,5.18110769 2.81446154,5.20941538 2.82553846,5.23710769 L2.82553846,5.23710769 L2.84707692,5.29249231 C2.88707692,5.39587692 2.90123077,5.51095385 2.94246154,5.61926154 C2.96215385,5.67710769 2.988,5.73987692 3.00584615,5.80141538 C3.03353846,5.88387692 3.03169231,5.96449231 3.05938462,6.04387692 C3.08584615,6.11772308 3.11538462,6.2008 3.14123077,6.27464615 C3.16461538,6.34049231 3.16707692,6.40326154 3.19292308,6.46787692 C3.23292308,6.58049231 3.28215385,6.70172308 3.32153846,6.81372308 C3.35169231,6.89064615 3.34369231,6.99156923 3.37076923,7.06972308 C3.388,7.11403077 3.41630769,7.15649231 3.43476923,7.19895385 C3.47046154,7.27833846 3.49261538,7.37003077 3.52769231,7.44756923 C3.54,7.47341538 3.54246154,7.50233846 3.55046154,7.5288 C3.57938462,7.61126154 3.61753846,7.69741538 3.64584615,7.7768 C3.66615385,7.83095385 3.67230769,7.88141538 3.69138462,7.93556923 C3.73384615,8.05372308 3.79353846,8.16572308 3.83661538,8.28510769 C3.85138462,8.33495385 3.85569231,8.38849231 3.87107692,8.43526154 C3.972,8.71156923 4.10738462,8.98418462 4.22615385,9.25003077 C4.27046154,9.34972308 4.27476923,9.46910769 4.32030769,9.56449231 C4.34861538,9.62787692 4.39969231,9.68141538 4.42861538,9.74295385 C4.49323077,9.87772308 4.53015385,10.0186462 4.59230769,10.1540308 C4.62430769,10.2217231 4.67046154,10.2857231 4.70123077,10.3509538 C4.72646154,10.4008 4.73630769,10.4500308 4.76523077,10.4955692 C4.78184615,10.5208 4.804,10.5472615 4.81876923,10.5743385 C4.85876923,10.6604923 4.87969231,10.7484923 4.92092308,10.8371077 C4.97692308,10.9546462 5.05692308,11.0771077 5.124,11.1866462 C5.15784615,11.2383385 5.17138462,11.2918769 5.20523077,11.3398769 C5.23476923,11.3872615 5.27292308,11.4401846 5.29876923,11.4931077 C5.35907692,11.6229538 5.42492308,11.7503385 5.48461538,11.8752615 C5.516,11.9441846 5.53876923,12.0137231 5.57938462,12.0771077 C5.64830769,12.1854154 5.74184615,12.2863385 5.79661538,12.4051077 C5.82,12.4524923 5.86369231,12.5355692 5.88584615,12.5829538 C5.92953846,12.6808 5.99292308,12.7404923 6.03292308,12.7854154 C6.06246154,12.8174154 6.14984615,12.8715692 6.16646154,12.8611077 C6.17692308,12.8611077 6.13015385,12.6832615 6.11661538,12.6543385 C6.07476923,12.5583385 6.08153846,12.5441846 6.03169231,12.4752615 C5.97015385,12.3928 5.94307692,12.3121846 5.89015385,12.2186462 C5.87046154,12.1761846 5.85446154,12.1331077 5.83230769,12.0937231 C5.78369231,12.0192615 5.73323077,11.9472615 5.69446154,11.8623385 C5.61692308,11.6826462 5.57138462,11.4832615 5.46492308,11.3324923 C5.35107692,11.1700308 5.26984615,10.9884923 5.18061538,10.7995692 C5.148,10.7312615 5.09261538,10.6746462 5.06123077,10.6063385 L5.06123077,10.6063385 L5.02676923,10.5121846 C5.00646154,10.4635692 4.97630769,10.4118769 4.95353846,10.3632615 C4.92707692,10.3041846 4.91969231,10.2457231 4.89384615,10.1866462 C4.78861538,9.95526154 4.69015385,9.69864615 4.60215385,9.45433846 C4.588,9.41495385 4.588,9.38049231 4.57384615,9.34049231 C4.54246154,9.25864615 4.50246154,9.18049231 4.46615385,9.10356923 C4.42430769,9.00941538 4.38984615,8.91403077 4.35415385,8.82233846 C4.33569231,8.77987692 4.332,8.74295385 4.31415385,8.70295385 C4.29323077,8.65741538 4.26246154,8.61064615 4.24092308,8.56572308 C4.22,8.48387692 4.19784615,8.4008 4.17815385,8.31710769 C4.12646154,8.17310769 4.06984615,8.0328 4.01015385,7.88818462 C3.98923077,7.83833846 3.96769231,7.78049231 3.95046154,7.72633846 C3.93876923,7.6648 3.92523077,7.60695385 3.91415385,7.54664615 C3.87784615,7.42910769 3.83538462,7.31772308 3.79476923,7.20203077 C3.76584615,7.12018462 3.76338462,7.03649231 3.73630769,6.94972308 C3.724,6.90418462 3.69753846,6.85433846 3.68646154,6.80756923 C3.67969231,6.76756923 3.67230769,6.7288 3.66430769,6.6888 C3.64584615,6.61064615 3.63476923,6.58664615 3.61323077,6.48695385 C3.59661538,6.41433846 3.66615385,6.38972308 3.69507692,6.46172308 C3.74738462,6.60387692 3.80092308,6.74910769 3.85261538,6.89187692 C3.87107692,6.94603077 3.87476923,7.01003077 3.88830769,7.06049231 C3.98923077,7.33803077 4.08646154,7.64203077 4.19230769,7.91033846 C4.22,7.99218462 4.24461538,8.07341538 4.27046154,8.15649231 C4.29692308,8.22603077 4.34,8.29864615 4.37261538,8.36818462 C4.38123077,8.39341538 4.38369231,8.41495385 4.38861538,8.43956923 C4.42,8.51895385 4.44830769,8.59833846 4.476,8.67956923 C4.54369231,8.83218462 4.62861538,8.99218462 4.69938462,9.1448 C4.72892308,9.20818462 4.74061538,9.27341538 4.76523077,9.34233846 C4.81076923,9.46726154 4.86184615,9.59033846 4.91661538,9.70849231 C4.99476923,9.87403077 5.10861538,10.0328 5.18369231,10.1983385 C5.212,10.2568 5.21815385,10.3189538 5.244,10.3798769 C5.26615385,10.4284923 5.30123077,10.4777231 5.32461538,10.5232615 C5.36584615,10.6143385 5.39353846,10.7004923 5.43661538,10.7866462 C5.47415385,10.8660308 5.53384615,10.9392615 5.57692308,11.0186462 C5.62738462,11.1078769 5.65507692,11.2100308 5.71169231,11.2949538 C5.76092308,11.3749538 5.82,11.4488 5.87046154,11.5294154 C5.94738462,11.6488 5.99046154,11.7934154 6.06615385,11.9128 C6.13138462,12.0149538 6.21384615,12.1060308 6.27846154,12.2069538 C6.31784615,12.2672615 6.33938462,12.3318769 6.37938462,12.3934154 C6.46553846,12.5300308 6.55169231,12.6740308 6.63969231,12.8106462 C6.66738462,12.8524923 6.68153846,12.8968 6.70430769,12.9441846 C6.72707692,12.9940308 6.76707692,13.0457231 6.79784615,13.0918769 C6.81569231,13.1195692 6.82246154,13.1454154 6.83907692,13.1718769 C6.87784615,13.2309538 6.93138462,13.2795692 6.97261538,13.3355692 C7.05753846,13.4463385 7.11476923,13.5786462 7.19538462,13.6906462 C7.27292308,13.7940308 7.36953846,13.8851077 7.444,13.9884923 C7.49323077,14.0531077 7.52523077,14.1269538 7.57446154,14.1915692 C7.60030769,14.2241846 7.64092308,14.2518769 7.66492308,14.2857231 C7.73076923,14.3688 7.76584615,14.4752615 7.82492308,14.5626462 C7.84276923,14.5903385 7.86492308,14.6204923 7.88584615,14.6469538 C7.892,14.655159 7.91948718,14.6834667 7.95415385,14.718384 L8.13507692,14.8992615 C8.21507692,15.0014154 8.29446154,15.1226462 8.388,15.2106462 C8.42369231,15.2469538 8.64461538,15.4888 8.69138462,15.4574154 C8.71046154,15.4321846 8.62246154,15.3128 8.59661538,15.2617231 C8.51476923,15.0955692 8.34061538,14.9115692 8.24153846,14.7866462 C8.17569231,14.7041846 7.95476923,14.4118769 7.88830769,14.3275692 C7.84892308,14.2746462 7.78676923,14.2371077 7.74615385,14.1829538 C7.68892308,14.1060308 7.65076923,14.0161846 7.59538462,13.9404923 L7.59538462,13.9404923 L7.44153846,13.7644923 C7.39907692,13.7097231 7.37938462,13.6395692 7.34184615,13.5786462 L7.34184615,13.5786462 L7.24769231,13.4444923 L7.24769231,13.4444923 L7.19969231,13.3404923 C7.12584615,13.2241846 7.03538462,13.1195692 6.96646154,12.9946462 C6.92092308,12.9140308 6.90923077,12.8044923 6.85876923,12.7275692 C6.79784615,12.6340308 6.71415385,12.5601846 6.65323077,12.4648 C6.59230769,12.3731077 6.56276923,12.2611077 6.50307692,12.1688 C6.29323077,11.8377231 6.11661538,11.4826462 5.94061538,11.1084923 C5.90676923,11.0371077 5.85015385,10.9761846 5.81384615,10.9029538 C5.78123077,10.8315692 5.77076923,10.7546462 5.73753846,10.6795692 C5.72338462,10.6457231 5.69815385,10.6112615 5.67969231,10.5817231 C5.64707692,10.5232615 5.62369231,10.4635692 5.59661538,10.4026462 C5.54676923,10.2980308 5.49630769,10.1866462 5.44584615,10.0746462 C5.41753846,10.0149538 5.37384615,9.95341538 5.34615385,9.88756923 C5.29446154,9.77126154 5.26861538,9.65249231 5.21630769,9.53741538 C5.18984615,9.4808 5.13507692,9.36572308 5.10430769,9.26295385 C5.08892308,9.21126154 5.09261538,9.18049231 5.11661538,9.16572308 C5.14061538,9.15033846 5.17323077,9.17926154 5.19230769,9.21310769 C5.21876923,9.27033846 5.236,9.33187692 5.26615385,9.39956923 C5.30923077,9.50110769 5.37753846,9.58110769 5.42307692,9.67772308 C5.44338462,9.73864615 5.46492308,9.79956923 5.48892308,9.86049231 C5.53015385,9.95033846 5.572,10.0444923 5.61692308,10.1374154 L5.61692308,10.1374154 L5.75230769,10.3792615 C5.828,10.5392615 5.90184615,10.6924923 5.99476923,10.8352615 C6.01692308,10.8697231 6.02738462,10.9072615 6.04707692,10.9423385 C6.08153846,11.0026462 6.11784615,11.0629538 6.148,11.1263385 C6.16830769,11.1724923 6.17938462,11.2192615 6.20646154,11.2604923 C6.24276923,11.3128 6.29569231,11.3540308 6.33015385,11.4075692 L6.33015385,11.4075692 L6.39846154,11.5478769 C6.476,11.6672615 6.54676923,11.7977231 6.62492308,11.9183385 C6.64830769,11.9558769 6.65815385,11.9989538 6.68276923,12.0377231 C6.77692308,12.1841846 6.88215385,12.3349538 6.97876923,12.4820308 C7.01569231,12.5404923 7.02615385,12.6161846 7.06369231,12.6746462 C7.10923077,12.7460308 7.17261538,12.8081846 7.21876923,12.8777231 C7.244,12.9189538 7.26061538,12.9589538 7.28646154,12.9971077 C7.32092308,13.0506462 7.36769231,13.1017231 7.40030769,13.1534154 C7.42492308,13.1964923 7.44153846,13.2383385 7.46923077,13.2746462 C7.50430769,13.3220308 7.55107692,13.3651077 7.58676923,13.4124923 C7.67353846,13.5306462 7.74738462,13.6518769 7.836,13.7644923 C7.85815385,13.7903385 7.884,13.8106462 7.90676923,13.8340308 C7.964,13.8900308 8.01261538,13.9595692 8.06184615,14.0229538 C8.08707692,14.0568 8.12584615,14.0820308 8.15415385,14.1183385 C8.22553846,14.2118769 8.27907692,14.3220308 8.34923077,14.4186462 C8.39907692,14.4857231 8.47846154,14.5361846 8.54984615,14.6063385 C8.64092308,14.6955692 8.85753846,14.9404923 8.96892308,14.9244923 C9.00215385,14.9226462 8.80953846,14.6537231 8.73323077,14.5589538 C8.68153846,14.4992615 8.66307692,14.4617231 8.59723077,14.4008 C8.54123077,14.3404923 8.50061538,14.2561846 8.44646154,14.1829538 C8.40707692,14.1306462 8.356,14.0863385 8.31784615,14.0358769 C8.24769231,13.9392615 8.18676923,13.8414154 8.11907692,13.7429538 C8.08092308,13.6844923 8.03107692,13.6278769 7.99046154,13.5688 C7.94184615,13.4949538 7.91353846,13.4124923 7.86492308,13.3361846 L7.86492308,13.3361846 L7.72646154,13.1577231 C7.684,13.0814154 7.64276923,13.0063385 7.59846154,12.9306462 C7.53015385,12.8223385 7.44707692,12.7238769 7.37569231,12.6180308 C7.34184615,12.5534154 7.30676923,12.4857231 7.27169231,12.4186462 C7.22,12.3411077 7.15476923,12.2611077 7.10246154,12.1601846 C7.07846154,12.1103385 7.03969231,12.0414154 7.01384615,12.0063385 C6.97876923,11.9589538 6.94,11.8438769 6.91661538,11.8008 C6.892,11.7608 6.85876923,11.7011077 6.82430769,11.6518769 C6.78984615,11.6038769 6.74861538,11.5146462 6.72523077,11.4740308 C6.67107692,11.3934154 6.65323077,11.3515692 6.60338462,11.2623385 C6.57569231,11.2088 6.57569231,11.2204923 6.54676923,11.1472615 C6.54246154,11.1232615 6.532,11.0906462 6.55784615,11.0721846 C6.59230769,11.0586462 6.63538462,11.1017231 6.67169231,11.1540308 C6.73323077,11.2383385 6.75046154,11.2808 6.80892308,11.3718769 C6.82615385,11.3971077 6.87107692,11.4580308 6.892,11.4955692 C6.91476923,11.5294154 6.93569231,11.5743385 6.96646154,11.6229538 C6.99969231,11.6715692 7.02061538,11.7177231 7.06553846,11.7878769 C7.10923077,11.8598769 7.14369231,11.9140308 7.18307692,11.9638769 C7.22123077,12.0137231 7.244,12.0814154 7.25507692,12.0937231 C7.32030769,12.1940308 7.364,12.2986462 7.428,12.3928 C7.47723077,12.4617231 7.53630769,12.5361846 7.58369231,12.6106462 C7.60707692,12.6469538 7.62,12.6857231 7.64646154,12.7177231 C7.68892308,12.7749538 7.75046154,12.8174154 7.79046154,12.8777231 C7.88276923,13.0161846 7.94,13.1718769 8.036,13.3041846 C8.13015385,13.4309538 8.27169231,13.5238769 8.37015385,13.6512615 C8.43846154,13.7429538 8.49630769,13.8414154 8.56584615,13.9392615 C8.59784615,13.9835692 8.64523077,14.0186462 8.67784615,14.0629538 C8.74923077,14.1521846 8.81815385,14.2451077 8.88892308,14.3343385 C8.91107692,14.3632615 8.94615385,14.3872615 8.97692308,14.4081846 L8.97692308,14.4081846 L9.03846154,14.4697231 C9.10123077,14.5152615 9.14307692,14.5571077 9.20461538,14.6051077 C9.26246154,14.6469538 9.32646154,14.7651077 9.37630769,14.8248 C9.40646154,14.8592615 9.44830769,14.8906462 9.48338462,14.9244923 C9.51292308,14.9589538 9.54369231,14.9928 9.57446154,15.0241846 C9.67846154,15.1177231 9.80830769,15.2094154 9.91476923,15.3128 C10.0606154,15.4555692 10.1018462,15.4641846 10.2286154,15.6260308 C10.2550769,15.6586462 10.3381538,15.7460308 10.3695385,15.7749538 C10.4064615,15.8235692 10.5190769,15.9011077 10.5344615,15.9152615 C10.6033846,15.9681846 10.6163077,15.9878769 10.6901538,16.0377231 C10.7818462,16.0955692 10.932,16.2297231 10.9947692,16.2131077 C11.0076923,16.2094154 10.9670769,16.1011077 10.8753846,15.9860308 C10.8390769,15.9404923 10.7436923,15.8469538 10.7116923,15.8081846 C10.66,15.7429538 10.6083077,15.6974154 10.5418462,15.6481846 C10.4298462,15.5657231 10.3738462,15.5072615 10.2883077,15.4001846 C10.2550769,15.3595692 10.1830769,15.2943385 10.1486154,15.2549538 C10.1061538,15.2008 10.0630769,15.1300308 10.0089231,15.0900308 C9.96092308,15.0524923 9.88276923,15.0124923 9.83846154,14.9571077 C9.76461538,14.8623385 9.67107692,14.7614154 9.58676923,14.6604923 C9.55353846,14.6291077 9.52215385,14.5946462 9.48892308,14.5669538 C9.44830769,14.5331077 9.40523077,14.4881846 9.36215385,14.4451077 L9.36215385,14.4451077 L9.28892308,14.3688 C9.27046154,14.3528 9.25692308,14.3318769 9.24215385,14.3134154 C9.22923077,14.2968 9.21753846,14.2777231 9.20215385,14.2623385 C9.16953846,14.2272615 9.14246154,14.1915692 9.11784615,14.1558769 C9.09507692,14.1220308 9.07292308,14.0875692 9.04153846,14.0574154 C9.02923077,14.0414154 9.01446154,14.0266462 8.99784615,14.0118769 C8.95476923,13.9669538 8.90923077,13.9183385 8.868,13.8629538 C8.84953846,13.8377231 8.83415385,13.8094154 8.81815385,13.7841846 C8.80769231,13.7644923 8.79969231,13.7484923 8.788,13.7324923 C8.78492308,13.7275692 8.77938462,13.7195692 8.77384615,13.7115692 C8.74861538,13.6764923 8.70553846,13.6155692 8.67784615,13.5608 C8.65384615,13.5134154 8.66307692,13.4764923 8.68153846,13.4617231 C8.69015385,13.4555692 8.71538462,13.4438769 8.748,13.4801846 C8.76646154,13.5029538 8.78492308,13.5294154 8.80215385,13.5546462 C8.82061538,13.5817231 8.83846154,13.6100308 8.85938462,13.6334154 C8.89630769,13.6709538 8.92523077,13.7023385 8.95230769,13.7306462 C8.99169231,13.7718769 9.02984615,13.8118769 9.08461538,13.8709538 C9.10307692,13.8912615 9.13015385,13.9288 9.156,13.9669538 C9.18861538,14.0100308 9.22123077,14.0549538 9.24092308,14.0752615 C9.30123077,14.1337231 9.32461538,14.1564923 9.34492308,14.1737231 C9.36338462,14.1928 9.37938462,14.2051077 9.42369231,14.2518769 C9.47046154,14.3004923 9.48892308,14.3257231 9.50492308,14.3491077 C9.52707692,14.3755692 9.54553846,14.4001846 9.59723077,14.4500308 C9.69015385,14.5195692 9.79046154,14.6143385 9.86,14.7035692 C9.90615385,14.7497231 9.98676923,14.8008 10.0286154,14.8463385 C10.0846154,14.9103385 10.1350769,14.9546462 10.1904615,15.0198769 C10.2316923,15.0629538 10.2926154,15.1103385 10.3467692,15.1478769 C10.4298462,15.2075692 10.5049231,15.2771077 10.5873846,15.3380308 C10.6575385,15.3921846 10.7209231,15.4635692 10.7935385,15.5158769 C10.9067692,15.5989538 10.9775385,15.6598769 11.0895385,15.7417231 C11.1350769,15.7749538 11.2095385,15.8371077 11.2544615,15.8703385 C11.3246154,15.9226462 11.3916923,15.9878769 11.4618462,16.0401846 C11.5387692,16.1035692 11.6126154,16.1663385 11.6864615,16.2383385 C11.7172308,16.2715692 11.7701538,16.3004923 11.8070769,16.3288 C11.8704615,16.3755692 11.94,16.4309538 12.012,16.4771077 C12.0858462,16.5238769 12.1307692,16.5484923 12.1929231,16.5934154 C12.2956923,16.6623385 12.3584615,16.7183385 12.4581538,16.7841846 C12.5067692,16.8161846 12.6064615,16.8703385 12.66,16.9017231 C12.7504615,16.9571077 12.7836923,16.9718769 12.8513846,17.0217231 C12.9603077,17.0998769 13.0323077,17.1540308 13.1473846,17.2260308 C13.2261538,17.2734154 13.3313846,17.3251077 13.4089231,17.3724923 C13.4858462,17.4198769 13.5436923,17.4678769 13.6323077,17.5023385 C13.7012308,17.5331077 13.7941538,17.5884923 13.8563077,17.6254154 C13.9590769,17.6888 14.0409231,17.7355692 14.1443077,17.7983385 C14.1996923,17.8291077 14.708,18.0955692 14.708,18.0955692 C15.9615385,18.7749538 17.4015385,19.3651077 18.8895385,19.8826462 C20.4821538,20.4358769 21.8033846,20.6211077 22.836,20.7146462 C23.9695385,20.8174154 25.3467692,20.6155692 25.4747692,21.0857231 C25.6107692,21.5866462 24.3652308,22.5952615 20.6538462,24.3558769 C16.9929231,26.0937231 11.0052308,28.4752615 2.75415385,31.3700308 C2.72461538,31.3804923 2.62061538,31.4063385 2.59661538,31.3589538 C2.56461538,31.2931077 2.644,31.2358769 2.67661538,31.2143385 L2.67661538,31.2143385 L12.9603077,24.6377231 C13.0175385,24.6008 13.0975385,24.5158769 12.98,24.4684923 C12.98,24.4684923 12.4889231,24.3017231 11.5756923,23.7312615 L11.5756923,23.7312615 C9.84215385,22.6321846 7.79292308,20.9546462 5.80092308,18.4204923 L5.80092308,18.4204923 L5.76092308,18.3700308 C5.71353846,18.3004923 5.67292308,18.2309538 5.62307692,18.1663385 C5.56276923,18.0888 5.49076923,18.0038769 5.43661538,17.9183385 C5.36276923,17.8118769 5.29815385,17.6857231 5.21815385,17.5835692 C5.12153846,17.4543385 4.90123077,17.0734154 4.74553846,16.8586462 C4.68584615,16.7798769 4.62492308,16.6949538 4.57138462,16.6112615 C4.49507692,16.4918769 4.44707692,16.3688 4.36892308,16.2494154 C4.32092308,16.1780308 4.27784615,16.1214154 4.23476923,16.0457231 C4.19476923,15.9786462 4.15169231,15.9011077 4.11784615,15.8297231 C4.08338462,15.7571077 4.02676923,15.6943385 3.99230769,15.6217231 C3.95784615,15.5466462 3.90246154,15.4457231 3.85876923,15.3774154 C3.83723077,15.3423385 3.81801709,15.3110906 3.79950997,15.2811419 L3.684,15.0968 C3.63969231,15.0303385 3.61692308,14.9534154 3.58246154,14.8795692 C3.53446154,14.7798769 3.46,14.6955692 3.41384615,14.5983385 C3.39230769,14.5361846 3.37076923,14.4752615 3.34861538,14.4155692 C3.30553846,14.3238769 3.23538462,14.2457231 3.19230769,14.1515692 C3.17015385,14.1041846 3.16030769,14.0574154 3.13753846,14.0088 C3.09815385,13.9251077 3.04153846,13.8481846 3.00153846,13.7620308 C2.97261538,13.6968 2.95353846,13.6260308 2.92953846,13.5595692 C2.89938462,13.4906462 2.84215385,13.4328 2.81015385,13.3663385 C2.78184615,13.3054154 2.77138462,13.2408 2.74307692,13.1780308 C2.69446154,13.0672615 2.62307692,12.9614154 2.57138462,12.8469538 C2.49938462,12.6943385 2.47476923,12.5232615 2.40584615,12.3681846 C2.36646154,12.2801846 2.33507692,12.1841846 2.29446154,12.0918769 C2.26123077,12.0229538 2.21753846,11.9546462 2.188,11.8832615 C2.16153846,11.8217231 2.15907692,11.7552615 2.132,11.6961846 C2.09569231,11.6168 2.04215385,11.5417231 2.01076923,11.4574154 C1.99046154,11.4008 1.988,11.3417231 1.97076923,11.2857231 C1.94984615,11.2340308 1.91661538,11.1866462 1.89507692,11.1374154 C1.87046154,11.0801846 1.86923077,11.0186462 1.844,10.9651077 C1.82492308,10.9164923 1.79353846,10.8641846 1.77569231,10.8124923 C1.75723077,10.7614154 1.75353846,10.7128 1.73076923,10.6678769 C1.70738462,10.6204923 1.67415385,10.5743385 1.65323077,10.5251077 C1.628,10.4709538 1.628,10.4063385 1.60707692,10.3466462 C1.58738462,10.2931077 1.55846154,10.2371077 1.53753846,10.1841846 C1.51230769,10.1201846 1.51969231,10.0352615 1.49569231,9.96695385 C1.47723077,9.92203077 1.45076923,9.87772308 1.43046154,9.83464615 C1.40646154,9.78110769 1.40092308,9.72326154 1.37630769,9.66972308 C1.35784615,9.63033846 1.32892308,9.58541538 1.31415385,9.54295385 C1.28092308,9.44941538 1.26061538,9.35895385 1.23538462,9.26603077 C1.21753846,9.20449231 1.22369231,9.14726154 1.20338462,9.09310769 C1.12769231,8.87710769 1.05569231,8.63033846 0.978153846,8.41618462 C0.935076923,8.29372308 0.928923077,8.17003077 0.887076923,8.05126154 C0.848307692,7.94295385 0.807692308,7.82356923 0.772615385,7.71095385 C0.750461538,7.64695385 0.752307692,7.56756923 0.735692308,7.50849231 C0.716615385,7.44818462 0.701230769,7.38110769 0.684,7.31526154 C0.673538462,7.27218462 0.678461538,7.22910769 0.664923077,7.18295385 C0.639076923,7.09987692 0.613230769,7.01864615 0.588615385,6.93556923 L0.588615385,6.93556923 L0.562769231,6.80756923 C0.543076923,6.73741538 0.526461538,6.6568 0.499384615,6.59403077 C0.471076923,6.51095385 0.471076923,6.41433846 0.444615385,6.32387692 C0.429846154,6.28018462 0.411384615,6.23033846 0.397846154,6.18541538 C0.372,6.09433846 0.372,6.01249231 0.344923077,5.92264615 C0.319076923,5.83833846 0.288923077,5.76141538 0.267384615,5.66787692 C0.255076923,5.61433846 0.255076923,5.56510769 0.247692308,5.51526154 C0.240923077,5.47710769 0.216923077,5.38541538 0.210769231,5.3128 C0.203384615,5.23218462 0.274769231,5.2088 0.303076923,5.27772308 C0.325230769,5.33618462 0.325230769,5.40387692 0.348615385,5.46603077 C0.394153846,5.59033846 0.440307692,5.74664615 0.476,5.8808 C0.493230769,5.93556923 0.485846154,5.99218462 0.501846154,6.04387692 C0.556,6.21495385 0.618153846,6.39649231 0.673538462,6.57310769 C0.715384615,6.70664615 0.712307692,6.85310769 0.752307692,6.99095385 C0.787384615,7.11587692 0.826769231,7.24572308 0.863692308,7.36141538 C0.878461538,7.41556923 0.874769231,7.47156923 0.887076923,7.52449231 C0.957230769,7.75833846 1.05876923,7.98849231 1.13876923,8.21187692 C1.17630769,8.31403077 1.17815385,8.42910769 1.21446154,8.52695385 C1.24092308,8.60141538 1.27353846,8.68326154 1.30184615,8.76018462 C1.32461538,8.82172308 1.33076923,8.87772308 1.356,8.9368 C1.40892308,9.05372308 1.468,9.18541538 1.51230769,9.30787692 C1.52769231,9.35341538 1.52953846,9.39956923 1.54615385,9.44941538 C1.56523077,9.50664615 1.59169231,9.56633846 1.612,9.62356923 C1.66,9.76018462 1.68461538,9.88756923 1.73323077,10.0217231 C1.78738462,10.1700308 1.85876923,10.3146462 1.92092308,10.4531077 C1.94984615,10.5269538 1.96953846,10.6143385 1.99846154,10.6844923 C2.01938462,10.7294154 2.05076923,10.7669538 2.07107692,10.8137231 L2.07107692,10.8137231 L2.11169231,10.9417231 C2.15784615,11.0580308 2.20461538,11.1804923 2.26123077,11.2838769 C2.30184615,11.3540308 2.31969231,11.4364923 2.356,11.5152615 C2.38123077,11.5694154 2.41753846,11.6241846 2.44153846,11.6783385 C2.48215385,11.7688 2.49938462,11.8635692 2.54,11.9509538 C2.61876923,12.1183385 2.71784615,12.2789538 2.79846154,12.4494154 C2.85015385,12.5626462 2.86184615,12.6420308 2.94492308,12.7214154 C2.964,12.7386462 2.99723077,12.7878769 3.02615385,12.7774154 C3.04153846,12.7712615 3.04584615,12.7614154 3.04584615,12.7466462 C3.04584615,12.5915692 3.01015385,12.5355692 2.95969231,12.4260308 C2.92830769,12.3521846 2.916,12.2721846 2.88215385,12.1940308 C2.84707692,12.1140308 2.78923077,12.0481846 2.75661538,11.9620308 C2.73753846,11.9097231 2.73384615,11.8648 2.71292308,11.8186462 C2.65630769,11.6961846 2.59476923,11.5638769 2.54615385,11.4328 C2.51538462,11.3472615 2.50984615,11.2623385 2.47415385,11.1811077 C2.44153846,11.1232615 2.39353846,11.0475692 2.37815385,11.0026462 C2.35846154,10.9448 2.33938462,10.8900308 2.31969231,10.8309538 L2.31969231,10.8309538 L2.22307692,10.6328 C2.18984615,10.5571077 2.18,10.4777231 2.15046154,10.3952615 C2.108,10.2789538 2.05569231,10.1663385 2.01138462,10.0549538 C1.97753846,9.97249231 1.97076923,9.88264615 1.93815385,9.79218462 C1.89938462,9.68818462 1.83969231,9.60203077 1.80030769,9.50295385 C1.77446154,9.44018462 1.77446154,9.37803077 1.75353846,9.31526154 C1.71353846,9.1928 1.67353846,9.0568 1.63846154,8.93864615 C1.62123077,8.88633846 1.62553846,8.83895385 1.60707692,8.79095385 C1.564,8.67095385 1.53630769,8.53249231 1.49015385,8.40449231 C1.452,8.29926154 1.41076923,8.1768 1.37446154,8.06972308 C1.35415385,8.0008 1.34984615,7.92510769 1.33323077,7.86356923 C1.31107692,7.79587692 1.28276923,7.73310769 1.25876923,7.66910769 C1.21876923,7.56264615 1.21569231,7.44449231 1.17815385,7.33372308 C1.15538462,7.28018462 1.13323077,7.23095385 1.11784615,7.17495385 C1.10553846,7.13003077 1.09876923,7.0888 1.08769231,7.04264615 C1.076,6.9848 1.05569231,6.92633846 1.03723077,6.86110769 C1.02553846,6.81618462 1.02123077,6.76756923 1.01323077,6.72695385 C1.00461538,6.68018462 0.977538462,6.61618462 0.952307692,6.53003077 C0.944923077,6.49372308 0.94,6.45926154 0.930769231,6.4248 C0.891384615,6.30233846 0.853846154,6.14787692 0.823076923,6.02541538 C0.813230769,5.9928 0.816307692,5.96633846 0.808923077,5.93741538 C0.794769231,5.87218462 0.775692308,5.80756923 0.761538462,5.73987692 C0.757230769,5.70849231 0.759692308,5.67710769 0.754769231,5.64695385 C0.733230769,5.55218462 0.686461538,5.45003077 0.671076923,5.36510769 C0.651384615,5.26233846 0.642769231,5.15156923 0.626153846,5.05433846 C0.610153846,4.96818462 0.582461538,4.87526154 0.556615385,4.79341538 C0.536307692,4.70787692 0.535076923,4.62910769 0.513538462,4.55033846 C0.496307692,4.48695385 0.476,4.41987692 0.458769231,4.35218462 C0.440307692,4.28141538 0.450769231,4.20633846 0.436615385,4.13556923 C0.422461538,4.07710769 0.406461538,4.01926154 0.391076923,3.95956923 C0.373846154,3.89987692 0.389846154,3.84572308 0.373846154,3.78972308 C0.320923077,3.60449231 0.293846154,3.3928 0.242153846,3.20326154 C0.206461538,3.07710769 0.213846154,2.93495385 0.177538462,2.80449231 C0.167076923,2.7608 0.171384615,2.72510769 0.159692308,2.68203077 C0.152923077,2.65987692 0.146769231,2.63833846 0.143076923,2.61618462 L0.143076923,2.61618462 C0.141230769,2.61187692 0.141230769,2.61003077 0.141230769,2.60756923 C0.140615385,2.60572308 0.139384615,2.60326154 0.139384615,2.59956923 C0.138769231,2.59526154 0.137538462,2.59095385 0.137538462,2.5848 C0.128307692,2.53741538 0.123384615,2.48818462 0.117846154,2.43649231 L0.117846154,2.43649231 C0.103076923,2.32264615 0.0913846154,2.2088 0.0766153846,2.09556923 C0.0673846154,2.03156923 0.0476923077,1.96572308 0.0384615385,1.89864615 C0.0261538462,1.77926154 0.0378461538,1.66356923 0.0230769231,1.54726154 C0.0156923077,1.48326154 -0.00461538462,1.34910769 0.000923076923,1.24695385 C0.00461538461,1.20449231 -0.00215384615,1.1528 0.0433846154,1.1528 C0.0889230769,1.1528 0.0907692308,1.21495385 0.0950769231,1.25003077 C0.103692308,1.30787692 0.101230769,1.3688 0.107384615,1.43526154 C0.119692308,1.53926154 0.141230769,1.6248 0.156,1.72510769 C0.164615385,1.78849231 0.175692308,1.85187692 0.175692308,1.91403077 C0.188615385,2.00695385 0.199076923,2.10356923 0.212,2.19833846 C0.223692308,2.27710769 0.272307692,2.47649231 0.290153846,2.57495385 C0.291384615,2.58233846 0.293846154,2.58726154 0.293846154,2.59218462 C0.305538462,2.67156923 0.305538462,2.7528 0.316615385,2.83464615 C0.324615385,2.88695385 0.346153846,2.93864615 0.361538462,2.98849231 C0.376307692,3.03772308 0.379384615,3.09372308 0.388,3.14049231 C0.394153846,3.20941538 0.397230769,3.27956923 0.408923077,3.34849231 C0.452,3.53987692 0.526461538,3.77495385 0.574461538,3.96572308 C0.582461538,4.01495385 0.586769231,4.06049231 0.591692308,4.10849231 C0.596,4.13556923 0.591692308,4.16141538 0.596,4.19710769 C0.610153846,4.26972308 0.636615385,4.33987692 0.653230769,4.41372308 C0.665538462,4.47341538 0.666153846,4.53187692 0.679076923,4.59649231 C0.702461538,4.70541538 0.747384615,4.83218462 0.779384615,4.93803077 C0.790461538,4.98110769 0.787384615,5.01618462 0.797846154,5.0568 C0.839076923,5.18910769 0.878461538,5.35218462 0.921538462,5.49064615 C0.935076923,5.54172308 0.938153846,5.59833846 0.952307692,5.65372308 C0.978153846,5.7368 1.00830769,5.82603077 1.03415385,5.91403077 C1.04707692,5.95895385 1.044,5.99772308 1.05384615,6.04387692 C1.08030769,6.13618462 1.09323077,6.24018462 1.11907692,6.33433846 C1.12769231,6.37126154 1.12769231,6.40326154 1.13507692,6.43649231 C1.16646154,6.54110769 1.20707692,6.62972308 1.23969231,6.73864615 C1.26061538,6.81987692 1.26738462,6.90664615 1.28830769,6.99095385 C1.308,7.04449231 1.34369231,7.09310769 1.36769231,7.1448 C1.38553846,7.18295385 1.38553846,7.22295385 1.40153846,7.26787692 C1.43230769,7.35218462 1.46492308,7.43772308 1.49569231,7.52387692 C1.508,7.56387692 1.51107692,7.60449231 1.52338462,7.64695385 C1.548,7.71403077 1.57507692,7.77926154 1.59538462,7.8488 C1.61446154,7.92326154 1.59169231,7.99772308 1.61630769,8.06172308 C1.63969231,8.12203077 1.68584615,8.1688 1.70984615,8.22418462 C1.74246154,8.29372308 1.73630769,8.3848 1.76215385,8.45495385 C1.80215385,8.56326154 1.86430769,8.65433846 1.90246154,8.76018462 C1.916,8.80203077 1.924,8.85064615 1.93630769,8.8968 C1.95476923,8.94541538 1.97630769,8.99956923 1.99169231,9.05372308 C2.02061538,9.15403077 2.02553846,9.23833846 2.06430769,9.32633846 C2.09138462,9.38418462 2.132,9.43587692 2.15784615,9.49741538 C2.17815385,9.55156923 2.18553846,9.60633846 2.20461538,9.66110769 C2.236,9.74787692 2.28461538,9.82172308 2.32030769,9.89926154 C2.34738462,9.9608 2.35353846,10.0217231 2.38123077,10.0820308 C2.41446154,10.1571077 2.46369231,10.2235692 2.49323077,10.3041846 C2.54246154,10.4408 2.55415385,10.5829538 2.61076923,10.7084923 C2.73323077,10.9854154 2.88153846,11.2500308 3.00769231,11.5263385 C3.03784615,11.5921846 3.04215385,11.6734154 3.07476923,11.7423385 C3.11784615,11.8395692 3.17815385,11.9238769 3.22615385,12.0149538 C3.24276923,12.0451077 3.24769231,12.0734154 3.26,12.1041846 C3.27784615,12.1466462 3.30553846,12.1928 3.32707692,12.2321846 C3.40584615,12.3749538 3.42369231,12.5829538 3.53630769,12.6912615 C3.56892308,12.7244923 3.62861538,12.7749538 3.65630769,12.7669538 C3.66430769,12.7632615 3.66430769,12.7571077 3.66615385,12.7515692 C3.68030769,12.7134154 3.64584615,12.6131077 3.63538462,12.5903385 C3.59353846,12.4968 3.532,12.4020308 3.48769231,12.3066462 C3.46615385,12.2586462 3.45938462,12.2094154 3.43846154,12.1601846 C3.40584615,12.0789538 3.36276923,12.0069538 3.32707692,11.9331077 C3.28215385,11.8358769 3.26246154,11.7349538 3.22,11.6395692 C3.13815385,11.4691077 3.04153846,11.2918769 2.964,11.1164923 C2.94676923,11.0789538 2.94492308,11.0426462 2.92953846,11.0026462 C2.90553846,10.9380308 2.876,10.8678769 2.85015385,10.8051077 C2.82246154,10.7380308 2.81692308,10.6752615 2.78923077,10.6131077 C2.75907692,10.5435692 2.71538462,10.4777231 2.684,10.4088 C2.64707692,10.3331077 2.61323077,10.2506462 2.58615385,10.1718769 C2.57261538,10.1238769 2.56892308,10.0808 2.55169231,10.0291077 C2.51230769,9.9208 2.44953846,9.82418462 2.41753846,9.70849231 C2.41015385,9.66972308 2.40153846,9.6328 2.39292308,9.59464615 C2.36646154,9.50603077 2.34553846,9.41618462 2.31046154,9.32756923 C2.28153846,9.25003077 2.22861538,9.19095385 2.20092308,9.11587692 C2.17446154,9.04633846 2.18430769,8.95895385 2.15907692,8.89310769 C2.12769231,8.81803077 2.08584615,8.74295385 2.05569231,8.66049231 C2.02492308,8.56387692 2.02307692,8.4728 1.99169231,8.37926154 C1.96030769,8.29187692 1.908,8.21741538 1.87538462,8.12756923 C1.84523077,8.04695385 1.83292308,7.93803077 1.812,7.85556923 C1.79784615,7.80572308 1.81261538,7.75833846 1.796,7.71403077 C1.77815385,7.67156923 1.75538462,7.63833846 1.73815385,7.58972308 C1.71107692,7.51587692 1.71661538,7.44756923 1.69692308,7.37741538 C1.65323077,7.25126154 1.60707692,7.10356923 1.56892308,6.96818462 C1.55169231,6.9048 1.56215385,6.84141538 1.54369231,6.78541538 C1.52092308,6.72326154 1.49446154,6.65864615 1.476,6.59341538 C1.46307692,6.53372308 1.46307692,6.47833846 1.452,6.41864615 C1.44030769,6.37433846 1.41815385,6.33372308 1.40338462,6.28633846 C1.39292308,6.24387692 1.39661538,6.20387692 1.38738462,6.16449231 C1.37815385,6.11095385 1.35415385,6.05741538 1.34246154,6.00572308 C1.33507692,5.95895385 1.33569231,5.9128 1.32892308,5.86664615 C1.31538462,5.81495385 1.28092308,5.76941538 1.26676923,5.72018462 C1.24892308,5.66233846 1.24461538,5.59895385 1.22861538,5.54049231 C1.21015385,5.47895385 1.172,5.41864615 1.15292308,5.35403077 C1.12338462,5.24264615 1.10553846,5.12941538 1.08338462,5.01926154 C1.07292308,4.96695385 1.07292308,4.91649231 1.06246154,4.8648 C1.05015385,4.79895385 1.02676923,4.7368 1.01076923,4.66787692 C1.00461538,4.6248 1.00707692,4.58910769 0.996615385,4.53372308 C0.981846154,4.45987692 0.950461538,4.39587692 0.935076923,4.31895385 C0.925846154,4.26910769 0.928307692,4.23956923 0.919692308,4.18910769 C0.913538462,4.13803077 0.880923077,3.98418462 0.872923077,3.94418462 L0.872923077,3.94418462 L0.86,3.84756923 C0.853846154,3.81126154 0.812615385,3.66726154 0.808307692,3.63772308 C0.804615385,3.60633846 0.810153846,3.59033846 0.805230769,3.54787692 C0.800923077,3.50787692 0.784923077,3.43403077 0.775692308,3.37003077 C0.764615385,3.30603077 0.764615385,3.20510769 0.757230769,3.1688 C0.750461538,3.13187692 0.693230769,3.01926154 0.671076923,2.9368 C0.653230769,2.87649231 0.665538462,2.82110769 0.649538462,2.76018462 C0.629846154,2.68203077 0.611384615,2.60572308 0.591692308,2.53310769 C0.582461538,2.48018462 0.591692308,2.41926154 0.582461538,2.36326154 C0.559076923,2.27895385 0.530769231,2.18664615 0.547384615,2.08756923 C0.564,1.99403077 0.524,1.90972308 0.504923077,1.84633846 C0.496307692,1.81618462 0.492,1.78418462 0.490769231,1.75156923 L0.490769231,1.75156923 L0.490769231,1.66541538 C0.487692308,1.63218462 0.483384615,1.62172308 0.471692308,1.57987692 C0.463076923,1.53864615 0.460615385,1.53126154 0.460615385,1.50541538 C0.460615385,1.4568 0.461846154,1.42295385 0.463076923,1.38849231 C0.465538462,1.36449231 0.452615385,1.31649231 0.446461538,1.28387692 L0.436307692,1.2388 L0.436307692,1.2388 L0.428,1.19649231 C0.422461538,1.14603077 0.42,1.13433846 0.415692308,1.08203077 C0.415692308,1.04941538 0.413230769,0.953415385 0.405230769,0.916492308 C0.384923077,0.842646154 0.379384615,0.785415385 0.361538462,0.712184615 C0.345538462,0.649415385 0.359076923,0.622338462 0.394153846,0.615569231 Z M133.800308,15.8928615 L139.780615,15.8996308 C140.888308,15.8996308 141.735692,15.9100923 142.493846,16.1051692 C145.894462,16.9611692 146.396,19.3839385 146.396,20.7427077 C146.396,23.1987077 144.391077,25.7470154 141.026769,25.7470154 C139.562154,25.7470154 138.602769,25.4245538 138.128308,25.2134769 L138.128308,25.2134769 L138.128308,29.1051692 C138.128308,30.8996308 139.143692,31.0497846 139.143692,31.0497846 L139.143692,31.0497846 L139.244615,31.1562462 L133.800308,31.1562462 L133.899385,31.0497846 C133.899385,31.0497846 134.921538,30.8996308 134.921538,29.1051692 L134.921538,29.1051692 L134.921538,17.9390154 C134.921538,16.1433231 133.899385,15.9919385 133.899385,15.9919385 L133.899385,15.9919385 L133.800308,15.8928615 Z M204.099385,15.8928615 L203.997231,15.9919385 C203.997231,15.9919385 202.978769,16.1433231 202.978769,17.9390154 L202.978769,29.1051692 C202.978769,30.8996308 203.997231,31.0497846 203.997231,31.0497846 L204.099385,31.1562462 L198.648308,31.1562462 L198.750462,31.0497846 C198.750462,31.0497846 199.768923,30.8996308 199.768923,29.1051692 L199.768923,17.9390154 C199.768923,16.1433231 198.750462,15.9919385 198.750462,15.9919385 L198.648308,15.8928615 L204.099385,15.8928615 Z M196.796615,15.7205538 L196.796615,18.4454769 L196.692615,18.3630154 C196.692615,18.3630154 195.943692,17.3316308 194.146154,17.3316308 L190.280923,17.3316308 L190.280923,22.2091692 L193.495077,22.2091692 C195.290769,22.2091692 195.442154,21.4245538 195.442154,21.4245538 L195.548615,21.3187077 L195.548615,24.5980923 L195.442154,24.4922462 C195.442154,24.4922462 195.290769,23.7027077 193.495077,23.7027077 L190.280923,23.7027077 L190.280923,29.1051692 C190.280923,30.8996308 191.295692,31.0497846 191.295692,31.0497846 L191.401538,31.1562462 L185.955385,31.1562462 L186.055077,31.0497846 C186.055077,31.0497846 187.071692,30.8996308 187.071692,29.1051692 L187.071692,17.9439385 C187.071692,16.1500923 186.055077,15.9987077 186.055077,15.9987077 L185.955385,15.8928615 L194.738769,15.8928615 C196.536923,15.8928615 196.796615,15.7205538 196.796615,15.7205538 Z M183.125231,15.8928615 L183.021846,15.9919385 C183.021846,15.9919385 181.998462,16.1433231 181.998462,17.9390154 L181.998462,29.1051692 C181.998462,30.8996308 183.021846,31.0497846 183.021846,31.0497846 L183.125231,31.1562462 L177.671692,31.1562462 L177.777538,31.0497846 C177.777538,31.0497846 178.792923,30.8996308 178.792923,29.1051692 L178.792923,17.9390154 C178.792923,16.1433231 177.777538,15.9919385 177.777538,15.9919385 L177.671692,15.8928615 L183.125231,15.8928615 Z M78.7996923,15.7224 L78.7941538,18.7568615 L78.6876923,18.6793231 C78.6876923,18.6793231 77.8249231,17.3642462 76.0286154,17.3642462 L76.0286154,17.3642462 L73.5301538,17.3642462 L73.516,29.0854769 C73.516,30.8848615 74.5356923,31.0374769 74.5356923,31.0374769 L74.5356923,31.0374769 L74.6378462,31.1408615 L69.188,31.1408615 L69.2938462,31.0374769 C69.2938462,31.0374769 70.3061538,30.8848615 70.3061538,29.0854769 L70.3061538,29.0854769 L70.3061538,17.3642462 L67.7467692,17.3642462 C65.9553846,17.3642462 65.1363077,18.6793231 65.1363077,18.6793231 L65.1363077,18.6793231 L65.0292308,18.7568615 L65.0378462,15.7224 C65.0378462,15.7224 65.2889231,15.8947077 67.0876923,15.8947077 L67.0876923,15.8947077 L76.7467692,15.8947077 C78.5461538,15.8947077 78.7996923,15.7224 78.7996923,15.7224 L78.7996923,15.7224 Z M96.8193846,15.8928615 L96.7129231,15.9919385 C96.7129231,15.9919385 95.6950769,16.1217846 95.6950769,17.9187077 C95.6950769,19.4978219 95.6998293,25.5366064 95.7009814,28.1976881 L95.7012308,29.0854769 C95.7012308,30.8848615 96.7221538,31.0374769 96.7221538,31.0374769 L96.7221538,31.0374769 L96.8273846,31.1408615 L91.372,31.1408615 L91.4784615,31.0374769 C91.4784615,31.0374769 92.4963077,30.8848615 92.4963077,29.0854769 L92.4963077,29.0854769 L92.4963077,23.7980923 L84.9941538,23.7980923 L84.9941538,29.0854769 C84.9941538,30.8848615 86.0181538,31.0374769 86.0181538,31.0374769 L86.0181538,31.0374769 L86.1172308,31.1408615 L80.6704615,31.1408615 L80.7775385,31.0374769 C80.7775385,31.0374769 81.7923077,30.8848615 81.7923077,29.0854769 L81.7923077,29.0854769 L81.7923077,17.9187077 C81.7923077,16.1217846 80.7775385,15.9987077 80.7775385,15.9987077 L80.7775385,15.9987077 L80.6704615,15.8947077 L86.1172308,15.8947077 L86.0181538,15.9987077 C86.0181538,15.9987077 84.9941538,16.1217846 84.9941538,17.9187077 L84.9941538,17.9187077 L84.9941538,22.3014769 L92.4963077,22.3014769 C92.4963077,22.3014769 92.4899855,20.5304337 92.4878055,18.9012099 L92.4870769,17.9187077 C92.4870769,16.1217846 91.4667692,15.9919385 91.4667692,15.9919385 L91.4667692,15.9919385 L91.3658462,15.8928615 L96.8193846,15.8928615 Z M117.845231,15.8947077 L117.748,15.9987077 C117.748,15.9987077 116.394769,16.3617846 117.409538,17.9439385 C117.903692,18.7119385 119.381231,20.8731692 120.755385,22.9494769 C122.122769,20.8731692 123.621846,18.7242462 124.121538,17.9568615 C125.136308,16.3771692 123.790462,15.9987077 123.790462,15.9987077 L123.790462,15.9987077 L123.683385,15.8947077 L128.465538,15.8947077 L128.360923,15.9987077 C128.360923,15.9987077 127.004,16.1630154 125.824308,17.9568615 C125.320308,18.7180923 122.766462,22.2651692 121.393538,24.3439385 C121.393538,26.0918899 121.399212,27.7180872 121.401003,28.6429983 L121.401538,29.0854769 C121.401538,30.8848615 122.416923,31.0374769 122.416923,31.0374769 L122.416923,31.0374769 L122.520923,31.1408615 L117.070462,31.1408615 L117.173231,31.0374769 C117.173231,31.0374769 118.192308,30.8848615 118.192308,29.0854769 L118.192308,29.0854769 L118.192308,24.3439385 C116.821231,22.2651692 114.271077,18.7027077 113.770769,17.9439385 C112.579385,16.1500923 111.669231,15.9987077 111.669231,15.9987077 L111.669231,15.9987077 L111.567692,15.8947077 L117.845231,15.8947077 Z M106.216308,15.1279385 L112.924,29.0774769 C113.858769,31.0190154 115.017538,31.0245538 115.017538,31.0245538 L115.017538,31.0245538 L115.121538,31.1316308 L108.844,31.1316308 L108.947385,31.0245538 C108.947385,31.0245538 110.223692,30.7728615 109.410769,29.0774769 L109.410769,29.0774769 L108.253231,26.6147077 L102.539385,26.6147077 L101.344308,29.0774769 C100.536308,30.7728615 101.812615,31.0245538 101.812615,31.0245538 L101.812615,31.0245538 L101.911077,31.1316308 L97.3535385,31.1316308 L97.4575385,31.0245538 C97.4575385,31.0245538 98.5566154,30.9839385 99.5535385,29.0774769 L99.5535385,29.0774769 L106.216308,15.1279385 Z M152.753538,15.1279385 L159.456923,29.0774769 C160.397846,31.0190154 161.551692,31.0245538 161.551692,31.0245538 L161.551692,31.0245538 L161.657538,31.1316308 L155.376923,31.1316308 L155.482154,31.0245538 C155.482154,31.0245538 156.755385,30.7728615 155.946769,29.0774769 L155.946769,29.0774769 L154.786769,26.6147077 L149.079692,26.6147077 L147.880308,29.0774769 C147.069231,30.7728615 148.349846,31.0245538 148.349846,31.0245538 L148.349846,31.0245538 L148.445231,31.1316308 L143.892,31.1316308 L143.995385,31.0245538 C143.995385,31.0245538 145.093846,30.9839385 146.091385,29.0774769 L146.091385,29.0774769 L152.753538,15.1279385 Z M58.196,15.1279385 L64.9049231,29.0774769 C65.8366154,31.0190154 66.996,31.0245538 66.996,31.0245538 L66.996,31.0245538 L67.1049231,31.1316308 L60.8236923,31.1316308 L60.9233846,31.0245538 C60.9233846,31.0245538 62.196,30.7728615 61.3904615,29.0774769 L61.3904615,29.0774769 L60.2310769,26.6147077 L54.5203077,26.6147077 L53.3246154,29.0774769 C52.5147692,30.7728615 53.788,31.0245538 53.788,31.0245538 L53.788,31.0245538 L53.8963077,31.1316308 L49.3356923,31.1316308 L49.4341538,31.0245538 C49.4341538,31.0245538 50.5369231,30.9839385 51.5338462,29.0774769 L51.5338462,29.0774769 L58.196,15.1279385 Z M105.519692,20.3716308 L103.165231,25.3211692 L107.665538,25.3211692 L105.519692,20.3716308 Z M152.053846,20.3716308 L149.702462,25.3211692 L154.202769,25.3211692 L152.053846,20.3716308 Z M57.4981538,20.3716308 L55.1436923,25.3211692 L59.6446154,25.3211692 L57.4981538,20.3716308 Z M139.107922,17.3515022 L138.128308,17.3513231 L138.128308,23.8282462 C138.5,24.0005538 139.248923,24.2848615 139.964,24.2848615 C142.444,24.2848615 143.341231,22.1882462 143.341231,20.7784 C143.341231,19.0534769 142.613846,17.9568615 141.173846,17.5304 C140.629231,17.3513231 139.722154,17.3513231 138.844,17.3513231 Z M9.09916346,15.0579442 L9.06861538,15.0611077 C9.05507692,15.0783385 9.11107692,15.1952615 9.124,15.2149538 C9.17323077,15.2832615 9.28523077,15.4291077 9.38430769,15.4161846 C9.39353846,15.4161846 9.40769231,15.4088 9.40646154,15.3921846 C9.37015385,15.2494154 9.30923077,15.1675692 9.23476923,15.1078769 C9.20461538,15.0832615 9.08953846,15.0444923 9.06861538,15.0611077 Z M3.13261538,12.9860308 C3.12461538,12.9829538 3.11969231,12.9903385 3.11538462,12.9989538 C3.11046154,13.0217231 3.11538462,13.0894154 3.12707692,13.1214154 C3.14861538,13.1866462 3.17569231,13.2531077 3.19723077,13.3152615 C3.20646154,13.3521846 3.21753846,13.3866462 3.22430769,13.4241846 C3.26492308,13.5251077 3.31907692,13.6112615 3.37753846,13.6906462 C3.39907692,13.7183385 3.43046154,13.7454154 3.45076923,13.7755692 C3.48707692,13.8315692 3.5,13.8986462 3.53015385,13.9620308 C3.55292308,14.0118769 3.59169231,14.0586462 3.62061538,14.1004923 C3.66061538,14.1657231 3.69507692,14.2321846 3.73384615,14.2949538 C3.78184615,14.3688 3.81630769,14.5337231 3.92461538,14.5374154 C3.94184615,14.5361846 3.95046154,14.5220308 3.95476923,14.5109538 C3.96338462,14.4721846 3.95969231,14.4106462 3.94492308,14.3755692 C3.90984615,14.2912615 3.85261538,14.2235692 3.81323077,14.1368 C3.77753846,14.0611077 3.74676923,13.9700308 3.7,13.8998769 C3.66615385,13.8457231 3.61323077,13.8020308 3.58184615,13.7466462 C3.54246154,13.6734154 3.53076923,13.5786462 3.49630769,13.5035692 C3.45569231,13.4223385 3.38369231,13.3577231 3.34,13.2777231 C3.29692308,13.2008 3.21753846,12.9971077 3.13261538,12.9860308 Z M6.20830769,12.9614154 C6.19476923,12.9589538 6.20769231,13.0174154 6.21076923,13.0420308 C6.23107692,13.2395692 6.32584615,13.3195692 6.41015385,13.4328 C6.50184615,13.5601846 6.58861538,13.7054154 6.67538462,13.8352615 C6.72276923,13.9041846 6.88953846,14.0961846 6.95846154,14.0709538 C6.97876923,14.0611077 6.94923077,13.9497231 6.93938462,13.9201846 C6.91846154,13.8629538 6.87415385,13.8248 6.84092308,13.7817231 C6.77815385,13.7035692 6.708,13.6278769 6.65076923,13.5491077 C6.60276923,13.4832615 6.58430769,13.4014154 6.53876923,13.3318769 C6.50738462,13.2838769 6.46923077,13.2395692 6.43723077,13.1928 C6.38984615,13.1288 6.30123077,12.9675692 6.20830769,12.9614154 Z M6.01323077,13.6537231 C6.004,13.6537231 5.99784615,13.6568 5.99907692,13.6709538 C6.00153846,13.8192615 6.07230769,13.9201846 6.15907692,13.9835692 C6.18984615,14.0075692 6.21323077,14.0401846 6.26430769,14.0444923 C6.27907692,14.0432615 6.29076923,14.0315692 6.29138462,14.0032615 C6.29569231,13.9614154 6.26861538,13.9023385 6.25815385,13.8814154 C6.21815385,13.8081846 6.11415385,13.6518769 6.01323077,13.6537231 Z M3.19467806,10.4078883 L3.18553846,10.4131077 C3.16030769,10.4888 3.19723077,10.6001846 3.22369231,10.6604923 C3.29015385,10.8020308 3.36215385,10.9614154 3.42676923,11.1041846 C3.44769231,11.1484923 3.44892308,11.1921846 3.46615385,11.2383385 C3.48153846,11.2789538 3.50492308,11.3251077 3.52523077,11.3620308 C3.564,11.4358769 3.59353846,11.5601846 3.69384615,11.5663385 C3.70923077,11.5638769 3.71415385,11.5398769 3.71169231,11.5011077 C3.71107692,11.4758769 3.71169231,11.4297231 3.70430769,11.3977231 C3.68953846,11.3534154 3.67907692,11.3097231 3.66,11.2678769 C3.62184615,11.1921846 3.564,11.1263385 3.52892308,11.0518769 C3.47415385,10.9386462 3.46,10.8081846 3.40769231,10.6906462 C3.38246154,10.6358769 3.34061538,10.5860308 3.30861538,10.5361846 C3.29446154,10.5177231 3.29138462,10.4955692 3.27784615,10.4746462 C3.25815385,10.4524923 3.24338462,10.4401846 3.22184615,10.4198769 C3.212,10.4094154 3.18984615,10.4026462 3.18553846,10.4131077 Z" id="Combined-Shape" fill="#424242"></path>
                <g id="Group-6" transform="translate(33.846154, 14.771938)"></g>
            </g>
        </g>
    </g>
</svg>