<svg xmlns="http://www.w3.org/2000/svg" width="28" height="120" viewBox="0 0 28 120">
    <g fill="none" fill-rule="evenodd">
        <path fill="#FF5722" d="M5 0h23v120H5c-2.761 0-5-2.239-5-5V5c0-2.761 2.239-5 5-5z"/>
        <path fill="#FFF" d="M20 6c1.105 0 2 .895 2 2v12c0 1.105-.895 2-2 2H8c-1.105 0-2-.895-2-2V8c0-1.105.895-2 2-2h12zm-1.197 3c-1.589.697-2.71 1.499-3.364 2.407-.653.91-.98 2.149-.98 3.72v4.268H20v-5.146h-2.65c.043-.62.25-1.158.625-1.612.374-.455 1.048-.911 2.025-1.37zm-6.459 0c-1.588.697-2.71 1.499-3.363 2.407-.654.91-.981 2.149-.981 3.72v4.268h5.542v-5.146h-2.65c.043-.62.25-1.158.624-1.612.373-.455 1.049-.911 2.026-1.37zM17.17 96.862c1.568 1.07 2.354 2.545 2.354 4.427 0 .779-.14 1.517-.417 2.213-.279.695-.674 1.305-1.187 1.828-.512.523-1.127.934-1.846 1.228-.717.295-1.488.442-2.313.442-.823 0-1.594-.147-2.313-.442-.718-.294-1.333-.705-1.845-1.228s-.907-1.133-1.186-1.828c-.278-.696-.417-1.434-.417-2.213 0-.646.088-1.233.267-1.763.178-.528.443-1.018.793-1.47.351-.451.782-.848 1.295-1.194l.751 1.42c-.478.3-.869.719-1.169 1.253-.3.534-.45 1.119-.45 1.754 0 .41.07.84.208 1.285.14.446.403.894.793 1.345.39.45.883.79 1.478 1.018.596.229 1.194.343 1.795.343.602 0 1.167-.1 1.696-.301.53-.2.985-.484 1.37-.851.384-.367.681-.796.893-1.286.212-.49.317-1.008.317-1.553 0-.635-.15-1.22-.45-1.754-.3-.534-.69-.952-1.17-1.253l.752-1.42zm2.154-8.584v1.503H14.13c-.624 0-1.07.15-1.336.45-.268.302-.401.725-.401 1.27 0 .434.114.855.342 1.26.229.408.504.728.827.96h5.762v1.505H8.184v-1.504h4.209c-.357-.29-.67-.695-.935-1.218-.268-.524-.402-1.07-.402-1.637 0-1.726.858-2.59 2.573-2.59h5.695zm0-8.886v1.503h-.886c.345.312.613.696.802 1.153.19.456.284.952.284 1.487 0 .311-.056.637-.167.976-.112.34-.28.65-.51.928-.228.278-.512.498-.85.659-.34.161-.722.242-1.146.242-.322 0-.645-.052-.968-.158-.323-.106-.624-.301-.902-.585s-.476-.62-.593-1.011c-.117-.389-.175-.74-.175-1.051 0-.546.092-1.047.276-1.503.183-.457.448-.835.793-1.137h-1.337c-.233 0-.475.062-.726.185-.25.122-.459.344-.626.668-.167.323-.25.696-.25 1.119 0 .901.356 1.709 1.068 2.421l-1.036.652c-.879-.891-1.319-1.993-1.319-3.308 0-.69.112-1.274.334-1.754.223-.477.54-.845.952-1.101.412-.256.924-.385 1.537-.385h5.445zm-1.77 1.503h-1.37c-.29.224-.515.519-.677.886-.162.367-.242.762-.242 1.185 0 .257.05.53.15.819.1.29.282.535.543.735.262.2.566.301.91.301.224 0 .46-.059.71-.176.251-.117.462-.328.635-.635.173-.305.26-.653.26-1.044 0-.423-.082-.818-.244-1.185-.16-.367-.386-.662-.676-.886zm1.452-7.699c.345.368.518.891.518 1.57 0 .457-.098.838-.292 1.145-.195.305-.452.511-.769.617-.317.106-.626.16-.927.16h-4.96v1.335h-1.32v-1.336H9.051v-1.503h2.205v-1.637h1.32v1.637h4.626c.29 0 .527-.069.71-.209.184-.14.276-.33.276-.576 0-.156-.034-.312-.1-.468-.068-.155-.14-.272-.217-.35l1.135-.385zm.318-15.114v1.62l-8.551 6.162h8.55v1.67H8.184v-1.72l8.352-6.062H8.184v-1.67h11.14zm-4.042-10.088c.579 0 1.127.095 1.645.284.518.189.97.462 1.36.818.39.357.694.79.912 1.303.217.512.325 1.068.325 1.67 0 .602-.108 1.158-.325 1.67-.218.513-.521.946-.911 1.303-.39.356-.843.629-1.361.818-.518.189-1.066.284-1.645.284-.568 0-1.111-.095-1.628-.284-.52-.19-.971-.462-1.362-.818-.39-.357-.693-.79-.91-1.303-.217-.512-.326-1.068-.326-1.67 0-.602.109-1.158.326-1.67.217-.513.52-.946.91-1.303.39-.356.843-.63 1.362-.818.517-.19 1.06-.284 1.628-.284zm0 1.57c-.48 0-.952.097-1.42.292-.467.194-.83.492-1.085.894-.256.4-.384.84-.384 1.319s.117.9.35 1.27c.234.367.57.665 1.01.893.44.228.95.342 1.529.342.379 0 .746-.056 1.102-.167.357-.11.668-.275.935-.492.268-.218.479-.485.635-.802.156-.317.234-.665.234-1.044 0-.77-.284-1.378-.852-1.83-.567-.45-1.252-.675-2.054-.675zm-4.025-14.565l8.067 2.54v1.553l-6.196 1.987 6.196 1.988v1.553l-8.067 2.538V45.59l6.146-1.838-6.146-2.02v-1.303l6.146-2.02-6.146-1.838V35z"/>
    </g>
</svg>
