<?xml version="1.0" encoding="UTF-8"?>
<svg width="152px" height="20px" viewBox="0 0 152 20" version="1.1" xmlns="http://www.w3.org/2000/svg" xmlns:xlink="http://www.w3.org/1999/xlink">
    <!-- Generator: Sketch 59.1 (86144) - https://sketch.com -->
    <title>Group 32</title>
    <desc>Created with Sketch.</desc>
    <g id="Page-1" stroke="none" stroke-width="1" fill="none" fill-rule="evenodd">
        <g id="Desktop-HD" transform="translate(-72.000000, -4771.000000)" fill="#212121">
            <g id="Group-32" transform="translate(72.000000, 4771.000000)">
                <path d="M10.4150833,-0.000166666666 C10.57425,0.0165 10.73425,0.0331666667 10.89425,0.0473333333 C12.87425,0.224833333 14.6484167,0.929833333 16.2009167,2.16566667 C17.96675,3.56983333 19.1325833,5.374 19.6909167,7.56316667 C19.9709167,8.66233333 20.0550833,9.77733333 19.94925,10.9081667 C19.7434167,13.0948333 18.91425,15.0148333 17.45425,16.6506667 C15.9909167,18.2906667 14.1709167,19.3356667 12.01675,19.789 C11.1034167,19.9815 10.1784167,20.0448333 9.24758333,19.969 C7.06091667,19.7906667 5.12508333,18.9973333 3.46425,17.5606667 C1.87341667,16.1848333 0.815916667,14.469 0.30175,12.4265 C0.0275833333,11.3415 -0.06325,10.239 0.0425833333,9.12066667 C0.287583333,6.5365 1.36758333,4.36066667 3.27425,2.60733333 C4.70008333,1.29733333 6.38175,0.4765 8.29675,0.155666667 C8.69508333,0.089 9.10008333,0.064 9.50258333,0.0198333333 C9.52758333,0.0165 9.55175,0.0065 9.57758333,-0.000166666666 L9.57758333,-0.000166666666 Z M10.1834167,2.04316667 C5.73508333,1.94316667 2.12091667,5.474 2.04175,9.8365 C1.96091667,14.2515 5.45591667,17.884 9.84341667,17.9573333 C14.24425,18.0373333 17.8284167,14.5631667 17.9525833,10.2356667 C18.0809167,5.77316667 14.5534167,2.1415 10.1834167,2.04316667 Z M52.8515833,7.34433333 L54.43575,12.4218333 L55.9574167,7.34433333 L57.7490833,7.34433333 L54.7749167,15.9635 C54.31825,17.2226667 53.54325,17.8518333 52.45075,17.8518333 C52.20575,17.8518333 51.93575,17.8101667 51.64075,17.7268333 L51.64075,17.7268333 L51.64075,16.4201667 L51.9590833,16.4401667 C52.3840833,16.4401667 52.7024167,16.3635 52.9174167,16.2093333 C53.1315833,16.0543333 53.3015833,15.796 53.42575,15.431 L53.42575,15.431 L53.66825,14.7893333 L51.0390833,7.34433333 L52.8515833,7.34433333 Z M70.0131667,7.20625 C70.8665,7.20625 71.5373333,7.50291667 72.0265,8.09875 L72.0265,8.09875 L72.1023333,7.34458333 L73.6173333,7.34458333 L73.6173333,14.60125 C73.6173333,15.5829167 73.3115,16.3570833 72.7006667,16.9254167 C72.0898333,17.4920833 71.2656667,17.77625 70.2281667,17.77625 C69.679,17.77625 69.1431667,17.6620833 68.6198333,17.4329167 C68.0965,17.2054167 67.699,16.9070833 67.4265,16.5379167 L67.4265,16.5379167 L68.2215,15.5270833 C68.7381667,16.14125 69.3748333,16.4479167 70.1306667,16.4479167 C70.689,16.4479167 71.1298333,16.29625 71.4523333,15.9945833 C71.7748333,15.6929167 71.9365,15.24875 71.9365,14.6629167 L71.9365,14.6629167 L71.9365,14.15875 C71.4523333,14.6970833 70.8065,14.9670833 69.9998333,14.9670833 C69.124,14.9670833 68.4073333,14.61875 67.8515,13.9229167 C67.2965,13.2270833 67.0181667,12.2620833 67.0181667,11.0320833 C67.0181667,9.86958333 67.2915,8.94125 67.8381667,8.24708333 C68.3848333,7.55291667 69.1098333,7.20625 70.0131667,7.20625 Z M47.5465,7.206 C48.459,7.206 49.1748333,7.546 49.694,8.22683333 C50.2123333,8.90683333 50.4723333,9.851 50.4723333,11.0593333 L50.4723333,11.0593333 L50.4723333,11.1626667 C50.4723333,12.3201667 50.209,13.2435 49.6831667,13.9335 C49.1581667,14.6226667 48.4523333,14.9676667 47.5665,14.9676667 C46.7465,14.9676667 46.089,14.6976667 45.5956667,14.1585 L45.5956667,14.1585 L45.5956667,17.7068333 L43.9148333,17.7068333 L43.9148333,7.34433333 L45.464,7.34433333 L45.5331667,8.10516667 C46.0265,7.506 46.6973333,7.206 47.5465,7.206 Z M9.68816667,4.39816667 C12.8015,4.23816667 14.9765,6.50566667 15.4365,8.66566667 C15.3965,8.66733333 15.3581667,8.67066667 15.3206667,8.67066667 C14.509,8.67066667 13.6981667,8.66983333 12.8865,8.67316667 C12.7915,8.67316667 12.7415,8.64483333 12.6956667,8.55983333 C11.6681667,6.664 9.0915,6.36483333 7.69233333,7.99316667 C6.9115,8.90066667 6.71816667,9.95483333 7.139,11.0748333 C7.554,12.1806667 8.384,12.8365 9.54816667,13.0256667 C10.8698333,13.2406667 12.1698333,12.5373333 12.7531667,11.3298333 C12.7831667,11.2698333 12.8048333,11.2223333 12.8923333,11.2231667 C13.7256667,11.2281667 14.559,11.2256667 15.3923333,11.2265 C15.4131667,11.2265 15.4348333,11.2306667 15.4648333,11.2331667 C14.969,13.6248333 12.6498333,15.8248333 9.5415,15.5956667 C6.59733333,15.3773333 4.32566667,12.849 4.389,9.86066667 C4.45066667,6.94316667 6.77233333,4.54733333 9.68816667,4.39816667 Z M151.582417,4.20408333 L151.582417,14.8290833 L150.06075,14.8290833 L149.977417,14.0540833 C149.474917,14.66325 148.804083,14.9674167 147.964917,14.9674167 C147.089083,14.9674167 146.379083,14.6140833 145.837417,13.9099167 C145.29575,13.20325 145.024917,12.2440833 145.024917,11.0315833 C145.024917,9.87908333 145.292417,8.95241667 145.827417,8.25408333 C146.362417,7.55575 147.079083,7.20658333 147.97825,7.20658333 C148.771583,7.20658333 149.41325,7.48325 149.901583,8.03658333 L149.901583,8.03658333 L149.901583,4.20408333 L151.582417,4.20408333 Z M128.69975,7.20633333 C129.58975,7.20633333 130.31475,7.4655 130.875583,7.98383333 C131.435583,8.50383333 131.72975,9.18466667 131.75725,10.0288333 L131.75725,10.0288333 L130.173083,10.0288333 C130.15475,9.59966667 130.008917,9.24633333 129.733917,8.96966667 C129.45975,8.693 129.110583,8.55466667 128.686417,8.55466667 C128.14225,8.55466667 127.72225,8.75216667 127.42725,9.14633333 C127.13225,9.54133333 126.98225,10.1388333 126.97725,10.9413333 L126.97725,10.9413333 L126.97725,11.2113333 C126.97725,12.023 127.123917,12.6288333 127.41725,13.0271667 C127.70975,13.4263333 128.133083,13.6255 128.686417,13.6255 C129.105583,13.6255 129.453917,13.5038333 129.730583,13.2588333 C130.00725,13.0146667 130.15475,12.7121667 130.173083,12.353 L130.173083,12.353 L131.75725,12.353 C131.738917,12.818 131.593917,13.253 131.321417,13.6563333 C131.04975,14.0596667 130.680583,14.3796667 130.21475,14.6146667 C129.748917,14.8505 129.246417,14.9671667 128.70725,14.9671667 C127.65975,14.9671667 126.82975,14.6288333 126.216417,13.9505 C125.603917,13.273 125.296417,12.3363333 125.296417,11.143 L125.296417,11.143 L125.296417,10.9696667 C125.296417,9.82966667 125.601417,8.91883333 126.20975,8.233 C126.818917,7.54883333 127.648917,7.20633333 128.69975,7.20633333 Z M85.3143333,5.52533333 L85.3143333,7.3445 L86.636,7.3445 L86.636,8.5895 L85.3143333,8.5895 L85.3143333,12.7678333 C85.3143333,13.0536667 85.371,13.2603333 85.4843333,13.387 C85.5968333,13.5136667 85.7985,13.5778333 86.0893333,13.5778333 C86.2826667,13.5778333 86.4793333,13.5536667 86.6776667,13.5078333 L86.6776667,13.5078333 L86.6776667,14.8078333 C86.2943333,14.9145 85.926,14.967 85.571,14.967 C84.2793333,14.967 83.6335,14.2545 83.6335,12.8303333 L83.6335,12.8303333 L83.6335,8.5895 L82.4026667,8.5895 L82.4026667,7.3445 L83.6335,7.3445 L83.6335,5.52533333 L85.3143333,5.52533333 Z M30.5844167,4.61941667 C31.6960833,4.61941667 32.5910833,4.92025 33.2685833,5.52191667 C33.9469167,6.12358333 34.3410833,6.97608333 34.4519167,8.07775 L34.4519167,8.07775 L32.7085833,8.07775 C32.62525,7.35358333 32.4144167,6.83191667 32.0760833,6.51108333 C31.7360833,6.19025 31.2394167,6.03025 30.5844167,6.03025 C29.8235833,6.03025 29.2394167,6.30858333 28.8310833,6.86441667 C28.4235833,7.42108333 28.2144167,8.23608333 28.20525,9.31275 L28.20525,9.31275 L28.20525,10.20525 C28.20525,11.2944167 28.40025,12.12525 28.7894167,12.69775 C29.1794167,13.27025 29.75025,13.5560833 30.5019167,13.5560833 C31.1894167,13.5560833 31.70525,13.4019167 32.0510833,13.09275 C32.3969167,12.7844167 32.6160833,12.2694167 32.7085833,11.55025 L32.7085833,11.55025 L34.4519167,11.55025 C34.35025,12.6244167 33.9535833,13.46275 33.2619167,14.06525 C32.57025,14.6660833 31.65025,14.96775 30.5019167,14.96775 C29.6994167,14.96775 28.99275,14.7769167 28.3819167,14.3969167 C27.7710833,14.0160833 27.2994167,13.4760833 26.9669167,12.77525 C26.63525,12.0735833 26.4619167,11.2594167 26.4485833,10.33275 L26.4485833,10.33275 L26.4485833,9.39191667 C26.4485833,8.44275 26.6169167,7.60525 26.9535833,6.88191667 C27.2894167,6.15691667 27.77275,5.59858333 28.4019167,5.20691667 C29.0319167,4.81525 29.7594167,4.61941667 30.5844167,4.61941667 Z M39.0100833,7.20641667 C40.0200833,7.20641667 40.8400833,7.53058333 41.46925,8.18225 C42.09925,8.83141667 42.4384167,9.69391667 42.48925,10.7680833 L42.48925,10.7680833 L42.49675,11.1630833 C42.49675,11.9014167 42.35425,12.5605833 42.0709167,13.1414167 C41.7875833,13.72225 41.38175,14.1714167 40.8534167,14.4905833 C40.3259167,14.8080833 39.7159167,14.96725 39.02425,14.96725 C37.9684167,14.96725 37.1225833,14.6155833 36.4884167,13.9130833 C35.85425,13.20975 35.5375833,12.27225 35.5375833,11.1005833 L35.5375833,11.1005833 L35.5375833,11.01725 C35.5375833,10.28475 35.6825833,9.62391667 35.9734167,9.03558333 C36.26425,8.44808333 36.67175,7.99558333 37.1975833,7.67975 C37.7234167,7.36391667 38.3275833,7.20641667 39.0100833,7.20641667 Z M108.39075,7.20641667 C109.40075,7.20641667 110.22075,7.53058333 110.849917,8.18225 C111.479917,8.83141667 111.819083,9.69391667 111.869917,10.7680833 L111.869917,10.7680833 L111.877417,11.1630833 C111.877417,11.9014167 111.734917,12.5605833 111.451583,13.1414167 C111.16825,13.72225 110.762417,14.1714167 110.234083,14.4905833 C109.706583,14.8080833 109.096583,14.96725 108.404917,14.96725 C107.349083,14.96725 106.50325,14.6155833 105.869083,13.9130833 C105.234917,13.20975 104.91825,12.27225 104.91825,11.1005833 L104.91825,11.1005833 L104.91825,11.01725 C104.91825,10.28475 105.06325,9.62391667 105.354083,9.03558333 C105.644917,8.44808333 106.052417,7.99558333 106.57825,7.67975 C107.104083,7.36391667 107.70825,7.20641667 108.39075,7.20641667 Z M140.83975,7.2065 C141.858917,7.2065 142.646417,7.53066667 143.20225,8.18233333 C143.758083,8.8315 144.035583,9.7515 144.035583,10.9415 L144.035583,10.9415 L144.035583,11.6198333 L139.145583,11.6198333 C139.196417,12.2373333 139.40225,12.7265 139.76475,13.0856667 C140.126417,13.4456667 140.581417,13.6256667 141.130583,13.6256667 C141.900583,13.6256667 142.528083,13.314 143.01225,12.6923333 L143.01225,12.6923333 L143.918083,13.5565 C143.618083,14.004 143.218083,14.3506667 142.718083,14.5973333 C142.218083,14.844 141.656417,14.9673333 141.033917,14.9673333 C139.968083,14.9673333 139.10475,14.6323333 138.443083,13.9606667 C137.781417,13.2898333 137.450583,12.3965 137.450583,11.2806667 L137.450583,11.2806667 L137.450583,11.0723333 C137.450583,10.3256667 137.59475,9.65816667 137.883083,9.07066667 C138.171417,8.48233333 138.575583,8.02483333 139.096417,7.69733333 C139.618083,7.36983333 140.198917,7.2065 140.83975,7.2065 Z M115.404667,5.52533333 L115.404667,7.3445 L116.726333,7.3445 L116.726333,8.5895 L115.404667,8.5895 L115.404667,12.7678333 C115.404667,13.0536667 115.461333,13.2603333 115.574667,13.387 C115.687167,13.5136667 115.888833,13.5778333 116.179667,13.5778333 C116.373,13.5778333 116.569667,13.5536667 116.768,13.5078333 L116.768,13.5078333 L116.768,14.8078333 C116.384667,14.9145 116.016333,14.967 115.661333,14.967 C114.369667,14.967 113.723833,14.2545 113.723833,12.8303333 L113.723833,12.8303333 L113.723833,8.5895 L112.493,8.5895 L112.493,7.3445 L113.723833,7.3445 L113.723833,5.52533333 L115.404667,5.52533333 Z M135.132833,5.52533333 L135.132833,7.3445 L136.4545,7.3445 L136.4545,8.5895 L135.132833,8.5895 L135.132833,12.7678333 C135.132833,13.0536667 135.1895,13.2603333 135.302833,13.387 C135.415333,13.5136667 135.617,13.5778333 135.907833,13.5778333 C136.101167,13.5778333 136.297833,13.5536667 136.496167,13.5078333 L136.496167,13.5078333 L136.496167,14.8078333 C136.112833,14.9145 135.7445,14.967 135.3895,14.967 C134.097833,14.967 133.452,14.2545 133.452,12.8303333 L133.452,12.8303333 L133.452,8.5895 L132.221167,8.5895 L132.221167,7.3445 L133.452,7.3445 L133.452,5.52533333 L135.132833,5.52533333 Z M121.111583,7.2065 C122.13075,7.2065 122.91825,7.53066667 123.474083,8.18233333 C124.029917,8.8315 124.307417,9.7515 124.307417,10.9415 L124.307417,10.9415 L124.307417,11.6198333 L119.417417,11.6198333 C119.46825,12.2373333 119.674083,12.7265 120.036583,13.0856667 C120.39825,13.4456667 120.85325,13.6256667 121.402417,13.6256667 C122.172417,13.6256667 122.799917,13.314 123.284083,12.6923333 L123.284083,12.6923333 L124.189917,13.5565 C123.889917,14.004 123.489917,14.3506667 122.989917,14.5973333 C122.489917,14.844 121.92825,14.9673333 121.30575,14.9673333 C120.239917,14.9673333 119.376583,14.6323333 118.714917,13.9606667 C118.05325,13.2898333 117.722417,12.3965 117.722417,11.2806667 L117.722417,11.2806667 L117.722417,11.0723333 C117.722417,10.3256667 117.866583,9.65816667 118.154917,9.07066667 C118.44325,8.48233333 118.847417,8.02483333 119.36825,7.69733333 C119.889917,7.36983333 120.47075,7.2065 121.111583,7.2065 Z M103.831917,7.20608333 C104.071917,7.20608333 104.27025,7.23858333 104.426917,7.30275 L104.426917,7.30275 L104.42025,8.88025 C104.198583,8.84358333 103.97025,8.82441667 103.73525,8.82441667 C102.96525,8.82441667 102.446083,9.12025 102.179417,9.71025 L102.179417,9.71025 L102.179417,14.8294167 L100.49775,14.8294167 L100.49775,7.34441667 L102.10275,7.34441667 L102.144417,8.18191667 C102.55025,7.53108333 103.11275,7.20608333 103.831917,7.20608333 Z M95.4623333,4.75733333 C96.5873333,4.75733333 97.4806667,5.05066667 98.1423333,5.63733333 C98.8048333,6.22316667 99.1356667,6.999 99.1356667,7.964 C99.1356667,8.9515 98.8115,9.71983333 98.164,10.269 C97.5156667,10.8198333 96.6081667,11.094 95.4415,11.094 L95.4415,11.094 L93.3598333,11.094 L93.3598333,14.829 L91.6098333,14.829 L91.6098333,4.75733333 Z M62.0444167,7.20608333 C62.2844167,7.20608333 62.48275,7.23858333 62.6394167,7.30275 L62.6394167,7.30275 L62.63275,8.88025 C62.4110833,8.84358333 62.18275,8.82441667 61.94775,8.82441667 C61.17775,8.82441667 60.6585833,9.12025 60.3919167,9.71025 L60.3919167,9.71025 L60.3919167,14.8294167 L58.71025,14.8294167 L58.71025,7.34441667 L60.31525,7.34441667 L60.3569167,8.18191667 C60.76275,7.53108333 61.32525,7.20608333 62.0444167,7.20608333 Z M65.4825,7.345 L65.4825,14.8291667 L63.8016667,14.8291667 L63.8016667,7.345 L65.4825,7.345 Z M76.9995833,4.20366667 L76.9995833,8.16116667 C77.54875,7.5245 78.2429167,7.20616667 79.0820833,7.20616667 C80.6779167,7.20616667 81.4870833,8.117 81.5104167,9.93783333 L81.5104167,9.93783333 L81.5104167,14.8286667 L79.82875,14.8286667 L79.82875,10.0011667 C79.82875,9.48366667 79.7170833,9.11866667 79.49375,8.9045 C79.2704167,8.6895 78.94125,8.582 78.5079167,8.582 C77.8345833,8.582 77.3320833,8.88283333 76.9995833,9.482 L76.9995833,9.482 L76.9995833,14.8286667 L75.31875,14.8286667 L75.31875,4.20366667 L76.9995833,4.20366667 Z M47.0756667,8.58266667 C46.3881667,8.58266667 45.8956667,8.866 45.5956667,9.4335 L45.5956667,9.4335 L45.5956667,12.7535 C45.8998333,13.3351667 46.3981667,13.6251667 47.0898333,13.6251667 C47.6248333,13.6251667 48.0431667,13.4101667 48.3448333,12.9785 C48.6473333,12.5468333 48.7981667,11.8935 48.7981667,11.0168333 C48.7981667,10.2701667 48.649,9.67766667 48.3523333,9.24016667 C48.054,8.80183333 47.629,8.58266667 47.0756667,8.58266667 Z M108.39075,8.55475 C107.841583,8.55475 107.40575,8.77308333 107.08325,9.20891667 C106.76075,9.64475 106.599083,10.2964167 106.599083,11.1630833 C106.599083,11.9330833 106.75825,12.5355833 107.076583,12.97225 C107.394917,13.40725 107.837417,13.6255833 108.404917,13.6255833 C108.971583,13.6255833 109.41325,13.4039167 109.729083,12.9614167 C110.044917,12.5189167 110.20325,11.8705833 110.20325,11.01725 C110.20325,10.2614167 110.04075,9.66141667 109.714917,9.21891667 C109.39075,8.77641667 108.94825,8.55475 108.39075,8.55475 Z M39.0100833,8.55475 C38.4609167,8.55475 38.0250833,8.77308333 37.7025833,9.20891667 C37.3800833,9.64475 37.2184167,10.2964167 37.2184167,11.1630833 C37.2184167,11.9330833 37.3775833,12.5355833 37.6959167,12.97225 C38.01425,13.40725 38.45675,13.6255833 39.02425,13.6255833 C39.5909167,13.6255833 40.0325833,13.4039167 40.3484167,12.9614167 C40.66425,12.5189167 40.8225833,11.8705833 40.8225833,11.01725 C40.8225833,10.2614167 40.6600833,9.66141667 40.33425,9.21891667 C40.0100833,8.77641667 39.5675833,8.55475 39.0100833,8.55475 Z M70.4423333,8.58208333 C69.889,8.58208333 69.459,8.80208333 69.1523333,9.23958333 C68.8456667,9.67791667 68.6923333,10.32375 68.6923333,11.1770833 C68.6923333,11.92875 68.8456667,12.5195833 69.1523333,12.95125 C69.459,13.3820833 69.8848333,13.5979167 70.4281667,13.5979167 C71.1065,13.5979167 71.609,13.3070833 71.9365,12.72625 L71.9365,12.72625 L71.9365,9.43375 C71.6181667,8.86625 71.1206667,8.58208333 70.4423333,8.58208333 Z M148.407417,8.58241667 C147.86325,8.58241667 147.44325,8.79825 147.14825,9.22908333 C146.85325,9.66075 146.70575,10.3099167 146.70575,11.1765833 C146.70575,11.9374167 146.852417,12.5315833 147.144917,12.95825 C147.437417,13.3849167 147.854083,13.5974167 148.39325,13.5974167 C149.08075,13.5974167 149.58325,13.29075 149.901583,12.6774167 L149.901583,12.6774167 L149.901583,9.48241667 C149.592417,8.88241667 149.094917,8.58241667 148.407417,8.58241667 Z M121.104917,8.55483333 C120.644083,8.55483333 120.271583,8.7165 119.987417,9.03983333 C119.704083,9.36233333 119.52325,9.81233333 119.444917,10.3881667 L119.444917,10.3881667 L122.647417,10.3881667 L122.647417,10.264 C122.61075,9.7015 122.46075,9.27566667 122.197417,8.98733333 C121.934917,8.69983333 121.57075,8.55483333 121.104917,8.55483333 Z M140.833083,8.55483333 C140.37225,8.55483333 139.99975,8.7165 139.715583,9.03983333 C139.43225,9.36233333 139.251417,9.81233333 139.173083,10.3881667 L139.173083,10.3881667 L142.375583,10.3881667 L142.375583,10.264 C142.338917,9.7015 142.188917,9.27566667 141.925583,8.98733333 C141.663083,8.69983333 141.298917,8.55483333 140.833083,8.55483333 Z M95.5106667,6.169 L93.3598333,6.169 L93.3598333,9.68233333 L95.4623333,9.68233333 C96.0848333,9.68233333 96.5598333,9.5365 96.8873333,9.24316667 C97.2148333,8.94983333 97.3781667,8.52733333 97.3781667,7.974 C97.3781667,7.42983333 97.2123333,6.99566667 96.8806667,6.66983333 C96.5481667,6.34483333 96.0915,6.17733333 95.5106667,6.169 L95.5106667,6.169 Z M64.6456667,4.50191667 C64.9498333,4.50191667 65.1848333,4.58691667 65.3515,4.75775 C65.5173333,4.92858333 65.6006667,5.14275 65.6006667,5.40025 C65.6006667,5.65441667 65.5173333,5.86525 65.3515,6.03358333 C65.1848333,6.20191667 64.9498333,6.28608333 64.6456667,6.28608333 C64.3415,6.28608333 64.1073333,6.20191667 63.9431667,6.03358333 C63.7798333,5.86525 63.6981667,5.65441667 63.6981667,5.40025 C63.6981667,5.14275 63.7798333,4.92858333 63.9431667,4.75775 C64.1073333,4.58691667 64.3415,4.50191667 64.6456667,4.50191667 Z" id="Combined-Shape"></path>
            </g>
        </g>
    </g>
</svg>