<?xml version="1.0" encoding="UTF-8"?>
<svg width="155px" height="24px" viewBox="0 0 155 24" version="1.1" xmlns="http://www.w3.org/2000/svg" xmlns:xlink="http://www.w3.org/1999/xlink">
    <!-- Generator: Sketch 59.1 (86144) - https://sketch.com -->
    <title>Delta logo</title>
    <desc>Created with Sketch.</desc>
    <g id="Page-1" stroke="none" stroke-width="1" fill="none" fill-rule="evenodd">
        <g id="Desktop-HD" transform="translate(-563.000000, -3867.000000)">
            <g id="Delta-logo" transform="translate(563.000000, 3867.000000)">
                <path d="M13.7947024,17.3766968 L27.5418155,23.7827613 L0.0475892857,23.7827613 L13.7947024,17.3766968 Z M48.2975149,2.61603871 C49.857128,2.61603871 51.0248065,2.70274839 51.8663244,2.8812 C53.0626339,3.13165161 54.1026339,3.59616774 54.9561458,4.25965161 C56.0576637,5.10855484 56.8937649,6.20674839 57.4404613,7.52636129 C57.9755506,8.81810323 58.2467708,10.3064903 58.2467708,11.9512645 C58.2467708,13.349071 58.0629911,14.6117806 57.7008482,15.7045548 C57.335997,16.8012 56.8570089,17.7286839 56.2778125,18.4599097 C55.6974554,19.1911355 55.0501637,19.7783613 54.3525744,20.2045548 C53.6600149,20.625329 52.8196577,20.9481677 51.8543304,21.1630065 C50.9149256,21.3716516 49.824628,21.4781032 48.6136161,21.4781032 L48.6136161,21.4781032 L41.0105506,21.4781032 L41.0105506,2.61603871 Z M98.6618363,2.61603871 L98.6618363,18.1242968 L107.294068,18.1242968 L107.294068,21.4781032 L95.0779375,21.4781032 L95.0779375,2.61603871 L98.6618363,2.61603871 Z M128.911443,2.61603871 L128.911443,5.96945806 L123.11058,5.96945806 L123.11058,21.4781032 L119.526682,21.4781032 L119.526682,5.96945806 L113.725432,5.96945806 L113.725432,2.61603871 L128.911443,2.61603871 Z M146.309815,2.61607742 L154.695976,21.4781419 L150.680679,21.4781419 C150.680679,21.4781419 148.938446,16.8368516 148.676125,16.1381419 L148.676125,16.1381419 L140.605292,16.1381419 C140.351095,16.8496258 138.69669,21.4781419 138.69669,21.4781419 L138.69669,21.4781419 L134.879488,21.4781419 L142.876036,2.61607742 L146.309815,2.61607742 Z M82.3251696,2.61623226 L82.3251696,5.96965161 L72.8115685,5.96965161 L72.8115685,10.0453935 L81.6755565,10.0453935 L81.6755565,13.3988129 L72.8115685,13.3988129 L72.8115685,18.1244903 L82.7430268,18.1244903 L82.7430268,21.4779097 L69.2272827,21.4779097 L69.2272827,2.61623226 L82.3251696,2.61623226 Z M13.7947024,-2.27373675e-13 L27.5894048,20.8436129 L13.7947024,14.6469677 L-7.10542736e-15,20.8436129 L13.7947024,-2.27373675e-13 Z M29.6545089,19.1803742 C30.109122,19.1803742 30.4793899,19.5512129 30.4793899,20.0064387 C30.4793899,20.2151786 30.4017813,20.4066636 30.2737951,20.5528282 L30.2808546,20.5639977 L30.263716,20.5641305 C30.1129098,20.7301855 29.8958607,20.8348258 29.6545089,20.8348258 C29.1975744,20.8348258 28.8273065,20.4616645 28.8273065,20.0064387 C28.8273065,19.5512129 29.1975744,19.1803742 29.6545089,19.1803742 Z M29.6545089,19.3359871 C29.2819196,19.3359871 28.984003,19.6332774 28.9832292,20.0072129 C28.9832292,20.3788258 29.2819196,20.6772774 29.6545089,20.6772774 C29.7926832,20.6772774 29.9201227,20.6364863 30.0258795,20.5662485 L30.0184291,20.5653032 L29.7629619,20.1449377 L29.5358247,20.1449377 L29.5358247,20.5653032 L29.3146518,20.5639977 L29.3146518,19.5653032 L29.8688267,19.5653032 C29.9657452,19.5653032 30.0939758,19.5661735 30.1794629,19.6092545 C30.1909496,19.6157819 30.2015526,19.6227982 30.2113266,19.6302592 C30.0913112,19.452588 29.8882726,19.3359871 29.6545089,19.3359871 Z M30.3135293,19.8893576 L30.3079978,19.9444794 C30.2814632,20.0765197 30.1760548,20.1337478 30.0005365,20.1449377 L30.0005365,20.1449377 L30.1844375,20.4184078 C30.2718424,20.3049602 30.3234673,20.1621642 30.3234673,20.0064387 C30.3234673,19.9664629 30.3200653,19.9273436 30.3135293,19.8893576 Z M29.5358247,19.7071657 L29.5358247,19.9930665 L29.8737969,19.9930665 C30.0005365,19.9948071 30.0914908,19.9686975 30.0914908,19.8411953 C30.0914908,19.7071657 29.9274748,19.7089064 29.8151488,19.7089064 L29.8151488,19.7089064 L29.5358247,19.7071657 Z M48.248378,5.96945806 L44.8250446,5.96945806 L44.8250446,18.1246839 L48.3137649,18.1246839 C49.5205208,18.1246839 50.4672768,18.0244258 51.128497,17.8273935 C51.7572173,17.6408129 52.2567113,17.3806839 52.6149851,17.0555226 C53.1407887,16.5766839 53.5598065,15.9139742 53.8608185,15.0844258 C54.1722768,14.2277806 54.329747,13.1621032 54.329747,11.9148774 C54.329747,10.2151355 54.0318304,8.90868387 53.4437351,8.03268387 C52.8529315,7.1532 52.1654018,6.58455484 51.3436161,6.29307097 C50.7295982,6.07784516 49.6880506,5.96945806 48.248378,5.96945806 L48.248378,5.96945806 Z M144.590798,7.15788387 C144.438357,7.66459355 144.335054,8.1867871 144.148952,8.6784 L144.148952,8.6784 C144.149726,8.67762581 142.979726,11.7821419 142.53169,12.970529 L142.53169,12.970529 L146.710649,12.970529 C146.27422,11.8107871 145.204815,8.97065806 145.204815,8.97065806 C145.204815,8.97065806 144.897613,8.06369032 144.590798,7.15788387 Z" id="Combined-Shape" fill="#424242"></path>
                <g id="Group-3" fill="#757575">
                    <path d="M13.7944702,17.3765806 L13.7944702,23.7826452 L0.0473571429,23.7826452 L13.7944702,17.3765806 Z M13.7947024,0.000425806452 L13.7947024,14.6470065 L2.23820962e-13,20.8436516 L13.7947024,0.000425806452 Z" id="Combined-Shape"></path>
                </g>
            </g>
        </g>
    </g>
</svg>