<?xml version="1.0" encoding="UTF-8"?>
<svg width="92px" height="64px" viewBox="0 0 92 64" version="1.1" xmlns="http://www.w3.org/2000/svg" xmlns:xlink="http://www.w3.org/1999/xlink">
    <!-- Generator: Sketch 59.1 (86144) - https://sketch.com -->
    <title>Combined Shape</title>
    <desc>Created with Sketch.</desc>
    <g id="Page-1" stroke="none" stroke-width="1" fill="none" fill-rule="evenodd">
        <g id="Desktop-HD" transform="translate(-72.000000, -3827.000000)" fill="#424242">
            <path d="M80.8370739,3873.10566 C85.4532436,3873.10566 85.8485648,3876.13313 85.8485648,3876.13313 C83.8708436,3874.9483 82.0241527,3874.9483 79.781583,3874.9483 L77.0121042,3874.9483 C77.4074255,3875.47533 77.4074255,3877.05529 77.4074255,3877.05529 L77.4074255,3878.89793 L79.3862618,3878.89793 C82.2878861,3878.89793 83.2106739,3881.39894 83.2106739,3881.39894 C81.8920073,3880.60924 80.4411952,3880.74113 79.3862618,3880.74113 L79.3862618,3880.74113 L77.4074255,3880.74113 L77.4074255,3886.66475 C77.5395709,3887.58635 77.4074255,3888.63985 78.7266497,3888.63985 L78.7266497,3888.63985 L82.8153527,3888.63985 C85.4532436,3888.63985 86.1128558,3887.32312 86.1128558,3887.32312 L86.1128558,3887.32312 L86.1128558,3888.37606 C86.1128558,3889.16632 85.3216558,3890.61439 83.3428194,3890.61439 L83.3428194,3890.61439 L74.6379467,3890.61439 C74.6379467,3890.61439 73.5824558,3890.48305 73.5824558,3887.84959 L73.5824558,3887.84959 L73.4508679,3877.05529 C73.5824558,3874.42183 72.0000558,3873.10566 72.0000558,3873.10566 L72.0000558,3873.10566 Z M101.940257,3876.52865 C103.78639,3876.52865 106.160548,3877.31836 106.160548,3880.2145 L106.160548,3880.2145 L106.160548,3887.71808 C106.160548,3889.56128 107.611918,3890.48288 107.611918,3890.48288 L107.611918,3890.48288 L103.918536,3890.48288 C103.918536,3890.48288 102.731457,3890.61422 102.731457,3887.71808 L102.731457,3887.71808 L102.731457,3880.87231 C102.731457,3879.81937 101.808112,3878.89777 100.753178,3878.89777 C99.3018085,3878.89777 98.9064873,3879.95126 98.7743418,3880.34584 L98.7743418,3880.34584 L98.7743418,3887.71808 C98.7743418,3889.56128 100.093566,3890.48288 100.093566,3890.48288 L100.093566,3890.48288 L96.3890293,3890.48226 C96.2761884,3890.47272 95.3452509,3890.31532 95.3452509,3887.71808 L95.3452509,3887.71808 L95.3452509,3880.87231 C95.3452509,3879.81937 94.4219055,3878.89777 93.4991176,3878.89777 C91.91616,3878.89777 91.3886933,3879.95126 91.2565479,3880.34584 L91.2565479,3880.34584 L91.2565479,3887.71808 C91.2565479,3889.56128 92.5752145,3890.48288 92.70736,3890.61422 L92.70736,3890.61422 L89.0145358,3890.61422 C89.0145358,3890.61422 87.9590448,3890.48288 87.9590448,3887.71808 L87.9590448,3887.71808 L87.9590448,3879.42479 C87.9590448,3877.18646 86.6403782,3876.65999 86.6403782,3876.65999 L86.6403782,3876.65999 L88.8823903,3876.65999 C91.12496,3876.65999 91.2565479,3879.161 91.2565479,3879.161 C91.2565479,3879.161 91.91616,3876.52865 94.8177842,3876.52865 C96.2685964,3876.52865 98.1152873,3877.31836 98.6427539,3879.161 C98.9064873,3878.50264 99.6976873,3876.52865 101.940257,3876.52865 Z M149.421624,3876.5286 C153.115006,3876.5286 155.093285,3879.55608 152.455394,3882.32088 C150.34497,3884.55865 148.762012,3884.16352 147.443345,3885.74349 C147.443345,3885.74349 147.575491,3887.98182 149.290036,3888.63962 C149.817503,3888.90286 152.191661,3889.82446 153.642473,3887.19155 L153.642473,3889.42933 C153.642473,3889.42933 152.719127,3890.61416 149.685915,3890.61416 C145.993091,3890.61416 143.486788,3887.71802 143.486788,3883.90084 C143.486788,3880.08255 145.597212,3876.5286 149.421624,3876.5286 Z M129.110589,3876.52843 C131.220456,3876.52843 133.33088,3878.10784 133.33088,3879.95104 L133.33088,3879.95104 L133.33088,3887.71786 C133.33088,3889.56106 134.781692,3890.48266 134.781692,3890.48266 L134.781692,3890.48266 L131.084842,3890.48254 C131.023849,3890.47991 130.286656,3890.41683 130.033377,3888.90269 C129.637498,3889.69295 128.71471,3890.61455 127.000165,3890.61455 C125.285062,3890.61455 123.966395,3889.95619 123.570516,3887.98165 C122.515583,3882.71528 129.110589,3882.45261 130.033377,3881.00454 C130.429256,3880.08294 130.297668,3879.55591 130.297668,3879.55591 C130.297668,3879.02944 130.164965,3878.10784 128.318832,3878.10784 C126.340553,3878.10784 125.549353,3880.08294 125.549353,3880.08294 L125.549353,3880.08294 L125.549353,3877.58193 C125.549353,3877.58193 127.000165,3876.52843 129.110589,3876.52843 Z M159.313855,3876.52854 C161.424279,3876.52854 162.875091,3877.58148 162.875091,3877.58148 L162.875091,3877.58148 L162.875091,3879.95115 C162.875091,3879.95115 162.083891,3877.97606 160.2372,3877.97606 C158.391067,3877.97606 158.127333,3878.89821 158.127333,3879.42468 C158.127333,3879.68792 158.522655,3880.47818 159.181709,3880.87219 C160.368788,3881.66246 161.951745,3882.45216 162.875091,3883.50566 C163.403115,3884.29536 163.666291,3885.08506 163.666291,3886.00666 C163.798436,3888.64013 161.160545,3890.61411 158.654242,3890.61411 C156.544376,3890.61411 155.225152,3889.56117 155.225152,3889.56117 L155.225152,3889.56117 L155.225152,3887.06016 C155.225152,3887.06016 155.884764,3889.0347 157.863042,3889.0347 C159.709733,3889.0347 160.633079,3887.71797 160.633079,3886.79693 C160.633079,3886.00666 160.2372,3885.3483 159.181709,3884.69049 C158.391067,3884.29536 157.731455,3883.90079 157.203988,3883.50566 C155.884764,3882.58406 155.225152,3881.53056 155.093006,3879.81926 C155.093006,3877.97606 157.071842,3876.52854 159.313855,3876.52854 Z M112.623297,3879.68747 L112.623297,3887.71808 C112.623297,3889.56128 114.074667,3890.48288 114.074667,3890.48288 L110.381285,3890.48288 C110.381285,3890.48288 109.194206,3890.61422 109.194206,3887.71808 L109.194206,3879.42479 C109.194206,3877.18646 108.007127,3876.65999 108.007127,3876.65999 L110.249139,3876.65999 C111.040897,3876.65999 112.623297,3876.65999 112.623297,3879.68747 Z M140.321486,3873.36845 L140.321486,3876.65971 L143.354698,3876.65971 L143.354698,3878.76671 C143.354698,3878.76671 142.431353,3878.10778 141.244832,3878.10778 L141.244832,3878.10778 L140.321486,3878.10778 L140.321486,3887.8497 C140.321486,3889.561 141.771741,3890.4826 141.771741,3890.4826 L141.771741,3890.4826 L138.075511,3890.48252 C138.005883,3890.48003 136.891838,3890.40032 136.891838,3887.8497 L136.891838,3887.8497 L136.891838,3878.10778 L134.518238,3878.10778 C134.518238,3878.10778 136.76025,3877.05485 137.815741,3876.13325 C139.529728,3874.81707 140.321486,3873.36845 140.321486,3873.36845 L140.321486,3873.36845 Z M116.844034,3876.52838 C118.426434,3876.52838 119.086046,3877.18674 119.218192,3879.42451 C119.218192,3879.42451 119.745658,3876.65971 122.119816,3876.65971 C123.702216,3876.65971 123.966507,3877.71321 123.966507,3877.71321 L123.966507,3877.71321 L123.966507,3879.95098 C123.043161,3878.89805 121.328616,3878.63425 120.141537,3879.42451 C119.745658,3879.81909 119.350337,3880.21422 119.218192,3880.87258 L119.218192,3880.87258 L119.218192,3887.71836 C119.218192,3889.561 120.537416,3890.4826 120.669004,3890.4826 L120.669004,3890.4826 L116.97333,3890.48252 C116.913179,3890.48006 115.920688,3890.39884 115.920688,3887.71836 L115.920688,3887.71836 L115.920688,3879.42451 C115.920688,3877.05485 114.602022,3876.52838 114.602022,3876.52838 L114.602022,3876.52838 Z M130.033377,3882.32071 C129.242177,3883.24231 126.340553,3883.76878 126.340553,3887.19139 C126.340553,3888.11299 127.000165,3888.90269 127.791365,3888.90269 C129.373765,3888.90269 129.637498,3888.50756 130.033377,3888.11299 L130.033377,3888.11299 Z M149.157891,3877.58154 C146.784291,3877.84477 147.18017,3884.29542 147.18017,3884.29542 C147.97137,3883.37437 149.290036,3883.24192 150.213382,3881.53062 C150.740848,3880.34578 151.268873,3877.4502 149.157891,3877.58154 Z M110.908919,3872.05255 C111.832264,3872.05255 112.623464,3872.84225 112.623464,3873.76385 C112.623464,3874.68545 111.832264,3875.47516 110.908919,3875.47516 C109.985573,3875.47516 109.193816,3874.68545 109.193816,3873.76385 C109.193816,3872.84225 109.985573,3872.05255 110.908919,3872.05255 Z M128.055321,3854.67505 C128.055321,3854.67505 129.2424,3855.72854 129.373988,3855.99178 C129.769867,3856.25501 130.825358,3857.30795 130.825358,3859.15115 L130.825358,3859.15115 L130.825358,3864.68075 C130.825358,3866.65529 130.297333,3868.76117 128.714376,3870.34113 C127.131976,3871.92054 124.757818,3873.10538 122.119927,3873.10538 L122.119927,3873.10538 L119.482036,3873.10538 L115.657067,3869.68277 L122.119927,3869.68277 C124.625673,3869.68277 126.472364,3867.97146 127.131976,3867.44499 C130.692655,3863.89049 130.692655,3861.65216 129.505576,3860.46733 C129.373988,3860.20465 128.055321,3858.88792 128.055321,3858.88792 L128.055321,3858.88792 Z M101.41986,3852.30612 C101.507092,3852.31545 102.335801,3852.49268 102.335801,3855.8601 L102.335801,3855.8601 L102.335801,3859.41461 C102.335801,3863.62748 106.160771,3866.12849 108.93025,3865.99715 L108.93025,3865.99715 L116.712335,3865.99715 C118.42688,3865.99715 119.877692,3863.49503 118.031001,3862.17885 C117.63568,3861.78372 116.712335,3860.86212 116.712335,3860.86212 L116.712335,3860.86212 L116.712335,3856.51847 C116.712335,3856.51847 117.63568,3857.44007 117.899413,3857.70275 C118.42688,3858.22977 119.481813,3859.01948 119.481813,3860.86212 L119.481813,3860.86212 L119.481813,3862.96856 C119.481813,3865.07499 118.690613,3865.73336 118.031001,3866.52306 C117.825875,3866.72823 117.381267,3867.17176 117.007792,3867.54466 L116.712335,3867.83979 C115.39311,3869.02463 114.734056,3869.5511 112.623074,3869.5511 L112.623074,3869.5511 L109.062395,3869.5511 C104.841547,3869.5511 101.412456,3865.73336 101.412456,3861.52104 L101.412456,3861.52104 L101.412456,3855.06984 C101.412456,3853.0953 99.9616436,3852.3056 99.9616436,3852.3056 L99.9616436,3852.3056 Z M102.995023,3840.85244 C103.127168,3840.85244 103.918368,3841.24757 103.918368,3844.40694 L103.918368,3848.35602 C103.918368,3849.93599 105.105447,3851.77919 107.084284,3851.77919 L122.252017,3851.77919 C122.252017,3851.38406 122.647896,3849.80465 123.439096,3849.01439 C123.834417,3848.48792 127.13192,3845.59178 127.527799,3845.19665 L128.451144,3845.19665 C128.318999,3845.32854 126.736041,3846.77661 126.34072,3847.17174 C125.944841,3847.56632 125.54952,3848.75115 125.54952,3849.67275 L125.54952,3851.77919 L127.659387,3851.77919 C128.451144,3851.77919 129.50552,3850.98948 129.769811,3850.59435 L129.769811,3848.61926 C129.769811,3848.61926 130.297278,3849.40952 130.95689,3849.80465 C131.088478,3849.54141 133.066756,3847.17174 134.649714,3847.17174 C137.41975,3847.17174 136.760138,3850.46246 135.705205,3851.64729 C135.309326,3851.91053 133.726368,3853.35859 133.198902,3853.88562 C132.012381,3855.0699 129.769811,3854.54343 129.769811,3851.38406 C129.769811,3851.38406 127.395653,3853.62239 127.13192,3853.88562 C126.736041,3854.1483 125.54952,3855.46503 125.54952,3855.46503 L125.54952,3860.86218 C125.54952,3863.49508 124.626175,3864.41724 123.966562,3865.20639 C123.702272,3865.47018 120.669059,3868.23498 120.273181,3868.49821 L119.350393,3868.49821 C119.350393,3868.49821 121.064938,3866.91825 121.460259,3866.65501 C121.856138,3866.12854 122.252017,3865.33828 122.252017,3864.02211 L122.252017,3855.33313 L108.798272,3855.33313 C104.050514,3855.33313 103.127168,3850.19922 102.995023,3848.75115 L102.995023,3843.61724 C102.995023,3842.69564 102.467556,3841.24757 101.676356,3840.85244 L102.995023,3840.85244 Z M112.623241,3856.91332 C114.338344,3858.62463 114.997399,3859.0192 114.997399,3860.0727 C114.997399,3860.8624 112.623241,3862.83694 112.491653,3862.96883 C112.359508,3862.17913 111.832041,3861.25753 109.98535,3859.54623 L112.623241,3856.91332 Z M107.348017,3856.91332 C109.062005,3858.62463 109.721617,3859.0192 109.721617,3860.0727 C109.721617,3860.8624 107.348017,3862.83694 107.348017,3862.96883 C107.084284,3862.17913 106.556259,3861.25753 104.710126,3859.54623 L107.348017,3856.91332 Z M131.352768,3850.33112 C131.352768,3850.33112 132.275556,3851.51539 132.671435,3851.77919 C134.385981,3853.09536 135.177181,3851.64729 133.990102,3850.19922 C133.594781,3849.54141 131.880235,3849.80465 131.352768,3850.33112 Z M118.03089,3827.55647 C118.03089,3827.55647 118.03089,3829.13587 119.481702,3830.58394 C120.009726,3831.11097 121.196805,3832.55904 120.405047,3833.21685 C119.877581,3833.74387 118.954235,3834.79681 118.954235,3834.79681 C118.954235,3834.40224 118.03089,3833.61198 118.03089,3833.61198 L118.03089,3836.37678 C118.03089,3837.56161 117.635568,3837.82485 117.635568,3837.82485 C117.635568,3837.82485 119.745435,3839.93128 119.745435,3842.56363 L119.745435,3845.19654 C119.745435,3845.72301 119.481702,3846.25003 119.218526,3846.64516 C118.954235,3846.7765 117.108102,3848.75104 116.712223,3849.01427 C116.184756,3849.5413 115.65729,3849.5413 115.129265,3849.5413 L108.00735,3849.5413 C106.951859,3849.5413 105.764781,3848.75104 105.764781,3847.82944 L105.764781,3845.19654 C106.160659,3845.59167 106.556538,3846.11814 107.347738,3846.11814 C108.138938,3846.11814 108.79855,3845.45977 109.062284,3845.32843 C109.193872,3845.0652 114.470211,3839.66805 114.470211,3839.66805 C114.470211,3839.66805 111.963908,3837.42972 110.381508,3836.37678 C109.58975,3835.84975 108.534817,3836.50812 108.402672,3837.16648 C108.00735,3839.40426 108.402672,3842.56363 108.402672,3842.56363 C108.402672,3842.56363 106.820272,3840.98422 106.424393,3840.58909 C105.633193,3839.79939 105.633193,3838.08808 106.688126,3837.03514 C106.820272,3836.90325 108.271084,3835.32328 110.117775,3835.32328 L112.887253,3835.32328 C114.865532,3835.32328 116.975956,3837.16648 116.975956,3837.16648 C116.975956,3837.16648 117.23969,3836.90325 117.23969,3836.50812 L117.23969,3832.95361 C115.788878,3831.50554 115.525144,3830.05747 116.316344,3829.26777 L116.652947,3828.93194 C117.604093,3827.98291 118.03089,3827.55647 118.03089,3827.55647 Z M127.527576,3827.55613 L128.450921,3827.68803 C128.187188,3827.81992 127.000109,3828.87286 126.60423,3829.26744 C126.208909,3829.66257 125.549297,3830.58417 125.549297,3832.03224 L125.549297,3832.03224 L125.549297,3842.30062 C125.549297,3844.14382 124.494364,3845.32865 124.098485,3845.85512 C123.834194,3846.2497 120.668836,3849.0145 120.272958,3849.27773 L120.272958,3849.27773 L119.35017,3849.27773 C119.613903,3849.14584 121.196861,3847.69777 121.460036,3847.43509 C121.855915,3847.03996 122.251794,3845.98646 122.251794,3845.19676 L122.251794,3845.19676 L122.251794,3834.66514 C122.251794,3832.95384 123.174582,3831.50577 123.438873,3831.24253 C123.834194,3830.9793 127.263285,3827.81992 127.527576,3827.55613 L127.527576,3827.55613 Z M115.129265,3840.19396 C115.129265,3840.19396 110.645241,3844.80196 110.513096,3844.9333 C109.853484,3845.72301 109.721896,3845.8549 109.062284,3846.25003 L117.108102,3846.25003 C119.218526,3846.25003 118.822647,3844.9333 118.426768,3844.27494 C117.635568,3842.82687 115.129265,3840.19396 115.129265,3840.19396 Z" id="Combined-Shape"></path>
        </g>
    </g>
</svg>