<?xml version="1.0" encoding="UTF-8"?>
<svg width="33px" height="32px" viewBox="0 0 33 32" version="1.1" xmlns="http://www.w3.org/2000/svg" xmlns:xlink="http://www.w3.org/1999/xlink">
    <!-- Generator: Sketch 59.1 (86144) - https://sketch.com -->
    <title>Group 17</title>
    <desc>Created with Sketch.</desc>
    <g id="Page-1" stroke="none" stroke-width="1" fill="none" fill-rule="evenodd">
        <g id="Desktop-HD" transform="translate(-72.000000, -4615.000000)" fill="#1777F3">
            <g id="Group-17" transform="translate(72.000000, 4615.000000)">
                <path d="M32.645629,16.099515 C32.645629,7.21246839 25.4331938,3.31606216e-05 16.5459813,3.31606216e-05 C7.65910052,3.31606216e-05 0.446665285,7.21246839 0.446665285,16.099515 C0.446665285,24.1409658 6.33267565,30.8062508 14.0425202,32.0000332 L14.0425202,20.7420021 L9.93060311,20.7420021 L9.93060311,16.099515 L14.0425202,16.099515 L14.0425202,12.5513285 C14.0425202,8.52231295 16.430085,6.28397098 20.1107482,6.28397098 C21.8684269,6.28397098 23.6922611,6.6155772 23.6922611,6.6155772 L23.6922611,10.5451109 L21.6694632,10.5451109 C19.6632456,10.5451109 19.033028,11.8052145 19.033028,13.0653181 L19.033028,16.0829347 L23.5097119,16.0829347 L22.7969244,20.7254218 L19.033028,20.7254218 L19.033028,31.983287 C26.7596187,30.8062508 32.645629,24.1409658 32.645629,16.099515" id="Combined-Shape"></path>
            </g>
        </g>
    </g>
</svg>