<?xml version="1.0" encoding="UTF-8"?>
<svg width="102px" height="56px" viewBox="0 0 102 56" version="1.1" xmlns="http://www.w3.org/2000/svg" xmlns:xlink="http://www.w3.org/1999/xlink">
    <!-- Generator: Sketch 59.1 (86144) - https://sketch.com -->
    <title>Group 26</title>
    <desc>Created with Sketch.</desc>
    <g id="Page-1" stroke="none" stroke-width="1" fill="none" fill-rule="evenodd">
        <g id="Desktop-HD" transform="translate(-72.000000, -4869.000000)" fill="#FFFFFF">
            <g id="Group-26" transform="translate(72.000000, 4869.000000)">
                <path d="M29.1655805,2.21210874 C29.5895763,2.0560699 30.0783418,1.92721553 30.6389525,2.00713786 C31.2088159,2.06803107 31.7384025,2.48449709 31.9898609,2.92053592 C32.2489393,3.35983689 32.3605171,3.80348738 32.4323624,4.22973981 C32.5635344,5.08441942 32.5341432,5.90375922 32.4661079,6.71005049 C32.1493356,9.92434175 31.2703198,12.9809631 30.2748277,15.9843029 C30.6384082,14.4451184 30.9410291,12.8934291 31.1816018,11.3368466 C31.424896,9.78298252 31.6219262,8.21715728 31.6387989,6.67036117 C31.6442417,5.90104078 31.6039648,5.12737087 31.4368702,4.42818641 C31.353595,4.08294369 31.2284101,3.75781748 31.0629483,3.52674951 C30.8866009,3.30438058 30.7200505,3.20542913 30.4903634,3.19781748 C30.0124836,3.16302136 29.3277766,3.53979806 28.751926,3.9551767 C28.1575698,4.38197282 27.594782,4.89956505 27.0510441,5.43455534 C25.9815295,6.53063301 24.896775,7.64682718 23.8664488,8.81902136 C22.8459196,9.99882718 21.8678445,11.2210408 20.9191606,12.4671767 C19.0234256,14.9616233 17.2490656,17.5561087 15.5601578,20.2060505 C12.193228,25.5113709 9.14415902,31.0325359 6.50003599,36.7271379 C5.18777156,39.5766136 3.97075651,42.4733903 2.99812418,45.4305165 C2.5169787,46.9071767 2.09298285,48.4039534 1.83227167,49.8980117 C1.70436534,50.642866 1.6200016,51.3909825 1.63415294,52.098866 C1.64122861,52.793701 1.7974376,53.4928854 2.08318577,53.7728854 C2.21816776,53.9120699 2.37274391,53.9843806 2.62256945,54.0131961 C2.87076214,54.0365748 3.18209157,53.9936233 3.50158524,53.9071767 C4.1944565,53.714167 4.91127619,53.4292738 5.61557738,53.1258951 C7.02962259,52.5093515 8.4251622,51.7960311 9.80437335,51.0533515 C12.5633399,49.5625553 15.2667897,47.9445359 17.9348612,46.2721476 C23.2628398,42.914866 28.4737978,39.346633 33.4507144,35.5043806 C34.2176081,34.9057786 34.977426,34.297934 35.7318012,33.683565 C35.7388769,33.0920311 35.7568382,32.5010408 35.7884066,31.9122252 C35.8776688,30.1055456 36.0877618,28.3130019 36.3702442,26.5340505 L36.3702442,26.5340505 L35.2691613,26.7439146 C33.7233998,27.0815456 32.1569556,27.3126136 30.5905113,27.5425942 L30.5905113,27.5425942 L21.7475581,28.8713709 C22.3364715,29.3590602 23.4250359,30.4464388 23.4250359,33.1648854 C23.4250359,35.3396427 21.784025,38.3843029 21.784025,38.3843029 L21.784025,38.3843029 L21.9962951,37.1403417 C22.0556218,36.7244194 22.0986201,36.3063223 22.1497827,35.8909437 C22.2189065,35.0558369 22.2635377,34.2196427 22.2183622,33.3894291 C22.188971,32.5592155 22.0757603,31.7355262 21.8716545,30.946633 C21.7698737,30.5519146 21.6338031,30.1691573 21.4710627,29.8054291 C21.3137652,29.4531184 21.0873438,29.0779728 20.8739851,28.8539728 L20.8739851,28.8539728 L20.4293066,28.3880311 L21.0628511,28.2417786 L30.3167374,26.1056233 C31.8576004,25.7440699 33.3995519,25.3836039 34.9610976,25.129701 L34.9610976,25.129701 L36.6685109,24.8083806 C36.7164077,24.5512155 36.759406,24.2924194 36.8100243,24.0352544 C37.0669255,22.737468 37.3793435,21.4532738 37.7037357,20.1717981 C38.2801306,18.9582835 38.8821067,17.7589049 39.6359376,16.6367301 L39.6359376,16.6367301 L39.297394,20.5947883 C38.950142,21.8354874 38.6676595,23.0941282 38.4113026,24.3565748 C38.4025941,24.3989825 38.3960627,24.441934 38.3873542,24.4854291 L38.3873542,24.4854291 L39.6375704,24.2500117 C40.4496395,24.1140893 41.2704171,23.9988272 42.1755584,24.0336233 C42.6322112,24.0678757 43.113901,24.1021282 43.6761445,24.3919146 C43.951007,24.5376233 44.2601593,24.7985942 44.4310639,25.1617786 C44.6052342,25.5206136 44.6237398,25.8941282 44.5889058,26.1893515 C44.5088963,26.7874097 44.288462,27.2060505 44.0707491,27.6018563 C43.8481377,27.9938563 43.599945,28.3412738 43.3435881,28.6756427 C42.8303299,29.3411184 42.2773392,29.9418951 41.71183,30.5241864 C40.3244546,31.9263612 38.8603354,33.2127301 37.3635593,34.4517981 C37.3766221,36.1899728 37.5088827,37.9210796 37.8022508,39.6190214 C38.0286722,40.8629825 38.317686,42.0949825 38.7405933,43.2764194 C38.9310921,44.538866 39.2424215,45.793701 39.6359376,47.083332 C38.6823551,46.1340505 37.8915131,45.011332 37.2002746,43.817934 C36.7430776,42.538633 36.4339253,41.2207301 36.1938968,39.8990214 C35.9560455,38.5234874 35.8199749,37.1397981 35.7611924,35.7561087 C35.3257667,36.1029825 34.8908852,36.4498563 34.4521937,36.7923806 C29.4159503,40.6803029 24.1766897,44.2670214 18.8035356,47.6531184 C16.1126043,49.3396427 13.3862946,50.9723417 10.5799755,52.489235 C9.17463882,53.2449631 7.7518851,53.9735068 6.26599463,54.6221282 C5.51869515,54.9429049 4.76323142,55.2479146 3.93211247,55.4806136 C3.48906675,55.5975068 3.00737698,55.6839534 2.46527189,55.6361087 C1.92969818,55.5947883 1.30867217,55.3419728 0.902093352,54.898866 C0.491160276,54.4633709 0.287598725,53.9544777 0.170033766,53.4917981 C0.0535573705,53.0231379 0.0111033573,52.5724194 0.00185055955,52.1363806 C-0.0144779071,51.2632155 0.0851257393,50.4340893 0.222829141,49.6223612 C0.506400178,48.002167 0.949445905,46.449934 1.44583129,44.9237981 C2.4494877,41.8747883 3.68718547,38.9345165 5.01741122,36.0431767 C7.69854544,30.2708272 10.7753728,24.7001864 14.1825795,19.3307107 C15.8910814,16.649235 17.6893899,14.0204971 19.6188703,11.4803806 C20.5849713,10.2114097 21.5826406,8.96364272 22.6309282,7.7528466 C23.6748615,6.54041942 24.7318575,5.32364272 25.9886052,4.2759534 C26.615074,3.75020583 27.261137,3.23968155 27.9893866,2.79766214 C28.3524229,2.57692427 28.7399518,2.37467184 29.1655805,2.21210874 Z M78.8246384,0.543254369 C80.4591179,2.42224466 81.9145286,4.44313786 83.3427251,6.48088544 C84.530349,8.65455534 85.7125299,10.8304 86.8108915,13.0486524 L86.8108915,13.0486524 L86.8190557,13.0649631 C88.6636281,11.4616233 90.5517432,9.90667184 92.5095263,8.44142913 C94.7731961,6.75707961 97.1293938,5.13471068 99.7250757,4.02286602 C98.5053392,4.72966214 97.347651,5.51474951 96.2569094,6.39443883 C95.1492951,7.24803107 94.0901219,8.16306019 93.0521757,9.0992932 C91.1379351,10.8287689 89.3091468,12.6517592 87.5342425,14.5231379 C89.4756972,18.4735845 91.3044855,22.4778563 92.9699891,26.550633 C94.8259914,31.135565 96.5959972,35.7585553 98.1101904,40.4690796 C98.919538,42.8069437 99.5939037,45.1877592 100.311268,47.5544388 C100.777173,49.9945165 101.133678,52.4568854 101.466779,54.9121864 C100.994886,53.7606524 100.535512,52.6091184 100.090289,51.4564971 C99.6352691,50.3060505 99.2341331,49.1436427 98.7426463,48.0084194 C98.0307251,45.6602252 97.3623466,43.2984388 96.5595303,40.9790602 C95.0578557,36.3065942 93.3009127,31.7194874 91.4601502,27.1715262 C89.8795546,23.3058951 88.1492814,19.5027883 86.3177718,15.751332 C84.5853215,17.461235 82.8740982,19.1956039 81.2271002,20.9886913 C79.3422508,23.0449243 77.46992,25.1354097 75.8397947,27.341701 C74.9961573,28.4785553 74.214568,29.6213903 73.1869632,30.7473709 C73.0541583,30.8887301 72.9148221,31.0290019 72.7471832,31.1714485 C72.5828099,31.3111767 72.401564,31.4596039 72.1038416,31.5944388 C71.9585182,31.6575068 71.7571338,31.7281864 71.4888027,31.7162252 C71.2264586,31.7184 70.9009779,31.5683417 70.7415032,31.4041476 C70.4013268,31.0637981 70.3414557,30.7832544 70.2674334,30.5559922 C70.1449699,30.0938563 70.1270086,29.718167 70.1052373,29.3354097 C70.0856431,28.9559146 70.0899974,28.591099 70.0948959,28.2262835 C70.1188443,27.3547495 70.1754497,26.5044194 70.2423964,25.6557204 C69.7095441,26.1450408 69.1739704,26.6316427 68.6373081,27.1160699 L68.6373081,27.1160699 L65.4951669,29.9302058 C64.4485121,30.8561087 63.4356029,31.8206136 62.3377857,32.7541282 C61.7842507,33.2178951 61.2318042,33.6773126 60.5683242,34.1008466 C60.2243378,34.3047301 59.8847057,34.5287301 59.2941595,34.639099 C59.0007914,34.6902058 58.5278102,34.6483417 58.1805581,34.3705165 C57.8458245,34.1046524 57.7026783,33.7827883 57.6270231,33.5528078 C57.4653713,33.0613126 57.4484985,32.6731184 57.4261829,32.285468 C57.4114873,31.9027107 57.414753,31.5335456 57.4267272,31.1703612 C57.4506756,30.4439922 57.5040153,29.7361087 57.557355,29.0314874 C57.7761564,26.223332 58.0368676,23.3852738 58.6731335,20.567332 C59.0029685,19.1613515 59.4100916,17.749934 60.1143928,16.3983223 C60.4698091,15.7257786 60.9030578,15.0657398 61.485984,14.4801864 C62.0678217,13.9038757 62.8553981,13.4172738 63.7278825,13.2753709 C63.9423297,13.2324194 64.1605869,13.2307883 64.3755783,13.2144777 C64.5905698,13.2269825 64.7957642,13.229701 65.0151099,13.2590602 L65.0151099,13.2590602 L65.3552863,13.3270214 C65.4652313,13.3455068 65.5806192,13.3770408 65.7047155,13.4352155 C65.8250019,13.4874097 65.9436554,13.5357981 66.0595875,13.598866 C66.1776968,13.6831379 66.2930846,13.773934 66.4024853,13.8685359 C66.8428096,14.2991379 66.9679945,14.9015456 66.9554761,15.3604194 C66.920642,15.8116816 66.8270255,16.2205359 66.6876892,16.5810019 C66.1325213,18.0277592 65.3073895,19.1939728 64.4550435,20.3395262 C62.9261548,22.3484583 61.2356142,24.1942835 59.4710512,25.9612738 C59.3583848,27.021468 59.2685783,28.0881864 59.1858474,29.1576233 C59.1325077,29.8530019 59.0808009,30.5456621 59.0590296,31.223099 C59.0475997,31.5612738 59.0454225,31.8945553 59.0573968,32.2131573 C59.0688267,32.5116427 59.1047493,32.8166524 59.1635318,32.9955262 C59.3006909,32.9471379 59.5107838,32.8432932 59.7012826,32.7187883 C60.2237936,32.3871379 60.758823,31.9505553 61.2802453,31.5107107 C62.3241786,30.6250408 63.3479735,29.6518369 64.4055139,28.7150602 L64.4055139,28.7150602 L67.5433009,25.9058175 C68.5273631,25.0168854 69.5059825,24.1225165 70.4720835,23.2183612 C70.6005341,22.0526913 70.7534774,20.8864777 70.9641146,19.7235262 C71.2248258,18.3137398 71.5541165,16.9055845 72.0439705,15.5202641 C72.5452545,14.1469049 73.1809761,12.7534291 74.3060074,11.5904777 C74.8677067,11.0185165 75.5845264,10.5270214 76.405304,10.2720311 C77.2233601,10.0105165 78.1007431,10.006167 78.8888637,10.1676427 C79.2965311,10.245934 79.759171,10.3785942 80.2033053,10.7118757 C80.6545153,11.0418951 80.9756418,11.6747495 80.9881603,12.1950602 C81.0229943,12.7213515 80.912505,13.1606524 80.781333,13.5537398 C80.646351,13.9473709 80.4770793,14.3007689 80.2963776,14.6389437 C79.5572423,15.9731573 78.6472024,17.0898951 77.7159356,18.1810796 C76.7792259,19.2651961 75.7995179,20.2954874 74.8013043,21.3024 C73.8901758,22.2196039 72.9610861,23.1145165 72.0238321,23.9985553 C71.8801416,25.4224777 71.7838036,26.8518369 71.7277426,28.2616233 C71.722844,28.5987107 71.719034,28.9368854 71.7359068,29.2582058 C71.7451596,29.4582835 71.7614881,29.6610796 71.786525,29.8394097 C71.857826,29.7736233 71.9302155,29.7024 72.0020608,29.6251961 C72.8723681,28.6764583 73.6936899,27.5010019 74.5199104,26.3815456 C76.2305894,24.0681476 78.1170715,21.9678757 80.0269579,19.8828272 C81.8279877,17.9478369 83.6594974,16.0427495 85.5590423,14.2034485 L85.5590423,14.2034485 L85.3522151,13.7815456 C84.8106543,12.6811184 84.2407908,11.5953709 83.6660288,10.5123417 C83.1075952,9.4200699 82.4947334,8.35878835 81.903643,7.28500194 C80.9119608,5.03140971 79.8870773,2.79032233 78.8246384,0.543254369 Z M87.3492954,46.922835 C87.8304409,46.922835 88.2609681,47.0293981 88.6403329,47.2419806 C89.0196976,47.4540194 89.3157871,47.7530485 89.5280572,48.1385243 C89.7414158,48.5234563 89.8475508,48.9687379 89.8475508,49.4738252 C89.8475508,49.5537476 89.8415637,49.6679223 89.8290452,49.8158058 L89.8290452,49.8158058 L85.952123,49.8158058 C86.0201582,50.179534 86.1975942,50.4671456 86.484431,50.6797282 C86.7707234,50.8928544 87.1272283,50.9988738 87.552857,50.9988738 C88.0955064,50.9988738 88.5429063,50.82 88.8945127,50.4627961 L88.8945127,50.4627961 L89.5144501,51.1744854 C89.292383,51.4392621 89.0115333,51.6398835 88.6724455,51.7752621 C88.3333577,51.9111845 87.9507273,51.9786019 87.5250986,51.9786019 C86.9824492,51.9786019 86.5040251,51.8709515 86.0909149,51.6551068 C85.6778047,51.4392621 85.3583111,51.1391456 85.1335225,50.7542136 C84.9081897,50.3687379 84.7955232,49.932699 84.7955232,49.4460971 C84.7955232,48.9654757 84.904924,48.532699 85.1242697,48.1472233 C85.3430712,47.7622913 85.6467806,47.4621748 86.0353981,47.2463301 C86.4240157,47.0310291 86.8616186,46.922835 87.3492954,46.922835 Z M51.2363878,46.9228893 C51.742026,46.9228893 52.1954131,47.0305398 52.5965491,47.2463845 C52.9971408,47.4622291 53.3106474,47.7607146 53.5359802,48.1429282 C53.7607688,48.5251417 53.8734352,48.9595495 53.8734352,49.4461515 C53.8734352,49.9327534 53.7607688,50.3687922 53.5359802,50.754268 C53.3106474,51.1392 52.9971408,51.4393165 52.5965491,51.6551612 C52.1954131,51.8710058 51.742026,51.9786563 51.2363878,51.9786563 C50.7367367,51.9786563 50.2860711,51.8710058 49.8854793,51.6551612 C49.4843433,51.4393165 49.1713811,51.1392 48.9460482,50.754268 C48.7207154,50.3687922 48.6085933,49.9327534 48.6085933,49.4461515 C48.6085933,48.9595495 48.7207154,48.5251417 48.9460482,48.1429282 C49.1713811,47.7607146 49.4843433,47.4622291 49.8854793,47.2463845 C50.2860711,47.0305398 50.7367367,46.9228893 51.2363878,46.9228893 Z M73.1280174,46.9228893 C73.61515,46.9228893 74.0424116,47.0212971 74.4098021,47.2186563 C74.7766483,47.4160155 75.0525994,47.6992777 75.2376553,48.0689864 L75.2376553,48.0689864 L74.3493867,48.5865786 C74.2073291,48.3587728 74.0298931,48.1875107 73.817623,48.0733359 C73.6048087,47.9597049 73.3713116,47.9026175 73.1187646,47.9026175 C72.6871488,47.9026175 72.3290111,48.0428893 72.0454401,48.3228893 C71.7613248,48.603433 71.6198114,48.978035 71.6198114,49.4461515 C71.6198114,49.914268 71.7602362,50.2888699 72.0410858,50.5688699 C72.3213912,50.8494136 72.6806174,50.9896854 73.1187646,50.9896854 C73.3713116,50.9896854 73.6048087,50.9325981 73.817623,50.8184233 C74.0298931,50.7047922 74.2073291,50.5335301 74.3493867,50.3057243 L74.3493867,50.3057243 L75.2376553,50.8233165 C75.0466123,51.1930252 74.7673955,51.4779184 74.400005,51.6779961 C74.0331588,51.8786175 73.6091629,51.9786563 73.1280174,51.9786563 C72.6158479,51.9786563 72.1564737,51.8710058 71.7493506,51.6551612 C71.3422275,51.4393165 71.0243666,51.1392 70.7963124,50.754268 C70.5677139,50.3687922 70.4539589,49.9327534 70.4539589,49.4461515 C70.4539589,48.9595495 70.5677139,48.5251417 70.7963124,48.1429282 C71.0243666,47.7607146 71.3405946,47.4622291 71.7449963,47.2463845 C72.1488537,47.0305398 72.6098608,46.9228893 73.1280174,46.9228893 Z M47.6001472,44.9910524 C48.0442814,44.9910524 48.3926221,45.0807612 48.6457133,45.2590913 L48.6457133,45.2590913 L48.3218654,46.1279068 C48.1242909,45.9925282 47.9114766,45.924567 47.6834223,45.924567 C47.1957455,45.924567 46.9524513,46.1893437 46.9524513,46.7194408 L46.9524513,46.7194408 L46.9524513,47.0152078 L48.3126126,47.0152078 L48.3126126,47.9394796 L46.9894625,47.9394796 L46.9894625,51.9138485 L45.8328628,51.9138485 L45.8328628,47.9394796 L45.0186166,47.9394796 L45.0186166,47.0152078 L45.8328628,47.0152078 L45.8328628,46.7009553 C45.8328628,46.1714019 45.9868947,45.7538485 46.2955027,45.4488388 C46.6041107,45.1432854 47.0384479,44.9910524 47.6001472,44.9910524 Z M64.1994486,45.4439456 C64.7606036,45.4439456 65.249369,45.5363728 65.6657449,45.7212272 C66.0826651,45.9060816 66.4016145,46.1714019 66.6236816,46.516101 C66.8457488,46.8613437 66.9567823,47.2712854 66.9567823,47.7453825 C66.9567823,48.2325282 66.8381288,48.6511689 66.6002775,49.0023922 C66.3629704,49.3536155 66.0222498,49.6156738 65.5781155,49.7880233 L65.5781155,49.7880233 L67.0678159,51.9138485 L65.7724242,51.9138485 L64.4492741,50.0190913 C64.3937574,50.0250718 64.3104822,50.028334 64.1994486,50.028334 L64.1994486,50.028334 L62.7375066,50.028334 L62.7375066,51.9138485 L61.5346429,51.9138485 L61.5346429,45.4439456 Z M57.8427221,46.9228893 L57.8427221,48.0227728 C57.744207,48.0042874 57.6544005,47.9950447 57.574391,47.9950447 C57.1242696,47.9950447 56.7726633,48.1260738 56.519572,48.388132 C56.2664808,48.6501903 56.1402073,49.026967 56.1402073,49.5200932 L56.1402073,49.5200932 L56.1402073,51.9139573 L54.9836076,51.9139573 L54.9836076,46.9783456 L56.0846906,46.9783456 L56.0846906,47.6992777 C56.4177913,47.1816854 57.0034389,46.9228893 57.8427221,46.9228893 L57.8427221,46.9228893 Z M83.6855685,46.9785631 L83.6855685,51.9141748 L82.5289688,51.9141748 L82.5289688,46.9785631 L83.6855685,46.9785631 Z M69.343732,46.9785631 L69.343732,51.9141748 L68.1871323,51.9141748 L68.1871323,46.9785631 L69.343732,46.9785631 Z M77.3472388,45.0557515 L77.3472388,47.5512854 C77.5382818,47.3479456 77.7745003,47.1924505 78.0548057,47.0848 C78.3356553,46.9771495 78.6486176,46.9227806 78.9942368,46.9227806 C79.6174399,46.9227806 80.117091,47.1043728 80.49319,47.468101 C80.869289,47.8318291 81.0576107,48.3711689 81.0576107,49.0855767 L81.0576107,49.0855767 L81.0576107,51.9138485 L79.901011,51.9138485 L79.901011,49.2334602 C79.901011,48.8023146 79.7992302,48.4771883 79.5956686,48.2586252 C79.3921071,48.0400621 79.1020047,47.9302369 78.7259056,47.9302369 C78.3002769,47.9302369 77.9639105,48.0580039 77.7173507,48.3140816 C77.4707908,48.5696155 77.3472388,48.9376932 77.3472388,49.4183146 L77.3472388,49.4183146 L77.3472388,51.9138485 L76.1906391,51.9138485 L76.1906391,45.0557515 L77.3472388,45.0557515 Z M51.2363878,47.9026175 C50.8107591,47.9026175 50.4607857,48.0445204 50.1859231,48.3277825 C49.9116049,48.6110447 49.7744458,48.9840155 49.7744458,49.4461515 C49.7744458,49.9082874 49.9116049,50.2812583 50.1859231,50.5645204 C50.4607857,50.8477825 50.8107591,50.9896854 51.2363878,50.9896854 C51.6620165,50.9896854 52.0136228,50.8477825 52.2912068,50.5645204 C52.5687907,50.2812583 52.7075827,49.9082874 52.7075827,49.4461515 C52.7075827,48.9840155 52.5687907,48.6110447 52.2912068,48.3277825 C52.0136228,48.0445204 51.6620165,47.9026175 51.2363878,47.9026175 Z M87.3492954,47.8471068 C86.9791835,47.8471068 86.6662212,47.9563883 86.4098643,48.1754951 C86.1540517,48.3940583 85.998387,48.6854757 85.9428702,49.0486602 L85.9428702,49.0486602 L88.7464679,49.0486602 C88.6969382,48.6914563 88.546172,48.4016699 88.2930808,48.1798447 C88.0399896,47.9580194 87.7253944,47.8471068 87.3492954,47.8471068 Z M64.1439318,46.4606447 L62.7375066,46.4606447 L62.7375066,49.0393631 L64.1439318,49.0393631 C64.6680756,49.0393631 65.0659459,48.9268194 65.3375427,48.701732 C65.6085953,48.4771883 65.7446658,48.1580427 65.7446658,47.7453825 C65.7446658,47.3327223 65.6085953,47.0152078 65.3375427,46.7933825 C65.0659459,46.5715573 64.6680756,46.4606447 64.1439318,46.4606447 L64.1439318,46.4606447 Z M83.1117318,44.7785243 C83.3212804,44.7785243 83.4970836,44.8415922 83.6391412,44.9682718 C83.7806546,45.0944078 83.8519556,45.253165 83.8519556,45.444 C83.8519556,45.6473398 83.7822875,45.8186019 83.6440398,45.956699 C83.5052478,46.0953398 83.3278118,46.164932 83.1117318,46.164932 C82.9021831,46.164932 82.72638,46.0986019 82.5843223,45.9664854 C82.4428089,45.8338252 82.371508,45.6690874 82.371508,45.4717282 C82.371508,45.2749126 82.4428089,45.1096311 82.5843223,44.9775146 C82.72638,44.8448544 82.9021831,44.7785243 83.1117318,44.7785243 Z M68.770113,44.7785243 C68.9796616,44.7785243 69.1554648,44.8415922 69.2975224,44.9682718 C69.4390358,45.0944078 69.5103368,45.253165 69.5103368,45.444 C69.5103368,45.6473398 69.4406687,45.8186019 69.302421,45.956699 C69.163629,46.0953398 68.986193,46.164932 68.770113,46.164932 C68.5605643,46.164932 68.3847612,46.0986019 68.2427035,45.9664854 C68.1011901,45.8338252 68.0298892,45.6690874 68.0298892,45.4717282 C68.0298892,45.2749126 68.1011901,45.1096311 68.2427035,44.9775146 C68.3847612,44.8448544 68.5605643,44.7785243 68.770113,44.7785243 Z M47.9093539,16.6370019 C48.2468089,17.7493903 48.4705089,18.8672155 48.6920317,19.9866718 L48.6920317,19.9866718 L48.5946052,23.3298175 C48.5586826,24.4307883 48.5145957,25.5312155 48.4618003,26.6321864 C49.0817378,25.4545553 49.6962324,24.2720311 50.3651553,23.1096233 C51.0542166,21.934167 51.7133423,20.775565 52.6701905,19.6430602 C52.7975525,19.5011573 52.9298131,19.3587107 53.0925535,19.214633 C53.2656352,19.0732738 53.4332741,18.9156039 53.793589,18.7834874 C53.870877,18.7514097 54.0069476,18.7269437 54.1250568,18.7166136 C54.262216,18.7133515 54.4167921,18.7198757 54.5664697,18.7785942 C54.8914062,18.8916816 55.064488,19.1118757 55.1776987,19.2847689 C55.3703746,19.6245748 55.3916016,19.8491184 55.4302456,20.0693126 C55.4895724,20.5037204 55.4716111,20.8625553 55.4710668,21.1887689 L55.4710668,21.1887689 L55.4585483,22.1994874 C55.4035758,24.8874874 55.2669609,27.5564583 55.1200047,30.2259728 L55.1200047,30.2259728 L54.8761663,34.2275262 C54.541977,35.5437981 54.2110534,36.8600699 53.7876019,38.167099 C53.5579148,36.8127689 53.4076929,35.4671379 53.2471296,34.1215068 L53.2471296,34.1215068 L53.4898795,30.1340893 C53.6362914,27.4765359 53.7718177,24.8157204 53.8257016,22.1690408 L53.8257016,22.1690408 L53.8382201,21.1789825 C53.8393087,21.0436039 53.8409415,20.9147495 53.8403972,20.7918757 C53.0909206,21.6884194 52.4198206,22.821468 51.7824662,23.9197204 C51.1325932,25.063099 50.5017701,26.2276816 49.9128567,27.4140117 C49.3789159,28.1121087 48.8438865,28.8145553 48.2985157,29.5142835 C48.28763,29.6811961 48.2805544,29.8481087 48.2696687,30.0150214 C48.1270668,32.2436039 47.9420108,34.4716427 47.6758568,36.6985942 C47.5544819,37.8126136 47.3857544,38.9255456 47.2110398,40.0390214 C46.9846184,40.5740117 46.7728926,41.1073709 46.5361298,41.6320311 C46.2797729,42.1550602 46.0108975,42.6672155 45.732225,43.1684971 C45.7039223,42.5872932 45.6843282,42.0169631 45.6777968,41.4564194 L45.6777968,41.4564194 L45.6005087,39.7704388 C45.7703248,38.6884971 45.934698,37.6027495 46.0544401,36.5066718 C46.3162398,34.3204971 46.4991187,32.1169243 46.640632,29.9090019 C46.7848668,27.702167 46.8904576,25.4893515 46.9628471,23.2754485 C46.9960483,22.1684971 47.0374138,21.0615456 47.0434009,19.9540505 C47.3084663,18.8509049 47.5664561,17.7466718 47.9093539,16.6370019 Z M42.0971818,25.6630602 C41.4190061,25.6342447 40.6619096,25.729934 39.9167872,25.8571573 L39.9167872,25.8571573 L38.0716705,26.2089243 C37.7478225,28.1286913 37.5143255,30.0615068 37.4185318,31.9970408 C37.4136333,32.0927301 37.4109119,32.1878757 37.4065576,32.283565 C38.4924006,31.3500505 39.5488524,30.3909825 40.5427117,29.3851573 C41.0788297,28.8338563 41.5975307,28.2678757 42.0492849,27.681235 C42.2740735,27.3887301 42.4847107,27.0902447 42.6518054,26.7950214 C42.8199886,26.505235 42.9484392,26.195332 42.9664005,26.0050408 C42.9778304,25.9098951 42.9631348,25.8761864 42.9631348,25.8761864 C42.9664005,25.8783612 42.9642233,25.8636816 42.8929224,25.8229049 C42.7503204,25.7413515 42.4242954,25.6777398 42.0971818,25.6630602 Z M63.7131869,19.8349825 C65.0270841,17.7368854 66.9511218,13.8853903 64.0457433,14.8884971 C63.5357509,15.0211573 63.0611368,15.2674485 62.6349638,15.6648854 C62.2087908,16.061235 61.8588173,16.5891573 61.5600064,17.1562252 C60.961296,18.2990602 60.5726785,19.6082641 60.2646147,20.9316039 C59.9075656,22.5093903 59.6724357,24.125235 59.4939111,25.7590214 C60.1334427,24.9505553 60.7604558,24.1333903 61.3640648,23.3010019 C62.1919181,22.1712155 62.9898358,21.0196816 63.7131869,19.8349825 Z M78.5759015,11.7682641 C77.3953533,11.5121864 76.305156,11.8677592 75.4669614,12.7376621 C74.6227797,13.5999534 74.0316892,14.8145553 73.5826564,16.0672155 C73.1347121,17.3312932 72.8195727,18.6660505 72.5702914,20.0160311 C72.4870163,20.4825165 72.4195253,20.9560699 72.3493129,21.4285359 C72.7831058,21.006633 73.2158102,20.5825553 73.6419831,20.1535845 C74.6216911,19.165701 75.5790836,18.1582447 76.4793263,17.1165359 C77.3714049,16.0764583 78.2379022,14.9923417 78.8600168,13.8636427 C79.159372,13.3177786 79.3939576,12.6936233 79.3602121,12.3239146 C79.3438837,12.1401476 79.3036068,12.0977398 79.2001932,11.9987883 C79.0793625,11.9079922 78.8551182,11.8161087 78.5759015,11.7682641 Z M42.6838636,4.89287767 C42.8955894,5.23322718 43.0256728,5.52301359 43.1611991,5.81225631 C43.127635,5.8724246 43.0972157,5.93410313 43.068409,5.99656699 L42.902665,6.37497476 C42.7393804,6.75501359 42.5842599,7.13777087 42.4389366,7.52270291 C42.2947018,7.90763495 42.1624412,8.29419806 42.0416106,8.68130485 C41.9855495,8.87485825 41.9256784,9.06841165 41.8783259,9.26087767 C41.5844135,9.39245049 41.3106395,9.53380971 40.9427048,9.67734369 C40.6678422,9.40604272 40.4778877,9.13093592 40.2977303,8.8520233 C40.3521585,8.63182913 40.4174724,8.4192466 40.4800649,8.20394563 C40.6123254,7.77878058 40.7554717,7.3606835 40.9105921,6.94911068 C41.0657125,6.53808155 41.2300858,6.13248932 41.4026232,5.73070291 C41.4858984,5.52845049 41.5849578,5.33326602 41.6617016,5.12720777 C41.973031,5.02988738 42.2849047,4.93419806 42.6838636,4.89287767 Z" id="Combined-Shape"></path>
            </g>
        </g>
    </g>
</svg>