<?xml version="1.0" encoding="UTF-8"?>
<svg width="183px" height="32px" viewBox="0 0 183 32" version="1.1" xmlns="http://www.w3.org/2000/svg" xmlns:xlink="http://www.w3.org/1999/xlink">
    <!-- Generator: Sketch 59.1 (86144) - https://sketch.com -->
    <title>Group 25</title>
    <desc>Created with Sketch.</desc>
    <g id="Page-1" stroke="none" stroke-width="1" fill="none" fill-rule="evenodd">
        <g id="Desktop-HD" transform="translate(-1131.000000, -3859.000000)" fill="#424242">
            <g id="Group-25" transform="translate(1131.000000, 3859.000000)">
                <path d="M15.9998484,8.52651283e-14 C24.8359974,8.52651283e-14 31.9993936,7.16339622 31.9993936,15.9998484 C31.9993936,24.8363006 24.8359974,32 15.9998484,32 C7.16309302,32 1.3500312e-13,24.8363006 1.3500312e-13,15.9998484 C1.3500312e-13,7.16339622 7.16309302,8.52651283e-14 15.9998484,8.52651283e-14 Z M15.9998484,2.31220095 C8.44017017,2.31220095 2.31159455,8.44017017 2.31159455,15.9998484 C2.31159455,23.5598298 8.44017017,29.6877991 15.9998484,29.6877991 C23.5595266,29.6877991 29.6877991,23.5598298 29.6877991,15.9998484 C29.6877991,8.44017017 23.5595266,2.31220095 15.9998484,2.31220095 Z M128.236829,10.9893823 C134.062179,10.9893823 134.573216,13.4576299 134.589354,17.0718198 L134.589773,24.2382998 C134.589773,25.1712453 134.589773,25.6366568 135.224673,26.3340162 L135.224673,26.5668735 L129.930503,26.5668735 L129.719476,24.9389943 C129.083666,25.8686046 128.236829,26.3340162 127.601929,26.7991245 C126.754486,27.2639297 125.907649,27.2639297 125.060812,27.2639297 C122.519696,27.2639297 120.402149,25.6366568 120.402149,22.381808 C120.402149,17.4987768 124.848876,17.7319374 127.601929,17.2665258 C128.660096,17.0342748 129.506933,16.8014175 129.506933,15.8712008 C129.506933,14.7057011 128.448766,14.4731469 127.813259,14.4731469 L127.601929,14.4767853 C126.966423,14.4767853 125.907649,14.9382553 125.907649,16.1040581 L121.037656,16.1040581 C121.037656,13.0817635 122.943266,11.0118191 127.601929,11.0118191 C127.813259,11.0118191 127.813259,10.9893823 128.236829,10.9893823 Z M72.9701633,11.2214817 L72.9701633,19.5916127 C72.9701633,21.6839939 73.6053666,22.3819596 74.8760766,22.3819596 C76.3614519,22.3819596 76.7819899,20.9860282 76.7819899,18.661396 L76.7819899,18.661396 L76.7819899,11.2214817 L81.8639202,11.2214817 L81.8639202,26.5667219 L77.2052567,26.5667219 L77.2052567,24.2384514 C75.93485,26.3341678 74.6638368,27.2637781 72.7585299,27.2637781 C69.79354,27.2637781 68.0998664,24.9388427 68.0998664,20.5218294 L68.0998664,20.5218294 L68.0998664,11.2214817 L72.9701633,11.2214817 Z M174.821736,10.9839854 L175.457242,10.989443 C181.282592,10.989443 181.793044,13.4573979 181.809161,17.071865 L181.809579,24.2383604 C181.809579,25.1713059 181.809579,25.6364143 182.445086,26.3340768 L182.445086,26.5669342 L177.150916,26.5669342 L176.939282,24.939055 C176.304079,25.8686653 175.457242,26.3340768 174.821736,26.7991852 C173.975505,27.2639903 173.128062,27.2639903 172.281225,27.2639903 C169.740109,27.2639903 167.622562,25.6364143 167.622562,22.3818687 C167.622562,17.4985342 172.069289,17.731998 174.821736,17.2665864 C175.880509,17.0343355 176.727346,16.8014781 176.727346,15.8712614 C176.727346,14.7057617 175.668572,14.4732076 175.033672,14.4732076 L174.821736,14.476846 C174.186229,14.476846 173.128062,14.9383159 173.128062,16.1041188 L168.258068,16.1041188 C168.258068,13.0818241 170.163679,10.9839854 174.821736,10.9839854 Z M159.363796,10.989352 C162.117456,10.989352 165.505409,11.6867113 165.928373,15.6389195 L165.928373,15.6389195 L161.058076,15.6389195 C161.058076,15.1741143 160.949227,15.058292 160.773978,14.5868165 C160.421053,14.2011465 159.999303,14.2411688 159.575733,14.2411688 C158.728896,14.2411688 158.305629,14.4731166 158.305629,15.1741143 C158.305629,17.4987465 166.140309,15.8714736 166.140309,21.683812 C166.140309,24.938964 164.02246,27.2638993 159.363796,27.2638993 C156.400019,27.2638993 153.435332,25.8685743 153.012065,21.9166694 L153.012065,21.9166694 L157.881756,21.9166694 C157.881756,22.3817777 157.996972,22.8981268 158.305629,23.311388 C158.49331,23.5639533 159.152466,23.7734643 159.575733,23.7734643 C160.422569,23.7734643 161.058076,23.311388 161.058076,22.3817777 C161.058076,19.8236818 153.435332,21.9166694 153.435332,15.8714736 C153.435332,11.9192655 156.822679,10.989352 159.363796,10.989352 Z M99.8626126,6.57164135 L99.8626126,11.221512 L102.403123,11.221512 L102.403123,14.7055798 L99.8626126,14.7055798 L99.8626126,20.2890024 C99.8626126,21.6840242 100.074246,22.1485262 101.34435,22.1485262 L101.34435,22.1485262 L102.191793,22.1485262 L102.191793,26.5667523 C95.6275192,27.2638084 94.7806824,26.3341981 94.7806824,21.2192191 L94.7806824,21.2192191 L94.7806824,14.7055798 L93.0864024,14.7055798 L93.0864024,11.221512 L94.7806824,11.221512 L94.7806824,6.57164135 L99.8626126,6.57164135 Z M109.814264,5.64212202 L109.814264,13.3142873 C110.87334,11.6867113 112.14405,10.989352 113.83833,10.989352 C117.226284,10.989352 118.708324,13.3142873 118.708324,17.4987465 L118.708324,17.4987465 L118.708324,26.5668432 L113.626394,26.5668432 L113.626394,18.4289632 C113.626394,17.0345477 113.414457,15.6389195 111.932114,15.6389195 C110.237834,15.6389195 109.814264,16.8013871 109.814264,18.8940715 L109.814264,18.8940715 L109.814264,26.5668432 L104.94427,26.5668432 L104.94427,5.64212202 L109.814264,5.64212202 Z M58.3594546,5.64212202 L58.3594546,21.683812 L66.4057684,21.683812 L66.4057684,26.5668432 L52.642321,26.5668432 L52.642321,5.64212202 L58.3594546,5.64212202 Z M92.2395353,5.1738604 L92.2395353,8.89684957 C90.5455586,8.89684957 89.9106584,8.89684957 90.1219886,11.2214817 L90.1219886,11.2214817 L92.2395353,11.2214817 L92.2395353,14.7055495 L90.1219886,14.7055495 L90.1219886,26.5667219 L85.0400584,26.5667219 L85.0400584,14.7055495 L83.3460816,14.7055495 L83.3460816,11.2214817 L85.0400584,11.2214817 C85.0400584,5.87394851 86.9456685,5.1738604 90.1219886,5.1738604 L90.1219886,5.1738604 L92.2395353,5.1738604 Z M146.235673,10.989352 C149.623627,10.989352 151.10597,13.3142873 151.10597,17.4987465 L151.10597,17.4987465 L151.10597,26.5668432 L146.024343,26.5668432 L146.024343,18.4289632 C146.024343,17.0345477 145.812407,15.6389195 144.329457,15.6389195 C142.635783,15.6389195 142.212213,16.8013871 142.212213,18.8940715 L142.212213,18.8940715 L142.212213,26.5668432 L137.34222,26.5668432 L137.34222,11.221603 L142.000277,11.221603 L142.000277,13.7790925 C143.05905,11.9192655 144.329457,10.989352 146.235673,10.989352 Z M129.506933,19.6135947 C128.872033,20.0787031 128.025196,20.3118636 127.601929,20.3118636 C126.542549,20.5441146 125.695713,21.009223 125.695713,22.1713874 C125.695713,22.8690499 126.119586,23.3341583 127.178662,23.3341583 L127.601929,23.3341583 C128.872033,23.1016041 129.506933,21.7062791 129.506933,19.6135947 Z M176.727346,19.5860642 C176.092446,20.0511725 175.245609,20.2840299 174.821736,20.2840299 C173.762962,20.5165841 172.916125,20.9816924 172.916125,22.1441601 C172.916125,22.8415194 173.339392,23.3066278 174.398469,23.3066278 L174.821736,23.3066278 C176.092446,23.0737704 176.727346,21.6790517 176.727346,19.5860642 Z M18.2917653,12.0881174 C21.8034243,11.5129476 26.2901735,11.8197857 28.6893927,12.2030301 L28.6893927,12.2030301 L28.267642,13.0086317 C28.267642,13.0086317 24.1404876,12.4580211 21.6660748,12.895235 L21.6660748,12.895235 L21.4756654,13.4094617 C21.4756654,13.4094617 23.0689798,13.3000066 23.9885845,13.2763571 C25.4542519,13.2381539 28.0326622,13.4667665 28.0326622,13.4667665 L28.0326622,13.4667665 L27.575437,14.2747937 C27.575437,14.2747937 25.2641457,14.0843843 24.0073829,14.0843843 C22.8843312,14.0843843 21.1709497,14.2365905 21.1709497,14.2365905 L21.1709497,14.2365905 L20.9429435,14.750514 C20.9429435,14.750514 23.1126406,14.6155901 23.9509878,14.5983078 C24.8830237,14.578903 27.3853308,14.750514 27.3853308,14.750514 L27.3853308,14.750514 L26.966612,15.5312533 C26.966612,15.5312533 24.8645285,15.4120958 23.8178831,15.3978454 C22.5260502,15.3800577 20.9075997,15.5227763 20.646829,15.5466863 L20.6106366,15.5500516 L20.4208336,16.025772 C20.4208336,16.025772 22.8652296,15.9117689 23.7029704,15.9117689 C24.502508,15.9117689 26.7298131,16.025772 26.7298131,16.025772 L26.7298131,16.025772 L26.3104879,16.8256128 C26.3104879,16.8256128 23.8521447,16.443278 20.7837637,17.018751 C18.6431737,17.4201874 17.8169545,18.3637449 17.8312049,18.3995225 C18.4448811,19.917037 21.0821122,20.8803024 21.8034243,21.1822893 C22.9919671,21.6813561 25.4845719,21.3360116 25.4845719,21.3360116 C25.4845719,21.3360116 24.5258544,22.9105277 24.4879544,22.9081049 C21.0745322,22.7161767 16.9109938,20.9527672 15.262497,20.1853687 C13.6130906,19.4185767 8.58331075,16.3286685 6.97332032,15.1401256 C5.36211709,13.9509764 2.98503141,13.2387603 2.98503141,13.2387603 L2.98503141,13.2387603 L3.21515999,12.471665 L5.44064582,13.0877668 L5.72686634,12.4022323 L12.4788206,15.2932415 L12.1719825,15.7531954 L8.69852664,14.4112335 C8.69852664,14.4112335 10.5613856,16.0218304 13.1306999,16.2137558 C17.1987304,16.5172587 17.9530912,12.143603 18.2917653,12.0881174 Z" id="Combined-Shape"></path>
            </g>
        </g>
    </g>
</svg>