<?xml version="1.0" encoding="UTF-8"?>
<svg width="95px" height="32px" viewBox="0 0 95 32" version="1.1" xmlns="http://www.w3.org/2000/svg" xmlns:xlink="http://www.w3.org/1999/xlink">
    <!-- Generator: Sketch 59.1 (86144) - https://sketch.com -->
    <title>shopper-approved-color-logo</title>
    <desc>Created with Sketch.</desc>
    <g id="Symbols" stroke="none" stroke-width="1" fill="none" fill-rule="evenodd">
        <g id="shopper-approved-color-logo">
            <g>
                <path d="M17.2297,8.5168 C14.6887,11.1368 12.4277,13.8818 10.5347,17.0458 C10.4007,16.6548 10.3027,16.3488 10.1917,16.0468 C9.7087,14.7228 9.2237,13.3988 8.7317,12.0778 C8.5217,11.5138 8.2247,11.3218 7.6217,11.3218 C6.5497,11.3228 5.4787,11.3218 4.3537,11.3218 C4.4817,11.6238 4.5967,11.8958 4.7107,12.1668 C5.5077,14.0488 6.1547,15.9818 6.7237,17.9428 C7.3577,20.1268 7.8477,22.3448 8.2647,24.5788 C8.3257,24.9058 8.3757,25.2338 8.4377,25.5608 C8.4717,25.7358 8.4207,25.8088 8.2317,25.8078101 C6.9407,25.7998 5.6497,25.7958 4.3577,25.7968 C3.5477,25.7978 2.8277,25.5988 2.2527,24.9768 C1.8437,24.5348 1.6607,24.0158 1.5907,23.4348 C1.4477,22.2278 1.3047,21.0208 1.1457,19.8158 C0.9637,18.4468 0.7577,17.0798 0.5777,15.7098 C0.3827,14.2268 0.2107,12.7418 0.0207,11.2588 C-0.1803,9.6928 1.1167,8.4828 2.5137,8.48778456 C7.3357,8.5028 12.1577,8.4918 16.9797,8.4918 C17.0297,8.4918 17.0807,8.5018 17.2297,8.5168" id="Fill-1" fill="#002639"></path>
                <path d="M30.0793,0.0734 C29.8483,0.2724 29.6133,0.4664 29.3873,0.6704 C27.8263,2.0754 26.4613,3.6524 25.2413,5.3624 C24.0633,7.0134 23.0233,8.7494 22.1163,10.5594 C21.4673,11.8544 20.8813,13.1844 20.3323,14.5264 C19.8103,15.8014 19.3323,17.0974 18.9133,18.4094 C18.5233,19.6304 18.2073,20.8774 17.9143,22.1254 C17.6763,23.1444 17.5173,24.1824 17.3283,25.2134 C17.2973,25.3754 17.2883,25.5424 17.2673,25.7324 L11.4673,25.7324 C11.6873,25.0894 11.8693,24.4664 12.1133,23.8674 C12.7523,22.3054 13.3493,20.7214 14.0913,19.2084 C14.9583,17.4394 15.9253,15.7154 16.9143,14.0104 C18.1213,11.9314 19.5483,9.9984 21.0693,8.1404 C22.4683,6.4314 23.9503,4.7964 25.6053,3.3274 C26.9363,2.1454 28.3433,1.0604 29.8323,0.0844 C29.8893,0.0474 29.9573,0.0274 30.0203,0.0004 L30.0793,0.0734 Z" id="Fill-3" fill="#002639"></path>
                <path d="M26.0437,20.4162 C26.1167,20.4262 26.1667,20.4372 26.2147,20.4372 C27.3087,20.4382 28.4017,20.4332 29.4957,20.4432365 C29.7187,20.4452 29.7607,20.3652 29.7367,20.1652 C29.5677,18.7832 29.4077,17.4012 29.2427,16.0192 C29.2207,15.8402 29.1887,15.6642 29.1587,15.4772 C28.8777,15.5772 26.2617,19.7592 26.0437,20.4162 M20.5827,25.7192 C20.8917,25.1732 21.1647,24.6882 21.4417,24.2052 C22.5237,22.3152 23.5997,20.4212 24.6927,18.5372 C25.3967,17.3262 26.0937,16.1092 26.8527,14.9332 C27.4097,14.0712 28.1517,13.3632 29.2197,13.2032 C29.8627,13.1062 30.5257,13.1422 31.1797,13.1372 C31.2357,13.1362 31.3347,13.2662 31.3427,13.3442 C31.5987,15.5312 31.8527,17.7182 32.0917,19.9072 C32.2347,21.2192 32.3517,22.5332 32.4807,23.8472 C32.5327,24.3732 32.5827,24.9002 32.6427,25.4252 C32.6677,25.6452 32.6137,25.7572 32.3637,25.7522 C31.7817,25.7412 31.1977,25.7442 30.6147,25.7532 C30.4097,25.7562 30.3007,25.6782 30.2807,25.4742 C30.1997,24.6462 30.1187,23.8192 30.0357,22.9932 C30.0027,22.6722 29.9757,22.3512 29.9197,22.0342 C29.9057,21.9522 29.7947,21.8242 29.7287,21.8242 C28.7827,21.8312 27.8317,21.8002 26.8927,21.8882 C25.6017,22.0092 24.7177,22.8022 24.0527,23.8592 C23.7287,24.3762 23.4337,24.9142 23.1357,25.4482 C23.0197,25.6572 22.8847,25.7672 22.6217,25.7562 C22.0497,25.7322 21.4767,25.7492 20.9037,25.7462 C20.8237,25.7462 20.7437,25.7332 20.5827,25.7192" id="Fill-5" fill="#002639"></path>
                <path d="M87.9236,23.965 C88.0136,23.99 88.0716,24.02 88.1306,24.022 C88.7236,24.033 89.3176,24.06 89.9096,24.044 C90.6546,24.023 91.1876,23.651 91.4866,22.966 C92.0526,21.67 92.2896,20.321 92.1146,18.909 C92.0556,18.435 91.6626,18.031 91.1856,18.007 C90.5326,17.973 89.8776,17.98 89.2236,17.95 C88.9826,17.94 88.8816,18.033 88.8496,18.257 C88.7736,18.802 88.6966,19.346 88.6076,19.889 C88.3846,21.237 88.1556,22.584 87.9236,23.965 M88.0636,25.748 C87.2936,25.748 86.5226,25.739 85.7526,25.753 C85.4796,25.758 85.3806,25.69 85.4296,25.398 C85.6546,24.078 85.8626,22.756 86.0796,21.435 C86.2756,20.238 86.4736,19.041 86.6706,17.843 C86.7356,17.444 86.8336,17.045 86.8496,16.643 C86.8616,16.322 86.9966,16.259 87.2706,16.266 C87.7906,16.278 88.3106,16.266 88.8316,16.27 C89.8816,16.278 90.9346,16.26 91.9836,16.309 C93.1566,16.363 94.0976,17.342 94.3256,18.494 C94.6076,19.92 94.3466,21.28 94.0306,22.651 C93.8876,23.275 93.6476,23.854 93.2806,24.377 C92.6876,25.222 91.8266,25.62 90.8396,25.688 C89.9186,25.752 88.9896,25.702 88.0646,25.702 C88.0646,25.717 88.0646,25.733 88.0636,25.748" id="Fill-7" fill="#002639"></path>
                <path d="M63.4402,24.0212 C64.6602,23.9722 65.1802,23.6672 65.5242,22.7562 C65.7962,22.0382 65.9112,21.2522 66.0302,20.4862 C66.1052,20.0112 66.0902,19.5142 66.0572,19.0312 C66.0222,18.5092 65.7062,18.1442 65.1902,18.0672 C64.7232,17.9972 64.2372,17.9972 63.7632,18.0282 C62.9522,18.0822 62.4842,18.5682 62.2282,19.3192 C61.8772,20.3512 61.7162,21.4192 61.6652,22.4952 C61.6232,23.3512 61.8982,23.7932 62.6692,23.9272 C62.9232,23.9712 63.1832,23.9902 63.4402,24.0212 M63.2652,25.7512 C62.5172,25.7582 61.7752,25.7752 61.0482,25.5142 C59.9352,25.1122 59.4942,24.2132 59.4282,23.1882 C59.3382,21.8082 59.5042,20.4452 59.9272,19.1252 C60.2112,18.2382 60.5782,17.3642 61.4182,16.8622 C61.8692,16.5932 62.3982,16.4062 62.9172,16.3112 C63.5342,16.1972 64.1792,16.1692 64.8082,16.1982 C65.4752,16.2292 66.1522,16.2352 66.7932,16.5112 C67.6982,16.9002 68.1462,17.6102 68.2962,18.5372 C68.4722,19.6172 68.3432,20.6842 68.1422,21.7532 C67.9942,22.5332 67.7842,23.2842 67.4142,23.9852 C66.7812,25.1852 65.7042,25.6532 64.4202,25.7472 C64.0372,25.7752 63.6502,25.7512 63.2652,25.7512" id="Fill-9" fill="#002639"></path>
                <path d="M54.5627,20.6086 L54.5627,20.6126 C54.8547,20.6126 55.1457,20.6156 55.4377,20.6116 C55.8557,20.6066 56.2027,20.4416 56.3767,20.0566 C56.5857,19.5966 56.6567,19.0996 56.5927,18.5936 C56.5447,18.2106 56.3947,18.0266 55.9977,17.9986 C55.3457,17.9536 54.6887,17.9566 54.0357,17.9656 C53.9537,17.9666 53.8207,18.1216 53.8017,18.2216 C53.6657,18.9236 53.5517,19.6316 53.4327,20.3376 C53.3987,20.5376 53.4747,20.6236 53.6887,20.6116 C53.9797,20.5976 54.2707,20.6086 54.5627,20.6086 M56.7167,22.0136 C57.2507,23.2726 57.7587,24.4696 58.2797,25.6986 C58.1647,25.7216 58.0977,25.7456 58.0317,25.7456 C57.4277,25.7496 56.8237,25.7396 56.2197,25.7546 C55.9897,25.7596 55.8837,25.6666 55.8147,25.4596 C55.4927,24.4876 55.1627,23.5176 54.8297,22.5496 C54.7117,22.2096 54.4997,21.9746 54.1057,21.9716 C54.0647,21.9706 54.0237,21.9576 53.9827,21.9536 C53.2167,21.8796 53.2017,21.8776 53.0707,22.6216 C52.9047,23.5616 52.7597,24.5056 52.6237,25.4506 C52.5907,25.6776 52.4937,25.7546 52.2797,25.7526 C51.7177,25.7466 51.1547,25.7446 50.5927,25.7516 C50.3587,25.7546 50.2927,25.6966 50.3427,25.4396 C50.4917,24.6656 50.6037,23.8846 50.7287,23.1066 C50.8147,22.5736 50.8997,22.0406 50.9847,21.5066 C51.1087,20.7286 51.2317,19.9506 51.3567,19.1726 C51.4417,18.6496 51.5307,18.1286 51.6167,17.6056 C51.6757,17.2476 51.7427,16.8896 51.7837,16.5286 C51.8067,16.3296 51.8927,16.2636 52.0857,16.2645888 C53.3247,16.2736 54.5637,16.2645888 55.8027,16.2816 C56.3087,16.2886 56.8277,16.2826 57.3157,16.3936 C58.2117,16.5966 58.7717,17.2036 58.8967,18.1126 C59.0317,19.0966 58.9057,20.0666 58.4127,20.9516 C58.0577,21.5876 57.5137,21.9756 56.7167,22.0136" id="Fill-11" fill="#002639"></path>
                <path d="M80.1272,21.9465 C80.0462,22.4045 79.9672,22.8225 79.9002,23.2415 C79.8462,23.5845 80.0282,23.8515 80.3692,23.8765 C80.8142,23.9085 81.2632,23.9055 81.7102,23.9075 C82.5112,23.9115 83.3132,23.9075 84.1152,23.9065 C84.4722,23.9065 84.4942,23.9375 84.4332,24.2785 C84.3612,24.6765 84.2952,25.0755 84.2372,25.4765 C84.2102,25.6685 84.1462,25.7565 83.9232,25.7545 C82.4232,25.7435 80.9232,25.7775 79.4242,25.7385 C78.7542,25.7215 78.0672,25.5595 77.7282,24.8875 C77.5752,24.5865 77.5052,24.1855 77.5502,23.8515 C77.7692,22.2475 78.0332,20.6505 78.2962,19.0535 C78.3802,18.5445 78.4472,18.0175 78.6312,17.5415 C78.9332,16.7625 79.5962,16.3455 80.4002,16.3165 C82.0742,16.2575 83.7512,16.2785 85.4262,16.2654895 C85.6152,16.2645 85.6812,16.3345 85.6442,16.5365 C85.5662,16.9545 85.4962,17.3755 85.4602,17.7985 C85.4352,18.0805 85.2992,18.1375 85.0522,18.1355 C83.9172,18.1285 82.7812,18.1445 81.6472,18.1265 C80.9412,18.1155 80.6232,18.3585 80.5782,19.0715 C80.5582,19.3875 80.4762,19.7005 80.4142,20.0635 L80.7522,20.0635 C81.8452,20.0645 82.9392,20.0655 84.0322,20.0655 C84.3932,20.0655 84.3892,20.0715 84.3242,20.4105 C84.2462,20.8185 84.1852,21.2295 84.1222,21.6395 C84.0892,21.8595 83.9942,21.9545 83.7512,21.9515 C82.6582,21.9385 81.5642,21.9465 80.4712,21.9465 L80.1272,21.9465 Z" id="Fill-13" fill="#002639"></path>
                <path d="M78.1511,16.3371 C77.9431,16.7371 77.7411,17.1211 77.5431,17.5061 C76.2711,19.9781 75.0011,22.4501 73.7291,24.9221 C73.3021,25.7511 73.3011,25.7511 72.3821,25.7511 C71.8311,25.7511 71.2781,25.7411 70.7271,25.7541 C70.5221,25.7581 70.4471,25.6671 70.4221,25.4871 C70.2741,24.4391 70.1341,23.3911 69.9741,22.3451 C69.7921,21.1541 69.5901,19.9661 69.4001,18.7771 C69.2801,18.0291 69.1661,17.2801 69.0481,16.5321 C69.0201,16.3511 69.0721,16.2641 69.2771,16.2671 C69.9131,16.2751 70.5481,16.2741 71.1831,16.2651 C71.3531,16.2621 71.4171,16.3081 71.4361,16.4861 C71.5471,17.4981 71.6741,18.5081 71.7951,19.5191 C71.9381,20.7261 72.0801,21.9331 72.2231,23.1391 C72.2271,23.1671 72.2451,23.1931 72.2791,23.2731 C72.4771,22.8751 72.6601,22.5141 72.8371,22.1501 C73.3421,21.1061 73.8461,20.0601 74.3481,19.0141 C74.7461,18.1831 75.1341,17.3461 75.5441,16.5211 C75.5971,16.4121 75.7431,16.2801 75.8501,16.2771 C76.5571,16.2581 77.2661,16.2701 77.9741,16.2761 C78.0221,16.2761 78.0691,16.3081 78.1511,16.3371" id="Fill-15" fill="#002639"></path>
                <path d="M46.0657,20.6091 L46.0657,20.6121 C46.3467,20.6121 46.6277,20.6101 46.9077,20.6131 C47.3597,20.6181 47.7117,20.4051 47.8877,20.0161 C48.0417,19.6761 48.1307,19.2891 48.1637,18.9151 C48.2177,18.3041 47.8537,17.9591 47.2177,17.9511 C46.7187,17.9461 46.2187,17.9751 45.7217,17.9471 C45.4347,17.9311 45.3377,18.0391 45.2957,18.2991 C45.1847,18.9941 45.0547,19.6851 44.9337,20.3781 C44.9067,20.5301 44.9577,20.6151 45.1307,20.6111 C45.4417,20.6041 45.7537,20.6091 46.0657,20.6091 M44.0957,25.7481 C43.3877,25.7481 42.7227,25.7471 42.0577,25.7481 C41.8887,25.7481 41.8437,25.6611 41.8697,25.5051 C41.9767,24.8711 42.0817,24.2351 42.1827,23.6001 C42.3047,22.8321 42.4197,22.0631 42.5407,21.2951 C42.6027,20.8951 42.6737,20.4971 42.7387,20.0971 C42.9277,18.9311 43.1217,17.7651 43.2977,16.5961 C43.3347,16.3561 43.4227,16.2601 43.6707,16.2611 C45.1187,16.2691 46.5657,16.2411 48.0127,16.2711 C49.1127,16.2941 50.0307,16.7541 50.3427,17.8021 C50.6497,18.8361 50.4777,20.5501 49.4367,21.3511 C48.9397,21.7341 48.3677,21.9131 47.7607,21.9401 C46.8567,21.9821 45.9507,21.9821 45.0457,21.9761 C44.7747,21.9751 44.6697,22.0471 44.6307,22.3271 C44.4697,23.4571 44.2807,24.5831 44.0957,25.7481" id="Fill-17" fill="#002639"></path>
                <path d="M37.5989,20.6096 L37.5989,20.6126 C37.8799,20.6126 38.1609,20.6156 38.4409,20.6126 C38.7939,20.6086 39.1009,20.4846 39.3029,20.1906 C39.6329,19.7086 39.7329,19.1616 39.6609,18.5876 C39.6229,18.2896 39.3639,18.0226 39.0599,18.0066 C38.3869,17.9716 37.7119,17.9626 37.0379,17.9596 C36.9779,17.9596 36.8779,18.0796 36.8639,18.1566 C36.7299,18.8896 36.6139,19.6266 36.4869,20.3606 C36.4569,20.5356 36.5109,20.6146 36.6949,20.6106 C36.9959,20.6056 37.2969,20.6096 37.5989,20.6096 M33.3619,25.7506 C33.4279,25.2976 33.4819,24.8906 33.5479,24.4846 C33.7699,23.1116 33.9969,21.7386 34.2209,20.3656 C34.4269,19.0946 34.6409,17.8246 34.8279,16.5506 C34.8609,16.3276 34.9489,16.2686 35.1379,16.2686 C35.5649,16.2676 35.9919,16.2646 36.4189,16.2676 C37.5639,16.2756 38.7109,16.2376 39.8519,16.3076 C41.1109,16.3846 41.8649,17.1546 41.9799,18.4176 C42.0519,19.2006 41.9619,19.9876 41.5559,20.6806 C41.0539,21.5356 40.2239,21.8856 39.2789,21.9386 C38.3559,21.9906 37.4279,21.9776 36.5029,21.9756 C36.2889,21.9756 36.2159,22.0416 36.1839,22.2476 C36.0279,23.2626 35.8609,24.2766 35.6889,25.2896 C35.6119,25.7496 35.6029,25.7496 35.1519,25.7506 C34.5799,25.7516 34.0089,25.7506 33.3619,25.7506" id="Fill-19" fill="#002639"></path>
                <path d="M11.6497,29.5202 C11.7167,28.1132 12.6617,27.0692 14.0987,27.0352 C15.5357,27.0012 16.6197,28.0782 16.6267456,29.4642 C16.6347,30.9442 15.5887,32.0142 14.1047,31.9932 C12.6877,31.9732 11.7257,30.9772 11.6497,29.5202" id="Fill-21" fill="#002639"></path>
                <path d="M2.4592,29.5153 C2.3972,28.2313 3.4572,27.0363 4.9132,27.0292649 C6.2102,27.0223 7.4312,28.0643 7.3972,29.5703 C7.3662,30.9403 6.3402,31.9823 4.9382,31.9993 C3.5212,32.0173 2.3982,30.8683 2.4592,29.5153" id="Fill-23" fill="#002639"></path>
                <path d="M82.0266,10.9401 L82.0266,10.9461 L82.5576,10.9461 C82.9676,10.9461 83.1486,10.8151 83.2496,10.4191 C83.2886,10.2701 83.3036,10.1121 83.3106,9.9571 C83.3286,9.5781 83.1826,9.4151 82.8026,9.4041 C82.4806,9.3941 82.1566,9.4241 81.8356,9.4001 C81.5136,9.3751 81.3146,9.4261 81.3496,9.8151 C81.3616,9.9541 81.2856,10.0981 81.2626,10.2411 C81.1526,10.9291 81.1546,10.9301 81.8396,10.9401 C81.9016,10.9401 81.9646,10.9401 82.0266,10.9401 M83.3436,11.9721 C83.5906,12.6171 83.8526,13.3031 84.1386,14.0491 C83.6536,14.0491 83.2066,14.0551 82.7586,14.0411 C82.7166,14.0391 82.6656,13.9181 82.6406,13.8451 C82.4566,13.3041 82.2756,12.7621 82.0986,12.2181 C82.0276,12.0021 81.9126,11.9101 81.6646,11.9231 C80.9296,11.9621 81.0136,11.8051 80.8796,12.5971 C80.8136,12.9851 80.7596,13.3771 80.7166,13.7691 C80.6936,13.9851 80.6036,14.0841 80.3786,14.0731 C80.1186,14.0611 79.8566,14.0831 79.5986,14.0591 C79.5306,14.0521 79.4106,13.9231 79.4196,13.8671 C79.6806,12.1631 79.9606,10.4611 80.2236,8.7561 C80.2626,8.5011 80.3486,8.4111 80.6196,8.4171 C81.5246,8.4351 82.4306,8.4171 83.3366,8.4241 C83.8886,8.4291 84.5596,8.7691 84.5906,9.5101 C84.6166,10.1481 84.5656,10.7761 84.1666,11.2921 C83.9606,11.5581 83.6376,11.7351 83.3436,11.9721" id="Fill-25" fill="#FF5722"></path>
                <path d="M54.0491,13.1267 C54.7761,13.1147 55.2291,12.8857 55.4101,12.2557 C55.5971,11.6027 55.7031,10.9177 55.7641,10.2387 C55.8081,9.7547 55.5271,9.4847 55.0411,9.4307 C54.7551,9.3977 54.4601,9.4087 54.1731,9.4397 C53.6951,9.4917 53.3841,9.7907 53.2801,10.2387 C53.1321,10.8747 53.0111,11.5197 52.9371,12.1667 C52.8751,12.7107 53.0831,12.9447 53.6181,13.0707 C53.7581,13.1037 53.9051,13.1087 54.0491,13.1267 L54.0491,13.1267 Z M53.8611,14.1627 C53.4131,14.0907 52.9551,14.0567 52.5211,13.9377 C52.0761,13.8157 51.7961,13.4617 51.7341,13.0137 C51.5651,11.8117 51.7591,10.6527 52.2901,9.5607 C52.6371,8.8447 53.2501,8.4577 54.0271,8.4237 C54.6851,8.3947 55.3531,8.4347 56.0071,8.5207 C56.5181,8.5877 56.7871,8.9827 56.9331,9.4667 C57.1431,10.1627 57.0181,10.8527 56.8821,11.5307 C56.7871,12.0037 56.6271,12.4727 56.4301,12.9137 C56.1051,13.6417 55.4951,14.0017 54.7101,14.0697 C54.4311,14.0937 54.1511,14.0977 53.8711,14.1107 L53.8611,14.1627 Z" id="Fill-27" fill="#FF5722"></path>
                <path d="M47.8684,11.8713 L46.2764,11.8713 C45.7444,11.8713 45.7524,11.8733 45.6664,12.3983 C45.5764,12.9503 45.4714,13.5003 45.3694,14.0693 C44.9984,14.0693 44.6564,14.0693 44.3134,14.0703 C44.1354,14.0703 44.1194,13.9803 44.1454,13.8253 C44.4234,12.1433 44.6994,10.4613 44.9604,8.7773 C45.0024,8.5013 45.1094,8.3903 45.3864,8.4233 C45.5394,8.4403 45.6984,8.4293 45.8534,8.4263 C46.2974,8.4193 46.2974,8.4183 46.2284,8.8423 C46.1334,9.4273 46.0464,10.0133 45.9424,10.5963 C45.9134,10.7613 45.9584,10.8413 46.1194,10.8423 C46.7024,10.8493 47.2854,10.8633 47.8674,10.8403 C47.9474,10.8373 48.0674,10.6543 48.0884,10.5393 C48.1974,9.9573 48.2924,9.3713 48.3644,8.7833 C48.3984,8.4983 48.4994,8.3793 48.7984,8.4213 C49.0024,8.4493 49.2144,8.4293 49.4224,8.4203 C49.6114,8.4123 49.6914,8.4813 49.6584,8.6793 C49.5054,9.5903 49.3534,10.5023 49.2084,11.4153 C49.0834,12.2043 48.9584,12.9943 48.8524,13.7863 C48.8254,13.9933 48.7634,14.0843 48.5474,14.0733 C48.2874,14.0593 48.0274,14.0693 47.7664,14.0693 C47.5934,14.0693 47.5294,14.0053 47.5654,13.8173 C47.6754,13.2353 47.7694,12.6513 47.8674,12.0673 C47.8754,12.0193 47.8684,11.9683 47.8684,11.8713" id="Fill-29" fill="#FF5722"></path>
                <path d="M75.9128,8.4221 C76.3818,8.4221 76.8498,8.4301 77.3178,8.4191 C77.5218,8.4141 77.5728,8.4911 77.5458,8.6791 C77.4348,9.4531 77.4378,9.4501 76.6628,9.4531 C76.0598,9.4551 75.4568,9.4641 74.8538,9.4761 C74.5808,9.4821 74.4028,9.6001 74.3828,9.9021 C74.3738,10.0461 74.3238,10.1871 74.2988,10.3301 C74.2248,10.7551 74.2258,10.7551 74.6738,10.7541 C75.2878,10.7531 75.9028,10.7621 76.5168,10.7461 C76.7768,10.7401 76.8168,10.8471 76.7758,11.0691 C76.6348,11.8381 76.6378,11.8371 75.8578,11.8351 C75.3478,11.8331 74.8378,11.8411 74.3278,11.8351 C74.1238,11.8321 74.0168,11.9001 74.0058,12.1151 C73.9978,12.2711 73.9598,12.4241 73.9348,12.5781 C73.8788,12.9321 73.9778,13.0571 74.3448,13.0591 C75.0638,13.0631 75.7828,13.0711 76.4998,13.0491 C76.7748,13.0411 76.8238,13.1461 76.7898,13.3791 C76.6898,14.0951 76.6918,14.1021 75.9568,14.1001 C75.1038,14.0971 74.2498,14.1061 73.3988,14.0631 C72.8528,14.0351 72.5498,13.6831 72.6118,13.1461 C72.7128,12.2691 72.8708,11.3981 73.0058,10.5251 C73.0608,10.1661 73.1178,9.8071 73.1728,9.4471 C73.2558,8.9151 73.8798,8.4331 74.5078,8.4231 C74.7468,8.4191 74.9868,8.4261 75.2258,8.4271 C75.4548,8.4281 75.6838,8.4271 75.9128,8.4271 L75.9128,8.4221 Z" id="Fill-31" fill="#FF5722"></path>
                <path d="M38.4744,14.1511 C38.0684,14.1511 37.6624,14.1401 37.2564,14.1561 C37.0434,14.1641 36.9984,14.0731 37.0334,13.8931 C37.0354,13.8831 37.0374,13.8731 37.0384,13.8621 C37.1664,13.1181 37.1664,13.1181 37.9334,13.1201 C38.4744,13.1211 39.0164,13.1261 39.5574,13.1181 C40.0834,13.1101 40.4454,12.6281 40.2834,12.1261 C40.2484,12.0181 40.0914,11.8901 39.9804,11.8791 C39.5884,11.8401 39.1904,11.8601 38.7964,11.8351 C38.5504,11.8191 38.3014,11.7831 38.0634,11.7181 C37.7264,11.6271 37.4954,11.3911 37.4464,11.0441 C37.3544,10.4051 37.4204,9.7731 37.7134,9.1911 C37.9884,8.6421 38.5114,8.4241 39.0784,8.3991 C39.9524,8.3591 40.8284,8.3831 41.7024,8.3921 C41.7764,8.3931 41.9134,8.4911 41.9124054,8.5401 C41.9044,8.7781 41.8814,9.0211 41.8154,9.2481 C41.7934,9.3241 41.6304,9.4051 41.5304,9.4061 C40.8434,9.4161 40.1564,9.4031 39.4694,9.4001 C38.9184,9.3971 38.5244,9.9201 38.6934,10.4451 C38.7674,10.6731 38.9614,10.7421 39.1924,10.7371 C39.5984,10.7281 40.0054,10.7081 40.4104,10.7271 C40.8894,10.7511 41.3174,10.8961 41.5124,11.3961 C41.5594,11.5191 41.5884,11.6551 41.5934,11.7871 C41.6134,12.3251 41.5304,12.8461 41.2734,13.3251 C41.0354,13.7691 40.6464,14.0081 40.1534,14.0741 C39.8774,14.1111 39.5974,14.1321 39.3184,14.1441 C39.0374,14.1551 38.7554,14.1471 38.4744,14.1471 L38.4744,14.1511 Z" id="Fill-33" fill="#FF5722"></path>
                <path d="M61.6418,9.405 L61.6418,9.406 C61.4648,9.406 61.2868,9.418 61.1108,9.404 C60.9178,9.388 60.8258,9.458 60.7978,9.655 C60.7438,10.036 60.6798,10.416 60.6028,10.793 C60.5658,10.975 60.6218,11.051 60.7988,11.051 C61.1738,11.051 61.5498,11.067 61.9228,11.045 C62.4788,11.013 62.7568,10.602 62.7288,9.891 C62.7148,9.518 62.5238,9.402 61.9228,9.405 C61.8288,9.405 61.7358,9.405 61.6418,9.405 L61.6418,9.405 Z M61.3918,8.419 C61.8288,8.419 62.2668,8.411 62.7028,8.421 C63.6608,8.443 64.1598,9.022 64.0088,9.968 C63.9458,10.362 63.8528,10.762 63.6948,11.125 C63.4478,11.689 62.9488,11.955 62.3528,11.994 C61.8048,12.03 61.2508,12.017 60.6998,12.008 C60.4588,12.004 60.3898,12.09 60.3638,12.33 C60.3068,12.855 60.2108,13.378 60.1048,13.896 C60.0878,13.979 59.9438,14.086 59.8498,14.095 C59.5828,14.121 59.3098,14.1 59.0398,14.1 C58.8638,14.1 58.8078,14.03 58.8378,13.846 C59.0988,12.259 59.3518,10.67 59.6058,9.081 C59.7118,8.423 59.7108,8.424 60.3628,8.427 C60.7058,8.43 61.0488,8.428 61.3918,8.428 L61.3918,8.419 Z" id="Fill-35" fill="#FF5722"></path>
                <path d="M68.594,9.4079 C68.428,9.4079 68.259,9.4259 68.096,9.4039 C67.821,9.3659 67.724,9.4979 67.689,9.7439 C67.637,10.1039 67.571,10.4609 67.506,10.8179 C67.476,10.9789 67.527,11.0519 67.697,11.0489 C67.998,11.0439 68.299,11.0409 68.6,11.0509 C69.334,11.0749 69.66,10.7309 69.6580091,9.9209 C69.6580091,9.6109 69.493,9.4369 69.186,9.4099 C68.99,9.3929 68.791,9.4069 68.594,9.4079 L68.594,9.4079 Z M68.371,12.0099 C68.1,12.0099 67.829,12.0159 67.559,12.0079 C67.39,12.0019 67.324,12.0639 67.3,12.2359 C67.224,12.7709 67.129,13.3029 67.04,13.8359 C67.01,14.0189 66.944,14.1359 66.713,14.1089 C66.466,14.0809 66.214,14.1009 65.964,14.1069 C65.769,14.1109 65.71,14.0329 65.743,13.8369 C66.027,12.1569 66.31,10.4769 66.576,8.7939 C66.621,8.5079 66.729,8.4109 67.018,8.4159 C67.892,8.4309 68.767,8.4149 69.641,8.4199 C70.494,8.4249 70.928,8.8809 70.934,9.7429 C70.939,10.3619 70.826,10.9359 70.417,11.4289 C70.101,11.8109 69.682,11.9599 69.214,11.9969 C68.934,12.0179 68.652,12.0009 68.371,12.0009 L68.371,12.0099 Z" id="Fill-37" fill="#FF5722"></path>
            </g>
        </g>
    </g>
</svg>