<svg xmlns="http://www.w3.org/2000/svg" width="46" height="24" viewBox="0 0 46 24">
    <g fill="none" fill-rule="evenodd">
        <path fill="#FFF" d="M-1354-8H85v3741h-1439z"/>
        <g fill-rule="nonzero">
            <path fill="#FFF" d="M0 .083h45.283v23.833H0z"/>
            <path fill="#B22234" d="M0 .083h45.283v1.833H0zM0 3.75h45.283v1.833H0zM0 7.417h45.283V9.25H0zM0 11.083h45.283v1.833H0zM0 14.75h45.283v1.833H0zM0 18.417h45.283v1.833H0zM0 22.083h45.283v1.833H0z"/>
            <path fill="#3C3B6E" d="M0 .083h18.113v12.833H0z"/>
            <path fill="#FFF" d="M.851 1.125l.432.314-.165.507.431-.314.432.314-.165-.507.431-.314h-.533L1.549.618l-.165.507zM3.854 1.125l.431.314-.164.507.431-.314.432.314-.165-.507.431-.314h-.533L4.552.618l-.165.507zM6.857 1.125l.431.314-.164.507.431-.314.432.314-.165-.507.431-.314H7.72L7.555.618l-.165.507zM9.86 1.125l.431.314-.164.507.431-.314.432.314-.165-.507.431-.314h-.533l-.165-.507-.165.507zM12.863 1.125l.431.314-.164.507.431-.314.432.314-.165-.507.431-.314h-.533L13.56.618l-.165.507zM15.866 1.125l.431.314-.164.507.431-.314.431.314-.164-.507.431-.314h-.533l-.165-.507-.165.507zM2.352 2.412l.432.314-.165.507.432-.314.431.314-.165-.507.432-.314h-.534l-.164-.507-.165.507zM5.355 2.412l.432.314-.165.507.432-.314.431.314-.165-.507.432-.314h-.534l-.164-.507-.165.507zM8.358 2.412l.432.314-.165.507.432-.314.431.314-.165-.507.432-.314H9.22l-.164-.507-.165.507zM11.362 2.412l.43.314-.164.507.432-.314.431.314-.165-.507.432-.314h-.534l-.164-.507-.165.507zM14.364 2.412l.432.314-.165.507.431-.314.432.314-.165-.507.432-.314h-.534l-.165-.507-.164.507zM.851 3.7l.432.313-.165.507.431-.314.432.314-.165-.507.431-.314h-.533l-.165-.507-.165.507zM3.854 3.7l.431.313-.164.507.431-.314.432.314-.165-.507.431-.314h-.533l-.165-.507-.165.507zM6.857 3.7l.431.313-.164.507.431-.314.432.314-.165-.507.431-.314H7.72l-.165-.507-.165.507zM9.86 3.7l.431.313-.164.507.431-.314.432.314-.165-.507.431-.314h-.533l-.165-.507-.165.507zM12.863 3.7l.431.313-.164.507.431-.314.432.314-.165-.507.431-.314h-.533l-.165-.507-.165.507zM15.866 3.7l.431.313-.164.507.431-.314.431.314-.164-.507.431-.314h-.533l-.165-.507-.165.507zM2.39 4.99l.431.314-.165.507.432-.313.431.313-.165-.507.432-.314h-.533l-.165-.507-.165.507zM5.393 4.99l.431.314-.165.507.432-.313.431.313-.165-.507.432-.314h-.533l-.165-.507-.165.507zM8.396 4.99l.431.314-.165.507.432-.313.431.313-.165-.507.432-.314h-.534l-.164-.507-.165.507zM11.398 4.99l.432.314-.165.507.432-.313.431.313-.165-.507.432-.314h-.534l-.164-.507-.165.507zM14.402 4.99l.43.314-.164.507.432-.313.431.313-.165-.507.432-.314h-.534l-.164-.507-.165.507zM.897 6.267l.431.313-.165.507.432-.313.431.313-.165-.507.432-.313H1.76l-.165-.508-.165.508zM3.9 6.267l.431.313-.165.507.432-.313.431.313-.165-.507.432-.313h-.533l-.165-.508-.165.508zM6.903 6.267l.431.313-.165.507.432-.313.431.313-.165-.507.432-.313h-.533L7.6 5.759l-.165.508zM9.906 6.267l.431.313-.165.507.432-.313.431.313-.165-.507.432-.313h-.534l-.164-.508-.165.508zM12.909 6.267l.43.313-.164.507.432-.313.431.313-.165-.507.432-.313h-.534l-.164-.508-.165.508zM15.912 6.267l.43.313-.164.507.432-.313.431.313-.165-.507.432-.313h-.534l-.164-.508-.165.508zM.925 8.8l.431.313-.165.508.432-.314.431.314-.164-.508.431-.313h-.533l-.165-.507-.165.507zM3.928 8.8l.431.313-.165.508.432-.314.431.314-.164-.508.43-.313h-.532l-.165-.507-.165.507zM6.93 8.8l.432.313-.165.508.432-.314.431.314-.164-.508.43-.313h-.532l-.165-.507-.165.507zM9.934 8.8l.431.313-.165.508.432-.314.431.314-.164-.508.431-.313h-.533l-.165-.507-.165.507zM12.937 8.8l.431.313-.165.508.432-.314.431.314-.165-.508.432-.313H13.8l-.165-.507-.165.507zM15.94 8.8l.431.313-.165.508.432-.314.431.314-.165-.508.432-.313h-.533l-.165-.507-.165.507zM.888 11.363l.432.313-.165.508.431-.314.432.314-.165-.508.431-.313h-.533l-.165-.507-.165.507zM3.891 11.363l.432.313-.165.508.431-.314.432.314-.165-.508.431-.313h-.533l-.165-.507-.165.507zM6.894 11.363l.431.313-.164.508.431-.314.432.314-.165-.508.431-.313h-.533l-.165-.507-.165.507zM9.897 11.363l.431.313-.164.508.431-.314.432.314-.165-.508.431-.313h-.533l-.165-.507-.165.507zM12.9 11.363l.431.313-.164.508.431-.314.432.314-.165-.508.431-.313h-.533l-.165-.507-.165.507zM15.903 11.363l.431.313-.164.508.431-.314.432.314-.165-.508.431-.313h-.533l-.165-.507-.165.507zM2.398 7.52l.432.314-.165.507.432-.313.431.313-.165-.507.432-.313H3.26l-.164-.508-.165.508zM5.402 7.52l.43.314-.164.507.432-.313.431.313-.165-.507.432-.313h-.534L6.1 7.013l-.165.508zM8.405 7.52l.43.314-.164.507.432-.313.431.313-.165-.507.432-.313h-.534l-.164-.508-.165.508zM11.407 7.52l.432.314-.165.507.432-.313.431.313-.165-.507.432-.313h-.534l-.164-.508-.165.508zM14.41 7.52l.432.314-.165.507.432-.313.43.313-.164-.507.432-.313h-.534l-.164-.508-.165.508zM2.39 10.08l.431.313-.165.507.432-.313.431.313-.165-.507.432-.313h-.533l-.165-.508-.165.508zM5.393 10.08l.431.313-.165.507.432-.313.431.313-.165-.507.432-.313h-.533l-.165-.508-.165.508zM8.396 10.08l.431.313-.165.507.432-.313.431.313-.165-.507.432-.313h-.533l-.165-.508-.165.508zM11.398 10.08l.432.313-.165.507.432-.313.431.313-.165-.507.432-.313h-.534l-.164-.508-.165.508zM14.402 10.08l.43.313-.164.507.432-.313.431.313-.165-.507.432-.313h-.534l-.164-.508-.165.508z"/>
        </g>
    </g>
</svg>
