<?xml version="1.0" encoding="UTF-8"?>
<!DOCTYPE svg  PUBLIC '-//W3C//DTD SVG 1.1//EN'  'http://www.w3.org/Graphics/SVG/1.1/DTD/svg11.dtd'>
<svg version="1.1" xmlns="http://www.w3.org/2000/svg">
<defs>
<font id="PlayfairDisplay-Italic" horiz-adv-x="0">
<font-face font-family="Playfair Display" font-style="italic" font-weight="400" ascent="800" bbox="-371 -195 994 958.714" cap-height="708" descent="-200" panose-1="0 0 0 0 0 0 0 0 0 0" slope="-14" underline-position="-110" underline-thickness="20" unicode-range="U+0020-2212" units-per-em="1000" x-height="520"/>
<missing-glyph/>
<glyph glyph-name="space" horiz-adv-x="253" unicode=" "/>
<glyph d="M94 199q28 106 46 209t32 190.5t29 144.5q3 9 7 16.5t10 12.5t13 7.5t15 2.5q31 0 40.5 -19t1.5 -43q-11 -40 -32 -96.5t-46.5 -125.5t-51 -145.5t-46.5 -156.5zM7 37q0 30 23 53.5t51 23.5q23 0 37 -15t14 -37q0 -30 -23 -53t-52 -23q-22 0 -36 14.5t-14 36.5z" glyph-name="exclam" horiz-adv-x="263" unicode="!"/>
<glyph d="M233 697q0 -22 -11.5 -45.5t-29.5 -55t-38 -78.5h-14q7 49 9 78.5t4 50t7 41.5q5 23 17 32.5t25 9.5q17 0 24 -9.5t7 -23.5zM342 697q0 -22 -11.5 -45.5t-29.5 -55t-38 -78.5h-14q7 49 9 78.5t4 50t7 41.5q5 23 17 32.5t25 9.5q17 0 24 -9.5t7 -23.5z" glyph-name="quotedbl" horiz-adv-x="296" unicode='"'/>
<glyph d="M633 454l-8 -20h-501l8 20h501zM547 267l-10 -20h-500l9 20h501zM327 101h-24l232 501h24zM140 101h-24l232 501h24z" glyph-name="numbersign" horiz-adv-x="639" unicode="#"/>
<glyph d="M379 840l-270 -972h-22l270 972h22zM483 840l-270 -972h-22l270 972h22zM356 703q-60 0 -100 -31t-40 -96q0 -45 25.5 -83t63 -73t75.5 -71t63.5 -76.5t25.5 -90.5q0 -52 -23 -89t-60 -60.5t-81.5 -35t-88.5 -11.5q-69 0 -105 20.5t-58 37.5q-20 16 -36 43.5t-16 61.5 q0 31 16 55t44 24q27 0 39 -20t12 -45q0 -33 -12.5 -59t-26.5 -47q23 -22 60 -36.5t86 -14.5q65 0 106 30t41 95q0 50 -23.5 88t-57.5 70.5t-68.5 66.5t-58 75t-23.5 96q0 48 19 84.5t50.5 61t70.5 37t80 12.5q69 0 105 -20.5t58 -37.5q17 -13 34.5 -41.5t17.5 -63.5 q0 -31 -15.5 -55t-44.5 -24q-27 0 -39 20t-12 45q0 33 13 59t26 47q-22 22 -58.5 37t-83.5 15z" glyph-name="dollar" horiz-adv-x="551" unicode="$"/>
<glyph d="M311 743q-32 0 -57 -25t-41.5 -62.5t-25 -75.5t-8.5 -65q0 -67 52 -67q32 0 57 25t41.5 62.5t25 76t8.5 65.5q0 66 -52 66zM112 534q0 53 27 105t74 87t106 35q53 0 82 -27t29 -77q0 -52 -26.5 -104.5t-73 -87.5t-106.5 -35q-52 0 -82 27t-30 77zM575 299q-32 0 -57 -25 t-41.5 -62.5t-25 -75.5t-8.5 -65q0 -67 52 -67q32 0 57 25t41.5 62.5t25 76t8.5 65.5q0 66 -52 66zM376 90q0 53 27 105t74 87t106 35q53 0 82 -27t29 -77q0 -52 -26.5 -104.5t-73 -87.5t-106.5 -35q-52 0 -82 27t-30 77zM824 824l15 -13l-833 -866l-15 13z" glyph-name="percent" horiz-adv-x="766" unicode="%"/>
<glyph d="M540 214q-13 -22 -40.5 -44t-78.5 -22q-27 0 -51.5 9t-40.5 30.5t-16 58.5q0 62 45 99.5t121 65.5q24 9 71 25.5t99 36t89 37.5q30 14 53 30t36.5 36t13.5 45q0 37 -28.5 61.5t-70.5 24.5q-26 0 -32 -9q21 -12 21 -38q0 -23 -20 -40t-46 -17q-19 0 -32 11t-13 31 q0 22 15 38t35 25q17 8 35.5 11t37.5 3q55 0 90 -27t35 -87q0 -50 -28.5 -89.5t-93.5 -71.5q-36 -18 -92 -39t-112.5 -41.5t-96.5 -36.5q-20 -8 -45 -20.5t-42.5 -31.5t-17.5 -47q0 -32 25.5 -49.5t59.5 -17.5q31 0 52 12t33.5 26t16.5 21zM421 558q27 0 44.5 14.5 t17.5 40.5q0 34 -28 53.5t-69 19.5t-73 -19.5t-50 -53t-18 -76.5q0 -20 5 -41.5t17 -41.5q18 3 36 4.5t27 1.5q36 0 36 -21q0 -11 -10 -16t-21 -5q-19 0 -38.5 8.5t-30.5 13.5q-68 -20 -110.5 -74.5t-42.5 -122.5q0 -60 32.5 -100.5t89.5 -61.5t129 -21q78 0 140 23t98.5 65 t36.5 98q0 37 -18.5 75.5t-60.5 63.5l14 7q41 -30 63 -69.5t22 -89.5q0 -49 -22 -93.5t-65 -79t-104.5 -54.5t-141.5 -20q-88 0 -152.5 25.5t-100 72.5t-35.5 113q0 60 28.5 110.5t77 87t109.5 53.5q-34 19 -52 49t-18 63q0 46 31 77.5t76.5 48t90.5 16.5q56 0 89.5 -24 t33.5 -63q0 -38 -27.5 -56.5t-57.5 -18.5z" glyph-name="ampersand" horiz-adv-x="817" unicode="&amp;"/>
<glyph d="M233 697q0 -22 -11.5 -45.5t-29.5 -55t-38 -78.5h-14q7 49 9 78.5t4 50t7 41.5q5 23 17 32.5t25 9.5q17 0 24 -9.5t7 -23.5z" glyph-name="quotesingle" horiz-adv-x="187" unicode="'"/>
<glyph d="M207 -182q-51 57 -89 117t-59 130t-21 158q0 84 32.5 165.5t91.5 157.5t138 142t171 118l10 -13q-110 -74 -192.5 -160.5t-128 -190.5t-45.5 -230q0 -108 26.5 -204.5t83.5 -176.5z" glyph-name="parenleft" horiz-adv-x="361" unicode="("/>
<glyph d="M163 806q51 -57 89 -117t59 -130t21 -158q0 -84 -32.5 -165.5t-91.5 -157.5t-138 -142t-171 -118l-10 13q110 74 192.5 160.5t128 190.5t45.5 230q0 108 -26.5 204.5t-83.5 176.5z" glyph-name="parenright" horiz-adv-x="361" unicode=")"/>
<glyph d="M307 518q25 56 43 92.5t22 64.5q7 30 -1.5 42t-22.5 12q-13 0 -27.5 -12t-21.5 -42q-4 -28 -1.5 -66t6.5 -91h3zM306 519q-34 40 -54 67.5t-43 41.5q-22 15 -39 11t-25 -15q-10 -12 -9 -28.5t24 -31.5q20 -13 57 -22.5t85 -25.5zM305 519q-59 -16 -97.5 -25t-67.5 -23 q-28 -16 -36.5 -31.5t-4.5 -26.5q5 -12 20 -16.5t46 10.5q26 14 59.5 43t79.5 66zM305 518q-27 -56 -45 -92t-23 -65q-7 -31 1.5 -42.5t21.5 -11.5q14 0 29 12t22 42q4 28 1.5 66t-4.5 91h-3zM464 412q10 12 9 28.5t-24 31.5q-20 14 -57 23t-85 25l-5 -3q35 -40 55.5 -67.5 t42.5 -41.5q22 -15 39 -11t25 15zM510 623q-4 12 -19.5 16.5t-46.5 -10.5q-26 -14 -59 -42.5t-80 -66.5l-2 -3q60 17 98.5 25.5t67.5 22.5q29 15 37.5 31t3.5 27z" glyph-name="asterisk" horiz-adv-x="495" unicode="*"/>
<glyph d="M63 370h233l67 236h36l-67 -236h232l-9 -30h-232l-67 -235h-36l67 235h-233z" glyph-name="plus" horiz-adv-x="585" unicode="+"/>
<glyph d="M129 55q0 -52 -39 -103.5t-108 -85.5l-5 14q47 29 75 63t31 68q-12 -10 -25 -17.5t-27 -7.5q-38 0 -38 35q0 22 13.5 43t34.5 35.5t44 14.5t33.5 -18t10.5 -41z" glyph-name="comma" horiz-adv-x="252" unicode=","/>
<glyph d="M68 283h361l-15 -58h-361z" glyph-name="hyphen" horiz-adv-x="504" unicode="-"/>
<glyph d="M-1 37q0 30 23 53.5t51 23.5q23 0 37 -15t14 -37q0 -30 -23 -53t-52 -23q-22 0 -36 14.5t-14 36.5z" glyph-name="period" horiz-adv-x="244" unicode="."/>
<glyph d="M-40 -14l548 736h33l-548 -736h-33z" glyph-name="slash" horiz-adv-x="468" unicode="/"/>
<glyph d="M356 529q77 0 117 -47t40 -130q0 -67 -25 -132.5t-69 -118t-101.5 -84t-122.5 -31.5q-76 0 -120 45.5t-44 132.5q0 68 26 132.5t71.5 117.5t104 84t123.5 31zM337 511q-41 0 -79.5 -29.5t-69 -79.5t-48 -114t-17.5 -133q0 -85 26 -118t65 -33q44 0 81.5 31.5t65.5 84 t44 117t16 130.5q0 81 -23 112.5t-61 31.5z" glyph-name="zero" horiz-adv-x="565" unicode="0"/>
<glyph d="M314 526l-155 -526h-87l128 433q-28 -16 -63 -30.5t-87 -30.5l3 21q94 29 147.5 64.5t93.5 68.5h20z" glyph-name="one" horiz-adv-x="342" unicode="1"/>
<glyph d="M304 528q61 0 98 -25.5t37 -73.5q0 -41 -26.5 -81.5t-68 -78.5t-88 -71.5t-87.5 -62t-66 -48.5q28 0 66.5 -7t77.5 -14t68 -7q34 0 51.5 12t17.5 36q0 37 -44 57l13 13q26 -12 40.5 -31t14.5 -48q0 -26 -12.5 -50t-40 -39t-72.5 -15q-47 0 -88.5 14t-95.5 16 q-37 2 -63 -4.5t-57 -19.5l5 21q30 23 75.5 55t95.5 70t94 82t71.5 92t27.5 98q0 40 -19.5 64t-57.5 24q-36 0 -76 -23.5t-67.5 -60.5t-27.5 -77q0 -24 13.5 -36t44.5 -12q28 0 48.5 10.5t43.5 30.5l12 -14q-28 -26 -57 -37t-54 -11t-50 13t-25 55q0 44 31 86.5t82.5 70 t114.5 27.5z" glyph-name="two" horiz-adv-x="503" unicode="2"/>
<glyph d="M303 531q61 0 98 -25.5t37 -73.5q0 -34 -19.5 -63.5t-50.5 -53t-67.5 -40t-69.5 -25.5q45 -1 81 -14t57.5 -38t21.5 -62q0 -55 -30.5 -100t-81.5 -79.5t-113.5 -58t-126 -36t-119.5 -13.5l5 18q60 4 125 23t121.5 53.5t91.5 84t35 115.5q0 40 -22 64.5t-63 26.5 q-16 -7 -30.5 -12t-27.5 -5q-8 0 -14 3t-3 12q3 14 22 17t45 1q59 23 103 68t44 101q0 42 -22 66t-60 24q-34 0 -71.5 -19t-63.5 -49t-26 -63q0 -24 13.5 -36t44.5 -12q34 0 62 15l11 -15q-21 -11 -41.5 -16t-38.5 -5q-25 0 -50 13t-25 55q0 37 29.5 72t79 58.5t109.5 23.5z " glyph-name="three" horiz-adv-x="485" unicode="3"/>
<glyph d="M391 529v-26l-419 -458l31 46h431l-16 -57h-469l6 21zM417 529l-179 -670h-87l149 559l91 111h26z" glyph-name="four" horiz-adv-x="515" unicode="4"/>
<glyph d="M427 538l12 -7q-23 -50 -57 -80t-80 -30q-19 0 -38.5 10t-38 19t-34.5 6l-112 -229q30 16 63.5 25t76.5 9q80 0 116.5 -32.5t36.5 -81.5q0 -59 -30 -105.5t-79.5 -81.5t-109.5 -58.5t-121 -35.5t-113 -14l5 18q57 0 119 18t115 52.5t86 86t33 118.5q0 38 -24.5 62 t-80.5 24q-18 0 -45 -4.5t-66 -22.5l-10 5l150 309q27 2 46 -4.5t41 -13.5t56 -7q25 0 46.5 10t36.5 35z" glyph-name="five" horiz-adv-x="459" unicode="5"/>
<glyph d="M524 722l6 -20q-71 -17 -142 -67t-130 -126t-95 -171t-36 -201q0 -77 19.5 -104t52.5 -27q42 0 75.5 30t57 77t35.5 99t12 96q0 53 -17.5 77t-47.5 24q-29 0 -61 -26t-57 -96l-16 6q18 57 46 88.5t60 44t61 12.5q56 0 91 -38.5t35 -111.5q0 -59 -23 -113t-63.5 -96.5 t-92.5 -67.5t-111 -25q-76 0 -111.5 45.5t-35.5 133.5q0 91 33 171t87 146.5t119 116.5t130 81.5t119 41.5z" glyph-name="six" horiz-adv-x="527" unicode="6"/>
<glyph d="M190 520q43 0 77.5 -11.5t68.5 -23.5t73 -15q33 -1 59 7.5t47 36.5h26q-40 -53 -90.5 -110t-101.5 -120.5t-93 -138t-66 -163.5q-4 -16 -7 -30t-5 -26t-5 -23q-6 -20 -22 -35.5t-40 -15.5q-15 0 -22.5 7t-8.5 20t2 29q10 55 44.5 118t84 127t102.5 125t100.5 113.5 t77.5 91.5l8 3.5l8 3.5q-25 -23 -54 -37t-59.5 -20.5t-60.5 -6.5q-39 0 -67 7.5t-52.5 14.5t-54.5 7q-37 0 -61.5 -16.5t-24.5 -50.5q0 -42 34 -70t105 -45l-6 -15q-70 14 -113.5 47t-43.5 94q0 29 14.5 56.5t46 46t80.5 18.5z" glyph-name="seven" horiz-adv-x="487" unicode="7"/>
<glyph d="M396 722q60 0 100.5 -25.5t40.5 -80.5q0 -39 -20 -72.5t-51.5 -62t-68 -51.5t-70.5 -40l-4 14q35 22 65 56t49 75t19 84q0 85 -78 85q-37 0 -68.5 -18.5t-50.5 -50.5t-19 -75t22 -77.5t54.5 -65t65 -63t54.5 -71.5t22 -90q0 -48 -21 -86t-58.5 -65t-86.5 -41.5 t-105 -14.5q-51 0 -91 13.5t-63 42t-23 73.5q0 46 22.5 85.5t59.5 72.5t81 58t86 43l4 -14q-72 -39 -118.5 -108t-46.5 -146q0 -45 21.5 -73.5t76.5 -28.5q45 0 84.5 19.5t64 57.5t24.5 91q0 49 -21.5 86t-53 68t-63 61.5t-53 66.5t-21.5 84q0 56 35 97.5t90 64t114 22.5z " glyph-name="eight" horiz-adv-x="544" unicode="8"/>
<glyph d="M319 528q76 0 111.5 -45t35.5 -134q0 -88 -32 -165.5t-85 -141.5t-116.5 -112t-127.5 -78t-117 -40l-6 20q69 16 138.5 64.5t127 122t92.5 165t35 193.5q0 77 -19.5 104t-52.5 27q-42 0 -75.5 -30t-57 -77t-35.5 -99t-12 -96q0 -53 17.5 -77t47.5 -24q29 0 61 26t57 96 l16 -6q-18 -56 -46 -88t-59.5 -44.5t-61.5 -12.5q-56 0 -91 38.5t-35 111.5q0 59 23 113t63.5 96.5t93 67.5t110.5 25z" glyph-name="nine" horiz-adv-x="513" unicode="9"/>
<glyph d="M116 451q0 30 23 53.5t51 23.5q23 0 37 -15t14 -37q0 -30 -23 -53t-52 -23q-22 0 -36 14.5t-14 36.5zM16 37q0 30 23 53.5t51 23.5q23 0 37 -15t14 -37q0 -30 -23 -53t-52 -23q-22 0 -36 14.5t-14 36.5z" glyph-name="colon" horiz-adv-x="278" unicode=":"/>
<glyph d="M117 451q0 30 23 53.5t51 23.5q23 0 37 -15t14 -37q0 -30 -23 -53t-52 -23q-22 0 -36 14.5t-14 36.5zM149 55q0 -52 -39 -103.5t-108 -85.5l-5 14q47 29 75 63t31 68q-12 -10 -25 -17.5t-27 -7.5q-38 0 -38 35q0 22 13.5 43t34.5 35.5t44 14.5t33.5 -18t10.5 -41z" glyph-name="semicolon" horiz-adv-x="287" unicode=";"/>
<glyph d="M603 582l10 -29l-487 -202l331 -174l-16 -32l-390 210z" glyph-name="less" horiz-adv-x="602" unicode="&lt;"/>
<glyph d="M70 270l9 30h501l-9 -30h-501zM110 410l9 30h501l-9 -30h-501z" glyph-name="equal" horiz-adv-x="663" unicode="="/>
<glyph d="M62 155l-10 29l460 192l-370 198l16 29l429 -231z" glyph-name="greater" horiz-adv-x="602" unicode="&gt;"/>
<glyph d="M311 765q-28 0 -62 -11.5t-42 -37.5q9 -2 18 -14.5t7 -29.5q-1 -20 -16.5 -32.5t-36.5 -12.5q-20 0 -30 11.5t-10 30.5q0 25 16 46t43.5 36t61 23t67.5 8q44 0 77 -13.5t52 -39.5t19 -65q0 -46 -35.5 -95.5t-129.5 -122.5q-52 -40 -88 -66.5t-54.5 -50t-18.5 -55.5 q0 -28 16 -48.5t55 -20.5q28 0 57 11.5t39 32.5q-9 1 -18 11.5t-8 23.5q0 15 12.5 28t32.5 13q14 0 24 -7.5t10 -27.5q0 -24 -15.5 -42.5t-41 -32t-55 -20.5t-56.5 -7q-51 0 -83 24.5t-32 72.5q0 43 25.5 77.5t68 67t92.5 70.5q69 53 99.5 88.5t30.5 82.5q0 41 -22 67.5 t-69 26.5zM107 37q0 30 23 53.5t51 23.5q23 0 37 -15t14 -37q0 -30 -23 -53t-52 -23q-22 0 -36 14.5t-14 36.5z" glyph-name="question" horiz-adv-x="438" unicode="?"/>
<glyph d="M567 51q25 0 64.5 22.5t79 66t66.5 107.5t27 147q0 93 -40 149t-106 81.5t-145 25.5q-92 0 -175.5 -40.5t-148.5 -110.5t-102.5 -161t-37.5 -193q0 -77 22.5 -132t63 -89.5t95.5 -50.5t119 -16q54 0 105.5 12.5t100.5 41.5l7 -13q-37 -26 -92 -42.5t-122 -16.5 q-70 0 -128 18t-101 54.5t-66.5 94.5t-23.5 137q0 101 37 195t103.5 168.5t154 118t188.5 43.5q87 0 157.5 -28t112.5 -88.5t42 -158.5q0 -84 -28.5 -152t-73 -116t-94.5 -73.5t-94 -25.5q-40 0 -56 17t-16 41.5t6 47.5t9 34l83 298q23 0 47 3t43 11l-106 -367 q-10 -34 -4.5 -47t27.5 -13zM516 258q-27 -78 -54 -129.5t-60 -77t-79 -25.5q-57 0 -80 35t-23 86q0 57 23 115.5t60.5 107t84 78.5t92.5 30q34 0 51.5 -20.5t14.5 -70.5l-8 -4q0 26 -6.5 42t-18.5 23t-29 7q-36 0 -68.5 -27t-57.5 -71.5t-39 -97.5t-14 -106q0 -49 13.5 -73 t38.5 -24q39 0 75 55.5t76 162.5z" glyph-name="at" horiz-adv-x="848" unicode="@"/>
<glyph d="M80 162q-37 -52 -44.5 -83t11.5 -44.5t60 -14.5l-5 -20q-28 2 -58 2.5t-56 0.5q-25 0 -42 -0.5t-33 -2.5l5 20q20 5 44.5 24.5t55.5 62.5l431 606h7.5h7.5l40 -629q3 -36 18.5 -49.5t30.5 -14.5l-4 -20q-20 2 -50 2.5t-59 0.5q-36 0 -68 -0.5t-52 -2.5l4 20q48 2 68 17.5 t18 66.5l-27 494l7 2zM160 288h292l-8 -20h-302z" glyph-name="A" horiz-adv-x="629" unicode="A"/>
<glyph d="M412 707q95 0 141.5 -35t46.5 -93q0 -51 -30 -91.5t-77 -69t-98 -44.5q92 -15 128 -59.5t36 -103.5q0 -54 -26 -93.5t-69 -65.5t-96 -39t-107 -13q-38 0 -79 1.5t-93 1.5q-35 0 -68 -0.5t-54 -2.5l4 20q34 2 53 8t30 24t20 54l132 496q7 30 8 48.5t-13.5 28t-53.5 9.5 l5 20q14 -1 33 -1.5t41.5 -1t44.5 -0.5q35 0 69.5 1t71.5 1zM222 359l4 17h78q61 0 105 27.5t68 72.5t24 96q0 59 -25.5 87.5t-82.5 28.5q-44 0 -62 -13.5t-29 -57.5l-135 -511q-8 -30 -8.5 -48.5t12.5 -26.5t47 -8q88 0 140.5 24t76.5 69.5t24 109.5q0 63 -34 98t-109 35 h-94z" glyph-name="B" horiz-adv-x="632" unicode="B"/>
<glyph d="M712 708q-15 -39 -31 -94.5t-33 -135.5h-22q8 52 5.5 87.5t-15.5 60.5q-19 38 -54.5 58t-76.5 20q-52 0 -101 -30.5t-91 -82.5t-74 -117.5t-50 -136t-18 -137.5q0 -98 38.5 -147t104.5 -49q42 0 91.5 20t86.5 58q27 27 46.5 63.5t43.5 94.5h22q-25 -91 -38.5 -146.5 t-20.5 -93.5h-22q3 21 3 34q0 23 -8 25.5t-25 -8.5q-41 -27 -82 -46t-107 -19q-110 0 -171.5 59.5t-61.5 175.5q0 68 21 138.5t60 135.5t93 116t120 81t142 30q65 0 95.5 -20t53.5 -45q14 -14 26.5 -3.5t28.5 54.5h21z" glyph-name="C" horiz-adv-x="670" unicode="C"/>
<glyph d="M704 487q0 -75 -22.5 -146.5t-65 -133t-101 -108t-130.5 -73t-155 -26.5q-22 0 -65 1.5t-75 1.5q-23 0 -46 -0.5t-42 -1t-32 -1.5l3 20q32 2 50.5 8t29.5 24t20 54l131 496q13 50 5.5 67.5t-63.5 18.5l3 20q14 -1 34 -2t43 -1h45q23 1 51 1.5t54.5 1t45.5 0.5 q142 0 212 -56.5t70 -164.5zM218 18q96 0 169 40t122 109.5t74 158.5t25 186q0 89 -50 133.5t-164 44.5q-30 0 -48 -7t-29 -25.5t-20 -53.5l-131 -500q-12 -44 -6.5 -65t58.5 -21z" glyph-name="D" horiz-adv-x="725" unicode="D"/>
<glyph d="M200 346l6 20h173l-6 -20h-173zM302 366q44 0 67.5 23t37 54t23.5 55h23q-19 -57 -26.5 -87t-14.5 -55q-4 -16 -8.5 -34.5t-10 -44t-13.5 -63.5h-23q5 32 7 62.5t-11 50t-57 19.5zM567 528q10 59 8 93.5t-24.5 49t-75.5 14.5h-73q-34 0 -52.5 -5.5t-29.5 -23t-21 -54.5 l-133 -496q-15 -55 -3.5 -69t62.5 -14h73q63 0 100 17t62 55.5t49 104.5h23q-5 -13 -11 -32t-11 -40q-5 -19 -13 -54.5t-14 -73.5q-51 2 -115 2.5t-114 0.5h-79.5t-105 -0.5t-104.5 -2.5l5 20q34 2 53 8t29.5 24t20.5 54l133 496q15 55 3.5 69.5t-61.5 16.5l5 20 q49 -1 105 -2t105.5 -1h79.5q44 0 99.5 0.5t99.5 2.5q-13 -35 -23 -68t-15 -50q-5 -18 -8.5 -34.5t-5.5 -27.5h-23z" glyph-name="E" horiz-adv-x="610" unicode="E"/>
<glyph d="M198 336l5 20h200l-5 -20h-200zM559 498q12 70 11 110.5t-26.5 58.5t-88.5 18h-53q-34 0 -52.5 -5.5t-29.5 -23t-21 -54.5l-133 -496q-10 -36 -7 -54t23.5 -24t61.5 -8l-5 -20q-26 2 -66 2.5t-81 0.5q-39 0 -72.5 -0.5t-54.5 -2.5l5 20q34 2 53 8t29.5 24t20.5 54 l133 496q15 55 3.5 69.5t-61.5 16.5l5 20q49 -1 105 -2t105.5 -1h79.5q44 0 99.5 0.5t99.5 2.5q-13 -38 -24.5 -73.5t-16.5 -54.5q-7 -24 -11.5 -45t-7.5 -37h-23zM306 356q44 0 68 23t37 54t23 55h23q-19 -57 -26.5 -87t-14.5 -55q-6 -25 -13 -55t-19 -87h-23 q5 32 7.5 62.5t-10.5 50t-57 19.5z" glyph-name="F" horiz-adv-x="566" unicode="F"/>
<glyph d="M316 6q36 0 66 10.5t48 20.5q22 13 31.5 28.5t14.5 34.5l23 88q11 41 8.5 61t-22 27t-61.5 8l5 20q26 -1 66 -2t74 -1q33 0 60 1t45 2l-5 -20q-22 -1 -34.5 -7t-21 -24t-18.5 -55l-53 -198h-20q4 17 2.5 37t-14.5 20q-6 0 -13 -3t-25 -14q-39 -25 -80 -39.5t-90 -14.5 q-123 0 -187.5 60t-64.5 169q0 68 20.5 139t58.5 137t92 118t121.5 82.5t145.5 30.5q65 0 100.5 -19t63.5 -46q15 -15 28 -5t29 56h22q-15 -39 -31 -94.5t-33 -135.5h-22q2 20 3.5 38.5t1.5 36.5q0 21 -3 39t-11 34q-21 37 -62.5 57.5t-91.5 20.5q-67 0 -120.5 -35.5 t-94.5 -94t-68.5 -128t-41.5 -139t-14 -125.5q0 -90 42.5 -133t130.5 -43z" glyph-name="G" horiz-adv-x="705" unicode="G"/>
<glyph d="M211 346l7 20h353l-8 -20h-352zM619 602q15 55 3 69.5t-62 16.5l5 20q23 -1 57.5 -2t68.5 -1q39 0 73 1t56 2l-5 -20q-34 -1 -53 -7.5t-29.5 -24t-20.5 -54.5l-132 -496q-14 -55 -3 -69.5t62 -16.5l-4 -20q-21 2 -55 2.5t-73 0.5q-34 0 -69 -0.5t-58 -2.5l4 20q34 2 53 8 t30 24t20 54zM166 106q-14 -55 -3 -69.5t62 -16.5l-4 -20q-23 2 -57.5 2.5t-69.5 0.5q-39 0 -72 -0.5t-55 -2.5l5 20q33 2 51.5 8t29.5 24t20 54l132 496q14 55 2.5 69.5t-61.5 16.5l5 20q20 -1 54 -2t73 -1q35 0 69.5 1t58.5 2l-5 -20q-34 -1 -53 -7.5t-29.5 -24 t-20.5 -54.5z" glyph-name="H" horiz-adv-x="755" unicode="H"/>
<glyph d="M166 106q-14 -55 -3 -69.5t62 -16.5l-4 -20q-23 2 -57.5 2.5t-69.5 0.5q-39 0 -72 -0.5t-55 -2.5l5 20q33 2 51.5 8t29.5 24t20 54l132 496q14 55 2.5 69.5t-61.5 16.5l5 20q20 -1 54 -2t73 -1q35 0 69.5 1t58.5 2l-5 -20q-34 -1 -53 -7.5t-29.5 -24t-20.5 -54.5z" glyph-name="I" horiz-adv-x="341" unicode="I"/>
<glyph d="M561 366l-3 -20h-321l3 20h321zM455 603q-48 0 -85.5 14t-74.5 28t-86 14q-34 0 -50 -17.5t-15 -48.5q1 -30 20.5 -48t53.5 -25l-1.5 -10l-1.5 -10q-39 7 -73.5 32.5t-36.5 83.5q-2 53 29 88t87 35q41 0 72.5 -16t60 -37.5t59.5 -37.5t71 -16q51 0 89.5 12.5t87.5 32.5 q21 32 41 49t35 4q12 -10 -1 -27t-66 -37q-85 -57 -140 -150t-85 -209l-62 -242q-17 -68 -48.5 -125.5t-78 -92.5t-109.5 -35q-44 0 -72.5 13.5t-29.5 41.5q-1 22 14.5 40.5t40.5 18.5q18 0 29.5 -11.5t12.5 -28.5q1 -18 -11 -31.5t-29 -21.5q7 -2 16 -3.5t19 -1.5 q41 0 68 27t45 72.5t32.5 102t29.5 115.5l30 117q26 100 72 170.5t107.5 125.5t131.5 105q-24 -12 -49 -23t-50 -19.5t-50 -13t-49 -4.5z" glyph-name="J" horiz-adv-x="636" unicode="J"/>
<glyph d="M166 106q-14 -55 -3 -69.5t62 -16.5l-4 -20q-23 2 -57.5 2.5t-69.5 0.5q-39 0 -72 -0.5t-55 -2.5l5 20q33 2 51.5 8t29.5 24t20 54l132 496q14 55 2.5 69.5t-61.5 16.5l5 20q20 -1 54 -2t73 -1q35 0 69.5 1t58.5 2l-5 -20q-34 -1 -53 -7.5t-29.5 -24t-20.5 -54.5zM499 41 q26 0 43 19t31 59l17 51h20l-26 -77q-19 -55 -49 -81t-73 -26q-47 0 -67.5 30t-16.5 86l7 113q3 52 -1.5 80t-15 43t-27.5 27l2 10q39 -8 69.5 -19t47 -44t13.5 -107l-4 -113q-1 -22 3.5 -36.5t26.5 -14.5zM355 360q-55 -15 -74.5 -10t-19.5 19t19.5 19t74.5 -10v-18z M603 687q-23 -21 -38 -59.5t-30 -83.5t-37.5 -85.5t-59.5 -66t-96 -24.5l2 10q55 5 88 32t53 67t34 83.5t29 80.5t40 58q17 14 32 18.5t28 4.5q35 0 48 -17.5t11 -41.5q-1 -18 -14.5 -41t-43.5 -23q-22 0 -31 13.5t-8 29.5q1 14 10 30.5t22 28.5h-1.5h-1.5 q-13 -1 -20.5 -4.5t-15.5 -9.5z" glyph-name="K" horiz-adv-x="675" unicode="K"/>
<glyph d="M535 210q-6 -16 -12 -37t-13 -45q-5 -19 -13 -54.5t-14 -73.5q-51 2 -115 2.5t-114 0.5h-79.5t-105 -0.5t-104.5 -2.5l5 20q34 2 53 8t29.5 24t20.5 54l133 496q15 55 3.5 69.5t-61.5 16.5l5 20q21 -1 55 -2t73 -1q35 0 69.5 1t57.5 2l-5 -20q-34 -1 -53 -7.5t-30 -24 t-21 -54.5l-133 -496q-15 -55 -3.5 -69t62.5 -14h73q63 0 100.5 18t63 59t50.5 110h23z" glyph-name="L" horiz-adv-x="586" unicode="L"/>
<glyph d="M760 705h48q35 0 68 1t57 2l-5 -20q-34 -1 -53 -7.5t-29.5 -24t-20.5 -54.5l-132 -496q-14 -55 -2.5 -69.5t61.5 -16.5l-4 -20q-23 2 -56 2.5t-68 0.5q-39 0 -74 -0.5t-56 -2.5l4 20q35 2 53.5 8t29.5 24t20 54l145 539l-415 -650h-22l-68 658l-142 -537q-9 -36 -8 -56.5 t19 -29t56 -10.5l-5 -20q-17 2 -46 2.5t-55 0.5q-25 0 -51 -0.5t-43 -2.5l5 20q52 2 71.5 21.5t33.5 74.5l130 486q14 55 2.5 69.5t-61.5 16.5l5 20q16 -1 39.5 -2t49.5 -1q23 0 47 1t41 2l55 -593z" glyph-name="M" horiz-adv-x="868" unicode="M"/>
<glyph d="M499 -5l-233 658l-3.5 -7.5t-8 -18t-8 -18l-3.5 -7.5q8 37 5.5 54.5t-20 24t-56.5 7.5l5 20q16 -1 39.5 -2t49.5 -1q47 0 81 3l192 -562l-2 -15.5t-4.5 -37.5t-5 -44.5t-4.5 -38l-2 -15.5h-22zM804 733q-28 -1 -47.5 -14.5t-34.5 -36.5q-46 -68 -94 -239t-107 -448 l-14 28q18 84 40.5 182.5t47.5 193.5t52.5 172t56.5 119q19 27 45 45.5t63 18.5q35 0 47.5 -15.5t12.5 -35.5q0 -25 -15 -48.5t-44 -23.5q-22 0 -30 13t-8 26q0 17 9.5 34t22.5 29h-1.5h-1.5zM-4 -53q27 1 47.5 14.5t35.5 37.5q29 46 58.5 144t60 237t61.5 305l17 -21 q-20 -102 -42 -208t-45.5 -201t-47 -165.5t-46.5 -100.5q-18 -24 -42.5 -43.5t-64.5 -19.5q-35 0 -47.5 15.5t-12.5 36.5q0 25 15 48t44 23q23 0 30.5 -13t7.5 -26q0 -17 -9.5 -34t-22.5 -29h1.5h1.5z" glyph-name="N" horiz-adv-x="770" unicode="N"/>
<glyph d="M462 704q-58 0 -112 -42t-97 -113t-68 -158.5t-25 -177.5q0 -98 38.5 -153.5t99.5 -55.5q58 0 112 42t97 113t68 158.5t25 177.5q0 98 -38.5 153.5t-99.5 55.5zM54 226q0 66 19 136t55 134t87.5 115t115.5 81t140 30q111 0 173.5 -62.5t62.5 -178.5q0 -66 -19.5 -135.5 t-55.5 -133.5t-87.5 -115t-116 -81t-139.5 -30q-111 0 -173 62.5t-62 177.5z" glyph-name="O" horiz-adv-x="729" unicode="O"/>
<glyph d="M203 284l5 20h45q74 0 125 20.5t82 57.5t45 85.5t14 104.5q0 59 -29.5 87.5t-97.5 28.5q-44 0 -62 -17.5t-32 -68.5l-132 -496q-8 -31 -9 -49.5t13.5 -27t54.5 -9.5l-4 -20q-23 2 -56 2.5t-68 0.5q-39 0 -74 -0.5t-56 -2.5l4 20q34 2 53 8t30 24t20 54l132 496 q9 32 8.5 50.5t-15.5 27t-52 8.5l5 20q20 -1 55 -2t68 -1q36 0 72.5 1t73.5 1q101 0 150 -41.5t49 -109.5q0 -78 -47.5 -139.5t-132.5 -97t-197 -35.5h-40z" glyph-name="P" horiz-adv-x="589" unicode="P"/>
<glyph d="M299 243q-57 0 -97 22.5t-60.5 62t-20.5 90.5q0 66 31.5 122t85 96.5t120 63t136.5 22.5q80 0 138 -25t89 -71t31 -111q0 -74 -36 -146.5t-96.5 -139.5t-135 -123.5t-152.5 -98.5t-149 -65.5t-124 -23.5q-49 0 -76.5 20t-27.5 54q0 40 35 64.5t87 24.5q49 0 88.5 -20.5 t76 -50t76.5 -59.5t89.5 -50.5t116.5 -20.5q46 0 83 14t61 54q-15 -6 -31 -6q-23 0 -36 14t-13 34q0 23 17 41.5t42 18.5q22 0 36 -15t14 -42q0 -34 -23 -66.5t-60.5 -58t-82.5 -41t-90 -15.5q-59 0 -106 25t-85 62t-71.5 73.5t-65 61.5t-66.5 25q-27 0 -50 -17t-23 -48 t26 -45t70 -14q24 0 50 5.5t54 14.5t55 21q77 33 151.5 90t135 129.5t96.5 153t36 160.5q0 87 -44 141t-127 54q-58 0 -104.5 -25.5t-80 -68.5t-51.5 -95t-18 -106q0 -75 32.5 -109t81.5 -34q46 0 81.5 24.5t55.5 61.5t20 72q0 10 -1.5 21.5t-5.5 18.5q-10 -21 -31 -33 t-43 -12t-34.5 13.5t-12.5 33.5q0 26 19.5 43.5t49.5 17.5q36 0 57.5 -27t21.5 -71q0 -49 -27.5 -91.5t-75.5 -68.5t-112 -26z" glyph-name="Q" horiz-adv-x="781" unicode="Q"/>
<glyph d="M223 353q55 -2 86 -4.5t49.5 -4.5t35.5 -5q40 -7 65.5 -21t37 -40t7.5 -71l-8 -102q-2 -30 3.5 -56.5t28.5 -25.5q18 1 31.5 22.5t27.5 61.5l5 14h23l-4 -13q-17 -61 -44.5 -91.5t-74.5 -30.5q-49 0 -71 29.5t-19 66.5l8 112q4 53 -7.5 84t-53 44.5t-128.5 13.5zM213 336 l5 20h45q96 0 152 29t80 78t24 109q0 59 -29.5 87.5t-97.5 28.5q-44 0 -62 -17.5t-32 -68.5l-132 -496q-8 -31 -9 -49.5t14.5 -27t53.5 -9.5l-4 -20q-23 2 -56 2.5t-68 0.5q-39 0 -74 -0.5t-56 -2.5l4 20q34 2 53 8t30 24t20 54l132 496q9 32 8.5 50.5t-15.5 27t-52 8.5 l5 20q14 -1 34 -1.5t43.5 -1t45.5 -0.5q36 0 72.5 1t73.5 1q101 0 150 -38.5t49 -102.5q0 -67 -46.5 -118.5t-129 -81.5t-191.5 -30h-40z" glyph-name="R" horiz-adv-x="664" unicode="R"/>
<glyph d="M576 715q-10 -26 -26.5 -75.5t-32.5 -128.5h-20q6 29 6 57q0 55 -33 95t-109 40q-60 0 -100 -31t-40 -96q0 -45 25.5 -83t63 -73t75.5 -71t63.5 -76.5t25.5 -90.5q0 -52 -23 -89t-60 -60.5t-81.5 -35t-88.5 -11.5q-40 0 -67 7.5t-45 18.5t-30 20q-11 9 -20.5 12t-15.5 3 q-13 0 -21.5 -13.5t-19.5 -40.5h-20q14 32 30 84t38 156h20q-4 -21 -7 -40.5t-2 -40.5q3 -68 42 -107t121 -39q65 0 106 30t41 95q0 50 -23.5 88t-57.5 70.5t-68.5 66.5t-58 75t-23.5 96q0 48 19 84.5t50.5 61t70.5 37t80 12.5q42 0 72 -10t58 -32q12 -9 20 -13.5t13 -4.5 q14 0 33 53h20z" glyph-name="S" horiz-adv-x="554" unicode="S"/>
<glyph d="M768 817q23 0 34 -14t11 -34q0 -23 -13.5 -41.5t-33.5 -30.5q-25 -16 -64.5 -24.5t-93.5 -8.5q-56 0 -110.5 7.5t-107 15t-103.5 7.5q-31 0 -63.5 -3t-48.5 -14q8 -10 13 -26.5t5 -31.5q0 -20 -12 -39t-38 -19q-22 0 -33 14t-11 36q0 20 11 41.5t42 36.5q23 11 49.5 16 t50 6t34.5 1q60 0 113 -7t105.5 -14t110.5 -7q46 0 77.5 5.5t56.5 19.5l-1 -7q-10 10 -19.5 25.5t-9.5 34.5q0 20 12 37.5t37 17.5zM418 691l9 -1t22.5 -3l27 -4t22.5 -3l9 -1l-150 -563q-16 -58 -2 -76t77 -20l-4 -20q-26 2 -66 2.5t-83 0.5t-82.5 -0.5t-63.5 -2.5l4 20 q42 2 65.5 10.5t37 29t24.5 56.5z" glyph-name="T" horiz-adv-x="659" unicode="T"/>
<glyph d="M631 592q10 37 6 57t-21.5 29t-51.5 10l5 20q17 -1 46.5 -2t54.5 -1q26 0 51.5 1t42.5 2l-5 -20q-34 -1 -54 -10t-31.5 -29t-20.5 -57l-78 -301q-36 -138 -98 -212q-36 -42 -89.5 -67.5t-115.5 -25.5q-49 0 -88.5 12.5t-65.5 41.5q-36 41 -35 99t25 149l83 314 q14 55 2.5 69.5t-61.5 16.5l6 20q20 -1 55 -2t74 -1q35 0 68 1t57 2l-6 -20q-34 -1 -53 -7.5t-29.5 -24t-20.5 -54.5l-88 -331q-18 -68 -21.5 -125t22 -91t95.5 -34q75 0 125 33.5t82 92.5t51 133z" glyph-name="U" horiz-adv-x="682" unicode="U"/>
<glyph d="M578 546q53 80 42 110.5t-73 31.5l5 20q19 -1 38.5 -1.5l39 -1t36.5 -0.5q26 0 43 1t33 2l-5 -20q-14 -3 -30 -12t-34 -27t-37 -48l-394 -606h-7.5h-7.5l-79 629q-4 36 -21 49.5t-31 14.5l5 20q20 -1 50 -2t58 -1q39 0 68.5 1t51.5 2l-5 -20q-47 -2 -67 -15t-13 -69 l58 -491l-5 2z" glyph-name="V" horiz-adv-x="632" unicode="V"/>
<glyph d="M520 472l-284 -477h-16l-79 629q-5 39 -22 51t-33 13l4 20q20 -1 45.5 -2t53.5 -1q33 0 61.5 1t46.5 2l-4 -20q-34 -2 -48 -18t-8 -66l57 -486l-9 -4l226 382zM843 546q29 58 32.5 88t-15.5 41.5t-61 12.5l5 20q19 -1 38.5 -1.5l39 -1t36.5 -0.5q26 0 43 1t33 2l-5 -20 q-14 -3 -30 -11t-32.5 -26t-32.5 -50l-299 -606h-16l-99 629q-6 38 -18.5 50.5t-26.5 13.5l4 20q18 -1 41 -2t48 -1q39 0 73 1t55 2l-4 -20q-52 -2 -68 -17t-8 -67l73 -464l-7 -2z" glyph-name="W" horiz-adv-x="902" unicode="W"/>
<glyph d="M436 155q5 -46 22 -80t57 -34q30 0 48 19t32 59l17 51h20l-26 -77q-19 -55 -49 -81t-73 -26q-48 0 -75 24t-39 60t-17 72l-48 411q-5 47 -22 80.5t-57 33.5q-30 0 -48 -18.5t-32 -59.5l-17 -51h-20l26 77q19 56 49 81.5t73 25.5q49 0 75.5 -24t39 -59.5t16.5 -72.5z M681 701q-35 0 -64 -21q-49 -36 -119 -138t-132 -264l16 76q25 65 61.5 130.5t77.5 119t77 83.5q46 35 92 35q36 0 48.5 -18t10.5 -41q-2 -20 -16 -42t-43 -22q-22 0 -30.5 13.5t-7.5 29.5q2 14 10.5 30.5t21.5 28.5h-1.5h-1.5zM36 7q19 1 34 6t29 15q35 23 79.5 71 t92 122.5t89.5 174.5l-16 -76q-25 -59 -64 -117.5t-81.5 -106.5t-80.5 -75q-46 -35 -92 -35q-36 0 -48.5 18t-10.5 41q2 20 16 42t43 22q23 0 31.5 -13.5t6.5 -29.5q-1 -14 -9.5 -30.5t-22.5 -28.5h2h2z" glyph-name="X" horiz-adv-x="699" unicode="X"/>
<glyph d="M346 106q-13 -55 -2.5 -69.5t61.5 -16.5l-5 -20q-15 1 -35 1.5t-43 1t-46 0.5q-39 0 -74 -0.5t-57 -2.5l5 20q34 2 53 8t30 24t20 54l69 274l35 -63l33 19l34 80zM688 701q-16 -1 -29.5 -7t-25.5 -15q-33 -24 -76 -74.5t-89 -132.5t-90 -202l-59 -5q-4 46 -10.5 100 t-15.5 107t-22.5 97.5t-32 71t-43.5 26.5q-17 0 -28.5 -10.5t-19.5 -36.5l-28 -82h-11h-11l33 97q15 44 35 65.5t63 21.5q55 0 87 -44.5t50 -126t30 -191.5q38 96 86.5 170.5t100.5 126.5q23 23 54.5 44t63.5 21q34 0 46 -18.5t10 -40.5q-1 -20 -15.5 -42t-43.5 -22 q-23 0 -31 13.5t-7 29.5t10 31.5t22 27.5h-1.5h-1.5z" glyph-name="Y" horiz-adv-x="670" unicode="Y"/>
<glyph d="M159 346l7 20h353l-8 -20h-352zM447 205l2 10l2 10q26 -4 50 -17t40 -36.5t16 -62.5q0 -53 -32.5 -88t-88.5 -35q-37 0 -64 16t-51.5 37.5t-51 37.5t-62.5 16q-42 0 -74.5 -12.5t-73.5 -32.5q-22 -32 -48 -49t-40 -4q-12 11 2 33t67 42l580 570q-42 -25 -86.5 -39.5 t-86.5 -14.5t-74.5 14t-64.5 28t-75 14q-34 0 -51 -17.5t-17 -48.5q0 -30 19 -48t53 -25l-2 -10l-2 -10q-25 5 -49.5 17.5t-40.5 36.5t-16 62q0 53 32.5 88t88.5 35q37 0 64 -16t51.5 -37.5t51 -37.5t62.5 -16q42 0 75 12.5t73 32.5q23 32 48 49t40 4q12 -10 -2 -32.5 t-67 -42.5l-580 -570q42 25 86.5 39.5t86.5 14.5q43 0 75 -14l64 -28t75 -14q34 0 51 17.5t17 48.5q0 30 -18.5 48t-53.5 25z" glyph-name="Z" horiz-adv-x="652" unicode="Z"/>
<glyph d="M-24 -181l237 953h170l-4 -19h-81l-229 -915h81l-4 -19h-170z" glyph-name="bracketleft" horiz-adv-x="300" unicode="["/>
<glyph d="M163 722l228 -736h-33l-226 736h31z" glyph-name="backslash" horiz-adv-x="492" unicode="\"/>
<glyph d="M324 772l-237 -953h-170l4 19h81l229 915h-81l4 19h170z" glyph-name="bracketright" horiz-adv-x="300" unicode="]"/>
<glyph d="M289 442q-37 -33 -91.5 -65.5t-108.5 -54.5l-4 14q74 32 137 84t101 108h18q8 -56 43.5 -108t92.5 -84l-12 -14q-54 22 -102 54.5t-74 65.5z" glyph-name="asciicircum" horiz-adv-x="535" unicode="^"/>
<glyph d="M-40 -120h601l-11 -40h-600z" glyph-name="underscore" horiz-adv-x="744" unicode="_"/>
<glyph d="M344 599q-35 50 -62 82.5t-47 56.5t-34 46q-13 23 -9.5 38.5t15.5 21.5q14 6 30 0.5t29 -28.5q13 -22 23.5 -50.5t26 -67t41.5 -93.5z" glyph-name="grave" horiz-adv-x="320" unicode="`"/>
<glyph d="M132 18q24 0 55 30.5t63 82.5t59 118t43 137l-17 -108q-57 -160 -114.5 -226t-117.5 -66q-47 0 -70.5 34t-23.5 87q0 48 16 104.5t44.5 112.5t65.5 102t80.5 74t88.5 28q35 0 53.5 -34.5t7.5 -96.5l-11 -6q7 53 -7 85.5t-46 32.5q-33 0 -68.5 -39t-66.5 -101.5t-50 -135 t-19 -138.5q0 -43 9.5 -60t25.5 -17zM384 514q24 1 48 4t44 10l-125 -442q-2 -9 -5.5 -23.5t0 -26.5t20.5 -12q20 0 39 22t38 80l12 37h19l-25 -73q-22 -60 -54 -82t-61 -22q-39 0 -55 26q-13 23 -7 53.5t14 61.5z" glyph-name="a" horiz-adv-x="523" unicode="a"/>
<glyph d="M333 496q-26 0 -58.5 -36.5t-66 -99t-63 -140.5t-49.5 -162l17 108q65 196 124 279t125 83q47 0 75.5 -35t28.5 -106q0 -45 -12.5 -99t-37 -107t-60 -97.5t-81.5 -71t-102 -26.5q-30 0 -53.5 18t-31.5 52l8 20q14 -37 32.5 -52t43.5 -15q34 0 65 26.5t57 70.5t45.5 97.5 t30 107t10.5 98.5q0 44 -12.5 65.5t-34.5 21.5zM100 62q-24 -19 -48 -38.5t-48 -39.5l-15 7q7 14 11.5 28.5t7.5 29.5l175 618q8 34 -3 50t-60 16l5 21q55 1 97 11.5t79 29.5z" glyph-name="b" horiz-adv-x="504" unicode="b"/>
<glyph d="M323 508q-38 0 -75.5 -31t-68.5 -85t-49.5 -123t-18.5 -145q0 -51 19.5 -73.5t50.5 -22.5q36 0 74 22t76 78l20 -8q-19 -33 -50 -64t-69.5 -50.5t-81.5 -19.5q-60 0 -96 37t-36 110q0 58 21 126t60 129.5t95 100.5t126 39q44 0 76 -22.5t32 -62.5q0 -19 -8.5 -37.5 t-24.5 -30.5t-38 -12q-21 0 -31 11.5t-10 27.5q0 29 23 49.5t52 25.5q-10 14 -26 22.5t-42 8.5z" glyph-name="c" horiz-adv-x="432" unicode="c"/>
<glyph d="M369 85q-7 -23 -5.5 -42.5t23.5 -19.5q20 0 37 22.5t36 79.5l12 37h19l-23 -73q-19 -61 -52.5 -82t-63.5 -21q-60 0 -63 57q-1 16 2.5 37t10.5 46l144 541q9 34 -3 50t-61 16l6 21q55 1 97 11.5t80 29.5zM145 18q25 0 56.5 29.5t64 80t60 115t43.5 133.5l-15 -108 q-39 -103 -77.5 -165t-78 -89.5t-82.5 -27.5q-47 0 -75.5 32.5t-28.5 99.5q0 48 15.5 103.5t44.5 109.5t69.5 98.5t89.5 71.5t104 27q23 0 43 -17.5t22 -52.5l-8 -20q-4 36 -20 51.5t-36 15.5q-48 0 -90.5 -39t-75 -101t-51 -131t-18.5 -129q0 -44 11 -65.5t33 -21.5z" glyph-name="d" horiz-adv-x="542" unicode="d"/>
<glyph d="M84 227q56 19 101.5 37.5t72.5 39.5q36 29 57 70t21 90q0 29 -4 37t-12 8q-31 0 -68 -33.5t-70 -90t-54.5 -124.5t-21.5 -137q0 -51 19 -73.5t50 -22.5q36 0 76 22t78 78l16 -8q-19 -33 -50 -64t-69.5 -50.5t-81.5 -19.5q-61 0 -96.5 35.5t-35.5 105.5q0 43 16 96.5 t45.5 107t70.5 98.5t91 72t107 27q31 0 52.5 -16.5t21.5 -49.5q0 -40 -23.5 -74.5t-62 -63t-83.5 -50.5t-88 -38t-76 -26z" glyph-name="e" horiz-adv-x="429" unicode="e"/>
<glyph d="M67 494l6 20h295l-6 -20h-295zM389 767q-19 0 -33 -8t-25 -18q-27 -25 -44 -88.5t-37 -137.5l-185 -689q-24 -1 -47 -4t-43 -10l188 703q21 80 44.5 132t57.5 85q23 23 56.5 36.5t68.5 13.5q46 0 70.5 -20.5t24.5 -50.5q0 -25 -19 -47t-48 -22q-19 0 -30 9t-10 25 q0 25 16 42.5t41 24.5q0 9 -13 16.5t-33 7.5z" glyph-name="f" horiz-adv-x="321" unicode="f"/>
<glyph d="M216 225l25 -1q-54 -31 -94.5 -52.5t-40.5 -41.5q0 -10 14 -18.5t46 -16.5l73 -19q32 -8 57.5 -18.5t40.5 -26.5t15 -42q0 -25 -16.5 -56.5t-51 -60.5t-89.5 -48t-133 -19q-52 0 -87.5 9.5t-53 26.5t-17.5 39q0 16 9 33.5t26.5 34t44 31t62.5 24.5l7 -15q-37 -19 -51 -43 t-14 -48q0 -40 28 -57.5t69 -17.5q45 0 91 18t77 47t31 62q0 15 -9.5 20t-31.5 10l-153 39q-24 6 -39 20.5t-15 39.5q0 20 14 41t53 46.5t113 59.5zM267 510q-40 0 -65 -28t-38 -67t-18 -74t-5 -50q0 -32 14.5 -46t38.5 -14q38 0 61.5 23t36.5 57t17.5 68t4.5 57q0 34 -9 54 t-38 20zM271 528q59 0 95.5 -26.5t36.5 -85.5q0 -48 -27 -95t-76 -77.5t-116 -30.5q-55 0 -92.5 26.5t-37.5 82.5q0 27 11.5 62.5t36.5 68t66.5 54t102.5 21.5zM342 476l-18 7q14 34 48 60t71 26q26 0 42 -14.5t16 -45.5q0 -28 -14 -41t-30 -13t-30.5 10.5t-17.5 33.5t13 59 l13 -3q-42 -16 -60 -33.5t-33 -45.5z" glyph-name="g" horiz-adv-x="449" unicode="g"/>
<glyph d="M78 0h-87l198 667q10 34 -2.5 50t-61.5 16l6 21q55 1 99 11.5t81 29.5zM106 148q38 105 72.5 178t68.5 117.5t70 64.5t75 20q47 0 64.5 -22.5t15.5 -57.5t-14 -71l-97 -292q-8 -26 -7 -44t23 -18q19 0 37.5 21t39.5 81l13 37h19l-25 -73q-22 -63 -56 -83t-65 -20 q-40 0 -56 18t-13.5 50t15.5 72l95 286q5 15 9 35t-1.5 34.5t-29.5 14.5q-32 0 -68 -35t-73 -98.5t-71.5 -150.5t-63.5 -192z" glyph-name="h" horiz-adv-x="536" unicode="h"/>
<glyph d="M189 696q5 26 26.5 45t46.5 19q26 0 40.5 -19t9.5 -45t-26.5 -45t-47.5 -19q-25 0 -39.5 19t-9.5 45zM158 429q21 62 -14 62q-23 0 -41 -25t-38 -77l-14 -37h-19l26 73q23 63 58 83t66 20q43 0 56.5 -22t9 -54.5t-15.5 -63.5l-107 -303q-10 -29 -6.5 -45.5t22.5 -16.5 q20 0 38 22t40 80l14 37h19l-26 -73q-21 -58 -54.5 -80.5t-68.5 -22.5q-43 0 -58 20t-11 52t17 68z" glyph-name="i" horiz-adv-x="302" unicode="i"/>
<glyph d="M-137 -188l4 15q63 3 106.5 53.5t65.5 138.5l115 410q10 34 6.5 48t-21.5 14q-19 0 -37.5 -22.5t-38.5 -79.5l-13 -37h-19l24 73q20 61 53 82t70 21q42 0 55.5 -20.5t10 -52.5t-13.5 -67l-77 -273q-19 -75 -51 -138t-82 -104q-32 -27 -72.5 -44t-84.5 -17zM187 688 q0 26 21 51.5t53 25.5q23 0 37 -14.5t14 -36.5q0 -27 -21.5 -52t-53.5 -25q-22 0 -36 14.5t-14 36.5z" glyph-name="j" horiz-adv-x="276" unicode="j"/>
<glyph d="M78 0h-87l198 667q10 34 -2.5 50t-61.5 16l6 21q55 1 99 11.5t81 29.5zM336 64q-4 -22 0 -31.5t20 -9.5q20 0 37.5 22.5t36.5 79.5l12 37h19l-24 -73q-13 -40 -31.5 -62.5t-41 -31.5t-46.5 -9q-32 0 -52 22.5t-9 72.5l18 86q12 58 -12.5 85.5t-108.5 33.5v4q38 3 77.5 0 t70.5 -16.5t47 -40t7 -69.5zM424 507q-12 0 -20.5 -4t-16.5 -10q-19 -15 -32 -40.5t-26 -54.5t-32 -54.5t-50 -41.5t-81 -15l-10 -1l2 11q49 3 78.5 20t47 42t29.5 52.5t25 52.5t34 41q18 14 32.5 18.5t27.5 4.5q35 0 48 -17.5t11 -41.5q-1 -18 -14.5 -41t-43.5 -23 q-22 0 -31 13.5t-8 29.5q1 14 10 30.5t22 28.5h-1h-1z" glyph-name="k" horiz-adv-x="515" unicode="k"/>
<glyph d="M102 85q-8 -29 -5 -45.5t22 -16.5q20 0 37.5 22.5t37.5 79.5l13 37h19l-25 -73q-13 -38 -31.5 -60.5t-40.5 -32.5t-48 -10q-43 0 -57.5 21.5t-10.5 54t13 64.5l163 541q10 34 -2 50t-61 16l7 21q55 1 97 11.5t81 29.5z" glyph-name="l" horiz-adv-x="277" unicode="l"/>
<glyph d="M121 0h-87l120 429q3 9 5.5 23.5t-0.5 26.5t-19 12q-22 0 -40 -23t-38 -79l-13 -37h-19l25 73q22 63 56 83t65 20q40 0 51 -23t6 -55.5t-14 -61.5zM404 412q10 31 10 57.5t-28 26.5t-61.5 -34.5t-68 -96t-66.5 -143t-57 -174.5l33 160q46 120 86 190t80.5 100t86.5 30 q43 0 56 -24.5t9 -59.5t-13 -67l-102 -377h-90zM654 412q10 31 10 57.5t-22 26.5q-39 0 -85 -61.5t-92.5 -169t-89.5 -245.5l23 128q39 104 72 176.5t65 117.5t66 65.5t74 20.5q42 0 57 -24t12.5 -58.5t-13.5 -68.5l-97 -292q-10 -31 -7 -46.5t23 -15.5q19 0 37.5 21 t39.5 81l13 37h19l-25 -73q-22 -63 -56 -83t-65 -20q-25 0 -39.5 7.5t-22.5 19.5q-12 19 -8 47.5t16 65.5z" glyph-name="m" horiz-adv-x="809" unicode="m"/>
<glyph d="M122 0h-87l120 429q4 12 6.5 26.5t-1.5 25t-20 10.5q-22 0 -39 -21.5t-38 -80.5l-13 -37h-19l25 73q22 63 54.5 83t64.5 20q40 0 51.5 -22t6.5 -54t-13 -64zM168 208q35 90 68 151t65 98.5t65.5 54t69.5 16.5q47 0 64.5 -22.5t15.5 -57t-14 -71.5l-97 -292 q-9 -27 -7.5 -44.5t23.5 -17.5q19 0 37.5 21t39.5 81l13 37h19l-25 -73q-22 -63 -56 -83t-65 -20q-45 0 -63 29q-11 18 -7 47t16 64l95 286q5 14 8.5 33.5t-1.5 35t-29 15.5q-30 0 -64.5 -32.5t-70.5 -90.5t-69.5 -136t-59.5 -169z" glyph-name="n" horiz-adv-x="580" unicode="n"/>
<glyph d="M304 508q-32 0 -61.5 -25.5t-54 -69t-43 -97.5t-28.5 -112t-10 -111q0 -45 14.5 -66t42.5 -21q32 0 61.5 25.5t54.5 69t43 97.5t28 111.5t10 111.5q0 46 -14 66.5t-43 20.5zM21 143q0 55 19 121.5t55.5 126.5t90.5 98.5t124 38.5q62 0 99.5 -38.5t37.5 -118.5 q0 -55 -19 -121.5t-55.5 -126.5t-90.5 -98.5t-124 -38.5q-62 0 -99.5 39t-37.5 118z" glyph-name="o" horiz-adv-x="488" unicode="o"/>
<glyph d="M380 496q-26 0 -58.5 -36.5t-66 -99t-63 -140.5t-49.5 -162l18 108q65 196 123.5 279t124.5 83q47 0 75.5 -35t28.5 -106q0 -45 -12.5 -99t-37 -107t-60 -97.5t-81.5 -71t-102 -26.5q-30 0 -53.5 18t-31.5 52l8 20q14 -37 32.5 -52t43.5 -15q34 0 65 26.5t57 70.5 t45.5 97.5t30 107t10.5 98.5q0 44 -12.5 65.5t-34.5 21.5zM230 667q24 1 47.5 4t43.5 10l-220 -769q-12 -42 12 -57t69 -15l-6 -21q-20 1 -56.5 2.5t-77.5 1.5q-31 0 -63 -1.5t-48 -2.5l6 21q36 0 52 13.5t26 48.5zM22 357q39 38 73 75.5t66 89.5t65 131l3 -16 q-34 -102 -84 -168t-112 -125z" glyph-name="p" horiz-adv-x="551" unicode="p"/>
<glyph d="M326 -88q-11 -41 8 -56.5t53 -15.5l-6 -21q-20 1 -56.5 2.5t-77.5 1.5q-31 0 -63 -1.5t-48 -2.5l6 21q45 0 66.5 13t31.5 49l144 550q24 20 48 39.5t48 38.5l16 -7q-7 -13 -12 -28t-9 -30zM151 18q23 0 51 25t56.5 68t53 98t39.5 115l-20 -108q-52 -128 -103 -179 t-106 -51q-47 0 -75.5 35t-28.5 106q0 45 12.5 99t37 107t60 97.5t81.5 71t102 26.5q30 0 53.5 -18t31.5 -52l-8 -20q-13 38 -31.5 52.5t-44.5 14.5q-34 0 -65 -26.5t-57 -70.5t-45.5 -97.5t-30 -107t-10.5 -98.5q0 -44 12.5 -65.5t34.5 -21.5z" glyph-name="q" horiz-adv-x="507" unicode="q"/>
<glyph d="M121 0h-87l120 429q10 34 6.5 48t-20.5 14q-22 0 -40 -23t-38 -79l-13 -37h-19l25 73q22 63 56 83t65 20q40 0 50.5 -22.5t5.5 -54.5t-13 -63zM378 503q-23 0 -47.5 -21.5t-50 -62t-51 -97t-50 -125.5t-47.5 -149l25 128q33 98 61.5 165t56.5 108.5t57.5 60t62.5 18.5 q28 0 43.5 -16t15.5 -41q0 -30 -21 -51t-49 -21q-17 0 -28.5 9.5t-11.5 26.5q0 24 13 40t32 24q-2 2 -4.5 3t-6.5 1z" glyph-name="r" horiz-adv-x="426" unicode="r"/>
<glyph d="M59 15q8 -4 17.5 -6.5t28.5 -2.5q44 0 72.5 26.5t28.5 76.5q0 31 -11.5 61.5t-40.5 70.5q-23 32 -44 65.5t-21 79.5q0 64 45.5 103t109.5 39q29 0 57 -7t46.5 -25.5t18.5 -54.5q0 -14 -10 -33t-36 -19q-16 0 -28 11.5t-12 30.5q0 18 7.5 34.5t20.5 32.5q-19 12 -50 12 q-37 0 -62 -25t-25 -70q0 -34 15.5 -57.5t44.5 -67.5q25 -38 42 -73t17 -74q0 -46 -23.5 -81.5t-62.5 -55.5t-86 -20q-34 0 -65 10t-50.5 31.5t-19.5 57.5q0 14 8.5 29.5t30.5 15.5q24 0 34 -19.5t10 -43.5q0 -16 -2.5 -28.5t-4.5 -23.5z" glyph-name="s" horiz-adv-x="381" unicode="s"/>
<glyph d="M375 514l-3 -20h-311l5 20h309zM121 85q-9 -33 4.5 -47.5t35.5 -14.5t44.5 19t44.5 81l14 39h19l-21 -63q-22 -65 -56.5 -89t-80.5 -24q-61 0 -79.5 39t-0.5 101l155 540q24 1 47.5 4t42.5 10z" glyph-name="t" horiz-adv-x="336" unicode="t"/>
<glyph d="M397 346q-36 -100 -69 -169t-65.5 -111t-66 -61t-69.5 -19q-66 0 -79 43.5t9 107.5l97 292q10 30 7 46t-23 16q-19 0 -37.5 -21t-39.5 -81l-13 -37h-19l25 73q22 63 56 83t65 20q44 0 58.5 -20.5t11 -52.5t-15.5 -67l-95 -286q-28 -84 22 -84q30 0 64.5 33.5t69.5 94.5 t68 144.5t59 183.5zM394 85q-7 -27 -6.5 -44.5t20.5 -17.5q22 0 40.5 23.5t37.5 78.5l13 37h19l-25 -73q-22 -63 -56 -83t-65 -20q-16 0 -30 7t-21 20q-8 17 -5.5 43t13.5 70l98 388q25 1 48.5 4t42.5 10z" glyph-name="u" horiz-adv-x="567" unicode="u"/>
<glyph d="M474 379q-28 14 -52 41t-21 67q2 23 16.5 32.5t27.5 9.5q35 0 48 -39.5t6 -101.5q-7 -59 -24 -117t-43.5 -109t-63.5 -91t-83 -62.5t-102 -22.5q-45 0 -70.5 18.5t-35.5 47t-8 58.5q4 56 34.5 120.5t81 131t116.5 128.5q-16 -6 -34 -16.5t-35 -21t-33 -18t-30 -7.5 q-19 0 -32.5 12.5t-30.5 12.5q-16 0 -26.5 -13.5t-22.5 -48.5l-11 -37h-19l22 73q17 60 42.5 81t51.5 21q19 0 32 -10t26.5 -19.5t32.5 -9.5q24 0 45.5 7.5t38.5 23.5l10 19l21 -10q-53 -65 -91 -131t-60.5 -133t-28.5 -138q-4 -58 8.5 -83t34.5 -25q47 0 87 25t71.5 66 t54 89.5t35 95.5t14.5 84z" glyph-name="v" horiz-adv-x="533" unicode="v"/>
<glyph d="M297 69q-33 -36 -73.5 -59.5t-86.5 -23.5q-69 0 -96.5 35t-27.5 79q0 49 28 101t73.5 103.5t99.5 98.5t105 84l16 3q-16 -6 -34 -16.5t-35 -21t-33 -18t-30 -7.5q-19 0 -32.5 12.5t-30.5 12.5q-16 0 -27 -13.5t-22 -48.5l-12 -37h-19l23 73q20 59 43.5 80.5t49.5 21.5 q19 0 32.5 -10t27 -19.5t32.5 -9.5q24 0 43 7.5t37 23.5l14 19l21 -10q-69 -58 -131 -125.5t-101.5 -142t-39.5 -155.5q0 -50 15 -70t40 -20q64 0 127 72zM408 15q49 0 85.5 28t60.5 72.5t36.5 96t14.5 99t-7 80.5q-19 4 -41 14.5t-38 29t-16 45.5q0 26 14 37t28 11 q15 0 26.5 -9t20.5 -25t16 -37.5t11 -46.5q10 -45 8 -101t-17 -112.5t-45 -104.5t-75.5 -77t-108.5 -29q-32 0 -59 12t-43.5 42t-16.5 83q0 44 14.5 86t37.5 76t48 54t46 20q15 0 22.5 -11t10 -27.5t2.5 -31.5q0 -54 -29.5 -110t-91.5 -103l-5 18q47 37 75 90t28 106 q0 20 -4 33.5t-15 13.5q-16 0 -36 -25.5t-34.5 -65t-14.5 -83.5q0 -36 8.5 -70t29 -56t54.5 -22z" glyph-name="w" horiz-adv-x="685" unicode="w"/>
<glyph d="M322 78q4 -26 12.5 -36t21.5 -10q15 0 31 17.5t36 74.5l13 37h19l-25 -73q-14 -40 -32.5 -62t-39 -31t-42.5 -9q-31 0 -54 20t-29 72l-40 358q-4 26 -12.5 36t-21.5 10q-15 0 -31 -17.5t-36 -74.5l-13 -37h-19l25 73q15 40 33 62t39 31t42 9q35 0 56 -19.5t27 -72.5z M406 467q-46 -43 -75 -102.5t-45 -105.5l-10 0.5l-10 0.5q9 27 22.5 61.5t35.5 72t54 73.5q29 33 52 47t48 14q19 0 31.5 -10t12.5 -27q0 -19 -14.5 -33.5t-38.5 -14.5q-22 0 -38 8.5t-25 15.5zM81 47q47 43 83 101t55 107l8.5 -2l8.5 -2q-10 -27 -25.5 -60t-39.5 -69 t-59 -74q-30 -31 -54 -46.5t-47 -15.5q-22 0 -33.5 10t-11.5 27q0 19 15 33.5t37 14.5q23 0 38 -8t25 -16z" glyph-name="x" horiz-adv-x="526" unicode="x"/>
<glyph d="M283 40l-67 -73l-76 460q-5 31 -12 43t-20 12q-11 0 -25 -17.5t-34 -74.5l-13 -37h-19l25 73q21 61 52 81.5t63 20.5q31 0 48 -19.5t24 -72.5zM64 -141q43 23 91.5 62.5t100.5 106.5q59 75 107.5 168.5t67.5 188.5q-24 13 -51 37.5t-25 58.5q2 23 16 35t35 12 q27 0 39.5 -20.5t12.5 -60.5q0 -51 -17 -109.5t-45.5 -118.5t-63.5 -115.5t-71 -100.5q-16 -20 -44 -50t-66.5 -61.5t-86.5 -54.5q-30 -14 -51.5 -19.5t-35.5 -5.5q-20 0 -35 10.5t-15 30.5q0 22 16.5 33.5t37.5 11.5q23 0 43.5 -12t39.5 -27z" glyph-name="y" horiz-adv-x="481" unicode="y"/>
<glyph d="M25 39q29 18 50.5 29.5t40 17t36.5 5.5q24 0 45 -8t43 -16t47 -8q26 0 40.5 12.5t14.5 37.5q0 27 -22 46t-57 26l6 15q46 -10 71.5 -34.5t25.5 -62.5q0 -40 -26 -72.5t-90 -32.5q-26 0 -45.5 6.5t-37.5 15t-39 15t-50 6.5q-26 0 -47.5 -7.5t-42.5 -29.5h-27l451 475 q-21 -13 -38.5 -23t-32.5 -16.5t-28.5 -9.5t-27.5 -3q-24 0 -45 8t-42.5 16t-47.5 8q-25 0 -40 -12t-15 -38q0 -27 22.5 -46t56.5 -26l-6 -15q-46 11 -71.5 35t-25.5 62q0 27 11.5 51t37 39t67.5 15q26 0 45.5 -6.5t37.5 -15t39 -15t50 -6.5q26 0 47.5 7.5t42.5 29.5h27z " glyph-name="z" horiz-adv-x="445" unicode="z"/>
<glyph d="M159 -188q-60 0 -90 18t-38.5 49.5t-2.5 73.5t18 90q16 67 24.5 111.5t8.5 72.5q-1 31 -12.5 44t-34.5 15h-5l3 18h5q31 2 53 24t41 73.5t43 145.5q23 92 52 143t70.5 71.5t104.5 20.5l-5 -19q-24 0 -41.5 -6.5t-31 -28t-27.5 -64.5t-32 -117q-22 -90 -55 -140.5 t-71.5 -75.5t-78.5 -36q45 -14 67 -41t27 -62.5t-0.5 -74t-14.5 -74.5q-15 -61 -22.5 -100t-6.5 -62q0 -31 14.5 -40t42.5 -10z" glyph-name="braceleft" horiz-adv-x="306" unicode="{"/>
<glyph d="M189 858v-1053h-40v1053h40z" glyph-name="bar" horiz-adv-x="318" unicode="|"/>
<glyph d="M148 782q60 0 90 -18t38.5 -49.5t2.5 -73.5t-18 -90q-16 -67 -24.5 -111.5t-8.5 -72.5q1 -31 12.5 -44t34.5 -15h5l-3 -18h-5q-31 -2 -53 -24t-41 -73.5t-43 -145.5q-23 -92 -52 -143t-70.5 -71.5t-104.5 -20.5l5 19q24 0 41.5 6.5t31 28t27.5 64.5t32 117 q22 90 55 140.5t71.5 75.5t78.5 36q-45 14 -67 41t-27 62.5t0.5 74t14.5 74.5q15 61 22.5 100t6.5 62q0 31 -14.5 40t-42.5 10z" glyph-name="braceright" horiz-adv-x="306" unicode="}"/>
<glyph d="M420 237q-38 0 -67 12t-54.5 27t-53 27t-62.5 12q-28 0 -54.5 -13t-46.5 -45l-14 5q23 50 66.5 78.5t98.5 28.5q38 0 67 -12t54.5 -27t53 -27t62.5 -12q28 0 54.5 13t46.5 45l14 -5q-22 -49 -65.5 -78t-99.5 -29z" glyph-name="asciitilde" horiz-adv-x="649" unicode="~"/>
<glyph glyph-name="uni00A0" horiz-adv-x="253" unicode=" "/>
<glyph d="M142 316q-22 -90 -37 -178t-26 -162.5t-24 -124.5q-4 -19 -16.5 -29t-28.5 -10q-30 0 -40 18.5t-2 43.5q10 34 28.5 82t41 106.5t45.5 123.5t41 133zM106 451q0 30 23 53.5t51 23.5q23 0 37 -15t14 -37q0 -30 -23 -53t-52 -23q-22 0 -36 14.5t-14 36.5z" glyph-name="exclamdown" horiz-adv-x="249" unicode="¡"/>
<glyph d="M355 708l-239 -889h-22l239 889h22zM320 508q-38 0 -75.5 -31t-68.5 -85t-49.5 -123t-18.5 -145q0 -51 19.5 -73.5t50.5 -22.5q36 0 74 22t76 78l20 -8q-19 -33 -50 -64t-69.5 -50.5t-81.5 -19.5q-60 0 -96 37t-36 110q0 58 21 126t60 129.5t95 100.5t126 39 q44 0 76 -22.5t32 -62.5q0 -19 -8.5 -37.5t-24.5 -30.5t-38 -12q-21 0 -31 11.5t-10 27.5q0 29 23 49.5t52 25.5q-10 14 -26 22.5t-42 8.5z" glyph-name="cent" horiz-adv-x="433" unicode="¢"/>
<glyph d="M390 317l-6 -20h-325l6 20h325zM417 417l-6 -20h-325l6 20h325zM494 721q-64 0 -101.5 -37t-59 -95.5t-39.5 -123.5l-39 -148q-8 -31 -19.5 -57t-26.5 -49.5t-33 -45.5t-38.5 -44t-43.5 -45q29 14 60.5 23t65.5 9q35 0 64.5 -11.5t60 -22.5t68.5 -11q33 0 59.5 20 t26.5 54q0 29 -17.5 46t-47.5 23l6 17q27 -4 50 -17t37 -34t14 -51q0 -33 -19.5 -64t-52 -51t-71.5 -20q-35 0 -61.5 14t-50.5 33t-51 33t-63 14q-20 0 -41.5 -4.5t-45.5 -15.5q-25 -35 -50.5 -54.5t-45.5 -19.5q-13 0 -13 10q0 14 26 36.5t73 36.5q17 34 34.5 75.5 t36.5 113.5l48 181q22 82 60.5 149.5t97.5 107.5t144 40q54 0 79 -21t25 -47q0 -25 -17.5 -44t-44.5 -19q-15 0 -25.5 9t-10.5 25q0 20 13.5 36t34.5 22q0 10 -17.5 17t-38.5 7z" glyph-name="sterling" horiz-adv-x="624" unicode="£"/>
<glyph d="M138 300q0 -41 20.5 -76t54.5 -55.5t74 -20.5q41 0 74.5 20.5t53.5 55.5t20 76t-20 76t-53.5 56t-74.5 21t-75 -21t-54 -55.5t-20 -76.5zM96 138l43 43q-19 24 -30.5 54.5t-11.5 64.5q0 67 43 120l-44 44l28 28l44 -44q24 20 54.5 31t64.5 11t64 -11.5t55 -31.5l45 45 l28 -28l-45 -45q20 -25 31 -55t11 -64t-11 -64.5t-31 -54.5l44 -43l-28 -29l-44 44q-25 -19 -55 -30.5t-64 -11.5q-69 0 -119 41l-43 -43z" glyph-name="currency" horiz-adv-x="569" unicode="¤"/>
<glyph d="M521 217l-5 -20h-373l5 20h373zM543 297l-5 -20h-373l5 20h373zM354 106q-13 -55 -2.5 -69.5t61.5 -16.5l-5 -20q-15 1 -35 1.5t-43 1t-46 0.5q-39 0 -74 -0.5t-57 -2.5l5 20q34 2 53 8t30 24t20 54l69 274l35 -63l33 19l34 80zM696 701q-16 -1 -29.5 -7t-25.5 -15 q-33 -24 -76 -74.5t-89 -132.5t-90 -202l-59 -5q-4 46 -10.5 100t-15.5 107t-22.5 97.5t-32 71t-43.5 26.5q-17 0 -28.5 -10.5t-19.5 -36.5l-28 -82h-11h-11l33 97q15 44 35 65.5t63 21.5q55 0 87 -44.5t50 -126t30 -191.5q38 96 86.5 170.5t100.5 126.5q23 23 54.5 44 t63.5 21q34 0 46 -18.5t10 -40.5q-1 -20 -15.5 -42t-43.5 -22q-23 0 -31 13.5t-7 29.5t10 31.5t22 27.5h-1.5h-1.5z" glyph-name="yen" horiz-adv-x="703" unicode="¥"/>
<glyph d="M151 -195v521h40v-521h-40zM191 858v-474h-40v474h40z" glyph-name="brokenbar" horiz-adv-x="322" unicode="¦"/>
<glyph d="M469 727q-4 15 -20 23t-35 10.5t-33 2.5q-33 0 -65.5 -12t-54.5 -41t-22 -80q0 -33 18.5 -61t47 -53t56.5 -49q47 -40 75.5 -74.5t28.5 -80.5q0 -48 -24.5 -87t-64 -69t-85.5 -51l-7 14q26 13 52.5 32t45 45.5t18.5 59.5q0 28 -15 52t-38.5 46.5t-51.5 45.5 q-55 46 -94.5 87t-39.5 98q0 42 18 77.5t49 62.5t70.5 42t82.5 15q22 0 46.5 -5t46 -15.5t35 -28t13.5 -41.5q0 -27 -19 -49t-49 -22q-19 0 -31 11.5t-12 30.5q0 24 17.5 40.5t40.5 23.5zM127 -169q34 0 66.5 12.5t54 42t21.5 80.5q0 33 -18.5 60.5t-46.5 52t-57 48.5 q-47 40 -75.5 74.5t-28.5 80.5q0 48 24.5 87t64 69t85.5 51l7 -14q-25 -13 -52 -32t-45.5 -45t-18.5 -60q0 -40 32 -74.5t73 -69.5q56 -46 95 -87t39 -98q0 -42 -18 -77.5t-49 -62.5t-70.5 -42t-82.5 -15q-22 0 -46.5 5t-45.5 15.5t-34.5 28.5t-13.5 44t19.5 47t47.5 21 q20 0 31.5 -10.5t11.5 -29.5q0 -25 -17 -42t-41 -24q7 -21 37 -28.5t51 -7.5z" glyph-name="section" horiz-adv-x="508" unicode="§"/>
<glyph d="M156 678q0 23 20 44t47 21q21 0 35.5 -14.5t14.5 -35.5q0 -25 -20 -45.5t-47 -20.5q-22 0 -36 14.5t-14 36.5zM368 678q0 23 20 44t47 21q21 0 35.5 -14.5t14.5 -35.5q0 -25 -20 -45.5t-47 -20.5q-22 0 -36 14.5t-14 36.5z" glyph-name="dieresis" horiz-adv-x="428" unicode="¨"/>
<glyph d="M88 384q0 83 31 155t85.5 126.5t127 85.5t154.5 31q83 0 155 -31t126.5 -85.5t85.5 -126.5t31 -155q0 -82 -31 -154.5t-85.5 -127t-126.5 -85.5t-155 -31q-82 0 -154.5 31t-127 85.5t-85.5 127t-31 154.5zM128 384q0 -76 28 -142t77 -116.5t114 -79t139 -28.5t139 28.5 t114 79t77 116.5t28 142t-28 142t-77 116.5t-114 79t-139 28.5t-139 -28.5t-114 -79t-77 -116.5t-28 -142zM509 156q27 0 53.5 10t51 32.5t41.5 60.5l19 -7q-10 -32 -33 -64.5t-60 -53.5t-90 -21q-62 0 -112.5 32t-80 91.5t-29.5 141.5t29.5 144.5t82.5 98t122 35.5 q42 0 79 -13.5t60 -37.5t23 -58q0 -27 -15 -41.5t-38 -14.5q-22 0 -38.5 14.5t-16.5 39.5q0 21 11.5 34t30.5 17q-10 18 -35.5 30t-54.5 12q-33 0 -66 -22t-55 -75.5t-22 -150.5q0 -86 20 -137.5t52.5 -74t70.5 -22.5z" glyph-name="copyright" horiz-adv-x="924" unicode="©"/>
<glyph d="M363 430q-7 -21 -4.5 -31t15.5 -10q16 0 28 13.5t25 50.5l9 25h19l-18 -49q-15 -40 -37 -54.5t-53 -14.5q-21 0 -32 9t-11.5 29.5t9.5 55.5l74 259q40 0 70 9zM195 385q24 0 57.5 35t64.5 90.5t46 116.5l-15 -79q-28 -69 -56.5 -110t-57.5 -59.5t-59 -18.5 q-37 0 -57.5 22.5t-20.5 57.5q0 44 22.5 93t59 92t79.5 70t84 27q15 0 28.5 -11.5t8.5 -43.5l-7 -16q1 26 -6.5 36.5t-18.5 10.5q-25 0 -55.5 -22t-58.5 -60t-45.5 -85.5t-17.5 -98.5q0 -47 25 -47z" glyph-name="ordfeminine" horiz-adv-x="454" unicode="ª"/>
<glyph d="M318 528q-15 -33 -40.5 -73t-56 -81t-62.5 -75t-60 -55q29 -24 58 -70t51.5 -97.5t31.5 -90.5h-18q-39 77 -87 142.5t-111 114.5v2q80 56 147 127t129 156h18zM483 528q-14 -32 -39 -72.5t-56 -81t-63 -75t-61 -55.5q29 -24 58 -70t51.5 -97.5t31.5 -90.5h-18 q-39 77 -87 142.5t-111 114.5v2q80 56 147 127t129 156h18z" glyph-name="guillemotleft" horiz-adv-x="517" unicode="«"/>
<glyph d="M94 340l9 30h501l-59 -205h-36l50 175h-465z" glyph-name="logicalnot" horiz-adv-x="661" unicode="¬"/>
<glyph glyph-name="uni00AD" horiz-adv-x="504" unicode="­"/>
<glyph d="M405 782q77 0 140.5 -37.5t101 -101t37.5 -140.5t-37.5 -140.5t-101 -101t-140.5 -37.5t-140.5 37.5t-101 101t-37.5 140.5t37.5 140.5t101 101t140.5 37.5zM336 520q34 0 48.5 -1t22 -2.5t18.5 -3.5q47 -4 64.5 -18.5t22.5 -40.5l12 -57q3 -13 5.5 -23t12.5 -10 q8 0 12 8l10 -7q-6 -12 -16.5 -16.5t-27.5 -4.5q-26 0 -38 10t-17 31l-17 74q-4 20 -12.5 30t-30 13t-67.5 3zM405 750q-66 0 -120 -33.5t-85.5 -89.5t-31.5 -124q0 -67 31.5 -123.5t85.5 -90t120 -33.5t120 33.5t85.5 90t31.5 123.5q0 68 -31.5 124t-85.5 89.5t-120 33.5z M414 676q57 0 86.5 -20.5t29.5 -58.5q0 -20 -11 -39.5t-41 -33t-87 -16.5l-60 -3v8v8h53q53 0 68.5 19t15.5 47q0 38 -15.5 56t-54.5 18q-24 0 -31 -6.5t-7 -26.5v-224q0 -23 4.5 -29t18.5 -8v-15q-10 0 -23.5 0.5t-27.5 0.5q-16 0 -29.5 -0.5t-22.5 -0.5v15q14 2 18.5 8 t4.5 29v219q0 24 -4.5 30.5t-18.5 7.5v15q9 -1 22 -1h26q28 0 52 0.5t34 0.5z" glyph-name="registered" horiz-adv-x="699" unicode="®"/>
<glyph d="M475 712l-6 -25h-312l6 25h312z" glyph-name="macron" horiz-adv-x="412" unicode="¯"/>
<glyph d="M261 820q49 0 85.5 -32t36.5 -88t-36.5 -88.5t-85.5 -32.5q-48 0 -84.5 32.5t-36.5 88.5t36.5 88t84.5 32zM261 596q34 0 65.5 25.5t31.5 77.5q0 51 -31.5 77.5t-65.5 26.5t-65 -26.5t-31 -77.5q0 -52 31 -77.5t65 -25.5z" glyph-name="degree" horiz-adv-x="335" unicode="°"/>
<glyph d="M-9 0l9 30h501l-9 -30h-501zM84 370h233l67 236h36l-67 -236h232l-9 -30h-232l-67 -235h-36l67 235h-233z" glyph-name="plusminus" horiz-adv-x="635" unicode="±"/>
<glyph d="M294 754q35 0 57 -13t22 -44q0 -32 -22 -61t-55 -55.5t-67 -49t-57 -41.5q25 0 63 -9t63 -9q20 0 33.5 9.5t13.5 25.5q0 11 -4 19l17 7q5 -7 7.5 -15t2.5 -17q0 -28 -23 -48t-67 -20q-31 0 -56 8t-63 10q-26 2 -42 -2t-36 -12l4 18q23 15 60.5 38.5t76.5 53t65.5 63 t26.5 67.5q0 23 -14 33t-40 10t-53.5 -11.5t-53.5 -40.5l-14 11q23 29 63 52t92 23z" glyph-name="uni00B2" horiz-adv-x="341" unicode="²"/>
<glyph d="M299 754q35 0 57.5 -13t22.5 -41t-23 -51.5t-55.5 -39.5t-60.5 -23q42 -1 75.5 -17.5t33.5 -56.5q0 -37 -29.5 -66.5t-76.5 -50.5t-100 -33.5t-100 -15.5v18q58 5 114.5 24t94 52.5t37.5 79.5q0 27 -14.5 39t-40.5 13q-11 -6 -19 -8t-13 -2q-6 0 -12 3t-6 10 q0 10 12.5 14t31.5 3q41 15 67 39t26 55q0 19 -12.5 28t-34.5 9q-26 0 -55 -12t-61 -44l-14 12q21 25 62 50t93 25z" glyph-name="uni00B3" horiz-adv-x="326" unicode="³"/>
<glyph d="M138 608q41 49 67 84t45 61t38 45q17 20 34 22t29 -7q10 -10 7.5 -26t-22.5 -36q-18 -19 -44 -38t-61.5 -45.5t-82.5 -68.5z" glyph-name="acute" horiz-adv-x="276" unicode="´"/>
<glyph d="M418 337q-21 -81 -32 -146.5t-14 -104t0 -38.5l8.5 32.5t23 86.5t32 118.5t34.5 129.5t31.5 119t24 87.5t9.5 34.5q-3 0 -21 -40t-42 -105.5t-46 -144.5q-77 0 -141.5 -3t-103 -6.5t-39.5 -5.5q0 -2 36.5 -5.5t99.5 -6t140 -2.5zM354 -13q-115 0 -185 30.5t-101.5 85 t-31.5 126.5q0 99 36 186t100.5 153t150 103.5t184.5 37.5q41 0 78 -1.5t72 -1.5q15 0 30 0.5t30 1.5l-5 -19q-49 -2 -67.5 -18.5t-27.5 -49.5l-139 -528q-21 -81 -54.5 -144.5t-80.5 -100t-110 -36.5q-44 0 -72.5 13.5t-29.5 41.5q0 22 17.5 41.5t41.5 19.5q16 0 24.5 -8.5 t8.5 -22.5q0 -18 -10 -34t-25 -30q7 -2 16 -3.5t19 -1.5q54 0 82.5 45.5t48.5 113.5z" glyph-name="paragraph" horiz-adv-x="640" unicode="¶"/>
<glyph d="M55 238q0 30 23 53.5t51 23.5q23 0 37 -15t14 -37q0 -30 -23 -53t-52 -23q-22 0 -36 14.5t-14 36.5z" glyph-name="periodcentered" horiz-adv-x="258" unicode="·"/>
<glyph d="M98 0l-34 -72q8 3 19.5 5t21.5 2q20 0 31.5 -10.5t11.5 -29.5q0 -29 -20 -47.5t-48.5 -27t-54.5 -8.5q-28 0 -49 7t-31 15l7 15q7 -3 21 -8t39 -5q11 0 28 4.5t30.5 15.5t13.5 31q0 24 -28 24q-5 0 -14 -1.5t-17 -5.5l46 96h27z" glyph-name="cedilla" horiz-adv-x="290" unicode="¸"/>
<glyph d="M316 753l-101 -316h-59l81 251q-25 -15 -53.5 -28.5t-72.5 -25.5l5 19q72 22 111 48.5t70 51.5h19z" glyph-name="uni00B9" horiz-adv-x="253" unicode="¹"/>
<glyph d="M314 704q-28 0 -52.5 -24.5t-43 -64.5t-29 -86.5t-10.5 -91.5q0 -58 48 -58q28 0 52.5 24.5t43 64t29 86.5t10.5 92q0 58 -48 58zM107 465q0 37 13.5 81t40.5 84t66.5 66t91.5 26q53 0 84 -26t31 -79q0 -37 -13.5 -81t-40.5 -84t-66.5 -65.5t-91.5 -25.5t-83.5 26 t-31.5 78z" glyph-name="ordmasculine" horiz-adv-x="411" unicode="º"/>
<glyph d="M276 528q39 -76 87 -142.5t111 -115.5v-1q-79 -56 -146.5 -126.5t-129.5 -156.5h-18q15 33 40.5 73t56 81t62.5 75t60 55q-29 24 -58 70t-51 97.5t-32 90.5h18zM111 528q39 -76 87 -142.5t111 -115.5v-1q-79 -56 -146.5 -126.5t-129.5 -156.5h-18q15 33 40.5 73t56 81 t62.5 75t60 55q-29 24 -58 70t-51 97.5t-32 90.5h18z" glyph-name="guillemotright" horiz-adv-x="516" unicode="»"/>
<glyph d="M719 824l15 -13l-833 -866l-15 13zM316 753l-101 -316h-59l81 251q-25 -15 -53.5 -28.5t-72.5 -25.5l5 19q72 22 111 48.5t70 51.5h19zM454 317l5 -21l-263 -233l-5 10h267l-11 -41h-298l5 18zM473 317l-117 -402h-52l98 339l52 63h19z" glyph-name="onequarter" horiz-adv-x="606" unicode="¼"/>
<glyph d="M719 824l15 -13l-833 -866l-15 13zM316 753l-101 -316h-59l81 251q-25 -15 -53.5 -28.5t-72.5 -25.5l5 19q72 22 111 48.5t70 51.5h19zM461 317q35 0 57 -13t22 -44q0 -32 -22 -61t-55 -55.5t-67 -49t-57 -41.5q25 0 63 -9t63 -9q20 0 33.5 9.5t13.5 25.5q0 11 -4 19 l17 7q5 -7 7.5 -15t2.5 -17q0 -28 -23 -48t-67 -20q-31 0 -56 8t-63 10q-26 2 -42 -2t-36 -12l4 18q23 15 60.5 38.5t76.5 53t65.5 63t26.5 67.5q0 23 -14 33t-40 10t-53.5 -11.5t-53.5 -40.5l-14 11q23 29 63 52t92 23z" glyph-name="onehalf" horiz-adv-x="606" unicode="½"/>
<glyph d="M819 824l15 -13l-833 -866l-15 13zM299 754q35 0 57.5 -13t22.5 -41t-23 -51.5t-55.5 -39.5t-60.5 -23q42 -1 75.5 -17.5t33.5 -56.5q0 -37 -29.5 -66.5t-76.5 -50.5t-100 -33.5t-100 -15.5v18q58 5 114.5 24t94 52.5t37.5 79.5q0 27 -14.5 39t-40.5 13q-11 -6 -19 -8 t-13 -2q-6 0 -12 3t-6 10q0 10 12.5 14t31.5 3q41 15 67 39t26 55q0 19 -12.5 28t-34.5 9q-26 0 -55 -12t-61 -44l-14 12q21 25 62 50t93 25zM554 317l5 -21l-263 -233l-5 10h267l-11 -41h-298l5 18zM573 317l-117 -402h-52l98 339l52 63h19z" glyph-name="threequarters" horiz-adv-x="706" unicode="¾"/>
<glyph d="M123 -171q23 0 49 5t47 16t27 28q-9 2 -17.5 14.5t-7.5 29.5q2 20 17 32.5t36 12.5q20 0 30 -11.5t10 -30.5q0 -25 -18 -46t-48 -36t-67.5 -23t-76.5 -8q-64 0 -105 25t-41 73q0 30 16 55.5t52 54t97 68.5q45 32 75.5 53.5t46 42t15.5 47.5t-18.5 47.5t-49.5 20.5 q-30 0 -61 -11.5t-44 -32.5q9 -1 18 -11t8 -24q0 -15 -12.5 -28t-32.5 -13q-13 0 -23.5 7.5t-10.5 27.5q0 24 16.5 42.5t43.5 32t58 20.5t60 7q51 0 83 -24.5t32 -71.5q0 -38 -22 -67.5t-59.5 -57.5t-84.5 -62q-66 -43 -95.5 -71.5t-29.5 -64.5q0 -28 22 -48t65 -20z M200 451q0 30 23 53.5t51 23.5q23 0 37 -15t14 -37q0 -30 -23 -53t-52 -23q-22 0 -36 14.5t-14 36.5z" glyph-name="questiondown" horiz-adv-x="446" unicode="¿"/>
<glyph d="M80 162q-37 -52 -44.5 -83t11.5 -44.5t60 -14.5l-5 -20q-28 2 -58 2.5t-56 0.5q-25 0 -42 -0.5t-33 -2.5l5 20q20 5 44.5 24.5t55.5 62.5l431 606h7.5h7.5l40 -629q3 -36 18.5 -49.5t30.5 -14.5l-4 -20q-20 2 -50 2.5t-59 0.5q-36 0 -68 -0.5t-52 -2.5l4 20q48 2 68 17.5 t18 66.5l-27 494l7 2zM160 288h292l-8 -20h-302zM487 769q-40 33 -69.5 54t-51 36t-37.5 30q-10 11 -17 27.5t5 31.5q13 15 33 9t33 -20q15 -15 29 -37t34 -51.5t51 -69.5z" glyph-name="Agrave" horiz-adv-x="629" unicode="À"/>
<glyph d="M80 162q-37 -52 -44.5 -83t11.5 -44.5t60 -14.5l-5 -20q-28 2 -58 2.5t-56 0.5q-25 0 -42 -0.5t-33 -2.5l5 20q20 5 44.5 24.5t55.5 62.5l431 606h7.5h7.5l40 -629q3 -36 18.5 -49.5t30.5 -14.5l-4 -20q-20 2 -50 2.5t-59 0.5q-36 0 -68 -0.5t-52 -2.5l4 20q48 2 68 17.5 t18 66.5l-27 494l7 2zM160 288h292l-8 -20h-302zM443 783q53 36 87.5 62.5t60 46t48.5 33.5q15 9 36.5 11.5t29.5 -16.5q7 -16 -5.5 -31t-27.5 -23q-34 -20 -85.5 -36.5t-136.5 -57.5z" glyph-name="Aacute" horiz-adv-x="629" unicode="Á"/>
<glyph d="M80 162q-37 -52 -44.5 -83t11.5 -44.5t60 -14.5l-5 -20q-28 2 -58 2.5t-56 0.5q-25 0 -42 -0.5t-33 -2.5l5 20q20 5 44.5 24.5t55.5 62.5l431 606h7.5h7.5l40 -629q3 -36 18.5 -49.5t30.5 -14.5l-4 -20q-20 2 -50 2.5t-59 0.5q-36 0 -68 -0.5t-52 -2.5l4 20q48 2 68 17.5 t18 66.5l-27 494l7 2zM160 288h292l-8 -20h-302zM469 840q-39 -16 -95.5 -36t-110.5 -32l-5 14q73 23 135 57.5t100 72.5h18q26 -43 57 -76.5t82 -53.5l-4 -14q-68 13 -104.5 31t-72.5 37z" glyph-name="Acircumflex" horiz-adv-x="629" unicode="Â"/>
<glyph d="M80 162q-37 -52 -44.5 -83t11.5 -44.5t60 -14.5l-5 -20q-28 2 -58 2.5t-56 0.5q-25 0 -42 -0.5t-33 -2.5l5 20q20 5 44.5 24.5t55.5 62.5l431 606h7.5h7.5l40 -629q3 -36 18.5 -49.5t30.5 -14.5l-4 -20q-20 2 -50 2.5t-59 0.5q-36 0 -68 -0.5t-52 -2.5l4 20q48 2 68 17.5 t18 66.5l-27 494l7 2zM160 288h292l-8 -20h-302zM420 895q34 0 56 -11t38.5 -25.5t34.5 -25.5t44 -11q18 0 35.5 13.5t34.5 44.5l18 -5q-23 -55 -59 -79t-71 -24q-34 0 -56 11t-38.5 25.5t-34.5 25.5t-44 11q-18 0 -35.5 -13t-34.5 -45l-18 5q23 56 59 79.5t71 23.5z" glyph-name="Atilde" horiz-adv-x="629" unicode="Ã"/>
<glyph d="M80 162q-37 -52 -44.5 -83t11.5 -44.5t60 -14.5l-5 -20q-28 2 -58 2.5t-56 0.5q-25 0 -42 -0.5t-33 -2.5l5 20q20 5 44.5 24.5t55.5 62.5l431 606h7.5h7.5l40 -629q3 -36 18.5 -49.5t30.5 -14.5l-4 -20q-20 2 -50 2.5t-59 0.5q-36 0 -68 -0.5t-52 -2.5l4 20q48 2 68 17.5 t18 66.5l-27 494l7 2zM160 288h292l-8 -20h-302zM318 823q0 23 20 44t47 21q21 0 35.5 -14.5t14.5 -35.5q0 -25 -20 -45.5t-47 -20.5q-22 0 -36 14.5t-14 36.5zM530 823q0 23 20 44t47 21q21 0 35.5 -14.5t14.5 -35.5q0 -25 -20 -45.5t-47 -20.5q-22 0 -36 14.5t-14 36.5z " glyph-name="Adieresis" horiz-adv-x="629" unicode="Ä"/>
<glyph d="M80 162q-37 -52 -44.5 -83t11.5 -44.5t60 -14.5l-5 -20q-28 2 -58 2.5t-56 0.5q-25 0 -42 -0.5t-33 -2.5l5 20q20 5 44.5 24.5t55.5 62.5l431 606h7.5h7.5l40 -629q3 -36 18.5 -49.5t30.5 -14.5l-4 -20q-20 2 -50 2.5t-59 0.5q-36 0 -68 -0.5t-52 -2.5l4 20q48 2 68 17.5 t18 66.5l-27 494l7 2zM160 288h292l-8 -20h-302zM487 925q36 0 61 -21.5t25 -58.5q0 -28 -15.5 -51.5t-41 -37.5t-55.5 -14q-35 0 -59 21.5t-24 58.5q0 44 32 73.5t77 29.5zM465 763q32 0 57 23.5t25 59.5q0 29 -20.5 43.5t-43.5 14.5q-31 0 -55 -24.5t-24 -56.5 q0 -30 19.5 -45t41.5 -15z" glyph-name="Aring" horiz-adv-x="629" unicode="Å"/>
<glyph d="M641 773l-601 -679q-29 -33 -28 -51t61 -23v-20q-13 2 -37 2.5t-49 0.5q-18 0 -36.5 -0.5t-30.5 -2.5v20q31 2 86 64l609 689h26zM252 346l19 20h432l-4 -20h-447zM632 366q45 0 66 34.5t37 77.5h22q-13 -39 -19.5 -64.5t-14.5 -57.5q-6 -22 -11.5 -47t-14.5 -75h-22 q0 23 4 48t-4.5 43.5t-46.5 20.5zM455 106q-14 -55 -3 -69t60 -14h103q48 0 79.5 17t54.5 55.5t45 104.5h22q-5 -13 -10.5 -32t-10.5 -40q-5 -19 -13 -54.5t-13 -73.5q-51 2 -113.5 2.5t-112.5 0.5h-79t-104.5 -0.5t-104.5 -2.5l4 20q34 2 53 8t30 24t20 54l132 496 q14 55 2.5 69.5t-61.5 16.5l5 20q49 -1 104 -2t104 -1h79q46 0 103 0.5t104 2.5q-13 -35 -23 -68t-15 -50q-5 -18 -8 -34.5l-5 -27.5h-22q16 89 -2.5 123t-78.5 34h-93q-33 0 -51.5 -5.5t-28.5 -23t-20 -54.5z" glyph-name="AE" horiz-adv-x="897" unicode="Æ"/>
<glyph d="M712 708q-15 -39 -31 -94.5t-33 -135.5h-22q8 52 5.5 87.5t-15.5 60.5q-19 38 -54.5 58t-76.5 20q-52 0 -101 -30.5t-91 -82.5t-74 -117.5t-50 -136t-18 -137.5q0 -98 38.5 -147t104.5 -49q42 0 91.5 20t86.5 58q27 27 46.5 63.5t43.5 94.5h22q-25 -91 -38.5 -146.5 t-20.5 -93.5h-22q3 21 3 34q0 23 -8 25.5t-25 -8.5q-41 -27 -82 -46t-107 -19q-110 0 -171.5 59.5t-61.5 175.5q0 68 21 138.5t60 135.5t93 116t120 81t142 30q65 0 95.5 -20t53.5 -45q14 -14 26.5 -3.5t28.5 54.5h21zM302 4l-36 -76q25 7 51 7q25 0 39 -10.5t14 -29.5 q0 -29 -25 -47.5t-60.5 -27t-67.5 -8.5q-35 0 -61 7t-39 15l7 15q8 -3 27 -8t53 -5q15 0 39.5 4.5t43.5 15.5t19 31q0 24 -38 24q-7 0 -18.5 -1.5t-22.5 -5.5l48 100h27z" glyph-name="Ccedilla" horiz-adv-x="670" unicode="Ç"/>
<glyph d="M200 346l6 20h173l-6 -20h-173zM302 366q44 0 67.5 23t37 54t23.5 55h23q-19 -57 -26.5 -87t-14.5 -55q-4 -16 -8.5 -34.5t-10 -44t-13.5 -63.5h-23q5 32 7 62.5t-11 50t-57 19.5zM567 528q10 59 8 93.5t-24.5 49t-75.5 14.5h-73q-34 0 -52.5 -5.5t-29.5 -23t-21 -54.5 l-133 -496q-15 -55 -3.5 -69t62.5 -14h73q63 0 100 17t62 55.5t49 104.5h23q-5 -13 -11 -32t-11 -40q-5 -19 -13 -54.5t-14 -73.5q-51 2 -115 2.5t-114 0.5h-79.5t-105 -0.5t-104.5 -2.5l5 20q34 2 53 8t29.5 24t20.5 54l133 496q15 55 3.5 69.5t-61.5 16.5l5 20 q49 -1 105 -2t105.5 -1h79.5q44 0 99.5 0.5t99.5 2.5q-13 -35 -23 -68t-15 -50q-5 -18 -8.5 -34.5t-5.5 -27.5h-23zM452 769q-40 33 -69.5 54t-51 36t-37.5 30q-10 11 -17 27.5t5 31.5q13 15 33 9t33 -20q15 -15 29 -37t34 -51.5t51 -69.5z" glyph-name="Egrave" horiz-adv-x="610" unicode="È"/>
<glyph d="M200 346l6 20h173l-6 -20h-173zM302 366q44 0 67.5 23t37 54t23.5 55h23q-19 -57 -26.5 -87t-14.5 -55q-4 -16 -8.5 -34.5t-10 -44t-13.5 -63.5h-23q5 32 7 62.5t-11 50t-57 19.5zM567 528q10 59 8 93.5t-24.5 49t-75.5 14.5h-73q-34 0 -52.5 -5.5t-29.5 -23t-21 -54.5 l-133 -496q-15 -55 -3.5 -69t62.5 -14h73q63 0 100 17t62 55.5t49 104.5h23q-5 -13 -11 -32t-11 -40q-5 -19 -13 -54.5t-14 -73.5q-51 2 -115 2.5t-114 0.5h-79.5t-105 -0.5t-104.5 -2.5l5 20q34 2 53 8t29.5 24t20.5 54l133 496q15 55 3.5 69.5t-61.5 16.5l5 20 q49 -1 105 -2t105.5 -1h79.5q44 0 99.5 0.5t99.5 2.5q-13 -35 -23 -68t-15 -50q-5 -18 -8.5 -34.5t-5.5 -27.5h-23zM408 783q53 36 87.5 62.5t60 46t48.5 33.5q15 9 36.5 11.5t29.5 -16.5q7 -16 -5.5 -31t-27.5 -23q-34 -20 -85.5 -36.5t-136.5 -57.5z" glyph-name="Eacute" horiz-adv-x="610" unicode="É"/>
<glyph d="M200 346l6 20h173l-6 -20h-173zM302 366q44 0 67.5 23t37 54t23.5 55h23q-19 -57 -26.5 -87t-14.5 -55q-4 -16 -8.5 -34.5t-10 -44t-13.5 -63.5h-23q5 32 7 62.5t-11 50t-57 19.5zM567 528q10 59 8 93.5t-24.5 49t-75.5 14.5h-73q-34 0 -52.5 -5.5t-29.5 -23t-21 -54.5 l-133 -496q-15 -55 -3.5 -69t62.5 -14h73q63 0 100 17t62 55.5t49 104.5h23q-5 -13 -11 -32t-11 -40q-5 -19 -13 -54.5t-14 -73.5q-51 2 -115 2.5t-114 0.5h-79.5t-105 -0.5t-104.5 -2.5l5 20q34 2 53 8t29.5 24t20.5 54l133 496q15 55 3.5 69.5t-61.5 16.5l5 20 q49 -1 105 -2t105.5 -1h79.5q44 0 99.5 0.5t99.5 2.5q-13 -35 -23 -68t-15 -50q-5 -18 -8.5 -34.5t-5.5 -27.5h-23zM434 840q-39 -16 -95.5 -36t-110.5 -32l-5 14q73 23 135 57.5t100 72.5h18q26 -43 57 -76.5t82 -53.5l-4 -14q-68 13 -104.5 31t-72.5 37z" glyph-name="Ecircumflex" horiz-adv-x="610" unicode="Ê"/>
<glyph d="M200 346l6 20h173l-6 -20h-173zM302 366q44 0 67.5 23t37 54t23.5 55h23q-19 -57 -26.5 -87t-14.5 -55q-4 -16 -8.5 -34.5t-10 -44t-13.5 -63.5h-23q5 32 7 62.5t-11 50t-57 19.5zM567 528q10 59 8 93.5t-24.5 49t-75.5 14.5h-73q-34 0 -52.5 -5.5t-29.5 -23t-21 -54.5 l-133 -496q-15 -55 -3.5 -69t62.5 -14h73q63 0 100 17t62 55.5t49 104.5h23q-5 -13 -11 -32t-11 -40q-5 -19 -13 -54.5t-14 -73.5q-51 2 -115 2.5t-114 0.5h-79.5t-105 -0.5t-104.5 -2.5l5 20q34 2 53 8t29.5 24t20.5 54l133 496q15 55 3.5 69.5t-61.5 16.5l5 20 q49 -1 105 -2t105.5 -1h79.5q44 0 99.5 0.5t99.5 2.5q-13 -35 -23 -68t-15 -50q-5 -18 -8.5 -34.5t-5.5 -27.5h-23zM283 823q0 23 20 44t47 21q21 0 35.5 -14.5t14.5 -35.5q0 -25 -20 -45.5t-47 -20.5q-22 0 -36 14.5t-14 36.5zM495 823q0 23 20 44t47 21q21 0 35.5 -14.5 t14.5 -35.5q0 -25 -20 -45.5t-47 -20.5q-22 0 -36 14.5t-14 36.5z" glyph-name="Edieresis" horiz-adv-x="610" unicode="Ë"/>
<glyph d="M166 106q-14 -55 -3 -69.5t62 -16.5l-4 -20q-23 2 -57.5 2.5t-69.5 0.5q-39 0 -72 -0.5t-55 -2.5l5 20q33 2 51.5 8t29.5 24t20 54l132 496q14 55 2.5 69.5t-61.5 16.5l5 20q20 -1 54 -2t73 -1q35 0 69.5 1t58.5 2l-5 -20q-34 -1 -53 -7.5t-29.5 -24t-20.5 -54.5z M314 769q-40 33 -69.5 54t-51 36t-37.5 30q-10 11 -17 27.5t5 31.5q13 15 33 9t33 -20q15 -15 29 -37t34 -51.5t51 -69.5z" glyph-name="Igrave" horiz-adv-x="341" unicode="Ì"/>
<glyph d="M166 106q-14 -55 -3 -69.5t62 -16.5l-4 -20q-23 2 -57.5 2.5t-69.5 0.5q-39 0 -72 -0.5t-55 -2.5l5 20q33 2 51.5 8t29.5 24t20 54l132 496q14 55 2.5 69.5t-61.5 16.5l5 20q20 -1 54 -2t73 -1q35 0 69.5 1t58.5 2l-5 -20q-34 -1 -53 -7.5t-29.5 -24t-20.5 -54.5z M270 783q53 36 87.5 62.5t60 46t48.5 33.5q15 9 36.5 11.5t29.5 -16.5q7 -16 -5.5 -31t-27.5 -23q-34 -20 -85.5 -36.5t-136.5 -57.5z" glyph-name="Iacute" horiz-adv-x="341" unicode="Í"/>
<glyph d="M166 106q-14 -55 -3 -69.5t62 -16.5l-4 -20q-23 2 -57.5 2.5t-69.5 0.5q-39 0 -72 -0.5t-55 -2.5l5 20q33 2 51.5 8t29.5 24t20 54l132 496q14 55 2.5 69.5t-61.5 16.5l5 20q20 -1 54 -2t73 -1q35 0 69.5 1t58.5 2l-5 -20q-34 -1 -53 -7.5t-29.5 -24t-20.5 -54.5z M296 840q-39 -16 -95.5 -36t-110.5 -32l-5 14q73 23 135 57.5t100 72.5h18q26 -43 57 -76.5t82 -53.5l-4 -14q-68 13 -104.5 31t-72.5 37z" glyph-name="Icircumflex" horiz-adv-x="341" unicode="Î"/>
<glyph d="M166 106q-14 -55 -3 -69.5t62 -16.5l-4 -20q-23 2 -57.5 2.5t-69.5 0.5q-39 0 -72 -0.5t-55 -2.5l5 20q33 2 51.5 8t29.5 24t20 54l132 496q14 55 2.5 69.5t-61.5 16.5l5 20q20 -1 54 -2t73 -1q35 0 69.5 1t58.5 2l-5 -20q-34 -1 -53 -7.5t-29.5 -24t-20.5 -54.5z M145 823q0 23 20 44t47 21q21 0 35.5 -14.5t14.5 -35.5q0 -25 -20 -45.5t-47 -20.5q-22 0 -36 14.5t-14 36.5zM357 823q0 23 20 44t47 21q21 0 35.5 -14.5t14.5 -35.5q0 -25 -20 -45.5t-47 -20.5q-22 0 -36 14.5t-14 36.5z" glyph-name="Idieresis" horiz-adv-x="341" unicode="Ï"/>
<glyph d="M704 487q0 -75 -22.5 -146.5t-65 -133t-101 -108t-130.5 -73t-155 -26.5q-22 0 -65 1.5t-75 1.5q-23 0 -46 -0.5t-42 -1t-32 -1.5l3 20q32 2 50.5 8t29.5 24t20 54l131 496q13 50 5.5 67.5t-63.5 18.5l3 20q14 -1 34 -2t43 -1h45q23 1 51 1.5t54.5 1t45.5 0.5 q142 0 212 -56.5t70 -164.5zM218 18q96 0 169 40t122 109.5t74 158.5t25 186q0 89 -50 133.5t-164 44.5q-30 0 -48 -7t-29 -25.5t-20 -53.5l-131 -500q-12 -44 -6.5 -65t58.5 -21zM438 366l-6 -25h-412l6 25h412z" glyph-name="Eth" horiz-adv-x="725" unicode="Ð"/>
<glyph d="M499 -5l-233 658l-3.5 -7.5t-8 -18t-8 -18l-3.5 -7.5q8 37 5.5 54.5t-20 24t-56.5 7.5l5 20q16 -1 39.5 -2t49.5 -1q47 0 81 3l192 -562l-2 -15.5t-4.5 -37.5t-5 -44.5t-4.5 -38l-2 -15.5h-22zM804 733q-28 -1 -47.5 -14.5t-34.5 -36.5q-46 -68 -94 -239t-107 -448 l-14 28q18 84 40.5 182.5t47.5 193.5t52.5 172t56.5 119q19 27 45 45.5t63 18.5q35 0 47.5 -15.5t12.5 -35.5q0 -25 -15 -48.5t-44 -23.5q-22 0 -30 13t-8 26q0 17 9.5 34t22.5 29h-1.5h-1.5zM-4 -53q27 1 47.5 14.5t35.5 37.5q29 46 58.5 144t60 237t61.5 305l17 -21 q-20 -102 -42 -208t-45.5 -201t-47 -165.5t-46.5 -100.5q-18 -24 -42.5 -43.5t-64.5 -19.5q-35 0 -47.5 15.5t-12.5 36.5q0 25 15 48t44 23q23 0 30.5 -13t7.5 -26q0 -17 -9.5 -34t-22.5 -29h1.5h1.5zM473 895q34 0 56 -11t38.5 -25.5t34.5 -25.5t44 -11q18 0 35.5 13.5 t34.5 44.5l18 -5q-23 -55 -59 -79t-71 -24q-34 0 -56 11t-38.5 25.5t-34.5 25.5t-44 11q-18 0 -35.5 -13t-34.5 -45l-18 5q23 56 59 79.5t71 23.5z" glyph-name="Ntilde" horiz-adv-x="770" unicode="Ñ"/>
<glyph d="M462 704q-58 0 -112 -42t-97 -113t-68 -158.5t-25 -177.5q0 -98 38.5 -153.5t99.5 -55.5q58 0 112 42t97 113t68 158.5t25 177.5q0 98 -38.5 153.5t-99.5 55.5zM54 226q0 66 19 136t55 134t87.5 115t115.5 81t140 30q111 0 173.5 -62.5t62.5 -178.5q0 -66 -19.5 -135.5 t-55.5 -133.5t-87.5 -115t-116 -81t-139.5 -30q-111 0 -173 62.5t-62 177.5zM495 769q-40 33 -69.5 54t-51 36t-37.5 30q-10 11 -17 27.5t5 31.5q13 15 33 9t33 -20q15 -15 29 -37t34 -51.5t51 -69.5z" glyph-name="Ograve" horiz-adv-x="729" unicode="Ò"/>
<glyph d="M462 704q-58 0 -112 -42t-97 -113t-68 -158.5t-25 -177.5q0 -98 38.5 -153.5t99.5 -55.5q58 0 112 42t97 113t68 158.5t25 177.5q0 98 -38.5 153.5t-99.5 55.5zM54 226q0 66 19 136t55 134t87.5 115t115.5 81t140 30q111 0 173.5 -62.5t62.5 -178.5q0 -66 -19.5 -135.5 t-55.5 -133.5t-87.5 -115t-116 -81t-139.5 -30q-111 0 -173 62.5t-62 177.5zM451 783q53 36 87.5 62.5t60 46t48.5 33.5q15 9 36.5 11.5t29.5 -16.5q7 -16 -5.5 -31t-27.5 -23q-34 -20 -85.5 -36.5t-136.5 -57.5z" glyph-name="Oacute" horiz-adv-x="729" unicode="Ó"/>
<glyph d="M462 704q-58 0 -112 -42t-97 -113t-68 -158.5t-25 -177.5q0 -98 38.5 -153.5t99.5 -55.5q58 0 112 42t97 113t68 158.5t25 177.5q0 98 -38.5 153.5t-99.5 55.5zM54 226q0 66 19 136t55 134t87.5 115t115.5 81t140 30q111 0 173.5 -62.5t62.5 -178.5q0 -66 -19.5 -135.5 t-55.5 -133.5t-87.5 -115t-116 -81t-139.5 -30q-111 0 -173 62.5t-62 177.5zM477 840q-39 -16 -95.5 -36t-110.5 -32l-5 14q73 23 135 57.5t100 72.5h18q26 -43 57 -76.5t82 -53.5l-4 -14q-68 13 -104.5 31t-72.5 37z" glyph-name="Ocircumflex" horiz-adv-x="729" unicode="Ô"/>
<glyph d="M462 704q-58 0 -112 -42t-97 -113t-68 -158.5t-25 -177.5q0 -98 38.5 -153.5t99.5 -55.5q58 0 112 42t97 113t68 158.5t25 177.5q0 98 -38.5 153.5t-99.5 55.5zM54 226q0 66 19 136t55 134t87.5 115t115.5 81t140 30q111 0 173.5 -62.5t62.5 -178.5q0 -66 -19.5 -135.5 t-55.5 -133.5t-87.5 -115t-116 -81t-139.5 -30q-111 0 -173 62.5t-62 177.5zM428 895q34 0 56 -11t38.5 -25.5t34.5 -25.5t44 -11q18 0 35.5 13.5t34.5 44.5l18 -5q-23 -55 -59 -79t-71 -24q-34 0 -56 11t-38.5 25.5t-34.5 25.5t-44 11q-18 0 -35.5 -13t-34.5 -45l-18 5 q23 56 59 79.5t71 23.5z" glyph-name="Otilde" horiz-adv-x="729" unicode="Õ"/>
<glyph d="M462 704q-58 0 -112 -42t-97 -113t-68 -158.5t-25 -177.5q0 -98 38.5 -153.5t99.5 -55.5q58 0 112 42t97 113t68 158.5t25 177.5q0 98 -38.5 153.5t-99.5 55.5zM54 226q0 66 19 136t55 134t87.5 115t115.5 81t140 30q111 0 173.5 -62.5t62.5 -178.5q0 -66 -19.5 -135.5 t-55.5 -133.5t-87.5 -115t-116 -81t-139.5 -30q-111 0 -173 62.5t-62 177.5zM326 823q0 23 20 44t47 21q21 0 35.5 -14.5t14.5 -35.5q0 -25 -20 -45.5t-47 -20.5q-22 0 -36 14.5t-14 36.5zM538 823q0 23 20 44t47 21q21 0 35.5 -14.5t14.5 -35.5q0 -25 -20 -45.5t-47 -20.5 q-22 0 -36 14.5t-14 36.5z" glyph-name="Odieresis" horiz-adv-x="729" unicode="Ö"/>
<glyph d="M27 182l223 173l-125 175l26 18l123 -175l227 177l16 -22l-227 -176l125 -173l-25 -18l-124 173l-224 -174z" glyph-name="multiply" horiz-adv-x="513" unicode="×"/>
<glyph d="M462 704q-58 0 -112 -42t-97 -113t-68 -158.5t-25 -177.5q0 -98 38.5 -153.5t99.5 -55.5q58 0 112 42t97 113t68 158.5t25 177.5q0 98 -38.5 153.5t-99.5 55.5zM54 226q0 66 19 136t55 134t87.5 115t115.5 81t140 30q111 0 173.5 -62.5t62.5 -178.5q0 -66 -19.5 -135.5 t-55.5 -133.5t-87.5 -115t-116 -81t-139.5 -30q-111 0 -173 62.5t-62 177.5zM637 632l135 141l15 -13l-140 -148zM138 77l-141 -150l-17 14l145 154zM133 95l497 537l10 -20l-494 -535z" glyph-name="Oslash" horiz-adv-x="729" unicode="Ø"/>
<glyph d="M631 592q10 37 6 57t-21.5 29t-51.5 10l5 20q17 -1 46.5 -2t54.5 -1q26 0 51.5 1t42.5 2l-5 -20q-34 -1 -54 -10t-31.5 -29t-20.5 -57l-78 -301q-36 -138 -98 -212q-36 -42 -89.5 -67.5t-115.5 -25.5q-49 0 -88.5 12.5t-65.5 41.5q-36 41 -35 99t25 149l83 314 q14 55 2.5 69.5t-61.5 16.5l6 20q20 -1 55 -2t74 -1q35 0 68 1t57 2l-6 -20q-34 -1 -53 -7.5t-29.5 -24t-20.5 -54.5l-88 -331q-18 -68 -21.5 -125t22 -91t95.5 -34q75 0 125 33.5t82 92.5t51 133zM505 769q-40 33 -69.5 54t-51 36t-37.5 30q-10 11 -17 27.5t5 31.5 q13 15 33 9t33 -20q15 -15 29 -37t34 -51.5t51 -69.5z" glyph-name="Ugrave" horiz-adv-x="682" unicode="Ù"/>
<glyph d="M631 592q10 37 6 57t-21.5 29t-51.5 10l5 20q17 -1 46.5 -2t54.5 -1q26 0 51.5 1t42.5 2l-5 -20q-34 -1 -54 -10t-31.5 -29t-20.5 -57l-78 -301q-36 -138 -98 -212q-36 -42 -89.5 -67.5t-115.5 -25.5q-49 0 -88.5 12.5t-65.5 41.5q-36 41 -35 99t25 149l83 314 q14 55 2.5 69.5t-61.5 16.5l6 20q20 -1 55 -2t74 -1q35 0 68 1t57 2l-6 -20q-34 -1 -53 -7.5t-29.5 -24t-20.5 -54.5l-88 -331q-18 -68 -21.5 -125t22 -91t95.5 -34q75 0 125 33.5t82 92.5t51 133zM461 783q53 36 87.5 62.5t60 46t48.5 33.5q15 9 36.5 11.5t29.5 -16.5 q7 -16 -5.5 -31t-27.5 -23q-34 -20 -85.5 -36.5t-136.5 -57.5z" glyph-name="Uacute" horiz-adv-x="682" unicode="Ú"/>
<glyph d="M631 592q10 37 6 57t-21.5 29t-51.5 10l5 20q17 -1 46.5 -2t54.5 -1q26 0 51.5 1t42.5 2l-5 -20q-34 -1 -54 -10t-31.5 -29t-20.5 -57l-78 -301q-36 -138 -98 -212q-36 -42 -89.5 -67.5t-115.5 -25.5q-49 0 -88.5 12.5t-65.5 41.5q-36 41 -35 99t25 149l83 314 q14 55 2.5 69.5t-61.5 16.5l6 20q20 -1 55 -2t74 -1q35 0 68 1t57 2l-6 -20q-34 -1 -53 -7.5t-29.5 -24t-20.5 -54.5l-88 -331q-18 -68 -21.5 -125t22 -91t95.5 -34q75 0 125 33.5t82 92.5t51 133zM487 840q-39 -16 -95.5 -36t-110.5 -32l-5 14q73 23 135 57.5t100 72.5h18 q26 -43 57 -76.5t82 -53.5l-4 -14q-68 13 -104.5 31t-72.5 37z" glyph-name="Ucircumflex" horiz-adv-x="682" unicode="Û"/>
<glyph d="M631 592q10 37 6 57t-21.5 29t-51.5 10l5 20q17 -1 46.5 -2t54.5 -1q26 0 51.5 1t42.5 2l-5 -20q-34 -1 -54 -10t-31.5 -29t-20.5 -57l-78 -301q-36 -138 -98 -212q-36 -42 -89.5 -67.5t-115.5 -25.5q-49 0 -88.5 12.5t-65.5 41.5q-36 41 -35 99t25 149l83 314 q14 55 2.5 69.5t-61.5 16.5l6 20q20 -1 55 -2t74 -1q35 0 68 1t57 2l-6 -20q-34 -1 -53 -7.5t-29.5 -24t-20.5 -54.5l-88 -331q-18 -68 -21.5 -125t22 -91t95.5 -34q75 0 125 33.5t82 92.5t51 133zM336 823q0 23 20 44t47 21q21 0 35.5 -14.5t14.5 -35.5q0 -25 -20 -45.5 t-47 -20.5q-22 0 -36 14.5t-14 36.5zM548 823q0 23 20 44t47 21q21 0 35.5 -14.5t14.5 -35.5q0 -25 -20 -45.5t-47 -20.5q-22 0 -36 14.5t-14 36.5z" glyph-name="Udieresis" horiz-adv-x="682" unicode="Ü"/>
<glyph d="M346 106q-13 -55 -2.5 -69.5t61.5 -16.5l-5 -20q-15 1 -35 1.5t-43 1t-46 0.5q-39 0 -74 -0.5t-57 -2.5l5 20q34 2 53 8t30 24t20 54l69 274l35 -63l33 19l34 80zM688 701q-16 -1 -29.5 -7t-25.5 -15q-33 -24 -76 -74.5t-89 -132.5t-90 -202l-59 -5q-4 46 -10.5 100 t-15.5 107t-22.5 97.5t-32 71t-43.5 26.5q-17 0 -28.5 -10.5t-19.5 -36.5l-28 -82h-11h-11l33 97q15 44 35 65.5t63 21.5q55 0 87 -44.5t50 -126t30 -191.5q38 96 86.5 170.5t100.5 126.5q23 23 54.5 44t63.5 21q34 0 46 -18.5t10 -40.5q-1 -20 -15.5 -42t-43.5 -22 q-23 0 -31 13.5t-7 29.5t10 31.5t22 27.5h-1.5h-1.5zM457 783q53 36 87.5 62.5t60 46t48.5 33.5q15 9 36.5 11.5t29.5 -16.5q7 -16 -5.5 -31t-27.5 -23q-34 -20 -85.5 -36.5t-136.5 -57.5z" glyph-name="Yacute" horiz-adv-x="670" unicode="Ý"/>
<glyph d="M250 573q36 0 72.5 1t73.5 1q101 0 150 -41.5t49 -109.5q0 -78 -47.5 -139.5t-132.5 -97t-197 -35.5h-40l2.5 10l2.5 10h45q99 0 157.5 36t83.5 97t25 135q0 59 -29.5 87.5t-97.5 28.5q-29 0 -46.5 -1t-32 -2t-37.5 -3zM166 106q-14 -55 -3 -69.5t62 -16.5l-4 -20 q-23 2 -57.5 2.5t-69.5 0.5q-39 0 -72 -0.5t-55 -2.5l5 20q33 2 51.5 8t29.5 24t20 54l132 496q14 55 2.5 69.5t-61.5 16.5l5 20q20 -1 54 -2t73 -1q35 0 69.5 1t58.5 2l-5 -20q-34 -1 -53 -7.5t-29.5 -24t-20.5 -54.5z" glyph-name="Thorn" horiz-adv-x="605" unicode="Þ"/>
<glyph d="M366 767q-43 0 -70.5 -40.5t-53.5 -137.5l-201 -763q-24 -1 -47 -4t-43 -10l182 695q24 89 53.5 150.5t75.5 93t119 31.5q75 0 105.5 -31t30.5 -70q0 -37 -21 -69t-51.5 -60.5t-59.5 -56.5q-16 -15 -25 -33t-9 -42q0 -27 10 -48.5t25.5 -41t30.5 -40.5q26 -34 42.5 -69.5 t16.5 -75.5q0 -48 -24.5 -83.5t-65 -55.5t-89.5 -20q-31 0 -60.5 9t-48.5 28t-19 49q0 23 11.5 35.5t27.5 12.5q18 0 27.5 -12t12.5 -28t3 -28q0 -11 -2 -20l-4 -18q8 -3 17.5 -5.5t24.5 -2.5q45 0 75 27.5t30 76.5q0 28 -11.5 61.5t-40.5 69.5q-19 25 -42 55.5t-23 72.5 q0 33 15.5 54.5t39 40.5t46.5 43q29 31 46.5 69.5t17.5 84.5q0 55 -21 80.5t-53 25.5z" glyph-name="germandbls" horiz-adv-x="547" unicode="ß"/>
<glyph d="M132 18q24 0 55 30.5t63 82.5t59 118t43 137l-17 -108q-57 -160 -114.5 -226t-117.5 -66q-47 0 -70.5 34t-23.5 87q0 48 16 104.5t44.5 112.5t65.5 102t80.5 74t88.5 28q35 0 53.5 -34.5t7.5 -96.5l-11 -6q7 53 -7 85.5t-46 32.5q-33 0 -68.5 -39t-66.5 -101.5t-50 -135 t-19 -138.5q0 -43 9.5 -60t25.5 -17zM384 514q24 1 48 4t44 10l-125 -442q-2 -9 -5.5 -23.5t0 -26.5t20.5 -12q20 0 39 22t38 80l12 37h19l-25 -73q-22 -60 -54 -82t-61 -22q-39 0 -55 26q-13 23 -7 53.5t14 61.5zM353 599q-35 50 -62 82.5t-47 56.5t-34 46 q-13 23 -9.5 38.5t15.5 21.5q14 6 30 0.5t29 -28.5q13 -22 23.5 -50.5t26 -67t41.5 -93.5z" glyph-name="agrave" horiz-adv-x="523" unicode="à"/>
<glyph d="M132 18q24 0 55 30.5t63 82.5t59 118t43 137l-17 -108q-57 -160 -114.5 -226t-117.5 -66q-47 0 -70.5 34t-23.5 87q0 48 16 104.5t44.5 112.5t65.5 102t80.5 74t88.5 28q35 0 53.5 -34.5t7.5 -96.5l-11 -6q7 53 -7 85.5t-46 32.5q-33 0 -68.5 -39t-66.5 -101.5t-50 -135 t-19 -138.5q0 -43 9.5 -60t25.5 -17zM384 514q24 1 48 4t44 10l-125 -442q-2 -9 -5.5 -23.5t0 -26.5t20.5 -12q20 0 39 22t38 80l12 37h19l-25 -73q-22 -60 -54 -82t-61 -22q-39 0 -55 26q-13 23 -7 53.5t14 61.5zM294 608q41 49 67 84t45 61t38 45q17 20 34 22t29 -7 q10 -10 7.5 -26t-22.5 -36q-18 -19 -44 -38t-61.5 -45.5t-82.5 -68.5z" glyph-name="aacute" horiz-adv-x="523" unicode="á"/>
<glyph d="M132 18q24 0 55 30.5t63 82.5t59 118t43 137l-17 -108q-57 -160 -114.5 -226t-117.5 -66q-47 0 -70.5 34t-23.5 87q0 48 16 104.5t44.5 112.5t65.5 102t80.5 74t88.5 28q35 0 53.5 -34.5t7.5 -96.5l-11 -6q7 53 -7 85.5t-46 32.5q-33 0 -68.5 -39t-66.5 -101.5t-50 -135 t-19 -138.5q0 -43 9.5 -60t25.5 -17zM384 514q24 1 48 4t44 10l-125 -442q-2 -9 -5.5 -23.5t0 -26.5t20.5 -12q20 0 39 22t38 80l12 37h19l-25 -73q-22 -60 -54 -82t-61 -22q-39 0 -55 26q-13 23 -7 53.5t14 61.5zM346 720q-34 -27 -80.5 -55.5t-94.5 -48.5l-5 14 q67 29 123.5 75.5t91.5 96.5h18q11 -61 37.5 -102t81.5 -70l-4 -14q-62 17 -99.5 43.5t-68.5 60.5z" glyph-name="acircumflex" horiz-adv-x="523" unicode="â"/>
<glyph d="M132 18q24 0 55 30.5t63 82.5t59 118t43 137l-17 -108q-57 -160 -114.5 -226t-117.5 -66q-47 0 -70.5 34t-23.5 87q0 48 16 104.5t44.5 112.5t65.5 102t80.5 74t88.5 28q35 0 53.5 -34.5t7.5 -96.5l-11 -6q7 53 -7 85.5t-46 32.5q-33 0 -68.5 -39t-66.5 -101.5t-50 -135 t-19 -138.5q0 -43 9.5 -60t25.5 -17zM384 514q24 1 48 4t44 10l-125 -442q-2 -9 -5.5 -23.5t0 -26.5t20.5 -12q20 0 39 22t38 80l12 37h19l-25 -73q-22 -60 -54 -82t-61 -22q-39 0 -55 26q-13 23 -7 53.5t14 61.5zM309 768q30 0 49.5 -11t34.5 -25.5t30.5 -25.5t38.5 -11 q18 0 35.5 13.5t34.5 44.5l18 -5q-23 -55 -59 -79t-71 -24q-30 0 -49.5 11t-34.5 25.5t-30.5 25.5t-38.5 11q-18 0 -35.5 -13t-34.5 -45l-18 5q23 56 59 79.5t71 23.5z" glyph-name="atilde" horiz-adv-x="523" unicode="ã"/>
<glyph d="M132 18q24 0 55 30.5t63 82.5t59 118t43 137l-17 -108q-57 -160 -114.5 -226t-117.5 -66q-47 0 -70.5 34t-23.5 87q0 48 16 104.5t44.5 112.5t65.5 102t80.5 74t88.5 28q35 0 53.5 -34.5t7.5 -96.5l-11 -6q7 53 -7 85.5t-46 32.5q-33 0 -68.5 -39t-66.5 -101.5t-50 -135 t-19 -138.5q0 -43 9.5 -60t25.5 -17zM384 514q24 1 48 4t44 10l-125 -442q-2 -9 -5.5 -23.5t0 -26.5t20.5 -12q20 0 39 22t38 80l12 37h19l-25 -73q-22 -60 -54 -82t-61 -22q-39 0 -55 26q-13 23 -7 53.5t14 61.5zM209 678q0 23 20 44t47 21q21 0 35.5 -14.5t14.5 -35.5 q0 -25 -20 -45.5t-47 -20.5q-22 0 -36 14.5t-14 36.5zM421 678q0 23 20 44t47 21q21 0 35.5 -14.5t14.5 -35.5q0 -25 -20 -45.5t-47 -20.5q-22 0 -36 14.5t-14 36.5z" glyph-name="adieresis" horiz-adv-x="523" unicode="ä"/>
<glyph d="M132 18q24 0 55 30.5t63 82.5t59 118t43 137l-17 -108q-57 -160 -114.5 -226t-117.5 -66q-47 0 -70.5 34t-23.5 87q0 48 16 104.5t44.5 112.5t65.5 102t80.5 74t88.5 28q35 0 53.5 -34.5t7.5 -96.5l-11 -6q7 53 -7 85.5t-46 32.5q-33 0 -68.5 -39t-66.5 -101.5t-50 -135 t-19 -138.5q0 -43 9.5 -60t25.5 -17zM384 514q24 1 48 4t44 10l-125 -442q-2 -9 -5.5 -23.5t0 -26.5t20.5 -12q20 0 39 22t38 80l12 37h19l-25 -73q-22 -60 -54 -82t-61 -22q-39 0 -55 26q-13 23 -7 53.5t14 61.5zM391 791q36 0 61 -21.5t25 -58.5q0 -28 -15.5 -51.5 t-41 -37.5t-55.5 -14q-35 0 -59 21.5t-24 58.5q0 44 32 73.5t77 29.5zM369 629q32 0 57 23.5t25 59.5q0 29 -20.5 43.5t-43.5 14.5q-31 0 -55 -24.5t-24 -56.5q0 -30 19.5 -45t41.5 -15z" glyph-name="aring" horiz-adv-x="523" unicode="å"/>
<glyph d="M313 227q56 19 101.5 37.5t72.5 39.5q36 29 57 70t21 90q0 45 -36 45q-28 0 -61.5 -33.5t-63.5 -90t-49.5 -124.5t-19.5 -137q0 -51 19 -73.5t50 -22.5q36 0 74 22t76 78l20 -8q-19 -33 -50 -64t-69.5 -50.5t-81.5 -19.5q-61 0 -96.5 35.5t-35.5 105.5q0 43 15 96.5 t43 107t66 98.5t85.5 72t100.5 27q40 0 67 -19t27 -57q0 -39 -23.5 -72t-62 -60t-83.5 -48.5t-88 -36.5t-76 -25zM135 18q30 0 71 33.5t72 118.5l9 -13q-30 -83 -76.5 -127t-107.5 -44q-52 0 -76 31t-24 80q0 52 21 110.5t56.5 113.5t81.5 99.5t96.5 71t99.5 26.5 q21 0 43.5 -12t32.5 -46l-12 -9q-11 32 -30 39t-27 7q-40 0 -87 -34.5t-89.5 -93t-70 -132t-27.5 -152.5q0 -30 10.5 -48.5t33.5 -18.5z" glyph-name="ae" horiz-adv-x="659" unicode="æ"/>
<glyph d="M323 508q-38 0 -75.5 -31t-68.5 -85t-49.5 -123t-18.5 -145q0 -51 19.5 -73.5t50.5 -22.5q36 0 74 22t76 78l20 -8q-19 -33 -50 -64t-69.5 -50.5t-81.5 -19.5q-60 0 -96 37t-36 110q0 58 21 126t60 129.5t95 100.5t126 39q44 0 76 -22.5t32 -62.5q0 -19 -8.5 -37.5 t-24.5 -30.5t-38 -12q-21 0 -31 11.5t-10 27.5q0 29 23 49.5t52 25.5q-10 14 -26 22.5t-42 8.5zM157 0l-34 -72q8 3 19.5 5t21.5 2q20 0 31.5 -10.5t11.5 -29.5q0 -29 -20 -47.5t-48.5 -27t-54.5 -8.5q-28 0 -49 7t-31 15l7 15q7 -3 21 -8t39 -5q11 0 28 4.5t30.5 15.5 t13.5 31q0 24 -28 24q-5 0 -14 -1.5t-17 -5.5l46 96h27z" glyph-name="ccedilla" horiz-adv-x="432" unicode="ç"/>
<glyph d="M84 227q56 19 101.5 37.5t72.5 39.5q36 29 57 70t21 90q0 29 -4 37t-12 8q-31 0 -68 -33.5t-70 -90t-54.5 -124.5t-21.5 -137q0 -51 19 -73.5t50 -22.5q36 0 76 22t78 78l16 -8q-19 -33 -50 -64t-69.5 -50.5t-81.5 -19.5q-61 0 -96.5 35.5t-35.5 105.5q0 43 16 96.5 t45.5 107t70.5 98.5t91 72t107 27q31 0 52.5 -16.5t21.5 -49.5q0 -40 -23.5 -74.5t-62 -63t-83.5 -50.5t-88 -38t-76 -26zM328 599q-35 50 -62 82.5t-47 56.5t-34 46q-13 23 -9.5 38.5t15.5 21.5q14 6 30 0.5t29 -28.5q13 -22 23.5 -50.5t26 -67t41.5 -93.5z" glyph-name="egrave" horiz-adv-x="429" unicode="è"/>
<glyph d="M84 227q56 19 101.5 37.5t72.5 39.5q36 29 57 70t21 90q0 29 -4 37t-12 8q-31 0 -68 -33.5t-70 -90t-54.5 -124.5t-21.5 -137q0 -51 19 -73.5t50 -22.5q36 0 76 22t78 78l16 -8q-19 -33 -50 -64t-69.5 -50.5t-81.5 -19.5q-61 0 -96.5 35.5t-35.5 105.5q0 43 16 96.5 t45.5 107t70.5 98.5t91 72t107 27q31 0 52.5 -16.5t21.5 -49.5q0 -40 -23.5 -74.5t-62 -63t-83.5 -50.5t-88 -38t-76 -26zM269 608q41 49 67 84t45 61t38 45q17 20 34 22t29 -7q10 -10 7.5 -26t-22.5 -36q-18 -19 -44 -38t-61.5 -45.5t-82.5 -68.5z" glyph-name="eacute" horiz-adv-x="429" unicode="é"/>
<glyph d="M84 227q56 19 101.5 37.5t72.5 39.5q36 29 57 70t21 90q0 29 -4 37t-12 8q-31 0 -68 -33.5t-70 -90t-54.5 -124.5t-21.5 -137q0 -51 19 -73.5t50 -22.5q36 0 76 22t78 78l16 -8q-19 -33 -50 -64t-69.5 -50.5t-81.5 -19.5q-61 0 -96.5 35.5t-35.5 105.5q0 43 16 96.5 t45.5 107t70.5 98.5t91 72t107 27q31 0 52.5 -16.5t21.5 -49.5q0 -40 -23.5 -74.5t-62 -63t-83.5 -50.5t-88 -38t-76 -26zM321 720q-34 -27 -80.5 -55.5t-94.5 -48.5l-5 14q67 29 123.5 75.5t91.5 96.5h18q11 -61 37.5 -102t81.5 -70l-4 -14q-62 17 -99.5 43.5t-68.5 60.5z " glyph-name="ecircumflex" horiz-adv-x="429" unicode="ê"/>
<glyph d="M84 227q56 19 101.5 37.5t72.5 39.5q36 29 57 70t21 90q0 29 -4 37t-12 8q-31 0 -68 -33.5t-70 -90t-54.5 -124.5t-21.5 -137q0 -51 19 -73.5t50 -22.5q36 0 76 22t78 78l16 -8q-19 -33 -50 -64t-69.5 -50.5t-81.5 -19.5q-61 0 -96.5 35.5t-35.5 105.5q0 43 16 96.5 t45.5 107t70.5 98.5t91 72t107 27q31 0 52.5 -16.5t21.5 -49.5q0 -40 -23.5 -74.5t-62 -63t-83.5 -50.5t-88 -38t-76 -26zM184 678q0 23 20 44t47 21q21 0 35.5 -14.5t14.5 -35.5q0 -25 -20 -45.5t-47 -20.5q-22 0 -36 14.5t-14 36.5zM396 678q0 23 20 44t47 21 q21 0 35.5 -14.5t14.5 -35.5q0 -25 -20 -45.5t-47 -20.5q-22 0 -36 14.5t-14 36.5z" glyph-name="edieresis" horiz-adv-x="429" unicode="ë"/>
<glyph d="M158 429q21 62 -14 62q-23 0 -41 -25t-38 -77l-14 -37h-19l26 73q23 63 58 83t66 20q43 0 56.5 -22t9 -54.5t-15.5 -63.5l-107 -303q-10 -29 -6.5 -45.5t22.5 -16.5q20 0 38 22t40 80l14 37h19l-26 -73q-21 -58 -54.5 -80.5t-68.5 -22.5q-43 0 -58 20t-11 52t17 68z M222 599q-35 50 -62 82.5t-47 56.5t-34 46q-13 23 -9.5 38.5t15.5 21.5q14 6 30 0.5t29 -28.5q13 -22 23.5 -50.5t26 -67t41.5 -93.5z" glyph-name="igrave" horiz-adv-x="302" unicode="ì"/>
<glyph d="M158 429q21 62 -14 62q-23 0 -41 -25t-38 -77l-14 -37h-19l26 73q23 63 58 83t66 20q43 0 56.5 -22t9 -54.5t-15.5 -63.5l-107 -303q-10 -29 -6.5 -45.5t22.5 -16.5q20 0 38 22t40 80l14 37h19l-26 -73q-21 -58 -54.5 -80.5t-68.5 -22.5q-43 0 -58 20t-11 52t17 68z M163 608q41 49 67 84t45 61t38 45q17 20 34 22t29 -7q10 -10 7.5 -26t-22.5 -36q-18 -19 -44 -38t-61.5 -45.5t-82.5 -68.5z" glyph-name="iacute" horiz-adv-x="302" unicode="í"/>
<glyph d="M158 429q21 62 -14 62q-23 0 -41 -25t-38 -77l-14 -37h-19l26 73q23 63 58 83t66 20q43 0 56.5 -22t9 -54.5t-15.5 -63.5l-107 -303q-10 -29 -6.5 -45.5t22.5 -16.5q20 0 38 22t40 80l14 37h19l-26 -73q-21 -58 -54.5 -80.5t-68.5 -22.5q-43 0 -58 20t-11 52t17 68z M215 720q-34 -27 -80.5 -55.5t-94.5 -48.5l-5 14q67 29 123.5 75.5t91.5 96.5h18q11 -61 37.5 -102t81.5 -70l-4 -14q-62 17 -99.5 43.5t-68.5 60.5z" glyph-name="icircumflex" horiz-adv-x="302" unicode="î"/>
<glyph d="M158 429q21 62 -14 62q-23 0 -41 -25t-38 -77l-14 -37h-19l26 73q23 63 58 83t66 20q43 0 56.5 -22t9 -54.5t-15.5 -63.5l-107 -303q-10 -29 -6.5 -45.5t22.5 -16.5q20 0 38 22t40 80l14 37h19l-26 -73q-21 -58 -54.5 -80.5t-68.5 -22.5q-43 0 -58 20t-11 52t17 68z M78 678q0 23 20 44t47 21q21 0 35.5 -14.5t14.5 -35.5q0 -25 -20 -45.5t-47 -20.5q-22 0 -36 14.5t-14 36.5zM290 678q0 23 20 44t47 21q21 0 35.5 -14.5t14.5 -35.5q0 -25 -20 -45.5t-47 -20.5q-22 0 -36 14.5t-14 36.5z" glyph-name="idieresis" horiz-adv-x="302" unicode="ï"/>
<glyph d="M319 684l172 76l6 -18l-164 -72zM333 669l-219 -97l-6 18l211 93zM361 421q0 101 -27 167t-71.5 108t-97.5 69l12 17q80 -30 141 -81t95 -127t34 -180q0 -64 -19 -135t-55.5 -133t-90.5 -101t-124 -39q-41 0 -72 17t-48 52t-17 88q0 55 18.5 121.5t54.5 126.5t88 98.5 t119 38.5q32 0 48 -11.5t26 -22.5l-7 -12q-10 13 -25.5 19.5t-41.5 6.5q-31 0 -60 -25.5t-53.5 -69t-42.5 -97.5t-28 -112t-10 -111q0 -45 14.5 -66t42.5 -21q41 0 76.5 39t62.5 101.5t42.5 135t15.5 139.5z" glyph-name="eth" horiz-adv-x="487" unicode="ð"/>
<glyph d="M122 0h-87l120 429q4 12 6.5 26.5t-1.5 25t-20 10.5q-22 0 -39 -21.5t-38 -80.5l-13 -37h-19l25 73q22 63 54.5 83t64.5 20q40 0 51.5 -22t6.5 -54t-13 -64zM168 208q35 90 68 151t65 98.5t65.5 54t69.5 16.5q47 0 64.5 -22.5t15.5 -57t-14 -71.5l-97 -292 q-9 -27 -7.5 -44.5t23.5 -17.5q19 0 37.5 21t39.5 81l13 37h19l-25 -73q-22 -63 -56 -83t-65 -20q-45 0 -63 29q-11 18 -7 47t16 64l95 286q5 14 8.5 33.5t-1.5 35t-29 15.5q-30 0 -64.5 -32.5t-70.5 -90.5t-69.5 -136t-59.5 -169zM321 768q30 0 49.5 -11t34.5 -25.5 t30.5 -25.5t38.5 -11q18 0 35.5 13.5t34.5 44.5l18 -5q-23 -55 -59 -79t-71 -24q-30 0 -49.5 11t-34.5 25.5t-30.5 25.5t-38.5 11q-18 0 -35.5 -13t-34.5 -45l-18 5q23 56 59 79.5t71 23.5z" glyph-name="ntilde" horiz-adv-x="580" unicode="ñ"/>
<glyph d="M304 508q-32 0 -61.5 -25.5t-54 -69t-43 -97.5t-28.5 -112t-10 -111q0 -45 14.5 -66t42.5 -21q32 0 61.5 25.5t54.5 69t43 97.5t28 111.5t10 111.5q0 46 -14 66.5t-43 20.5zM21 143q0 55 19 121.5t55.5 126.5t90.5 98.5t124 38.5q62 0 99.5 -38.5t37.5 -118.5 q0 -55 -19 -121.5t-55.5 -126.5t-90.5 -98.5t-124 -38.5q-62 0 -99.5 39t-37.5 118zM348 599q-35 50 -62 82.5t-47 56.5t-34 46q-13 23 -9.5 38.5t15.5 21.5q14 6 30 0.5t29 -28.5q13 -22 23.5 -50.5t26 -67t41.5 -93.5z" glyph-name="ograve" horiz-adv-x="488" unicode="ò"/>
<glyph d="M304 508q-32 0 -61.5 -25.5t-54 -69t-43 -97.5t-28.5 -112t-10 -111q0 -45 14.5 -66t42.5 -21q32 0 61.5 25.5t54.5 69t43 97.5t28 111.5t10 111.5q0 46 -14 66.5t-43 20.5zM21 143q0 55 19 121.5t55.5 126.5t90.5 98.5t124 38.5q62 0 99.5 -38.5t37.5 -118.5 q0 -55 -19 -121.5t-55.5 -126.5t-90.5 -98.5t-124 -38.5q-62 0 -99.5 39t-37.5 118zM289 608q41 49 67 84t45 61t38 45q17 20 34 22t29 -7q10 -10 7.5 -26t-22.5 -36q-18 -19 -44 -38t-61.5 -45.5t-82.5 -68.5z" glyph-name="oacute" horiz-adv-x="488" unicode="ó"/>
<glyph d="M304 508q-32 0 -61.5 -25.5t-54 -69t-43 -97.5t-28.5 -112t-10 -111q0 -45 14.5 -66t42.5 -21q32 0 61.5 25.5t54.5 69t43 97.5t28 111.5t10 111.5q0 46 -14 66.5t-43 20.5zM21 143q0 55 19 121.5t55.5 126.5t90.5 98.5t124 38.5q62 0 99.5 -38.5t37.5 -118.5 q0 -55 -19 -121.5t-55.5 -126.5t-90.5 -98.5t-124 -38.5q-62 0 -99.5 39t-37.5 118zM341 720q-34 -27 -80.5 -55.5t-94.5 -48.5l-5 14q67 29 123.5 75.5t91.5 96.5h18q11 -61 37.5 -102t81.5 -70l-4 -14q-62 17 -99.5 43.5t-68.5 60.5z" glyph-name="ocircumflex" horiz-adv-x="488" unicode="ô"/>
<glyph d="M304 508q-32 0 -61.5 -25.5t-54 -69t-43 -97.5t-28.5 -112t-10 -111q0 -45 14.5 -66t42.5 -21q32 0 61.5 25.5t54.5 69t43 97.5t28 111.5t10 111.5q0 46 -14 66.5t-43 20.5zM21 143q0 55 19 121.5t55.5 126.5t90.5 98.5t124 38.5q62 0 99.5 -38.5t37.5 -118.5 q0 -55 -19 -121.5t-55.5 -126.5t-90.5 -98.5t-124 -38.5q-62 0 -99.5 39t-37.5 118zM304 768q30 0 49.5 -11t34.5 -25.5t30.5 -25.5t38.5 -11q18 0 35.5 13.5t34.5 44.5l18 -5q-23 -55 -59 -79t-71 -24q-30 0 -49.5 11t-34.5 25.5t-30.5 25.5t-38.5 11q-18 0 -35.5 -13 t-34.5 -45l-18 5q23 56 59 79.5t71 23.5z" glyph-name="otilde" horiz-adv-x="488" unicode="õ"/>
<glyph d="M304 508q-32 0 -61.5 -25.5t-54 -69t-43 -97.5t-28.5 -112t-10 -111q0 -45 14.5 -66t42.5 -21q32 0 61.5 25.5t54.5 69t43 97.5t28 111.5t10 111.5q0 46 -14 66.5t-43 20.5zM21 143q0 55 19 121.5t55.5 126.5t90.5 98.5t124 38.5q62 0 99.5 -38.5t37.5 -118.5 q0 -55 -19 -121.5t-55.5 -126.5t-90.5 -98.5t-124 -38.5q-62 0 -99.5 39t-37.5 118zM204 678q0 23 20 44t47 21q21 0 35.5 -14.5t14.5 -35.5q0 -25 -20 -45.5t-47 -20.5q-22 0 -36 14.5t-14 36.5zM416 678q0 23 20 44t47 21q21 0 35.5 -14.5t14.5 -35.5q0 -25 -20 -45.5 t-47 -20.5q-22 0 -36 14.5t-14 36.5z" glyph-name="odieresis" horiz-adv-x="488" unicode="ö"/>
<glyph d="M334 499q7 23 28 39t43 16q23 0 35 -16t5 -39t-28 -39t-44 -16q-22 0 -34 16t-5 39zM251 211q7 23 28 39t43 16q23 0 35 -16t5 -39t-28 -39.5t-44 -16.5q-22 0 -34 16.5t-5 39.5zM87 340l9 30h501l-9 -30h-501z" glyph-name="divide" horiz-adv-x="657" unicode="÷"/>
<glyph d="M304 508q-32 0 -61.5 -25.5t-54 -69t-43 -97.5t-28.5 -112t-10 -111q0 -45 14.5 -66t42.5 -21q32 0 61.5 25.5t54.5 69t43 97.5t28 111.5t10 111.5q0 46 -14 66.5t-43 20.5zM21 143q0 55 19 121.5t55.5 126.5t90.5 98.5t124 38.5q62 0 99.5 -38.5t37.5 -118.5 q0 -55 -19 -121.5t-55.5 -126.5t-90.5 -98.5t-124 -38.5q-62 0 -99.5 39t-37.5 118zM388 463l102 123l13 -12l-105 -128zM388 446l-294 -383l-11 18l295 382zM84 63l-113 -136l-14 13l116 141z" glyph-name="oslash" horiz-adv-x="488" unicode="ø"/>
<glyph d="M397 346q-36 -100 -69 -169t-65.5 -111t-66 -61t-69.5 -19q-66 0 -79 43.5t9 107.5l97 292q10 30 7 46t-23 16q-19 0 -37.5 -21t-39.5 -81l-13 -37h-19l25 73q22 63 56 83t65 20q44 0 58.5 -20.5t11 -52.5t-15.5 -67l-95 -286q-28 -84 22 -84q30 0 64.5 33.5t69.5 94.5 t68 144.5t59 183.5zM394 85q-7 -27 -6.5 -44.5t20.5 -17.5q22 0 40.5 23.5t37.5 78.5l13 37h19l-25 -73q-22 -63 -56 -83t-65 -20q-16 0 -30 7t-21 20q-8 17 -5.5 43t13.5 70l98 388q25 1 48.5 4t42.5 10zM338 599q-35 50 -62 82.5t-47 56.5t-34 46q-13 23 -9.5 38.5 t15.5 21.5q14 6 30 0.5t29 -28.5q13 -22 23.5 -50.5t26 -67t41.5 -93.5z" glyph-name="ugrave" horiz-adv-x="567" unicode="ù"/>
<glyph d="M397 346q-36 -100 -69 -169t-65.5 -111t-66 -61t-69.5 -19q-66 0 -79 43.5t9 107.5l97 292q10 30 7 46t-23 16q-19 0 -37.5 -21t-39.5 -81l-13 -37h-19l25 73q22 63 56 83t65 20q44 0 58.5 -20.5t11 -52.5t-15.5 -67l-95 -286q-28 -84 22 -84q30 0 64.5 33.5t69.5 94.5 t68 144.5t59 183.5zM394 85q-7 -27 -6.5 -44.5t20.5 -17.5q22 0 40.5 23.5t37.5 78.5l13 37h19l-25 -73q-22 -63 -56 -83t-65 -20q-16 0 -30 7t-21 20q-8 17 -5.5 43t13.5 70l98 388q25 1 48.5 4t42.5 10zM279 608q41 49 67 84t45 61t38 45q17 20 34 22t29 -7 q10 -10 7.5 -26t-22.5 -36q-18 -19 -44 -38t-61.5 -45.5t-82.5 -68.5z" glyph-name="uacute" horiz-adv-x="567" unicode="ú"/>
<glyph d="M397 346q-36 -100 -69 -169t-65.5 -111t-66 -61t-69.5 -19q-66 0 -79 43.5t9 107.5l97 292q10 30 7 46t-23 16q-19 0 -37.5 -21t-39.5 -81l-13 -37h-19l25 73q22 63 56 83t65 20q44 0 58.5 -20.5t11 -52.5t-15.5 -67l-95 -286q-28 -84 22 -84q30 0 64.5 33.5t69.5 94.5 t68 144.5t59 183.5zM394 85q-7 -27 -6.5 -44.5t20.5 -17.5q22 0 40.5 23.5t37.5 78.5l13 37h19l-25 -73q-22 -63 -56 -83t-65 -20q-16 0 -30 7t-21 20q-8 17 -5.5 43t13.5 70l98 388q25 1 48.5 4t42.5 10zM331 720q-34 -27 -80.5 -55.5t-94.5 -48.5l-5 14q67 29 123.5 75.5 t91.5 96.5h18q11 -61 37.5 -102t81.5 -70l-4 -14q-62 17 -99.5 43.5t-68.5 60.5z" glyph-name="ucircumflex" horiz-adv-x="567" unicode="û"/>
<glyph d="M397 346q-36 -100 -69 -169t-65.5 -111t-66 -61t-69.5 -19q-66 0 -79 43.5t9 107.5l97 292q10 30 7 46t-23 16q-19 0 -37.5 -21t-39.5 -81l-13 -37h-19l25 73q22 63 56 83t65 20q44 0 58.5 -20.5t11 -52.5t-15.5 -67l-95 -286q-28 -84 22 -84q30 0 64.5 33.5t69.5 94.5 t68 144.5t59 183.5zM394 85q-7 -27 -6.5 -44.5t20.5 -17.5q22 0 40.5 23.5t37.5 78.5l13 37h19l-25 -73q-22 -63 -56 -83t-65 -20q-16 0 -30 7t-21 20q-8 17 -5.5 43t13.5 70l98 388q25 1 48.5 4t42.5 10zM194 678q0 23 20 44t47 21q21 0 35.5 -14.5t14.5 -35.5 q0 -25 -20 -45.5t-47 -20.5q-22 0 -36 14.5t-14 36.5zM406 678q0 23 20 44t47 21q21 0 35.5 -14.5t14.5 -35.5q0 -25 -20 -45.5t-47 -20.5q-22 0 -36 14.5t-14 36.5z" glyph-name="udieresis" horiz-adv-x="567" unicode="ü"/>
<glyph d="M283 40l-67 -73l-76 460q-5 31 -12 43t-20 12q-11 0 -25 -17.5t-34 -74.5l-13 -37h-19l25 73q21 61 52 81.5t63 20.5q31 0 48 -19.5t24 -72.5zM64 -141q43 23 91.5 62.5t100.5 106.5q59 75 107.5 168.5t67.5 188.5q-24 13 -51 37.5t-25 58.5q2 23 16 35t35 12 q27 0 39.5 -20.5t12.5 -60.5q0 -51 -17 -109.5t-45.5 -118.5t-63.5 -115.5t-71 -100.5q-16 -20 -44 -50t-66.5 -61.5t-86.5 -54.5q-30 -14 -51.5 -19.5t-35.5 -5.5q-20 0 -35 10.5t-15 30.5q0 22 16.5 33.5t37.5 11.5q23 0 43.5 -12t39.5 -27zM247 608q41 49 67 84t45 61 t38 45q17 20 34 22t29 -7q10 -10 7.5 -26t-22.5 -36q-18 -19 -44 -38t-61.5 -45.5t-82.5 -68.5z" glyph-name="yacute" horiz-adv-x="481" unicode="ý"/>
<glyph d="M380 496q-22 0 -50.5 -25t-57 -68t-53 -98t-39.5 -115l23 108q53 128 102 179t104 51q47 0 75.5 -35t28.5 -106q0 -45 -12.5 -99t-37 -107t-60 -97.5t-81.5 -71t-102 -26.5q-30 0 -53.5 18t-31.5 52l8 20q14 -37 32.5 -52t43.5 -15q34 0 65 26.5t57 70.5t45.5 97.5 t30 107t10.5 98.5q0 44 -12.5 65.5t-34.5 21.5zM263 781q24 1 47.5 4t43.5 10l-253 -883q-12 -42 12 -57t69 -15l-6 -21q-20 1 -56.5 2.5t-77.5 1.5q-31 0 -63 -1.5t-48 -2.5l6 21q36 0 52 13.5t26 48.5zM22 357q39 38 73 75.5t66.5 89.5t65.5 131l3 -16 q-34 -102 -84.5 -168t-112.5 -125z" glyph-name="thorn" horiz-adv-x="551" unicode="þ"/>
<glyph d="M158 429q21 62 -14 62q-23 0 -41 -25t-38 -77l-14 -37h-19l26 73q23 63 58 83t66 20q43 0 56.5 -22t9 -54.5t-15.5 -63.5l-107 -303q-10 -29 -6.5 -45.5t22.5 -16.5q20 0 38 22t40 80l14 37h19l-26 -73q-21 -58 -54.5 -80.5t-68.5 -22.5q-43 0 -58 20t-11 52t17 68z" glyph-name="dotlessi" horiz-adv-x="302" unicode="ı"/>
<glyph d="M-137 -188l4 15q63 3 106.5 53.5t65.5 138.5l115 410q10 34 6.5 48t-21.5 14q-19 0 -37.5 -22.5t-38.5 -79.5l-13 -37h-19l24 73q20 61 53 82t70 21q42 0 55.5 -20.5t10 -52.5t-13.5 -67l-77 -273q-19 -75 -51 -138t-82 -104q-32 -27 -72.5 -44t-84.5 -17z" glyph-name="uni0237" horiz-adv-x="276" unicode="ȷ"/>
<glyph d="M314 599q-35 50 -62 82.5t-47 56.5t-34 46q-13 23 -9.5 38.5t15.5 21.5q14 6 30 0.5t29 -28.5q13 -22 23.5 -50.5t26 -67t41.5 -93.5z" glyph-name="gravecomb" unicode="̀"/>
<glyph d="M108 608q41 49 67 84t45 61t38 45q17 20 34 22t29 -7q10 -10 7.5 -26t-22.5 -36q-18 -19 -44 -38t-61.5 -45.5t-82.5 -68.5z" glyph-name="acutecomb" unicode="́"/>
<glyph d="M293 720q-34 -27 -80.5 -55.5t-94.5 -48.5l-5 14q67 29 123.5 75.5t91.5 96.5h18q11 -61 37.5 -102t81.5 -70l-4 -14q-62 17 -99.5 43.5t-68.5 60.5z" glyph-name="uni0302" unicode="̂"/>
<glyph d="M252 768q30 0 49.5 -11t34.5 -25.5t30.5 -25.5t38.5 -11q18 0 35.5 13.5t34.5 44.5l18 -5q-23 -55 -59 -79t-71 -24q-30 0 -49.5 11t-34.5 25.5t-30.5 25.5t-38.5 11q-18 0 -35.5 -13t-34.5 -45l-18 5q23 56 59 79.5t71 23.5z" glyph-name="tildecomb" unicode="̃"/>
<glyph d="M445 712l-6 -25h-312l6 25h312z" glyph-name="uni0304" unicode="̄"/>
<glyph d="M129 688q0 26 21 51.5t53 25.5q23 0 37 -14.5t14 -36.5q0 -27 -21.5 -52t-53.5 -25q-22 0 -36 14.5t-14 36.5z" glyph-name="uni0307" unicode="̇"/>
<glyph d="M126 678q0 23 20 44t47 21q21 0 35.5 -14.5t14.5 -35.5q0 -25 -20 -45.5t-47 -20.5q-22 0 -36 14.5t-14 36.5zM338 678q0 23 20 44t47 21q21 0 35.5 -14.5t14.5 -35.5q0 -25 -20 -45.5t-47 -20.5q-22 0 -36 14.5t-14 36.5z" glyph-name="uni0308" unicode="̈"/>
<glyph d="M240 791q36 0 61 -21.5t25 -58.5q0 -28 -15.5 -51.5t-41 -37.5t-55.5 -14q-35 0 -59 21.5t-24 58.5q0 44 32 73.5t77 29.5zM218 629q32 0 57 23.5t25 59.5q0 29 -20.5 43.5t-43.5 14.5q-31 0 -55 -24.5t-24 -56.5q0 -30 19.5 -45t41.5 -15z" glyph-name="uni030A" unicode="̊"/>
<glyph d="M68 0l-34 -72q8 3 19.5 5t21.5 2q20 0 31.5 -10.5t11.5 -29.5q0 -29 -20 -47.5t-48.5 -27t-54.5 -8.5q-28 0 -49 7t-31 15l7 15q7 -3 21 -8t39 -5q11 0 28 4.5t30.5 15.5t13.5 31q0 24 -28 24q-5 0 -14 -1.5t-17 -5.5l46 96h27z" glyph-name="uni0327" unicode="̧"/>
<glyph d="M395 463l102 123l13 -12l-105 -128zM395 446l-294 -383l-11 18l295 382zM91 63l-113 -136l-14 13l116 141z" glyph-name="slashshortoverlaycomb" horiz-adv-x="488" unicode="̷"/>
<glyph d="M637 632l135 141l15 -13l-140 -148zM138 77l-141 -150l-17 14l145 154zM133 95l497 537l10 -20l-494 -535z" glyph-name="slashlongoverlaycomb" horiz-adv-x="729" unicode="̸"/>
<glyph d="M60 284h601l-11 -40h-600z" glyph-name="endash" horiz-adv-x="728" unicode="–"/>
<glyph d="M462 824l15 -13l-833 -866l-15 13z" glyph-name="fraction" horiz-adv-x="60" unicode="⁄"/>
<glyph d="M89 340l9 30h501l-9 -30h-501z" glyph-name="minus" horiz-adv-x="661" unicode="−"/>
<glyph d="M185 317q35 0 57 -13t22 -44q0 -32 -22 -61t-55 -55.5t-67 -49t-57 -41.5q25 0 63 -9t63 -9q20 0 33.5 9.5t13.5 25.5q0 11 -4 19l17 7q5 -7 7.5 -15t2.5 -17q0 -28 -23 -48t-67 -20q-31 0 -56 8t-63 10q-26 2 -42 -2t-36 -12l4 18q23 15 60.5 38.5t76.5 53t65.5 63 t26.5 67.5q0 23 -14 33t-40 10t-53.5 -11.5t-53.5 -40.5l-14 11q23 29 63 52t92 23z" glyph-name="two.dnom" horiz-adv-x="341"/>
<glyph d="M258 317l5 -21l-263 -233l-5 10h267l-11 -41h-298l5 18zM277 317l-117 -402h-52l98 339l52 63h19z" glyph-name="four.dnom" horiz-adv-x="342"/>
<glyph d="M316 753l-101 -316h-59l81 251q-25 -15 -53.5 -28.5t-72.5 -25.5l5 19q72 22 111 48.5t70 51.5h19z" glyph-name="one.numr" horiz-adv-x="253"/>
<glyph d="M462 379l-6 -25h-412l6 25h412z" glyph-name="strokeshortoverlaycomb.case" horiz-adv-x="452"/>
<glyph d="M163 823q0 23 20 44t47 21q21 0 35.5 -14.5t14.5 -35.5q0 -25 -20 -45.5t-47 -20.5q-22 0 -36 14.5t-14 36.5zM375 823q0 23 20 44t47 21q21 0 35.5 -14.5t14.5 -35.5q0 -25 -20 -45.5t-47 -20.5q-22 0 -36 14.5t-14 36.5z" glyph-name="uni0308.case"/>
<glyph d="M365 769q-40 33 -69.5 54t-51 36t-37.5 30q-10 11 -17 27.5t5 31.5q13 15 33 9t33 -20q15 -15 29 -37t34 -51.5t51 -69.5z" glyph-name="gravecomb.case"/>
<glyph d="M151 783q53 36 87.5 62.5t60 46t48.5 33.5q15 9 36.5 11.5t29.5 -16.5q7 -16 -5.5 -31t-27.5 -23q-34 -20 -85.5 -36.5t-136.5 -57.5z" glyph-name="acutecomb.case"/>
<glyph d="M363 840q-39 -16 -95.5 -36t-110.5 -32l-5 14q73 23 135 57.5t100 72.5h18q26 -43 57 -76.5t82 -53.5l-4 -14q-68 13 -104.5 31t-72.5 37z" glyph-name="uni0302.case"/>
<glyph d="M273 925q36 0 61 -21.5t25 -58.5q0 -28 -15.5 -51.5t-41 -37.5t-55.5 -14q-35 0 -59 21.5t-24 58.5q0 44 32 73.5t77 29.5zM251 763q32 0 57 23.5t25 59.5q0 29 -20.5 43.5t-43.5 14.5q-31 0 -55 -24.5t-24 -56.5q0 -30 19.5 -45t41.5 -15z" glyph-name="uni030A.case"/>
<glyph d="M283 895q34 0 56 -11t38.5 -25.5t34.5 -25.5t44 -11q18 0 35.5 13.5t34.5 44.5l18 -5q-23 -55 -59 -79t-71 -24q-34 0 -56 11t-38.5 25.5t-34.5 25.5t-44 11q-18 0 -35.5 -13t-34.5 -45l-18 5q23 56 59 79.5t71 23.5z" glyph-name="tildecomb.case"/>
<glyph d="M100 4l-36 -76q25 7 51 7q25 0 39 -10.5t14 -29.5q0 -29 -25 -47.5t-60.5 -27t-67.5 -8.5q-35 0 -61 7t-39 15l7 15q8 -3 27 -8t53 -5q15 0 39.5 4.5t43.5 15.5t19 31q0 24 -38 24q-7 0 -18.5 -1.5t-22.5 -5.5l48 100h27z" glyph-name="uni0327.case"/>
</font>
</defs>
</svg>
